<svg width="80" height="80" viewBox="0 0 80 80" fill="none" xmlns="http://www.w3.org/2000/svg">
<ellipse cx="40" cy="39.9466" rx="40" ry="39.9465" fill="#00A6CA"/>
<path d="M41.2273 28.3069H25.543C24.4276 28.3069 24.3172 28.4149 24.3172 29.5223V45.4459C24.3172 46.5009 24.449 46.6305 25.5032 46.6305H53.4395C54.5305 46.6305 54.6653 46.5071 54.6653 45.3966C54.6653 41.0224 54.6806 36.6482 54.6653 32.2739C54.6653 31.6076 54.8522 31.4226 55.4897 31.475C56.1725 31.5136 56.857 31.5136 57.5398 31.475C57.8984 31.475 57.9964 31.5984 57.9964 31.9439C57.9964 36.6636 58.0179 41.3802 57.9535 46.0968C57.9229 48.2839 56.1577 49.8849 53.9697 49.888C49.9612 49.888 45.9528 49.9096 41.9444 49.8695C41.2457 49.8695 41.068 50.0823 41.1262 50.7301C41.1706 51.3185 41.1706 51.9094 41.1262 52.4977C41.0925 52.9851 41.261 53.1147 41.7391 53.1147C43.6452 53.0869 45.5514 53.1147 47.4575 53.09C48.0398 53.09 48.3033 53.1979 48.242 53.8427C48.191 54.4585 48.191 55.0776 48.242 55.6935C48.2819 56.2364 48.1225 56.3999 47.5586 56.3938C43.8812 56.366 40.2283 56.3938 36.56 56.3938C34.8255 56.3938 33.091 56.3722 31.3503 56.3938C30.8478 56.3938 30.7221 56.2334 30.7374 55.7768C30.7803 55.1143 30.7803 54.4497 30.7374 53.7871C30.6884 53.1979 30.9336 53.1023 31.4515 53.1116C33.3576 53.1393 35.2637 53.1116 37.1699 53.1363C37.7246 53.1363 37.9115 52.9882 37.8563 52.436C37.7767 51.6124 38.1996 50.5049 37.6847 50.0391C37.2342 49.6289 36.1525 49.9065 35.3526 49.9034C31.9295 49.9034 28.5095 49.9034 25.0864 49.9034C22.7972 49.8972 21.0504 48.2747 21.0321 45.958C20.9892 40.282 20.9892 34.606 21.0321 28.9301C21.0535 26.6751 22.8156 25.0001 25.0589 25.0001C34.6876 25.0001 44.3164 25.0001 53.9451 25.0001C54.7449 24.9957 55.5275 25.2337 56.191 25.6832C56.8546 26.1327 57.3683 26.7729 57.6655 27.5203C57.9505 28.2483 57.9168 28.3008 57.1445 28.3008H41.2273V28.3069Z" fill="#FCD800"/>
<path d="M47.5566 37.4595C47.5566 39.2518 47.5382 41.044 47.5566 42.8394C47.5566 43.3329 47.4095 43.4563 46.9437 43.4563C46.2358 43.4193 45.5248 43.4347 44.8169 43.4563C44.4645 43.4563 44.2898 43.3977 44.2929 42.9782C44.3051 39.3197 44.3051 35.6591 44.2929 31.9964C44.2929 31.6077 44.4247 31.4874 44.8016 31.4998C45.534 31.5244 46.2695 31.5368 47.0019 31.4998C47.4831 31.472 47.5627 31.6694 47.5566 32.0951C47.5444 33.8719 47.5566 35.6642 47.5566 37.4595Z" fill="#FCD800"/>
<path d="M41.127 39.6466C41.127 40.7263 41.127 41.806 41.127 42.8857C41.127 43.2774 41.0504 43.4625 40.6091 43.444C39.8307 43.4101 39.0492 43.4224 38.2678 43.444C37.9613 43.444 37.8418 43.3453 37.8418 43.0245C37.8418 40.7911 37.8418 38.5598 37.8418 36.3305C37.8418 36.0035 37.9797 35.911 38.2831 35.9172C39.0645 35.9172 39.8429 35.9387 40.6244 35.9172C41.0075 35.9172 41.1331 36.0375 41.127 36.42C41.1117 37.4904 41.1239 38.5731 41.127 39.6466Z" fill="#FCD800"/>
<path d="M31.4215 41.4234C31.4767 40.9484 31.1672 40.1895 31.541 39.8317C31.9149 39.4739 32.6565 39.7361 33.2357 39.7299C34.6699 39.7299 34.6699 39.7299 34.6699 41.1828C34.6699 41.7473 34.6393 42.3149 34.6699 42.8764C34.7036 43.3514 34.5167 43.4625 34.0846 43.444C33.3772 43.4069 32.6683 43.4069 31.9609 43.444C31.4828 43.4748 31.3725 43.2866 31.4031 42.8548C31.4338 42.4229 31.4215 41.9664 31.4215 41.4234Z" fill="#FCD800"/>
</svg>
