<svg width="80" height="80" viewBox="0 0 80 80" fill="none" xmlns="http://www.w3.org/2000/svg">
<ellipse cx="40" cy="39.9466" rx="40" ry="39.9465" fill="#00A6CA"/>
<path d="M31.527 38.0689V38.0689C31.5282 36.7714 31.5493 35.5083 31.5825 34.5175C31.5991 34.0224 31.6187 33.5925 31.6407 33.259C31.6614 32.9445 31.6864 32.6699 31.7231 32.519C32.4898 29.3638 35.4418 26.8085 38.8695 26.2516C42.8105 25.611 46.8577 27.9763 48.3252 31.7542L48.3252 31.7542C48.6954 32.7076 48.7325 33.4179 48.8314 38.434C48.8839 41.0884 48.9163 42.4752 48.9817 43.3093C49.0446 44.1105 49.1334 44.3552 49.299 44.735L31.527 38.0689ZM31.527 38.0689L31.5232 42.2711H30.078H28.6408L28.7102 37.5774C28.7102 37.5774 28.7102 37.5774 28.7102 37.5774C28.7742 33.2546 28.8452 32.2538 29.07 31.5162M31.527 38.0689L29.07 31.5162M22.5234 47.0991V48.3445V49.5935L27.8602 49.6337L33.6931 49.6775L34.1692 49.681L34.1889 50.1568L34.2957 52.7365C34.3248 53.4374 34.3739 54.1418 34.4295 54.7102C34.4573 54.9947 34.4863 55.2416 34.5147 55.4351C34.5448 55.6408 34.5697 55.7531 34.5821 55.7901C34.7188 56.1984 35.0577 56.7761 35.488 57.3389C35.9176 57.9009 36.3924 58.3881 36.7636 58.641L36.7637 58.641C37.5107 59.1501 38.0333 59.434 38.5848 59.6C39.1385 59.7666 39.7563 59.825 40.711 59.8268C41.5343 59.8283 41.9475 59.8175 42.2832 59.7563C42.603 59.6979 42.8691 59.5905 43.3928 59.3456L43.3929 59.3456C45.2195 58.4916 46.3999 57.1315 46.8813 55.3777C46.9061 55.2875 46.9291 55.2046 46.9504 55.128C47.0333 54.8293 47.0895 54.6271 47.1159 54.4718C47.1171 54.4647 47.1182 54.458 47.1192 54.4516C47.0736 54.4449 47.0142 54.4388 46.9374 54.434C46.7201 54.4205 46.434 54.4211 46.0407 54.4218C45.9425 54.422 45.8377 54.4222 45.7256 54.4222H44.2263L44.19 54.6052C44.1004 55.0584 43.798 55.5466 43.4603 55.9456C43.1161 56.3522 42.6732 56.7394 42.225 56.9593C41.4462 57.3415 40.5174 57.3465 39.6951 57.0994C38.8719 56.852 38.0936 56.3336 37.6324 55.5869C37.4162 55.2368 37.2758 54.9568 37.2062 54.468C37.1433 54.0271 37.1364 53.4045 37.1364 52.3681V50.0942V49.5942H37.6364H47.6996H57.5632L57.8767 49.2968C58.3352 48.8619 58.4159 48.3048 58.1729 47.8588C58.0204 47.5791 57.8638 47.4183 57.6555 47.3054C57.4304 47.1834 57.1051 47.0956 56.5752 47.0409C54.5722 46.8339 52.8631 45.7117 52.0331 44.0031C51.8252 43.5751 51.7199 43.227 51.6535 42.349C51.589 41.4969 51.5571 40.0933 51.5094 37.5378C51.4536 34.5452 51.4149 33.0248 51.2634 31.9986C51.1186 31.0184 50.8747 30.5074 50.3513 29.5236C48.8808 26.7594 45.985 24.5552 42.9224 23.8701C42.1293 23.6927 41.0068 23.6146 39.8729 23.6394C38.738 23.6642 37.6401 23.7912 36.894 24.0008L22.5234 47.0991ZM22.5234 47.0991H35.7945C42.8471 47.0991 46.4163 47.0982 48.1427 47.0233C48.5753 47.0045 48.905 46.9806 49.1501 46.949C49.3715 46.9205 49.5986 46.8782 49.7666 46.7816C49.8601 46.7278 49.9969 46.6221 50.0575 46.4338C50.1196 46.2407 50.0654 46.0745 50.019 45.9807C49.9745 45.8906 49.9148 45.8199 49.8759 45.7768C49.8403 45.7372 49.8011 45.6984 49.7678 45.6659C49.7632 45.6592 49.7525 45.6434 49.7351 45.6149C49.7028 45.5618 49.6614 45.4877 49.6133 45.3958C49.5175 45.2129 49.4045 44.977 49.299 44.735L22.5234 47.0991ZM29.07 31.5162C30.1545 27.9595 33.1798 25.0445 36.894 24.0008L29.07 31.5162ZM47.1283 54.3404C47.1284 54.3404 47.1286 54.3415 47.1287 54.3439C47.1284 54.3417 47.1283 54.3405 47.1283 54.3404ZM49.1428 46.4576C49.1428 46.4577 49.1425 46.4572 49.1417 46.4562L49.1428 46.4576Z" fill="#FCD800" stroke="#FCD800"/>
</svg>
