<svg width="80" height="80" viewBox="0 0 80 80" fill="none" xmlns="http://www.w3.org/2000/svg">
<ellipse cx="40" cy="39.9466" rx="40" ry="39.9465" fill="#00A6CA"/>
<path d="M40.0726 49.4191C34.8391 49.4191 23.3673 49.4218 23.0987 49.4194C22.83 49.417 22.5614 49.292 22.5614 48.8894C22.5614 48.2478 22.5614 47.7268 22.5614 47.0513C22.5614 46.7467 22.83 46.5984 23.0987 46.5984C23.3673 46.5984 56.946 46.5984 56.946 46.5984C56.946 46.5984 57.471 46.5984 57.4757 47.0381C57.4831 47.7268 57.4757 48.291 57.4757 48.9397C57.4832 49.4194 57.2146 49.4194 56.946 49.4194C56.6775 49.4194 45.3152 49.4191 40.0726 49.4191Z" fill="#FCD800"/>
<path d="M40.0726 54.4987C34.8391 54.4987 23.3673 54.5014 23.0987 54.499C22.83 54.4966 22.5614 54.3716 22.5614 53.969C22.5614 53.3274 22.5614 52.8064 22.5614 52.1309C22.5614 51.8263 22.83 51.678 23.0987 51.678C23.3673 51.678 56.946 51.678 56.946 51.678C56.946 51.678 57.471 51.678 57.4757 52.1177C57.4831 52.8064 57.4757 53.3706 57.4757 54.0193C57.4832 54.499 57.2146 54.499 56.946 54.499C56.6775 54.499 45.3152 54.4987 40.0726 54.4987Z" fill="#FCD800"/>
<path d="M22.7167 43.8277L22.6616 43.9112C22.4834 43.7936 22.3376 43.682 22.2238 43.5496C22.1086 43.4153 22.0294 43.2633 21.9784 43.0685C21.8787 42.6878 21.8858 42.1356 21.9348 41.218C22.1364 37.4396 23.4041 33.7185 25.531 30.6625C28.3325 26.6372 32.4016 23.9782 37.094 23.1084L22.7167 43.8277ZM22.7167 43.8277L22.6616 43.9112C22.7699 43.9826 22.8756 44.0397 23.0347 44.0829C23.1906 44.1253 23.3949 44.1536 23.6997 44.1731C24.309 44.212 25.3433 44.2171 27.2458 44.2174L31.3367 44.2179L31.4368 44.218V44.1179V42.4809V40.8438V40.7438H31.3368H28.1619H25.1028M22.7167 43.8277L25.1028 40.7438M25.1028 40.7438L25.1788 40.2258C25.5752 37.525 26.5069 35.0871 27.9856 32.8806L27.9856 32.8806L28.3522 32.3334L29.9029 34.0073L29.9762 33.9393L29.9029 34.0073L31.5395 35.7738L31.613 35.8531L31.6863 35.7737L32.7498 34.6227L33.8134 33.4717L33.876 33.4039L33.8135 33.3361L32.1812 31.5648L32.1077 31.6325L32.1812 31.5648L30.6221 29.8731L31.1397 29.4669L31.1397 29.4669C33.1779 27.8671 35.485 26.8336 37.9194 26.4287L38.3874 26.3509V28.7016V31.1703V31.2703H38.4874H40H41.5126H41.6126V31.1703V28.7016V26.3512L42.0804 26.43L42.0971 26.3314L42.0804 26.43C43.2224 26.6225 44.4556 26.9947 45.6448 27.5066L46.86 28.0297L46.9246 28.0575L46.9727 28.006L48.0673 26.8318L47.9941 26.7636L48.0673 26.8318L49.1617 25.6576L49.2511 25.5617L49.135 25.5008L47.6621 24.7292C45.2222 23.4509 42.7674 22.8759 39.8616 22.9008L39.8625 23.0008L39.8616 22.9008C38.9136 22.909 37.6695 23.0017 37.094 23.1084L25.1028 40.7438ZM38.6218 41.3707L38.5591 41.4385L38.6218 41.5064L39.687 42.6592L40.752 43.8118L40.8255 43.8913L40.8989 43.8118L46.2525 38.0193C48.5422 35.5419 49.8868 34.1021 50.6814 33.3018C51.0795 32.9008 51.3357 32.6644 51.5019 32.5383C51.5859 32.4746 51.6396 32.4448 51.6721 32.4338C51.6775 32.432 51.6816 32.4308 51.6845 32.4302C51.7714 32.5122 51.9127 32.7039 52.0878 32.9759C52.2662 33.2529 52.473 33.6028 52.6823 33.9791C53.1015 34.7325 53.5274 35.5857 53.7534 36.1659L53.7534 36.1659C54.1966 37.3024 54.6391 38.9852 54.8212 40.2258L54.8972 40.7438H51.9756H48.9383H48.8383V40.8438V42.4809V44.1179V44.218L48.9383 44.2179L52.8917 44.2174C54.7261 44.2171 55.7264 44.2119 56.3186 44.1728C56.6149 44.1533 56.8148 44.125 56.9684 44.0826C57.1251 44.0394 57.2305 43.9824 57.3384 43.9112C57.5166 43.7936 57.6624 43.682 57.7762 43.5496C57.8914 43.4153 57.9706 43.2633 58.0216 43.0685C58.1213 42.6878 58.1142 42.1356 58.0652 41.218C57.8159 36.5483 56.058 32.2613 52.9602 28.7692C52.6574 28.4278 52.3643 28.1169 52.1357 27.8908C52.0215 27.7779 51.9223 27.6851 51.8455 27.6199C51.8072 27.5874 51.7727 27.5603 51.7436 27.5407C51.7291 27.531 51.7139 27.5218 51.6989 27.5147C51.6867 27.5088 51.6629 27.4985 51.6346 27.4985C51.6167 27.4985 51.6029 27.5032 51.5969 27.5055C51.5897 27.5082 51.5838 27.5113 51.5798 27.5135C51.5719 27.5179 51.5647 27.5229 51.5591 27.5271C51.5475 27.5356 51.5341 27.5467 51.5199 27.5592C51.4909 27.5846 51.4518 27.6213 51.4037 27.668C51.3072 27.7615 51.1707 27.8988 50.999 28.0747C50.6554 28.4267 50.169 28.9353 49.5756 29.5625C48.3887 30.8172 46.773 32.5475 45.0148 34.4507L38.6218 41.3707Z" fill="#FCD800" stroke="#FCD800" stroke-width="0.2"/>
</svg>
