<svg width="80" height="80" viewBox="0 0 80 80" fill="none" xmlns="http://www.w3.org/2000/svg">
<ellipse cx="40" cy="39.9465" rx="40" ry="39.9465" fill="#00A6CA"/>
<path fill-rule="evenodd" clip-rule="evenodd" d="M39.4257 23.2654C39.2344 23.4144 38.3486 24.8614 37.4571 26.4814C36.5655 28.1012 35.7567 29.4567 35.6594 29.4936C35.5622 29.5305 34.0893 29.1567 32.3863 28.6628C30.6834 28.169 29.0337 27.765 28.7205 27.765C27.953 27.765 27.3462 28.3357 27.3462 29.0574C27.3462 29.3299 27.9763 31.6643 28.7463 34.2449L30.1465 38.9367L31.121 38.409C31.8607 38.0085 32.1591 37.7573 32.3585 37.3674L32.6212 36.8536L31.8435 34.1935C31.4158 32.7304 31.0928 31.5067 31.1257 31.474C31.1588 31.4415 32.2708 31.7282 33.5973 32.1115C36.3128 32.8959 36.9792 32.9636 37.4365 32.5015C37.6035 32.3329 38.2977 31.1684 38.9791 29.9139C39.6606 28.6596 40.2491 27.6338 40.287 27.6345C40.3248 27.6351 40.941 28.7125 41.6565 30.0286C42.3718 31.3447 43.0826 32.5085 43.2358 32.6149C43.7076 32.942 44.4909 32.8355 46.9812 32.1062C48.2992 31.7202 49.4064 31.4326 49.4413 31.4674C49.4764 31.502 49.1574 32.7225 48.7326 34.1797C47.705 37.7043 47.5611 37.3706 50.8908 39.1827C53.2699 40.4776 53.3838 40.5579 53.0734 40.7214C50.8349 41.9015 48.6932 43.1117 48.4509 43.3332C47.8923 43.8443 47.9231 44.2221 48.7508 46.998C49.1778 48.4303 49.5067 49.6223 49.4818 49.6472C49.4567 49.6718 48.2669 49.3534 46.8377 48.9396C44.045 48.131 43.594 48.0969 43.0783 48.655C42.9236 48.8225 42.2487 49.9564 41.5786 51.1745C40.9084 52.3928 40.3229 53.3894 40.2776 53.3894C40.2322 53.3894 39.6278 52.3568 38.9347 51.0948C38.2415 49.8328 37.5574 48.6954 37.4145 48.5674C36.8983 48.1048 36.3418 48.1612 33.6836 48.9456C32.2853 49.3582 31.1209 49.6755 31.0957 49.6507C31.0707 49.6259 31.3957 48.4239 31.8179 46.9796C32.4833 44.7038 32.566 44.2951 32.4388 43.9132C32.358 43.6708 32.1858 43.3802 32.0561 43.2674C31.7849 43.0314 23.475 38.4999 23.425 38.5607C23.4067 38.5827 23.0788 39.1669 22.6959 39.8586L22 41.1164L24.2945 42.3638C25.5565 43.05 27.1892 43.942 27.9229 44.3462L29.2569 45.0812L29.0662 45.7255C28.9613 46.08 28.5314 47.5285 28.1108 48.9444C27.6902 50.3604 27.3462 51.6975 27.3462 51.9157C27.3462 52.7328 27.9723 53.3894 28.7514 53.3894C28.9113 53.3894 30.5293 52.958 32.3471 52.4307C34.1647 51.9033 35.6959 51.52 35.7497 51.5788C35.8034 51.6375 36.5725 53.0043 37.4589 54.6161C38.3452 56.2278 39.1961 57.6539 39.3497 57.7851C39.7276 58.1077 40.8466 58.1077 41.2235 57.7851C41.3767 57.6539 42.2253 56.2278 43.1091 54.6161C43.993 53.0043 44.7613 51.6386 44.8165 51.5812C44.8718 51.5239 46.3997 51.907 48.2119 52.4327C50.0242 52.9584 51.6433 53.3887 51.8102 53.389C52.5969 53.3901 53.2277 52.7388 53.2277 51.9254C53.2277 51.7126 52.7971 50.0995 52.2707 48.3409C51.4049 45.4482 51.3349 45.1272 51.5372 44.9748C51.6601 44.8821 53.0886 44.0921 54.7114 43.2193C57.3653 41.7918 57.6825 41.5837 57.8652 41.1508C58.1176 40.5531 58.0087 39.896 57.5966 39.5289C57.4274 39.3782 55.957 38.5349 54.3291 37.6549C52.7012 36.775 51.3567 36.0429 51.3413 36.0282C51.3259 36.0134 51.7441 34.5457 52.2705 32.7667C52.797 30.9876 53.2277 29.3137 53.2277 29.0469C53.2277 28.3232 52.6162 27.7644 51.8272 27.7669C51.4996 27.768 49.8696 28.1667 48.2049 28.6529C46.5402 29.1391 45.0844 29.5354 44.9697 29.5335C44.8407 29.5313 44.1388 28.3872 43.1297 26.5338C42.2322 24.886 41.3411 23.4156 41.1493 23.2662C40.694 22.9115 39.8804 22.9113 39.4257 23.2654Z" fill="#FCD800"/>
<ellipse cx="37.1243" cy="38.8603" rx="1.51435" ry="1.4993" fill="#FCD800"/>
<ellipse cx="42.5622" cy="44.2492" rx="1.51435" ry="1.4993" fill="#FCD800"/>
<rect width="13.3341" height="2.11097" transform="matrix(0.774114 -0.633046 0.640607 0.767869 34.2432 44.9127)" fill="#FCD800"/>
</svg>
