<svg width="97" height="98" viewBox="0 0 97 98" fill="none" xmlns="http://www.w3.org/2000/svg">
<ellipse cx="48" cy="50.5121" rx="40" ry="39.9465" fill="#00A6CA"/>
<path d="M39.527 48.6344V48.6344C39.5282 47.3369 39.5493 46.0738 39.5825 45.083C39.5991 44.5879 39.6187 44.158 39.6407 43.8245C39.6614 43.5101 39.6864 43.2354 39.7231 43.0846C40.4898 39.9293 43.4418 37.3741 46.8695 36.8172C50.8105 36.1766 54.8577 38.5418 56.3252 42.3197L56.3252 42.3198C56.6954 43.2732 56.7325 43.9835 56.8314 48.9995C56.8839 51.654 56.9163 53.0408 56.9817 53.8748C57.0446 54.6761 57.1334 54.9208 57.299 55.3005L39.527 48.6344ZM39.527 48.6344L39.5232 52.8367H38.078H36.6408L36.7102 48.143C36.7102 48.143 36.7102 48.143 36.7102 48.143C36.7742 43.8202 36.8452 42.8194 37.07 42.0817M39.527 48.6344L37.07 42.0817M30.5234 57.6647V58.9101V60.159L35.8602 60.1992L41.6931 60.243L42.1692 60.2466L42.1889 60.7223L42.2957 63.302C42.3248 64.003 42.3739 64.7074 42.4295 65.2758C42.4573 65.5602 42.4863 65.8071 42.5147 66.0007C42.5448 66.2064 42.5697 66.3186 42.5821 66.3556C42.7188 66.764 43.0577 67.3416 43.488 67.9045C43.9176 68.4664 44.3924 68.9536 44.7636 69.2066L44.7637 69.2066C45.5107 69.7156 46.0333 69.9995 46.5848 70.1656C47.1385 70.3322 47.7563 70.3905 48.711 70.3923C49.5343 70.3939 49.9475 70.3831 50.2832 70.3218C50.603 70.2635 50.8691 70.1561 51.3928 69.9112L51.3929 69.9111C53.2195 69.0571 54.3999 67.697 54.8813 65.9432C54.9061 65.8531 54.9291 65.7701 54.9504 65.6936C55.0333 65.3949 55.0895 65.1926 55.1159 65.0373C55.1171 65.0303 55.1182 65.0236 55.1192 65.0172C55.0736 65.0104 55.0142 65.0043 54.9374 64.9996C54.7201 64.9861 54.434 64.9866 54.0407 64.9874C53.9425 64.9876 53.8377 64.9878 53.7256 64.9878H52.2263L52.19 65.1708C52.1004 65.6239 51.798 66.1121 51.4603 66.5112C51.1161 66.9177 50.6732 67.305 50.225 67.5249C49.4462 67.907 48.5174 67.9121 47.6951 67.6649C46.8719 67.4175 46.0936 66.8991 45.6324 66.1524C45.4162 65.8024 45.2758 65.5224 45.2062 65.0335C45.1433 64.5927 45.1364 63.97 45.1364 62.9336V60.6598V60.1598H45.6364H55.6996H65.5632L65.8767 59.8623C66.3352 59.4274 66.4159 58.8704 66.1729 58.4243C66.0204 58.1447 65.8638 57.9839 65.6555 57.871C65.4304 57.749 65.1051 57.6612 64.5752 57.6064C62.5722 57.3994 60.8631 56.2773 60.0331 54.5686C59.8252 54.1407 59.7199 53.7926 59.6535 52.9146C59.589 52.0625 59.5571 50.6589 59.5094 48.1033C59.4536 45.1107 59.4149 43.5904 59.2634 42.5641C59.1186 41.584 58.8747 41.073 58.3513 40.0891C56.8808 37.3249 53.985 35.1207 50.9224 34.4357C50.1293 34.2583 49.0068 34.1801 47.8729 34.2049C46.738 34.2298 45.6401 34.3568 44.894 34.5664L30.5234 57.6647ZM30.5234 57.6647H43.7945C50.8471 57.6647 54.4163 57.6638 56.1427 57.5888C56.5753 57.57 56.905 57.5462 57.1501 57.5145C57.3715 57.486 57.5986 57.4437 57.7666 57.3471C57.8601 57.2934 57.9969 57.1876 58.0575 56.9994C58.1196 56.8063 58.0654 56.6401 58.019 56.5463C57.9745 56.4561 57.9148 56.3855 57.8759 56.3423C57.8403 56.3028 57.8011 56.2639 57.7678 56.2314C57.7632 56.2247 57.7525 56.209 57.7351 56.1805C57.7028 56.1274 57.6614 56.0532 57.6133 55.9614C57.5175 55.7784 57.4045 55.5426 57.299 55.3005L30.5234 57.6647ZM37.07 42.0817C38.1545 38.525 41.1798 35.6101 44.894 34.5664L37.07 42.0817ZM55.1283 64.906C55.1284 64.9059 55.1286 64.907 55.1287 64.9095C55.1284 64.9073 55.1283 64.906 55.1283 64.906ZM57.1428 57.0231C57.1428 57.0232 57.1425 57.0228 57.1417 57.0217L57.1428 57.0231Z" fill="#FCD800" stroke="#FCD800"/>
<path d="M95.6347 49.0656C96.3888 49.0656 97.002 48.454 96.9808 47.7003C96.6648 36.4709 92.4582 25.6826 85.0573 17.1938C77.6565 8.70488 67.5423 3.06706 56.4608 1.22335C55.717 1.0996 55.0276 1.62377 54.9248 2.37074C54.822 3.11772 55.3449 3.80453 56.0885 3.92952C66.5164 5.6825 76.0319 10.9965 82.9992 18.9881C89.9665 26.9797 93.9339 37.1307 94.2491 47.7003C94.2716 48.4539 94.8807 49.0656 95.6347 49.0656Z" fill="#00A6CA"/>
</svg>
