<svg width="184" height="57" viewBox="0 0 184 57" fill="none" xmlns="http://www.w3.org/2000/svg">
<path d="M168.682 0.000140003H14.6033C14.0416 0.000140003 13.4867 0.000140003 12.9265 0.00294006C12.4577 0.00574012 11.9925 0.0138603 11.5191 0.0207204C10.4907 0.0317788 9.46464 0.11448 8.44995 0.268106C7.43667 0.425076 6.45514 0.721019 5.53854 1.14592C4.6231 1.57444 3.78664 2.13125 3.05951 2.79614C2.32855 3.45911 1.71923 4.22541 1.25499 5.06559C0.789448 5.90417 0.46665 6.80279 0.297741 7.7304C0.127215 8.65681 0.0354539 9.5939 0.0232802 10.5333C0.00903639 10.9625 0.0075048 11.3932 0 11.8225V44.1831C0.0075048 44.6178 0.00903639 45.0389 0.0232802 45.4739C0.0354654 46.4132 0.127227 47.3502 0.297741 48.2765C0.466196 49.2046 0.789013 50.1037 1.25499 50.9426C1.71901 51.7801 2.32842 52.5433 3.05951 53.2027C3.78389 53.8705 4.62089 54.4276 5.53854 54.8529C6.45513 55.2789 7.43656 55.5766 8.44995 55.736C9.46481 55.8884 10.4907 55.9711 11.5191 55.9835C11.9924 55.9931 12.4577 55.9985 12.9266 55.9985C13.4867 56.0013 14.0416 56.0013 14.6033 56.0013H168.681C169.232 56.0013 169.791 56.0013 170.342 55.9985C170.808 55.9985 171.287 55.9931 171.754 55.9835C172.78 55.9718 173.804 55.8891 174.817 55.736C175.834 55.5755 176.819 55.2779 177.74 54.8529C178.656 54.4274 179.493 53.8703 180.216 53.2027C180.946 52.5408 181.556 51.7781 182.026 50.9426C182.489 50.1031 182.808 49.2041 182.974 48.2765C183.145 47.35 183.24 46.4132 183.259 45.4738C183.265 45.0389 183.265 44.6178 183.265 44.1831C183.277 43.6745 183.277 43.1686 183.277 42.6518V13.3511C183.277 12.8383 183.277 12.3298 183.265 11.8225C183.265 11.3932 183.265 10.9625 183.259 10.5331C183.24 9.59368 183.145 8.6568 182.974 7.73026C182.808 6.80328 182.488 5.90483 182.026 5.06573C181.081 3.38155 179.582 2.01063 177.74 1.14578C176.819 0.721921 175.834 0.426057 174.817 0.267966C173.804 0.113687 172.78 0.0309801 171.754 0.0205804C171.287 0.0137203 170.808 0.00546012 170.342 0.00280006C169.791 0 169.232 0 168.681 0L168.682 0.000140003Z" fill="#A6A6A6"/>
<path d="M12.7153 54.9226C12.2473 54.9226 11.7907 54.9171 11.3264 54.9076C10.3646 54.8961 9.4051 54.8194 8.45569 54.6781C7.57041 54.5383 6.71281 54.2783 5.9112 53.9067C5.11691 53.5382 4.39245 53.055 3.76558 52.4756C3.12959 51.9031 2.60009 51.239 2.19807 50.5098C1.79166 49.7758 1.5104 48.989 1.36408 48.1769C1.20613 47.3043 1.1207 46.422 1.10851 45.5375C1.09869 45.2406 1.08594 44.2522 1.08594 44.2522V11.7333C1.08594 11.7333 1.09945 10.7601 1.10851 10.474C1.12022 9.59097 1.20519 8.71002 1.3627 7.83879C1.5093 7.02446 1.7908 6.23544 2.19745 5.49905C2.59793 4.77028 3.12442 4.10571 3.75652 3.53108C4.38795 2.951 5.11475 2.46531 5.91043 2.09171C6.71023 1.72134 7.56621 1.46324 8.4497 1.32606C9.40224 1.18335 10.3651 1.10622 11.3302 1.09534L12.7161 1.07788H170.556L171.958 1.09576C172.915 1.10617 173.869 1.18269 174.813 1.32465C175.705 1.46359 176.57 1.72353 177.379 2.09593C178.973 2.84882 180.27 4.03997 181.088 5.50243C181.488 6.23378 181.765 7.0164 181.91 7.82373C182.07 8.70209 182.159 9.58994 182.177 10.4802C182.182 10.8789 182.182 11.3071 182.182 11.7333C182.194 12.2612 182.194 12.7636 182.194 13.2703V42.7315C182.194 43.2429 182.194 43.742 182.182 44.2451C182.182 44.7029 182.182 45.1222 182.176 45.5538C182.158 46.4282 182.07 47.3003 181.913 48.163C181.77 48.9809 181.49 49.7738 181.084 50.5138C180.679 51.2352 180.152 51.8935 179.524 52.4645C178.896 53.047 178.171 53.533 177.375 53.9039C176.568 54.2783 175.704 54.5392 174.813 54.6778C173.863 54.8199 172.904 54.8967 171.942 54.9074C171.483 54.9173 171.023 54.9223 170.564 54.9225L168.899 54.9253L12.7153 54.9226Z" fill="black"/>
<path d="M63.4586 14.3566C63.4586 15.4799 63.1172 16.3744 62.4334 17.0417C61.6566 17.8352 60.6444 18.2322 59.3999 18.2322C58.2082 18.2322 57.1949 17.83 56.3617 17.0244C55.5269 16.2195 55.1104 15.2213 55.1104 14.0303C55.1104 12.8388 55.5269 11.8412 56.3617 11.0356C57.1949 10.2307 58.2082 9.82788 59.3999 9.82788C59.9913 9.82788 60.5574 9.94056 61.0949 10.1653C61.6324 10.3905 62.0636 10.6895 62.3861 11.0639L61.6604 11.7714C61.1137 11.1351 60.3611 10.8172 59.3999 10.8172C58.5308 10.8172 57.7793 11.1148 57.145 11.7102C56.5106 12.3063 56.1935 13.0792 56.1935 14.0303C56.1935 14.9814 56.5106 15.7543 57.145 16.3505C57.7793 16.9459 58.5307 17.2434 59.3999 17.2434C60.3219 17.2434 61.0906 16.9443 61.7061 16.3452C62.1056 15.9549 62.3366 15.4125 62.3984 14.7158H59.3999V13.7496H63.401C63.4396 13.9597 63.4585 14.1613 63.4585 14.3566" fill="white"/>
<path d="M63.457 14.3555H63.3193C63.3182 15.4531 62.9891 16.3057 62.3344 16.9457L62.3329 16.9468L62.3323 16.9479C61.5803 17.714 60.6136 18.0953 59.3982 18.0969C58.2383 18.0953 57.2674 17.7098 56.4567 16.9284C55.6478 16.1455 55.2478 15.1896 55.2463 14.0291C55.2478 12.8681 55.6478 11.9128 56.4567 11.1303C57.2674 10.3484 58.2383 9.96239 59.3982 9.96077C59.9718 9.96077 60.518 10.0698 61.0389 10.2871C61.5603 10.5061 61.9722 10.793 62.2791 11.1493L62.3844 11.0627L62.2872 10.9679L61.5614 11.6759L61.6587 11.7702L61.7646 11.6844C61.1926 11.0166 60.3896 10.68 59.3983 10.682C58.4969 10.6809 57.704 10.9947 57.0481 11.6127C56.3859 12.2328 56.0532 13.0492 56.0543 14.0291C56.0532 15.0091 56.3859 15.8255 57.0481 16.4456C57.704 17.0636 58.4969 17.3774 59.3982 17.3763C60.3508 17.3779 61.1626 17.0631 61.8017 16.4388C62.2285 16.0218 62.4705 15.4443 62.5339 14.7262L62.5467 14.5806H59.5359V13.8825H63.3994V13.7484L63.2638 13.7719C63.3015 13.9753 63.3193 14.1684 63.3193 14.3555H63.5945C63.5945 14.1517 63.5751 13.9422 63.5348 13.7244L63.5144 13.6143H59.2607V14.8487H62.3968V14.7147L62.2597 14.7031C62.199 15.3778 61.9785 15.8858 61.6071 16.2493C61.0158 16.8232 60.2901 17.1065 59.3983 17.1081C58.5614 17.107 57.8513 16.8263 57.239 16.2529C56.6327 15.6815 56.331 14.9519 56.3295 14.0291C56.331 13.1063 56.6327 12.3768 57.239 11.8054C57.8513 11.2319 58.5613 10.9512 59.3983 10.9501C60.3288 10.9523 61.0315 11.2518 61.5535 11.8567L61.6502 11.9688L62.4818 11.1576L62.571 11.0707L62.4898 10.9768C62.1517 10.5841 61.7012 10.2724 61.1475 10.041C60.5928 9.80892 60.0074 9.69263 59.3983 9.69263C58.1749 9.6916 57.1191 10.1106 56.2628 10.9397C55.4033 11.7672 54.97 12.8073 54.9712 14.0291C54.97 15.2504 55.4033 16.2911 56.2633 17.1191C57.1191 17.9477 58.1749 18.3662 59.3983 18.3651C60.6723 18.3662 61.7292 17.9539 62.5312 17.1332L62.4317 17.0405L62.529 17.1354C63.2418 16.4414 63.5955 15.5039 63.5946 14.3555H63.4569H63.457ZM69.8 10.9952H66.0398V13.5458H69.4307V14.5124H66.0398V17.0631H69.8V18.0513H64.9797V10.0069H69.8V10.9952Z" fill="white"/>
<path d="M69.8011 10.9939V10.8598H65.9033V13.6786H69.2942V14.3767L65.9032 14.3771V17.1959H69.6634V17.916H65.1185V10.1397H69.6634V10.9939H69.8011V10.8598V10.9939H69.9386V9.87158H64.8433V18.1841H69.9386V16.9277H66.1785V14.6452H69.5694V13.4105H66.1785V11.128H69.9386V10.9939H69.8011ZM74.2751 18.0501H73.2134V10.9938H70.9073V10.0056H76.5812V10.9938H74.2751V18.05" fill="white"/>
<path d="M74.2749 18.0501V17.916H73.3508V10.8598H71.0448V10.1398H76.4434V10.8598H74.1373V18.05H74.2749V17.916V18.05H74.4126V11.128H76.7187V9.87158H70.7695V11.1279H73.0756V18.1841H74.4126V18.05H74.2749V18.0501ZM80.6863 18.0501V10.0056H81.7469V18.05H80.6863" fill="white"/>
<path d="M80.6874 18.0501H80.825V10.1397H81.6103V17.916H80.6874V18.05H80.825H80.6874V18.1841H81.8856V9.87158H80.5498V18.1841H80.6874V18.05V18.0501ZM86.4542 18.0501H85.3926V10.9938H83.0865V10.0056H88.7604V10.9938H86.4542V18.05" fill="white"/>
<path d="M86.4535 18.0526V17.9184H85.5294V10.8623H83.2235V10.1422H88.622V10.8623H86.3159V18.0525H86.4535V17.9184V18.0525H86.5911V11.1304H88.8972V9.87404H82.9482V11.1304H85.2542V18.1865H86.5911V18.0524H86.4535V18.0526ZM94.2298 16.3395C94.8409 16.9422 95.5887 17.2433 96.473 17.2433C97.3573 17.2433 98.1055 16.9422 98.7157 16.3395C99.3274 15.7367 99.6339 14.9661 99.6339 14.0303C99.6339 13.0945 99.3274 12.324 98.7157 11.7212C98.1055 11.1184 97.3573 10.8172 96.473 10.8172C95.5887 10.8172 94.8409 11.1184 94.2298 11.7212C93.6196 12.324 93.3133 13.0945 93.3133 14.0303C93.3133 14.9661 93.6196 15.7367 94.2298 16.3395ZM99.5005 17.0129C98.6887 17.8262 97.6792 18.2322 96.473 18.2322C95.2656 18.2322 94.2566 17.8262 93.4466 17.0129C92.6343 16.2005 92.2301 15.2061 92.2301 14.0303C92.2301 12.8545 92.6343 11.8599 93.4466 11.0477C94.2566 10.2342 95.2656 9.82788 96.473 9.82788C97.6729 9.82788 98.6796 10.2364 99.4952 11.0529C100.31 11.8694 100.717 12.8618 100.717 14.0303C100.717 15.2061 100.31 16.2005 99.5005 17.0129Z" fill="white"/>
<path d="M94.2291 16.3383L94.1312 16.4325C94.765 17.0594 95.5558 17.3779 96.4723 17.3763C97.3882 17.3779 98.18 17.0594 98.8128 16.4325C99.4508 15.805 99.7717 14.9933 99.7707 14.0291C99.7716 13.065 99.4508 12.2532 98.8128 11.6257C98.18 10.9988 97.3882 10.6804 96.4723 10.682C95.5558 10.6804 94.765 10.9988 94.1312 11.6257C93.4948 12.2532 93.1733 13.065 93.1749 14.0291C93.1733 14.9932 93.4948 15.805 94.1312 16.4325L94.2291 16.3383L94.327 16.244C93.7432 15.6653 93.4513 14.9372 93.4502 14.0291C93.4513 13.1211 93.7432 12.3931 94.3269 11.8142C94.916 11.2356 95.6197 10.9517 96.4723 10.9502C97.3243 10.9517 98.0295 11.2356 98.6171 11.8142C99.202 12.3931 99.4939 13.1211 99.4949 14.0291C99.4939 14.9372 99.202 15.6653 98.6171 16.244C98.0295 16.8227 97.3243 17.1065 96.4723 17.1081C95.6197 17.1065 94.916 16.8227 94.3269 16.244L94.2291 16.3383ZM99.4998 17.0117L99.4014 16.9186C98.6123 17.7062 97.6474 18.0954 96.4723 18.0969C95.2967 18.0953 94.3317 17.7062 93.5441 16.9186L93.5404 16.9144L93.5441 16.9186C92.7567 16.1282 92.3681 15.1751 92.367 14.0291C92.3681 12.8832 92.7567 11.93 93.5441 11.1397C94.3317 10.352 95.2966 9.9624 96.4723 9.96083C97.6398 9.9624 98.6025 10.3536 99.396 11.1455C100.186 11.9394 100.577 12.8911 100.579 14.0291C100.577 15.1751 100.187 16.1282 99.4014 16.9186L99.4998 17.0117L99.5988 17.1049C100.433 16.2702 100.855 15.2347 100.854 14.0291C100.855 12.8304 100.431 11.7971 99.5932 10.9586C98.7547 10.1168 97.7044 9.69118 96.4723 9.69263C95.2338 9.69118 94.1802 10.1148 93.347 10.9534V10.9528C92.5111 11.7881 92.0907 12.8235 92.0918 14.0291C92.0907 15.2347 92.5111 16.2702 93.347 17.1054L93.3507 17.1092L93.347 17.1049C94.1802 17.9434 95.2338 18.3662 96.4723 18.3651C97.7102 18.3662 98.7638 17.9434 99.5988 17.1049L99.4998 17.0117ZM102.205 18.0514V10.0069H103.497L107.509 16.2649H107.555L107.509 14.7146V10.0069H108.571V18.0513H107.464L103.265 11.49H103.22L103.265 13.0408V18.0513H102.205" fill="white"/>
<path d="M102.206 18.0501H102.344V10.1397H103.421L107.434 16.3977H107.697L107.648 14.7114V10.1398H108.434V17.916H107.541L103.342 11.3547H103.079L103.128 13.0418V17.916H102.206V18.05H102.344H102.206V18.1841H103.404V13.0375L103.358 11.4852L103.22 11.4888V11.6229H103.266V11.4888L103.149 11.5601L107.388 18.1841H108.709V9.87158H107.372V14.7149L107.418 16.2673L107.556 16.2636V16.1296H107.51V16.2636L107.627 16.1925L103.573 9.87158H102.068V18.1841H102.206V18.05L102.206 18.0501ZM145.362 40.8425H147.93V24.0818H145.362L145.362 40.8425ZM168.491 30.1194L165.548 37.386H165.459L162.404 30.1193H159.638L164.22 40.2758L161.608 45.9253H164.287L171.347 30.1193L168.491 30.1194ZM153.929 38.9389C153.087 38.9389 151.914 38.5293 151.914 37.5154C151.914 36.2217 153.376 35.7258 154.636 35.7258C155.766 35.7258 156.296 35.963 156.982 36.2868C156.783 37.839 155.411 38.9389 153.929 38.9389ZM154.238 29.7527C152.379 29.7527 150.454 30.5508 149.657 32.319L151.936 33.246C152.423 32.319 153.33 32.0167 154.282 32.0167C155.61 32.0167 156.96 32.7934 156.982 34.1735V34.3458C156.517 34.087 155.522 33.699 154.304 33.699C151.848 33.699 149.346 35.014 149.346 37.4724C149.346 39.715 151.361 41.1599 153.618 41.1599C155.345 41.1599 156.296 40.4052 156.894 39.5212H156.982V40.8148H159.461V34.3887C159.461 31.4135 157.182 29.7527 154.238 29.7527ZM138.369 32.1597H134.717V26.4145H138.369C140.289 26.4145 141.378 27.9631 141.378 29.287C141.378 30.5859 140.289 32.1597 138.369 32.1597ZM138.303 24.0818H132.15V40.8425H134.717V34.4924H138.303C141.149 34.4924 143.946 32.4849 143.946 29.287C143.946 26.0893 141.149 24.0818 138.303 24.0818ZM104.751 38.9419C102.977 38.9419 101.492 37.4949 101.492 35.5074C101.492 33.499 102.977 32.0299 104.751 32.0299C106.503 32.0299 107.877 33.4989 107.877 35.5074C107.877 37.4949 106.503 38.9419 104.751 38.9419H104.751ZM107.7 31.0579H107.611C107.035 30.3884 105.926 29.7837 104.529 29.7837C101.603 29.7837 98.9205 32.2891 98.9205 35.5074C98.9205 38.7042 101.603 41.1882 104.529 41.1882C105.926 41.1882 107.035 40.5833 107.611 39.8925H107.7V40.7132C107.7 42.8951 106.503 44.0614 104.574 44.0614C103 44.0614 102.024 42.9594 101.625 42.0308L99.3861 42.938C100.029 44.4499 101.736 46.3077 104.574 46.3077C107.589 46.3077 110.139 44.5793 110.139 40.3675V30.1293H107.7V31.0579ZM111.912 40.8425H114.484V24.0812H111.912V40.8425ZM118.275 35.3131C118.208 33.1097 120.026 31.9869 121.334 31.9869C122.355 31.9869 123.219 32.4834 123.507 33.1968L118.275 35.3131ZM126.256 33.4124C125.769 32.1377 124.283 29.7837 121.245 29.7837C118.23 29.7837 115.725 32.0948 115.725 35.4859C115.725 38.6828 118.208 41.1882 121.534 41.1882C124.217 41.1882 125.769 39.5898 126.412 38.6611L124.416 37.3649C123.752 38.3155 122.842 38.9419 121.534 38.9419C120.226 38.9419 119.295 38.3585 118.696 37.2141L126.522 34.0603L126.256 33.4124ZM63.906 31.5333V33.9524H69.8474C69.6701 35.3131 69.2045 36.3066 68.4949 36.9979C67.6306 37.8405 66.2782 38.7691 63.9059 38.7691C60.2478 38.7691 57.3881 35.8964 57.3881 32.3325C57.3881 28.7686 60.2478 25.8955 63.906 25.8955C65.8792 25.8955 67.3199 26.6517 68.3842 27.6237L70.1356 25.9175C68.6504 24.5348 66.677 23.4764 63.906 23.4764C58.8954 23.4764 54.6831 27.4509 54.6831 32.3325C54.6831 37.2141 58.8954 41.1882 63.906 41.1882C66.6109 41.1882 68.6504 40.3246 70.2464 38.7042C71.887 37.1058 72.3972 34.8596 72.3972 33.0454C72.3972 32.4834 72.353 31.9654 72.2638 31.5333H63.906ZM79.152 38.9419C77.3781 38.9419 75.8482 37.5163 75.8482 35.4859C75.8482 33.4339 77.3781 32.0299 79.152 32.0299C80.9253 32.0299 82.4552 33.4339 82.4552 35.4859C82.4552 37.5164 80.9253 38.9419 79.152 38.9419ZM79.152 29.7837C75.9148 29.7837 73.2765 32.1811 73.2765 35.4859C73.2765 38.7691 75.9148 41.1882 79.152 41.1882C82.3886 41.1882 85.0269 38.7691 85.0269 35.4859C85.0269 32.1811 82.3886 29.7837 79.152 29.7837ZM91.9682 38.9419C90.195 38.9419 88.6649 37.5163 88.6649 35.4859C88.6649 33.4339 90.195 32.0299 91.9683 32.0299C93.7417 32.0299 95.2715 33.4339 95.2715 35.4859C95.2715 37.5164 93.7417 38.9419 91.9683 38.9419H91.9682ZM91.9682 29.7837C88.7312 29.7837 86.0934 32.1811 86.0934 35.4859C86.0934 38.7691 88.7312 41.1882 91.9683 41.1882C95.2049 41.1882 97.8433 38.7691 97.8433 35.4859C97.8433 32.1811 95.2049 29.7837 91.9683 29.7837H91.9682Z" fill="white"/>
<path d="M12.6657 10.8279C12.2039 11.2339 11.9282 11.911 11.9282 12.8097V12.6066V42.2651V42.0697C11.9282 42.8998 12.1647 43.5408 12.5651 43.9536L12.6673 44.0489V44.0493C12.9914 44.3343 13.407 44.4856 13.8833 44.4851C14.3487 44.4851 14.8724 44.3405 15.425 44.0353L35.3998 32.9779L42.2611 29.1793C43.1325 28.697 43.6217 28.0748 43.7034 27.441V27.4384C43.6217 26.8032 43.1325 26.1815 42.2611 25.6991L35.3993 21.901L15.4251 10.8436C14.8713 10.5378 14.3472 10.3927 13.8806 10.3927C13.4048 10.3927 12.9898 10.5435 12.6658 10.8279H12.6657Z" fill="#00C1FF"/>
<path d="M12.6674 44.0452L12.5651 43.9498C12.1647 43.5371 11.9282 42.896 11.9282 42.066V42.2614V12.6102V12.806C11.9282 11.9072 12.2039 11.2301 12.6657 10.8242L29.7157 27.4352L12.6674 44.0452Z" fill="url(#paint0_linear_417_86)"/>
<path d="M35.4009 32.9761L29.7168 27.4372L35.4004 21.8993L42.2622 25.6974C43.1335 26.1798 43.6227 26.8014 43.7045 27.4367V27.4392C43.6227 28.073 43.1335 28.6953 42.2622 29.1775L35.401 32.976" fill="url(#paint1_linear_417_86)"/>
<path d="M13.8839 44.4827C13.4076 44.4831 12.992 44.3317 12.668 44.0468V44.0464L29.7163 27.4365L35.4004 32.9753L15.4255 44.0328C14.8729 44.3381 14.3493 44.4827 13.8839 44.4827Z" fill="url(#paint2_linear_417_86)"/>
<path d="M29.7161 27.4357L12.666 10.8246C12.9901 10.5402 13.4052 10.3894 13.8809 10.3894C14.3475 10.3894 14.8716 10.5344 15.4253 10.8403L35.3997 21.8977L29.7161 27.4357Z" fill="url(#paint3_linear_417_86)"/>
<path d="M13.8831 44.6815C13.4069 44.6815 12.9907 44.5302 12.6666 44.2453L12.666 44.2457C12.6647 44.2444 12.6633 44.2432 12.6618 44.2421L12.5731 44.1578C12.5703 44.1551 12.5677 44.1521 12.5645 44.149L12.6667 44.0494C12.9908 44.3343 13.4063 44.4856 13.8827 44.4851C14.348 44.4851 14.8717 44.3406 15.4243 44.0353L35.3991 32.9778L35.5271 33.1026L35.3975 33.1743L15.4242 44.2311C14.9206 44.5092 14.4416 44.6543 14.0089 44.6784C13.967 44.6804 13.925 44.6814 13.8831 44.6815" fill="url(#paint4_linear_417_86)"/>
<path d="M12.5651 44.1486C12.1647 43.7358 11.9282 43.0953 11.9282 42.2647V42.0694C11.9282 42.8994 12.1647 43.5404 12.5651 43.9532L12.6673 44.0485L12.5651 44.1486Z" fill="url(#paint5_linear_417_86)"/>
<path d="M35.5264 33.0994L35.3984 32.9747L42.2597 29.1762C43.1311 28.6939 43.6203 28.0717 43.702 27.4379C43.702 27.6705 43.6488 27.903 43.543 28.1293C43.3295 28.5855 42.9017 29.0165 42.2597 29.3721L35.5264 33.0995" fill="url(#paint6_linear_417_86)"/>
<path d="M43.7026 27.4357C43.6208 26.8004 43.1316 26.1787 42.2603 25.6963L35.3984 21.8983L35.5264 21.7735H35.527L42.2603 25.501C43.221 26.0331 43.702 26.7343 43.7026 27.4357Z" fill="url(#paint7_linear_417_86)"/>
<path d="M11.9282 12.8109V12.606C11.9282 12.5322 11.9303 12.4599 11.9342 12.3898V12.3866C11.9342 12.3856 11.9342 12.3846 11.9345 12.3835V12.3756C11.976 11.6607 12.2039 11.103 12.5651 10.7306L12.6657 10.829C12.2039 11.235 11.9282 11.9121 11.9282 12.8109Z" fill="url(#paint8_linear_417_86)"/>
<path d="M35.3986 21.8992L15.4243 10.8416C14.8705 10.5358 14.3465 10.3908 13.8799 10.3908C13.4041 10.3908 12.9891 10.5416 12.6651 10.826L12.5645 10.7276C12.5959 10.6952 12.6285 10.6639 12.6623 10.6339C12.6634 10.6328 12.6651 10.6317 12.6661 10.6307C12.9876 10.3484 13.3983 10.1976 13.8697 10.1949H13.8799C14.3465 10.1949 14.8705 10.34 15.4243 10.6459L35.5271 21.774L35.5266 21.7744L35.3986 21.8992Z" fill="url(#paint9_linear_417_86)"/>
<defs>
<linearGradient id="paint0_linear_417_86" x1="22.8242" y1="12.2968" x2="8.5381" y2="27.0075" gradientUnits="userSpaceOnUse">
<stop stop-color="#00A0FF"/>
<stop offset="0.00657" stop-color="#00A1FF"/>
<stop offset="0.2601" stop-color="#00BEFF"/>
<stop offset="0.5122" stop-color="#00D2FF"/>
<stop offset="0.7604" stop-color="#00DFFF"/>
<stop offset="1" stop-color="#00E3FF"/>
</linearGradient>
<linearGradient id="paint1_linear_417_86" x1="44.7662" y1="27.3415" x2="11.4679" y2="27.3415" gradientUnits="userSpaceOnUse">
<stop stop-color="#FFE000"/>
<stop offset="0.4087" stop-color="#FFBD00"/>
<stop offset="0.7754" stop-color="#FFA500"/>
<stop offset="1" stop-color="#FF9C00"/>
</linearGradient>
<linearGradient id="paint2_linear_417_86" x1="32.3827" y1="32.7026" x2="8.16886" y2="57.4539" gradientUnits="userSpaceOnUse">
<stop stop-color="#FF3A44"/>
<stop offset="1" stop-color="#C31162"/>
</linearGradient>
<linearGradient id="paint3_linear_417_86" x1="8.27173" y1="8.36198" x2="19.0628" y2="19.4096" gradientUnits="userSpaceOnUse">
<stop stop-color="#32A071"/>
<stop offset="0.0685" stop-color="#2DA771"/>
<stop offset="0.4762" stop-color="#15CF74"/>
<stop offset="0.8009" stop-color="#06E775"/>
<stop offset="1" stop-color="#00F076"/>
</linearGradient>
<linearGradient id="paint4_linear_417_86" x1="32.369" y1="36.5472" x2="12.9813" y2="56.5112" gradientUnits="userSpaceOnUse">
<stop stop-color="#CC2E36"/>
<stop offset="1" stop-color="#9C0E4E"/>
</linearGradient>
<linearGradient id="paint5_linear_417_86" x1="14.1995" y1="12.3001" x2="1.61367" y2="25.2602" gradientUnits="userSpaceOnUse">
<stop stop-color="#008DE0"/>
<stop offset="0.00657" stop-color="#008DE0"/>
<stop offset="0.2601" stop-color="#00A7E0"/>
<stop offset="0.5122" stop-color="#00B8E0"/>
<stop offset="0.7604" stop-color="#00C4E0"/>
<stop offset="1" stop-color="#00C7E0"/>
</linearGradient>
<linearGradient id="paint6_linear_417_86" x1="44.7637" y1="27.4367" x2="11.4654" y2="27.4367" gradientUnits="userSpaceOnUse">
<stop stop-color="#E0C500"/>
<stop offset="0.4087" stop-color="#E0A600"/>
<stop offset="0.7754" stop-color="#E09100"/>
<stop offset="1" stop-color="#E08900"/>
</linearGradient>
<linearGradient id="paint7_linear_417_86" x1="44.7643" y1="27.437" x2="11.466" y2="27.437" gradientUnits="userSpaceOnUse">
<stop stop-color="#FFE840"/>
<stop offset="0.4087" stop-color="#FFCE40"/>
<stop offset="0.7754" stop-color="#FFBC40"/>
<stop offset="1" stop-color="#FFB540"/>
</linearGradient>
<linearGradient id="paint8_linear_417_86" x1="14.1855" y1="12.3245" x2="2.04821" y2="24.2811" gradientUnits="userSpaceOnUse">
<stop stop-color="#40B8FF"/>
<stop offset="0.00657" stop-color="#40B9FF"/>
<stop offset="0.2601" stop-color="#40CEFF"/>
<stop offset="0.5122" stop-color="#40DDFF"/>
<stop offset="0.7604" stop-color="#40E7FF"/>
<stop offset="1" stop-color="#40EAFF"/>
</linearGradient>
<linearGradient id="paint9_linear_417_86" x1="8.24586" y1="11.8763" x2="16.9033" y2="20.7912" gradientUnits="userSpaceOnUse">
<stop stop-color="#65B895"/>
<stop offset="0.0685" stop-color="#62BD95"/>
<stop offset="0.4762" stop-color="#50DB97"/>
<stop offset="0.8009" stop-color="#44ED98"/>
<stop offset="1" stop-color="#40F498"/>
</linearGradient>
</defs>
</svg>
