<svg width="285" height="250" viewBox="0 0 285 250" fill="none" xmlns="http://www.w3.org/2000/svg">
<circle cx="222" cy="219" r="7" transform="rotate(-180 222 219)" stroke="#3BB012" stroke-width="2"/>
<path d="M221.999 215.8L221.999 222.2" stroke="#3BB012" stroke-width="2" stroke-linecap="round" stroke-linejoin="round"/>
<path d="M225.199 218.95L221.999 215.8L218.8 218.95" stroke="#3BB012" stroke-width="2" stroke-linecap="round" stroke-linejoin="round"/>
<path opacity="0.7" d="M238.974 214.856V223.944H236.766V225H242.462V223.944H240.238V213.8H237.022V214.856H238.974ZM248.12 213.752L244.552 219.208C244.088 219.896 243.864 220.664 243.864 221.48C243.864 223.88 245.688 225.144 247.928 225.144C250.168 225.144 252.024 223.88 252.024 221.48C252.024 219.176 250.296 217.848 248.12 217.896C247.624 217.896 247.128 218.008 246.696 218.264L249.592 213.752H248.12ZM247.928 223.992C246.392 223.992 245.176 223.08 245.176 221.48C245.176 219.864 246.376 218.952 247.912 218.952C249.48 218.952 250.696 219.864 250.696 221.48C250.696 223.08 249.48 223.992 247.928 223.992ZM260.227 224.984V221.432H263.379C265.747 221.432 267.299 219.752 267.299 217.624C267.299 215.48 265.779 213.784 263.379 213.784C261.907 213.768 260.371 213.784 258.899 213.784V224.984H260.227ZM260.211 220.232V214.968C261.283 214.968 262.355 214.952 263.379 214.968C264.915 214.968 266.003 216.072 266.003 217.592C266.003 219.144 264.867 220.232 263.379 220.232H260.211ZM271.401 214.92H270.361L270.233 217.32H268.505V218.152L270.153 218.232V222.04C270.153 224.952 271.977 225.704 274.617 224.856L274.473 223.848C272.617 224.536 271.401 223.976 271.401 222.008V218.232H274.233V217.32H271.401V214.92ZM275.832 222.824C275.96 224.584 277.576 225.192 279.256 225.192C281.048 225.144 282.648 224.376 282.648 222.792C282.696 220.968 281 220.744 279.384 220.536C277.96 220.328 277.24 220.136 277.224 219.384C277.176 218.488 278.264 218.12 279.24 218.12C280.248 218.12 281.24 218.504 281.24 219.336H282.44C282.488 217.848 280.84 217.128 279.24 217.128C277.64 217.128 275.992 217.816 276.04 219.416C276.088 221.016 277.752 221.336 279.272 221.512C280.696 221.72 281.432 221.912 281.432 222.792C281.384 223.736 280.328 224.184 279.256 224.184C278.216 224.184 277.128 223.8 277.048 222.824H275.832Z" fill="#707070"/>
<path d="M76.1486 217.322C76.1486 222.426 79.9766 225.154 84.0246 225.154C87.2366 225.154 90.5146 223.46 91.1746 219.39H88.0066C87.4786 221.26 85.9166 222.162 84.0026 222.162C81.2526 222.162 79.4706 219.962 79.4706 217.322C79.4706 214.396 81.2966 212.416 84.0246 212.416C85.8726 212.416 87.2586 213.186 87.9406 214.924H91.1306C90.4266 211.118 87.1266 209.446 84.0246 209.446C79.9766 209.38 76.1486 212.196 76.1486 217.322ZM98.4289 222.382V212.152H100.431V209.6H93.1269V212.152H95.1289V222.382H92.9509V225H100.607V222.382H98.4289ZM114.785 214.176C114.785 211.294 112.761 209.622 109.945 209.622H103.411V225H110.561C113.641 225 115.445 223.152 115.445 220.446C115.445 218.862 114.675 217.608 113.245 217.014C114.213 216.42 114.785 215.298 114.785 214.176ZM109.703 212.438C110.847 212.438 111.573 213.164 111.551 214.286C111.529 215.32 110.825 215.936 109.703 215.936H106.689V212.438H109.703ZM110.187 218.62C110.693 218.62 111.133 218.664 111.507 218.928C111.969 219.258 112.211 219.83 112.189 220.446C112.123 221.48 111.463 222.14 110.341 222.14H106.689V218.62H110.187ZM122.749 222.382V212.152H124.751V209.6H117.447V212.152H119.449V222.382H117.271V225H124.927V222.382H122.749ZM131.01 209.6H127.71V225H137.434V222.052H131.01V209.6Z" fill="#3EA3CE"/>
<path d="M144.299 220.622C144.365 223.856 147.511 225.352 150.525 225.286C153.407 225.286 156.597 224.01 156.597 220.622C156.597 217.08 153.737 216.464 150.613 216.112C148.831 215.87 147.093 215.65 147.093 213.912C147.093 212.174 148.919 211.602 150.327 211.602C151.845 211.602 153.583 212.13 153.693 213.78H156.113C156.047 210.634 153.275 209.314 150.349 209.314C147.357 209.314 144.563 210.81 144.563 213.978C144.563 217.058 147.357 217.96 150.173 218.202C151.955 218.378 154.045 218.576 154.045 220.6C154.045 222.514 152.109 222.998 150.481 222.998C148.809 222.998 146.917 222.36 146.807 220.622H144.299ZM169.169 217.916C168.597 215.32 166.331 214.066 164.021 214.088C161.271 214.11 158.455 216.002 158.455 219.654C158.455 223.328 161.271 225.176 164.043 225.176C166.375 225.176 168.685 223.856 169.235 221.172H166.947C166.463 222.47 165.275 223.108 164.087 223.108C162.481 223.108 160.831 221.942 160.831 219.654C160.831 217.41 162.503 216.222 164.131 216.222C165.363 216.222 166.485 216.772 166.947 217.916H169.169ZM182.092 219.654C182.092 215.936 179.232 214.088 176.394 214.132C173.622 214.176 170.894 216.002 170.894 219.654C170.894 223.35 173.688 225.198 176.482 225.198C179.276 225.198 182.092 223.35 182.092 219.654ZM173.27 219.654C173.27 217.41 174.81 216.288 176.394 216.244C178.022 216.2 179.694 217.344 179.694 219.654C179.694 221.92 178.11 223.064 176.526 223.086C174.898 223.108 173.27 221.964 173.27 219.654ZM187.148 215.936C187.038 214.22 185.322 213.956 183.76 214.308L183.782 215.936C184.926 215.87 184.926 216.354 184.926 217.3V225H187.302V218.862C187.302 217.146 188.578 216.222 190.008 216.222C190.778 216.222 191.482 216.442 192.12 216.86L192.714 214.792C192.032 214.286 191.152 214.022 190.272 214.044C188.974 214.044 187.566 214.704 187.148 215.936ZM199.06 214.154C196.178 214.154 193.626 215.936 193.56 219.478C193.45 223.064 196.024 225.308 199.522 225.242C200.864 225.242 202.294 224.89 203.526 224.34L203.218 222.558C201.964 223.108 200.688 223.284 199.368 223.218C197.432 223.218 195.914 222.074 195.914 220.138H203.746C204.45 216.618 202.778 214.154 199.06 214.154ZM199.038 216.002C200.556 216.002 201.876 216.838 201.81 218.444H195.958C196.288 216.772 197.454 216.002 199.038 216.002Z" fill="black"/>
<path opacity="0.5" d="M1.23506 147.49C1.34506 150.46 3.56706 152.286 6.44906 152.286C9.92506 152.286 11.8611 149.756 11.8611 147.028C11.8611 144.894 10.7391 142.87 8.27506 142.452L11.6191 137.084V136.622H1.82906V139.24H7.26306L4.42506 144.124V144.586C6.40506 144.234 8.69306 144.586 8.75906 147.05C8.73706 148.458 7.83506 149.448 6.40506 149.448C5.08506 149.448 4.20506 148.788 4.11706 147.49H1.23506ZM20.2018 136.336C17.0118 136.336 14.4378 138.316 14.4378 141.638V147.006C14.4378 150.35 17.0118 152.308 20.2018 152.308C23.3478 152.308 25.9218 150.35 25.9218 147.006V141.638C25.9218 138.316 23.3478 136.336 20.2018 136.336ZM20.2018 149.426C18.7938 149.426 17.7598 148.7 17.6058 147.358C17.5618 146.984 17.5398 146.588 17.5398 146.126V142.54C17.5398 142.1 17.5618 141.682 17.6058 141.286C17.7598 139.9 18.7938 139.218 20.2018 139.218C21.5438 139.218 22.6218 139.9 22.7758 141.286C22.8198 141.682 22.8418 142.1 22.8418 142.54V146.126C22.8418 146.588 22.8198 146.984 22.7758 147.358C22.6218 148.7 21.5438 149.426 20.2018 149.426ZM34.5534 136.336C31.3634 136.336 28.7894 138.316 28.7894 141.638V147.006C28.7894 150.35 31.3634 152.308 34.5534 152.308C37.6994 152.308 40.2734 150.35 40.2734 147.006V141.638C40.2734 138.316 37.6994 136.336 34.5534 136.336ZM34.5534 149.426C33.1454 149.426 32.1114 148.7 31.9574 147.358C31.9134 146.984 31.8914 146.588 31.8914 146.126V142.54C31.8914 142.1 31.9134 141.682 31.9574 141.286C32.1114 139.9 33.1454 139.218 34.5534 139.218C35.8954 139.218 36.9734 139.9 37.1274 141.286C37.1714 141.682 37.1934 142.1 37.1934 142.54V146.126C37.1934 146.588 37.1714 146.984 37.1274 147.358C36.9734 148.7 35.8954 149.426 34.5534 149.426Z" fill="black"/>
<path opacity="0.5" d="M245.342 152L249.786 144.806C250.468 143.728 250.82 142.738 250.842 141.418C250.842 137.898 248.29 136.226 245.034 136.226C241.756 136.226 239.204 137.898 239.204 141.418C239.204 144.652 241.404 146.5 244.572 146.39C244.858 146.39 245.188 146.302 245.43 146.192L241.756 152H245.342ZM245.034 139.02C246.618 139.02 247.586 139.856 247.586 141.418C247.586 143.002 246.618 143.882 245.034 143.882C243.45 143.882 242.46 143.002 242.46 141.418C242.46 139.856 243.45 139.02 245.034 139.02ZM259.013 136.336C255.823 136.336 253.249 138.316 253.249 141.638V147.006C253.249 150.35 255.823 152.308 259.013 152.308C262.159 152.308 264.733 150.35 264.733 147.006V141.638C264.733 138.316 262.159 136.336 259.013 136.336ZM259.013 149.426C257.605 149.426 256.571 148.7 256.417 147.358C256.373 146.984 256.351 146.588 256.351 146.126V142.54C256.351 142.1 256.373 141.682 256.417 141.286C256.571 139.9 257.605 139.218 259.013 139.218C260.355 139.218 261.433 139.9 261.587 141.286C261.631 141.682 261.653 142.1 261.653 142.54V146.126C261.653 146.588 261.631 146.984 261.587 147.358C261.433 148.7 260.355 149.426 259.013 149.426ZM273.365 136.336C270.175 136.336 267.601 138.316 267.601 141.638V147.006C267.601 150.35 270.175 152.308 273.365 152.308C276.511 152.308 279.085 150.35 279.085 147.006V141.638C279.085 138.316 276.511 136.336 273.365 136.336ZM273.365 149.426C271.957 149.426 270.923 148.7 270.769 147.358C270.725 146.984 270.703 146.588 270.703 146.126V142.54C270.703 142.1 270.725 141.682 270.769 141.286C270.923 139.9 271.957 139.218 273.365 139.218C274.707 139.218 275.785 139.9 275.939 141.286C275.983 141.682 276.005 142.1 276.005 142.54V146.126C276.005 146.588 275.983 146.984 275.939 147.358C275.785 148.7 274.707 149.426 273.365 149.426Z" fill="black"/>
<path d="M126.452 168H106.612V173.2H118.412L108.492 196H114.532L126.452 168.84V168ZM139.377 167.52C133.577 167.52 128.897 171.12 128.897 177.16V186.92C128.897 193 133.577 196.56 139.377 196.56C145.097 196.56 149.777 193 149.777 186.92V177.16C149.777 171.12 145.097 167.52 139.377 167.52ZM139.377 191.32C136.817 191.32 134.937 190 134.657 187.56C134.577 186.88 134.537 186.16 134.537 185.32V178.8C134.537 178 134.577 177.24 134.657 176.52C134.937 174 136.817 172.76 139.377 172.76C141.817 172.76 143.777 174 144.057 176.52C144.137 177.24 144.177 178 144.177 178.8V185.32C144.177 186.16 144.137 186.88 144.057 187.56C143.777 190 141.817 191.32 139.377 191.32ZM165.751 176.16C165.631 177.8 164.631 179.4 163.631 180.8L153.711 194.72V196H171.671V190.8H162.551C166.111 186.2 167.351 184.12 168.191 182.96C173.751 175.56 170.751 167.56 162.831 167.56C157.351 167.56 154.071 170.76 154.071 176.24H159.191C159.191 173.48 161.071 172.68 162.671 172.68C164.311 172.68 165.871 173.84 165.751 176.16Z" fill="black"/>
<path d="M170 125C170 117.044 166.839 109.413 161.213 103.787C155.587 98.1607 147.956 95 140 95C132.044 95 124.413 98.1607 118.787 103.787C113.161 109.413 110 117.044 110 125L140 125H170Z" fill="#EDEDED"/>
<path d="M166.74 46.7448L136.691 111.897C135.391 114.717 136.705 118.052 139.579 119.227C142.453 120.402 145.727 118.942 146.774 116.019L170.975 48.4762C171.388 47.3226 170.82 46.0479 169.686 45.5842C168.551 45.1204 167.253 45.6319 166.74 46.7448Z" fill="#2C2C2C"/>
<path d="M25 125C19.4772 125 14.9584 120.515 15.3995 115.01C17.7633 85.5146 30.5358 57.6875 51.6116 36.6117C75.0537 13.1696 106.848 2.50291e-06 140 0C173.152 -2.50291e-06 204.946 13.1696 228.388 36.6116C249.464 57.6875 262.237 85.5146 264.6 115.01C265.042 120.515 260.523 125 255 125V125C249.477 125 245.049 120.512 244.524 115.015C242.215 90.8312 231.57 68.0774 214.246 50.7538C194.555 31.0625 167.848 20 140 20C112.152 20 85.4451 31.0625 65.7538 50.7538C48.4301 68.0774 37.785 90.8312 35.4756 115.015C34.9505 120.512 30.5228 125 25 125V125Z" fill="#EDEDED"/>
<path d="M25 125C19.4772 125 14.9584 120.516 15.3998 115.01C16.768 97.9437 21.6315 81.3024 29.7277 66.1356C39.3972 48.0215 53.38 32.5685 70.4403 21.1421C87.5007 9.71583 107.113 2.66819 127.544 0.622131C144.651 -1.09103 161.891 0.746436 178.194 5.97793C183.452 7.66544 185.879 13.551 183.777 18.6581V18.6581C181.674 23.7651 175.839 26.1514 170.556 24.5442C157.314 20.5166 143.374 19.1369 129.537 20.5226C112.375 22.2413 95.9006 28.1613 81.5699 37.7594C67.2392 47.3575 55.4936 60.3381 47.3713 75.5539C40.8227 87.8215 36.792 101.237 35.4758 115.015C34.9506 120.513 30.5228 125 25 125V125Z" fill="#A9D161"/>
</svg>
