<svg width="94" height="38" viewBox="0 0 94 38" fill="none" xmlns="http://www.w3.org/2000/svg">
<path d="M0.13147 37.9122V30.196C1.10394 30.196 2.15637 30.1849 3.12858 30.196C4.68943 30.196 5.81744 31.2752 5.81744 32.7611C5.81744 34.2476 4.68943 35.3021 3.12858 35.3021H0.684513V37.9119H0.13147V37.9122ZM3.12858 34.7852C4.32237 34.7852 5.26311 33.9713 5.26311 32.749C5.26311 31.5284 4.35771 30.7018 3.12858 30.7018H0.684513V34.785H3.12858V34.7852Z" fill="#707070"/>
<path d="M8.43618 37.9994C7.50653 37.9994 6.54541 37.5164 6.54541 36.5039C6.54541 35.349 7.56251 34.7854 8.63558 34.7854C9.29773 34.7854 9.97485 34.9189 10.5942 35.1821V34.2577C10.5942 33.2242 9.64158 32.9903 8.79112 32.9903C8.17204 32.9903 7.53 33.1338 7.07679 33.4001L6.95452 32.9587C7.45107 32.6824 8.16069 32.5183 8.85844 32.5183C10.0086 32.5183 11.0925 32.9477 11.0925 34.2677V36.6906C11.0925 37.3295 11.0572 37.6925 11.765 37.6039L11.7872 37.967C10.88 38.11 10.638 37.7909 10.6698 36.9559C10.2503 37.7262 9.32069 37.9994 8.43618 37.9994ZM10.5939 35.6345C9.98414 35.3251 9.33178 35.2042 8.70135 35.2157C7.90506 35.2157 7.06492 35.5919 7.06492 36.46C7.06492 37.274 7.78202 37.5493 8.52337 37.5493C9.38776 37.5493 10.361 37.1651 10.5937 36.2502V35.6345H10.5939Z" fill="#707070"/>
<path d="M15.2808 32.5305C15.8006 32.5395 16.2662 32.6825 16.6211 32.9367L16.431 33.4002C16.0892 33.1455 15.6479 33.0351 15.2138 33.0351C14.4193 33.0351 13.6547 33.5761 13.6547 34.4794V37.9122H13.1246V33.8285C13.1246 33.3114 13.1125 32.9809 12.4382 33.0703L12.4178 32.5952C13.2673 32.4527 13.6119 32.7732 13.6119 33.3892C13.9648 32.7611 14.6633 32.4964 15.2808 32.5305Z" fill="#707070"/>
<path d="M18.7759 32.6068H20.8436V33.0582H18.7759V35.9202C18.7759 37.0194 19.1205 37.4739 19.8134 37.4839C20.1487 37.4839 20.5558 37.3961 21.0299 37.2302L21.1101 37.6816C20.6117 37.8568 20.1572 37.9358 19.7819 37.9358C18.7854 37.9358 18.2463 37.3296 18.2463 35.9312V33.0582L17.0288 33.0246V32.6068H18.2463L18.2899 30.9889H18.7762V32.6068H18.7759Z" fill="#707070"/>
<path d="M27.5195 37.9994C26.1152 37.9994 24.7225 37.076 24.7225 35.2486C24.7225 33.4091 26.1271 32.5183 27.5308 32.5183C28.9341 32.5183 30.3182 33.4217 30.3182 35.2486C30.3182 37.0763 28.9137 37.9994 27.5195 37.9994ZM27.5195 37.5285C28.6475 37.5285 29.7884 36.7581 29.7884 35.2486C29.7884 33.7411 28.6586 33.0144 27.5308 33.0034C26.3917 32.9903 25.2537 33.73 25.2537 35.2486C25.2537 36.7581 26.3824 37.5285 27.5195 37.5285Z" fill="#707070"/>
<path d="M32.24 33.07H30.99V32.6065H32.24V31.6487C32.24 29.7456 33.7449 29.4803 35.1698 30.0845L35.0599 30.5138C33.9647 30.0419 32.7716 30.1086 32.7716 31.6608V32.6068H34.829V33.0702H32.7716V37.9122H32.2397V33.07H32.24Z" fill="#707070"/>
<path d="M37.459 30.7138V30.2056H43.0972V30.7138H40.5539V37.9123H40.0016V30.7138H37.459Z" fill="#707070"/>
<path d="M45.5956 32.5305C46.1153 32.5395 46.5807 32.6825 46.9338 32.9367L46.7463 33.4002C46.4037 33.1455 45.9613 33.0351 45.53 33.0351C44.7337 33.0351 43.971 33.5761 43.971 34.4794V37.9122H43.4399V33.8285C43.4399 33.3114 43.4288 32.9809 42.7545 33.0703L42.7321 32.5952C43.5833 32.4527 43.9261 32.7732 43.9261 33.3892C44.2795 32.7611 44.9762 32.4964 45.5956 32.5305Z" fill="#707070"/>
<path d="M49.3461 37.9994C48.4164 37.9994 47.4556 37.5164 47.4556 36.5039C47.4556 35.349 48.4714 34.7854 49.5447 34.7854C50.2076 34.7854 50.8811 34.9189 51.5015 35.1821V34.2577C51.5015 33.2242 50.5497 32.9903 49.6992 32.9903C49.0801 32.9903 48.4373 33.1338 47.9849 33.4001L47.8636 32.9587C48.361 32.6824 49.0688 32.5183 49.7655 32.5183C50.9167 32.5183 52.0006 32.9477 52.0006 34.2677V36.6906C52.0006 37.3295 51.9671 37.6925 52.6739 37.6039L52.6953 37.967C51.7901 38.11 51.5461 37.7909 51.5778 36.9559C51.1605 37.7262 50.2308 37.9994 49.3461 37.9994ZM51.5015 35.6345C50.8925 35.3251 50.2422 35.2042 49.6107 35.2157C48.8134 35.2157 47.9733 35.5919 47.9733 36.46C47.9733 37.274 48.6924 37.5493 49.4338 37.5493C50.2953 37.5493 51.2683 37.1651 51.5015 36.2502V35.6345Z" fill="#707070"/>
<path d="M58.0815 37.9124V34.6871C58.0815 33.63 57.3736 33.0145 56.3455 33.0145C55.2941 33.0145 54.5313 33.6744 54.5313 34.7757V37.9122H54.0012V33.9833C54.0012 33.1337 53.9109 32.9588 53.3241 33.0461L53.3148 32.5852C54.1214 32.4637 54.4978 32.6389 54.4978 33.4875C54.9747 32.805 55.6266 32.5066 56.4667 32.5187C57.8134 32.5187 58.6126 33.4094 58.6126 34.6871V37.9124H58.0815Z" fill="#707070"/>
<path d="M60.4538 36.4369C60.5451 37.2083 61.4185 37.5608 62.2811 37.5608C63.1547 37.5608 64.0514 37.2419 64.0514 36.4816C64.0514 35.5007 63 35.5007 62.2922 35.4134C61.2286 35.293 60.0924 35.1061 60.0924 34.0148C60.0924 32.9151 61.1531 32.5183 62.2493 32.5183C63.3539 32.5183 64.4037 32.9708 64.4037 33.9154H63.9165C63.9165 33.2555 63.0877 32.9584 62.2568 32.9584C61.4502 32.9584 60.5216 33.2553 60.5765 34.004C60.5765 34.82 61.7389 34.8842 62.3561 34.9728C63.4738 35.1258 64.5923 35.226 64.558 36.4813C64.558 37.54 63.4738 37.9989 62.2687 37.9989C61.1407 37.9989 60.0568 37.5605 59.9355 36.4367H60.4538V36.4369Z" fill="#707070"/>
<path d="M65.9806 35.2715V30.2056H66.5354V35.2599C66.5354 36.6796 67.4968 37.484 68.891 37.484C70.2721 37.484 71.2229 36.6796 71.2229 35.2599V30.2056H71.7651V35.2715C71.7651 36.9882 70.5824 37.9996 68.891 37.9996C67.1886 37.9996 65.9806 36.9882 65.9806 35.2715Z" fill="#707070"/>
<path d="M77.8579 37.9124V34.6871C77.8579 33.63 77.1493 33.0145 76.1211 33.0145C75.0705 33.0145 74.3087 33.6744 74.3087 34.7757V37.9122H73.7761V33.9833C73.7761 33.1337 73.6894 32.9588 73.1018 33.0461L73.0907 32.5852C73.8991 32.4637 74.2744 32.6389 74.2744 33.4875C74.7496 32.805 75.4022 32.5066 76.2423 32.5187C77.5927 32.5187 78.3882 33.4094 78.3882 34.6871V37.9124H77.8579Z" fill="#707070"/>
<path d="M80.4227 30.3704C80.6004 30.3825 80.7777 30.5047 80.7777 30.7455C80.7777 30.9887 80.6118 31.1081 80.433 31.1212C80.2466 31.1307 80.0464 30.9987 80.0464 30.7455C80.0464 30.4926 80.2344 30.3617 80.4227 30.3704ZM80.6657 37.912H80.1478V32.6066H80.6657V37.912Z" fill="#707070"/>
<path d="M84.9345 37.9994C83.5261 37.9994 82.1348 37.076 82.1348 35.2486C82.1348 33.4091 83.5383 32.5183 84.9428 32.5183C86.3481 32.5183 87.7304 33.4217 87.7304 35.2486C87.7304 37.0763 86.3241 37.9994 84.9345 37.9994ZM84.9345 37.5285C86.0584 37.5285 87.1986 36.7581 87.1986 35.2486C87.1986 33.7411 86.0705 33.0144 84.9428 33.0034C83.8047 32.9903 82.6656 33.73 82.6656 35.2486C82.6656 36.7581 83.7926 37.5285 84.9345 37.5285Z" fill="#707070"/>
<path d="M93.4036 37.9124V34.6871C93.4036 33.63 92.6965 33.0145 91.6683 33.0145C90.6159 33.0145 89.8539 33.6744 89.8539 34.7757V37.9122H89.3231V33.9833C89.3231 33.1337 89.2336 32.9588 88.647 33.0461L88.6377 32.5852C89.4443 32.4637 89.8204 32.6389 89.8204 33.4875C90.2955 32.805 90.9474 32.5066 91.7893 32.5187C93.1381 32.5187 93.9334 33.4094 93.9334 34.6871V37.9124H93.4036Z" fill="#707070"/>
<path d="M13.2292 0C18.3198 0 23.5959 2.81035 24.9708 8.65522H20.8103C19.5082 5.43943 16.6117 3.95709 13.1928 3.92037C7.87931 3.92037 4.34567 7.76654 4.34567 13.2802C4.34567 18.4194 7.87931 22.5231 13.1928 22.5231C16.7608 22.5231 19.769 20.7863 20.9202 17.3456H25.1206C23.8195 23.6727 18.4689 26.4463 13.1928 26.4463C6.13222 26.4463 0 21.6013 0 13.2802C0 4.9187 6.13223 0 13.2292 0Z" fill="#00A6CA"/>
<path d="M38.7143 22.7115V26.1869H26.156V22.7115H30.2809V3.73643H26.4895V0.292877H38.3807V3.73643H34.5904V22.7115H38.7143Z" fill="#00A6CA"/>
<path d="M57.1802 12.5767C59.8951 13.5016 61.3796 15.6469 61.3796 18.5682C61.3796 23.1934 58.1841 26.1883 53.1298 26.1883H41.4989V0.296875H52.0521C56.7713 0.296875 60.225 2.70127 60.225 7.58428C60.225 9.76529 59.2247 11.5773 57.1802 12.5767ZM45.8103 4.03109V11.1706H51.7552C54.2455 11.1706 55.9536 10.2092 55.9928 7.69264C55.9928 5.14085 54.2819 4.03109 51.7552 4.03109H45.8103ZM45.8103 14.6822V22.4143H52.8727C55.2858 22.4143 56.9932 21.0478 57.1067 18.5682C57.1067 17.274 56.6607 16.2369 55.7692 15.5005C54.7634 14.7592 53.5787 14.6822 52.3864 14.6822H45.8103Z" fill="#00A6CA"/>
<path d="M75.6806 22.7115V26.1869H63.1223V22.7115H67.2464V3.73643H63.4574V0.292877H75.3473V3.73643H71.5567V22.7115H75.6806Z" fill="#00A6CA"/>
<path d="M82.815 22.302H93.9999V26.1869H78.4678V0.292877H82.815V22.302Z" fill="#00A6CA"/>
</svg>
