<svg width="133" height="40" viewBox="0 0 133 40" fill="none" xmlns="http://www.w3.org/2000/svg">
<path d="M0.5 4C0.5 2.067 2.067 0.5 4 0.5H129C130.933 0.5 132.5 2.067 132.5 4V36C132.5 37.933 130.933 39.5 129 39.5H4C2.067 39.5 0.5 37.933 0.5 36V4Z" fill="white" stroke="#DDDDDD"/>
<path d="M15.264 24V20.64H18.032C20.496 20.64 21.984 18.848 21.984 16.752C21.984 14.624 20.528 12.8 18.032 12.8H13.392V24H15.264ZM15.232 19.008V14.416H18.032C19.328 14.416 20.192 15.408 20.192 16.704C20.192 18 19.296 19.008 18.032 19.008H15.232ZM30.3095 19.808C31.7335 19.296 32.6615 18 32.6615 16.448C32.6615 14.448 31.2055 12.8 28.7735 12.8H24.1495V24H26.0215V20.096H28.4855L31.2695 24H33.1575V23.728L30.3095 19.808ZM25.9895 18.56V14.416H28.7575C29.9895 14.416 30.8535 15.296 30.8535 16.464C30.8535 17.68 29.9735 18.56 28.7575 18.56H25.9895ZM38.2557 22.496V14.288H39.8877V12.8H34.7677V14.288H36.3997V22.496H34.6237V24H40.0317V22.496H38.2557ZM50.9432 24.016H51.5833V12.8H49.7272V16.88L49.8552 20.304L43.0552 12.768H42.3832V24H44.2232V19.936L44.0952 16.384L50.9432 24.016ZM56.8476 14.448V24H58.6716V14.448H61.9196V12.8H53.5996V14.448H56.8476ZM69.6684 24V20.64H72.4364C74.9004 20.64 76.3884 18.848 76.3884 16.752C76.3884 14.624 74.9324 12.8 72.4364 12.8H67.7964V24H69.6684ZM69.6364 19.008V14.416H72.4364C73.7324 14.416 74.5964 15.408 74.5964 16.704C74.5964 18 73.7004 19.008 72.4364 19.008H69.6364ZM78.5699 12.816V24H82.6179C86.1379 24 88.0899 21.328 88.0899 18.384C88.0899 15.44 86.1059 12.816 82.6179 12.816H78.5699ZM80.4259 22.304V14.496H82.6019C84.8899 14.496 86.2339 16.288 86.2339 18.4C86.2339 20.512 84.9059 22.304 82.5859 22.304H80.4259ZM96.8654 18H92.4174V14.432H97.3134V12.8H90.5614V24H92.4174V19.648H96.8654V18Z" fill="#2C2C2C"/>
<path fill-rule="evenodd" clip-rule="evenodd" d="M110.746 12.1033C110.377 12.2502 110.062 12.565 109.832 13.0164L109.63 13.4146L109.61 16.6688L109.591 19.9231H110.311H111.032V16.8366V13.75L111.176 13.6369C111.303 13.5382 111.727 13.5237 114.487 13.5237C117.246 13.5237 117.671 13.5382 117.797 13.6369L117.942 13.75V17.6729V21.5957L113.688 21.5961C110.959 21.5963 109.347 21.6235 109.191 21.6718C108.802 21.7924 108.414 22.1728 108.196 22.6481L108 23.0762V24.7902C108 26.4427 108.005 26.5167 108.153 26.8477C108.237 27.0364 108.424 27.3096 108.568 27.4547C109.094 27.9852 108.814 27.9564 113.688 27.9793L118.073 28V27.1976V26.3953H113.845C109.832 26.3953 109.612 26.3885 109.51 26.2623C109.417 26.1485 109.402 25.9329 109.402 24.7715C109.402 23.5106 109.411 23.4033 109.532 23.2683C109.66 23.1254 109.749 23.1228 114.487 23.1228C119.224 23.1228 119.314 23.1254 119.442 23.2683C119.566 23.4075 119.572 23.5106 119.572 25.6681C119.572 27.1692 119.595 27.9224 119.639 27.9224C119.972 27.9224 120.598 27.3518 120.818 26.8477C120.955 26.5335 120.969 26.3838 120.993 25.0863C121.023 23.4813 120.962 22.9553 120.694 22.4683C120.48 22.0794 120.003 21.7009 119.641 21.6328L119.382 21.5838L119.363 17.4992L119.344 13.4146L119.142 13.0146C118.914 12.5651 118.515 12.1849 118.152 12.0726C117.999 12.0249 116.642 11.9983 114.454 12.0001C111.686 12.0023 110.949 12.0228 110.746 12.1033ZM112.466 15.9598V16.7234H114.487H116.508V15.9598V15.1962H114.487H112.466V15.9598ZM112.466 19.1595V19.9231H114.487H116.508V19.1595V18.396H114.487H112.466V19.1595Z" fill="#00A6CA"/>
</svg>
