<svg width="44" height="44" viewBox="0 0 44 44" fill="none" xmlns="http://www.w3.org/2000/svg">
<circle cx="22" cy="22" r="22" fill="#FCD800"/>
<path fill-rule="evenodd" clip-rule="evenodd" d="M20.1067 13.1273C16.9864 13.6596 14.2802 15.2871 12.4164 17.7521C11.0011 19.6238 10.1573 21.9034 10.0232 24.2181C9.95732 25.3534 10.0092 25.5358 10.4793 25.8214C10.7521 25.987 10.9614 25.9994 13.5083 25.9996L16.2442 26V24.9922V23.9845H14.1209H11.9976L12.0597 23.5951C12.3262 21.9237 12.9529 20.4143 13.9475 19.0481L14.2397 18.6466L15.3343 19.7341L16.4289 20.8216L17.1401 20.113L17.8514 19.4045L16.7598 18.3141L15.668 17.2237L16.0711 16.9326C17.4426 15.9417 18.9959 15.301 20.6355 15.05L21.0264 14.9902V16.5099V18.0296H22.038H23.0496V16.5099V14.9902L23.4404 15.0508C24.21 15.1702 25.0399 15.4009 25.8395 15.7177L26.6522 16.0397L27.3842 15.3168L28.1162 14.594L27.1312 14.119C25.5097 13.3371 23.8789 12.9853 21.946 13.0005C21.3138 13.0055 20.4861 13.0625 20.1067 13.1273ZM25.4408 20.0907L21.1654 24.3506L21.8778 25.0602L22.59 25.7698L26.1704 22.204C29.2324 19.1544 29.771 18.655 29.8913 18.7545C30.1523 18.9702 30.9927 20.3606 31.2983 21.0824C31.5965 21.7865 31.8937 22.8269 32.0162 23.5951L32.0783 23.9845H30.047H28.0157V24.9922V26L30.6597 25.9996C33.1155 25.9994 33.3245 25.9866 33.5966 25.8214C34.0668 25.5358 34.1186 25.3534 34.0528 24.2181C33.8869 21.3573 32.7171 18.7316 30.6554 16.5923C30.2518 16.1734 29.8754 15.8308 29.8189 15.8308C29.7624 15.8308 27.7923 17.7477 25.4408 20.0907Z" fill="#2C2C2C"/>
</svg>
