<svg width="403" height="206" viewBox="0 0 403 206" fill="none" xmlns="http://www.w3.org/2000/svg">
<path d="M377.617 111.77L380.96 106.402C381.473 105.598 381.738 104.859 381.754 103.874C381.754 101.248 379.835 100 377.386 100C374.92 100 373 101.248 373 103.874C373 106.287 374.655 107.666 377.038 107.584C377.253 107.584 377.501 107.518 377.683 107.436L374.92 111.77H377.617ZM377.386 102.085C378.577 102.085 379.305 102.709 379.305 103.874C379.305 105.056 378.577 105.713 377.386 105.713C376.194 105.713 375.449 105.056 375.449 103.874C375.449 102.709 376.194 102.085 377.386 102.085Z" fill="#808080"/>
<path d="M387.902 100.082C385.502 100.082 383.566 101.56 383.566 104.038V108.044C383.566 110.539 385.502 112 387.902 112C390.268 112 392.204 110.539 392.204 108.044V104.038C392.204 101.56 390.268 100.082 387.902 100.082ZM387.902 109.85C386.842 109.85 386.065 109.308 385.949 108.306C385.916 108.027 385.899 107.732 385.899 107.387V104.711C385.899 104.383 385.916 104.071 385.949 103.776C386.065 102.741 386.842 102.233 387.902 102.233C388.911 102.233 389.722 102.741 389.838 103.776C389.871 104.071 389.887 104.383 389.887 104.711V107.387C389.887 107.732 389.871 108.027 389.838 108.306C389.722 109.308 388.911 109.85 387.902 109.85Z" fill="#808080"/>
<path d="M398.697 100.082C396.298 100.082 394.361 101.56 394.361 104.038V108.044C394.361 110.539 396.298 112 398.697 112C401.064 112 403 110.539 403 108.044V104.038C403 101.56 401.064 100.082 398.697 100.082ZM398.697 109.85C397.638 109.85 396.86 109.308 396.744 108.306C396.711 108.027 396.695 107.732 396.695 107.387V104.711C396.695 104.383 396.711 104.071 396.744 103.776C396.86 102.741 397.638 102.233 398.697 102.233C399.707 102.233 400.518 102.741 400.633 103.776C400.667 104.071 400.683 104.383 400.683 104.711V107.387C400.683 107.732 400.667 108.027 400.633 108.306C400.518 109.308 399.707 109.85 398.697 109.85Z" fill="#808080"/>
<path d="M61.5876 176.416C61.5876 180.016 64.2276 182.112 67.2676 182.112C69.5396 182.112 71.8436 180.912 72.4036 178.176H70.5956C70.0996 179.664 68.8036 180.416 67.2676 180.416C64.9796 180.416 63.4596 178.64 63.4596 176.416C63.4596 174.032 64.9796 172.368 67.2676 172.368C68.7396 172.384 69.9876 173.024 70.5476 174.416H72.3396C71.7476 171.888 69.4756 170.672 67.2836 170.672C64.2276 170.672 61.5876 172.8 61.5876 176.416ZM79.4238 174.288V178.704C79.4238 179.936 78.5758 180.736 77.4718 180.736C76.4478 180.736 75.7918 179.984 75.8078 178.752V174.288H74.0478V178.752C74.0478 180.64 74.7998 182.128 76.9278 182.128C78.0158 182.128 79.0718 181.792 79.5998 180.752C79.5998 182.416 81.0078 182.208 81.9998 182.032L81.9838 180.896C81.2478 180.976 81.1678 180.72 81.1678 179.792V174.288H79.4238ZM85.5787 175.408C85.4987 174.16 84.2507 173.968 83.1147 174.224L83.1307 175.408C83.9627 175.36 83.9627 175.712 83.9627 176.4V182H85.6907V177.536C85.6907 176.288 86.6187 175.616 87.6587 175.616C88.2187 175.616 88.7307 175.776 89.1947 176.08L89.6267 174.576C89.1307 174.208 88.4907 174.016 87.8507 174.032C86.9067 174.032 85.8827 174.512 85.5787 175.408ZM92.8131 175.408C92.7331 174.16 91.4851 173.968 90.3491 174.224L90.3651 175.408C91.1971 175.36 91.1971 175.712 91.1971 176.4V182H92.9251V177.536C92.9251 176.288 93.8531 175.616 94.8931 175.616C95.4531 175.616 95.9651 175.776 96.4291 176.08L96.8611 174.576C96.3651 174.208 95.7251 174.016 95.0851 174.032C94.1411 174.032 93.1171 174.512 92.8131 175.408ZM101.476 174.112C99.3803 174.112 97.5243 175.408 97.4763 177.984C97.3963 180.592 99.2683 182.224 101.812 182.176C102.788 182.176 103.828 181.92 104.724 181.52L104.5 180.224C103.588 180.624 102.66 180.752 101.7 180.704C100.292 180.704 99.1883 179.872 99.1883 178.464H104.884C105.396 175.904 104.18 174.112 101.476 174.112ZM101.46 175.456C102.564 175.456 103.524 176.064 103.476 177.232H99.2203C99.4603 176.016 100.308 175.456 101.46 175.456ZM114.305 182V177.472C114.305 175.568 113.345 174.128 111.249 174.128C110.241 174.128 109.057 174.496 108.625 175.472C108.625 174 107.329 174.064 106.209 174.272V175.408C106.993 175.36 107.025 175.616 107.025 176.528V182H108.785V177.616C108.785 176.368 109.649 175.52 110.737 175.52C111.777 175.536 112.561 176.272 112.545 177.472V182H114.305ZM118.858 171.92H117.322L117.146 174.304H115.578V175.44L117.146 175.552V179.056C117.146 182.08 119.21 182.688 121.85 181.872L121.674 180.56C120.09 181.12 118.858 180.992 118.858 179.024V175.552H121.53V174.304H118.858V171.92ZM94.6263 197.816C94.6743 200.168 96.9623 201.256 99.1543 201.208C101.25 201.208 103.57 200.28 103.57 197.816C103.57 195.24 101.49 194.792 99.2183 194.536C97.9223 194.36 96.6583 194.2 96.6583 192.936C96.6583 191.672 97.9863 191.256 99.0103 191.256C100.114 191.256 101.378 191.64 101.458 192.84H103.218C103.17 190.552 101.154 189.592 99.0263 189.592C96.8503 189.592 94.8183 190.68 94.8183 192.984C94.8183 195.224 96.8503 195.88 98.8983 196.056C100.194 196.184 101.714 196.328 101.714 197.8C101.714 199.192 100.306 199.544 99.1223 199.544C97.9062 199.544 96.5303 199.08 96.4503 197.816H94.6263ZM112.714 195.848C112.298 193.96 110.65 193.048 108.97 193.064C106.97 193.08 104.922 194.456 104.922 197.112C104.922 199.784 106.97 201.128 108.986 201.128C110.682 201.128 112.362 200.168 112.762 198.216H111.098C110.746 199.16 109.882 199.624 109.018 199.624C107.85 199.624 106.65 198.776 106.65 197.112C106.65 195.48 107.866 194.616 109.05 194.616C109.946 194.616 110.762 195.016 111.098 195.848H112.714ZM122.113 197.112C122.113 194.408 120.033 193.064 117.969 193.096C115.953 193.128 113.969 194.456 113.969 197.112C113.969 199.8 116.001 201.144 118.033 201.144C120.065 201.144 122.113 199.8 122.113 197.112ZM115.697 197.112C115.697 195.48 116.817 194.664 117.969 194.632C119.153 194.6 120.369 195.432 120.369 197.112C120.369 198.76 119.217 199.592 118.065 199.608C116.881 199.624 115.697 198.792 115.697 197.112ZM125.79 194.408C125.71 193.16 124.462 192.968 123.326 193.224L123.342 194.408C124.174 194.36 124.174 194.712 124.174 195.4V201H125.902V196.536C125.902 195.288 126.83 194.616 127.87 194.616C128.43 194.616 128.942 194.776 129.406 195.08L129.838 193.576C129.342 193.208 128.702 193.016 128.062 193.032C127.118 193.032 126.094 193.512 125.79 194.408ZM134.453 193.112C132.357 193.112 130.501 194.408 130.453 196.984C130.373 199.592 132.245 201.224 134.789 201.176C135.765 201.176 136.805 200.92 137.701 200.52L137.477 199.224C136.565 199.624 135.637 199.752 134.677 199.704C133.269 199.704 132.165 198.872 132.165 197.464H137.861C138.373 194.904 137.157 193.112 134.453 193.112ZM134.437 194.456C135.541 194.456 136.501 195.064 136.453 196.232H132.197C132.437 195.016 133.285 194.456 134.437 194.456Z" fill="black"/>
<path d="M45.0626 195.416C45.0626 199.128 47.8466 201.112 50.7906 201.112C53.1266 201.112 55.5106 199.88 55.9906 196.92H53.6866C53.3026 198.28 52.1666 198.936 50.7746 198.936C48.7746 198.936 47.4786 197.336 47.4786 195.416C47.4786 193.288 48.8066 191.848 50.7906 191.848C52.1346 191.848 53.1426 192.408 53.6386 193.672H55.9586C55.4466 190.904 53.0466 189.688 50.7906 189.688C47.8466 189.64 45.0626 191.688 45.0626 195.416ZM61.2665 199.096V191.656H62.7225V189.8H57.4105V191.656H58.8665V199.096H57.2825V201H62.8505V199.096H61.2665ZM73.1621 193.128C73.1621 191.032 71.6901 189.816 69.6421 189.816H64.8901V201H70.0901C72.3301 201 73.6421 199.656 73.6421 197.688C73.6421 196.536 73.0821 195.624 72.0421 195.192C72.7461 194.76 73.1621 193.944 73.1621 193.128ZM69.4661 191.864C70.2981 191.864 70.8261 192.392 70.8101 193.208C70.7941 193.96 70.2821 194.408 69.4661 194.408H67.2741V191.864H69.4661ZM69.8181 196.36C70.1861 196.36 70.5061 196.392 70.7781 196.584C71.1141 196.824 71.2901 197.24 71.2741 197.688C71.2261 198.44 70.7461 198.92 69.9301 198.92H67.2741V196.36H69.8181ZM78.954 199.096V191.656H80.41V189.8H75.098V191.656H76.554V199.096H74.97V201H80.538V199.096H78.954ZM84.9616 189.8H82.5616V201H89.6336V198.856H84.9616V189.8Z" fill="#3EA3CE"/>
<path d="M158.617 111.77L161.96 106.402C162.473 105.598 162.738 104.859 162.754 103.874C162.754 101.248 160.835 100 158.386 100C155.92 100 154 101.248 154 103.874C154 106.287 155.655 107.666 158.038 107.584C158.253 107.584 158.501 107.518 158.683 107.436L155.92 111.77H158.617ZM158.386 102.085C159.577 102.085 160.305 102.709 160.305 103.874C160.305 105.056 159.577 105.713 158.386 105.713C157.194 105.713 156.449 105.056 156.449 103.874C156.449 102.709 157.194 102.085 158.386 102.085Z" fill="#808080"/>
<path d="M168.902 100.082C166.502 100.082 164.566 101.56 164.566 104.038V108.044C164.566 110.539 166.502 112 168.902 112C171.268 112 173.204 110.539 173.204 108.044V104.038C173.204 101.56 171.268 100.082 168.902 100.082ZM168.902 109.85C167.842 109.85 167.065 109.308 166.949 108.306C166.916 108.027 166.899 107.732 166.899 107.387V104.711C166.899 104.383 166.916 104.071 166.949 103.776C167.065 102.741 167.842 102.233 168.902 102.233C169.911 102.233 170.722 102.741 170.838 103.776C170.871 104.071 170.887 104.383 170.887 104.711V107.387C170.887 107.732 170.871 108.027 170.838 108.306C170.722 109.308 169.911 109.85 168.902 109.85Z" fill="#808080"/>
<path d="M179.697 100.082C177.298 100.082 175.361 101.56 175.361 104.038V108.044C175.361 110.539 177.298 112 179.697 112C182.064 112 184 110.539 184 108.044V104.038C184 101.56 182.064 100.082 179.697 100.082ZM179.697 109.85C178.638 109.85 177.86 109.308 177.744 108.306C177.711 108.027 177.695 107.732 177.695 107.387V104.711C177.695 104.383 177.711 104.071 177.744 103.776C177.86 102.741 178.638 102.233 179.697 102.233C180.707 102.233 181.518 102.741 181.633 103.776C181.667 104.071 181.683 104.383 181.683 104.711V107.387C181.683 107.732 181.667 108.027 181.633 108.306C181.518 109.308 180.707 109.85 179.697 109.85Z" fill="#808080"/>
<g opacity="0.5">
<path d="M0 108.196C0.080826 110.378 1.71351 111.72 3.83116 111.72C6.38526 111.72 7.8078 109.861 7.8078 107.856C7.8078 106.288 6.98337 104.801 5.17287 104.494L7.62998 100.55V100.21H0.436461V102.134H4.42927L2.34396 105.722V106.062C3.79883 105.803 5.48001 106.062 5.5285 107.872C5.51234 108.907 4.84956 109.634 3.79883 109.634C2.82891 109.634 2.1823 109.15 2.11764 108.196H0Z" fill="black"/>
<path d="M13.9364 100C11.5925 100 9.70115 101.455 9.70115 103.896V107.84C9.70115 110.297 11.5925 111.736 13.9364 111.736C16.2481 111.736 18.1394 110.297 18.1394 107.84V103.896C18.1394 101.455 16.2481 100 13.9364 100ZM13.9364 109.618C12.9019 109.618 12.1421 109.085 12.0289 108.099C11.9966 107.824 11.9804 107.533 11.9804 107.194V104.559C11.9804 104.235 11.9966 103.928 12.0289 103.637C12.1421 102.619 12.9019 102.118 13.9364 102.118C14.9225 102.118 15.7146 102.619 15.8278 103.637C15.8601 103.928 15.8763 104.235 15.8763 104.559V107.194C15.8763 107.533 15.8601 107.824 15.8278 108.099C15.7146 109.085 14.9225 109.618 13.9364 109.618Z" fill="black"/>
<path d="M24.4817 100C22.1378 100 20.2464 101.455 20.2464 103.896V107.84C20.2464 110.297 22.1378 111.736 24.4817 111.736C26.7933 111.736 28.6847 110.297 28.6847 107.84V103.896C28.6847 101.455 26.7933 100 24.4817 100ZM24.4817 109.618C23.4471 109.618 22.6874 109.085 22.5742 108.099C22.5419 107.824 22.5257 107.533 22.5257 107.194V104.559C22.5257 104.235 22.5419 103.928 22.5742 103.637C22.6874 102.619 23.4471 102.118 24.4817 102.118C25.4678 102.118 26.2599 102.619 26.373 103.637C26.4054 103.928 26.4215 104.235 26.4215 104.559V107.194C26.4215 107.533 26.4054 107.824 26.373 108.099C26.2599 109.085 25.4678 109.618 24.4817 109.618Z" fill="black"/>
</g>
<path d="M81.4088 130.704H64.5448V135.124H74.5748L66.1428 154.504H71.2768L81.4088 131.418V130.704ZM92.3953 130.296C87.4653 130.296 83.4873 133.356 83.4873 138.49V146.786C83.4873 151.954 87.4653 154.98 92.3953 154.98C97.2573 154.98 101.235 151.954 101.235 146.786V138.49C101.235 133.356 97.2573 130.296 92.3953 130.296ZM92.3953 150.526C90.2193 150.526 88.6213 149.404 88.3833 147.33C88.3153 146.752 88.2813 146.14 88.2813 145.426V139.884C88.2813 139.204 88.3153 138.558 88.3833 137.946C88.6213 135.804 90.2193 134.75 92.3953 134.75C94.4693 134.75 96.1353 135.804 96.3733 137.946C96.4413 138.558 96.4753 139.204 96.4753 139.884V145.426C96.4753 146.14 96.4413 146.752 96.3733 147.33C96.1353 149.404 94.4693 150.526 92.3953 150.526ZM114.813 137.64C114.711 139.034 113.861 140.394 113.011 141.584L104.579 153.416V154.504H119.845V150.084H112.093C115.119 146.174 116.173 144.406 116.887 143.42C121.613 137.13 119.063 130.33 112.331 130.33C107.673 130.33 104.885 133.05 104.885 137.708H109.237C109.237 135.362 110.835 134.682 112.195 134.682C113.589 134.682 114.915 135.668 114.813 137.64Z" fill="#2C2C2C"/>
<path d="M127.014 132.902L126.642 131.744L125.525 132.207L125.63 131H124.396L124.501 132.207L123.349 131.756L123 132.927L124.198 133.244L123.349 134.22L124.338 135L125.013 133.939L125.7 135L126.7 134.232L125.851 133.232L127.014 132.902Z" fill="#707070"/>
<path d="M132 132.902L131.628 131.744L130.511 132.207L130.615 131H129.382L129.487 132.207L128.335 131.756L127.986 132.927L129.184 133.244L128.335 134.22L129.324 135L129.999 133.939L130.685 135L131.686 134.232L130.836 133.232L132 132.902Z" fill="#707070"/>
<path d="M114.005 91.8479C114.005 86.0016 111.682 80.3947 107.549 76.2608C103.415 72.1268 97.8077 69.8044 91.9614 69.8044C86.1151 69.8044 80.5083 72.1268 76.3744 76.2608C72.2404 80.3947 69.918 86.0016 69.918 91.8478L91.9614 91.8479H114.005Z" fill="#EDEDED"/>
<path d="M111.609 34.3474L89.5302 82.2201C88.5747 84.2919 89.54 86.7423 91.6519 87.6057C93.7638 88.4691 96.1693 87.3968 96.9389 85.2489L114.721 35.6196C115.025 34.7719 114.607 33.8353 113.774 33.4946C112.94 33.1538 111.986 33.5297 111.609 34.3474Z" fill="#2C2C2C"/>
<path d="M7.07613 91.8478C3.01804 91.8478 -0.302282 88.5524 0.0218886 84.5073C1.7587 62.8347 11.1437 42.3878 26.6299 26.9017C43.8547 9.67686 67.2165 6.28743e-05 91.5761 6.10352e-05C115.936 5.91961e-05 139.297 9.67685 156.522 26.9016C172.008 42.3878 181.393 62.8347 183.13 84.5073C183.454 88.5524 180.134 91.8478 176.076 91.8478C172.018 91.8478 168.765 88.5504 168.379 84.5107C166.682 66.7412 158.86 50.0222 146.131 37.293C131.662 22.8242 112.038 14.6957 91.5761 14.6957C71.1141 14.6957 51.4901 22.8242 37.0213 37.293C24.2922 50.0222 16.4703 66.7412 14.7734 84.5107C14.3876 88.5504 11.1342 91.8478 7.07613 91.8478Z" fill="#EDEDED"/>
<path d="M7.46172 91.8478C3.40363 91.8478 0.0833479 88.5528 0.407648 84.5077C1.41302 71.9673 4.9866 59.7396 10.9356 48.5953C18.0405 35.2854 28.3148 23.9307 40.8505 15.5349C53.3861 7.13905 67.797 1.96056 82.8094 0.457154C95.3793 -0.80165 108.047 0.548491 120.026 4.3925C123.89 5.63245 125.673 9.95707 124.128 13.7096C122.583 17.4622 118.296 19.2156 114.413 18.0347C104.684 15.0753 94.4408 14.0615 84.2738 15.0797C71.6634 16.3425 59.5582 20.6924 49.0283 27.745C38.4983 34.7975 29.8679 44.3354 23.8997 55.5157C19.088 64.5297 16.1263 74.3874 15.1592 84.511C14.7733 88.5507 11.5198 91.8478 7.46172 91.8478Z" fill="#A9D161"/>
<path d="M272.798 178.816C272.846 181.168 275.134 182.256 277.326 182.208C279.422 182.208 281.742 181.28 281.742 178.816C281.742 176.24 279.662 175.792 277.39 175.536C276.094 175.36 274.83 175.2 274.83 173.936C274.83 172.672 276.158 172.256 277.182 172.256C278.286 172.256 279.55 172.64 279.63 173.84H281.39C281.342 171.552 279.326 170.592 277.198 170.592C275.022 170.592 272.99 171.68 272.99 173.984C272.99 176.224 275.022 176.88 277.07 177.056C278.366 177.184 279.886 177.328 279.886 178.8C279.886 180.192 278.478 180.544 277.294 180.544C276.078 180.544 274.702 180.08 274.622 178.816H272.798ZM283.335 171.904C283.335 172.608 283.879 172.96 284.407 172.944C284.919 172.928 285.431 172.592 285.431 171.904C285.431 171.232 284.919 170.88 284.391 170.88C283.863 170.88 283.335 171.216 283.335 171.904ZM285.255 174.368H283.511V182H285.255V174.368ZM299.75 182V177.488C299.798 175.632 299.254 174.128 297.142 174.128C295.958 174.128 294.758 174.56 294.326 175.584C294.022 174.64 293.334 174.128 291.99 174.128C290.934 174.128 289.798 174.608 289.366 175.552C289.414 173.936 287.974 174.016 286.95 174.272L286.966 175.344C287.734 175.296 287.782 175.584 287.782 176.48V182H289.526V177.552C289.526 176.336 290.31 175.568 291.398 175.552C292.486 175.536 292.982 176.336 292.982 177.536V182H294.694V177.536C294.71 176.32 295.43 175.552 296.502 175.536C297.526 175.52 298.006 176.336 297.99 177.488V182H299.75ZM307.213 174.288V178.704C307.213 179.936 306.365 180.736 305.261 180.736C304.237 180.736 303.581 179.984 303.597 178.752V174.288H301.837V178.752C301.837 180.64 302.589 182.128 304.717 182.128C305.805 182.128 306.861 181.792 307.389 180.752C307.389 182.416 308.797 182.208 309.789 182.032L309.773 180.896C309.037 180.976 308.957 180.72 308.957 179.792V174.288H307.213ZM311.4 170.288V179.248C311.4 181.824 312.488 182.432 314.856 182.048L314.792 180.704C313.464 180.912 313.128 180.512 313.128 179.232V170.288H311.4ZM321.097 180.704C321.145 182.224 322.089 182.224 323.305 182.016L323.273 181.024C322.441 181.104 322.473 180.64 322.473 179.92V176.88C322.473 174.752 320.809 174.096 318.937 174.096C317.913 174.096 316.873 174.304 316.089 174.704L316.345 175.952C317.305 175.472 320.777 174.8 320.777 176.832V177.6C320.089 177.216 319.241 177.024 318.489 177.024C316.793 177.024 315.449 177.904 315.497 179.744C315.497 181.248 316.857 182.144 318.265 182.144C319.353 182.144 320.585 181.728 321.097 180.704ZM320.777 179.36C320.601 180.336 319.529 180.768 318.617 180.768C317.913 180.768 317.209 180.416 317.209 179.648C317.209 178.704 317.929 178.208 318.777 178.192C319.465 178.176 320.201 178.384 320.777 178.72V179.36ZM327.194 171.92H325.658L325.482 174.304H323.914V175.44L325.482 175.552V179.056C325.482 182.08 327.546 182.688 330.186 181.872L330.01 180.56C328.426 181.12 327.194 180.992 327.194 179.024V175.552H329.866V174.304H327.194V171.92ZM335.14 174.112C333.044 174.112 331.188 175.408 331.14 177.984C331.06 180.592 332.932 182.224 335.476 182.176C336.452 182.176 337.492 181.92 338.388 181.52L338.164 180.224C337.252 180.624 336.324 180.752 335.364 180.704C333.956 180.704 332.852 179.872 332.852 178.464H338.548C339.06 175.904 337.844 174.112 335.14 174.112ZM335.124 175.456C336.228 175.456 337.188 176.064 337.14 177.232H332.884C333.124 176.016 333.972 175.456 335.124 175.456ZM346.065 180.816C346.065 182.112 347.121 182.224 348.321 182.016L348.289 180.816C347.409 180.816 347.489 180.48 347.489 179.6V170.288H345.745V174.768C345.041 174.352 344.289 174.176 343.601 174.176C341.617 174.176 339.953 175.744 339.953 178.128C339.953 180.288 341.201 182.208 343.505 182.16C344.641 182.16 345.553 181.728 346.065 180.592V180.816ZM345.777 178.464C345.777 179.632 344.977 180.608 343.777 180.608C342.353 180.608 341.681 179.456 341.681 178.128C341.681 176.56 342.673 175.712 343.873 175.696C344.481 175.68 345.153 175.872 345.777 176.304V178.464ZM313.626 197.816C313.674 200.168 315.962 201.256 318.154 201.208C320.25 201.208 322.57 200.28 322.57 197.816C322.57 195.24 320.49 194.792 318.218 194.536C316.922 194.36 315.658 194.2 315.658 192.936C315.658 191.672 316.986 191.256 318.01 191.256C319.114 191.256 320.378 191.64 320.458 192.84H322.218C322.17 190.552 320.154 189.592 318.026 189.592C315.85 189.592 313.818 190.68 313.818 192.984C313.818 195.224 315.85 195.88 317.898 196.056C319.194 196.184 320.714 196.328 320.714 197.8C320.714 199.192 319.306 199.544 318.122 199.544C316.906 199.544 315.53 199.08 315.45 197.816H313.626ZM331.714 195.848C331.298 193.96 329.65 193.048 327.97 193.064C325.97 193.08 323.922 194.456 323.922 197.112C323.922 199.784 325.97 201.128 327.986 201.128C329.682 201.128 331.362 200.168 331.762 198.216H330.098C329.746 199.16 328.882 199.624 328.018 199.624C326.85 199.624 325.65 198.776 325.65 197.112C325.65 195.48 326.866 194.616 328.05 194.616C328.946 194.616 329.762 195.016 330.098 195.848H331.714ZM341.113 197.112C341.113 194.408 339.033 193.064 336.969 193.096C334.953 193.128 332.969 194.456 332.969 197.112C332.969 199.8 335.001 201.144 337.033 201.144C339.065 201.144 341.113 199.8 341.113 197.112ZM334.697 197.112C334.697 195.48 335.817 194.664 336.969 194.632C338.153 194.6 339.369 195.432 339.369 197.112C339.369 198.76 338.217 199.592 337.065 199.608C335.881 199.624 334.697 198.792 334.697 197.112ZM344.79 194.408C344.71 193.16 343.462 192.968 342.326 193.224L342.342 194.408C343.174 194.36 343.174 194.712 343.174 195.4V201H344.902V196.536C344.902 195.288 345.83 194.616 346.87 194.616C347.43 194.616 347.942 194.776 348.406 195.08L348.838 193.576C348.342 193.208 347.702 193.016 347.062 193.032C346.118 193.032 345.094 193.512 344.79 194.408ZM353.453 193.112C351.357 193.112 349.501 194.408 349.453 196.984C349.373 199.592 351.245 201.224 353.789 201.176C354.765 201.176 355.805 200.92 356.701 200.52L356.477 199.224C355.565 199.624 354.637 199.752 353.677 199.704C352.269 199.704 351.165 198.872 351.165 197.464H356.861C357.373 194.904 356.157 193.112 353.453 193.112ZM353.437 194.456C354.541 194.456 355.501 195.064 355.453 196.232H351.197C351.437 195.016 352.285 194.456 353.437 194.456Z" fill="black"/>
<path d="M264.063 195.416C264.063 199.128 266.847 201.112 269.791 201.112C272.127 201.112 274.511 199.88 274.991 196.92H272.687C272.303 198.28 271.167 198.936 269.775 198.936C267.775 198.936 266.479 197.336 266.479 195.416C266.479 193.288 267.807 191.848 269.791 191.848C271.135 191.848 272.143 192.408 272.639 193.672H274.959C274.447 190.904 272.047 189.688 269.791 189.688C266.847 189.64 264.063 191.688 264.063 195.416ZM280.266 199.096V191.656H281.723V189.8H276.411V191.656H277.867V199.096H276.283V201H281.851V199.096H280.266ZM292.162 193.128C292.162 191.032 290.69 189.816 288.642 189.816H283.89V201H289.09C291.33 201 292.642 199.656 292.642 197.688C292.642 196.536 292.082 195.624 291.042 195.192C291.746 194.76 292.162 193.944 292.162 193.128ZM288.466 191.864C289.298 191.864 289.826 192.392 289.81 193.208C289.794 193.96 289.282 194.408 288.466 194.408H286.274V191.864H288.466ZM288.818 196.36C289.186 196.36 289.506 196.392 289.778 196.584C290.114 196.824 290.29 197.24 290.274 197.688C290.226 198.44 289.746 198.92 288.93 198.92H286.274V196.36H288.818ZM297.954 199.096V191.656H299.41V189.8H294.098V191.656H295.554V199.096H293.97V201H299.538V199.096H297.954ZM303.962 189.8H301.562V201H308.634V198.856H303.962V189.8Z" fill="#3EA3CE"/>
<g opacity="0.5">
<path d="M219 108.373C219.081 110.555 220.714 111.897 222.831 111.897C225.385 111.897 226.808 110.038 226.808 108.034C226.808 106.466 225.983 104.978 224.173 104.671L226.63 100.727V100.388H219.436V102.311H223.429L221.344 105.9V106.239C222.799 105.981 224.48 106.239 224.529 108.05C224.512 109.084 223.85 109.812 222.799 109.812C221.829 109.812 221.182 109.327 221.118 108.373H219Z" fill="black"/>
<path d="M232.936 100.177C230.592 100.177 228.701 101.632 228.701 104.073V108.017C228.701 110.475 230.592 111.913 232.936 111.913C235.248 111.913 237.139 110.475 237.139 108.017V104.073C237.139 101.632 235.248 100.177 232.936 100.177ZM232.936 109.796C231.902 109.796 231.142 109.262 231.029 108.276C230.997 108.001 230.98 107.71 230.98 107.371V104.736C230.98 104.413 230.997 104.106 231.029 103.815C231.142 102.796 231.902 102.295 232.936 102.295C233.923 102.295 234.715 102.796 234.828 103.815C234.86 104.106 234.876 104.413 234.876 104.736V107.371C234.876 107.71 234.86 108.001 234.828 108.276C234.715 109.262 233.923 109.796 232.936 109.796Z" fill="black"/>
<path d="M243.482 100.177C241.138 100.177 239.246 101.632 239.246 104.073V108.017C239.246 110.475 241.138 111.913 243.482 111.913C245.793 111.913 247.685 110.475 247.685 108.017V104.073C247.685 101.632 245.793 100.177 243.482 100.177ZM243.482 109.796C242.447 109.796 241.687 109.262 241.574 108.276C241.542 108.001 241.526 107.71 241.526 107.371V104.736C241.526 104.413 241.542 104.106 241.574 103.815C241.687 102.796 242.447 102.295 243.482 102.295C244.468 102.295 245.26 102.796 245.373 103.815C245.405 104.106 245.422 104.413 245.422 104.736V107.371C245.422 107.71 245.405 108.001 245.373 108.276C245.26 109.262 244.468 109.796 243.482 109.796Z" fill="black"/>
</g>
<path d="M312.414 148.146C312.414 143.318 317.752 141.55 317.752 137.266C317.752 132.54 314.216 130.16 310.136 130.262C306.09 130.364 302.724 132.642 302.724 137.47H306.906C307.076 135.702 308.606 134.818 310.102 134.818C312.652 134.818 313.332 137.062 312.516 138.864C311.156 141.89 307.926 142.808 307.926 148.146H312.414ZM310.238 154.98C311.836 154.98 312.992 153.926 312.992 152.396C312.992 150.798 311.836 149.778 310.238 149.778C308.64 149.778 307.416 150.798 307.416 152.396C307.416 153.926 308.64 154.98 310.238 154.98Z" fill="#2C2C2C"/>
<path d="M333.005 91.8479C333.005 86.0016 330.682 80.3948 326.549 76.2608C322.415 72.1269 316.808 69.8044 310.961 69.8044C305.115 69.8044 299.508 72.1269 295.374 76.2608C291.24 80.3948 288.918 86.0016 288.918 91.8479L310.961 91.8479H333.005Z" fill="#EDEDED"/>
<path d="M226.076 91.8478C222.018 91.8478 218.698 88.5524 219.022 84.5073C220.759 62.8347 230.144 42.3878 245.63 26.9017C262.855 9.67686 286.217 6.28743e-05 310.576 6.10352e-05C334.936 5.91961e-05 358.297 9.67685 375.522 26.9016C391.008 42.3878 400.393 62.8347 402.13 84.5073C402.454 88.5524 399.134 91.8478 395.076 91.8478C391.018 91.8478 387.765 88.5504 387.379 84.5107C385.682 66.7412 377.86 50.0222 365.131 37.293C350.662 22.8242 331.038 14.6957 310.576 14.6957C290.114 14.6957 270.49 22.8242 256.021 37.293C243.292 50.0222 235.47 66.7412 233.773 84.5107C233.388 88.5504 230.134 91.8478 226.076 91.8478Z" fill="#EDEDED"/>
</svg>
