<svg width="44" height="44" viewBox="0 0 44 44" fill="none" xmlns="http://www.w3.org/2000/svg">
<circle cx="22" cy="22" r="22" fill="#FCD800"/>
<path fill-rule="evenodd" clip-rule="evenodd" d="M21.3546 12.0273C20.9152 12.1461 11.3334 16.08 11.0443 16.2604C10.2392 16.7625 9.85915 17.5297 10.0475 18.2732C10.2604 19.114 10.7279 19.4913 12.4216 20.189C13.0396 20.4435 13.5964 20.6728 13.6588 20.6986C13.7478 20.7353 13.7723 21.8761 13.7723 25.9727V31.2H14.7712H15.7701V26.4145C15.7701 23.7166 15.8049 21.629 15.8501 21.629C15.894 21.629 17.1302 22.1247 18.597 22.7304L21.2638 23.8317L22.0357 23.8365L22.8075 23.8412L25.5077 22.7351C26.9927 22.1267 28.2288 21.629 28.2545 21.629C28.2802 21.629 28.3013 22.5816 28.3013 23.7459V25.8628L27.8246 25.6538C26.1165 24.905 23.9353 25.1611 22.4563 26.284L22.0357 26.6034L21.6151 26.284C20.7125 25.5987 19.635 25.2407 18.4752 25.2407H17.7678L17.7681 26.2114L17.7683 27.182L18.4264 27.1918C19.604 27.2095 20.2861 27.5972 21.3215 28.8368C21.5344 29.0918 21.6131 29.1233 22.0357 29.1233C22.4583 29.1233 22.5369 29.0918 22.7499 28.8368C23.4128 28.0429 23.9318 27.6053 24.4298 27.42C25.2502 27.1148 25.8216 27.0834 26.55 27.3034C27.298 27.5294 27.8119 27.88 28.2764 28.4815C28.4649 28.7255 28.713 28.9698 28.8277 29.0242C29.13 29.1678 29.5907 29.1458 29.8344 28.976C30.2817 28.6645 30.2989 28.4982 30.2998 24.4987L30.3008 20.7713L31.503 20.2908C33.2639 19.5872 33.8005 19.1729 34.0323 18.3382C34.1945 17.7542 33.8895 16.9345 33.3645 16.5431C32.8961 16.1938 32.5836 16.0565 27.5606 13.9923C23.1491 12.1794 22.7619 12.0369 22.1719 12.0086C21.8223 11.9919 21.4545 12.0003 21.3546 12.0273ZM26.891 15.8619C29.4396 16.9112 31.6036 17.8103 31.6998 17.8601C31.8668 17.9463 31.8647 17.9557 31.6544 18.0634C30.8839 18.4582 22.274 21.8999 22.0568 21.8999C21.8122 21.8999 18.5448 20.6228 18.3759 20.4613C18.3358 20.4229 19.8983 19.7455 21.8481 18.9561C23.7979 18.1667 25.3937 17.4977 25.3943 17.4696C25.395 17.4416 24.8337 17.1888 24.1469 16.908L22.8983 16.3974L19.2477 17.8806L15.597 19.3637L13.9149 18.6679C12.9898 18.2852 12.2319 17.9472 12.2307 17.9166C12.2268 17.8128 21.716 13.964 21.9875 13.9591C22.1408 13.9563 24.2552 14.7768 26.891 15.8619Z" fill="#2C2C2C"/>
</svg>
