<svg width="52" height="68" viewBox="0 0 52 68" fill="none" xmlns="http://www.w3.org/2000/svg">
<circle cx="18.5" cy="18.5" r="18.5" fill="#EDEDED"/>
<rect x="15" y="15" width="30" height="46" rx="4" fill="white"/>
<path fill-rule="evenodd" clip-rule="evenodd" d="M15.2636 8.19943C12.5169 8.69627 10.3349 10.2207 8.99186 12.5816C8.47884 13.4834 8 15.1158 8 15.9631V16.5876L8.64196 16.6733C8.99491 16.7204 9.6983 16.759 10.2048 16.759H11.126L11.2758 15.9168C11.7217 13.4102 13.7954 11.506 16.3358 11.2705L17.1314 11.1966V9.59831V8L16.6817 8.01213C16.4345 8.01887 15.7963 8.10309 15.2636 8.19943ZM16.9239 14.7396C15.8335 15.0802 14.787 15.9704 14.269 16.998L13.8801 17.7696V38.2521V58.7346L14.2675 59.5031C14.8166 60.5922 15.814 61.427 16.977 61.771C17.8745 62.0366 18.1945 62.0424 29.7243 62.006L41.5509 61.9687L42.3182 61.6182C43.7989 60.9418 44.6373 59.8887 44.9286 58.3393C45.1538 57.1418 45.1387 24.9563 44.9129 24.7364C44.704 24.5329 41.8556 24.5146 41.4726 24.7141C41.2115 24.8502 41.205 25.1114 41.205 35.427V46.0004H29.4449H17.6848V32.3325C17.6848 20.087 17.7075 18.6427 17.9022 18.453C18.0968 18.2635 19.4903 18.2411 31.1496 18.2394C38.3162 18.2384 44.3197 18.201 44.491 18.1564C44.9157 18.0455 44.8886 17.6512 44.3991 16.82C43.9104 15.9902 43.046 15.2089 42.1904 14.8235C41.5545 14.5372 41.4844 14.5354 29.6525 14.5079C18.2469 14.4815 17.7195 14.4911 16.9239 14.7396ZM41.176 53.542C41.1395 57.4665 41.1139 57.8709 40.8888 58.09C40.6558 58.3168 40.0029 58.3304 29.3597 58.3304C18.3513 58.3304 18.0728 58.324 17.8811 58.0688C17.7213 57.8559 17.6848 57.0101 17.6848 53.5209V49.2345H29.4505H41.2161L41.176 53.542ZM20.3906 52.2291C20.0529 52.6986 20.0877 54.8939 20.4396 55.3172L20.7041 55.6353L29.2597 55.6686C35.975 55.6949 37.8898 55.6651 38.1612 55.5302C38.495 55.3645 38.5085 55.3054 38.5462 53.8601C38.5781 52.6298 38.5455 52.3231 38.3632 52.1456C38.1644 51.952 37.2337 51.9296 29.3737 51.9296H20.6059L20.3906 52.2291ZM48.6733 59.6251C48.6694 60.2348 48.0898 61.8059 47.6309 62.451C46.8239 63.5852 44.7057 64.721 43.3841 64.7283L42.8653 64.7312V66.3656V68L43.73 67.9067C45.0669 67.7623 45.7468 67.5736 46.9467 67.014C49.833 65.6676 51.4253 63.3939 51.9188 59.9137L52 59.341H51.1886C50.7422 59.341 49.9943 59.3021 49.5266 59.2545L48.6762 59.1679L48.6733 59.6251Z" fill="#00A6CA"/>
<circle cx="30" cy="33" r="6" stroke="#00A6CA" stroke-width="2"/>
<rect x="28.8948" y="29.6841" width="2.21053" height="4.42105" fill="#00A6CA"/>
<circle cx="30" cy="35.9473" r="1.10526" fill="#00A6CA"/>
</svg>
