<svg width="48" height="48" viewBox="0 0 48 48" fill="none" xmlns="http://www.w3.org/2000/svg">
<circle cx="24" cy="24" r="24" fill="black"/>
<path d="M37 15.5072C36.0439 15.9308 35.0167 16.2171 33.9369 16.3465C35.0511 15.6798 35.8846 14.6306 36.282 13.3945C35.2353 14.0163 34.0896 14.4539 32.8949 14.6884C32.0915 13.8306 31.0274 13.262 29.8677 13.071C28.7081 12.8799 27.5178 13.0771 26.4816 13.6318C25.4455 14.1866 24.6215 15.0679 24.1376 16.1389C23.6537 17.2099 23.5369 18.4108 23.8053 19.555C21.6843 19.4485 19.6094 18.8972 17.7152 17.9369C15.821 16.9766 14.1499 15.6287 12.8104 13.9808C12.3523 14.7709 12.089 15.6869 12.089 16.6625C12.0885 17.5408 12.3047 18.4056 12.7186 19.1802C13.1325 19.9549 13.7312 20.6154 14.4616 21.1031C13.6145 21.0762 12.7862 20.8473 12.0455 20.4355V20.5042C12.0454 21.736 12.4715 22.9299 13.2514 23.8834C14.0314 24.8368 15.1172 25.491 16.3246 25.7349C15.5388 25.9476 14.715 25.9789 13.9154 25.8265C14.256 26.8864 14.9196 27.8133 15.8132 28.4773C16.7067 29.1413 17.7856 29.5093 18.8987 29.5297C17.0091 31.013 14.6756 31.8177 12.2733 31.8141C11.8478 31.8142 11.4226 31.7894 11 31.7397C13.4384 33.3075 16.2769 34.1396 19.1758 34.1363C28.9891 34.1363 34.3537 26.0086 34.3537 18.9595C34.3537 18.7305 34.348 18.4992 34.3377 18.2702C35.3812 17.5156 36.2819 16.5811 36.9977 15.5106L37 15.5072Z" fill="white"/>
</svg>
