<svg width="48" height="48" viewBox="0 0 48 48" fill="none" xmlns="http://www.w3.org/2000/svg">
<circle cx="24" cy="24" r="24" fill="black"/>
<g clip-path="url(#clip0)">
<path d="M37.4377 17.3206C37.2848 16.7752 36.987 16.2815 36.576 15.8918C36.1533 15.4902 35.6352 15.2029 35.0707 15.0571C32.958 14.5002 24.4935 14.5002 24.4935 14.5002C20.9647 14.4601 17.4368 14.6366 13.9297 15.029C13.3652 15.1856 12.8481 15.4793 12.4245 15.884C12.0082 16.2845 11.7067 16.7783 11.5492 17.3195C11.1709 19.3577 10.987 21.4272 11.0002 23.5002C10.9867 25.5713 11.1701 27.6402 11.5492 29.681C11.7033 30.2198 12.0037 30.7115 12.4211 31.1086C12.8385 31.5057 13.3582 31.7926 13.9297 31.9445C16.0706 32.5002 24.4935 32.5002 24.4935 32.5002C28.0267 32.5404 31.5591 32.3638 35.0707 31.9715C35.6352 31.8256 36.1533 31.5383 36.576 31.1367C36.9922 30.7396 37.2881 30.2457 37.4366 29.708C37.8248 27.6705 38.0136 25.6001 38.0002 23.5261C38.0294 21.4433 37.8409 19.3631 37.4377 17.3195V17.3206ZM21.8025 27.3522V19.6493L28.845 23.5013L21.8025 27.3522Z" fill="white"/>
</g>
<defs>
<clipPath id="clip0">
<rect width="27" height="27" fill="white" transform="translate(11 10)"/>
</clipPath>
</defs>
</svg>
