<svg width="25" height="21" viewBox="0 0 25 21" fill="none" xmlns="http://www.w3.org/2000/svg">
<path fill-rule="evenodd" clip-rule="evenodd" d="M1.65304 0.216428C1.07885 0.481246 0.5624 0.972065 0.26285 1.53744C0.0381352 1.96168 0.0374053 1.98603 0.00717929 10.2584C-0.0140831 16.064 0.0112439 18.6816 0.0917075 18.9793C0.269103 19.636 0.818174 20.3225 1.45282 20.6809L2.01783 21H12.4927H22.9676L23.5345 20.6809C24.1149 20.3543 24.6325 19.7398 24.8618 19.1052C24.9505 18.8597 24.9863 16.8452 24.9921 11.7739L25 4.7812H23.9079H22.8157L22.7875 11.5715C22.7642 17.1386 22.7334 18.3934 22.6161 18.5376C22.4849 18.6988 21.6479 18.7134 12.4927 18.7134C3.33621 18.7134 2.50061 18.6988 2.36929 18.5375C2.25089 18.392 2.22629 17.0069 2.22629 10.4985V2.63532L2.47237 2.43208C2.71115 2.23469 3.04458 2.22873 13.8071 2.22873C26.1308 2.22873 25.0959 2.29733 24.6965 1.50659C24.429 0.977382 23.9028 0.479545 23.3324 0.216428C22.8707 0.00340327 22.699 0 12.4927 0C2.28643 0 2.11466 0.00340327 1.65304 0.216428ZM4.57141 5.8979V7.01461H5.6658H6.76018V5.8979V4.7812H5.6658H4.57141V5.8979ZM9.15742 5.8979V7.01461H14.7857H20.414V5.8979V4.7812H14.7857H9.15742V5.8979ZM4.57141 10.5774V11.6941H5.6658H6.76018V10.5774V9.46072H5.6658H4.57141V10.5774ZM9.15742 10.5774V11.6941H14.7857H20.414V10.5774V9.46072H14.7857H9.15742V10.5774ZM4.57141 15.2569V16.3737H5.6658H6.76018V15.2569V14.1402H5.6658H4.57141V15.2569ZM9.15742 15.2569V16.3737H14.7857H20.414V15.2569V14.1402H14.7857H9.15742V15.2569Z" fill="#ACACAC"/>
</svg>
