<svg width="34" height="33" viewBox="0 0 34 33" fill="none" xmlns="http://www.w3.org/2000/svg">
<path d="M13.0667 13.5626C13.0667 13.0678 13.531 12.6666 14.1037 12.6666H14.8296C15.4024 12.6666 15.8667 13.0678 15.8667 13.5626V19.4761C15.8667 19.971 15.4024 20.3721 14.8296 20.3721H14.1037C13.531 20.3721 13.0667 19.971 13.0667 19.4761V13.5626Z" fill="#0d6efd"/>
<path d="M13.0667 22.4329C13.0667 21.9381 13.531 21.5369 14.1037 21.5369H14.8296C15.4024 21.5369 15.8667 21.9381 15.8667 22.4329V23.6873C15.8667 24.1821 15.4024 24.5833 14.8296 24.5833H14.1037C13.531 24.5833 13.0667 24.1821 13.0667 23.6873V22.4329Z" fill="#0d6efd"/>
<path fill-rule="evenodd" clip-rule="evenodd" d="M16.3277 11.5936H3.66728C2.76685 11.5936 2.67779 11.6782 2.67779 12.5468V25.0354C2.67779 25.8628 2.78416 25.9644 3.63512 25.9644H24.3188C25.1995 25.9644 25.3083 25.8676 25.3083 24.9967C25.3083 23.8531 25.3097 22.7096 25.3111 21.5661C25.3138 19.279 25.3165 16.9919 25.3083 14.7048C25.3083 14.1823 25.4592 14.0371 25.9737 14.0782C26.5249 14.1085 27.0774 14.1085 27.6286 14.0782C27.9181 14.0782 27.9972 14.175 27.9972 14.446C27.9972 16.2943 27.9979 18.1354 27.9986 19.9791C27.9991 21.2579 27.9996 22.5379 27.9998 23.8223L28 25.5422V27.1257C28 29.2654 26.2264 31 24.0386 31H22.2469C21.9564 31 21.7209 30.7697 21.7209 30.4856V28.5222C19.4939 28.5251 19.1336 28.5263 16.9066 28.5047L11.5856 28.5313H3.2987C1.45083 28.5265 0.0408163 27.2539 0.025974 25.437C-0.008658 20.9854 -0.008658 16.5338 0.025974 12.0823C0.04329 10.3137 1.46567 9.00005 3.27643 9.00005H24.727C25.3726 8.99662 26.0043 9.18332 26.5399 9.53585C27.0755 9.88838 27.4902 10.3904 27.7301 10.9766C27.9601 11.5476 27.9329 11.5887 27.3095 11.5887H16.3277V11.5936Z" fill="#0d6efd"/>
</svg>
