<svg width="29" height="24" viewBox="0 0 29 24" fill="none" xmlns="http://www.w3.org/2000/svg">
<path fill-rule="evenodd" clip-rule="evenodd" d="M16.8834 6.38163H3.79208C2.86101 6.38163 2.76892 6.46971 2.76892 7.37316V20.3636C2.76892 21.2243 2.87891 21.33 3.75883 21.33H25.1464C26.057 21.33 26.1696 21.2293 26.1696 20.3234C26.1696 19.1339 26.171 17.9444 26.1724 16.7549C26.1753 14.3759 26.1781 11.9969 26.1696 9.61793C26.1696 9.07435 26.3256 8.92336 26.8576 8.96614C27.4276 8.9976 27.9989 8.9976 28.5689 8.96614C28.8681 8.96614 28.95 9.0668 28.95 9.34865C28.95 9.65316 28.9686 19.527 29 19.8934C29 23.2307 27.4431 23.9724 24.6099 23.9724C21.7768 23.9724 11.9799 24 11.9799 24H3.41095C1.50021 23.995 0.0422053 22.6713 0.0268579 20.7814C-0.00895263 16.1509 -0.00895263 11.5204 0.0268579 6.88998C0.0447632 5.05038 1.51555 3.68389 3.38793 3.68389H25.5685C26.236 3.68032 26.8892 3.87453 27.4431 4.24123C27.9969 4.60792 28.4257 5.13014 28.6737 5.73991C28.9116 6.33382 28.8835 6.3766 28.2389 6.3766H16.8834V6.38163Z" fill="#ACACAC"/>
<path fill-rule="evenodd" clip-rule="evenodd" d="M11.1857 2.45586V4.50241H8.70001V2.04655C8.70001 0.916272 9.62742 0 10.7714 0H19.0572C20.2012 0 21.1286 0.916272 21.1286 2.04655V4.50241H18.6429V2.45586H11.1857Z" fill="#ACACAC"/>
<path fill-rule="evenodd" clip-rule="evenodd" d="M27.3429 13.098H2.48572V10.6421H27.3429V13.098Z" fill="#ACACAC"/>
<path fill-rule="evenodd" clip-rule="evenodd" d="M11.6 12.6886C11.6 11.3323 12.7129 11.0514 14.0857 11.0514H15.7429C17.1157 11.0514 18.2286 11.3323 18.2286 12.6886C18.2286 14.045 17.1157 15.1445 15.7429 15.1445H14.0857C12.7129 15.1445 11.6 14.045 11.6 12.6886Z" fill="#ACACAC"/>
</svg>
