<svg width="26" height="26" viewBox="0 0 26 26" fill="none" xmlns="http://www.w3.org/2000/svg">
<path fill-rule="evenodd" clip-rule="evenodd" d="M8.46147 0.104072C8.09835 0.162403 7.35075 0.422226 6.80025 0.681457C5.10722 1.47855 3.83193 2.99466 3.36354 4.76716C3.15407 5.56 3.1261 7.22897 3.30928 8.01258C3.51022 8.87203 4.10454 9.96989 4.73954 10.6547L5.33265 11.2943L4.39551 11.896C2.97461 12.8082 1.75033 14.1611 1.01834 15.628C0.0887544 17.4909 0.00184597 17.9423 0.000165427 20.9124C-0.00127504 23.4495 -0.000434557 23.4579 0.32319 24.0623C0.501568 24.3957 0.901057 24.8885 1.211 25.1574C2.10469 25.9327 2.49854 26 6.14256 26C7.88012 26 9.30066 25.9866 9.29922 25.9704C9.2979 25.9542 9.10992 25.4084 8.88161 24.7577L8.46639 23.5745L5.8325 23.5154C3.22621 23.4568 3.19512 23.4531 2.8787 23.1604L2.55904 22.8646L2.60957 20.6166C2.65351 18.6621 2.69528 18.2724 2.92984 17.6323C3.70049 15.5289 5.57946 13.7887 7.74532 13.1722C8.11072 13.0684 9.05735 12.9348 9.849 12.8755C11.4127 12.7585 12.1604 12.5419 13.142 11.9209C14.44 11.0999 15.4864 9.75231 15.9212 8.3415C16.252 7.2679 16.197 5.35413 15.8049 4.29354C15.2247 2.72419 14.0102 1.40153 12.4828 0.675304C11.1286 0.0316629 9.95283 -0.1354 8.46147 0.104072ZM11.2824 2.93681C12.0463 3.29282 12.8889 4.12127 13.2592 4.88051C13.6841 5.75179 13.6809 7.11906 13.2517 8.01589C12.9028 8.74496 12.1117 9.583 11.4686 9.90482C9.95992 10.6599 8.1112 10.369 6.91225 9.1877C4.83329 7.13941 5.62267 3.82169 8.4371 2.77814C9.21339 2.49028 10.4756 2.56068 11.2824 2.93681Z" fill="#0d6efd"/>
<path fill-rule="evenodd" clip-rule="evenodd" d="M12.5517 17.731V19.3241H19.2758H26V17.731V16.1379H19.2758H12.5517V17.731ZM12.5517 24.4069V26H19.2758H26V24.4069V22.8138H19.2758H12.5517V24.4069Z" fill="#0d6efd"/>
</svg>
