<svg width="30" height="21" viewBox="0 0 30 21" fill="none" xmlns="http://www.w3.org/2000/svg">
<path fill-rule="evenodd" clip-rule="evenodd" d="M17.4656 2.7886H3.92284C2.95966 2.7886 2.8644 2.87964 2.8644 3.81349V17.2412C2.8644 18.1308 2.97818 18.2401 3.88844 18.2401H26.0135C26.9555 18.2401 27.072 18.136 27.072 17.1996C27.072 15.97 27.0734 14.7405 27.0749 13.511C27.0778 11.0519 27.0808 8.59287 27.072 6.13381C27.072 5.57194 27.2334 5.41587 27.7838 5.46009C28.3734 5.49261 28.9644 5.49261 29.554 5.46009C29.8636 5.46009 29.9483 5.56414 29.9483 5.85548C29.9483 6.17023 29.9675 16.3764 30 16.7552C30 20.2047 28.3894 20.9714 25.4586 20.9714C22.5277 20.9714 12.393 21 12.393 21H3.52857C1.55194 20.9948 0.0436606 19.6265 0.027784 17.673C-0.00926135 12.8867 -0.00926135 8.10036 0.027784 3.31405C0.0463067 1.41253 1.56781 4.97432e-05 3.50476 4.97432e-05H26.4501C27.1407 -0.00363169 27.8164 0.197108 28.3894 0.576148C28.9623 0.955189 29.4059 1.49498 29.6625 2.12528C29.9086 2.73917 29.8795 2.78339 29.2127 2.78339H17.4656V2.7886Z" fill="#0d6efd"/>
<path fill-rule="evenodd" clip-rule="evenodd" d="M14.464 13.9247L1.13922 7.34755L2.2892 5.07703L15.4192 11.558L27.0024 5.65614C27.624 5.33941 28.3848 5.58218 28.708 6.20044V6.20044C29.0361 6.82795 28.7889 7.60258 28.158 7.92405L16.4051 13.9124C15.7972 14.2222 15.0759 14.2267 14.464 13.9247Z" fill="#0d6efd"/>
</svg>
