<svg width="30" height="21" viewBox="0 0 30 21" fill="none" xmlns="http://www.w3.org/2000/svg">
<path fill-rule="evenodd" clip-rule="evenodd" d="M17.4656 2.7886H3.92284C2.95966 2.7886 2.8644 2.87964 2.8644 3.81349V17.2412C2.8644 18.1308 2.97818 18.2401 3.88844 18.2401H26.0135C26.9555 18.2401 27.072 18.136 27.072 17.1996C27.072 15.97 27.0734 14.7405 27.0749 13.511C27.0778 11.0519 27.0808 8.59287 27.072 6.13381C27.072 5.57194 27.2334 5.41587 27.7838 5.46009C28.3734 5.49261 28.9644 5.49261 29.554 5.46009C29.8636 5.46009 29.9483 5.56414 29.9483 5.85548C29.9483 6.17023 29.9675 16.3764 30 16.7552C30 20.2047 28.3894 20.9714 25.4586 20.9714C22.5277 20.9714 12.393 21 12.393 21H3.52857C1.55194 20.9948 0.0436606 19.6265 0.027784 17.673C-0.00926135 12.8867 -0.00926135 8.10036 0.027784 3.31405C0.0463067 1.41253 1.56781 4.97432e-05 3.50476 4.97432e-05H26.4501C27.1407 -0.00363169 27.8164 0.197108 28.3894 0.576148C28.9623 0.955189 29.4059 1.49498 29.6625 2.12528C29.9086 2.73917 29.8795 2.78339 29.2127 2.78339H17.4656V2.7886Z" fill="#00A6CA"/>
<path fill-rule="evenodd" clip-rule="evenodd" d="M8.47578 5.23627C6.62134 5.67506 4.92905 7.32263 4.43712 9.16854C4.24274 9.89804 4.23396 11.3127 4.41977 11.9907C4.62478 12.7388 5.12891 13.6487 5.65596 14.2217C6.59922 15.2687 8.47578 16.0773 9.79532 16.0773C12.2939 16.0714 14.6596 14.3176 15.29 12.004C15.4835 11.2934 15.4725 9.78459 15.2687 9.10697C14.9832 8.15782 14.4286 7.25419 13.7281 6.59676C12.3461 5.29976 10.3707 4.78809 8.47578 5.23627ZM11.2231 7.57316C11.9169 7.87145 12.6641 8.59974 12.9703 9.27615C13.2994 10.0032 13.3277 10.6914 13.0635 11.5417C12.5081 13.3284 10.4785 14.3094 8.68999 13.6554C6.89948 13.0007 5.98512 10.9488 6.74032 9.28028C7.01836 8.66595 7.72522 7.93837 8.33955 7.63403C9.32765 7.14467 10.1843 7.1266 11.2231 7.57316Z" fill="#00A6CA"/>
<path d="M24.7176 5.92322C25.268 5.92322 25.7143 6.34416 25.7143 6.86341L25.7143 7.52154C25.7143 8.0408 25.268 8.46173 24.7176 8.46173L18.1395 8.46173C17.5891 8.46173 17.1428 8.0408 17.1428 7.52154L17.1428 6.86341C17.1428 6.34416 17.5891 5.92322 18.1395 5.92322L24.7176 5.92322Z" fill="#00A6CA"/>
<path d="M21.3558 11.0002C21.8694 11.0002 22.2857 11.4212 22.2857 11.9404L22.2857 12.5986C22.2857 13.1178 21.8694 13.5388 21.3558 13.5388L18.0727 13.5388C17.5592 13.5388 17.1428 13.1178 17.1428 12.5986L17.1428 11.9404C17.1428 11.4212 17.5592 11.0002 18.0727 11.0002L21.3558 11.0002Z" fill="#00A6CA"/>
</svg>
