<svg width="30" height="26" viewBox="0 0 30 26" fill="none" xmlns="http://www.w3.org/2000/svg">
<path fill-rule="evenodd" clip-rule="evenodd" d="M11.5747 0.106308C10.4123 0.301392 9.59868 0.984024 9.31518 2.00211C9.25019 2.23551 9.16639 2.84834 9.12901 3.3639L9.06112 4.30132L6.2563 4.35712C4.3441 4.39512 3.2636 4.46199 2.86075 4.5673C1.27395 4.98222 0.534745 5.76331 0.160899 7.42028C-0.0536329 8.37095 -0.0536329 21.9938 0.160899 22.9445C0.544628 24.6455 1.33862 25.4479 3.02189 25.8357C3.97262 26.0548 26.0274 26.0548 26.9781 25.8357C28.6614 25.4479 29.4554 24.6455 29.8391 22.9445C30.0536 21.9938 30.0536 8.37095 29.8391 7.42028C29.4651 5.76277 28.723 4.97896 27.1392 4.56882C26.7414 4.46579 25.6272 4.39675 23.7284 4.35734L20.9085 4.29893L20.9076 3.79695C20.9062 2.90946 20.6899 1.898 20.3841 1.34911C20.014 0.68483 19.3152 0.259488 18.3302 0.0991434C17.4947 -0.0368835 12.3955 -0.0314556 11.5747 0.106308ZM18.4894 2.37784C18.5985 2.48814 18.6794 2.85323 18.7238 3.43631L18.7917 4.32629H15H11.2083L11.2755 3.44467C11.3125 2.95973 11.3957 2.49845 11.4606 2.41963C11.6394 2.20186 12.0121 2.18004 15.2918 2.19524C17.8751 2.20729 18.3474 2.23421 18.4894 2.37784ZM26.866 6.72581C27.419 6.94728 27.6663 7.29728 27.7415 7.9646L27.8024 8.50589L22.4057 10.6004L17.0089 12.6949L16.7296 12.4257C16.3229 12.0337 15.949 11.9256 15 11.9256C14.0523 11.9256 13.6771 12.0337 13.2725 12.4237L12.9952 12.6909L7.59656 10.5984L2.19782 8.50589L2.25529 7.99337C2.36337 7.02935 2.68071 6.74405 3.79451 6.60954C4.19671 6.56102 9.45677 6.52899 15.4834 6.53844C25.1537 6.55364 26.4909 6.57567 26.866 6.72581ZM7.53383 12.8939C12.7842 14.9404 12.7983 14.9468 13.0126 15.3534C13.4041 16.096 13.676 16.2137 15.0004 16.2137C16.3241 16.2137 16.595 16.0967 16.9874 15.3549C17.2014 14.9504 17.2238 14.9403 22.4662 12.8966C25.3613 11.7679 27.7663 10.8434 27.8107 10.8422C27.9302 10.8389 27.9068 20.9478 27.7848 22.0205C27.7172 22.6145 27.6088 23.0385 27.4799 23.213C27.0354 23.8146 27.2435 23.8035 15.6577 23.8413C4.61117 23.8774 3.26769 23.8374 2.76482 23.4581C2.19202 23.0259 2.17816 22.8756 2.13347 16.6208C2.11081 13.4413 2.13229 10.8404 2.18106 10.841C2.22994 10.8416 4.63867 11.7654 7.53383 12.8939Z" fill="#00A6CA"/>
</svg>
