<svg width="60" height="60" viewBox="0 0 60 60" fill="none" xmlns="http://www.w3.org/2000/svg">
<circle cx="30" cy="30" r="30" fill="white"/>
<path fill-rule="evenodd" clip-rule="evenodd" d="M15.1869 15.8781C14.3531 16.1343 13.4571 16.9311 13.0696 17.7606L12.75 18.4449L12.7516 26.7012C12.7533 34.7126 12.7614 34.9755 13.0295 35.5666C13.3654 36.3073 14.0009 36.9907 14.6765 37.338C15.6776 37.8525 15.5984 38.6198 15.5984 28.4232C15.5984 20.3394 15.6235 19.2138 15.8097 18.9488L16.021 18.6479H31.6355H47.25L47.1555 18.3434C46.7921 17.1714 45.8383 16.1967 44.7352 15.8701C43.755 15.58 16.1329 15.5874 15.1869 15.8781ZM44.3806 27.9254V34.2254L44.0473 34.5575L43.7141 34.8898H31.2175H18.721V36.311V37.7321H23.613H28.505L28.4666 39.2548L28.4282 40.7775L25.2038 40.8138L21.9793 40.85V42.2688V43.6875H29.9895H37.9996V42.2688V40.85L34.7752 40.8138L31.5508 40.7775L31.5124 39.2548L31.4739 37.7321L37.9612 37.7308L44.4485 37.7294L45.1273 37.4091C45.9486 37.0213 46.5786 36.3842 46.9494 35.5666C47.2151 34.9808 47.2258 34.7021 47.2287 28.2915L47.2317 21.6256H45.8061H44.3806V27.9254Z" fill="#00A6CA"/>
<path fill-rule="evenodd" clip-rule="evenodd" d="M37.7623 22.2872L27.0335 32.9062L22.2373 28.1591C23.2936 27.1137 24.9947 27.1137 26.051 28.1591L27.0335 29.1315L35.8555 20.3999L37.7623 22.2872Z" fill="#00A6CA"/>
</svg>
