<svg width="48" height="48" viewBox="0 0 48 48" fill="none" xmlns="http://www.w3.org/2000/svg">
<path d="M24 48C37.2548 48 48 37.2548 48 24C48 10.7452 37.2548 0 24 0C10.7452 0 0 10.7452 0 24C0 37.2548 10.7452 48 24 48Z" fill="#4E71A8"/>
<path d="M29.9001 19.5H25.9001V16.9C25.8794 16.7461 25.8928 16.5895 25.9393 16.4414C25.9858 16.2932 26.0643 16.1571 26.1693 16.0426C26.2742 15.9281 26.403 15.8381 26.5466 15.7789C26.6902 15.7197 26.845 15.6928 27.0001 15.7H29.8001V11.3H25.9001C21.5001 11.3 20.6001 14.6 20.6001 16.6V19.5H18.1001V24H20.6001V36.7H25.9001V24H29.5001L29.9001 19.5Z" fill="white"/>
</svg>
