<svg width="218" height="83" viewBox="0 0 218 83" fill="none" xmlns="http://www.w3.org/2000/svg">
<g clip-path="url(#clip0_4934_2583)">
<path d="M9.33995 76.2785V78.3243H2.33594V76.2785H4.67061V65.1729H2.33594V63.4194H9.04812V65.4652H7.00528V76.5708L9.33995 76.2785Z" fill="#77787B"/>
<path d="M18.6775 78.3245V72.1871C18.6775 70.7259 17.802 69.8491 16.6347 69.5568H16.3429C14.8837 69.5568 13.7164 70.7259 13.7164 72.1871V72.4794V78.3245H11.3817V71.0181C11.3817 69.8491 11.3817 69.5568 10.2144 69.5568V68.0956C11.6735 67.8033 13.4245 67.8033 13.4245 69.8491C14.0082 68.6801 15.4674 67.8033 16.9265 68.0956C18.9694 68.0956 21.0122 69.5569 21.0122 71.8949C21.0122 72.1871 21.0122 72.4794 21.0122 72.4794V78.6167L18.6775 78.3245Z" fill="#77787B"/>
<path d="M24.5126 69.557H22.4697V67.8035H24.5126V66.3422C24.5126 62.2507 27.7227 61.6662 30.9329 62.8352L30.6411 64.5887C28.8901 63.7119 26.8472 64.0042 26.8472 66.6345V68.0957H30.3492V69.8493H26.8472V78.3246H24.5126V69.557Z" fill="#77787B"/>
<path d="M36.1874 78.3246C33.2691 78.3246 30.9344 76.2788 30.6426 73.3563C30.6426 73.064 30.6426 73.064 30.6426 72.7717C30.6426 69.8492 32.6854 67.5112 35.6038 67.5112C35.8956 67.5112 35.8956 67.5112 36.1874 67.5112C39.1058 67.2189 41.4404 69.2647 41.7323 72.1872C41.7323 72.4795 41.7323 72.4795 41.7323 72.7717C41.7323 75.6943 39.6894 78.0323 36.7711 78.3246C36.4793 78.3246 36.4793 78.3246 36.1874 78.3246ZM36.1874 76.2788C37.9384 76.2788 39.3976 74.8175 39.3976 73.064C39.3976 73.064 39.3976 73.064 39.3976 72.7717C39.3976 71.0182 38.2303 69.557 36.4793 69.557H36.1874C34.4364 69.557 33.2691 70.726 33.2691 72.4795V72.7717C32.9772 74.8175 34.4364 76.2788 36.1874 76.2788Z" fill="#77787B"/>
<path d="M49.3183 67.5111C50.1938 67.5111 51.0693 67.8033 51.653 68.0956L51.0693 70.1414C50.4856 69.8491 49.6101 69.5569 49.0265 69.5569C47.5673 69.5569 46.4 70.4336 46.4 71.6026V71.8949V77.74H44.0653V70.4336C44.0653 69.5569 44.0653 68.9724 42.8979 68.9724V67.5111C44.3571 67.2188 46.1081 67.5111 46.1081 68.9724C46.6918 68.0956 47.8591 67.5111 49.3183 67.5111Z" fill="#77787B"/>
<path d="M66.8313 78.3245V72.1871C66.8313 70.7259 66.2476 69.5568 64.7885 69.5568C63.3293 69.5568 62.4538 70.7259 62.4538 71.8949V72.1871V78.0322H60.1191V72.1871C60.1191 70.7259 59.5354 69.5568 58.0763 69.5568C56.6171 69.5568 55.4498 70.7259 55.4498 72.1871C55.4498 72.1871 55.4498 72.1871 55.4498 72.4794V78.3245H53.1151V71.0181C53.1151 69.8491 53.1151 69.5568 51.9478 69.5568V68.0956C53.4069 67.8033 55.1579 67.8033 55.1579 69.8491C55.7416 68.6801 57.2008 67.8033 58.6599 68.0956C60.4109 68.0956 61.2864 68.6801 61.8701 70.1414C62.7456 68.6801 64.2048 68.0956 65.664 68.0956C68.5823 68.0956 69.166 70.1414 69.166 72.4794V78.6167H66.8313V78.3245Z" fill="#77787B"/>
<path d="M74.7108 78.3239C72.3762 78.3239 70.917 76.8627 70.917 75.1092C70.917 73.3556 72.3762 71.6021 75.0027 71.6021C76.17 71.6021 77.0455 71.8944 77.921 72.1866V71.0176C77.921 68.3873 73.2517 69.2641 72.0843 69.8486L71.7925 68.0951C72.9598 67.5106 74.419 67.2183 75.5863 67.2183C78.2128 67.2183 80.2557 68.0951 80.2557 71.0176V75.1092C80.2557 75.9859 80.2557 76.5704 81.423 76.5704V78.0317C79.672 78.3239 78.5047 78.3239 78.5047 76.2782C77.6292 77.7394 76.17 78.6162 74.7108 78.3239ZM75.2945 73.3556C74.419 73.3556 73.2517 73.9401 73.2517 74.8169C73.2517 74.8169 73.2517 74.8169 73.2517 75.1092C73.2517 75.9859 73.8353 76.5704 75.2945 76.5704C76.7537 76.5704 78.2128 75.6937 78.2128 73.9401C77.3373 73.6479 76.17 73.3556 75.2945 73.3556Z" fill="#77787B"/>
<path d="M86.3827 67.8032H89.8847V69.5567H86.3827V74.2328C86.3827 75.9863 86.9664 76.5708 88.1337 76.5708C88.7174 76.5708 89.3011 76.5708 90.1766 76.2785L90.4684 78.0321C89.5929 78.3243 88.7174 78.6166 87.8419 78.6166C85.5072 78.6166 84.048 77.4475 84.048 74.2328V69.5567H81.7134V68.0954H83.7562L84.048 64.8807H86.0909L86.3827 67.8032Z" fill="#77787B"/>
<path d="M93.096 63.126C93.6797 63.126 94.5552 63.7105 94.5552 64.295C94.5552 65.1718 93.9715 65.7563 93.096 65.7563C92.2205 65.7563 91.6369 65.1718 91.6369 64.295C91.345 64.0028 91.9287 63.126 93.096 63.126C92.8042 63.126 92.8042 63.126 93.096 63.126ZM93.9715 78.3232H91.6369V68.0943H93.9715V78.3232Z" fill="#77787B"/>
<path d="M101.555 78.3232C98.6368 78.3232 96.3021 76.2774 96.0103 73.3549V73.0626C96.0103 70.1401 98.3449 67.5098 101.555 67.5098C104.473 67.5098 107.1 69.8478 107.1 73.0626C107.1 75.9852 105.057 78.3232 102.139 78.6154C101.847 78.3232 101.555 78.3232 101.555 78.3232ZM101.555 76.2774C103.306 76.2774 104.765 74.8161 104.765 73.0626C104.765 73.0626 104.765 73.0626 104.765 72.7704C104.765 71.0169 103.014 69.8478 101.555 69.8478C99.8041 69.8478 98.6368 71.6014 98.6368 73.0626C98.3449 75.1084 99.8041 76.2774 101.555 76.2774Z" fill="#77787B"/>
<path d="M116.737 78.3245V72.1871C116.737 71.0181 115.861 69.8491 114.694 69.5568H114.402C112.943 69.5568 111.775 70.7259 111.775 72.1871V72.4794V78.3245H109.441V71.0181C109.441 69.8491 109.441 69.5568 108.273 69.5568V68.0956C109.733 67.8033 111.484 67.8033 111.484 69.8491C112.359 68.6801 113.818 67.8033 115.277 68.0956C117.32 68.0956 119.363 69.8491 119.363 71.8949C119.363 72.1871 119.363 72.1871 119.363 72.4794V78.6167L116.737 78.3245Z" fill="#77787B"/>
<path d="M127.237 69.557H125.194V67.8035H127.237V66.3422C127.237 62.2507 130.447 61.6662 133.657 62.8352L133.365 64.5887C131.614 63.7119 129.571 64.0042 129.571 66.6345V68.0957H133.073V69.8493H129.571V78.3246H127.237V69.557Z" fill="#77787B"/>
<path d="M138.912 78.3239C135.993 78.3239 133.659 76.2782 133.367 73.3556C133.367 73.0634 133.367 73.0634 133.367 72.7711C133.367 69.8486 135.701 67.2183 138.912 67.2183C141.83 67.2183 144.456 69.5563 144.456 72.7711C144.456 75.6937 142.414 78.0317 139.495 78.3239C139.203 78.3239 139.203 78.3239 138.912 78.3239ZM138.912 76.2782C140.663 76.2782 142.122 74.8169 142.122 73.0634C142.122 73.0634 142.122 73.0634 142.122 72.7711C142.414 71.0176 140.954 69.5563 139.203 69.2641C137.452 68.9718 135.993 70.4331 135.701 72.1866C135.701 72.4789 135.701 72.4789 135.701 72.7711C135.701 74.5246 136.869 75.9859 138.62 75.9859C138.62 76.2782 138.912 76.2782 138.912 76.2782Z" fill="#77787B"/>
<path d="M152.042 67.5111C152.918 67.5111 153.793 67.8033 154.377 68.0956L153.793 70.1414C153.21 69.8491 152.334 69.5569 151.751 69.5569C150.583 69.5569 149.416 70.4336 149.124 71.6026V71.8949V77.74H146.789V70.4336C146.789 69.5569 146.789 68.9724 145.622 68.9724V67.5111C147.081 67.2188 148.832 67.5111 148.832 68.9724C149.416 68.0956 150.583 67.5111 152.042 67.5111Z" fill="#77787B"/>
<path d="M166.932 62.834C170.142 62.5418 172.769 64.5875 173.644 67.5101H171.309C170.434 65.7565 168.683 64.8798 166.932 65.172C164.014 65.4643 161.679 68.0946 161.971 71.0171C162.263 73.6474 164.305 75.9854 166.932 75.9854C169.267 76.2777 171.309 74.8164 171.893 72.1861V71.8939H167.224V70.1403H174.228C174.228 71.6016 174.228 73.0629 173.644 74.2319C172.477 76.8622 169.85 78.6157 166.932 78.6157C162.554 78.3234 159.344 74.8164 159.636 70.4326C159.928 66.3411 163.138 63.1263 166.932 62.834Z" fill="#77787B"/>
<path d="M180.94 78.3237C178.022 78.3237 175.687 76.2779 175.395 73.3554C175.395 73.0631 175.395 73.0631 175.395 72.7709C175.687 69.8483 178.313 67.5103 181.232 67.8025C183.858 68.0948 186.193 70.1406 186.193 72.7709C186.193 75.6934 184.15 78.0314 181.232 78.3237C181.232 78.3237 181.232 78.3237 180.94 78.3237ZM180.94 76.2779C182.691 76.2779 184.15 74.8166 184.15 73.0631C184.15 73.0631 184.15 73.0631 184.15 72.7709C184.15 71.0173 182.983 69.5561 181.232 69.5561H180.94C179.189 69.5561 178.022 70.7251 178.022 72.4786V72.7709C177.73 74.8166 179.189 76.2779 180.94 76.2779Z" fill="#77787B"/>
<path d="M193.196 78.3237C190.277 78.3237 187.943 76.2779 187.651 73.3554C187.651 73.0631 187.651 73.0631 187.651 72.7709C187.943 69.8483 190.569 67.5103 193.488 67.8025C196.114 68.0948 198.449 70.1406 198.449 72.7709C198.449 75.6934 196.406 78.0314 193.488 78.3237C193.488 78.3237 193.488 78.3237 193.196 78.3237ZM193.196 76.2779C194.947 76.2779 196.114 74.8166 196.114 73.0631C196.114 71.3096 194.655 69.8483 192.904 69.8483C191.153 69.8483 189.694 71.3096 189.694 73.0631C189.694 74.8166 190.861 76.2779 192.612 76.5702C192.904 76.2779 193.196 76.2779 193.196 76.2779Z" fill="#77787B"/>
<path d="M208.368 76.2778C207.784 77.7391 206.325 78.6158 204.866 78.3236C202.24 78.3236 199.905 75.9856 200.197 73.3553C200.197 73.063 200.197 73.063 200.197 72.7708C199.905 70.1405 201.948 67.8025 204.866 67.5102H205.158C206.325 67.5102 207.201 67.8025 208.076 68.387V62.2496H210.119V74.8165C210.119 75.9856 210.119 76.2778 211.286 76.2778V78.0313C209.535 78.3236 208.368 78.3236 208.368 76.2778ZM207.784 70.4327C206.909 69.8482 206.033 69.556 205.158 69.556C203.407 69.556 202.24 70.725 202.24 72.4785V72.7708C202.24 74.5243 203.115 75.9856 205.158 75.9856C206.617 75.9856 207.784 74.8165 207.784 73.3553C207.784 73.3553 207.784 73.3553 207.784 73.063V70.4327Z" fill="#77787B"/>
<path d="M212.453 77.7387C212.453 78.0309 212.745 78.0309 213.037 78.0309C213.329 78.0309 213.621 78.0309 213.621 77.7387C213.621 77.4464 213.037 77.4464 213.037 77.4464C213.037 77.4464 212.453 77.4464 212.453 76.8619C212.453 76.2774 212.745 76.2774 213.037 76.2774C213.329 76.2774 213.621 76.2774 213.621 76.8619H213.329C213.329 76.5697 213.037 76.5697 213.037 76.5697C213.037 76.5697 212.745 76.5697 212.745 76.8619C212.745 77.1542 213.037 77.1542 213.329 77.1542C213.621 77.1542 213.913 77.1542 213.913 77.7387C213.913 78.3232 213.621 78.3232 213.037 78.3232C212.745 78.3232 212.453 78.0309 212.162 77.7387H212.453Z" fill="#77787B"/>
<path d="M215.662 76.5708V78.3243H215.37V77.1553L214.787 77.7398L214.495 77.1553V78.3243H214.203V76.5708L215.079 77.4476L215.662 76.5708Z" fill="#77787B"/>
<path d="M112.548 -1C101.162 -1 90.488 5.17607 84.7952 15.1528C82.6604 18.0033 82.4232 21.8039 84.0836 25.1295C85.9812 28.2176 90.0136 28.6926 92.3856 28.6926H96.418L94.9948 33.4435C94.046 36.0564 94.2832 38.9069 95.9436 41.2823C97.3668 43.1826 99.976 44.3703 102.348 44.3703C104.246 44.3703 106.38 43.8953 108.041 43.1826C107.566 42.47 107.092 41.7574 106.855 40.8072C106.618 40.0946 106.38 39.1444 106.38 38.4318C105.194 38.9069 104.008 39.1444 102.585 39.1444C101.636 39.1444 100.925 38.6694 100.213 38.1943C99.7388 37.2441 99.5016 36.0564 99.976 35.1062L102.111 28.9302H108.515L110.176 23.7043H103.771L106.618 15.1528H101.162L98.3156 23.4667H92.6228C90.7252 23.4667 89.5392 22.9916 89.0648 22.0415C88.5904 21.0913 89.0648 18.7159 90.488 16.103C98.5528 3.75082 115.157 0.425246 127.491 8.73918C139.826 17.0531 143.146 33.681 134.844 46.0331C126.542 58.3853 109.938 61.7108 97.604 53.3969C91.674 49.3587 87.6416 43.1826 86.2184 36.0564L81 37.0066C84.3208 54.3471 101.162 65.749 118.478 62.4235C135.793 59.0979 147.179 42.2325 143.858 24.892C141.012 9.92689 127.966 -1 112.548 -1Z" fill="#FCD800"/>
<path d="M132.948 39.8566C131.525 39.8566 130.102 39.6191 128.916 38.9064C128.441 38.4314 127.967 37.9563 127.73 37.2437C127.73 36.7686 127.73 36.2935 127.967 35.8184L131.999 23.4663H126.544L123.223 34.1556C122.274 37.0061 119.665 38.9064 116.819 39.144C116.107 39.144 115.395 38.9064 114.921 38.1938C114.447 37.4812 114.447 36.531 114.684 35.8184L118.716 23.4663H113.261L109.94 34.1556C108.991 36.531 109.465 39.3815 110.651 41.5194C112.075 43.4197 114.447 44.6074 116.819 44.3699C119.665 44.3699 122.274 43.1822 124.409 41.5194C125.121 42.7071 126.069 43.4197 127.255 43.8948C128.679 44.3699 130.102 44.6074 131.525 44.3699C131.999 44.3699 132.474 44.3699 133.185 44.1323L133.423 43.6573L133.897 42.7071C134.134 42.4696 134.371 41.9945 134.371 41.7569L134.846 40.5692L135.083 39.8566C134.609 39.6191 133.897 39.8566 132.948 39.8566Z" fill="#FCD800"/>
</g>
<defs>
<clipPath id="clip0_4934_2583">
<rect width="218" height="83" fill="white"/>
</clipPath>
</defs>
</svg>
