<svg width="48" height="48" viewBox="0 0 48 48" fill="none" xmlns="http://www.w3.org/2000/svg">
<path d="M24 48C37.2548 48 48 37.2548 48 24C48 10.7452 37.2548 0 24 0C10.7452 0 0 10.7452 0 24C0 37.2548 10.7452 48 24 48Z" fill="#1686B0"/>
<path d="M17.4001 34.9H12.8001V20.1H17.4001V34.9ZM14.9001 18.2C13.2001 18.2 12.1001 17.1 12.1001 15.6C12.1001 14.1 13.2001 13 14.9001 13C16.6001 13 17.7001 14.1 17.7001 15.6C17.7001 17.1 16.7001 18.2 14.9001 18.2ZM35.9001 34.9H30.6001V27.2C30.6001 25.2 29.8001 23.8 28.0001 23.8C26.6001 23.8 25.9001 24.7 25.5001 25.6C25.4001 25.9 25.4001 26.4 25.4001 26.8V34.8H20.2001C20.2001 34.8 20.3001 21.2 20.2001 20H25.4001V22.3C25.7001 21.3 27.4001 19.8 30.0001 19.8C33.3001 19.8 35.9001 21.9 35.9001 26.5V34.9Z" fill="white"/>
</svg>
