<svg width="16" height="21" viewBox="0 0 16 21" fill="none" xmlns="http://www.w3.org/2000/svg">
<path fill-rule="evenodd" clip-rule="evenodd" d="M6.68491 0.150938C4.91024 0.56684 3.29076 2.12846 2.81999 3.87808C2.63397 4.56953 2.62557 5.91042 2.80338 6.55298C2.99958 7.26213 3.48201 8.12455 3.98639 8.6676L4.43265 9.14808L3.89121 9.46161C1.50651 10.8423 0.00602925 13.4016 0.00128496 16.0966L0 16.8381H1.08723H2.17447V16.0626C2.17447 14.5342 2.74951 13.2161 3.90258 12.1017C4.29507 11.7223 4.86132 11.2957 5.20745 11.1186C5.9703 10.7284 7.15825 10.4283 7.94768 10.4264C10.3388 10.4209 12.6027 8.75849 13.2059 6.56561C13.3912 5.89205 13.3806 4.46199 13.1856 3.81972C12.9124 2.92008 12.3816 2.06359 11.7113 1.44045C10.3887 0.211118 8.49831 -0.273862 6.68491 0.150938ZM9.31403 2.36592C9.97804 2.64865 10.693 3.33895 10.9861 3.98007C11.301 4.66922 11.3281 5.32154 11.0753 6.12741C10.5438 7.82097 8.6015 8.75074 6.8899 8.13086C5.17642 7.51031 4.30139 5.56551 5.02411 3.98399C5.29018 3.40171 5.96664 2.71208 6.55454 2.42362C7.50013 1.95978 8.31991 1.94266 9.31403 2.36592ZM13.0473 10.6666C12.8722 10.8469 11.8337 11.5821 11.691 11.6267C11.6793 11.6304 11.9264 11.8946 12.2402 12.2138C12.5541 12.5331 12.9713 13.0906 13.1675 13.4528C13.7243 14.481 13.8375 15.0573 13.8375 16.8653C13.8375 18.2764 13.8176 18.4673 13.6486 18.6692L13.4597 18.8951L6.77663 18.943L0.093502 18.9908L0.349892 19.4888C0.645817 20.0635 1.1327 20.5113 1.77407 20.7985C2.21519 20.9961 2.33548 21 8.00599 21H13.7881L14.3497 20.7331C14.9588 20.4436 15.3904 20.0278 15.7391 19.3948C15.9416 19.0273 15.9647 18.8361 15.9951 17.2743C16.0452 14.7022 15.7191 13.3403 14.6959 11.8481C14.2208 11.1553 13.5579 10.4278 13.4015 10.4278C13.3341 10.4278 13.1747 10.5353 13.0473 10.6666Z" fill="#00A6CA"/>
</svg>
