<svg width="48" height="48" viewBox="0 0 48 48" fill="none" xmlns="http://www.w3.org/2000/svg">
<g clip-path="url(#clip0_4934_2612)">
<path d="M48 24C48 28.7467 46.5924 33.3869 43.9553 37.3337C41.3181 41.2805 37.5698 44.3566 33.1844 46.1731C28.799 47.9896 23.9734 48.4649 19.3178 47.5388C14.6623 46.6128 10.3859 44.327 7.02945 40.9706C3.67299 37.6141 1.38721 33.3377 0.461164 28.6822C-0.464881 24.0266 0.0103988 19.201 1.8269 14.8156C3.64341 10.4302 6.71955 6.68187 10.6663 4.04471C14.6131 1.40756 19.2533 -1.4178e-05 24 -1.4178e-05C27.152 -0.000960201 30.2733 0.619173 33.1855 1.82495C36.0978 3.03073 38.7439 4.79852 40.9727 7.02731C43.2015 9.25611 44.9693 11.9022 46.175 14.8145C47.3808 17.7267 48.001 20.848 48 24ZM19.608 36.66C30.252 36.66 36.072 27.84 36.072 20.196C36.072 19.944 36.072 19.692 36.06 19.452C37.1936 18.6306 38.1727 17.6149 38.952 16.452C37.8949 16.9178 36.7748 17.2251 35.628 17.364C36.8381 16.6417 37.7428 15.5023 38.172 14.16C37.0358 14.8314 35.7943 15.3061 34.5 15.564C33.7055 14.7191 32.6756 14.1323 31.5437 13.8796C30.4118 13.6268 29.2301 13.7198 28.1517 14.1466C27.0733 14.5733 26.1479 15.314 25.4954 16.2728C24.8428 17.2316 24.4933 18.3642 24.492 19.524C24.4884 19.9688 24.5409 20.4123 24.648 20.844C22.3467 20.7295 20.0952 20.1318 18.0401 19.0898C15.9851 18.0478 14.1724 16.5848 12.72 14.796C11.9817 16.0697 11.7569 17.5769 12.0914 19.0106C12.4258 20.4443 13.2944 21.6965 14.52 22.512C13.6027 22.4867 12.7051 22.2396 11.904 21.792V21.864C11.9043 23.2006 12.3669 24.496 13.2133 25.5305C14.0598 26.565 15.2379 27.275 16.548 27.54C16.0514 27.6757 15.5388 27.7443 15.024 27.744C14.6573 27.7443 14.2915 27.7082 13.932 27.636C14.2992 28.7863 15.0175 29.7926 15.9861 30.5137C16.9546 31.2347 18.1247 31.6342 19.332 31.656C17.2805 33.2617 14.7492 34.1322 12.144 34.128C11.6827 34.1303 11.2217 34.1022 10.764 34.044C13.3944 35.7586 16.4682 36.6678 19.608 36.66Z" fill="#1DA1F2"/>
</g>
<defs>
<clipPath id="clip0_4934_2612">
<rect width="48" height="48" fill="white"/>
</clipPath>
</defs>
</svg>
