<svg width="51" height="62" viewBox="0 0 51 62" fill="none" xmlns="http://www.w3.org/2000/svg">
<circle cx="18.5" cy="18.5" r="18.5" fill="#EDEDED"/>
<rect x="9" y="9" width="42" height="30" rx="4" fill="white"/>
<path d="M8.38007 10.4168C8.8863 9.42345 9.90903 8.56294 10.9746 8.23364C11.7522 7.99343 12.2676 7.98419 23.4139 8.00972L24.0636 8.01121C35.0926 8.03645 38.0573 8.04324 38.6669 8.31479C39.5031 8.68734 40.3479 9.44259 40.8254 10.2447C41.3038 11.0482 41.3303 11.4293 40.9152 11.5365C40.7478 11.5797 31.8808 11.6159 24.877 11.6168C13.4828 11.6185 12.1209 11.6401 11.9307 11.8233C11.7404 12.0067 11.7183 13.4028 11.7183 25.2402V38.4525V41.5788V45.7223C11.7183 49.0951 11.754 49.9128 11.9101 50.1186C12.0974 50.3653 12.3696 50.3714 23.1278 50.3714C33.5291 50.3714 37.1672 50.3583 37.3949 50.139C37.6149 49.9272 37.6399 49.5363 37.6756 45.7427L37.7148 41.5788L37.704 38.4525V28.2315C37.704 18.2597 37.7103 18.0073 37.9655 17.8757C38.3397 17.6828 41.1234 17.7005 41.3276 17.8972C41.5482 18.1098 41.563 49.2225 41.3429 50.38C41.0582 51.8778 40.2389 52.8958 38.7919 53.5497L38.042 53.8885L23.4841 53.9246C12.2164 53.9597 11.9036 53.9541 11.0265 53.6974C9.88996 53.3648 8.91524 52.5579 8.37859 51.5051L8 50.7622V30.9625V11.1627L8.38007 10.4168Z" fill="#00A6CA"/>
<path d="M38.5 61.7187C36.2246 61.7187 34.0003 61.0437 32.1086 59.7791C30.217 58.5145 28.743 56.7171 27.8733 54.6145C27.0035 52.5119 26.7771 50.1985 27.2226 47.9671C27.6681 45.7357 28.7656 43.6866 30.3761 42.0792C31.9866 40.4718 34.0378 39.3783 36.27 38.937C38.5022 38.4958 40.8152 38.7267 42.9162 39.6005C45.0171 40.4743 46.8116 41.9517 48.0726 43.8458C49.3336 45.7398 50.0043 47.9654 50 50.2408C49.9941 53.287 48.7799 56.2064 46.6239 58.3583C44.4679 60.5102 41.5462 61.7188 38.5 61.7187Z" fill="#00A6CA"/>
<rect x="14" y="16.7188" width="12" height="3" rx="1" fill="#00A6CA"/>
<rect x="14" y="23.7188" width="12" height="3" rx="1" fill="#00A6CA"/>
<rect x="14" y="30.7188" width="12" height="3" rx="1" fill="#00A6CA"/>
<path d="M29 18.1188L29.7935 18.9351C30.2028 19.3562 30.8851 19.3357 31.2683 18.8907L34 15.7188" stroke="#00A6CA" stroke-width="2.4" stroke-linecap="round"/>
<path d="M29 25.1188L29.7935 25.9351C30.2028 26.3562 30.8851 26.3357 31.2683 25.8907L34 22.7188" stroke="#00A6CA" stroke-width="2.4" stroke-linecap="round"/>
<path d="M29 32.1188L29.7935 32.9351C30.2028 33.3562 30.8851 33.3357 31.2683 32.8907L34 29.7188" stroke="#00A6CA" stroke-width="2.4" stroke-linecap="round"/>
<path d="M39.6485 50.6127C39.6269 51.1489 39.186 51.5725 38.6493 51.5725H38.3414C37.8047 51.5725 37.3638 51.1489 37.3422 50.6127L37.1068 44.7589C37.084 44.1913 37.538 43.7188 38.106 43.7188H38.8847C39.4527 43.7188 39.9067 44.1913 39.8839 44.7589L39.6485 50.6127ZM38.4954 53.9215C38.9474 53.9215 39.3096 54.053 39.582 54.3159C39.8607 54.5788 40 54.9151 40 55.3247C40 55.7283 39.8607 56.0615 39.582 56.3244C39.3096 56.5873 38.9474 56.7188 38.4954 56.7188C38.0495 56.7188 37.6873 56.5873 37.4087 56.3244C37.1362 56.0615 37 55.7283 37 55.3247C37 54.9212 37.1362 54.588 37.4087 54.3251C37.6873 54.056 38.0495 53.9215 38.4954 53.9215Z" fill="white" stroke="white"/>
</svg>
