<svg width="51" height="62" viewBox="0 0 51 62" fill="none" xmlns="http://www.w3.org/2000/svg">
<circle cx="18.5" cy="18.5" r="18.5" fill="#EDEDED"/>
<rect x="10" y="11" width="38" height="28" fill="white"/>
<path d="M8.38007 10.4168C8.8863 9.42345 9.90903 8.56294 10.9746 8.23364C11.7522 7.99343 12.2676 7.98419 23.4139 8.00972L24.0636 8.01121C35.0926 8.03645 38.0573 8.04324 38.6669 8.31479C39.5031 8.68734 40.3479 9.44259 40.8254 10.2447C41.3038 11.0482 41.3303 11.4293 40.9152 11.5365C40.7478 11.5797 31.8808 11.6159 24.877 11.6168C13.4828 11.6185 12.1209 11.6401 11.9307 11.8233C11.7404 12.0067 11.7183 13.4028 11.7183 25.2402V38.4525V41.5788V45.7223C11.7183 49.0951 11.754 49.9128 11.9101 50.1186C12.0974 50.3653 12.3696 50.3714 23.1278 50.3714C33.5291 50.3714 37.1672 50.3583 37.3949 50.139C37.6149 49.9272 37.6399 49.5363 37.6756 45.7427L37.7148 41.5788L37.704 38.4525V28.2315C37.704 18.2597 37.7103 18.0073 37.9655 17.8757C38.3397 17.6828 41.1234 17.7005 41.3276 17.8972C41.5482 18.1098 41.563 49.2225 41.3429 50.38C41.0582 51.8778 40.2389 52.8958 38.7919 53.5497L38.042 53.8885L23.4841 53.9246C12.2164 53.9597 11.9036 53.9541 11.0265 53.6974C9.88996 53.3648 8.91524 52.5579 8.37859 51.5051L8 50.7622V30.9625V11.1627L8.38007 10.4168Z" fill="#00A6CA"/>
<path d="M38.2539 61.7188C35.8795 61.7187 33.5585 61.0144 31.5847 59.6948C29.6108 58.3752 28.0727 56.4997 27.1651 54.3056C26.2576 52.1116 26.0213 49.6976 26.4862 47.3692C26.9511 45.0408 28.0963 42.9026 29.7768 41.2253C31.4573 39.548 33.5977 38.4069 35.927 37.9465C38.2562 37.4861 40.6698 37.727 42.8621 38.6388C45.0544 39.5506 46.9269 41.0923 48.2427 43.0687C49.5585 45.0451 50.2584 47.3674 50.2539 49.7418C50.2478 52.9204 48.9808 55.9667 46.731 58.2122C44.4813 60.4576 41.4325 61.7188 38.2539 61.7188Z" fill="#00A6CA"/>
<path d="M29.7344 17.238H27.0691C27.551 17.7572 27.8559 18.3918 27.9839 19.1418H30.2539L29.7344 20.6611H28.0178C27.8822 21.8021 27.3514 22.6611 26.4254 23.238C25.4993 23.8149 24.2118 24.1034 22.5629 24.1034L28.1307 29.6034V29.7188H25.567L19.5814 23.7861L19.5701 22.5841H22.3822C23.3234 22.5777 24.0876 22.4046 24.6749 22.0649C25.2621 21.7188 25.6348 21.2508 25.7929 20.6611H19.2539L19.7734 19.1418H25.7703C25.4089 17.9239 24.3022 17.2893 22.45 17.238H19.2765L19.8073 15.7188H30.2539L29.7344 17.238Z" fill="#00A6CA" stroke="#00A6CA" stroke-width="0.6"/>
<rect x="14.2539" y="35.7188" width="14" height="3" rx="1" fill="#00A6CA"/>
<rect x="14.2539" y="42.7188" width="9" height="3" rx="1" fill="#00A6CA"/>
<path d="M32.2539 50.2188L35.2142 53.0557C35.601 53.4264 36.2112 53.4264 36.598 53.0557L44.2539 45.7188" stroke="white" stroke-width="3" stroke-linecap="round"/>
</svg>
