<svg width="18" height="18" viewBox="0 0 18 18" fill="none" xmlns="http://www.w3.org/2000/svg">
<path d="M9 0C4.02935 0 0 4.02935 0 9C0 13.9706 4.02935 18 9 18C13.9706 18 18 13.9706 18 9C18 4.02935 13.9706 0 9 0Z" fill="white"/>
<path d="M9.1388 3.375C8.18248 3.375 7.38422 3.71069 6.74535 4.25593C6.10648 4.80118 5.73259 5.24364 5.625 6.57839H7.57549C7.61799 5.91102 7.77671 5.75685 8.05099 5.50325C8.32527 5.24965 8.66595 5.09082 9.07438 5.09082C9.48281 5.09082 9.81553 5.20694 10.0732 5.47189C10.3315 5.73617 10.4604 6.06051 10.4604 6.4596C10.4604 6.85869 10.3362 7.1897 10.0898 7.45999L8.913 8.64057C8.56899 8.98627 8.49727 9.2639 8.395 9.47412C8.29272 9.68434 8.393 10.004 8.393 10.4358V11.25H9.72122V10.6947C9.72122 10.2636 9.91315 9.9286 10.1071 9.69102C10.1814 9.60493 10.3282 9.49948 10.4531 9.37535C10.5766 9.25055 10.7506 9.10506 10.9279 8.93755C11.1052 8.77071 11.26 8.63256 11.3675 8.52445C11.4745 8.417 11.6358 8.23281 11.8404 7.97387C12.1944 7.54208 12.375 7.00217 12.375 6.35415C12.375 5.41449 12.0762 4.68372 11.4745 4.15916C10.8715 3.63661 10.0951 3.375 9.1388 3.375Z" fill="#006685"/>
<path d="M8.99308 12.375C8.68601 12.375 8.4235 12.4872 8.20374 12.7096C7.98458 12.9326 7.875 13.1983 7.875 13.5078C7.875 13.8167 7.98699 14.0805 8.21096 14.2986C8.43494 14.5166 8.70046 14.625 9.00692 14.625C9.31399 14.625 9.5771 14.5135 9.79626 14.291C10.0148 14.068 10.125 13.8017 10.125 13.4928C10.125 13.1839 10.0124 12.9201 9.78843 12.7014C9.56566 12.4834 9.30014 12.375 8.99308 12.375Z" fill="#006685"/>
</svg>
