<svg width="64" height="64" viewBox="0 0 64 64" fill="none" xmlns="http://www.w3.org/2000/svg">
<circle cx="32" cy="32" r="32" fill="#EAF8FB"/>
<path d="M30.5676 13.4057C30.8976 12.5542 32.1024 12.5542 32.4324 13.4057L33.4153 15.9417C33.5572 16.3078 33.9002 16.557 34.2922 16.5788L37.0078 16.7299C37.9196 16.7807 38.2919 17.9265 37.5841 18.5035L35.4759 20.222C35.1716 20.47 35.0406 20.8732 35.141 21.2528L35.8364 23.8822C36.0699 24.7651 35.0952 25.4732 34.3278 24.9783L32.0419 23.5044C31.712 23.2916 31.288 23.2916 30.9581 23.5044L28.6722 24.9783C27.9048 25.4732 26.9301 24.7651 27.1636 23.8822L27.859 21.2528C27.9594 20.8732 27.8284 20.47 27.5241 20.222L25.4159 18.5035C24.7081 17.9265 25.0804 16.7807 25.9922 16.7299L28.7078 16.5788C29.0998 16.557 29.4428 16.3078 29.5847 15.9417L30.5676 13.4057Z" stroke="#00A6CA" stroke-width="2"/>
<path d="M50 48.9999V40.2926H44.9437V34.9024H39.3803V29.9999H24.6197V34.9024H19.0563V40.2926H14V48.9999H44" stroke="#00A6CA" stroke-width="2"/>
</svg>
