<svg width="64" height="64" viewBox="0 0 64 64" fill="none" xmlns="http://www.w3.org/2000/svg">
<circle cx="32" cy="32" r="32" fill="#EAF8FB"/>
<path d="M39 13H24C22.8954 13 22 13.8954 22 15V52H41V36.25V15C41 13.8954 40.1046 13 39 13Z" stroke="#00A6CA" stroke-width="1.6"/>
<rect x="37" y="49" width="4" height="13" transform="rotate(-180 37 49)" fill="#00A6CA"/>
<rect x="37" y="33" width="4" height="9" transform="rotate(-180 37 33)" fill="#00A6CA"/>
<rect x="37" y="21" width="4" height="4" transform="rotate(-180 37 21)" fill="#00A6CA"/>
<rect x="30" y="49" width="4" height="13" transform="rotate(-180 30 49)" fill="#00A6CA"/>
<rect x="30" y="33" width="4" height="9" transform="rotate(-180 30 33)" fill="#00A6CA"/>
<rect x="30" y="21" width="4" height="4" transform="rotate(-180 30 21)" fill="#00A6CA"/>
<path d="M12.7071 26.2929C12.3166 25.9024 11.6834 25.9024 11.2929 26.2929L4.92893 32.6569C4.53841 33.0474 4.53841 33.6805 4.92893 34.0711C5.31946 34.4616 5.95262 34.4616 6.34315 34.0711L12 28.4142L17.6569 34.0711C18.0474 34.4616 18.6805 34.4616 19.0711 34.0711C19.4616 33.6805 19.4616 33.0474 19.0711 32.6569L12.7071 26.2929ZM11 27V39.5H13V27H11Z" fill="#00A6CA"/>
<path d="M50.2929 40.2071C50.6834 40.5976 51.3166 40.5976 51.7071 40.2071L58.0711 33.8431C58.4616 33.4526 58.4616 32.8195 58.0711 32.4289C57.6805 32.0384 57.0474 32.0384 56.6569 32.4289L51 38.0858L45.3431 32.4289C44.9526 32.0384 44.3195 32.0384 43.9289 32.4289C43.5384 32.8195 43.5384 33.4526 43.9289 33.8431L50.2929 40.2071ZM50 27V39.5H52V27H50Z" fill="#00A6CA"/>
</svg>
