<svg version="1.2" baseProfile="tiny-ps" xmlns="http://www.w3.org/2000/svg" viewBox="0 0 58 18" width="58" height="18">
	<title>guage-svg</title>
	<style>
		tspan { white-space:pre }
		.shp0 { fill: #2c2c2c } 
		.shp1 { fill: #ededed } 
	</style>
	<path id="Layer" class="shp0" d="M53.83 5.4L8.67 1.69C7.64 1.61 6.6 1.74 5.62 2.09C4.65 2.43 3.75 2.97 3 3.67C2.24 4.38 1.64 5.24 1.23 6.19C0.82 7.14 0.61 8.16 0.62 9.2C0.64 10.24 0.87 11.26 1.31 12.21C1.75 13.16 2.37 14 3.16 14.69C3.94 15.38 4.85 15.9 5.85 16.21C6.84 16.52 7.89 16.63 8.92 16.51L53.94 11.55C54.68 11.43 55.35 11.05 55.82 10.47C56.3 9.9 56.56 9.17 56.54 8.43C56.53 7.68 56.25 6.96 55.75 6.41C55.25 5.85 54.57 5.49 53.83 5.4Z" />
	<path id="Layer" class="shp1" d="M5.91 9.46C5.91 11.25 7.36 12.71 9.15 12.71C10.94 12.71 12.4 11.26 12.4 9.47C12.4 7.68 10.95 6.22 9.16 6.22C7.37 6.22 5.91 7.67 5.91 9.46Z" />
</svg>