<svg width="75" height="20" viewBox="0 0 75 20" fill="none" xmlns="http://www.w3.org/2000/svg">
<path d="M71.1363 10.7232L11.6512 0.145464C10.2918 -0.0894309 8.89833 -0.0394041 7.55927 0.292341C6.22021 0.624088 4.96465 1.23035 3.87212 2.07277C2.77959 2.91519 1.87394 3.97532 1.2126 5.18601C0.551252 6.3967 0.148556 7.73179 0.0301228 9.10621C-0.0776968 10.4906 0.104667 11.8819 0.565276 13.1918C1.02595 14.5016 1.75477 15.701 2.70537 16.713C3.65595 17.7251 4.80728 18.5278 6.08569 19.0696C7.36411 19.6114 8.74168 19.8805 10.13 19.8596L70.5141 18.9021C71.5073 18.8335 72.4425 18.4097 73.1489 17.7082C73.8552 17.0066 74.2857 16.0743 74.3613 15.0817C74.4368 14.089 74.1524 13.1024 73.5602 12.302C72.9681 11.5018 72.1077 10.9413 71.1363 10.7232Z" fill="#ffffff"/>
<path d="M6.20546 12.7716C7.90454 14.4517 10.6438 14.4362 12.3239 12.7371C14.0039 11.038 13.9885 8.29872 12.2894 6.61869C10.5903 4.93866 7.85097 4.95409 6.17097 6.65315C4.49089 8.35229 4.50636 11.0916 6.20546 12.7716Z" fill="#006685"/>
</svg>
