<svg width="61" height="60" viewBox="0 0 61 60" fill="none" xmlns="http://www.w3.org/2000/svg">
<path d="M56.8293 26.3993L11.669 22.6878C10.6374 22.6081 9.6005 22.7435 8.624 23.0855C7.64749 23.4275 6.75268 23.9685 5.99623 24.6744C5.23977 25.3803 4.63816 26.2356 4.22955 27.1862C3.82094 28.1367 3.61425 29.1619 3.62252 30.1965C3.63948 31.2377 3.87354 32.2638 4.30969 33.2094C4.74585 34.155 5.37446 34.9992 6.15546 35.688C6.93646 36.3768 7.85261 36.8951 8.84532 37.2097C9.83802 37.5243 10.8855 37.6282 11.9207 37.5149L56.9404 32.5499C57.6771 32.4288 58.3456 32.0465 58.8236 31.473C59.3017 30.8995 59.5575 30.1731 59.544 29.4266C59.5306 28.6801 59.2488 27.9634 58.7503 27.4075C58.2518 26.8516 57.5699 26.4937 56.8293 26.3993Z" fill="#2C2C2C"/>
<path d="M8.90929 30.4584C8.90681 32.2505 10.3575 33.7052 12.1496 33.7077C13.9416 33.7102 15.3963 32.2595 15.3988 30.4674C15.4013 28.6754 13.9506 27.2206 12.1586 27.2182C10.3665 27.2157 8.91177 28.6664 8.90929 30.4584Z" fill="#EDEDED"/>
</svg>
