<svg width="245" height="120" viewBox="0 0 245 120" fill="none" xmlns="http://www.w3.org/2000/svg">
<path d="M37.5048 34.2246C25.9294 45.3346 16.6585 58.6184 10.2229 73.3156C3.78738 88.0127 0.313489 103.835 0 119.876H77.4411C77.5641 113.936 78.8671 108.079 81.2744 102.646C83.6818 97.2142 87.1453 92.315 91.4636 88.2336L37.5048 34.2246Z" fill="#D35224"/>
<path d="M37.5049 34.2242L91.4637 88.1832C99.7981 80.2501 110.867 75.8307 122.374 75.8425V0.000135574C90.7128 -0.0470549 60.2761 12.2269 37.5049 34.2242Z" fill="#FFC73A"/>
<path d="M153.301 88.1833L207.26 34.2243C184.471 12.2125 154.008 -0.0625149 122.324 0.000239437V75.8426C133.853 75.8154 144.949 80.2357 153.301 88.1833V88.1833Z" fill="#76CC06"/>
<path d="M167.323 119.876H244.747C244.437 103.836 240.966 88.0142 234.533 73.317C228.1 58.6197 218.832 45.3354 207.259 34.2246L153.3 88.1836C157.624 92.2708 161.091 97.1781 163.499 102.619C165.906 108.061 167.206 113.927 167.323 119.876V119.876Z" fill="#34B704"/>
<path d="M16.6533 104.39C16.7772 107.796 19.2802 109.891 22.5266 109.891C26.4421 109.891 28.6229 106.989 28.6229 103.86C28.6229 101.412 27.3591 99.091 24.5835 98.6115L28.3503 92.4546V91.9247H17.3224V94.9275H23.4435L20.2467 100.529V101.059C22.477 100.655 25.0543 101.059 25.1287 103.885C25.1039 105.5 24.0879 106.636 22.477 106.636C20.9901 106.636 19.9989 105.879 19.8997 104.39H16.6533Z" fill="white"/>
<path d="M38.514 91.5967C34.9206 91.5967 32.0211 93.8677 32.0211 97.6779V103.835C32.0211 107.67 34.9206 109.916 38.514 109.916C42.0578 109.916 44.9572 107.67 44.9572 103.835V97.6779C44.9572 93.8677 42.0578 91.5967 38.514 91.5967ZM38.514 106.611C36.9279 106.611 35.7632 105.778 35.5897 104.239C35.5401 103.81 35.5154 103.355 35.5154 102.826V98.7125C35.5154 98.2078 35.5401 97.7284 35.5897 97.2742C35.7632 95.6845 36.9279 94.9022 38.514 94.9022C40.0256 94.9022 41.24 95.6845 41.4134 97.2742C41.463 97.7284 41.4878 98.2078 41.4878 98.7125V102.826C41.4878 103.355 41.463 103.81 41.4134 104.239C41.24 105.778 40.0256 106.611 38.514 106.611Z" fill="white"/>
<path d="M55.1758 91.5967C51.5825 91.5967 48.683 93.8677 48.683 97.6779V103.835C48.683 107.67 51.5825 109.916 55.1758 109.916C58.7196 109.916 61.6191 107.67 61.6191 103.835V97.6779C61.6191 93.8677 58.7196 91.5967 55.1758 91.5967ZM55.1758 106.611C53.5898 106.611 52.4251 105.778 52.2516 104.239C52.202 103.81 52.1772 103.355 52.1772 102.826V98.7125C52.1772 98.2078 52.202 97.7284 52.2516 97.2742C52.4251 95.6845 53.5898 94.9022 55.1758 94.9022C56.6875 94.9022 57.9018 95.6845 58.0753 97.2742C58.1249 97.7284 58.1497 98.2078 58.1497 98.7125V102.826C58.1497 103.355 58.1249 103.81 58.0753 104.239C57.9018 105.778 56.6875 106.611 55.1758 106.611Z" fill="white"/>
<path d="M189.965 109.565L194.868 101.37C195.62 100.142 196.008 99.0147 196.033 97.511C196.033 93.5013 193.218 91.5967 189.626 91.5967C186.01 91.5967 183.194 93.5013 183.194 97.511C183.194 101.195 185.621 103.3 189.116 103.175C189.432 103.175 189.796 103.074 190.063 102.949L186.01 109.565H189.965ZM189.626 94.7794C191.373 94.7794 192.441 95.7317 192.441 97.511C192.441 99.3154 191.373 100.318 189.626 100.318C187.878 100.318 186.786 99.3154 186.786 97.511C186.786 95.7317 187.878 94.7794 189.626 94.7794Z" fill="white"/>
<path d="M205.533 91.722C202.014 91.722 199.174 93.9774 199.174 97.7616V103.876C199.174 107.686 202.014 109.916 205.533 109.916C209.003 109.916 211.843 107.686 211.843 103.876V97.7616C211.843 93.9774 209.003 91.722 205.533 91.722ZM205.533 106.633C203.98 106.633 202.839 105.806 202.669 104.277C202.621 103.851 202.596 103.4 202.596 102.874V98.7891C202.596 98.2879 202.621 97.8117 202.669 97.3606C202.839 95.7818 203.98 95.0049 205.533 95.0049C207.013 95.0049 208.202 95.7818 208.372 97.3606C208.421 97.8117 208.445 98.2879 208.445 98.7891V102.874C208.445 103.4 208.421 103.851 208.372 104.277C208.202 105.806 207.013 106.633 205.533 106.633Z" fill="white"/>
<path d="M221.85 91.722C218.331 91.722 215.492 93.9774 215.492 97.7616V103.876C215.492 107.686 218.331 109.916 221.85 109.916C225.321 109.916 228.16 107.686 228.16 103.876V97.7616C228.16 93.9774 225.321 91.722 221.85 91.722ZM221.85 106.633C220.297 106.633 219.156 105.806 218.986 104.277C218.938 103.851 218.914 103.4 218.914 102.874V98.7891C218.914 98.2879 218.938 97.8117 218.986 97.3606C219.156 95.7818 220.297 95.0049 221.85 95.0049C223.331 95.0049 224.52 95.7818 224.69 97.3606C224.738 97.8117 224.762 98.2879 224.762 98.7891V102.874C224.762 103.4 224.738 103.851 224.69 104.277C224.52 105.806 223.331 106.633 221.85 106.633Z" fill="white"/>
</svg>
