<svg width="245" height="120" viewBox="0 0 245 120" fill="none" xmlns="http://www.w3.org/2000/svg">
<path d="M37.5048 34.2244C25.9294 45.3344 16.6585 58.6182 10.2229 73.3154C3.78738 88.0126 0.313489 103.835 0 119.876H77.4411C77.5641 113.935 78.8671 108.079 81.2744 102.646C83.6818 97.214 87.1453 92.3148 91.4636 88.2334L37.5048 34.2244Z" fill="#D35224"/>
<path d="M37.5051 34.2242L91.4639 88.1832C99.7983 80.2501 110.867 75.8307 122.374 75.8425V0.000135574C90.7131 -0.0470549 60.2763 12.2269 37.5051 34.2242Z" fill="#FFC73A"/>
<path d="M153.301 88.1833L207.26 34.2243C184.471 12.2125 154.008 -0.0625149 122.324 0.000239437V75.8426C133.854 75.8154 144.949 80.2357 153.301 88.1833V88.1833Z" fill="#76CC06"/>
<path d="M167.323 119.876H244.747C244.437 103.836 240.966 88.014 234.533 73.3168C228.1 58.6196 218.832 45.3353 207.259 34.2244L153.3 88.1834C157.624 92.2707 161.091 97.1779 163.499 102.619C165.906 108.061 167.206 113.927 167.323 119.876V119.876Z" fill="#34B704"/>
<path d="M163.177 72.0123L117.612 103.438C116.575 104.161 115.699 105.091 115.041 106.17C114.382 107.249 113.955 108.452 113.785 109.705C113.616 110.957 113.709 112.231 114.058 113.446C114.407 114.661 115.005 115.79 115.813 116.762V116.762C116.635 117.733 117.65 118.522 118.793 119.078C119.937 119.635 121.185 119.947 122.456 119.994C123.727 120.041 124.994 119.822 126.176 119.352C127.358 118.881 128.428 118.169 129.319 117.261L168.04 77.7412C168.643 77.0567 168.979 76.1783 168.987 75.2662C168.996 74.3542 168.676 73.4696 168.085 72.7742C167.495 72.0789 166.674 71.6194 165.773 71.4794C164.872 71.3395 163.95 71.5287 163.177 72.0123V72.0123Z" fill="white"/>
<path d="M122.374 115.279C124.563 115.279 126.338 113.505 126.338 111.316C126.338 109.127 124.563 107.352 122.374 107.352C120.185 107.352 118.41 109.127 118.41 111.316C118.41 113.505 120.185 115.279 122.374 115.279Z" fill="#006685"/>
<path d="M16.6538 104.39C16.7777 107.797 19.2807 109.891 22.5271 109.891C26.4426 109.891 28.6234 106.989 28.6234 103.86C28.6234 101.413 27.3595 99.0913 24.584 98.6119L28.3508 92.4549V91.925H17.3229V94.9278H23.444L20.2472 100.53V101.06C22.4775 100.656 25.0548 101.06 25.1292 103.886C25.1044 105.501 24.0883 106.636 22.4775 106.636C20.9906 106.636 19.9994 105.879 19.9002 104.39H16.6538Z" fill="white"/>
<path d="M38.5144 91.597C34.9211 91.597 32.0216 93.868 32.0216 97.6782V103.835C32.0216 107.671 34.9211 109.916 38.5144 109.916C42.0582 109.916 44.9577 107.671 44.9577 103.835V97.6782C44.9577 93.868 42.0582 91.597 38.5144 91.597ZM38.5144 106.611C36.9284 106.611 35.7637 105.778 35.5902 104.239C35.5406 103.81 35.5159 103.356 35.5159 102.826V98.7128C35.5159 98.2081 35.5406 97.7287 35.5902 97.2745C35.7637 95.6848 36.9284 94.9026 38.5144 94.9026C40.0261 94.9026 41.2404 95.6848 41.4139 97.2745C41.4635 97.7287 41.4883 98.2081 41.4883 98.7128V102.826C41.4883 103.356 41.4635 103.81 41.4139 104.239C41.2404 105.778 40.0261 106.611 38.5144 106.611Z" fill="white"/>
<path d="M55.1763 91.597C51.583 91.597 48.6835 93.868 48.6835 97.6782V103.835C48.6835 107.671 51.583 109.916 55.1763 109.916C58.7201 109.916 61.6196 107.671 61.6196 103.835V97.6782C61.6196 93.868 58.7201 91.597 55.1763 91.597ZM55.1763 106.611C53.5903 106.611 52.4256 105.778 52.2521 104.239C52.2025 103.81 52.1777 103.356 52.1777 102.826V98.7128C52.1777 98.2081 52.2025 97.7287 52.2521 97.2745C52.4256 95.6848 53.5903 94.9026 55.1763 94.9026C56.688 94.9026 57.9023 95.6848 58.0758 97.2745C58.1254 97.7287 58.1501 98.2081 58.1501 98.7128V102.826C58.1501 103.356 58.1254 103.81 58.0758 104.239C57.9023 105.778 56.688 106.611 55.1763 106.611Z" fill="white"/>
<path d="M189.965 109.566L194.868 101.371C195.62 100.143 196.008 99.015 196.033 97.5113C196.033 93.5016 193.217 91.597 189.625 91.597C186.009 91.597 183.194 93.5016 183.194 97.5113C183.194 101.195 185.621 103.3 189.116 103.175C189.431 103.175 189.795 103.075 190.062 102.95L186.009 109.566H189.965ZM189.625 94.7797C191.373 94.7797 192.441 95.732 192.441 97.5113C192.441 99.3157 191.373 100.318 189.625 100.318C187.878 100.318 186.786 99.3157 186.786 97.5113C186.786 95.732 187.878 94.7797 189.625 94.7797Z" fill="white"/>
<path d="M205.533 91.7223C202.014 91.7223 199.174 93.9778 199.174 97.762V103.877C199.174 107.686 202.014 109.916 205.533 109.916C209.003 109.916 211.843 107.686 211.843 103.877V97.762C211.843 93.9778 209.003 91.7223 205.533 91.7223ZM205.533 106.633C203.979 106.633 202.839 105.806 202.669 104.278C202.62 103.852 202.596 103.401 202.596 102.874V98.7894C202.596 98.2882 202.62 97.8121 202.669 97.361C202.839 95.7822 203.979 95.0053 205.533 95.0053C207.013 95.0053 208.202 95.7822 208.372 97.361C208.421 97.8121 208.445 98.2882 208.445 98.7894V102.874C208.445 103.401 208.421 103.852 208.372 104.278C208.202 105.806 207.013 106.633 205.533 106.633Z" fill="white"/>
<path d="M221.85 91.7223C218.331 91.7223 215.491 93.9778 215.491 97.762V103.877C215.491 107.686 218.331 109.916 221.85 109.916C225.32 109.916 228.16 107.686 228.16 103.877V97.762C228.16 93.9778 225.32 91.7223 221.85 91.7223ZM221.85 106.633C220.297 106.633 219.156 105.806 218.986 104.278C218.938 103.852 218.913 103.401 218.913 102.874V98.7894C218.913 98.2882 218.938 97.8121 218.986 97.361C219.156 95.7822 220.297 95.0053 221.85 95.0053C223.33 95.0053 224.519 95.7822 224.689 97.361C224.738 97.8121 224.762 98.2882 224.762 98.7894V102.874C224.762 103.401 224.738 103.852 224.689 104.278C224.519 105.806 223.33 106.633 221.85 106.633Z" fill="white"/>
</svg>
