<svg width="354" height="100" viewBox="0 0 354 100" fill="none" xmlns="http://www.w3.org/2000/svg">
<path d="M0 0H354V100H0V0Z" fill="white"/>
<path d="M0 0H90V100H0V0Z" fill="#FCD800"/>
<path d="M111.64 24.56L107.08 18.768H106.392V30H108.264V22.992L111.512 27.136H111.768L115 22.992V30H116.872V18.768H116.184L111.64 24.56ZM124.62 28.704C124.668 30.224 125.612 30.224 126.828 30.016L126.796 29.024C125.964 29.104 125.996 28.64 125.996 27.92V24.88C125.996 22.752 124.332 22.096 122.46 22.096C121.436 22.096 120.396 22.304 119.612 22.704L119.868 23.952C120.828 23.472 124.3 22.8 124.3 24.832V25.6C123.612 25.216 122.764 25.024 122.012 25.024C120.316 25.024 118.972 25.904 119.02 27.744C119.02 29.248 120.38 30.144 121.788 30.144C122.876 30.144 124.108 29.728 124.62 28.704ZM124.3 27.36C124.124 28.336 123.052 28.768 122.14 28.768C121.436 28.768 120.732 28.416 120.732 27.648C120.732 26.704 121.452 26.208 122.3 26.192C122.988 26.176 123.724 26.384 124.3 26.72V27.36ZM130.441 25.296V18.304H128.713V30H130.441V26.688H131.209C131.481 26.688 131.785 26.672 132.025 26.608L134.153 30H135.898V29.824L133.497 26.048C135.097 25.312 135.561 23.936 135.513 22.272H133.865C133.865 24.112 133.177 25.296 131.241 25.296H130.441ZM141.132 22.112C139.036 22.112 137.18 23.408 137.132 25.984C137.052 28.592 138.924 30.224 141.468 30.176C142.444 30.176 143.484 29.92 144.38 29.52L144.156 28.224C143.244 28.624 142.316 28.752 141.356 28.704C139.948 28.704 138.844 27.872 138.844 26.464H144.54C145.052 23.904 143.836 22.112 141.132 22.112ZM141.116 23.456C142.22 23.456 143.18 24.064 143.132 25.232H138.876C139.116 24.016 139.964 23.456 141.116 23.456ZM153.2 19.92H151.664L151.488 22.304H149.92V23.44L151.488 23.552V27.056C151.488 30.08 153.552 30.688 156.192 29.872L156.016 28.56C154.432 29.12 153.2 28.992 153.2 27.024V23.552H155.872V22.304H153.2V19.92ZM165.227 30V25.44C165.227 23.456 164.299 22.112 162.171 22.112C161.147 22.112 160.347 22.352 159.691 23.232V18.304H157.947V30H159.691V25.536C159.691 24.272 160.539 23.504 161.675 23.504C162.763 23.52 163.483 24.16 163.467 25.44V30H165.227ZM171.24 22.112C169.144 22.112 167.288 23.408 167.24 25.984C167.16 28.592 169.032 30.224 171.576 30.176C172.552 30.176 173.592 29.92 174.488 29.52L174.264 28.224C173.352 28.624 172.424 28.752 171.464 28.704C170.056 28.704 168.952 27.872 168.952 26.464H174.648C175.16 23.904 173.944 22.112 171.24 22.112ZM171.224 23.456C172.328 23.456 173.288 24.064 173.24 25.232H168.984C169.224 24.016 170.072 23.456 171.224 23.456ZM183.076 23.408C182.996 22.16 181.748 21.968 180.612 22.224L180.628 23.408C181.46 23.36 181.46 23.712 181.46 24.4V30H183.188V25.536C183.188 24.288 184.116 23.616 185.156 23.616C185.716 23.616 186.228 23.776 186.692 24.08L187.124 22.576C186.628 22.208 185.988 22.016 185.348 22.032C184.404 22.032 183.38 22.512 183.076 23.408ZM188.582 19.904C188.582 20.608 189.126 20.96 189.654 20.944C190.166 20.928 190.678 20.592 190.678 19.904C190.678 19.232 190.166 18.88 189.638 18.88C189.11 18.88 188.582 19.216 188.582 19.904ZM190.502 22.368H188.758V30H190.502V22.368ZM198.469 30.448C198.469 32.24 197.589 32.848 196.389 32.864C195.493 32.88 194.437 32.544 193.445 32.064L193.189 33.472C194.229 34.048 195.381 34.352 196.437 34.336C198.453 34.32 200.149 33.152 200.149 30.48V22.912C199.141 22.48 198.069 22.208 196.965 22.192C194.597 22.144 192.645 23.408 192.645 26.208C192.645 28.752 194.165 30.256 196.133 30.272C196.869 30.272 197.669 30.08 198.469 29.632V30.448ZM198.437 28.16C197.797 28.576 197.141 28.784 196.533 28.768C195.333 28.752 194.389 27.888 194.389 26.208C194.405 24.48 195.333 23.648 196.805 23.648C197.349 23.648 197.893 23.744 198.437 23.936V28.16ZM209.975 30V25.44C209.975 23.456 209.047 22.112 206.919 22.112C205.895 22.112 205.095 22.352 204.439 23.232V18.304H202.695V30H204.439V25.536C204.439 24.272 205.287 23.504 206.423 23.504C207.511 23.52 208.231 24.16 208.215 25.44V30H209.975ZM214.854 19.92H213.318L213.142 22.304H211.574V23.44L213.142 23.552V27.056C213.142 30.08 215.206 30.688 217.846 29.872L217.67 28.56C216.086 29.12 214.854 28.992 214.854 27.024V23.552H217.526V22.304H214.854V19.92ZM231.248 24.848C230.832 22.96 229.184 22.048 227.504 22.064C225.504 22.08 223.456 23.456 223.456 26.112C223.456 28.784 225.504 30.128 227.52 30.128C229.216 30.128 230.896 29.168 231.296 27.216H229.632C229.28 28.16 228.416 28.624 227.552 28.624C226.384 28.624 225.184 27.776 225.184 26.112C225.184 24.48 226.4 23.616 227.584 23.616C228.48 23.616 229.296 24.016 229.632 24.848H231.248ZM235.191 23.408C235.111 22.16 233.863 21.968 232.727 22.224L232.743 23.408C233.575 23.36 233.575 23.712 233.575 24.4V30H235.303V25.536C235.303 24.288 236.231 23.616 237.271 23.616C237.831 23.616 238.343 23.776 238.807 24.08L239.239 22.576C238.743 22.208 238.103 22.016 237.463 22.032C236.519 22.032 235.495 22.512 235.191 23.408ZM244.174 22.112C242.078 22.112 240.222 23.408 240.174 25.984C240.094 28.592 241.966 30.224 244.51 30.176C245.486 30.176 246.526 29.92 247.422 29.52L247.198 28.224C246.286 28.624 245.358 28.752 244.398 28.704C242.99 28.704 241.886 27.872 241.886 26.464H247.582C248.094 23.904 246.878 22.112 244.174 22.112ZM244.158 23.456C245.262 23.456 246.222 24.064 246.174 25.232H241.918C242.158 24.016 243.006 23.456 244.158 23.456ZM255.419 28.816C255.419 30.112 256.475 30.224 257.675 30.016L257.643 28.816C256.763 28.816 256.843 28.48 256.843 27.6V18.288H255.099V22.768C254.395 22.352 253.643 22.176 252.955 22.176C250.971 22.176 249.307 23.744 249.307 26.128C249.307 28.288 250.555 30.208 252.859 30.16C253.995 30.16 254.907 29.728 255.419 28.592V28.816ZM255.131 26.464C255.131 27.632 254.331 28.608 253.131 28.608C251.707 28.608 251.035 27.456 251.035 26.128C251.035 24.56 252.027 23.712 253.227 23.696C253.835 23.68 254.507 23.872 255.131 24.304V26.464ZM259.572 19.904C259.572 20.608 260.116 20.96 260.644 20.944C261.156 20.928 261.668 20.592 261.668 19.904C261.668 19.232 261.156 18.88 260.628 18.88C260.1 18.88 259.572 19.216 259.572 19.904ZM261.492 22.368H259.748V30H261.492V22.368ZM266.578 19.92H265.042L264.866 22.304H263.298V23.44L264.866 23.552V27.056C264.866 30.08 266.93 30.688 269.57 29.872L269.394 28.56C267.81 29.12 266.578 28.992 266.578 27.024V23.552H269.25V22.304H266.578V19.92ZM111.768 52.816C111.768 54.112 112.824 54.224 114.024 54.016L113.992 52.816C113.112 52.816 113.192 52.48 113.192 51.6V42.288H111.448V46.768C110.744 46.352 109.992 46.176 109.304 46.176C107.32 46.176 105.656 47.744 105.656 50.128C105.656 52.288 106.904 54.208 109.208 54.16C110.344 54.16 111.256 53.728 111.768 52.592V52.816ZM111.48 50.464C111.48 51.632 110.68 52.608 109.48 52.608C108.056 52.608 107.384 51.456 107.384 50.128C107.384 48.56 108.376 47.712 109.576 47.696C110.184 47.68 110.856 47.872 111.48 48.304V50.464ZM119.523 46.112C117.427 46.112 115.571 47.408 115.523 49.984C115.443 52.592 117.315 54.224 119.859 54.176C120.835 54.176 121.875 53.92 122.771 53.52L122.547 52.224C121.635 52.624 120.707 52.752 119.747 52.704C118.339 52.704 117.235 51.872 117.235 50.464H122.931C123.443 47.904 122.227 46.112 119.523 46.112ZM119.507 47.456C120.611 47.456 121.571 48.064 121.523 49.232H117.267C117.507 48.016 118.355 47.456 119.507 47.456ZM132.447 48.848C132.031 46.96 130.383 46.048 128.703 46.064C126.703 46.08 124.655 47.456 124.655 50.112C124.655 52.784 126.703 54.128 128.719 54.128C130.415 54.128 132.095 53.168 132.495 51.216H130.831C130.479 52.16 129.615 52.624 128.751 52.624C127.583 52.624 126.383 51.776 126.383 50.112C126.383 48.48 127.599 47.616 128.783 47.616C129.679 47.616 130.495 48.016 130.831 48.848H132.447ZM134.342 43.904C134.342 44.608 134.886 44.96 135.414 44.944C135.926 44.928 136.438 44.592 136.438 43.904C136.438 43.232 135.926 42.88 135.398 42.88C134.87 42.88 134.342 43.216 134.342 43.904ZM136.262 46.368H134.518V54H136.262V46.368ZM138.325 51.728C138.453 53.648 140.149 54.192 141.861 54.192C143.573 54.192 145.221 53.456 145.221 51.744C145.221 49.92 143.653 49.648 142.037 49.44C140.837 49.296 140.213 49.152 140.197 48.512C140.149 47.824 140.981 47.44 141.781 47.44C142.597 47.44 143.525 47.68 143.525 48.448H145.061C145.109 46.912 143.557 46.128 141.781 46.128C140.101 46.128 138.501 46.896 138.501 48.544C138.549 50.288 140.325 50.464 141.909 50.672C142.917 50.8 143.637 51.008 143.637 51.712C143.589 52.656 142.645 52.896 141.797 52.896C140.965 52.896 140.085 52.528 140.037 51.728H138.325ZM147.154 43.904C147.154 44.608 147.698 44.96 148.226 44.944C148.738 44.928 149.25 44.592 149.25 43.904C149.25 43.232 148.738 42.88 148.21 42.88C147.682 42.88 147.154 43.216 147.154 43.904ZM149.074 46.368H147.33V54H149.074V46.368ZM159.345 50.112C159.345 47.408 157.265 46.064 155.201 46.096C153.185 46.128 151.201 47.456 151.201 50.112C151.201 52.8 153.233 54.144 155.265 54.144C157.297 54.144 159.345 52.8 159.345 50.112ZM152.929 50.112C152.929 48.48 154.049 47.664 155.201 47.632C156.385 47.6 157.601 48.432 157.601 50.112C157.601 51.76 156.449 52.592 155.297 52.608C154.113 52.624 152.929 51.792 152.929 50.112ZM168.99 54V49.472C168.99 47.568 168.03 46.128 165.934 46.128C164.926 46.128 163.742 46.496 163.31 47.472C163.31 46 162.014 46.064 160.894 46.272V47.408C161.678 47.36 161.71 47.616 161.71 48.528V54H163.47V49.616C163.47 48.368 164.334 47.52 165.422 47.52C166.462 47.536 167.246 48.272 167.23 49.472V54H168.99ZM170.933 51.728C171.061 53.648 172.757 54.192 174.469 54.192C176.181 54.192 177.829 53.456 177.829 51.744C177.829 49.92 176.261 49.648 174.645 49.44C173.445 49.296 172.821 49.152 172.805 48.512C172.757 47.824 173.589 47.44 174.389 47.44C175.205 47.44 176.133 47.68 176.133 48.448H177.669C177.717 46.912 176.165 46.128 174.389 46.128C172.709 46.128 171.109 46.896 171.109 48.544C171.157 50.288 172.933 50.464 174.517 50.672C175.525 50.8 176.245 51.008 176.245 51.712C176.197 52.656 175.253 52.896 174.405 52.896C173.573 52.896 172.693 52.528 172.645 51.728H170.933ZM186.844 54.08L188.892 49.424L190.956 54.08H191.74L194.796 46.48V46.288H192.908C192.588 47.184 192.252 48.048 191.948 48.944L191.212 51.072H191.164L189.324 46.464H188.46L186.62 51.056H186.588L185.868 48.944L184.892 46.288H183.02V46.48L186.06 54.08H186.844ZM196.402 43.904C196.402 44.608 196.946 44.96 197.474 44.944C197.986 44.928 198.498 44.592 198.498 43.904C198.498 43.232 197.986 42.88 197.458 42.88C196.93 42.88 196.402 43.216 196.402 43.904ZM198.322 46.368H196.578V54H198.322V46.368ZM203.409 43.92H201.873L201.697 46.304H200.129V47.44L201.697 47.552V51.056C201.697 54.08 203.761 54.688 206.401 53.872L206.225 52.56C204.641 53.12 203.409 52.992 203.409 51.024V47.552H206.081V46.304H203.409V43.92ZM215.435 54V49.44C215.435 47.456 214.507 46.112 212.379 46.112C211.355 46.112 210.555 46.352 209.899 47.232V42.304H208.155V54H209.899V49.536C209.899 48.272 210.747 47.504 211.883 47.504C212.971 47.52 213.691 48.16 213.675 49.44V54H215.435ZM221.848 50.816C221.896 53.168 224.184 54.256 226.376 54.208C228.472 54.208 230.792 53.28 230.792 50.816C230.792 48.24 228.712 47.792 226.44 47.536C225.144 47.36 223.88 47.2 223.88 45.936C223.88 44.672 225.208 44.256 226.232 44.256C227.336 44.256 228.6 44.64 228.68 45.84H230.44C230.392 43.552 228.376 42.592 226.248 42.592C224.072 42.592 222.04 43.68 222.04 45.984C222.04 48.224 224.072 48.88 226.12 49.056C227.416 49.184 228.936 49.328 228.936 50.8C228.936 52.192 227.528 52.544 226.344 52.544C225.128 52.544 223.752 52.08 223.672 50.816H221.848ZM240.256 48.848C239.84 46.96 238.192 46.048 236.512 46.064C234.512 46.08 232.464 47.456 232.464 50.112C232.464 52.784 234.512 54.128 236.528 54.128C238.224 54.128 239.904 53.168 240.304 51.216H238.64C238.288 52.16 237.424 52.624 236.56 52.624C235.392 52.624 234.192 51.776 234.192 50.112C234.192 48.48 235.408 47.616 236.592 47.616C237.488 47.616 238.304 48.016 238.64 48.848H240.256ZM249.974 50.112C249.974 47.408 247.894 46.064 245.83 46.096C243.814 46.128 241.83 47.456 241.83 50.112C241.83 52.8 243.862 54.144 245.894 54.144C247.926 54.144 249.974 52.8 249.974 50.112ZM243.558 50.112C243.558 48.48 244.678 47.664 245.83 47.632C247.014 47.6 248.23 48.432 248.23 50.112C248.23 51.76 247.078 52.592 245.926 52.608C244.742 52.624 243.558 51.792 243.558 50.112ZM253.971 47.408C253.891 46.16 252.643 45.968 251.507 46.224L251.523 47.408C252.355 47.36 252.355 47.712 252.355 48.4V54H254.083V49.536C254.083 48.288 255.011 47.616 256.051 47.616C256.611 47.616 257.123 47.776 257.587 48.08L258.019 46.576C257.523 46.208 256.883 46.016 256.243 46.032C255.299 46.032 254.275 46.512 253.971 47.408ZM262.955 46.112C260.859 46.112 259.003 47.408 258.955 49.984C258.875 52.592 260.747 54.224 263.291 54.176C264.267 54.176 265.307 53.92 266.203 53.52L265.979 52.224C265.067 52.624 264.139 52.752 263.179 52.704C261.771 52.704 260.667 51.872 260.667 50.464H266.363C266.875 47.904 265.659 46.112 262.955 46.112ZM262.939 47.456C264.043 47.456 265.003 48.064 264.955 49.232H260.699C260.939 48.016 261.787 47.456 262.939 47.456ZM105.72 74.816C105.768 77.168 108.056 78.256 110.248 78.208C112.344 78.208 114.664 77.28 114.664 74.816C114.664 72.24 112.584 71.792 110.312 71.536C109.016 71.36 107.752 71.2 107.752 69.936C107.752 68.672 109.08 68.256 110.104 68.256C111.208 68.256 112.472 68.64 112.552 69.84H114.312C114.264 67.552 112.248 66.592 110.12 66.592C107.944 66.592 105.912 67.68 105.912 69.984C105.912 72.224 107.944 72.88 109.992 73.056C111.288 73.184 112.808 73.328 112.808 74.8C112.808 76.192 111.4 76.544 110.216 76.544C109 76.544 107.624 76.08 107.544 74.816H105.72ZM116.577 67.904C116.577 68.608 117.121 68.96 117.649 68.944C118.161 68.928 118.673 68.592 118.673 67.904C118.673 67.232 118.161 66.88 117.633 66.88C117.105 66.88 116.577 67.216 116.577 67.904ZM118.497 70.368H116.753V78H118.497V70.368ZM133.312 78V73.488C133.36 71.632 132.816 70.128 130.704 70.128C129.52 70.128 128.32 70.56 127.888 71.584C127.584 70.64 126.896 70.128 125.552 70.128C124.496 70.128 123.36 70.608 122.928 71.552C122.976 69.936 121.536 70.016 120.512 70.272L120.528 71.344C121.296 71.296 121.344 71.584 121.344 72.48V78H123.088V73.552C123.088 72.336 123.872 71.568 124.96 71.552C126.048 71.536 126.544 72.336 126.544 73.536V78H128.256V73.536C128.272 72.32 128.992 71.552 130.064 71.536C131.088 71.52 131.568 72.336 131.552 73.488V78H133.312ZM141.095 70.288V74.704C141.095 75.936 140.247 76.736 139.143 76.736C138.119 76.736 137.463 75.984 137.479 74.752V70.288H135.719V74.752C135.719 76.64 136.471 78.128 138.599 78.128C139.687 78.128 140.743 77.792 141.271 76.752C141.271 78.416 142.679 78.208 143.671 78.032L143.655 76.896C142.919 76.976 142.839 76.72 142.839 75.792V70.288H141.095ZM145.602 66.288V75.248C145.602 77.824 146.69 78.432 149.058 78.048L148.994 76.704C147.666 76.912 147.33 76.512 147.33 75.232V66.288H145.602ZM155.619 76.704C155.667 78.224 156.611 78.224 157.827 78.016L157.795 77.024C156.963 77.104 156.995 76.64 156.995 75.92V72.88C156.995 70.752 155.331 70.096 153.459 70.096C152.435 70.096 151.395 70.304 150.611 70.704L150.867 71.952C151.827 71.472 155.299 70.8 155.299 72.832V73.6C154.611 73.216 153.763 73.024 153.011 73.024C151.315 73.024 149.971 73.904 150.019 75.744C150.019 77.248 151.379 78.144 152.787 78.144C153.875 78.144 155.107 77.728 155.619 76.704ZM155.299 75.36C155.123 76.336 154.051 76.768 153.139 76.768C152.435 76.768 151.731 76.416 151.731 75.648C151.731 74.704 152.451 74.208 153.299 74.192C153.987 74.176 154.723 74.384 155.299 74.72V75.36ZM162.036 67.92H160.5L160.324 70.304H158.756V71.44L160.324 71.552V75.056C160.324 78.08 162.388 78.688 165.028 77.872L164.852 76.56C163.268 77.12 162.036 76.992 162.036 75.024V71.552H164.708V70.304H162.036V67.92ZM174.446 74.112C174.446 71.408 172.366 70.064 170.302 70.096C168.286 70.128 166.302 71.456 166.302 74.112C166.302 76.8 168.334 78.144 170.366 78.144C172.398 78.144 174.446 76.8 174.446 74.112ZM168.03 74.112C168.03 72.48 169.15 71.664 170.302 71.632C171.486 71.6 172.702 72.432 172.702 74.112C172.702 75.76 171.55 76.592 170.398 76.608C169.214 76.624 168.03 75.792 168.03 74.112ZM178.443 71.408C178.363 70.16 177.115 69.968 175.979 70.224L175.995 71.408C176.827 71.36 176.827 71.712 176.827 72.4V78H178.555V73.536C178.555 72.288 179.483 71.616 180.523 71.616C181.083 71.616 181.595 71.776 182.059 72.08L182.491 70.576C181.995 70.208 181.355 70.016 180.715 70.032C179.771 70.032 178.747 70.512 178.443 71.408Z" fill="#2C2C2C"/>
<path d="M45.4868 75.1648C62.0296 75.1648 75.4403 61.6964 75.4403 45.0824C75.4403 28.4683 62.0296 15 45.4868 15C28.9439 15 15.5332 28.4683 15.5332 45.0824C15.5332 61.6964 28.9439 75.1648 45.4868 75.1648Z" fill="white"/>
<path d="M64.0923 36.9969C58.7477 32.4015 51.9437 29.876 44.908 29.876C37.8722 29.876 31.0682 32.4015 25.7236 36.9969L42.2872 56.3356H47.5222L64.0923 36.9969Z" fill="#C1D5DA"/>
<path d="M64.0918 36.9971L47.5283 56.3357H73.0272C73.0062 52.6572 72.1974 49.0263 70.6557 45.6895C69.1139 42.3527 66.8753 39.3882 64.0918 36.9971Z" fill="white"/>
<path d="M25.7306 36.9971C22.948 39.3885 20.7104 42.3533 19.1697 45.6901C17.6291 49.027 16.8215 52.6577 16.8018 56.3357H42.2941L25.7306 36.9971Z" fill="#85ACB5"/>
<path d="M44.9147 85.3015C54.6048 85.3015 62.4602 77.4124 62.4602 67.6806C62.4602 57.9488 54.6048 50.0596 44.9147 50.0596C35.2245 50.0596 27.3691 57.9488 27.3691 67.6806C27.3691 77.4124 35.2245 85.3015 44.9147 85.3015Z" fill="#006685"/>
<path d="M44.9145 28.2451C36.9807 28.2451 29.3718 31.4103 23.7617 37.0445C18.1517 42.6787 15 50.3204 15 58.2883H74.8291C74.8291 50.3204 71.6773 42.6787 66.0673 37.0445C60.4572 31.4103 52.8484 28.2451 44.9145 28.2451Z" stroke="#006685" stroke-width="4" stroke-miterlimit="10"/>
<path d="M35.0684 70.7426C35.0684 68.7833 35.0684 66.7848 35.0684 64.8059C35.0684 64.1528 35.2179 64.0156 35.8357 64.0156H39.7376C40.3879 64.0156 40.518 64.1789 40.518 64.7928V76.7186C40.518 77.3195 40.3489 77.4893 39.7636 77.4893H35.8032C35.2114 77.4893 35.0488 77.326 35.0488 76.7252C35.0618 74.7593 35.0684 72.7346 35.0684 70.7426Z" fill="white"/>
<path d="M54.3962 67.2754C54.6237 66.9413 54.7498 66.5481 54.759 66.1434C54.7683 65.7388 54.6603 65.3402 54.4483 64.996C54.2761 64.669 54.0111 64.4007 53.6869 64.2252C53.3628 64.0496 52.994 63.9747 52.6274 64.0098C51.4633 64.0098 50.3058 64.0098 49.1482 64.0098H48.693L48.9011 63.6179C49.1092 63.1868 50.7284 60.8683 50.3122 58.0404C50.0716 56.4141 48.5564 55.872 47.711 57.7595C47.3228 58.6155 46.8524 59.4314 46.3063 60.1956C46.2789 60.2278 46.2549 60.2628 46.2348 60.3001C45.5948 61.3306 44.7856 62.2449 43.8416 63.004C43.1913 63.52 42.541 63.9837 41.8907 64.4931C41.7455 64.6045 41.6497 64.7686 41.624 64.9503C41.624 68.8428 41.624 72.7376 41.624 76.6345C41.6323 76.7171 41.6588 76.7969 41.7016 76.8681C41.7443 76.9392 41.8022 77 41.8711 77.0459C42.4882 77.3774 43.1813 77.5395 43.8807 77.5161C46.2153 77.5161 48.5434 77.4639 50.878 77.5161C51.2091 77.518 51.5356 77.4387 51.8293 77.2851C52.1229 77.1315 52.3749 76.9084 52.5633 76.6349C52.7516 76.3615 52.8707 76.046 52.9102 75.7159C52.9497 75.3857 52.9085 75.0509 52.79 74.7404C52.738 74.6098 52.699 74.4792 52.6534 74.3616C53.9541 73.4865 54.1361 72.9248 53.6549 71.1679C53.9533 71 54.2101 70.7666 54.4061 70.485C54.602 70.2034 54.7321 69.881 54.7865 69.5418C54.8409 69.2027 54.8183 68.8556 54.7203 68.5264C54.6223 68.1973 54.4515 67.8946 54.2206 67.6411C54.2467 67.5105 54.3247 67.3995 54.3962 67.2754Z" fill="white"/>
</svg>
