<svg width="260" height="121" viewBox="0 0 260 121" fill="none" xmlns="http://www.w3.org/2000/svg">
<rect y="0.0430298" width="260" height="120.516" fill="white"/>
<rect width="90" height="120.516" fill="#FCD800"/>
<path d="M111.64 22.6546L107.08 16.8626H106.392V28.0946H108.264V21.0866L111.512 25.2306H111.768L115 21.0866V28.0946H116.872V16.8626H116.184L111.64 22.6546ZM124.62 26.7986C124.668 28.3186 125.612 28.3186 126.828 28.1106L126.796 27.1186C125.964 27.1986 125.996 26.7346 125.996 26.0146V22.9746C125.996 20.8466 124.332 20.1906 122.46 20.1906C121.436 20.1906 120.396 20.3986 119.612 20.7986L119.868 22.0466C120.828 21.5666 124.3 20.8946 124.3 22.9266V23.6946C123.612 23.3106 122.764 23.1186 122.012 23.1186C120.316 23.1186 118.972 23.9986 119.02 25.8386C119.02 27.3426 120.38 28.2386 121.788 28.2386C122.876 28.2386 124.108 27.8226 124.62 26.7986ZM124.3 25.4546C124.124 26.4306 123.052 26.8626 122.14 26.8626C121.436 26.8626 120.732 26.5106 120.732 25.7426C120.732 24.7986 121.452 24.3026 122.3 24.2866C122.988 24.2706 123.724 24.4786 124.3 24.8146V25.4546ZM130.441 23.3906V16.3986H128.713V28.0946H130.441V24.7826H131.209C131.481 24.7826 131.785 24.7666 132.025 24.7026L134.153 28.0946H135.898V27.9186L133.497 24.1426C135.097 23.4066 135.561 22.0306 135.513 20.3666H133.865C133.865 22.2066 133.177 23.3906 131.241 23.3906H130.441ZM141.132 20.2066C139.036 20.2066 137.18 21.5026 137.132 24.0786C137.052 26.6866 138.924 28.3186 141.468 28.2706C142.444 28.2706 143.484 28.0146 144.38 27.6146L144.156 26.3186C143.244 26.7186 142.316 26.8466 141.356 26.7986C139.948 26.7986 138.844 25.9666 138.844 24.5586H144.54C145.052 21.9986 143.836 20.2066 141.132 20.2066ZM141.116 21.5506C142.22 21.5506 143.18 22.1586 143.132 23.3266H138.876C139.116 22.1106 139.964 21.5506 141.116 21.5506ZM153.2 18.0146H151.664L151.488 20.3986H149.92V21.5346L151.488 21.6466V25.1506C151.488 28.1746 153.552 28.7826 156.192 27.9666L156.016 26.6546C154.432 27.2146 153.2 27.0866 153.2 25.1186V21.6466H155.872V20.3986H153.2V18.0146ZM165.227 28.0946V23.5346C165.227 21.5506 164.299 20.2066 162.171 20.2066C161.147 20.2066 160.347 20.4466 159.691 21.3266V16.3986H157.947V28.0946H159.691V23.6306C159.691 22.3666 160.539 21.5986 161.675 21.5986C162.763 21.6146 163.483 22.2546 163.467 23.5346V28.0946H165.227ZM171.24 20.2066C169.144 20.2066 167.288 21.5026 167.24 24.0786C167.16 26.6866 169.032 28.3186 171.576 28.2706C172.552 28.2706 173.592 28.0146 174.488 27.6146L174.264 26.3186C173.352 26.7186 172.424 26.8466 171.464 26.7986C170.056 26.7986 168.952 25.9666 168.952 24.5586H174.648C175.16 21.9986 173.944 20.2066 171.24 20.2066ZM171.224 21.5506C172.328 21.5506 173.288 22.1586 173.24 23.3266H168.984C169.224 22.1106 170.072 21.5506 171.224 21.5506ZM183.076 21.5026C182.996 20.2546 181.748 20.0626 180.612 20.3186L180.628 21.5026C181.46 21.4546 181.46 21.8066 181.46 22.4946V28.0946H183.188V23.6306C183.188 22.3826 184.116 21.7106 185.156 21.7106C185.716 21.7106 186.228 21.8706 186.692 22.1746L187.124 20.6706C186.628 20.3026 185.988 20.1106 185.348 20.1266C184.404 20.1266 183.38 20.6066 183.076 21.5026ZM188.582 17.9986C188.582 18.7026 189.126 19.0546 189.654 19.0386C190.166 19.0226 190.678 18.6866 190.678 17.9986C190.678 17.3266 190.166 16.9746 189.638 16.9746C189.11 16.9746 188.582 17.3106 188.582 17.9986ZM190.502 20.4626H188.758V28.0946H190.502V20.4626ZM198.469 28.5426C198.469 30.3346 197.589 30.9426 196.389 30.9586C195.493 30.9746 194.437 30.6386 193.445 30.1586L193.189 31.5666C194.229 32.1426 195.381 32.4466 196.437 32.4306C198.453 32.4146 200.149 31.2466 200.149 28.5746V21.0066C199.141 20.5746 198.069 20.3026 196.965 20.2866C194.597 20.2386 192.645 21.5026 192.645 24.3026C192.645 26.8466 194.165 28.3506 196.133 28.3666C196.869 28.3666 197.669 28.1746 198.469 27.7266V28.5426ZM198.437 26.2546C197.797 26.6706 197.141 26.8786 196.533 26.8626C195.333 26.8466 194.389 25.9826 194.389 24.3026C194.405 22.5746 195.333 21.7426 196.805 21.7426C197.349 21.7426 197.893 21.8386 198.437 22.0306V26.2546ZM209.975 28.0946V23.5346C209.975 21.5506 209.047 20.2066 206.919 20.2066C205.895 20.2066 205.095 20.4466 204.439 21.3266V16.3986H202.695V28.0946H204.439V23.6306C204.439 22.3666 205.287 21.5986 206.423 21.5986C207.511 21.6146 208.231 22.2546 208.215 23.5346V28.0946H209.975ZM214.854 18.0146H213.318L213.142 20.3986H211.574V21.5346L213.142 21.6466V25.1506C213.142 28.1746 215.206 28.7826 217.846 27.9666L217.67 26.6546C216.086 27.2146 214.854 27.0866 214.854 25.1186V21.6466H217.526V20.3986H214.854V18.0146ZM113.448 46.9426C113.032 45.0546 111.384 44.1426 109.704 44.1586C107.704 44.1746 105.656 45.5506 105.656 48.2066C105.656 50.8786 107.704 52.2226 109.72 52.2226C111.416 52.2226 113.096 51.2626 113.496 49.3106H111.832C111.48 50.2546 110.616 50.7186 109.752 50.7186C108.584 50.7186 107.384 49.8706 107.384 48.2066C107.384 46.5746 108.6 45.7106 109.784 45.7106C110.68 45.7106 111.496 46.1106 111.832 46.9426H113.448ZM117.391 45.5026C117.311 44.2546 116.063 44.0626 114.927 44.3186L114.943 45.5026C115.775 45.4546 115.775 45.8066 115.775 46.4946V52.0946H117.503V47.6306C117.503 46.3826 118.431 45.7106 119.471 45.7106C120.031 45.7106 120.543 45.8706 121.007 46.1746L121.439 44.6706C120.943 44.3026 120.303 44.1106 119.663 44.1266C118.719 44.1266 117.695 44.6066 117.391 45.5026ZM126.374 44.2066C124.278 44.2066 122.422 45.5026 122.374 48.0786C122.294 50.6866 124.166 52.3186 126.71 52.2706C127.686 52.2706 128.726 52.0146 129.622 51.6146L129.398 50.3186C128.486 50.7186 127.558 50.8466 126.598 50.7986C125.19 50.7986 124.086 49.9666 124.086 48.5586H129.782C130.294 45.9986 129.078 44.2066 126.374 44.2066ZM126.358 45.5506C127.462 45.5506 128.422 46.1586 128.374 47.3266H124.118C124.358 46.1106 125.206 45.5506 126.358 45.5506ZM137.619 50.9106C137.619 52.2066 138.675 52.3186 139.875 52.1106L139.843 50.9106C138.963 50.9106 139.043 50.5746 139.043 49.6946V40.3826H137.299V44.8626C136.595 44.4466 135.843 44.2706 135.155 44.2706C133.171 44.2706 131.507 45.8386 131.507 48.2226C131.507 50.3826 132.755 52.3026 135.059 52.2546C136.195 52.2546 137.107 51.8226 137.619 50.6866V50.9106ZM137.331 48.5586C137.331 49.7266 136.531 50.7026 135.331 50.7026C133.907 50.7026 133.235 49.5506 133.235 48.2226C133.235 46.6546 134.227 45.8066 135.427 45.7906C136.035 45.7746 136.707 45.9666 137.331 46.3986V48.5586ZM141.772 41.9986C141.772 42.7026 142.316 43.0546 142.844 43.0386C143.356 43.0226 143.868 42.6866 143.868 41.9986C143.868 41.3266 143.356 40.9746 142.828 40.9746C142.3 40.9746 141.772 41.3106 141.772 41.9986ZM143.692 44.4626H141.948V52.0946H143.692V44.4626ZM148.778 42.0146H147.242L147.066 44.3986H145.498V45.5346L147.066 45.6466V49.1506C147.066 52.1746 149.13 52.7826 151.77 51.9666L151.594 50.6546C150.01 51.2146 148.778 51.0866 148.778 49.1186V45.6466H151.45V44.3986H148.778V42.0146ZM163.492 50.9106C163.492 52.2066 164.548 52.3186 165.748 52.1106L165.716 50.9106C164.836 50.9106 164.916 50.5746 164.916 49.6946V40.3826H163.172V44.8626C162.468 44.4466 161.716 44.2706 161.028 44.2706C159.044 44.2706 157.38 45.8386 157.38 48.2226C157.38 50.3826 158.628 52.3026 160.932 52.2546C162.068 52.2546 162.98 51.8226 163.492 50.6866V50.9106ZM163.204 48.5586C163.204 49.7266 162.404 50.7026 161.204 50.7026C159.78 50.7026 159.108 49.5506 159.108 48.2226C159.108 46.6546 160.1 45.8066 161.3 45.7906C161.908 45.7746 162.58 45.9666 163.204 46.3986V48.5586ZM171.247 44.2066C169.151 44.2066 167.295 45.5026 167.247 48.0786C167.167 50.6866 169.039 52.3186 171.583 52.2706C172.559 52.2706 173.599 52.0146 174.495 51.6146L174.271 50.3186C173.359 50.7186 172.431 50.8466 171.471 50.7986C170.063 50.7986 168.959 49.9666 168.959 48.5586H174.655C175.167 45.9986 173.951 44.2066 171.247 44.2066ZM171.231 45.5506C172.335 45.5506 173.295 46.1586 173.247 47.3266H168.991C169.231 46.1106 170.079 45.5506 171.231 45.5506ZM184.172 46.9426C183.756 45.0546 182.108 44.1426 180.428 44.1586C178.428 44.1746 176.38 45.5506 176.38 48.2066C176.38 50.8786 178.428 52.2226 180.444 52.2226C182.14 52.2226 183.82 51.2626 184.22 49.3106H182.556C182.204 50.2546 181.34 50.7186 180.476 50.7186C179.308 50.7186 178.108 49.8706 178.108 48.2066C178.108 46.5746 179.324 45.7106 180.508 45.7106C181.404 45.7106 182.22 46.1106 182.556 46.9426H184.172ZM186.067 41.9986C186.067 42.7026 186.611 43.0546 187.139 43.0386C187.651 43.0226 188.163 42.6866 188.163 41.9986C188.163 41.3266 187.651 40.9746 187.123 40.9746C186.595 40.9746 186.067 41.3106 186.067 41.9986ZM187.987 44.4626H186.243V52.0946H187.987V44.4626ZM190.049 49.8226C190.177 51.7426 191.873 52.2866 193.585 52.2866C195.297 52.2866 196.945 51.5506 196.945 49.8386C196.945 48.0146 195.377 47.7426 193.761 47.5346C192.561 47.3906 191.937 47.2466 191.921 46.6066C191.873 45.9186 192.705 45.5346 193.505 45.5346C194.321 45.5346 195.249 45.7746 195.249 46.5426H196.785C196.833 45.0066 195.281 44.2226 193.505 44.2226C191.825 44.2226 190.225 44.9906 190.225 46.6386C190.273 48.3826 192.049 48.5586 193.633 48.7666C194.641 48.8946 195.361 49.1026 195.361 49.8066C195.313 50.7506 194.369 50.9906 193.521 50.9906C192.689 50.9906 191.809 50.6226 191.761 49.8226H190.049ZM198.878 41.9986C198.878 42.7026 199.422 43.0546 199.95 43.0386C200.462 43.0226 200.974 42.6866 200.974 41.9986C200.974 41.3266 200.462 40.9746 199.934 40.9746C199.406 40.9746 198.878 41.3106 198.878 41.9986ZM200.798 44.4626H199.054V52.0946H200.798V44.4626ZM211.069 48.2066C211.069 45.5026 208.989 44.1586 206.925 44.1906C204.909 44.2226 202.925 45.5506 202.925 48.2066C202.925 50.8946 204.957 52.2386 206.989 52.2386C209.021 52.2386 211.069 50.8946 211.069 48.2066ZM204.653 48.2066C204.653 46.5746 205.773 45.7586 206.925 45.7266C208.109 45.6946 209.325 46.5266 209.325 48.2066C209.325 49.8546 208.173 50.6866 207.021 50.7026C205.837 50.7186 204.653 49.8866 204.653 48.2066ZM220.715 52.0946V47.5666C220.715 45.6626 219.755 44.2226 217.659 44.2226C216.651 44.2226 215.467 44.5906 215.035 45.5666C215.035 44.0946 213.739 44.1586 212.619 44.3666V45.5026C213.403 45.4546 213.435 45.7106 213.435 46.6226V52.0946H215.195V47.7106C215.195 46.4626 216.059 45.6146 217.147 45.6146C218.187 45.6306 218.971 46.3666 218.955 47.5666V52.0946H220.715ZM222.658 49.8226C222.786 51.7426 224.482 52.2866 226.194 52.2866C227.906 52.2866 229.554 51.5506 229.554 49.8386C229.554 48.0146 227.986 47.7426 226.37 47.5346C225.17 47.3906 224.546 47.2466 224.53 46.6066C224.482 45.9186 225.314 45.5346 226.114 45.5346C226.93 45.5346 227.858 45.7746 227.858 46.5426H229.394C229.442 45.0066 227.89 44.2226 226.114 44.2226C224.434 44.2226 222.834 44.9906 222.834 46.6386C222.882 48.3826 224.658 48.5586 226.242 48.7666C227.25 48.8946 227.97 49.1026 227.97 49.8066C227.922 50.7506 226.978 50.9906 226.13 50.9906C225.298 50.9906 224.418 50.6226 224.37 49.8226H222.658ZM109.128 76.1746L111.176 71.5186L113.24 76.1746H114.024L117.08 68.5746V68.3826H115.192C114.872 69.2786 114.536 70.1426 114.232 71.0386L113.496 73.1666H113.448L111.608 68.5586H110.744L108.904 73.1506H108.872L108.152 71.0386L107.176 68.3826H105.304V68.5746L108.344 76.1746H109.128ZM118.687 65.9986C118.687 66.7026 119.231 67.0546 119.759 67.0386C120.271 67.0226 120.783 66.6866 120.783 65.9986C120.783 65.3266 120.271 64.9746 119.743 64.9746C119.215 64.9746 118.687 65.3106 118.687 65.9986ZM120.607 68.4626H118.863V76.0946H120.607V68.4626ZM125.693 66.0146H124.157L123.981 68.3986H122.413V69.5346L123.981 69.6466V73.1506C123.981 76.1746 126.045 76.7826 128.685 75.9666L128.509 74.6546C126.925 75.2146 125.693 75.0866 125.693 73.1186V69.6466H128.365V68.3986H125.693V66.0146ZM137.72 76.0946V71.5346C137.72 69.5506 136.792 68.2066 134.664 68.2066C133.64 68.2066 132.84 68.4466 132.184 69.3266V64.3986H130.44V76.0946H132.184V71.6306C132.184 70.3666 133.032 69.5986 134.168 69.5986C135.256 69.6146 135.976 70.2546 135.96 71.5346V76.0946H137.72ZM144.132 72.9106C144.18 75.2626 146.468 76.3506 148.66 76.3026C150.756 76.3026 153.076 75.3746 153.076 72.9106C153.076 70.3346 150.996 69.8866 148.724 69.6306C147.428 69.4546 146.164 69.2946 146.164 68.0306C146.164 66.7666 147.492 66.3506 148.516 66.3506C149.62 66.3506 150.884 66.7346 150.964 67.9346H152.724C152.676 65.6466 150.66 64.6866 148.532 64.6866C146.356 64.6866 144.324 65.7746 144.324 68.0786C144.324 70.3186 146.356 70.9746 148.404 71.1506C149.7 71.2786 151.22 71.4226 151.22 72.8946C151.22 74.2866 149.812 74.6386 148.628 74.6386C147.412 74.6386 146.036 74.1746 145.956 72.9106H144.132ZM162.54 70.9426C162.124 69.0546 160.476 68.1426 158.796 68.1586C156.796 68.1746 154.748 69.5506 154.748 72.2066C154.748 74.8786 156.796 76.2226 158.812 76.2226C160.508 76.2226 162.188 75.2626 162.588 73.3106H160.924C160.572 74.2546 159.708 74.7186 158.844 74.7186C157.676 74.7186 156.476 73.8706 156.476 72.2066C156.476 70.5746 157.692 69.7106 158.876 69.7106C159.772 69.7106 160.588 70.1106 160.924 70.9426H162.54ZM172.259 72.2066C172.259 69.5026 170.179 68.1586 168.115 68.1906C166.099 68.2226 164.115 69.5506 164.115 72.2066C164.115 74.8946 166.147 76.2386 168.179 76.2386C170.211 76.2386 172.259 74.8946 172.259 72.2066ZM165.843 72.2066C165.843 70.5746 166.963 69.7586 168.115 69.7266C169.299 69.6946 170.515 70.5266 170.515 72.2066C170.515 73.8546 169.363 74.6866 168.211 74.7026C167.027 74.7186 165.843 73.8866 165.843 72.2066ZM176.256 69.5026C176.176 68.2546 174.928 68.0626 173.792 68.3186L173.808 69.5026C174.64 69.4546 174.64 69.8066 174.64 70.4946V76.0946H176.368V71.6306C176.368 70.3826 177.296 69.7106 178.336 69.7106C178.896 69.7106 179.408 69.8706 179.872 70.1746L180.304 68.6706C179.808 68.3026 179.168 68.1106 178.528 68.1266C177.584 68.1266 176.56 68.6066 176.256 69.5026ZM185.239 68.2066C183.143 68.2066 181.287 69.5026 181.239 72.0786C181.159 74.6866 183.031 76.3186 185.575 76.2706C186.551 76.2706 187.591 76.0146 188.487 75.6146L188.263 74.3186C187.351 74.7186 186.423 74.8466 185.463 74.7986C184.055 74.7986 182.951 73.9666 182.951 72.5586H188.647C189.159 69.9986 187.943 68.2066 185.239 68.2066ZM185.223 69.5506C186.327 69.5506 187.287 70.1586 187.239 71.3266H182.983C183.223 70.1106 184.071 69.5506 185.223 69.5506ZM105.72 96.9106C105.768 99.2626 108.056 100.351 110.248 100.303C112.344 100.303 114.664 99.3746 114.664 96.9106C114.664 94.3346 112.584 93.8866 110.312 93.6306C109.016 93.4546 107.752 93.2946 107.752 92.0306C107.752 90.7666 109.08 90.3506 110.104 90.3506C111.208 90.3506 112.472 90.7346 112.552 91.9346H114.312C114.264 89.6466 112.248 88.6866 110.12 88.6866C107.944 88.6866 105.912 89.7746 105.912 92.0786C105.912 94.3186 107.944 94.9746 109.992 95.1506C111.288 95.2786 112.808 95.4226 112.808 96.8946C112.808 98.2866 111.4 98.6386 110.216 98.6386C109 98.6386 107.624 98.1746 107.544 96.9106H105.72ZM116.577 89.9986C116.577 90.7026 117.121 91.0546 117.649 91.0386C118.161 91.0226 118.673 90.6866 118.673 89.9986C118.673 89.3266 118.161 88.9746 117.633 88.9746C117.105 88.9746 116.577 89.3106 116.577 89.9986ZM118.497 92.4626H116.753V100.095H118.497V92.4626ZM133.312 100.095V95.5826C133.36 93.7266 132.816 92.2226 130.704 92.2226C129.52 92.2226 128.32 92.6546 127.888 93.6786C127.584 92.7346 126.896 92.2226 125.552 92.2226C124.496 92.2226 123.36 92.7026 122.928 93.6466C122.976 92.0306 121.536 92.1106 120.512 92.3666L120.528 93.4386C121.296 93.3906 121.344 93.6786 121.344 94.5746V100.095H123.088V95.6466C123.088 94.4306 123.872 93.6626 124.96 93.6466C126.048 93.6306 126.544 94.4306 126.544 95.6306V100.095H128.256V95.6306C128.272 94.4146 128.992 93.6466 130.064 93.6306C131.088 93.6146 131.568 94.4306 131.552 95.5826V100.095H133.312ZM141.095 92.3826V96.7986C141.095 98.0306 140.247 98.8306 139.143 98.8306C138.119 98.8306 137.463 98.0786 137.479 96.8466V92.3826H135.719V96.8466C135.719 98.7346 136.471 100.223 138.599 100.223C139.687 100.223 140.743 99.8866 141.271 98.8466C141.271 100.511 142.679 100.303 143.671 100.127L143.655 98.9906C142.919 99.0706 142.839 98.8146 142.839 97.8866V92.3826H141.095ZM145.602 88.3826V97.3426C145.602 99.9186 146.69 100.527 149.058 100.143L148.994 98.7986C147.666 99.0066 147.33 98.6066 147.33 97.3266V88.3826H145.602ZM155.619 98.7986C155.667 100.319 156.611 100.319 157.827 100.111L157.795 99.1186C156.963 99.1986 156.995 98.7346 156.995 98.0146V94.9746C156.995 92.8466 155.331 92.1906 153.459 92.1906C152.435 92.1906 151.395 92.3986 150.611 92.7986L150.867 94.0466C151.827 93.5666 155.299 92.8946 155.299 94.9266V95.6946C154.611 95.3106 153.763 95.1186 153.011 95.1186C151.315 95.1186 149.971 95.9986 150.019 97.8386C150.019 99.3426 151.379 100.239 152.787 100.239C153.875 100.239 155.107 99.8226 155.619 98.7986ZM155.299 97.4546C155.123 98.4306 154.051 98.8626 153.139 98.8626C152.435 98.8626 151.731 98.5106 151.731 97.7426C151.731 96.7986 152.451 96.3026 153.299 96.2866C153.987 96.2706 154.723 96.4786 155.299 96.8146V97.4546ZM162.036 90.0146H160.5L160.324 92.3986H158.756V93.5346L160.324 93.6466V97.1506C160.324 100.175 162.388 100.783 165.028 99.9666L164.852 98.6546C163.268 99.2146 162.036 99.0866 162.036 97.1186V93.6466H164.708V92.3986H162.036V90.0146ZM174.446 96.2066C174.446 93.5026 172.366 92.1586 170.302 92.1906C168.286 92.2226 166.302 93.5506 166.302 96.2066C166.302 98.8946 168.334 100.239 170.366 100.239C172.398 100.239 174.446 98.8946 174.446 96.2066ZM168.03 96.2066C168.03 94.5746 169.15 93.7586 170.302 93.7266C171.486 93.6946 172.702 94.5266 172.702 96.2066C172.702 97.8546 171.55 98.6866 170.398 98.7026C169.214 98.7186 168.03 97.8866 168.03 96.2066ZM178.443 93.5026C178.363 92.2546 177.115 92.0626 175.979 92.3186L175.995 93.5026C176.827 93.4546 176.827 93.8066 176.827 94.4946V100.095H178.555V95.6306C178.555 94.3826 179.483 93.7106 180.523 93.7106C181.083 93.7106 181.595 93.8706 182.059 94.1746L182.491 92.6706C181.995 92.3026 181.355 92.1106 180.715 92.1266C179.771 92.1266 178.747 92.6066 178.443 93.5026Z" fill="#2C2C2C"/>
<path d="M45.4867 85.1648C62.0296 85.1648 75.4402 71.6964 75.4402 55.0824C75.4402 38.4683 62.0296 25 45.4867 25C28.9438 25 15.5331 38.4683 15.5331 55.0824C15.5331 71.6964 28.9438 85.1648 45.4867 85.1648Z" fill="white"/>
<path d="M64.0926 46.997C58.748 42.4017 51.944 39.8761 44.9083 39.8761C37.8725 39.8761 31.0685 42.4017 25.7239 46.997L42.2875 66.3357H47.5225L64.0926 46.997Z" fill="#C1D5DA"/>
<path d="M64.0922 46.9967L47.5287 66.3354H73.0275C73.0066 62.6569 72.1978 59.0259 70.656 55.6891C69.1143 52.3523 66.8757 49.3878 64.0922 46.9967Z" fill="white"/>
<path d="M25.7303 46.9967C22.9477 49.3881 20.7101 52.3529 19.1695 55.6898C17.6288 59.0266 16.8212 62.6573 16.8015 66.3354H42.2939L25.7303 46.9967Z" fill="#85ACB5"/>
<path d="M44.9146 95.3012C54.6047 95.3012 62.4601 87.412 62.4601 77.6802C62.4601 67.9484 54.6047 60.0592 44.9146 60.0592C35.2245 60.0592 27.3691 67.9484 27.3691 77.6802C27.3691 87.412 35.2245 95.3012 44.9146 95.3012Z" fill="#006685"/>
<path d="M44.9145 38.2451C36.9807 38.2451 29.3718 41.4103 23.7617 47.0445C18.1517 52.6787 15 60.3204 15 68.2883H74.8291C74.8291 60.3204 71.6773 52.6787 66.0673 47.0445C60.4572 41.4103 52.8484 38.2451 44.9145 38.2451Z" stroke="#006685" stroke-width="4" stroke-miterlimit="10"/>
<path d="M35.0688 80.7431C35.0688 78.7838 35.0688 76.7853 35.0688 74.8064C35.0688 74.1532 35.2183 74.0161 35.8361 74.0161H39.738C40.3883 74.0161 40.5184 74.1794 40.5184 74.7933V86.7191C40.5184 87.32 40.3493 87.4898 39.764 87.4898H35.8036C35.2119 87.4898 35.0493 87.3265 35.0493 86.7257C35.0623 84.7598 35.0688 82.7351 35.0688 80.7431Z" fill="white"/>
<path d="M54.3962 77.2753C54.6237 76.9412 54.7497 76.5479 54.759 76.1433C54.7682 75.7387 54.6603 75.3401 54.4483 74.9959C54.2761 74.6689 54.011 74.4006 53.6869 74.225C53.3627 74.0495 52.994 73.9745 52.6273 74.0097C51.4633 74.0097 50.3057 74.0097 49.1482 74.0097H48.6929L48.901 73.6178C49.1091 73.1867 50.7284 70.8682 50.3122 68.0402C50.0716 66.414 48.5563 65.8719 47.7109 67.7594C47.3228 68.6154 46.8524 69.4313 46.3063 70.1955C46.2788 70.2276 46.2548 70.2627 46.2348 70.3C45.5948 71.3305 44.7856 72.2447 43.8416 73.0039C43.1912 73.5198 42.5409 73.9836 41.8906 74.493C41.7454 74.6043 41.6496 74.7685 41.624 74.9501C41.624 78.8427 41.624 82.7374 41.624 86.6343C41.6323 86.717 41.6588 86.7968 41.7015 86.8679C41.7443 86.9391 41.8022 86.9998 41.8711 87.0458C42.4881 87.3772 43.1813 87.5394 43.8806 87.516C46.2153 87.516 48.5433 87.4638 50.8779 87.516C51.209 87.5179 51.5355 87.4385 51.8292 87.285C52.1229 87.1314 52.3748 86.9083 52.5632 86.6348C52.7515 86.3614 52.8707 86.0459 52.9102 85.7157C52.9497 85.3856 52.9084 85.0508 52.7899 84.7403C52.7379 84.6097 52.6989 84.4791 52.6534 84.3615C53.954 83.4863 54.136 82.9247 53.6548 81.1678C53.9532 80.9999 54.2101 80.7664 54.406 80.4849C54.602 80.2033 54.732 79.8809 54.7864 79.5417C54.8408 79.2025 54.8182 78.8555 54.7202 78.5263C54.6222 78.1972 54.4514 77.8945 54.2206 77.641C54.2466 77.5103 54.3246 77.3994 54.3962 77.2753Z" fill="white"/>
</svg>
