<svg width="354" height="100" viewBox="0 0 354 100" fill="none" xmlns="http://www.w3.org/2000/svg">
<path d="M0 0H354V100H0V0Z" fill="white"/>
<path d="M0 0H90V100H0V0Z" fill="#FCD800"/>
<path d="M110.664 42.144C113.048 42.144 115 40.736 115 38.24V30.8H113.16V38.192C113.16 39.664 112.072 40.48 110.664 40.48C109.24 40.48 108.136 39.664 108.136 38.192V30.8H106.28V38.24C106.28 40.736 108.248 42.144 110.664 42.144ZM125.18 42V37.472C125.18 35.568 124.22 34.128 122.123 34.128C121.115 34.128 119.931 34.496 119.499 35.472C119.499 34 118.203 34.064 117.083 34.272V35.408C117.867 35.36 117.899 35.616 117.899 36.528V42H119.659V37.616C119.659 36.368 120.523 35.52 121.611 35.52C122.651 35.536 123.436 36.272 123.419 37.472V42H125.18ZM127.587 30.288V39.248C127.587 41.824 128.675 42.432 131.043 42.048L130.979 40.704C129.651 40.912 129.315 40.512 129.315 39.232V30.288H127.587ZM132.436 31.904C132.436 32.608 132.98 32.96 133.508 32.944C134.02 32.928 134.532 32.592 134.532 31.904C134.532 31.232 134.02 30.88 133.492 30.88C132.964 30.88 132.436 31.216 132.436 31.904ZM134.356 34.368H132.612V42H134.356V34.368ZM149.171 42V37.488C149.219 35.632 148.675 34.128 146.563 34.128C145.379 34.128 144.179 34.56 143.747 35.584C143.443 34.64 142.755 34.128 141.411 34.128C140.355 34.128 139.219 34.608 138.787 35.552C138.835 33.936 137.395 34.016 136.371 34.272L136.387 35.344C137.155 35.296 137.203 35.584 137.203 36.48V42H138.947V37.552C138.947 36.336 139.731 35.568 140.819 35.552C141.907 35.536 142.403 36.336 142.403 37.536V42H144.115V37.536C144.131 36.32 144.851 35.552 145.923 35.536C146.947 35.52 147.427 36.336 147.411 37.488V42H149.171ZM151.513 31.904C151.513 32.608 152.057 32.96 152.585 32.944C153.097 32.928 153.609 32.592 153.609 31.904C153.609 31.232 153.097 30.88 152.569 30.88C152.041 30.88 151.513 31.216 151.513 31.904ZM153.433 34.368H151.689V42H153.433V34.368ZM158.52 31.92H156.984L156.808 34.304H155.24V35.44L156.808 35.552V39.056C156.808 42.08 158.872 42.688 161.512 41.872L161.336 40.56C159.752 41.12 158.52 40.992 158.52 39.024V35.552H161.192V34.304H158.52V31.92ZM166.787 34.112C164.691 34.112 162.835 35.408 162.787 37.984C162.707 40.592 164.579 42.224 167.123 42.176C168.099 42.176 169.139 41.92 170.035 41.52L169.811 40.224C168.899 40.624 167.971 40.752 167.011 40.704C165.603 40.704 164.499 39.872 164.499 38.464H170.195C170.707 35.904 169.491 34.112 166.787 34.112ZM166.771 35.456C167.875 35.456 168.835 36.064 168.787 37.232H164.531C164.771 36.016 165.619 35.456 166.771 35.456ZM178.031 40.816C178.031 42.112 179.087 42.224 180.287 42.016L180.255 40.816C179.375 40.816 179.455 40.48 179.455 39.6V30.288H177.711V34.768C177.007 34.352 176.255 34.176 175.567 34.176C173.583 34.176 171.919 35.744 171.919 38.128C171.919 40.288 173.167 42.208 175.471 42.16C176.607 42.16 177.519 41.728 178.031 40.592V40.816ZM177.743 38.464C177.743 39.632 176.943 40.608 175.743 40.608C174.319 40.608 173.647 39.456 173.647 38.128C173.647 36.56 174.639 35.712 175.839 35.696C176.447 35.68 177.119 35.872 177.743 36.304V38.464ZM191.688 40.704C191.736 42.224 192.68 42.224 193.896 42.016L193.864 41.024C193.032 41.104 193.064 40.64 193.064 39.92V36.88C193.064 34.752 191.4 34.096 189.528 34.096C188.504 34.096 187.464 34.304 186.68 34.704L186.936 35.952C187.896 35.472 191.368 34.8 191.368 36.832V37.6C190.68 37.216 189.832 37.024 189.08 37.024C187.384 37.024 186.04 37.904 186.088 39.744C186.088 41.248 187.448 42.144 188.856 42.144C189.944 42.144 191.176 41.728 191.688 40.704ZM191.368 39.36C191.192 40.336 190.12 40.768 189.208 40.768C188.504 40.768 187.8 40.416 187.8 39.648C187.8 38.704 188.52 38.208 189.368 38.192C190.056 38.176 190.792 38.384 191.368 38.72V39.36ZM203.093 36.848C202.677 34.96 201.029 34.048 199.349 34.064C197.349 34.08 195.301 35.456 195.301 38.112C195.301 40.784 197.349 42.128 199.365 42.128C201.061 42.128 202.741 41.168 203.141 39.216H201.477C201.125 40.16 200.261 40.624 199.397 40.624C198.229 40.624 197.029 39.776 197.029 38.112C197.029 36.48 198.245 35.616 199.429 35.616C200.325 35.616 201.141 36.016 201.477 36.848H203.093ZM212.46 36.848C212.044 34.96 210.396 34.048 208.716 34.064C206.716 34.08 204.668 35.456 204.668 38.112C204.668 40.784 206.716 42.128 208.732 42.128C210.428 42.128 212.108 41.168 212.508 39.216H210.844C210.492 40.16 209.628 40.624 208.764 40.624C207.596 40.624 206.396 39.776 206.396 38.112C206.396 36.48 207.612 35.616 208.796 35.616C209.692 35.616 210.508 36.016 210.844 36.848H212.46ZM218.035 34.112C215.939 34.112 214.083 35.408 214.035 37.984C213.955 40.592 215.827 42.224 218.371 42.176C219.347 42.176 220.387 41.92 221.283 41.52L221.059 40.224C220.147 40.624 219.219 40.752 218.259 40.704C216.851 40.704 215.747 39.872 215.747 38.464H221.443C221.955 35.904 220.739 34.112 218.035 34.112ZM218.019 35.456C219.123 35.456 220.083 36.064 220.035 37.232H215.779C216.019 36.016 216.867 35.456 218.019 35.456ZM223.103 39.728C223.231 41.648 224.927 42.192 226.639 42.192C228.351 42.192 229.999 41.456 229.999 39.744C229.999 37.92 228.431 37.648 226.815 37.44C225.615 37.296 224.991 37.152 224.975 36.512C224.927 35.824 225.759 35.44 226.559 35.44C227.375 35.44 228.303 35.68 228.303 36.448H229.839C229.887 34.912 228.335 34.128 226.559 34.128C224.879 34.128 223.279 34.896 223.279 36.544C223.327 38.288 225.103 38.464 226.687 38.672C227.695 38.8 228.415 39.008 228.415 39.712C228.367 40.656 227.423 40.896 226.575 40.896C225.743 40.896 224.863 40.528 224.815 39.728H223.103ZM231.548 39.728C231.676 41.648 233.372 42.192 235.084 42.192C236.796 42.192 238.444 41.456 238.444 39.744C238.444 37.92 236.876 37.648 235.26 37.44C234.06 37.296 233.436 37.152 233.42 36.512C233.372 35.824 234.204 35.44 235.004 35.44C235.82 35.44 236.748 35.68 236.748 36.448H238.284C238.332 34.912 236.78 34.128 235.004 34.128C233.324 34.128 231.724 34.896 231.724 36.544C231.772 38.288 233.548 38.464 235.132 38.672C236.14 38.8 236.86 39.008 236.86 39.712C236.812 40.656 235.868 40.896 235.02 40.896C234.188 40.896 233.308 40.528 233.26 39.728H231.548ZM246.994 31.92H245.458L245.282 34.304H243.714V35.44L245.282 35.552V39.056C245.282 42.08 247.346 42.688 249.986 41.872L249.81 40.56C248.226 41.12 246.994 40.992 246.994 39.024V35.552H249.666V34.304H246.994V31.92ZM259.404 38.112C259.404 35.408 257.324 34.064 255.26 34.096C253.244 34.128 251.26 35.456 251.26 38.112C251.26 40.8 253.292 42.144 255.324 42.144C257.356 42.144 259.404 40.8 259.404 38.112ZM252.988 38.112C252.988 36.48 254.108 35.664 255.26 35.632C256.444 35.6 257.66 36.432 257.66 38.112C257.66 39.76 256.508 40.592 255.356 40.608C254.172 40.624 252.988 39.792 252.988 38.112ZM272.739 34.48V34.288H270.995L269.971 36.992L268.803 40.368H268.755L267.491 36.976L266.355 34.288H264.483V34.48L267.955 42.048L267.587 42.992C267.123 44.272 266.451 44.944 265.075 44.336L264.867 45.6C267.539 46.752 268.499 44.928 269.395 42.656L272.739 34.48ZM281.973 38.112C281.973 35.408 279.893 34.064 277.829 34.096C275.813 34.128 273.829 35.456 273.829 38.112C273.829 40.8 275.861 42.144 277.893 42.144C279.925 42.144 281.973 40.8 281.973 38.112ZM275.557 38.112C275.557 36.48 276.677 35.664 277.829 35.632C279.013 35.6 280.229 36.432 280.229 38.112C280.229 39.76 279.077 40.592 277.925 40.608C276.741 40.624 275.557 39.792 275.557 38.112ZM289.362 34.288V38.704C289.362 39.936 288.514 40.736 287.41 40.736C286.386 40.736 285.73 39.984 285.746 38.752V34.288H283.986V38.752C283.986 40.64 284.738 42.128 286.866 42.128C287.954 42.128 289.01 41.792 289.538 40.752C289.538 42.416 290.946 42.208 291.938 42.032L291.922 40.896C291.186 40.976 291.106 40.72 291.106 39.792V34.288H289.362ZM295.837 35.408C295.757 34.16 294.509 33.968 293.373 34.224L293.389 35.408C294.221 35.36 294.221 35.712 294.221 36.4V42H295.949V37.536C295.949 36.288 296.877 35.616 297.917 35.616C298.477 35.616 298.989 35.776 299.453 36.08L299.885 34.576C299.389 34.208 298.749 34.016 298.109 34.032C297.165 34.032 296.141 34.512 295.837 35.408ZM105.736 60.416C105.736 64.016 108.376 66.112 111.416 66.112C113.688 66.112 115.992 64.912 116.552 62.176H114.744C114.248 63.664 112.952 64.416 111.416 64.416C109.128 64.416 107.608 62.64 107.608 60.416C107.608 58.032 109.128 56.368 111.416 56.368C112.888 56.384 114.136 57.024 114.696 58.416H116.488C115.896 55.888 113.624 54.672 111.432 54.672C108.376 54.672 105.736 56.8 105.736 60.416ZM121.748 64.496V56.288H123.38V54.8H118.26V56.288H119.892V64.496H118.116V66H123.524V64.496H121.748ZM133.94 57.952C133.94 55.84 132.452 54.8 130.42 54.8H125.876V66H130.884C133.06 66 134.436 64.704 134.436 62.704C134.436 61.44 133.796 60.512 132.628 60.112C133.508 59.68 133.94 58.896 133.94 57.952ZM130.292 56.416C131.38 56.416 132.116 56.896 132.116 58C132.1 59.088 131.364 59.504 130.292 59.504H127.732V56.416H130.292ZM130.564 61.024C131.076 61.024 131.588 61.056 132.02 61.376C132.404 61.696 132.596 62.144 132.596 62.704C132.548 63.776 131.812 64.368 130.772 64.368H127.732V61.024H130.564ZM139.779 64.496V56.288H141.411V54.8H136.291V56.288H137.923V64.496H136.147V66H141.555V64.496H139.779ZM145.778 54.8H143.906V66H150.594V64.32H145.778V54.8ZM156.437 54.816V66H160.485C164.005 66 165.957 63.328 165.957 60.384C165.957 57.44 163.973 54.816 160.485 54.816H156.437ZM158.293 64.304V56.496H160.469C162.757 56.496 164.101 58.288 164.101 60.4C164.101 62.512 162.773 64.304 160.453 64.304H158.293ZM173.072 64.704C173.12 66.224 174.064 66.224 175.28 66.016L175.248 65.024C174.416 65.104 174.448 64.64 174.448 63.92V60.88C174.448 58.752 172.784 58.096 170.912 58.096C169.888 58.096 168.848 58.304 168.064 58.704L168.32 59.952C169.28 59.472 172.752 58.8 172.752 60.832V61.6C172.064 61.216 171.216 61.024 170.464 61.024C168.768 61.024 167.424 61.904 167.472 63.744C167.472 65.248 168.832 66.144 170.24 66.144C171.328 66.144 172.56 65.728 173.072 64.704ZM172.752 63.36C172.576 64.336 171.504 64.768 170.592 64.768C169.888 64.768 169.184 64.416 169.184 63.648C169.184 62.704 169.904 62.208 170.752 62.192C171.44 62.176 172.176 62.384 172.752 62.72V63.36ZM176.621 63.728C176.749 65.648 178.445 66.192 180.157 66.192C181.869 66.192 183.517 65.456 183.517 63.744C183.517 61.92 181.949 61.648 180.333 61.44C179.133 61.296 178.509 61.152 178.493 60.512C178.445 59.824 179.277 59.44 180.077 59.44C180.893 59.44 181.821 59.68 181.821 60.448H183.357C183.405 58.912 181.853 58.128 180.077 58.128C178.397 58.128 176.797 58.896 176.797 60.544C176.845 62.288 178.621 62.464 180.205 62.672C181.213 62.8 181.933 63.008 181.933 63.712C181.885 64.656 180.941 64.896 180.093 64.896C179.261 64.896 178.381 64.528 178.333 63.728H176.621ZM192.89 66V61.44C192.89 59.456 191.962 58.112 189.834 58.112C188.81 58.112 188.01 58.352 187.354 59.232V54.304H185.61V66H187.354V61.536C187.354 60.272 188.202 59.504 189.338 59.504C190.426 59.52 191.146 60.16 191.13 61.44V66H192.89ZM195.335 65.6C196.327 65.984 197.527 66.224 198.583 66.24C200.887 66.256 202.983 65.2 202.983 62.224C202.983 59.76 201.319 58.176 199.303 58.176C198.615 58.176 197.815 58.368 197.079 58.752V54.304H195.335V65.6ZM197.047 60.256C197.687 59.872 198.423 59.712 199.031 59.728C200.231 59.776 201.239 60.608 201.239 62.224C201.239 64.096 200.135 64.8 198.759 64.816C198.247 64.816 197.607 64.72 197.047 64.56V60.256ZM212.757 62.112C212.757 59.408 210.677 58.064 208.613 58.096C206.597 58.128 204.613 59.456 204.613 62.112C204.613 64.8 206.645 66.144 208.677 66.144C210.709 66.144 212.757 64.8 212.757 62.112ZM206.341 62.112C206.341 60.48 207.461 59.664 208.613 59.632C209.797 59.6 211.013 60.432 211.013 62.112C211.013 63.76 209.861 64.592 208.709 64.608C207.525 64.624 206.341 63.792 206.341 62.112ZM219.875 64.704C219.923 66.224 220.867 66.224 222.083 66.016L222.051 65.024C221.219 65.104 221.251 64.64 221.251 63.92V60.88C221.251 58.752 219.587 58.096 217.715 58.096C216.691 58.096 215.651 58.304 214.867 58.704L215.123 59.952C216.083 59.472 219.555 58.8 219.555 60.832V61.6C218.867 61.216 218.019 61.024 217.267 61.024C215.571 61.024 214.227 61.904 214.275 63.744C214.275 65.248 215.635 66.144 217.043 66.144C218.131 66.144 219.363 65.728 219.875 64.704ZM219.555 63.36C219.379 64.336 218.307 64.768 217.395 64.768C216.691 64.768 215.987 64.416 215.987 63.648C215.987 62.704 216.707 62.208 217.555 62.192C218.243 62.176 218.979 62.384 219.555 62.72V63.36ZM225.856 59.408C225.776 58.16 224.528 57.968 223.392 58.224L223.408 59.408C224.24 59.36 224.24 59.712 224.24 60.4V66H225.968V61.536C225.968 60.288 226.896 59.616 227.936 59.616C228.496 59.616 229.008 59.776 229.472 60.08L229.904 58.576C229.408 58.208 228.768 58.016 228.128 58.032C227.184 58.032 226.16 58.512 225.856 59.408ZM236.936 64.816C236.936 66.112 237.992 66.224 239.192 66.016L239.16 64.816C238.28 64.816 238.36 64.48 238.36 63.6V54.288H236.616V58.768C235.912 58.352 235.16 58.176 234.472 58.176C232.488 58.176 230.824 59.744 230.824 62.128C230.824 64.288 232.072 66.208 234.376 66.16C235.512 66.16 236.424 65.728 236.936 64.592V64.816ZM236.648 62.464C236.648 63.632 235.848 64.608 234.648 64.608C233.224 64.608 232.552 63.456 232.552 62.128C232.552 60.56 233.544 59.712 234.744 59.696C235.352 59.68 236.024 59.872 236.648 60.304V62.464Z" fill="#2C2C2C"/>
<path d="M45 77.2667C62.1208 77.2667 76 63.3278 76 46.1333C76 28.9389 62.1208 15 45 15C27.8792 15 14 28.9389 14 46.1333C14 63.3278 27.8792 77.2667 45 77.2667Z" fill="white"/>
<rect x="14" y="36.082" width="61" height="39.1849" rx="4" fill="white" stroke="#006685" stroke-width="4"/>
<rect x="34.2554" y="80.5308" width="20.4892" height="2.51075" rx="1.25538" fill="white" stroke="#006685" stroke-width="2.51075"/>
<rect x="42.5065" y="74.7565" width="3.9871" height="3.0129" fill="white" stroke="#006685" stroke-width="3.0129"/>
<mask id="path-8-inside-1_249:107" fill="white">
<path d="M31.9404 63.6599V68.5724C31.9404 68.7795 31.9802 68.9847 32.0575 69.1761C32.1349 69.3674 32.2482 69.5414 32.3911 69.6878C32.5339 69.8343 32.7036 69.9505 32.8902 70.0298C33.0769 70.1091 33.277 70.1499 33.479 70.1499H37.1113C37.5188 70.1489 37.9092 69.9823 38.197 69.6866C38.4848 69.3908 38.6464 68.9901 38.6464 68.5724V63.415"/>
</mask>
<path d="M31.9404 63.6599V68.5724C31.9404 68.7795 31.9802 68.9847 32.0575 69.1761C32.1349 69.3674 32.2482 69.5414 32.3911 69.6878C32.5339 69.8343 32.7036 69.9505 32.8902 70.0298C33.0769 70.1091 33.277 70.1499 33.479 70.1499H37.1113C37.5188 70.1489 37.9092 69.9823 38.197 69.6866C38.4848 69.3908 38.6464 68.9901 38.6464 68.5724V63.415" fill="#006685"/>
<path d="M31.9404 68.5724L30.9404 68.5724L31.9404 68.5724ZM37.1113 70.1499L37.1113 71.1499L37.1136 71.1498L37.1113 70.1499ZM38.6464 68.5724L37.6464 68.5724L37.6464 68.5724L38.6464 68.5724ZM30.9404 63.6599V68.5724H32.9404V63.6599H30.9404ZM30.9404 68.5724C30.9404 68.9074 31.0047 69.2398 31.1304 69.5507L32.9847 68.8015C32.9557 68.7296 32.9404 68.6517 32.9404 68.5724L30.9404 68.5724ZM31.1304 69.5507C31.2559 69.8615 31.4407 70.1456 31.6752 70.3861L33.1069 68.9896C33.0557 68.9371 33.0138 68.8734 32.9847 68.8015L31.1304 69.5507ZM31.6752 70.3861C31.9098 70.6266 32.1896 70.8187 32.4994 70.9502L33.2811 69.1093C33.2175 69.0823 33.1581 69.0421 33.1069 68.9896L31.6752 70.3861ZM32.4994 70.9502C32.8092 71.0818 33.1422 71.1499 33.479 71.1499V69.1499C33.4118 69.1499 33.3446 69.1363 33.2811 69.1093L32.4994 70.9502ZM33.479 71.1499H37.1113V69.1499H33.479V71.1499ZM37.1136 71.1498C37.794 71.1483 38.4409 70.8698 38.9137 70.384L37.4803 68.9891C37.3776 69.0948 37.2435 69.1495 37.109 69.1499L37.1136 71.1498ZM38.9137 70.384C39.3857 69.899 39.6464 69.247 39.6464 68.5724L37.6464 68.5724C37.6464 68.7333 37.5839 68.8827 37.4803 68.9891L38.9137 70.384ZM39.6464 68.5724V63.415H37.6464V68.5724H39.6464Z" fill="#006685" mask="url(#path-8-inside-1_249:107)"/>
<mask id="path-10-inside-2_249:107" fill="white">
<path d="M40.8818 62.8554V68.5613C40.8818 68.7699 40.9216 68.9765 40.9989 69.1693C41.0762 69.362 41.1894 69.5372 41.3322 69.6847C41.475 69.8323 41.6446 69.9493 41.8312 70.0291C42.0177 70.109 42.2177 70.1501 42.4196 70.1501H46.05C46.2519 70.1501 46.4519 70.109 46.6385 70.0291C46.8251 69.9493 46.9946 69.8323 47.1374 69.6847C47.2802 69.5372 47.3935 69.362 47.4708 69.1693C47.548 68.9765 47.5878 68.7699 47.5878 68.5613V60.0479"/>
</mask>
<path d="M40.8818 62.8554V68.5613C40.8818 68.7699 40.9216 68.9765 40.9989 69.1693C41.0762 69.362 41.1894 69.5372 41.3322 69.6847C41.475 69.8323 41.6446 69.9493 41.8312 70.0291C42.0177 70.109 42.2177 70.1501 42.4196 70.1501H46.05C46.2519 70.1501 46.4519 70.109 46.6385 70.0291C46.8251 69.9493 46.9946 69.8323 47.1374 69.6847C47.2802 69.5372 47.3935 69.362 47.4708 69.1693C47.548 68.9765 47.5878 68.7699 47.5878 68.5613V60.0479" fill="#006685"/>
<path d="M40.8818 68.5613L39.8818 68.5613L40.8818 68.5613ZM42.4196 70.1501V71.1501V70.1501ZM39.8818 62.8554V68.5613H41.8818V62.8554H39.8818ZM39.8818 68.5613C39.8818 68.8968 39.9457 69.2297 40.0707 69.5414L41.9271 68.7972C41.8975 68.7233 41.8818 68.6431 41.8818 68.5613L39.8818 68.5613ZM40.0707 69.5414C40.1957 69.8531 40.3796 70.1384 40.6137 70.3802L42.0508 68.9893C41.9992 68.936 41.9567 68.871 41.9271 68.7972L40.0707 69.5414ZM40.6137 70.3802C40.8478 70.6221 41.1275 70.8158 41.4377 70.9485L42.2246 69.1098C42.1616 69.0828 42.1022 69.0424 42.0508 68.9893L40.6137 70.3802ZM41.4377 70.9485C41.748 71.0813 42.0818 71.1501 42.4196 71.1501L42.4196 69.1501C42.3536 69.1501 42.2874 69.1367 42.2246 69.1098L41.4377 70.9485ZM42.4196 71.1501H46.05V69.1501H42.4196V71.1501ZM46.05 71.1501C46.3878 71.1501 46.7216 71.0813 47.0319 70.9485L46.2451 69.1098C46.1822 69.1367 46.116 69.1501 46.05 69.1501V71.1501ZM47.0319 70.9485C47.3421 70.8158 47.6218 70.6221 47.8559 70.3802L46.4189 68.9893C46.3674 69.0424 46.308 69.0828 46.2451 69.1098L47.0319 70.9485ZM47.8559 70.3802C48.09 70.1384 48.274 69.8531 48.3989 69.5414L46.5426 68.7972C46.513 68.871 46.4704 68.936 46.4189 68.9893L47.8559 70.3802ZM48.3989 69.5414C48.5239 69.2297 48.5878 68.8968 48.5878 68.5613H46.5878C46.5878 68.6431 46.5722 68.7233 46.5426 68.7972L48.3989 69.5414ZM48.5878 68.5613V60.0479H46.5878V68.5613H48.5878Z" fill="#006685" mask="url(#path-10-inside-2_249:107)"/>
<mask id="path-12-inside-3_249:107" fill="white">
<path d="M49.8232 58.536V68.6102C49.8232 69.0179 49.9849 69.409 50.2727 69.6976C50.5605 69.9862 50.9509 70.1488 51.3583 70.1498H54.9906C55.1927 70.1498 55.3928 70.1099 55.5794 70.0326C55.7661 69.9552 55.9357 69.8418 56.0786 69.6988C56.2214 69.5559 56.3348 69.3861 56.4121 69.1993C56.4894 69.0125 56.5292 68.8123 56.5292 68.6102V49.9453"/>
</mask>
<path d="M49.8232 58.536V68.6102C49.8232 69.0179 49.9849 69.409 50.2727 69.6976C50.5605 69.9862 50.9509 70.1488 51.3583 70.1498H54.9906C55.1927 70.1498 55.3928 70.1099 55.5794 70.0326C55.7661 69.9552 55.9357 69.8418 56.0786 69.6988C56.2214 69.5559 56.3348 69.3861 56.4121 69.1993C56.4894 69.0125 56.5292 68.8123 56.5292 68.6102V49.9453" fill="#006685"/>
<path d="M49.8232 68.6102L50.8232 68.6102V68.6102H49.8232ZM51.3583 70.1498L51.3561 71.1498H51.3583V70.1498ZM48.8232 58.536V68.6102H50.8232V58.536H48.8232ZM48.8232 68.6102C48.8232 69.2825 49.0898 69.9275 49.5645 70.4037L50.9808 68.9915C50.88 68.8904 50.8232 68.7532 50.8232 68.6102L48.8232 68.6102ZM49.5645 70.4037C50.0393 70.8798 50.6836 71.1482 51.3561 71.1497L51.3606 69.1498C51.2182 69.1494 51.0816 69.0926 50.9808 68.9915L49.5645 70.4037ZM51.3583 71.1498H54.9906V69.1498H51.3583V71.1498ZM54.9906 71.1498C55.3241 71.1498 55.6542 71.0841 55.9623 70.9564L55.1965 69.1088C55.1313 69.1358 55.0613 69.1498 54.9906 69.1498V71.1498ZM55.9623 70.9564C56.2704 70.8287 56.5502 70.6415 56.7859 70.4057L55.3712 68.9919C55.3212 69.0421 55.2618 69.0817 55.1965 69.1088L55.9623 70.9564ZM56.7859 70.4057C57.0216 70.1698 57.2086 69.8899 57.3361 69.5818L55.4881 68.8169C55.461 68.8824 55.4213 68.9419 55.3712 68.9919L56.7859 70.4057ZM57.3361 69.5818C57.4636 69.2737 57.5292 68.9435 57.5292 68.6102H55.5292C55.5292 68.6811 55.5152 68.7514 55.4881 68.8169L57.3361 69.5818ZM57.5292 68.6102V49.9453H55.5292V68.6102H57.5292Z" fill="#006685" mask="url(#path-12-inside-3_249:107)"/>
<path fill-rule="evenodd" clip-rule="evenodd" d="M53.3433 52.0474C54.6219 49.9008 55.5193 47.5597 56.0029 45.126L59.2911 45.785C58.7324 48.5965 57.696 51.2994 56.2207 53.7761C54.2992 57.002 51.6814 59.7635 48.557 61.8631C45.4328 63.9627 41.8792 65.3485 38.1524 65.9219C34.4256 66.4954 30.6169 66.2425 27 65.1813L27.9403 61.949C31.0869 62.8723 34.4014 63.0924 37.6446 62.5934C40.8878 62.0943 43.9779 60.8887 46.6924 59.0645C49.4068 57.2403 51.6779 54.8434 53.3433 52.0474Z" fill="#006685"/>
<path d="M58.1031 41.5616L58.1019 41.5628L53.7307 45.8304L53.3814 45.4727L53.7294 45.8318C53.6981 45.862 53.6846 45.8909 53.6796 45.912C53.6748 45.9323 53.6758 45.9533 53.6847 45.976C53.694 45.9998 53.7144 46.0311 53.7542 46.0611C53.7941 46.0914 53.849 46.1166 53.9151 46.128L58.1031 41.5616ZM58.1031 41.5616C58.1351 41.5302 58.1836 41.5 58.2474 41.482C58.3113 41.464 58.3814 41.4608 58.4486 41.4735C58.5159 41.4863 58.5708 41.5131 58.6096 41.5443C58.648 41.5752 58.6667 41.6066 58.6746 41.6299L58.6748 41.6306L60.4929 46.9671L60.4929 46.9671L60.4942 46.9711C60.5017 46.9923 60.5022 47.0121 60.4969 47.032C60.4913 47.0526 60.4772 47.0809 60.4456 47.1104C60.4137 47.1403 60.3664 47.1685 60.3052 47.1853C60.244 47.2022 60.1771 47.2053 60.1127 47.1937L60.1088 47.1931L53.9155 46.1281L58.1031 41.5616ZM57.7527 41.2051L57.7526 41.205L57.7527 41.2051Z" fill="#006685" stroke="#006685"/>
<path d="M29 47.4056C29 43.0315 35.6653 43.0315 35.6653 47.4056C35.6653 51.7796 29 51.7796 29 47.4056ZM33.2558 47.4056C33.2558 45.7974 31.4311 45.7974 31.4311 47.4056C31.4311 49.0137 33.2558 48.9815 33.2558 47.4056ZM38.6 44.452H41.5509L35.3838 56.8238H32.4491L38.6 44.452ZM38.3509 53.9024C38.3509 49.5283 45 49.5283 45 53.9024C45 58.2764 38.3509 58.2711 38.3509 53.9024ZM42.5851 53.9024C42.5851 52.3264 40.7442 52.3264 40.7442 53.9024C40.7442 55.4783 42.5851 55.5105 42.5851 53.9024Z" fill="#006685"/>
</svg>
