<svg width="354" height="100" viewBox="0 0 354 100" fill="none" xmlns="http://www.w3.org/2000/svg">
<path d="M0 0H354V100H0V0Z" fill="white"/>
<path d="M0 0H90V100H0V0Z" fill="#FCD800"/>
<path d="M108.552 20.448V30H110.376V20.448H113.624V18.8H105.304V20.448H108.552ZM119.167 28.704C119.215 30.224 120.159 30.224 121.375 30.016L121.343 29.024C120.511 29.104 120.543 28.64 120.543 27.92V24.88C120.543 22.752 118.879 22.096 117.007 22.096C115.983 22.096 114.943 22.304 114.159 22.704L114.415 23.952C115.375 23.472 118.847 22.8 118.847 24.832V25.6C118.159 25.216 117.311 25.024 116.559 25.024C114.863 25.024 113.519 25.904 113.567 27.744C113.567 29.248 114.927 30.144 116.335 30.144C117.423 30.144 118.655 29.728 119.167 28.704ZM118.847 27.36C118.671 28.336 117.599 28.768 116.687 28.768C115.983 28.768 115.279 28.416 115.279 27.648C115.279 26.704 115.999 26.208 116.847 26.192C117.535 26.176 118.271 26.384 118.847 26.72V27.36ZM123.1 19.904C123.1 20.608 123.644 20.96 124.172 20.944C124.684 20.928 125.196 20.592 125.196 19.904C125.196 19.232 124.684 18.88 124.156 18.88C123.628 18.88 123.1 19.216 123.1 19.904ZM125.02 22.368H123.276V30H125.02V22.368ZM127.547 18.288V27.248C127.547 29.824 128.635 30.432 131.003 30.048L130.939 28.704C129.611 28.912 129.275 28.512 129.275 27.232V18.288H127.547ZM140.221 26.112C140.221 23.408 138.141 22.064 136.077 22.096C134.061 22.128 132.077 23.456 132.077 26.112C132.077 28.8 134.109 30.144 136.141 30.144C138.173 30.144 140.221 28.8 140.221 26.112ZM133.805 26.112C133.805 24.48 134.925 23.664 136.077 23.632C137.261 23.6 138.477 24.432 138.477 26.112C138.477 27.76 137.325 28.592 136.173 28.608C134.989 28.624 133.805 27.792 133.805 26.112ZM144.218 23.408C144.138 22.16 142.89 21.968 141.754 22.224L141.77 23.408C142.602 23.36 142.602 23.712 142.602 24.4V30H144.33V25.536C144.33 24.288 145.258 23.616 146.298 23.616C146.858 23.616 147.37 23.776 147.834 24.08L148.266 22.576C147.77 22.208 147.13 22.016 146.49 22.032C145.546 22.032 144.522 22.512 144.218 23.408ZM153.201 22.112C151.105 22.112 149.249 23.408 149.201 25.984C149.121 28.592 150.993 30.224 153.537 30.176C154.513 30.176 155.553 29.92 156.449 29.52L156.225 28.224C155.313 28.624 154.385 28.752 153.425 28.704C152.017 28.704 150.913 27.872 150.913 26.464H156.609C157.121 23.904 155.905 22.112 153.201 22.112ZM153.185 23.456C154.289 23.456 155.249 24.064 155.201 25.232H150.945C151.185 24.016 152.033 23.456 153.185 23.456ZM164.446 28.816C164.446 30.112 165.502 30.224 166.702 30.016L166.67 28.816C165.79 28.816 165.87 28.48 165.87 27.6V18.288H164.126V22.768C163.422 22.352 162.67 22.176 161.982 22.176C159.998 22.176 158.334 23.744 158.334 26.128C158.334 28.288 159.582 30.208 161.886 30.16C163.022 30.16 163.934 29.728 164.446 28.592V28.816ZM164.158 26.464C164.158 27.632 163.358 28.608 162.158 28.608C160.734 28.608 160.062 27.456 160.062 26.128C160.062 24.56 161.054 23.712 162.254 23.696C162.862 23.68 163.534 23.872 164.158 24.304V26.464ZM173.014 18.288V27.248C173.014 29.824 174.102 30.432 176.47 30.048L176.406 28.704C175.078 28.912 174.742 28.512 174.742 27.232V18.288H173.014ZM185.687 26.112C185.687 23.408 183.607 22.064 181.543 22.096C179.527 22.128 177.543 23.456 177.543 26.112C177.543 28.8 179.575 30.144 181.607 30.144C183.639 30.144 185.687 28.8 185.687 26.112ZM179.271 26.112C179.271 24.48 180.391 23.664 181.543 23.632C182.727 23.6 183.943 24.432 183.943 26.112C183.943 27.76 182.791 28.592 181.639 28.608C180.455 28.624 179.271 27.792 179.271 26.112ZM192.805 28.704C192.853 30.224 193.797 30.224 195.013 30.016L194.981 29.024C194.149 29.104 194.181 28.64 194.181 27.92V24.88C194.181 22.752 192.517 22.096 190.645 22.096C189.621 22.096 188.581 22.304 187.797 22.704L188.053 23.952C189.013 23.472 192.485 22.8 192.485 24.832V25.6C191.797 25.216 190.949 25.024 190.197 25.024C188.501 25.024 187.157 25.904 187.205 27.744C187.205 29.248 188.565 30.144 189.973 30.144C191.061 30.144 192.293 29.728 192.805 28.704ZM192.485 27.36C192.309 28.336 191.237 28.768 190.325 28.768C189.621 28.768 188.917 28.416 188.917 27.648C188.917 26.704 189.637 26.208 190.485 26.192C191.173 26.176 191.909 26.384 192.485 26.72V27.36ZM204.434 30V25.472C204.434 23.568 203.474 22.128 201.378 22.128C200.37 22.128 199.186 22.496 198.754 23.472C198.754 22 197.458 22.064 196.338 22.272V23.408C197.122 23.36 197.154 23.616 197.154 24.528V30H198.914V25.616C198.914 24.368 199.778 23.52 200.866 23.52C201.906 23.536 202.69 24.272 202.674 25.472V30H204.434ZM218.921 26.112C218.921 23.408 216.841 22.064 214.777 22.096C212.761 22.128 210.777 23.456 210.777 26.112C210.777 28.8 212.809 30.144 214.841 30.144C216.873 30.144 218.921 28.8 218.921 26.112ZM212.505 26.112C212.505 24.48 213.625 23.664 214.777 23.632C215.961 23.6 217.177 24.432 217.177 26.112C217.177 27.76 216.025 28.592 214.873 28.608C213.689 28.624 212.505 27.792 212.505 26.112ZM221.592 30H223.304V23.632H225.912V22.32H223.304V21.312C223.304 19.392 224.824 19.232 226.184 19.792L226.376 18.576C223.96 17.776 221.624 18.24 221.624 21.28V22.32H220.168V23.632H221.592V30ZM228.209 30H229.921V23.632H232.529V22.32H229.921V21.312C229.921 19.392 231.441 19.232 232.801 19.792L232.993 18.576C230.577 17.776 228.241 18.24 228.241 21.28V22.32H226.785V23.632H228.209V30ZM237.549 22.112C235.453 22.112 233.597 23.408 233.549 25.984C233.469 28.592 235.341 30.224 237.885 30.176C238.861 30.176 239.901 29.92 240.797 29.52L240.573 28.224C239.661 28.624 238.733 28.752 237.773 28.704C236.365 28.704 235.261 27.872 235.261 26.464H240.957C241.469 23.904 240.253 22.112 237.549 22.112ZM237.533 23.456C238.637 23.456 239.597 24.064 239.549 25.232H235.293C235.533 24.016 236.381 23.456 237.533 23.456ZM245.05 23.408C244.97 22.16 243.722 21.968 242.586 22.224L242.602 23.408C243.434 23.36 243.434 23.712 243.434 24.4V30H245.162V25.536C245.162 24.288 246.09 23.616 247.13 23.616C247.69 23.616 248.202 23.776 248.666 24.08L249.098 22.576C248.602 22.208 247.962 22.016 247.322 22.032C246.378 22.032 245.354 22.512 245.05 23.408ZM250.078 27.728C250.206 29.648 251.902 30.192 253.614 30.192C255.326 30.192 256.974 29.456 256.974 27.744C256.974 25.92 255.406 25.648 253.79 25.44C252.59 25.296 251.966 25.152 251.95 24.512C251.902 23.824 252.734 23.44 253.534 23.44C254.35 23.44 255.278 23.68 255.278 24.448H256.814C256.862 22.912 255.31 22.128 253.534 22.128C251.854 22.128 250.254 22.896 250.254 24.544C250.302 26.288 252.078 26.464 253.662 26.672C254.67 26.8 255.39 27.008 255.39 27.712C255.342 28.656 254.398 28.896 253.55 28.896C252.718 28.896 251.838 28.528 251.79 27.728H250.078ZM263.355 29.6C264.347 29.984 265.547 30.224 266.603 30.24C268.907 30.256 271.003 29.2 271.003 26.224C271.003 23.76 269.339 22.176 267.323 22.176C266.635 22.176 265.835 22.368 265.099 22.752V18.304H263.355V29.6ZM265.067 24.256C265.707 23.872 266.443 23.712 267.051 23.728C268.251 23.776 269.259 24.608 269.259 26.224C269.259 28.096 268.155 28.8 266.779 28.816C266.267 28.816 265.627 28.72 265.067 28.56V24.256ZM278.121 28.704C278.169 30.224 279.113 30.224 280.329 30.016L280.297 29.024C279.465 29.104 279.497 28.64 279.497 27.92V24.88C279.497 22.752 277.833 22.096 275.961 22.096C274.937 22.096 273.897 22.304 273.113 22.704L273.369 23.952C274.329 23.472 277.801 22.8 277.801 24.832V25.6C277.113 25.216 276.265 25.024 275.513 25.024C273.817 25.024 272.473 25.904 272.521 27.744C272.521 29.248 273.881 30.144 275.289 30.144C276.377 30.144 277.609 29.728 278.121 28.704ZM277.801 27.36C277.625 28.336 276.553 28.768 275.641 28.768C274.937 28.768 274.233 28.416 274.233 27.648C274.233 26.704 274.953 26.208 275.801 26.192C276.489 26.176 277.225 26.384 277.801 26.72V27.36ZM281.671 27.728C281.799 29.648 283.495 30.192 285.207 30.192C286.919 30.192 288.567 29.456 288.567 27.744C288.567 25.92 286.999 25.648 285.383 25.44C284.183 25.296 283.559 25.152 283.543 24.512C283.495 23.824 284.327 23.44 285.127 23.44C285.943 23.44 286.871 23.68 286.871 24.448H288.407C288.455 22.912 286.903 22.128 285.127 22.128C283.447 22.128 281.847 22.896 281.847 24.544C281.895 26.288 283.671 26.464 285.255 26.672C286.263 26.8 286.983 27.008 286.983 27.712C286.935 28.656 285.991 28.896 285.143 28.896C284.311 28.896 283.431 28.528 283.383 27.728H281.671ZM294.18 22.112C292.084 22.112 290.228 23.408 290.18 25.984C290.1 28.592 291.972 30.224 294.516 30.176C295.492 30.176 296.532 29.92 297.428 29.52L297.204 28.224C296.292 28.624 295.364 28.752 294.404 28.704C292.996 28.704 291.892 27.872 291.892 26.464H297.588C298.1 23.904 296.884 22.112 294.18 22.112ZM294.164 23.456C295.268 23.456 296.228 24.064 296.18 25.232H291.924C292.164 24.016 293.012 23.456 294.164 23.456ZM305.424 28.816C305.424 30.112 306.48 30.224 307.68 30.016L307.648 28.816C306.768 28.816 306.848 28.48 306.848 27.6V18.288H305.104V22.768C304.4 22.352 303.648 22.176 302.96 22.176C300.976 22.176 299.312 23.744 299.312 26.128C299.312 28.288 300.56 30.208 302.864 30.16C304 30.16 304.912 29.728 305.424 28.592V28.816ZM305.136 26.464C305.136 27.632 304.336 28.608 303.136 28.608C301.712 28.608 301.04 27.456 301.04 26.128C301.04 24.56 302.032 23.712 303.232 23.696C303.84 23.68 304.512 23.872 305.136 24.304V26.464ZM113.8 50.112C113.8 47.408 111.72 46.064 109.656 46.096C107.64 46.128 105.656 47.456 105.656 50.112C105.656 52.8 107.688 54.144 109.72 54.144C111.752 54.144 113.8 52.8 113.8 50.112ZM107.384 50.112C107.384 48.48 108.504 47.664 109.656 47.632C110.84 47.6 112.056 48.432 112.056 50.112C112.056 51.76 110.904 52.592 109.752 52.608C108.568 52.624 107.384 51.792 107.384 50.112ZM123.445 54V49.472C123.445 47.568 122.485 46.128 120.389 46.128C119.381 46.128 118.197 46.496 117.765 47.472C117.765 46 116.469 46.064 115.349 46.272V47.408C116.133 47.36 116.165 47.616 116.165 48.528V54H117.925V49.616C117.925 48.368 118.789 47.52 119.877 47.52C120.917 47.536 121.701 48.272 121.685 49.472V54H123.445ZM137.158 46.48V46.288H135.414L134.39 48.992L133.222 52.368H133.174L131.91 48.976L130.774 46.288H128.902V46.48L132.374 54.048L132.006 54.992C131.542 56.272 130.87 56.944 129.494 56.336L129.286 57.6C131.958 58.752 132.918 56.928 133.814 54.656L137.158 46.48ZM146.392 50.112C146.392 47.408 144.312 46.064 142.248 46.096C140.232 46.128 138.248 47.456 138.248 50.112C138.248 52.8 140.28 54.144 142.312 54.144C144.344 54.144 146.392 52.8 146.392 50.112ZM139.976 50.112C139.976 48.48 141.096 47.664 142.248 47.632C143.432 47.6 144.648 48.432 144.648 50.112C144.648 51.76 143.496 52.592 142.344 52.608C141.16 52.624 139.976 51.792 139.976 50.112ZM153.782 46.288V50.704C153.782 51.936 152.934 52.736 151.83 52.736C150.806 52.736 150.15 51.984 150.166 50.752V46.288H148.406V50.752C148.406 52.64 149.158 54.128 151.286 54.128C152.374 54.128 153.43 53.792 153.958 52.752C153.958 54.416 155.366 54.208 156.358 54.032L156.342 52.896C155.606 52.976 155.526 52.72 155.526 51.792V46.288H153.782ZM160.256 47.408C160.176 46.16 158.928 45.968 157.792 46.224L157.808 47.408C158.64 47.36 158.64 47.712 158.64 48.4V54H160.368V49.536C160.368 48.288 161.296 47.616 162.336 47.616C162.896 47.616 163.408 47.776 163.872 48.08L164.304 46.576C163.808 46.208 163.168 46.016 162.528 46.032C161.584 46.032 160.56 46.512 160.256 47.408ZM169.741 42.288V51.248C169.741 53.824 170.829 54.432 173.197 54.048L173.133 52.704C171.805 52.912 171.469 52.512 171.469 51.232V42.288H169.741ZM179.758 52.704C179.806 54.224 180.75 54.224 181.966 54.016L181.934 53.024C181.102 53.104 181.134 52.64 181.134 51.92V48.88C181.134 46.752 179.47 46.096 177.598 46.096C176.574 46.096 175.534 46.304 174.75 46.704L175.006 47.952C175.966 47.472 179.438 46.8 179.438 48.832V49.6C178.75 49.216 177.902 49.024 177.15 49.024C175.454 49.024 174.11 49.904 174.158 51.744C174.158 53.248 175.518 54.144 176.926 54.144C178.014 54.144 179.246 53.728 179.758 52.704ZM179.438 51.36C179.262 52.336 178.19 52.768 177.278 52.768C176.574 52.768 175.87 52.416 175.87 51.648C175.87 50.704 176.59 50.208 177.438 50.192C178.126 50.176 178.862 50.384 179.438 50.72V51.36ZM186.175 43.92H184.639L184.463 46.304H182.895V47.44L184.463 47.552V51.056C184.463 54.08 186.527 54.688 189.167 53.872L188.991 52.56C187.407 53.12 186.175 52.992 186.175 51.024V47.552H188.847V46.304H186.175V43.92ZM194.442 46.112C192.346 46.112 190.49 47.408 190.442 49.984C190.362 52.592 192.234 54.224 194.778 54.176C195.754 54.176 196.794 53.92 197.69 53.52L197.466 52.224C196.554 52.624 195.626 52.752 194.666 52.704C193.258 52.704 192.154 51.872 192.154 50.464H197.85C198.362 47.904 197.146 46.112 194.442 46.112ZM194.426 47.456C195.53 47.456 196.49 48.064 196.442 49.232H192.186C192.426 48.016 193.274 47.456 194.426 47.456ZM199.51 51.728C199.638 53.648 201.334 54.192 203.046 54.192C204.758 54.192 206.406 53.456 206.406 51.744C206.406 49.92 204.838 49.648 203.222 49.44C202.022 49.296 201.398 49.152 201.382 48.512C201.334 47.824 202.166 47.44 202.966 47.44C203.782 47.44 204.71 47.68 204.71 48.448H206.246C206.294 46.912 204.742 46.128 202.966 46.128C201.286 46.128 199.686 46.896 199.686 48.544C199.734 50.288 201.51 50.464 203.094 50.672C204.102 50.8 204.822 51.008 204.822 51.712C204.774 52.656 203.83 52.896 202.982 52.896C202.15 52.896 201.27 52.528 201.222 51.728H199.51ZM210.979 43.92H209.443L209.267 46.304H207.699V47.44L209.267 47.552V51.056C209.267 54.08 211.331 54.688 213.971 53.872L213.795 52.56C212.211 53.12 210.979 52.992 210.979 51.024V47.552H213.651V46.304H210.979V43.92ZM219.661 48.416C219.661 52.016 222.301 54.112 225.341 54.112C227.613 54.112 229.917 52.912 230.477 50.176H228.669C228.173 51.664 226.877 52.416 225.341 52.416C223.053 52.416 221.533 50.64 221.533 48.416C221.533 46.032 223.053 44.368 225.341 44.368C226.813 44.384 228.061 45.024 228.621 46.416H230.413C229.821 43.888 227.549 42.672 225.357 42.672C222.301 42.672 219.661 44.8 219.661 48.416ZM235.673 52.496V44.288H237.305V42.8H232.185V44.288H233.817V52.496H232.041V54H237.449V52.496H235.673ZM247.865 45.952C247.865 43.84 246.377 42.8 244.345 42.8H239.801V54H244.809C246.985 54 248.361 52.704 248.361 50.704C248.361 49.44 247.721 48.512 246.553 48.112C247.433 47.68 247.865 46.896 247.865 45.952ZM244.217 44.416C245.305 44.416 246.041 44.896 246.041 46C246.025 47.088 245.289 47.504 244.217 47.504H241.657V44.416H244.217ZM244.489 49.024C245.001 49.024 245.513 49.056 245.945 49.376C246.329 49.696 246.521 50.144 246.521 50.704C246.473 51.776 245.737 52.368 244.697 52.368H241.657V49.024H244.489ZM253.704 52.496V44.288H255.336V42.8H250.216V44.288H251.848V52.496H250.072V54H255.48V52.496H253.704ZM259.703 42.8H257.831V54H264.519V52.32H259.703V42.8ZM269.674 50.816C269.722 53.168 272.01 54.256 274.202 54.208C276.298 54.208 278.618 53.28 278.618 50.816C278.618 48.24 276.538 47.792 274.266 47.536C272.97 47.36 271.706 47.2 271.706 45.936C271.706 44.672 273.034 44.256 274.058 44.256C275.162 44.256 276.426 44.64 276.506 45.84H278.266C278.218 43.552 276.202 42.592 274.074 42.592C271.898 42.592 269.866 43.68 269.866 45.984C269.866 48.224 271.898 48.88 273.946 49.056C275.242 49.184 276.762 49.328 276.762 50.8C276.762 52.192 275.354 52.544 274.17 52.544C272.954 52.544 271.578 52.08 271.498 50.816H269.674ZM288.082 48.848C287.666 46.96 286.018 46.048 284.338 46.064C282.338 46.08 280.29 47.456 280.29 50.112C280.29 52.784 282.338 54.128 284.354 54.128C286.05 54.128 287.73 53.168 288.13 51.216H286.466C286.114 52.16 285.25 52.624 284.386 52.624C283.218 52.624 282.018 51.776 282.018 50.112C282.018 48.48 283.234 47.616 284.418 47.616C285.314 47.616 286.13 48.016 286.466 48.848H288.082ZM297.801 50.112C297.801 47.408 295.721 46.064 293.657 46.096C291.641 46.128 289.657 47.456 289.657 50.112C289.657 52.8 291.689 54.144 293.721 54.144C295.753 54.144 297.801 52.8 297.801 50.112ZM291.385 50.112C291.385 48.48 292.505 47.664 293.657 47.632C294.841 47.6 296.057 48.432 296.057 50.112C296.057 51.76 294.905 52.592 293.753 52.608C292.569 52.624 291.385 51.792 291.385 50.112ZM301.798 47.408C301.718 46.16 300.47 45.968 299.334 46.224L299.35 47.408C300.182 47.36 300.182 47.712 300.182 48.4V54H301.91V49.536C301.91 48.288 302.838 47.616 303.878 47.616C304.438 47.616 304.95 47.776 305.414 48.08L305.846 46.576C305.35 46.208 304.71 46.016 304.07 46.032C303.126 46.032 302.102 46.512 301.798 47.408ZM310.781 46.112C308.685 46.112 306.829 47.408 306.781 49.984C306.701 52.592 308.573 54.224 311.117 54.176C312.093 54.176 313.133 53.92 314.029 53.52L313.805 52.224C312.893 52.624 311.965 52.752 311.005 52.704C309.597 52.704 308.493 51.872 308.493 50.464H314.189C314.701 47.904 313.485 46.112 310.781 46.112ZM310.765 47.456C311.869 47.456 312.829 48.064 312.781 49.232H308.525C308.765 48.016 309.613 47.456 310.765 47.456Z" fill="#2C2C2C"/>
<path d="M45 72.2495C61.0163 72.2495 74 59.2099 74 43.1247C74 27.0396 61.0163 14 45 14C28.9837 14 16 27.0396 16 43.1247C16 59.2099 28.9837 72.2495 45 72.2495Z" fill="white"/>
<path d="M43.1499 29.5525C43.829 27.8987 46.171 27.8987 46.8501 29.5525L50.4351 38.2832C50.8565 39.3094 52.0326 39.7966 53.0563 39.3689L61.7383 35.7412C63.3851 35.0531 65.0402 36.7031 64.3571 38.3521L60.7324 47.1019C60.3096 48.1224 60.7942 49.2924 61.8148 49.7151L70.5385 53.3281C72.1847 54.0099 72.1847 56.3419 70.5385 57.0237L61.8148 60.6367C60.7942 61.0594 60.3096 62.2294 60.7324 63.2499L64.3571 71.9998C65.0402 73.6487 63.3851 75.2987 61.7383 74.6106L53.0563 70.983C52.0326 70.5553 50.8565 71.0424 50.4351 72.0687L46.8501 80.7993C46.171 82.4531 43.829 82.4531 43.1499 80.7993L39.5649 72.0687C39.1435 71.0424 37.9674 70.5553 36.9437 70.983L28.2617 74.6106C26.6149 75.2987 24.9598 73.6487 25.6429 71.9998L29.2676 63.2499C29.6904 62.2294 29.2058 61.0594 28.1852 60.6367L19.4615 57.0237C17.8153 56.3419 17.8153 54.0099 19.4615 53.3281L28.1852 49.7151C29.2058 49.2924 29.6904 48.1224 29.2676 47.1019L25.6429 38.3521C24.9598 36.7031 26.6149 35.0531 28.2617 35.7412L36.9437 39.3689C37.9674 39.7966 39.1435 39.3094 39.5649 38.2832L43.1499 29.5525Z" fill="white" stroke="#006685" stroke-width="4" stroke-miterlimit="10"/>
<path d="M35 51.4316C35 45.7116 43.3317 45.7116 43.3317 51.4316C43.3317 57.1515 35 57.1515 35 51.4316ZM40.3198 51.4316C40.3198 49.3286 38.0389 49.3286 38.0389 51.4316C38.0389 53.5345 40.3198 53.4924 40.3198 51.4316ZM47 47.5692H50.6887L42.9797 63.7477H39.3113L47 47.5692ZM46.6887 59.9274C46.6887 54.2074 55 54.2074 55 59.9274C55 65.6473 46.6887 65.6403 46.6887 59.9274ZM51.9813 59.9274C51.9813 57.8665 49.6802 57.8665 49.6802 59.9274C49.6802 61.9882 51.9813 62.0303 51.9813 59.9274Z" fill="#006685"/>
</svg>
