<svg width="354" height="100" viewBox="0 0 354 100" fill="none" xmlns="http://www.w3.org/2000/svg">
<path d="M0 0H354V100H0V0Z" fill="white"/>
<path d="M0 0H90V100H0V0Z" fill="#FCD800"/>
<path d="M109.208 20.096C111.352 20.096 111.288 22.4 110.088 23.856L105.688 29.6V30H112.744V28.464H108.424C110.088 26.32 110.808 25.312 111.4 24.64C113.496 21.888 112.568 18.672 109.272 18.672C107.08 18.688 105.944 19.808 105.896 21.936H107.4C107.464 20.784 108.12 20.096 109.208 20.096ZM121.546 27.648H122.634V26.128H121.546V18.8H119.642L114.346 26.816V27.648H119.85V30H121.546V27.648ZM120.058 20.976L119.962 23.712V26.192H116.538L120.026 20.976H120.058ZM127.862 26.992L128.758 28.432L129.894 30H131.574V29.808L128.806 26.016L131.334 22.48V22.288H129.574L128.662 23.536L127.83 24.816H127.782L126.934 23.504L126.054 22.288H124.39V22.48L126.822 25.904L123.958 29.808V30H125.718L126.87 28.464L127.814 26.992H127.862ZM140.498 18.8H132.754V20.448H137.97L133.634 30H135.522L140.498 19.072V18.8ZM153.767 24.848C153.351 22.96 151.703 22.048 150.023 22.064C148.023 22.08 145.975 23.456 145.975 26.112C145.975 28.784 148.023 30.128 150.039 30.128C151.735 30.128 153.415 29.168 153.815 27.216H152.151C151.799 28.16 150.935 28.624 150.071 28.624C148.903 28.624 147.703 27.776 147.703 26.112C147.703 24.48 148.919 23.616 150.103 23.616C150.999 23.616 151.815 24.016 152.151 24.848H153.767ZM157.71 23.408C157.63 22.16 156.382 21.968 155.246 22.224L155.262 23.408C156.094 23.36 156.094 23.712 156.094 24.4V30H157.822V25.536C157.822 24.288 158.75 23.616 159.79 23.616C160.35 23.616 160.862 23.776 161.326 24.08L161.758 22.576C161.262 22.208 160.622 22.016 159.982 22.032C159.038 22.032 158.014 22.512 157.71 23.408ZM166.693 22.112C164.597 22.112 162.741 23.408 162.693 25.984C162.613 28.592 164.485 30.224 167.029 30.176C168.005 30.176 169.045 29.92 169.941 29.52L169.717 28.224C168.805 28.624 167.877 28.752 166.917 28.704C165.509 28.704 164.405 27.872 164.405 26.464H170.101C170.613 23.904 169.397 22.112 166.693 22.112ZM166.677 23.456C167.781 23.456 168.741 24.064 168.693 25.232H164.437C164.677 24.016 165.525 23.456 166.677 23.456ZM177.937 28.816C177.937 30.112 178.993 30.224 180.193 30.016L180.161 28.816C179.281 28.816 179.361 28.48 179.361 27.6V18.288H177.617V22.768C176.913 22.352 176.161 22.176 175.473 22.176C173.489 22.176 171.825 23.744 171.825 26.128C171.825 28.288 173.073 30.208 175.377 30.16C176.513 30.16 177.425 29.728 177.937 28.592V28.816ZM177.649 26.464C177.649 27.632 176.849 28.608 175.649 28.608C174.225 28.608 173.553 27.456 173.553 26.128C173.553 24.56 174.545 23.712 175.745 23.696C176.353 23.68 177.025 23.872 177.649 24.304V26.464ZM182.09 19.904C182.09 20.608 182.634 20.96 183.162 20.944C183.674 20.928 184.186 20.592 184.186 19.904C184.186 19.232 183.674 18.88 183.146 18.88C182.618 18.88 182.09 19.216 182.09 19.904ZM184.01 22.368H182.266V30H184.01V22.368ZM189.097 19.92H187.561L187.385 22.304H185.817V23.44L187.385 23.552V27.056C187.385 30.08 189.449 30.688 192.089 29.872L191.913 28.56C190.329 29.12 189.097 28.992 189.097 27.024V23.552H191.769V22.304H189.097V19.92ZM210.387 30V25.488C210.435 23.632 209.891 22.128 207.779 22.128C206.595 22.128 205.395 22.56 204.963 23.584C204.659 22.64 203.971 22.128 202.627 22.128C201.571 22.128 200.435 22.608 200.003 23.552C200.051 21.936 198.611 22.016 197.587 22.272L197.603 23.344C198.371 23.296 198.419 23.584 198.419 24.48V30H200.163V25.552C200.163 24.336 200.947 23.568 202.035 23.552C203.123 23.536 203.619 24.336 203.619 25.536V30H205.331V25.536C205.347 24.32 206.067 23.552 207.139 23.536C208.163 23.52 208.643 24.336 208.627 25.488V30H210.387ZM220.554 26.112C220.554 23.408 218.474 22.064 216.41 22.096C214.394 22.128 212.41 23.456 212.41 26.112C212.41 28.8 214.442 30.144 216.474 30.144C218.506 30.144 220.554 28.8 220.554 26.112ZM214.138 26.112C214.138 24.48 215.258 23.664 216.41 23.632C217.594 23.6 218.81 24.432 218.81 26.112C218.81 27.76 217.658 28.592 216.506 28.608C215.322 28.624 214.138 27.792 214.138 26.112ZM230.199 30V25.472C230.199 23.568 229.239 22.128 227.143 22.128C226.135 22.128 224.951 22.496 224.519 23.472C224.519 22 223.223 22.064 222.103 22.272V23.408C222.887 23.36 222.919 23.616 222.919 24.528V30H224.679V25.616C224.679 24.368 225.543 23.52 226.631 23.52C227.671 23.536 228.455 24.272 228.439 25.472V30H230.199ZM232.526 19.904C232.526 20.608 233.07 20.96 233.598 20.944C234.11 20.928 234.622 20.592 234.622 19.904C234.622 19.232 234.11 18.88 233.582 18.88C233.054 18.88 232.526 19.216 232.526 19.904ZM234.446 22.368H232.702V30H234.446V22.368ZM239.533 19.92H237.997L237.821 22.304H236.253V23.44L237.821 23.552V27.056C237.821 30.08 239.885 30.688 242.525 29.872L242.349 28.56C240.765 29.12 239.533 28.992 239.533 27.024V23.552H242.205V22.304H239.533V19.92ZM251.943 26.112C251.943 23.408 249.863 22.064 247.799 22.096C245.783 22.128 243.799 23.456 243.799 26.112C243.799 28.8 245.831 30.144 247.863 30.144C249.895 30.144 251.943 28.8 251.943 26.112ZM245.527 26.112C245.527 24.48 246.647 23.664 247.799 23.632C248.983 23.6 250.199 24.432 250.199 26.112C250.199 27.76 249.047 28.592 247.895 28.608C246.711 28.624 245.527 27.792 245.527 26.112ZM255.94 23.408C255.86 22.16 254.612 21.968 253.476 22.224L253.492 23.408C254.324 23.36 254.324 23.712 254.324 24.4V30H256.052V25.536C256.052 24.288 256.98 23.616 258.02 23.616C258.58 23.616 259.092 23.776 259.556 24.08L259.988 22.576C259.492 22.208 258.852 22.016 258.212 22.032C257.268 22.032 256.244 22.512 255.94 23.408ZM261.447 19.904C261.447 20.608 261.991 20.96 262.519 20.944C263.031 20.928 263.543 20.592 263.543 19.904C263.543 19.232 263.031 18.88 262.503 18.88C261.975 18.88 261.447 19.216 261.447 19.904ZM263.367 22.368H261.623V30H263.367V22.368ZM273.509 30V25.472C273.509 23.568 272.549 22.128 270.453 22.128C269.445 22.128 268.261 22.496 267.829 23.472C267.829 22 266.533 22.064 265.413 22.272V23.408C266.197 23.36 266.229 23.616 266.229 24.528V30H267.989V25.616C267.989 24.368 268.853 23.52 269.941 23.52C270.981 23.536 271.765 24.272 271.749 25.472V30H273.509ZM281.357 30.448C281.357 32.24 280.477 32.848 279.277 32.864C278.381 32.88 277.325 32.544 276.333 32.064L276.077 33.472C277.117 34.048 278.269 34.352 279.325 34.336C281.341 34.32 283.037 33.152 283.037 30.48V22.912C282.029 22.48 280.957 22.208 279.853 22.192C277.485 22.144 275.533 23.408 275.533 26.208C275.533 28.752 277.053 30.256 279.021 30.272C279.757 30.272 280.557 30.08 281.357 29.632V30.448ZM281.325 28.16C280.685 28.576 280.029 28.784 279.421 28.768C278.221 28.752 277.277 27.888 277.277 26.208C277.293 24.48 278.221 23.648 279.693 23.648C280.237 23.648 280.781 23.744 281.325 23.936V28.16ZM292.504 30.08L294.552 25.424L296.616 30.08H297.4L300.456 22.48V22.288H298.568C298.248 23.184 297.912 24.048 297.608 24.944L296.872 27.072H296.824L294.984 22.464H294.12L292.28 27.056H292.248L291.528 24.944L290.552 22.288H288.68V22.48L291.72 30.08H292.504ZM302.062 19.904C302.062 20.608 302.606 20.96 303.134 20.944C303.646 20.928 304.158 20.592 304.158 19.904C304.158 19.232 303.646 18.88 303.118 18.88C302.59 18.88 302.062 19.216 302.062 19.904ZM303.982 22.368H302.238V30H303.982V22.368ZM309.069 19.92H307.533L307.357 22.304H305.789V23.44L307.357 23.552V27.056C307.357 30.08 309.421 30.688 312.061 29.872L311.885 28.56C310.301 29.12 309.069 28.992 309.069 27.024V23.552H311.741V22.304H309.069V19.92ZM321.095 30V25.44C321.095 23.456 320.167 22.112 318.039 22.112C317.015 22.112 316.215 22.352 315.559 23.232V18.304H313.815V30H315.559V25.536C315.559 24.272 316.407 23.504 317.543 23.504C318.631 23.52 319.351 24.16 319.335 25.44V30H321.095ZM105.736 48.416C105.736 52.016 108.376 54.112 111.416 54.112C113.688 54.112 115.992 52.912 116.552 50.176H114.744C114.248 51.664 112.952 52.416 111.416 52.416C109.128 52.416 107.608 50.64 107.608 48.416C107.608 46.032 109.128 44.368 111.416 44.368C112.888 44.384 114.136 45.024 114.696 46.416H116.488C115.896 43.888 113.624 42.672 111.432 42.672C108.376 42.672 105.736 44.8 105.736 48.416ZM121.748 52.496V44.288H123.38V42.8H118.26V44.288H119.892V52.496H118.116V54H123.524V52.496H121.748ZM133.94 45.952C133.94 43.84 132.452 42.8 130.42 42.8H125.876V54H130.884C133.06 54 134.436 52.704 134.436 50.704C134.436 49.44 133.796 48.512 132.628 48.112C133.508 47.68 133.94 46.896 133.94 45.952ZM130.292 44.416C131.38 44.416 132.116 44.896 132.116 46C132.1 47.088 131.364 47.504 130.292 47.504H127.732V44.416H130.292ZM130.564 49.024C131.076 49.024 131.588 49.056 132.02 49.376C132.404 49.696 132.596 50.144 132.596 50.704C132.548 51.776 131.812 52.368 130.772 52.368H127.732V49.024H130.564ZM139.779 52.496V44.288H141.411V42.8H136.291V44.288H137.923V52.496H136.147V54H141.555V52.496H139.779ZM145.778 42.8H143.906V54H150.594V52.32H145.778V42.8ZM162.705 51.68L163.809 54H165.745V53.76L160.593 42.72H159.729L154.545 53.76V54H156.497L157.585 51.68H162.705ZM160.161 45.632L162.113 50.112H158.193L160.161 45.632ZM167.155 42.288V51.248C167.155 53.824 168.243 54.432 170.611 54.048L170.547 52.704C169.219 52.912 168.883 52.512 168.883 51.232V42.288H167.155ZM175.685 46.112C173.589 46.112 171.733 47.408 171.685 49.984C171.605 52.592 173.477 54.224 176.021 54.176C176.997 54.176 178.037 53.92 178.933 53.52L178.709 52.224C177.797 52.624 176.869 52.752 175.909 52.704C174.501 52.704 173.397 51.872 173.397 50.464H179.093C179.605 47.904 178.389 46.112 175.685 46.112ZM175.669 47.456C176.773 47.456 177.733 48.064 177.685 49.232H173.429C173.669 48.016 174.517 47.456 175.669 47.456ZM183.185 47.408C183.105 46.16 181.857 45.968 180.721 46.224L180.737 47.408C181.569 47.36 181.569 47.712 181.569 48.4V54H183.297V49.536C183.297 48.288 184.225 47.616 185.265 47.616C185.825 47.616 186.337 47.776 186.801 48.08L187.233 46.576C186.737 46.208 186.097 46.016 185.457 46.032C184.513 46.032 183.489 46.512 183.185 47.408ZM191.332 43.92H189.796L189.62 46.304H188.052V47.44L189.62 47.552V51.056C189.62 54.08 191.684 54.688 194.324 53.872L194.148 52.56C192.564 53.12 191.332 52.992 191.332 51.024V47.552H194.004V46.304H191.332V43.92ZM195.534 51.728C195.662 53.648 197.358 54.192 199.07 54.192C200.782 54.192 202.43 53.456 202.43 51.744C202.43 49.92 200.862 49.648 199.246 49.44C198.046 49.296 197.422 49.152 197.406 48.512C197.358 47.824 198.19 47.44 198.99 47.44C199.806 47.44 200.734 47.68 200.734 48.448H202.27C202.318 46.912 200.766 46.128 198.99 46.128C197.31 46.128 195.71 46.896 195.71 48.544C195.758 50.288 197.534 50.464 199.118 50.672C200.126 50.8 200.846 51.008 200.846 51.712C200.798 52.656 199.854 52.896 199.006 52.896C198.174 52.896 197.294 52.528 197.246 51.728H195.534Z" fill="#2C2C2C"/>
<path d="M39 61.1978C51.7025 61.1978 62 50.8561 62 38.0989C62 25.3417 51.7025 15 39 15C26.2975 15 16 25.3417 16 38.0989C16 50.8561 26.2975 61.1978 39 61.1978Z" fill="white"/>
<path d="M30.5 66.2197L27 70.2369H42.5H64.5L60 61.7003L61.5 47.1379L53 35.5885L46 34.082L35.5 37.5971L33 47.1379L30.5 66.2197Z" fill="white"/>
<path d="M46 34.082C34.7448 34.082 31.931 43.0903 31.931 47.5944C31.931 49.002 31.931 53.675 31.931 61.1069C31.931 68.5387 24.2069 70.9597 22 71.2412H46" stroke="#006685" stroke-width="4"/>
<path d="M46 34.082C57.2552 34.082 60.069 43.0903 60.069 47.5944C60.069 49.002 60.069 53.675 60.069 61.1069C60.069 68.5387 67.7931 70.9597 70 71.2412H46" stroke="#006685" stroke-width="4"/>
<path d="M61 51.1548C68.1797 51.1548 74 45.3095 74 38.0989C74 30.8883 68.1797 25.043 61 25.043C53.8203 25.043 48 30.8883 48 38.0989C48 45.3095 53.8203 51.1548 61 51.1548Z" fill="#006685"/>
<path d="M40 71.2412H52V78.2971C52 81.6108 49.3137 84.2971 46 84.2971V84.2971C42.6863 84.2971 40 81.6108 40 78.2971V71.2412Z" fill="white" stroke="#006685" stroke-width="4"/>
<path d="M60.992 46.2944C62.12 46.2944 62.96 45.5472 62.96 44.4625C62.96 43.3297 62.12 42.6307 60.992 42.6307C59.912 42.6307 59.024 43.3297 59.024 44.4625C59.024 45.5472 59.912 46.2944 60.992 46.2944ZM59.288 41.4496H62.696L62.912 29.0605H59L59.288 41.4496Z" fill="white"/>
</svg>
