<svg width="260" height="121" viewBox="0 0 260 121" fill="none" xmlns="http://www.w3.org/2000/svg">
<rect y="0.0430298" width="260" height="120.516" fill="white"/>
<rect width="90" height="120.516" fill="#FCD800"/>
<path d="M109.208 30.2422C111.352 30.2422 111.288 32.5462 110.088 34.0022L105.688 39.7462V40.1462H112.744V38.6102H108.424C110.088 36.4662 110.808 35.4582 111.4 34.7862C113.496 32.0342 112.568 28.8182 109.272 28.8182C107.08 28.8342 105.944 29.9542 105.896 32.0822H107.4C107.464 30.9302 108.12 30.2422 109.208 30.2422ZM121.546 37.7942H122.634V36.2742H121.546V28.9462H119.642L114.346 36.9622V37.7942H119.85V40.1462H121.546V37.7942ZM120.058 31.1222L119.962 33.8582V36.3382H116.538L120.026 31.1222H120.058ZM127.862 37.1382L128.758 38.5782L129.894 40.1462H131.574V39.9542L128.806 36.1622L131.334 32.6262V32.4342H129.574L128.662 33.6822L127.83 34.9622H127.782L126.934 33.6502L126.054 32.4342H124.39V32.6262L126.822 36.0502L123.958 39.9542V40.1462H125.718L126.87 38.6102L127.814 37.1382H127.862ZM140.498 28.9462H132.754V30.5942H137.97L133.634 40.1462H135.522L140.498 29.2182V28.9462ZM153.767 34.9942C153.351 33.1062 151.703 32.1942 150.023 32.2102C148.023 32.2262 145.975 33.6022 145.975 36.2582C145.975 38.9302 148.023 40.2742 150.039 40.2742C151.735 40.2742 153.415 39.3142 153.815 37.3622H152.151C151.799 38.3062 150.935 38.7702 150.071 38.7702C148.903 38.7702 147.703 37.9222 147.703 36.2582C147.703 34.6262 148.919 33.7622 150.103 33.7622C150.999 33.7622 151.815 34.1622 152.151 34.9942H153.767ZM157.71 33.5542C157.63 32.3062 156.382 32.1142 155.246 32.3702L155.262 33.5542C156.094 33.5062 156.094 33.8582 156.094 34.5462V40.1462H157.822V35.6822C157.822 34.4342 158.75 33.7622 159.79 33.7622C160.35 33.7622 160.862 33.9222 161.326 34.2262L161.758 32.7222C161.262 32.3542 160.622 32.1622 159.982 32.1782C159.038 32.1782 158.014 32.6582 157.71 33.5542ZM166.693 32.2582C164.597 32.2582 162.741 33.5542 162.693 36.1302C162.613 38.7382 164.485 40.3702 167.029 40.3222C168.005 40.3222 169.045 40.0662 169.941 39.6662L169.717 38.3702C168.805 38.7702 167.877 38.8982 166.917 38.8502C165.509 38.8502 164.405 38.0182 164.405 36.6102H170.101C170.613 34.0502 169.397 32.2582 166.693 32.2582ZM166.677 33.6022C167.781 33.6022 168.741 34.2102 168.693 35.3782H164.437C164.677 34.1622 165.525 33.6022 166.677 33.6022ZM177.937 38.9622C177.937 40.2582 178.993 40.3702 180.193 40.1622L180.161 38.9622C179.281 38.9622 179.361 38.6262 179.361 37.7462V28.4342H177.617V32.9142C176.913 32.4982 176.161 32.3222 175.473 32.3222C173.489 32.3222 171.825 33.8902 171.825 36.2742C171.825 38.4342 173.073 40.3542 175.377 40.3062C176.513 40.3062 177.425 39.8742 177.937 38.7382V38.9622ZM177.649 36.6102C177.649 37.7782 176.849 38.7542 175.649 38.7542C174.225 38.7542 173.553 37.6022 173.553 36.2742C173.553 34.7062 174.545 33.8582 175.745 33.8422C176.353 33.8262 177.025 34.0182 177.649 34.4502V36.6102ZM182.09 30.0502C182.09 30.7542 182.634 31.1062 183.162 31.0902C183.674 31.0742 184.186 30.7382 184.186 30.0502C184.186 29.3782 183.674 29.0262 183.146 29.0262C182.618 29.0262 182.09 29.3622 182.09 30.0502ZM184.01 32.5142H182.266V40.1462H184.01V32.5142ZM189.097 30.0662H187.561L187.385 32.4502H185.817V33.5862L187.385 33.6982V37.2022C187.385 40.2262 189.449 40.8342 192.089 40.0182L191.913 38.7062C190.329 39.2662 189.097 39.1382 189.097 37.1702V33.6982H191.769V32.4502H189.097V30.0662ZM118.344 64.1462V59.6342C118.392 57.7782 117.848 56.2742 115.736 56.2742C114.552 56.2742 113.352 56.7062 112.92 57.7302C112.616 56.7862 111.928 56.2742 110.584 56.2742C109.528 56.2742 108.392 56.7542 107.96 57.6982C108.008 56.0822 106.568 56.1622 105.544 56.4182L105.56 57.4902C106.328 57.4422 106.376 57.7302 106.376 58.6262V64.1462H108.12V59.6982C108.12 58.4822 108.904 57.7142 109.992 57.6982C111.08 57.6822 111.576 58.4822 111.576 59.6822V64.1462H113.288V59.6822C113.304 58.4662 114.024 57.6982 115.096 57.6822C116.12 57.6662 116.6 58.4822 116.584 59.6342V64.1462H118.344ZM128.511 60.2582C128.511 57.5542 126.431 56.2102 124.367 56.2422C122.351 56.2742 120.367 57.6022 120.367 60.2582C120.367 62.9462 122.399 64.2902 124.431 64.2902C126.463 64.2902 128.511 62.9462 128.511 60.2582ZM122.095 60.2582C122.095 58.6262 123.215 57.8102 124.367 57.7782C125.551 57.7462 126.767 58.5782 126.767 60.2582C126.767 61.9062 125.615 62.7382 124.463 62.7542C123.279 62.7702 122.095 61.9382 122.095 60.2582ZM138.156 64.1462V59.6182C138.156 57.7142 137.196 56.2742 135.1 56.2742C134.092 56.2742 132.908 56.6422 132.476 57.6182C132.476 56.1462 131.18 56.2102 130.06 56.4182V57.5542C130.844 57.5062 130.876 57.7622 130.876 58.6742V64.1462H132.636V59.7622C132.636 58.5142 133.5 57.6662 134.588 57.6662C135.628 57.6822 136.412 58.4182 136.396 59.6182V64.1462H138.156ZM140.483 54.0502C140.483 54.7542 141.027 55.1062 141.555 55.0902C142.067 55.0742 142.579 54.7382 142.579 54.0502C142.579 53.3782 142.067 53.0262 141.539 53.0262C141.011 53.0262 140.483 53.3622 140.483 54.0502ZM142.403 56.5142H140.659V64.1462H142.403V56.5142ZM147.49 54.0662H145.954L145.778 56.4502H144.21V57.5862L145.778 57.6982V61.2022C145.778 64.2262 147.842 64.8342 150.482 64.0182L150.306 62.7062C148.722 63.2662 147.49 63.1382 147.49 61.1702V57.6982H150.162V56.4502H147.49V54.0662ZM159.9 60.2582C159.9 57.5542 157.82 56.2102 155.756 56.2422C153.74 56.2742 151.756 57.6022 151.756 60.2582C151.756 62.9462 153.788 64.2902 155.82 64.2902C157.852 64.2902 159.9 62.9462 159.9 60.2582ZM153.484 60.2582C153.484 58.6262 154.604 57.8102 155.756 57.7782C156.94 57.7462 158.156 58.5782 158.156 60.2582C158.156 61.9062 157.004 62.7382 155.852 62.7542C154.668 62.7702 153.484 61.9382 153.484 60.2582ZM163.897 57.5542C163.817 56.3062 162.569 56.1142 161.433 56.3702L161.449 57.5542C162.281 57.5062 162.281 57.8582 162.281 58.5462V64.1462H164.009V59.6822C164.009 58.4342 164.937 57.7622 165.977 57.7622C166.537 57.7622 167.049 57.9222 167.513 58.2262L167.945 56.7222C167.449 56.3542 166.809 56.1622 166.169 56.1782C165.225 56.1782 164.201 56.6582 163.897 57.5542ZM169.404 54.0502C169.404 54.7542 169.948 55.1062 170.476 55.0902C170.988 55.0742 171.5 54.7382 171.5 54.0502C171.5 53.3782 170.988 53.0262 170.46 53.0262C169.932 53.0262 169.404 53.3622 169.404 54.0502ZM171.324 56.5142H169.58V64.1462H171.324V56.5142ZM181.466 64.1462V59.6182C181.466 57.7142 180.506 56.2742 178.41 56.2742C177.402 56.2742 176.218 56.6422 175.786 57.6182C175.786 56.1462 174.49 56.2102 173.37 56.4182V57.5542C174.154 57.5062 174.186 57.7622 174.186 58.6742V64.1462H175.946V59.7622C175.946 58.5142 176.81 57.6662 177.898 57.6662C178.938 57.6822 179.722 58.4182 179.706 59.6182V64.1462H181.466ZM189.313 64.5942C189.313 66.3862 188.433 66.9942 187.233 67.0102C186.337 67.0262 185.281 66.6902 184.289 66.2102L184.033 67.6182C185.073 68.1942 186.225 68.4982 187.281 68.4822C189.297 68.4662 190.993 67.2982 190.993 64.6262V57.0582C189.985 56.6262 188.913 56.3542 187.809 56.3382C185.441 56.2902 183.489 57.5542 183.489 60.3542C183.489 62.8982 185.009 64.4022 186.977 64.4182C187.713 64.4182 188.513 64.2262 189.313 63.7782V64.5942ZM189.281 62.3062C188.641 62.7222 187.985 62.9302 187.377 62.9142C186.177 62.8982 185.233 62.0342 185.233 60.3542C185.249 58.6262 186.177 57.7942 187.649 57.7942C188.193 57.7942 188.737 57.8902 189.281 58.0822V62.3062ZM200.46 64.2262L202.508 59.5702L204.572 64.2262H205.356L208.412 56.6262V56.4342H206.524C206.204 57.3302 205.868 58.1942 205.564 59.0902L204.828 61.2182H204.78L202.94 56.6102H202.076L200.236 61.2022H200.204L199.484 59.0902L198.508 56.4342H196.636V56.6262L199.676 64.2262H200.46ZM210.019 54.0502C210.019 54.7542 210.563 55.1062 211.091 55.0902C211.603 55.0742 212.115 54.7382 212.115 54.0502C212.115 53.3782 211.603 53.0262 211.075 53.0262C210.547 53.0262 210.019 53.3622 210.019 54.0502ZM211.939 56.5142H210.195V64.1462H211.939V56.5142ZM217.026 54.0662H215.49L215.314 56.4502H213.746V57.5862L215.314 57.6982V61.2022C215.314 64.2262 217.378 64.8342 220.018 64.0182L219.842 62.7062C218.258 63.2662 217.026 63.1382 217.026 61.1702V57.6982H219.698V56.4502H217.026V54.0662ZM229.052 64.1462V59.5862C229.052 57.6022 228.124 56.2582 225.996 56.2582C224.972 56.2582 224.172 56.4982 223.516 57.3782V52.4502H221.772V64.1462H223.516V59.6822C223.516 58.4182 224.364 57.6502 225.5 57.6502C226.588 57.6662 227.308 58.3062 227.292 59.5862V64.1462H229.052ZM105.736 82.5622C105.736 86.1622 108.376 88.2582 111.416 88.2582C113.688 88.2582 115.992 87.0582 116.552 84.3222H114.744C114.248 85.8102 112.952 86.5622 111.416 86.5622C109.128 86.5622 107.608 84.7862 107.608 82.5622C107.608 80.1782 109.128 78.5142 111.416 78.5142C112.888 78.5302 114.136 79.1702 114.696 80.5622H116.488C115.896 78.0342 113.624 76.8182 111.432 76.8182C108.376 76.8182 105.736 78.9462 105.736 82.5622ZM121.748 86.6422V78.4342H123.38V76.9462H118.26V78.4342H119.892V86.6422H118.116V88.1462H123.524V86.6422H121.748ZM133.94 80.0982C133.94 77.9862 132.452 76.9462 130.42 76.9462H125.876V88.1462H130.884C133.06 88.1462 134.436 86.8502 134.436 84.8502C134.436 83.5862 133.796 82.6582 132.628 82.2582C133.508 81.8262 133.94 81.0422 133.94 80.0982ZM130.292 78.5622C131.38 78.5622 132.116 79.0422 132.116 80.1462C132.1 81.2342 131.364 81.6502 130.292 81.6502H127.732V78.5622H130.292ZM130.564 83.1702C131.076 83.1702 131.588 83.2022 132.02 83.5222C132.404 83.8422 132.596 84.2902 132.596 84.8502C132.548 85.9222 131.812 86.5142 130.772 86.5142H127.732V83.1702H130.564ZM139.779 86.6422V78.4342H141.411V76.9462H136.291V78.4342H137.923V86.6422H136.147V88.1462H141.555V86.6422H139.779ZM145.778 76.9462H143.906V88.1462H150.594V86.4662H145.778V76.9462ZM162.705 85.8262L163.809 88.1462H165.745V87.9062L160.593 76.8662H159.729L154.545 87.9062V88.1462H156.497L157.585 85.8262H162.705ZM160.161 79.7782L162.113 84.2582H158.193L160.161 79.7782ZM167.155 76.4342V85.3942C167.155 87.9702 168.243 88.5782 170.611 88.1942L170.547 86.8502C169.219 87.0582 168.883 86.6582 168.883 85.3782V76.4342H167.155ZM175.685 80.2582C173.589 80.2582 171.733 81.5542 171.685 84.1302C171.605 86.7382 173.477 88.3702 176.021 88.3222C176.997 88.3222 178.037 88.0662 178.933 87.6662L178.709 86.3702C177.797 86.7702 176.869 86.8982 175.909 86.8502C174.501 86.8502 173.397 86.0182 173.397 84.6102H179.093C179.605 82.0502 178.389 80.2582 175.685 80.2582ZM175.669 81.6022C176.773 81.6022 177.733 82.2102 177.685 83.3782H173.429C173.669 82.1622 174.517 81.6022 175.669 81.6022ZM183.185 81.5542C183.105 80.3062 181.857 80.1142 180.721 80.3702L180.737 81.5542C181.569 81.5062 181.569 81.8582 181.569 82.5462V88.1462H183.297V83.6822C183.297 82.4342 184.225 81.7622 185.265 81.7622C185.825 81.7622 186.337 81.9222 186.801 82.2262L187.233 80.7222C186.737 80.3542 186.097 80.1622 185.457 80.1782C184.513 80.1782 183.489 80.6582 183.185 81.5542ZM191.332 78.0662H189.796L189.62 80.4502H188.052V81.5862L189.62 81.6982V85.2022C189.62 88.2262 191.684 88.8342 194.324 88.0182L194.148 86.7062C192.564 87.2662 191.332 87.1382 191.332 85.1702V81.6982H194.004V80.4502H191.332V78.0662ZM195.534 85.8742C195.662 87.7942 197.358 88.3382 199.07 88.3382C200.782 88.3382 202.43 87.6022 202.43 85.8902C202.43 84.0662 200.862 83.7942 199.246 83.5862C198.046 83.4422 197.422 83.2982 197.406 82.6582C197.358 81.9702 198.19 81.5862 198.99 81.5862C199.806 81.5862 200.734 81.8262 200.734 82.5942H202.27C202.318 81.0582 200.766 80.2742 198.99 80.2742C197.31 80.2742 195.71 81.0422 195.71 82.6902C195.758 84.4342 197.534 84.6102 199.118 84.8182C200.126 84.9462 200.846 85.1542 200.846 85.8582C200.798 86.8022 199.854 87.0422 199.006 87.0422C198.174 87.0422 197.294 86.6742 197.246 85.8742H195.534Z" fill="#2C2C2C"/>
<path d="M39 72.1978C51.7025 72.1978 62 61.8561 62 49.0989C62 36.3417 51.7025 26 39 26C26.2975 26 16 36.3417 16 49.0989C16 61.8561 26.2975 72.1978 39 72.1978Z" fill="white"/>
<path d="M30.5 77.2194L27 81.2366H42.5H64.5L60 72.7L61.5 58.1376L53 46.5882L46 45.0817L35.5 48.5968L33 58.1376L30.5 77.2194Z" fill="white"/>
<path d="M46 45.0817C34.7448 45.0817 31.931 54.09 31.931 58.5941C31.931 60.0017 31.931 64.6747 31.931 72.1066C31.931 79.5384 24.2069 81.9594 22 82.2409H46" stroke="#006685" stroke-width="4"/>
<path d="M46 45.0817C57.2552 45.0817 60.069 54.09 60.069 58.5941C60.069 60.0017 60.069 64.6747 60.069 72.1066C60.069 79.5384 67.7931 81.9594 70 82.2409H46" stroke="#006685" stroke-width="4"/>
<path d="M61 62.1548C68.1797 62.1548 74 56.3095 74 49.0989C74 41.8883 68.1797 36.043 61 36.043C53.8203 36.043 48 41.8883 48 49.0989C48 56.3095 53.8203 62.1548 61 62.1548Z" fill="#006685"/>
<path d="M40 82.2408H52V89.2968C52 92.6105 49.3137 95.2968 46 95.2968C42.6863 95.2968 40 92.6105 40 89.2968V82.2408Z" fill="white" stroke="#006685" stroke-width="4"/>
<path d="M60.992 57.294C62.12 57.294 62.96 56.5468 62.96 55.4621C62.96 54.3293 62.12 53.6303 60.992 53.6303C59.912 53.6303 59.024 54.3293 59.024 55.4621C59.024 56.5468 59.912 57.294 60.992 57.294ZM59.288 52.4492H62.696L62.912 40.0602H59L59.288 52.4492Z" fill="white"/>
</svg>
