<svg width="260" height="121" viewBox="0 0 260 121" fill="none" xmlns="http://www.w3.org/2000/svg">
<rect y="0.0430298" width="260" height="120.516" fill="white"/>
<rect width="90" height="120.516" fill="#FCD800"/>
<path d="M110.664 40.2902C113.048 40.2902 115 38.8822 115 36.3862V28.9462H113.16V36.3382C113.16 37.8102 112.072 38.6262 110.664 38.6262C109.24 38.6262 108.136 37.8102 108.136 36.3382V28.9462H106.28V36.3862C106.28 38.8822 108.248 40.2902 110.664 40.2902ZM125.18 40.1462V35.6182C125.18 33.7142 124.22 32.2742 122.123 32.2742C121.115 32.2742 119.931 32.6422 119.499 33.6182C119.499 32.1462 118.203 32.2102 117.083 32.4182V33.5542C117.867 33.5062 117.899 33.7622 117.899 34.6742V40.1462H119.659V35.7622C119.659 34.5142 120.523 33.6662 121.611 33.6662C122.651 33.6822 123.436 34.4182 123.419 35.6182V40.1462H125.18ZM127.587 28.4342V37.3942C127.587 39.9702 128.675 40.5782 131.043 40.1942L130.979 38.8502C129.651 39.0582 129.315 38.6582 129.315 37.3782V28.4342H127.587ZM132.436 30.0502C132.436 30.7542 132.98 31.1062 133.508 31.0902C134.02 31.0742 134.532 30.7382 134.532 30.0502C134.532 29.3782 134.02 29.0262 133.492 29.0262C132.964 29.0262 132.436 29.3622 132.436 30.0502ZM134.356 32.5142H132.612V40.1462H134.356V32.5142ZM149.171 40.1462V35.6342C149.219 33.7782 148.675 32.2742 146.563 32.2742C145.379 32.2742 144.179 32.7062 143.747 33.7302C143.443 32.7862 142.755 32.2742 141.411 32.2742C140.355 32.2742 139.219 32.7542 138.787 33.6982C138.835 32.0822 137.395 32.1622 136.371 32.4182L136.387 33.4902C137.155 33.4422 137.203 33.7302 137.203 34.6262V40.1462H138.947V35.6982C138.947 34.4822 139.731 33.7142 140.819 33.6982C141.907 33.6822 142.403 34.4822 142.403 35.6822V40.1462H144.115V35.6822C144.131 34.4662 144.851 33.6982 145.923 33.6822C146.947 33.6662 147.427 34.4822 147.411 35.6342V40.1462H149.171ZM151.513 30.0502C151.513 30.7542 152.057 31.1062 152.585 31.0902C153.097 31.0742 153.609 30.7382 153.609 30.0502C153.609 29.3782 153.097 29.0262 152.569 29.0262C152.041 29.0262 151.513 29.3622 151.513 30.0502ZM153.433 32.5142H151.689V40.1462H153.433V32.5142ZM158.52 30.0662H156.984L156.808 32.4502H155.24V33.5862L156.808 33.6982V37.2022C156.808 40.2262 158.872 40.8342 161.512 40.0182L161.336 38.7062C159.752 39.2662 158.52 39.1382 158.52 37.1702V33.6982H161.192V32.4502H158.52V30.0662ZM166.787 32.2582C164.691 32.2582 162.835 33.5542 162.787 36.1302C162.707 38.7382 164.579 40.3702 167.123 40.3222C168.099 40.3222 169.139 40.0662 170.035 39.6662L169.811 38.3702C168.899 38.7702 167.971 38.8982 167.011 38.8502C165.603 38.8502 164.499 38.0182 164.499 36.6102H170.195C170.707 34.0502 169.491 32.2582 166.787 32.2582ZM166.771 33.6022C167.875 33.6022 168.835 34.2102 168.787 35.3782H164.531C164.771 34.1622 165.619 33.6022 166.771 33.6022ZM178.031 38.9622C178.031 40.2582 179.087 40.3702 180.287 40.1622L180.255 38.9622C179.375 38.9622 179.455 38.6262 179.455 37.7462V28.4342H177.711V32.9142C177.007 32.4982 176.255 32.3222 175.567 32.3222C173.583 32.3222 171.919 33.8902 171.919 36.2742C171.919 38.4342 173.167 40.3542 175.471 40.3062C176.607 40.3062 177.519 39.8742 178.031 38.7382V38.9622ZM177.743 36.6102C177.743 37.7782 176.943 38.7542 175.743 38.7542C174.319 38.7542 173.647 37.6022 173.647 36.2742C173.647 34.7062 174.639 33.8582 175.839 33.8422C176.447 33.8262 177.119 34.0182 177.743 34.4502V36.6102ZM191.688 38.8502C191.736 40.3702 192.68 40.3702 193.896 40.1622L193.864 39.1702C193.032 39.2502 193.064 38.7862 193.064 38.0662V35.0262C193.064 32.8982 191.4 32.2422 189.528 32.2422C188.504 32.2422 187.464 32.4502 186.68 32.8502L186.936 34.0982C187.896 33.6182 191.368 32.9462 191.368 34.9782V35.7462C190.68 35.3622 189.832 35.1702 189.08 35.1702C187.384 35.1702 186.04 36.0502 186.088 37.8902C186.088 39.3942 187.448 40.2902 188.856 40.2902C189.944 40.2902 191.176 39.8742 191.688 38.8502ZM191.368 37.5062C191.192 38.4822 190.12 38.9142 189.208 38.9142C188.504 38.9142 187.8 38.5622 187.8 37.7942C187.8 36.8502 188.52 36.3542 189.368 36.3382C190.056 36.3222 190.792 36.5302 191.368 36.8662V37.5062ZM203.093 34.9942C202.677 33.1062 201.029 32.1942 199.349 32.2102C197.349 32.2262 195.301 33.6022 195.301 36.2582C195.301 38.9302 197.349 40.2742 199.365 40.2742C201.061 40.2742 202.741 39.3142 203.141 37.3622H201.477C201.125 38.3062 200.261 38.7702 199.397 38.7702C198.229 38.7702 197.029 37.9222 197.029 36.2582C197.029 34.6262 198.245 33.7622 199.429 33.7622C200.325 33.7622 201.141 34.1622 201.477 34.9942H203.093ZM212.46 34.9942C212.044 33.1062 210.396 32.1942 208.716 32.2102C206.716 32.2262 204.668 33.6022 204.668 36.2582C204.668 38.9302 206.716 40.2742 208.732 40.2742C210.428 40.2742 212.108 39.3142 212.508 37.3622H210.844C210.492 38.3062 209.628 38.7702 208.764 38.7702C207.596 38.7702 206.396 37.9222 206.396 36.2582C206.396 34.6262 207.612 33.7622 208.796 33.7622C209.692 33.7622 210.508 34.1622 210.844 34.9942H212.46ZM218.035 32.2582C215.939 32.2582 214.083 33.5542 214.035 36.1302C213.955 38.7382 215.827 40.3702 218.371 40.3222C219.347 40.3222 220.387 40.0662 221.283 39.6662L221.059 38.3702C220.147 38.7702 219.219 38.8982 218.259 38.8502C216.851 38.8502 215.747 38.0182 215.747 36.6102H221.443C221.955 34.0502 220.739 32.2582 218.035 32.2582ZM218.019 33.6022C219.123 33.6022 220.083 34.2102 220.035 35.3782H215.779C216.019 34.1622 216.867 33.6022 218.019 33.6022ZM223.103 37.8742C223.231 39.7942 224.927 40.3382 226.639 40.3382C228.351 40.3382 229.999 39.6022 229.999 37.8902C229.999 36.0662 228.431 35.7942 226.815 35.5862C225.615 35.4422 224.991 35.2982 224.975 34.6582C224.927 33.9702 225.759 33.5862 226.559 33.5862C227.375 33.5862 228.303 33.8262 228.303 34.5942H229.839C229.887 33.0582 228.335 32.2742 226.559 32.2742C224.879 32.2742 223.279 33.0422 223.279 34.6902C223.327 36.4342 225.103 36.6102 226.687 36.8182C227.695 36.9462 228.415 37.1542 228.415 37.8582C228.367 38.8022 227.423 39.0422 226.575 39.0422C225.743 39.0422 224.863 38.6742 224.815 37.8742H223.103ZM231.548 37.8742C231.676 39.7942 233.372 40.3382 235.084 40.3382C236.796 40.3382 238.444 39.6022 238.444 37.8902C238.444 36.0662 236.876 35.7942 235.26 35.5862C234.06 35.4422 233.436 35.2982 233.42 34.6582C233.372 33.9702 234.204 33.5862 235.004 33.5862C235.82 33.5862 236.748 33.8262 236.748 34.5942H238.284C238.332 33.0582 236.78 32.2742 235.004 32.2742C233.324 32.2742 231.724 33.0422 231.724 34.6902C231.772 36.4342 233.548 36.6102 235.132 36.8182C236.14 36.9462 236.86 37.1542 236.86 37.8582C236.812 38.8022 235.868 39.0422 235.02 39.0422C234.188 39.0422 233.308 38.6742 233.26 37.8742H231.548ZM108.616 54.0662H107.08L106.904 56.4502H105.336V57.5862L106.904 57.6982V61.2022C106.904 64.2262 108.968 64.8342 111.608 64.0182L111.432 62.7062C109.848 63.2662 108.616 63.1382 108.616 61.1702V57.6982H111.288V56.4502H108.616V54.0662ZM121.026 60.2582C121.026 57.5542 118.946 56.2102 116.882 56.2422C114.866 56.2742 112.882 57.6022 112.882 60.2582C112.882 62.9462 114.914 64.2902 116.946 64.2902C118.978 64.2902 121.026 62.9462 121.026 60.2582ZM114.61 60.2582C114.61 58.6262 115.73 57.8102 116.882 57.7782C118.066 57.7462 119.282 58.5782 119.282 60.2582C119.282 61.9062 118.13 62.7382 116.978 62.7542C115.794 62.7702 114.61 61.9382 114.61 60.2582ZM134.361 56.6262V56.4342H132.617L131.593 59.1382L130.425 62.5142H130.377L129.113 59.1222L127.977 56.4342H126.105V56.6262L129.577 64.1942L129.209 65.1382C128.745 66.4182 128.073 67.0902 126.697 66.4822L126.489 67.7462C129.161 68.8982 130.121 67.0742 131.017 64.8022L134.361 56.6262ZM143.596 60.2582C143.596 57.5542 141.516 56.2102 139.452 56.2422C137.436 56.2742 135.452 57.6022 135.452 60.2582C135.452 62.9462 137.484 64.2902 139.516 64.2902C141.548 64.2902 143.596 62.9462 143.596 60.2582ZM137.18 60.2582C137.18 58.6262 138.3 57.8102 139.452 57.7782C140.636 57.7462 141.852 58.5782 141.852 60.2582C141.852 61.9062 140.7 62.7382 139.548 62.7542C138.364 62.7702 137.18 61.9382 137.18 60.2582ZM150.985 56.4342V60.8502C150.985 62.0822 150.137 62.8822 149.033 62.8822C148.009 62.8822 147.353 62.1302 147.369 60.8982V56.4342H145.609V60.8982C145.609 62.7862 146.361 64.2742 148.489 64.2742C149.577 64.2742 150.633 63.9382 151.161 62.8982C151.161 64.5622 152.569 64.3542 153.561 64.1782L153.545 63.0422C152.809 63.1222 152.729 62.8662 152.729 61.9382V56.4342H150.985ZM157.46 57.5542C157.38 56.3062 156.132 56.1142 154.996 56.3702L155.012 57.5542C155.844 57.5062 155.844 57.8582 155.844 58.5462V64.1462H157.572V59.6822C157.572 58.4342 158.5 57.7622 159.54 57.7622C160.1 57.7622 160.612 57.9222 161.076 58.2262L161.508 56.7222C161.012 56.3542 160.372 56.1622 159.732 56.1782C158.788 56.1782 157.764 56.6582 157.46 57.5542ZM166.624 58.5622C166.624 62.1622 169.264 64.2582 172.304 64.2582C174.576 64.2582 176.88 63.0582 177.44 60.3222H175.632C175.136 61.8102 173.84 62.5622 172.304 62.5622C170.016 62.5622 168.496 60.7862 168.496 58.5622C168.496 56.1782 170.016 54.5142 172.304 54.5142C173.776 54.5302 175.024 55.1702 175.584 56.5622H177.376C176.784 54.0342 174.512 52.8182 172.32 52.8182C169.264 52.8182 166.624 54.9462 166.624 58.5622ZM182.636 62.6422V54.4342H184.268V52.9462H179.148V54.4342H180.78V62.6422H179.004V64.1462H184.412V62.6422H182.636ZM194.828 56.0982C194.828 53.9862 193.34 52.9462 191.308 52.9462H186.764V64.1462H191.772C193.948 64.1462 195.324 62.8502 195.324 60.8502C195.324 59.5862 194.684 58.6582 193.516 58.2582C194.396 57.8262 194.828 57.0422 194.828 56.0982ZM191.18 54.5622C192.268 54.5622 193.004 55.0422 193.004 56.1462C192.988 57.2342 192.252 57.6502 191.18 57.6502H188.62V54.5622H191.18ZM191.452 59.1702C191.964 59.1702 192.476 59.2022 192.908 59.5222C193.292 59.8422 193.484 60.2902 193.484 60.8502C193.436 61.9222 192.7 62.5142 191.66 62.5142H188.62V59.1702H191.452ZM200.667 62.6422V54.4342H202.299V52.9462H197.179V54.4342H198.811V62.6422H197.035V64.1462H202.443V62.6422H200.667ZM206.666 52.9462H204.794V64.1462H211.482V62.4662H206.666V52.9462ZM106.408 76.9622V88.1462H110.456C113.976 88.1462 115.928 85.4742 115.928 82.5302C115.928 79.5862 113.944 76.9622 110.456 76.9622H106.408ZM108.264 86.4502V78.6422H110.44C112.728 78.6422 114.072 80.4342 114.072 82.5462C114.072 84.6582 112.744 86.4502 110.424 86.4502H108.264ZM123.042 86.8502C123.09 88.3702 124.034 88.3702 125.25 88.1622L125.218 87.1702C124.386 87.2502 124.418 86.7862 124.418 86.0662V83.0262C124.418 80.8982 122.754 80.2422 120.882 80.2422C119.858 80.2422 118.818 80.4502 118.034 80.8502L118.29 82.0982C119.25 81.6182 122.722 80.9462 122.722 82.9782V83.7462C122.034 83.3622 121.186 83.1702 120.434 83.1702C118.738 83.1702 117.394 84.0502 117.442 85.8902C117.442 87.3942 118.802 88.2902 120.21 88.2902C121.298 88.2902 122.53 87.8742 123.042 86.8502ZM122.722 85.5062C122.546 86.4822 121.474 86.9142 120.562 86.9142C119.858 86.9142 119.154 86.5622 119.154 85.7942C119.154 84.8502 119.874 84.3542 120.722 84.3382C121.41 84.3222 122.146 84.5302 122.722 84.8662V85.5062ZM126.591 85.8742C126.719 87.7942 128.415 88.3382 130.127 88.3382C131.839 88.3382 133.487 87.6022 133.487 85.8902C133.487 84.0662 131.919 83.7942 130.303 83.5862C129.103 83.4422 128.479 83.2982 128.463 82.6582C128.415 81.9702 129.247 81.5862 130.047 81.5862C130.863 81.5862 131.791 81.8262 131.791 82.5942H133.327C133.375 81.0582 131.823 80.2742 130.047 80.2742C128.367 80.2742 126.767 81.0422 126.767 82.6902C126.815 84.4342 128.591 84.6102 130.175 84.8182C131.183 84.9462 131.903 85.1542 131.903 85.8582C131.855 86.8022 130.911 87.0422 130.063 87.0422C129.231 87.0422 128.351 86.6742 128.303 85.8742H126.591ZM142.86 88.1462V83.5862C142.86 81.6022 141.932 80.2582 139.804 80.2582C138.78 80.2582 137.98 80.4982 137.324 81.3782V76.4502H135.58V88.1462H137.324V83.6822C137.324 82.4182 138.172 81.6502 139.308 81.6502C140.396 81.6662 141.116 82.3062 141.1 83.5862V88.1462H142.86ZM145.305 87.7462C146.297 88.1302 147.497 88.3702 148.553 88.3862C150.857 88.4022 152.953 87.3462 152.953 84.3702C152.953 81.9062 151.289 80.3222 149.273 80.3222C148.585 80.3222 147.785 80.5142 147.049 80.8982V76.4502H145.305V87.7462ZM147.017 82.4022C147.657 82.0182 148.393 81.8582 149.001 81.8742C150.201 81.9222 151.209 82.7542 151.209 84.3702C151.209 86.2422 150.105 86.9462 148.729 86.9622C148.217 86.9622 147.577 86.8662 147.017 86.7062V82.4022ZM162.728 84.2582C162.728 81.5542 160.648 80.2102 158.584 80.2422C156.568 80.2742 154.584 81.6022 154.584 84.2582C154.584 86.9462 156.616 88.2902 158.648 88.2902C160.68 88.2902 162.728 86.9462 162.728 84.2582ZM156.312 84.2582C156.312 82.6262 157.432 81.8102 158.584 81.7782C159.768 81.7462 160.984 82.5782 160.984 84.2582C160.984 85.9062 159.832 86.7382 158.68 86.7542C157.496 86.7702 156.312 85.9382 156.312 84.2582ZM169.845 86.8502C169.893 88.3702 170.837 88.3702 172.053 88.1622L172.021 87.1702C171.189 87.2502 171.221 86.7862 171.221 86.0662V83.0262C171.221 80.8982 169.557 80.2422 167.685 80.2422C166.661 80.2422 165.621 80.4502 164.837 80.8502L165.093 82.0982C166.053 81.6182 169.525 80.9462 169.525 82.9782V83.7462C168.837 83.3622 167.989 83.1702 167.237 83.1702C165.541 83.1702 164.197 84.0502 164.245 85.8902C164.245 87.3942 165.605 88.2902 167.013 88.2902C168.101 88.2902 169.333 87.8742 169.845 86.8502ZM169.525 85.5062C169.349 86.4822 168.277 86.9142 167.365 86.9142C166.661 86.9142 165.957 86.5622 165.957 85.7942C165.957 84.8502 166.677 84.3542 167.525 84.3382C168.213 84.3222 168.949 84.5302 169.525 84.8662V85.5062ZM175.826 81.5542C175.746 80.3062 174.498 80.1142 173.362 80.3702L173.378 81.5542C174.21 81.5062 174.21 81.8582 174.21 82.5462V88.1462H175.938V83.6822C175.938 82.4342 176.866 81.7622 177.906 81.7622C178.466 81.7622 178.978 81.9222 179.442 82.2262L179.874 80.7222C179.378 80.3542 178.738 80.1622 178.098 80.1782C177.154 80.1782 176.13 80.6582 175.826 81.5542ZM186.906 86.9622C186.906 88.2582 187.962 88.3702 189.162 88.1622L189.13 86.9622C188.25 86.9622 188.33 86.6262 188.33 85.7462V76.4342H186.586V80.9142C185.882 80.4982 185.13 80.3222 184.442 80.3222C182.458 80.3222 180.794 81.8902 180.794 84.2742C180.794 86.4342 182.042 88.3542 184.346 88.3062C185.482 88.3062 186.394 87.8742 186.906 86.7382V86.9622ZM186.618 84.6102C186.618 85.7782 185.818 86.7542 184.618 86.7542C183.194 86.7542 182.522 85.6022 182.522 84.2742C182.522 82.7062 183.514 81.8582 184.714 81.8422C185.322 81.8262 185.994 82.0182 186.618 82.4502V84.6102Z" fill="#2C2C2C"/>
<path d="M45 88.2667C62.1208 88.2667 76 74.3278 76 57.1333C76 39.9389 62.1208 26 45 26C27.8792 26 14 39.9389 14 57.1333C14 74.3278 27.8792 88.2667 45 88.2667Z" fill="white"/>
<rect x="14" y="47.0817" width="61" height="39.1849" rx="4" fill="white" stroke="#006685" stroke-width="4"/>
<rect x="34.2554" y="91.5306" width="20.4892" height="2.51075" rx="1.25538" fill="white" stroke="#006685" stroke-width="2.51075"/>
<rect x="42.5065" y="85.7559" width="3.9871" height="3.0129" fill="white" stroke="#006685" stroke-width="3.0129"/>
<mask id="path-8-inside-1_1605:690" fill="white">
<path d="M31.9408 74.6598V79.5723C31.9408 79.7794 31.9806 79.9845 32.0579 80.1759C32.1352 80.3673 32.2486 80.5412 32.3914 80.6877C32.5343 80.8342 32.7039 80.9504 32.8906 81.0297C33.0773 81.1089 33.2774 81.1497 33.4794 81.1497H37.1117C37.5191 81.1488 37.9096 80.9822 38.1974 80.6864C38.4852 80.3907 38.6468 79.99 38.6468 79.5723V74.4149"/>
</mask>
<path d="M31.9408 74.6598V79.5723C31.9408 79.7794 31.9806 79.9845 32.0579 80.1759C32.1352 80.3673 32.2486 80.5412 32.3914 80.6877C32.5343 80.8342 32.7039 80.9504 32.8906 81.0297C33.0773 81.1089 33.2774 81.1497 33.4794 81.1497H37.1117C37.5191 81.1488 37.9096 80.9822 38.1974 80.6864C38.4852 80.3907 38.6468 79.99 38.6468 79.5723V74.4149" fill="#006685"/>
<path d="M31.9408 79.5723H30.9408H31.9408ZM37.1117 81.1497V82.1497L37.114 82.1497L37.1117 81.1497ZM38.6468 79.5723H37.6468V79.5723L38.6468 79.5723ZM30.9408 74.6598V79.5723H32.9408V74.6598H30.9408ZM30.9408 79.5723C30.9408 79.9073 31.0051 80.2396 31.1307 80.5505L32.9851 79.8013C32.9561 79.7295 32.9408 79.6515 32.9408 79.5723H30.9408ZM31.1307 80.5505C31.2563 80.8614 31.441 81.1455 31.6756 81.386L33.1073 79.9895C33.0561 79.937 33.0141 79.8732 32.9851 79.8013L31.1307 80.5505ZM31.6756 81.386C31.9101 81.6265 32.19 81.8186 32.4997 81.9501L33.2815 80.1092C33.2179 80.0822 33.1585 80.0419 33.1073 79.9895L31.6756 81.386ZM32.4997 81.9501C32.8096 82.0817 33.1426 82.1497 33.4794 82.1497V80.1497C33.4122 80.1497 33.345 80.1362 33.2815 80.1092L32.4997 81.9501ZM33.4794 82.1497H37.1117V80.1497H33.4794V82.1497ZM37.114 82.1497C37.7944 82.1481 38.4412 81.8697 38.914 81.3839L37.4807 79.989C37.3779 80.0946 37.2438 80.1494 37.1093 80.1497L37.114 82.1497ZM38.914 81.3839C39.386 80.8988 39.6468 80.2469 39.6468 79.5723L37.6468 79.5723C37.6468 79.7331 37.5843 79.8826 37.4807 79.989L38.914 81.3839ZM39.6468 79.5723V74.4149H37.6468V79.5723H39.6468Z" fill="#006685" mask="url(#path-8-inside-1_1605:690)"/>
<mask id="path-10-inside-2_1605:690" fill="white">
<path d="M40.8821 73.855V79.5609C40.8821 79.7695 40.9218 79.9761 40.9991 80.1689C41.0764 80.3616 41.1897 80.5368 41.3325 80.6843C41.4753 80.8318 41.6448 80.9489 41.8314 81.0287C42.018 81.1086 42.2179 81.1496 42.4199 81.1496H46.0502C46.2522 81.1496 46.4522 81.1086 46.6387 81.0287C46.8253 80.9489 46.9948 80.8318 47.1376 80.6843C47.2804 80.5368 47.3937 80.3616 47.471 80.1689C47.5483 79.9761 47.5881 79.7695 47.5881 79.5609V71.0474"/>
</mask>
<path d="M40.8821 73.855V79.5609C40.8821 79.7695 40.9218 79.9761 40.9991 80.1689C41.0764 80.3616 41.1897 80.5368 41.3325 80.6843C41.4753 80.8318 41.6448 80.9489 41.8314 81.0287C42.018 81.1086 42.2179 81.1496 42.4199 81.1496H46.0502C46.2522 81.1496 46.4522 81.1086 46.6387 81.0287C46.8253 80.9489 46.9948 80.8318 47.1376 80.6843C47.2804 80.5368 47.3937 80.3616 47.471 80.1689C47.5483 79.9761 47.5881 79.7695 47.5881 79.5609V71.0474" fill="#006685"/>
<path d="M40.8821 79.5609H39.8821H40.8821ZM42.4199 81.1496V82.1496V81.1496ZM39.8821 73.855V79.5609H41.8821V73.855H39.8821ZM39.8821 79.5609C39.8821 79.8963 39.946 80.2293 40.0709 80.541L41.9273 79.7967C41.8977 79.7229 41.8821 79.6427 41.8821 79.5609H39.8821ZM40.0709 80.541C40.1959 80.8527 40.3799 81.138 40.6139 81.3798L42.051 79.9888C41.9995 79.9356 41.9569 79.8706 41.9273 79.7967L40.0709 80.541ZM40.6139 81.3798C40.8481 81.6217 41.1278 81.8153 41.438 81.9481L42.2248 80.1094C42.1619 80.0824 42.1025 80.042 42.051 79.9888L40.6139 81.3798ZM41.438 81.9481C41.7483 82.0809 42.0821 82.1496 42.4199 82.1496V80.1496C42.3538 80.1496 42.2877 80.1363 42.2248 80.1094L41.438 81.9481ZM42.4199 82.1496H46.0502V80.1496H42.4199V82.1496ZM46.0502 82.1496C46.3881 82.1496 46.7218 82.0809 47.0322 81.9481L46.2453 80.1094C46.1825 80.1363 46.1163 80.1496 46.0502 80.1496V82.1496ZM47.0322 81.9481C47.3423 81.8153 47.6221 81.6217 47.8562 81.3798L46.4191 79.9888C46.3676 80.042 46.3083 80.0824 46.2453 80.1094L47.0322 81.9481ZM47.8562 81.3798C48.0902 81.138 48.2742 80.8527 48.3992 80.541L46.5428 79.7967C46.5132 79.8706 46.4706 79.9356 46.4191 79.9888L47.8562 81.3798ZM48.3992 80.541C48.5241 80.2293 48.5881 79.8963 48.5881 79.5609H46.5881C46.5881 79.6427 46.5724 79.7229 46.5428 79.7967L48.3992 80.541ZM48.5881 79.5609V71.0474H46.5881V79.5609H48.5881Z" fill="#006685" mask="url(#path-10-inside-2_1605:690)"/>
<mask id="path-12-inside-3_1605:690" fill="white">
<path d="M49.8235 69.5362V79.6103C49.8235 80.0181 49.9851 80.4091 50.2729 80.6978C50.5607 80.9864 50.9511 81.149 51.3586 81.1499H54.9909C55.1929 81.1499 55.393 81.1101 55.5797 81.0328C55.7664 80.9554 55.9359 80.842 56.0788 80.699C56.2217 80.556 56.335 80.3863 56.4123 80.1995C56.4897 80.0127 56.5295 79.8125 56.5295 79.6103V60.9455"/>
</mask>
<path d="M49.8235 69.5362V79.6103C49.8235 80.0181 49.9851 80.4091 50.2729 80.6978C50.5607 80.9864 50.9511 81.149 51.3586 81.1499H54.9909C55.1929 81.1499 55.393 81.1101 55.5797 81.0328C55.7664 80.9554 55.9359 80.842 56.0788 80.699C56.2217 80.556 56.335 80.3863 56.4123 80.1995C56.4897 80.0127 56.5295 79.8125 56.5295 79.6103V60.9455" fill="#006685"/>
<path d="M49.8235 79.6103L50.8235 79.6103V79.6103H49.8235ZM51.3586 81.1499L51.3563 82.1499H51.3586V81.1499ZM48.8235 69.5362V79.6103H50.8235V69.5362H48.8235ZM48.8235 79.6103C48.8235 80.2827 49.0901 80.9277 49.5648 81.4038L50.9811 79.9917C50.8802 79.8906 50.8235 79.7534 50.8235 79.6103L48.8235 79.6103ZM49.5648 81.4038C50.0396 81.88 50.6838 82.1484 51.3563 82.1499L51.3609 80.1499C51.2184 80.1496 51.0819 80.0928 50.9811 79.9917L49.5648 81.4038ZM51.3586 82.1499H54.9909V80.1499H51.3586V82.1499ZM54.9909 82.1499C55.3243 82.1499 55.6545 82.0842 55.9626 81.9565L55.1968 80.109C55.1315 80.136 55.0616 80.1499 54.9909 80.1499V82.1499ZM55.9626 81.9565C56.2707 81.8289 56.5505 81.6417 56.7861 81.4059L55.3715 79.9921C55.3214 80.0422 55.2621 80.0819 55.1968 80.109L55.9626 81.9565ZM56.7861 81.4059C57.0219 81.17 57.2088 80.89 57.3363 80.582L55.4884 79.817C55.4613 79.8826 55.4215 79.9421 55.3715 79.9921L56.7861 81.4059ZM57.3363 80.582C57.4639 80.2739 57.5295 79.9437 57.5295 79.6103H55.5295C55.5295 79.6813 55.5155 79.7516 55.4884 79.817L57.3363 80.582ZM57.5295 79.6103V60.9455H55.5295V79.6103H57.5295Z" fill="#006685" mask="url(#path-12-inside-3_1605:690)"/>
<path fill-rule="evenodd" clip-rule="evenodd" d="M53.3433 63.0475C54.6219 60.9009 55.5193 58.5598 56.0029 56.1261L59.2911 56.7852C58.7324 59.5966 57.696 62.2995 56.2207 64.7762C54.2992 68.0021 51.6814 70.7637 48.557 72.8633C45.4328 74.9628 41.8792 76.3486 38.1524 76.9221C34.4256 77.4955 30.6169 77.2427 27 76.1814L27.9403 72.9491C31.0869 73.8724 34.4014 74.0926 37.6446 73.5935C40.8878 73.0944 43.9779 71.8888 46.6924 70.0646C49.4068 68.2404 51.6779 65.8435 53.3433 63.0475Z" fill="#006685"/>
<path d="M53.7289 56.8316L53.7302 56.8303L58.1014 52.5627L58.1026 52.5615C58.1346 52.5301 58.1831 52.4999 58.2469 52.4819C58.3108 52.4639 58.381 52.4607 58.4481 52.4734C58.5154 52.4861 58.5703 52.513 58.6091 52.5442L58.921 52.1559L58.6091 52.5442C58.6476 52.575 58.6662 52.6065 58.6741 52.6298L58.6743 52.6305L60.4924 57.967L60.4924 57.967L60.4937 57.9709C60.5012 57.9922 60.5017 58.012 60.4964 58.0319C60.4908 58.0525 60.4767 58.0808 60.4452 58.1103L60.7865 58.4757L60.4452 58.1103C60.4132 58.1401 60.3659 58.1684 60.3047 58.1852C60.2435 58.202 60.1766 58.2052 60.1122 58.1936L60.1084 58.1929L53.915 57.128C53.915 57.128 53.9149 57.128 53.9149 57.128C53.8487 57.1165 53.7937 57.0913 53.7537 57.061C53.714 57.031 53.6935 56.9997 53.6842 56.9759C53.6753 56.9532 53.6743 56.9322 53.6791 56.9119C53.6841 56.8908 53.6976 56.8619 53.7289 56.8316L53.7289 56.8316Z" fill="#006685" stroke="#006685"/>
<path d="M29 58.4053C29 54.0312 35.6653 54.0312 35.6653 58.4053C35.6653 62.7793 29 62.7793 29 58.4053ZM33.2558 58.4053C33.2558 56.7971 31.4311 56.7971 31.4311 58.4053C31.4311 60.0134 33.2558 59.9812 33.2558 58.4053ZM38.6 55.4517H41.5509L35.3838 67.8234H32.4491L38.6 55.4517ZM38.3509 64.9021C38.3509 60.528 45 60.528 45 64.9021C45 69.2761 38.3509 69.2708 38.3509 64.9021ZM42.5851 64.9021C42.5851 63.3261 40.7442 63.3261 40.7442 64.9021C40.7442 66.478 42.5851 66.5102 42.5851 64.9021Z" fill="#006685"/>
</svg>
