<svg width="260" height="120" viewBox="0 0 260 120" fill="none" xmlns="http://www.w3.org/2000/svg">
<rect width="260" height="120" fill="white"/>
<rect width="90" height="120" fill="#FCD800"/>
<path d="M105.736 22.384C105.736 25.984 108.328 28.144 111.384 28.144C113.592 28.144 115.512 27.12 116.36 24.992C116.728 24.016 116.808 23.024 116.76 21.952H111.512V23.536H115C114.696 25.68 113.304 26.448 111.384 26.448C109.08 26.448 107.624 24.752 107.624 22.384C107.624 20.144 109.032 18.336 111.384 18.336C112.872 18.336 113.96 18.864 114.584 20.16H116.424C115.736 17.68 113.624 16.656 111.4 16.656C108.392 16.656 105.736 18.8 105.736 22.384ZM122.367 20.112C120.271 20.112 118.415 21.408 118.367 23.984C118.287 26.592 120.159 28.224 122.703 28.176C123.679 28.176 124.719 27.92 125.615 27.52L125.391 26.224C124.479 26.624 123.551 26.752 122.591 26.704C121.183 26.704 120.079 25.872 120.079 24.464H125.775C126.287 21.904 125.071 20.112 122.367 20.112ZM122.351 21.456C123.455 21.456 124.415 22.064 124.367 23.232H120.111C120.351 22.016 121.199 21.456 122.351 21.456ZM130.459 17.92H128.923L128.747 20.304H127.179V21.44L128.747 21.552V25.056C128.747 28.08 130.811 28.688 133.451 27.872L133.275 26.56C131.691 27.12 130.459 26.992 130.459 25.024V21.552H133.131V20.304H130.459V17.92ZM139.381 17.904C139.381 18.608 139.925 18.96 140.453 18.944C140.965 18.928 141.477 18.592 141.477 17.904C141.477 17.232 140.965 16.88 140.437 16.88C139.909 16.88 139.381 17.216 139.381 17.904ZM141.301 20.368H139.557V28H141.301V20.368ZM151.444 28V23.472C151.444 21.568 150.484 20.128 148.388 20.128C147.38 20.128 146.196 20.496 145.764 21.472C145.764 20 144.468 20.064 143.348 20.272V21.408C144.132 21.36 144.164 21.616 144.164 22.528V28H145.924V23.616C145.924 22.368 146.788 21.52 147.876 21.52C148.916 21.536 149.7 22.272 149.684 23.472V28H151.444ZM153.387 25.728C153.515 27.648 155.211 28.192 156.923 28.192C158.635 28.192 160.283 27.456 160.283 25.744C160.283 23.92 158.715 23.648 157.099 23.44C155.899 23.296 155.275 23.152 155.259 22.512C155.211 21.824 156.043 21.44 156.843 21.44C157.659 21.44 158.587 21.68 158.587 22.448H160.123C160.171 20.912 158.619 20.128 156.843 20.128C155.163 20.128 153.563 20.896 153.563 22.544C153.611 24.288 155.387 24.464 156.971 24.672C157.979 24.8 158.699 25.008 158.699 25.712C158.651 26.656 157.707 26.896 156.859 26.896C156.027 26.896 155.147 26.528 155.099 25.728H153.387ZM162.216 17.904C162.216 18.608 162.76 18.96 163.288 18.944C163.8 18.928 164.312 18.592 164.312 17.904C164.312 17.232 163.8 16.88 163.272 16.88C162.744 16.88 162.216 17.216 162.216 17.904ZM164.136 20.368H162.392V28H164.136V20.368ZM172.103 28.448C172.103 30.24 171.223 30.848 170.023 30.864C169.127 30.88 168.071 30.544 167.079 30.064L166.823 31.472C167.863 32.048 169.015 32.352 170.071 32.336C172.087 32.32 173.783 31.152 173.783 28.48V20.912C172.775 20.48 171.703 20.208 170.599 20.192C168.231 20.144 166.279 21.408 166.279 24.208C166.279 26.752 167.799 28.256 169.767 28.272C170.503 28.272 171.303 28.08 172.103 27.632V28.448ZM172.071 26.16C171.431 26.576 170.775 26.784 170.167 26.768C168.967 26.752 168.023 25.888 168.023 24.208C168.039 22.48 168.967 21.648 170.439 21.648C170.983 21.648 171.527 21.744 172.071 21.936V26.16ZM183.608 28V23.44C183.608 21.456 182.68 20.112 180.552 20.112C179.528 20.112 178.728 20.352 178.072 21.232V16.304H176.328V28H178.072V23.536C178.072 22.272 178.92 21.504 180.056 21.504C181.144 21.52 181.864 22.16 181.848 23.44V28H183.608ZM188.488 17.92H186.952L186.776 20.304H185.208V21.44L186.776 21.552V25.056C186.776 28.08 188.84 28.688 191.48 27.872L191.304 26.56C189.72 27.12 188.488 26.992 188.488 25.024V21.552H191.16V20.304H188.488V17.92ZM197.41 17.904C197.41 18.608 197.954 18.96 198.482 18.944C198.994 18.928 199.506 18.592 199.506 17.904C199.506 17.232 198.994 16.88 198.466 16.88C197.938 16.88 197.41 17.216 197.41 17.904ZM199.33 20.368H197.586V28H199.33V20.368ZM209.473 28V23.472C209.473 21.568 208.513 20.128 206.417 20.128C205.409 20.128 204.225 20.496 203.793 21.472C203.793 20 202.497 20.064 201.377 20.272V21.408C202.161 21.36 202.193 21.616 202.193 22.528V28H203.953V23.616C203.953 22.368 204.817 21.52 205.905 21.52C206.945 21.536 207.729 22.272 207.713 23.472V28H209.473ZM214.346 17.92H212.81L212.634 20.304H211.066V21.44L212.634 21.552V25.056C212.634 28.08 214.698 28.688 217.338 27.872L217.162 26.56C215.578 27.12 214.346 26.992 214.346 25.024V21.552H217.018V20.304H214.346V17.92ZM226.756 24.112C226.756 21.408 224.676 20.064 222.612 20.096C220.596 20.128 218.612 21.456 218.612 24.112C218.612 26.8 220.644 28.144 222.676 28.144C224.708 28.144 226.756 26.8 226.756 24.112ZM220.34 24.112C220.34 22.48 221.46 21.664 222.612 21.632C223.796 21.6 225.012 22.432 225.012 24.112C225.012 25.76 223.86 26.592 222.708 26.608C221.524 26.624 220.34 25.792 220.34 24.112ZM109.128 52.08L111.176 47.424L113.24 52.08H114.024L117.08 44.48V44.288H115.192C114.872 45.184 114.536 46.048 114.232 46.944L113.496 49.072H113.448L111.608 44.464H110.744L108.904 49.056H108.872L108.152 46.944L107.176 44.288H105.304V44.48L108.344 52.08H109.128ZM126.127 52V47.44C126.127 45.456 125.199 44.112 123.071 44.112C122.047 44.112 121.247 44.352 120.591 45.232V40.304H118.847V52H120.591V47.536C120.591 46.272 121.439 45.504 122.575 45.504C123.663 45.52 124.383 46.16 124.367 47.44V52H126.127ZM133.628 50.704C133.676 52.224 134.62 52.224 135.836 52.016L135.804 51.024C134.972 51.104 135.004 50.64 135.004 49.92V46.88C135.004 44.752 133.34 44.096 131.468 44.096C130.444 44.096 129.404 44.304 128.62 44.704L128.876 45.952C129.836 45.472 133.308 44.8 133.308 46.832V47.6C132.62 47.216 131.772 47.024 131.02 47.024C129.324 47.024 127.98 47.904 128.028 49.744C128.028 51.248 129.388 52.144 130.796 52.144C131.884 52.144 133.116 51.728 133.628 50.704ZM133.308 49.36C133.132 50.336 132.06 50.768 131.148 50.768C130.444 50.768 129.74 50.416 129.74 49.648C129.74 48.704 130.46 48.208 131.308 48.192C131.996 48.176 132.732 48.384 133.308 48.72V49.36ZM140.045 41.92H138.509L138.333 44.304H136.765V45.44L138.333 45.552V49.056C138.333 52.08 140.397 52.688 143.037 51.872L142.861 50.56C141.277 51.12 140.045 50.992 140.045 49.024V45.552H142.717V44.304H140.045V41.92ZM154.135 50.704C154.183 52.224 155.127 52.224 156.343 52.016L156.311 51.024C155.479 51.104 155.511 50.64 155.511 49.92V46.88C155.511 44.752 153.847 44.096 151.975 44.096C150.951 44.096 149.911 44.304 149.127 44.704L149.383 45.952C150.343 45.472 153.815 44.8 153.815 46.832V47.6C153.127 47.216 152.279 47.024 151.527 47.024C149.831 47.024 148.487 47.904 148.535 49.744C148.535 51.248 149.895 52.144 151.303 52.144C152.391 52.144 153.623 51.728 154.135 50.704ZM153.815 49.36C153.639 50.336 152.567 50.768 151.655 50.768C150.951 50.768 150.247 50.416 150.247 49.648C150.247 48.704 150.967 48.208 151.815 48.192C152.503 48.176 153.239 48.384 153.815 48.72V49.36ZM165.54 46.848C165.124 44.96 163.476 44.048 161.796 44.064C159.796 44.08 157.748 45.456 157.748 48.112C157.748 50.784 159.796 52.128 161.812 52.128C163.508 52.128 165.188 51.168 165.588 49.216H163.924C163.572 50.16 162.708 50.624 161.844 50.624C160.676 50.624 159.476 49.776 159.476 48.112C159.476 46.48 160.692 45.616 161.876 45.616C162.772 45.616 163.588 46.016 163.924 46.848H165.54ZM170.075 41.92H168.539L168.363 44.304H166.795V45.44L168.363 45.552V49.056C168.363 52.08 170.427 52.688 173.067 51.872L172.891 50.56C171.307 51.12 170.075 50.992 170.075 49.024V45.552H172.747V44.304H170.075V41.92ZM174.661 41.904C174.661 42.608 175.205 42.96 175.733 42.944C176.245 42.928 176.757 42.592 176.757 41.904C176.757 41.232 176.245 40.88 175.717 40.88C175.189 40.88 174.661 41.216 174.661 41.904ZM176.581 44.368H174.837V52H176.581V44.368ZM186.852 48.112C186.852 45.408 184.772 44.064 182.708 44.096C180.692 44.128 178.708 45.456 178.708 48.112C178.708 50.8 180.74 52.144 182.772 52.144C184.804 52.144 186.852 50.8 186.852 48.112ZM180.436 48.112C180.436 46.48 181.556 45.664 182.708 45.632C183.892 45.6 185.108 46.432 185.108 48.112C185.108 49.76 183.956 50.592 182.804 50.608C181.62 50.624 180.436 49.792 180.436 48.112ZM196.497 52V47.472C196.497 45.568 195.537 44.128 193.441 44.128C192.433 44.128 191.249 44.496 190.817 45.472C190.817 44 189.521 44.064 188.401 44.272V45.408C189.185 45.36 189.217 45.616 189.217 46.528V52H190.977V47.616C190.977 46.368 191.841 45.52 192.929 45.52C193.969 45.536 194.753 46.272 194.737 47.472V52H196.497ZM198.44 49.728C198.568 51.648 200.264 52.192 201.976 52.192C203.688 52.192 205.336 51.456 205.336 49.744C205.336 47.92 203.768 47.648 202.152 47.44C200.952 47.296 200.328 47.152 200.312 46.512C200.264 45.824 201.096 45.44 201.896 45.44C202.712 45.44 203.64 45.68 203.64 46.448H205.176C205.224 44.912 203.672 44.128 201.896 44.128C200.216 44.128 198.616 44.896 198.616 46.544C198.664 48.288 200.44 48.464 202.024 48.672C203.032 48.8 203.752 49.008 203.752 49.712C203.704 50.656 202.76 50.896 201.912 50.896C201.08 50.896 200.2 50.528 200.152 49.728H198.44ZM219.045 52V47.44C219.045 45.456 218.117 44.112 215.989 44.112C214.965 44.112 214.165 44.352 213.509 45.232V40.304H211.765V52H213.509V47.536C213.509 46.272 214.357 45.504 215.493 45.504C216.581 45.52 217.301 46.16 217.285 47.44V52H219.045ZM226.818 44.288V48.704C226.818 49.936 225.97 50.736 224.866 50.736C223.842 50.736 223.186 49.984 223.202 48.752V44.288H221.442V48.752C221.442 50.64 222.194 52.128 224.322 52.128C225.41 52.128 226.466 51.792 226.994 50.752C226.994 52.416 228.402 52.208 229.394 52.032L229.378 50.896C228.642 50.976 228.562 50.72 228.562 49.792V44.288H226.818ZM233.293 45.408C233.213 44.16 231.965 43.968 230.829 44.224L230.845 45.408C231.677 45.36 231.677 45.712 231.677 46.4V52H233.405V47.536C233.405 46.288 234.333 45.616 235.373 45.616C235.933 45.616 236.445 45.776 236.909 46.08L237.341 44.576C236.845 44.208 236.205 44.016 235.565 44.032C234.621 44.032 233.597 44.512 233.293 45.408ZM241.439 41.92H239.903L239.727 44.304H238.159V45.44L239.727 45.552V49.056C239.727 52.08 241.791 52.688 244.431 51.872L244.255 50.56C242.671 51.12 241.439 50.992 241.439 49.024V45.552H244.111V44.304H241.439V41.92ZM111.144 74.704C111.192 76.224 112.136 76.224 113.352 76.016L113.32 75.024C112.488 75.104 112.52 74.64 112.52 73.92V70.88C112.52 68.752 110.856 68.096 108.984 68.096C107.96 68.096 106.92 68.304 106.136 68.704L106.392 69.952C107.352 69.472 110.824 68.8 110.824 70.832V71.6C110.136 71.216 109.288 71.024 108.536 71.024C106.84 71.024 105.496 71.904 105.544 73.744C105.544 75.248 106.904 76.144 108.312 76.144C109.4 76.144 110.632 75.728 111.144 74.704ZM110.824 73.36C110.648 74.336 109.576 74.768 108.664 74.768C107.96 74.768 107.256 74.416 107.256 73.648C107.256 72.704 107.976 72.208 108.824 72.192C109.512 72.176 110.248 72.384 110.824 72.72V73.36ZM122.773 76V71.472C122.773 69.568 121.813 68.128 119.717 68.128C118.709 68.128 117.525 68.496 117.093 69.472C117.093 68 115.797 68.064 114.677 68.272V69.408C115.461 69.36 115.493 69.616 115.493 70.528V76H117.253V71.616C117.253 70.368 118.117 69.52 119.205 69.52C120.245 69.536 121.029 70.272 121.013 71.472V76H122.773ZM130.892 74.816C130.892 76.112 131.948 76.224 133.148 76.016L133.116 74.816C132.236 74.816 132.316 74.48 132.316 73.6V64.288H130.572V68.768C129.868 68.352 129.116 68.176 128.428 68.176C126.444 68.176 124.78 69.744 124.78 72.128C124.78 74.288 126.028 76.208 128.332 76.16C129.468 76.16 130.38 75.728 130.892 74.592V74.816ZM130.604 72.464C130.604 73.632 129.804 74.608 128.604 74.608C127.18 74.608 126.508 73.456 126.508 72.128C126.508 70.56 127.5 69.712 128.7 69.696C129.308 69.68 129.98 69.872 130.604 70.304V72.464ZM146.821 76V71.44C146.821 69.456 145.893 68.112 143.765 68.112C142.741 68.112 141.941 68.352 141.285 69.232V64.304H139.541V76H141.285V71.536C141.285 70.272 142.133 69.504 143.269 69.504C144.357 69.52 145.077 70.16 145.061 71.44V76H146.821ZM152.834 68.112C150.738 68.112 148.882 69.408 148.834 71.984C148.754 74.592 150.626 76.224 153.17 76.176C154.146 76.176 155.186 75.92 156.082 75.52L155.858 74.224C154.946 74.624 154.018 74.752 153.058 74.704C151.65 74.704 150.546 73.872 150.546 72.464H156.242C156.754 69.904 155.538 68.112 152.834 68.112ZM152.818 69.456C153.922 69.456 154.882 70.064 154.834 71.232H150.578C150.818 70.016 151.666 69.456 152.818 69.456ZM158.367 64.288V73.248C158.367 75.824 159.455 76.432 161.823 76.048L161.759 74.704C160.431 74.912 160.095 74.512 160.095 73.232V64.288H158.367ZM165.056 69.536C165.056 68.176 164.08 67.968 162.8 68.224L162.816 69.424C163.712 69.424 163.632 69.856 163.632 70.752V79.968H165.376V75.472C166.016 75.856 166.688 76.048 167.328 76.08C169.392 76.176 171.184 74.576 171.184 72.096C171.184 69.984 169.968 68.08 167.696 68.08C166.592 68.08 165.504 68.464 165.056 69.536ZM165.344 71.776C165.344 70.624 166.144 69.632 167.344 69.632C168.736 69.632 169.424 70.816 169.424 72.096C169.424 73.664 168.48 74.512 167.312 74.56C166.688 74.592 165.984 74.384 165.344 73.936V71.776ZM184.515 68.48V68.288H182.771L181.747 70.992L180.579 74.368H180.531L179.267 70.976L178.131 68.288H176.259V68.48L179.731 76.048L179.363 76.992C178.899 78.272 178.227 78.944 176.851 78.336L176.643 79.6C179.315 80.752 180.275 78.928 181.171 76.656L184.515 68.48ZM193.75 72.112C193.75 69.408 191.67 68.064 189.606 68.096C187.59 68.128 185.606 69.456 185.606 72.112C185.606 74.8 187.638 76.144 189.67 76.144C191.702 76.144 193.75 74.8 193.75 72.112ZM187.334 72.112C187.334 70.48 188.454 69.664 189.606 69.632C190.79 69.6 192.006 70.432 192.006 72.112C192.006 73.76 190.854 74.592 189.702 74.608C188.518 74.624 187.334 73.792 187.334 72.112ZM201.139 68.288V72.704C201.139 73.936 200.291 74.736 199.187 74.736C198.163 74.736 197.507 73.984 197.523 72.752V68.288H195.763V72.752C195.763 74.64 196.515 76.128 198.643 76.128C199.731 76.128 200.787 75.792 201.315 74.752C201.315 76.416 202.723 76.208 203.715 76.032L203.699 74.896C202.963 74.976 202.883 74.72 202.883 73.792V68.288H201.139ZM207.614 69.408C207.534 68.16 206.286 67.968 205.15 68.224L205.166 69.408C205.998 69.36 205.998 69.712 205.998 70.4V76H207.726V71.536C207.726 70.288 208.654 69.616 209.694 69.616C210.254 69.616 210.766 69.776 211.23 70.08L211.662 68.576C211.166 68.208 210.526 68.016 209.886 68.032C208.942 68.032 207.918 68.512 207.614 69.408ZM105.736 94.416C105.736 98.016 108.376 100.112 111.416 100.112C113.688 100.112 115.992 98.912 116.552 96.176H114.744C114.248 97.664 112.952 98.416 111.416 98.416C109.128 98.416 107.608 96.64 107.608 94.416C107.608 92.032 109.128 90.368 111.416 90.368C112.888 90.384 114.136 91.024 114.696 92.416H116.488C115.896 89.888 113.624 88.672 111.432 88.672C108.376 88.672 105.736 90.8 105.736 94.416ZM121.748 98.496V90.288H123.38V88.8H118.26V90.288H119.892V98.496H118.116V100H123.524V98.496H121.748ZM133.94 91.952C133.94 89.84 132.452 88.8 130.42 88.8H125.876V100H130.884C133.06 100 134.436 98.704 134.436 96.704C134.436 95.44 133.796 94.512 132.628 94.112C133.508 93.68 133.94 92.896 133.94 91.952ZM130.292 90.416C131.38 90.416 132.116 90.896 132.116 92C132.1 93.088 131.364 93.504 130.292 93.504H127.732V90.416H130.292ZM130.564 95.024C131.076 95.024 131.588 95.056 132.02 95.376C132.404 95.696 132.596 96.144 132.596 96.704C132.548 97.776 131.812 98.368 130.772 98.368H127.732V95.024H130.564ZM139.779 98.496V90.288H141.411V88.8H136.291V90.288H137.923V98.496H136.147V100H141.555V98.496H139.779ZM145.778 88.8H143.906V100H150.594V98.32H145.778V88.8ZM155.749 96.816C155.797 99.168 158.085 100.256 160.277 100.208C162.373 100.208 164.693 99.28 164.693 96.816C164.693 94.24 162.613 93.792 160.341 93.536C159.045 93.36 157.781 93.2 157.781 91.936C157.781 90.672 159.109 90.256 160.133 90.256C161.237 90.256 162.501 90.64 162.581 91.84H164.341C164.293 89.552 162.277 88.592 160.149 88.592C157.973 88.592 155.941 89.68 155.941 91.984C155.941 94.224 157.973 94.88 160.021 95.056C161.317 95.184 162.837 95.328 162.837 96.8C162.837 98.192 161.429 98.544 160.245 98.544C159.029 98.544 157.653 98.08 157.573 96.816H155.749ZM174.157 94.848C173.741 92.96 172.093 92.048 170.413 92.064C168.413 92.08 166.365 93.456 166.365 96.112C166.365 98.784 168.413 100.128 170.429 100.128C172.125 100.128 173.805 99.168 174.205 97.216H172.541C172.189 98.16 171.325 98.624 170.461 98.624C169.293 98.624 168.093 97.776 168.093 96.112C168.093 94.48 169.309 93.616 170.493 93.616C171.389 93.616 172.205 94.016 172.541 94.848H174.157ZM183.876 96.112C183.876 93.408 181.796 92.064 179.732 92.096C177.716 92.128 175.732 93.456 175.732 96.112C175.732 98.8 177.764 100.144 179.796 100.144C181.828 100.144 183.876 98.8 183.876 96.112ZM177.46 96.112C177.46 94.48 178.58 93.664 179.732 93.632C180.916 93.6 182.132 94.432 182.132 96.112C182.132 97.76 180.98 98.592 179.828 98.608C178.644 98.624 177.46 97.792 177.46 96.112ZM187.873 93.408C187.793 92.16 186.545 91.968 185.409 92.224L185.425 93.408C186.257 93.36 186.257 93.712 186.257 94.4V100H187.985V95.536C187.985 94.288 188.913 93.616 189.953 93.616C190.513 93.616 191.025 93.776 191.489 94.08L191.921 92.576C191.425 92.208 190.785 92.016 190.145 92.032C189.201 92.032 188.177 92.512 187.873 93.408ZM196.856 92.112C194.76 92.112 192.904 93.408 192.856 95.984C192.776 98.592 194.648 100.224 197.192 100.176C198.168 100.176 199.208 99.92 200.104 99.52L199.88 98.224C198.968 98.624 198.04 98.752 197.08 98.704C195.672 98.704 194.568 97.872 194.568 96.464H200.264C200.776 93.904 199.56 92.112 196.856 92.112ZM196.84 93.456C197.944 93.456 198.904 94.064 198.856 95.232H194.6C194.84 94.016 195.688 93.456 196.84 93.456Z" fill="#2C2C2C"/>
<path d="M71.7898 55.8949C71.7898 71.3008 59.3008 83.7898 43.8949 83.7898C28.489 83.7898 16 71.3008 16 55.8949C16 40.489 28.489 28 43.8949 28C59.3008 28 71.7898 40.489 71.7898 55.8949Z" fill="white" stroke="#006685" stroke-width="2"/>
<path d="M69.0652 41.7031H35.7479C33.0227 41.7031 30.8135 43.9123 30.8135 46.6375V88.3207C30.8135 91.0459 33.0227 93.2551 35.7479 93.2551H69.0652C71.7904 93.2551 73.9996 91.0459 73.9996 88.3207V46.6375C73.9996 43.9123 71.7904 41.7031 69.0652 41.7031Z" fill="#006685"/>
<path d="M66.6782 45.3809H38.1424C36.093 45.3809 34.4316 47.0422 34.4316 49.0916V85.867C34.4316 87.9164 36.093 89.5778 38.1424 89.5778H66.6782C68.7276 89.5778 70.389 87.9164 70.389 85.867V49.0916C70.389 47.0422 68.7276 45.3809 66.6782 45.3809Z" fill="white"/>
<path d="M52.6727 79.3229H49.1881C48.3634 79.3229 47.991 78.9173 47.8979 78.0927C47.8106 77.0118 47.6596 75.937 47.4457 74.8739C47.1479 73.8295 46.5376 72.9013 45.6967 72.2139C43.9711 70.5779 42.8999 68.3697 42.6833 66.0017C42.4667 63.6337 43.1194 61.2678 44.5196 59.3458C47.1198 55.8944 50.6577 54.5045 54.8739 55.4356C58.9704 56.34 61.6371 58.9668 62.495 63.0965C63.2664 66.814 62.096 69.9994 59.2829 72.573C58.3472 73.5131 57.7687 74.7502 57.647 76.071C57.5406 76.736 57.5207 77.401 57.4741 78.066C57.4915 78.2418 57.4683 78.4193 57.4065 78.5848C57.3447 78.7502 57.2457 78.8993 57.1173 79.0206C56.9889 79.142 56.8345 79.2323 56.6658 79.2847C56.4971 79.3371 56.3186 79.3502 56.1441 79.3229H52.6727ZM55.2397 77.0486C55.2929 76.6163 55.3261 76.2439 55.386 75.8781C55.5963 73.9441 56.4761 72.1445 57.8731 70.7907C58.8493 69.9606 59.5926 68.8907 60.0299 67.6862C60.4671 66.4817 60.5833 65.1842 60.3669 63.9212C60.195 62.5559 59.6377 61.2679 58.7603 60.208C57.8829 59.148 56.7217 58.3599 55.4126 57.936C53.7773 57.3059 51.9759 57.2534 50.3067 57.7872C48.6375 58.321 47.2009 59.4091 46.2347 60.8711C45.2685 62.3332 44.8309 64.0814 44.9943 65.8263C45.1577 67.5711 45.9124 69.2076 47.1332 70.4649C48.2349 71.4249 49.0631 72.6592 49.5339 74.0427C49.8265 75.0202 49.9927 76.0378 50.1989 77.0752L55.2397 77.0486Z" fill="#006685" stroke="#2E707F" stroke-width="0.4" stroke-miterlimit="10"/>
<path d="M52.666 82.7013H50.0059C49.8462 82.7226 49.6838 82.7096 49.5296 82.6631C49.3753 82.6166 49.2328 82.5375 49.1115 82.4314C48.9903 82.3253 48.8931 82.1946 48.8266 82.0479C48.76 81.9011 48.7256 81.7419 48.7256 81.5808C48.7256 81.4196 48.76 81.2604 48.8266 81.1137C48.8931 80.9669 48.9903 80.8361 49.1115 80.73C49.2328 80.6239 49.3753 80.5449 49.5296 80.4984C49.6838 80.4519 49.8462 80.4388 50.0059 80.4602C51.7793 80.4602 53.5527 80.4602 55.3261 80.4602C55.4839 80.443 55.6436 80.4593 55.7948 80.5079C55.9459 80.5565 56.0851 80.6365 56.2034 80.7425C56.3216 80.8485 56.4161 80.9782 56.4808 81.1232C56.5455 81.2682 56.579 81.4253 56.579 81.5841C56.579 81.7429 56.5455 81.8998 56.4808 82.0449C56.4161 82.1899 56.3216 82.3196 56.2034 82.4257C56.0851 82.5317 55.9459 82.6116 55.7948 82.6603C55.6436 82.7089 55.4839 82.7251 55.3261 82.7079C54.4615 82.7079 53.5638 82.7013 52.666 82.7013Z" fill="#006685" stroke="#006685" stroke-width="0.4" stroke-miterlimit="10"/>
<path d="M52.6931 86.0735C52.1477 86.0735 51.609 86.0735 51.0637 86.0735C50.9093 86.0854 50.7542 86.0653 50.6079 86.0143C50.4616 85.9634 50.3274 85.8828 50.2138 85.7776C50.1001 85.6724 50.0095 85.5448 49.9475 85.4029C49.8855 85.261 49.8535 85.1078 49.8535 84.9529C49.8535 84.7981 49.8855 84.6449 49.9475 84.503C50.0095 84.3611 50.1001 84.2335 50.2138 84.1282C50.3274 84.023 50.4616 83.9424 50.6079 83.8915C50.7542 83.8406 50.9093 83.8205 51.0637 83.8324C52.1455 83.8324 53.2295 83.8324 54.3157 83.8324C54.4701 83.8205 54.6253 83.8406 54.7716 83.8915C54.9178 83.9424 55.052 84.023 55.1656 84.1282C55.2792 84.2335 55.3699 84.3611 55.4319 84.503C55.494 84.6449 55.526 84.7981 55.526 84.9529C55.526 85.1078 55.494 85.261 55.4319 85.4029C55.3699 85.5448 55.2792 85.6724 55.1656 85.7776C55.052 85.8828 54.9178 85.9634 54.7716 86.0143C54.6253 86.0653 54.4701 86.0854 54.3157 86.0735C53.777 86.0802 53.2317 86.0735 52.6931 86.0735Z" fill="#006685" stroke="#006685" stroke-width="0.4" stroke-miterlimit="10"/>
<path d="M39.4521 66.1033C39.1353 66.12 38.8178 66.12 38.5011 66.1033C38.2277 66.0767 37.9743 65.9486 37.7908 65.7442C37.6074 65.5398 37.5072 65.274 37.5102 64.9994C37.5025 64.7252 37.6003 64.4586 37.7834 64.2544C37.9666 64.0502 38.2211 63.9241 38.4945 63.9021C39.1454 63.8556 39.7987 63.8556 40.4496 63.9021C40.723 63.9225 40.9781 64.047 41.1625 64.2499C41.3468 64.4528 41.4463 64.7186 41.4405 64.9927C41.4452 65.2675 41.3468 65.534 41.1645 65.7397C40.9823 65.9453 40.7296 66.0751 40.4562 66.1033C40.1171 66.1299 39.7912 66.1033 39.4521 66.1033Z" fill="#006685" stroke="#006685" stroke-width="0.4" stroke-miterlimit="10"/>
<path d="M51.3031 52.0906C51.2831 51.7539 51.2831 51.4165 51.3031 51.0798C51.3246 50.8027 51.45 50.5439 51.654 50.3551C51.858 50.1664 52.1257 50.0615 52.4037 50.0615C52.6816 50.0615 52.9494 50.1664 53.1535 50.3551C53.3575 50.5439 53.4828 50.8027 53.5043 51.0798C53.5475 51.7308 53.5475 52.3839 53.5043 53.0349C53.4839 53.3095 53.3585 53.5657 53.1542 53.7502C52.9498 53.9347 52.6822 54.0334 52.407 54.0258C52.1332 54.0258 51.8691 53.9246 51.6654 53.7417C51.4616 53.5588 51.3326 53.3071 51.3031 53.0349C51.2867 52.7204 51.2867 52.4051 51.3031 52.0906Z" fill="#006685" stroke="#006685" stroke-width="0.4" stroke-miterlimit="10"/>
<path d="M45.0647 56.56C44.8652 56.826 44.6989 57.225 44.3997 57.3779C44.2219 57.462 44.0277 57.5055 43.8311 57.5055C43.6345 57.5055 43.4403 57.462 43.2625 57.3779C42.7002 56.9476 42.1932 56.4495 41.7529 55.8949C41.59 55.6853 41.513 55.4214 41.5377 55.157C41.5624 54.8926 41.687 54.6476 41.886 54.4718C42.0598 54.2852 42.2962 54.1693 42.5501 54.1459C42.804 54.1226 43.0577 54.1936 43.2625 54.3454C43.7967 54.8119 44.3009 55.3117 44.7721 55.8417C44.9042 56.0655 45.0028 56.3075 45.0647 56.56Z" fill="#006685" stroke="#006685" stroke-width="0.4" stroke-miterlimit="10"/>
<path d="M42.4981 75.9247C42.2521 75.7186 41.8332 75.519 41.7002 75.2065C41.6356 75.0215 41.6117 74.8247 41.63 74.6296C41.6484 74.4345 41.7086 74.2457 41.8066 74.076C42.2169 73.5443 42.6878 73.0622 43.2098 72.6395C43.4111 72.4836 43.6612 72.4041 43.9156 72.4151C44.17 72.426 44.4124 72.5268 44.5996 72.6994C44.7908 72.8569 44.9193 73.0774 44.962 73.3213C45.0047 73.5653 44.9587 73.8165 44.8324 74.0295C44.3175 74.6153 43.7643 75.1662 43.1765 75.6787C43.0568 75.825 42.8306 75.825 42.4981 75.9247Z" fill="#2E707F" stroke="#2E707F" stroke-width="0.4" stroke-miterlimit="10"/>
<path d="M65.6269 66.1091C65.4054 66.1222 65.1834 66.1222 64.9619 66.1091C64.6791 66.0871 64.4155 65.9577 64.225 65.7475C64.0346 65.5372 63.9318 65.2621 63.9377 64.9785C63.9387 64.7037 64.0434 64.4395 64.2308 64.2385C64.4182 64.0375 64.6745 63.9147 64.9486 63.8946C65.3911 63.8555 65.8361 63.8555 66.2786 63.8946C66.5615 63.9117 66.8263 64.039 67.0165 64.2491C67.2067 64.4591 67.3071 64.7353 67.2961 65.0185C67.2898 65.3018 67.1767 65.5723 66.9793 65.7758C66.782 65.9793 66.5151 66.1007 66.2321 66.1158C66.0326 66.1158 65.8264 66.1158 65.6203 66.1158L65.6269 66.1091Z" fill="#006685" stroke="#006685" stroke-width="0.4" stroke-miterlimit="10"/>
<path d="M62.955 56.0145C62.6823 56.2938 62.423 56.5931 62.1304 56.8524C61.9204 57.0541 61.6399 57.1659 61.3487 57.1639C61.0575 57.1619 60.7787 57.0462 60.5715 56.8416C60.3643 56.637 60.2452 56.3597 60.2395 56.0685C60.2338 55.7774 60.3419 55.4955 60.541 55.283C60.8251 54.9601 61.1317 54.6579 61.4587 54.3786C61.6139 54.225 61.8182 54.1309 62.0358 54.1126C62.2534 54.0944 62.4705 54.1532 62.6491 54.2788C62.955 54.4983 63.7862 55.1832 62.955 56.0145Z" fill="#006685" stroke="#006685" stroke-width="0.4" stroke-miterlimit="10"/>
<path d="M62.2496 75.9721C61.953 75.8575 61.668 75.715 61.3984 75.5464C61.0806 75.2873 60.7887 74.9978 60.5272 74.682C60.3191 74.473 60.2025 74.1898 60.2031 73.8949C60.2038 73.5999 60.3215 73.3173 60.5305 73.1092C60.7395 72.9011 61.0227 72.7845 61.3176 72.7852C61.6126 72.7858 61.8952 72.9036 62.1034 73.1126C62.4293 73.3909 62.7318 73.6956 63.0078 74.0236C63.1648 74.1773 63.2633 74.3808 63.2864 74.5993C63.3094 74.8178 63.2556 75.0375 63.1341 75.2206C62.8699 75.5051 62.5731 75.7573 62.2496 75.9721V75.9721Z" fill="#006685" stroke="#006685" stroke-width="0.4" stroke-miterlimit="10"/>
<path d="M55.2396 77.0488H50.2253C49.9926 76.0047 49.8263 74.9939 49.5603 74.0164C49.0896 72.6329 48.2613 71.3986 47.1596 70.4386C45.9388 69.1813 45.1842 67.5447 45.0208 65.7999C44.8574 64.0551 45.2951 62.3068 46.2612 60.8447C47.2274 59.3827 48.664 58.2946 50.3332 57.7608C52.0024 57.227 53.8039 57.2795 55.4391 57.9096C56.7482 58.3335 57.9094 59.1216 58.7868 60.1816C59.6643 61.2416 60.2215 62.5295 60.3934 63.8948C60.6098 65.1578 60.4936 66.4554 60.0564 67.6599C59.6191 68.8644 58.8758 69.9343 57.8996 70.7644C56.5026 72.1182 55.6228 73.9178 55.4125 75.8518C55.326 76.2442 55.2928 76.6165 55.2396 77.0488Z" fill="white" stroke="#2E707F" stroke-width="0.4" stroke-miterlimit="10"/>
</svg>
