<svg width="260" height="121" viewBox="0 0 260 121" fill="none" xmlns="http://www.w3.org/2000/svg">
<rect y="0.0430298" width="260" height="120.516" fill="white"/>
<rect width="90" height="120.516" fill="#FCD800"/>
<path d="M108.552 18.5426V28.0946H110.376V18.5426H113.624V16.8946H105.304V18.5426H108.552ZM119.167 26.7986C119.215 28.3186 120.159 28.3186 121.375 28.1106L121.343 27.1186C120.511 27.1986 120.543 26.7346 120.543 26.0146V22.9746C120.543 20.8466 118.879 20.1906 117.007 20.1906C115.983 20.1906 114.943 20.3986 114.159 20.7986L114.415 22.0466C115.375 21.5666 118.847 20.8946 118.847 22.9266V23.6946C118.159 23.3106 117.311 23.1186 116.559 23.1186C114.863 23.1186 113.519 23.9986 113.567 25.8386C113.567 27.3426 114.927 28.2386 116.335 28.2386C117.423 28.2386 118.655 27.8226 119.167 26.7986ZM118.847 25.4546C118.671 26.4306 117.599 26.8626 116.687 26.8626C115.983 26.8626 115.279 26.5106 115.279 25.7426C115.279 24.7986 115.999 24.3026 116.847 24.2866C117.535 24.2706 118.271 24.4786 118.847 24.8146V25.4546ZM123.1 17.9986C123.1 18.7026 123.644 19.0546 124.172 19.0386C124.684 19.0226 125.196 18.6866 125.196 17.9986C125.196 17.3266 124.684 16.9746 124.156 16.9746C123.628 16.9746 123.1 17.3106 123.1 17.9986ZM125.02 20.4626H123.276V28.0946H125.02V20.4626ZM127.547 16.3826V25.3426C127.547 27.9186 128.635 28.5266 131.003 28.1426L130.939 26.7986C129.611 27.0066 129.275 26.6066 129.275 25.3266V16.3826H127.547ZM140.221 24.2066C140.221 21.5026 138.141 20.1586 136.077 20.1906C134.061 20.2226 132.077 21.5506 132.077 24.2066C132.077 26.8946 134.109 28.2386 136.141 28.2386C138.173 28.2386 140.221 26.8946 140.221 24.2066ZM133.805 24.2066C133.805 22.5746 134.925 21.7586 136.077 21.7266C137.261 21.6946 138.477 22.5266 138.477 24.2066C138.477 25.8546 137.325 26.6866 136.173 26.7026C134.989 26.7186 133.805 25.8866 133.805 24.2066ZM144.218 21.5026C144.138 20.2546 142.89 20.0626 141.754 20.3186L141.77 21.5026C142.602 21.4546 142.602 21.8066 142.602 22.4946V28.0946H144.33V23.6306C144.33 22.3826 145.258 21.7106 146.298 21.7106C146.858 21.7106 147.37 21.8706 147.834 22.1746L148.266 20.6706C147.77 20.3026 147.13 20.1106 146.49 20.1266C145.546 20.1266 144.522 20.6066 144.218 21.5026ZM153.201 20.2066C151.105 20.2066 149.249 21.5026 149.201 24.0786C149.121 26.6866 150.993 28.3186 153.537 28.2706C154.513 28.2706 155.553 28.0146 156.449 27.6146L156.225 26.3186C155.313 26.7186 154.385 26.8466 153.425 26.7986C152.017 26.7986 150.913 25.9666 150.913 24.5586H156.609C157.121 21.9986 155.905 20.2066 153.201 20.2066ZM153.185 21.5506C154.289 21.5506 155.249 22.1586 155.201 23.3266H150.945C151.185 22.1106 152.033 21.5506 153.185 21.5506ZM164.446 26.9106C164.446 28.2066 165.502 28.3186 166.702 28.1106L166.67 26.9106C165.79 26.9106 165.87 26.5746 165.87 25.6946V16.3826H164.126V20.8626C163.422 20.4466 162.67 20.2706 161.982 20.2706C159.998 20.2706 158.334 21.8386 158.334 24.2226C158.334 26.3826 159.582 28.3026 161.886 28.2546C163.022 28.2546 163.934 27.8226 164.446 26.6866V26.9106ZM164.158 24.5586C164.158 25.7266 163.358 26.7026 162.158 26.7026C160.734 26.7026 160.062 25.5506 160.062 24.2226C160.062 22.6546 161.054 21.8066 162.254 21.7906C162.862 21.7746 163.534 21.9666 164.158 22.3986V24.5586ZM173.014 16.3826V25.3426C173.014 27.9186 174.102 28.5266 176.47 28.1426L176.406 26.7986C175.078 27.0066 174.742 26.6066 174.742 25.3266V16.3826H173.014ZM185.687 24.2066C185.687 21.5026 183.607 20.1586 181.543 20.1906C179.527 20.2226 177.543 21.5506 177.543 24.2066C177.543 26.8946 179.575 28.2386 181.607 28.2386C183.639 28.2386 185.687 26.8946 185.687 24.2066ZM179.271 24.2066C179.271 22.5746 180.391 21.7586 181.543 21.7266C182.727 21.6946 183.943 22.5266 183.943 24.2066C183.943 25.8546 182.791 26.6866 181.639 26.7026C180.455 26.7186 179.271 25.8866 179.271 24.2066ZM192.805 26.7986C192.853 28.3186 193.797 28.3186 195.013 28.1106L194.981 27.1186C194.149 27.1986 194.181 26.7346 194.181 26.0146V22.9746C194.181 20.8466 192.517 20.1906 190.645 20.1906C189.621 20.1906 188.581 20.3986 187.797 20.7986L188.053 22.0466C189.013 21.5666 192.485 20.8946 192.485 22.9266V23.6946C191.797 23.3106 190.949 23.1186 190.197 23.1186C188.501 23.1186 187.157 23.9986 187.205 25.8386C187.205 27.3426 188.565 28.2386 189.973 28.2386C191.061 28.2386 192.293 27.8226 192.805 26.7986ZM192.485 25.4546C192.309 26.4306 191.237 26.8626 190.325 26.8626C189.621 26.8626 188.917 26.5106 188.917 25.7426C188.917 24.7986 189.637 24.3026 190.485 24.2866C191.173 24.2706 191.909 24.4786 192.485 24.8146V25.4546ZM204.434 28.0946V23.5666C204.434 21.6626 203.474 20.2226 201.378 20.2226C200.37 20.2226 199.186 20.5906 198.754 21.5666C198.754 20.0946 197.458 20.1586 196.338 20.3666V21.5026C197.122 21.4546 197.154 21.7106 197.154 22.6226V28.0946H198.914V23.7106C198.914 22.4626 199.778 21.6146 200.866 21.6146C201.906 21.6306 202.69 22.3666 202.674 23.5666V28.0946H204.434ZM113.8 48.2066C113.8 45.5026 111.72 44.1586 109.656 44.1906C107.64 44.2226 105.656 45.5506 105.656 48.2066C105.656 50.8946 107.688 52.2386 109.72 52.2386C111.752 52.2386 113.8 50.8946 113.8 48.2066ZM107.384 48.2066C107.384 46.5746 108.504 45.7586 109.656 45.7266C110.84 45.6946 112.056 46.5266 112.056 48.2066C112.056 49.8546 110.904 50.6866 109.752 50.7026C108.568 50.7186 107.384 49.8866 107.384 48.2066ZM116.471 52.0946H118.183V45.7266H120.791V44.4146H118.183V43.4066C118.183 41.4866 119.703 41.3266 121.063 41.8866L121.255 40.6706C118.839 39.8706 116.503 40.3346 116.503 43.3746V44.4146H115.047V45.7266H116.471V52.0946ZM123.088 52.0946H124.8V45.7266H127.408V44.4146H124.8V43.4066C124.8 41.4866 126.32 41.3266 127.68 41.8866L127.872 40.6706C125.456 39.8706 123.12 40.3346 123.12 43.3746V44.4146H121.664V45.7266H123.088V52.0946ZM132.428 44.2066C130.332 44.2066 128.476 45.5026 128.428 48.0786C128.348 50.6866 130.22 52.3186 132.764 52.2706C133.74 52.2706 134.78 52.0146 135.676 51.6146L135.452 50.3186C134.54 50.7186 133.612 50.8466 132.652 50.7986C131.244 50.7986 130.14 49.9666 130.14 48.5586H135.836C136.348 45.9986 135.132 44.2066 132.428 44.2066ZM132.412 45.5506C133.516 45.5506 134.476 46.1586 134.428 47.3266H130.172C130.412 46.1106 131.26 45.5506 132.412 45.5506ZM139.929 45.5026C139.849 44.2546 138.601 44.0626 137.465 44.3186L137.481 45.5026C138.313 45.4546 138.313 45.8066 138.313 46.4946V52.0946H140.041V47.6306C140.041 46.3826 140.969 45.7106 142.009 45.7106C142.569 45.7106 143.081 45.8706 143.545 46.1746L143.977 44.6706C143.481 44.3026 142.841 44.1106 142.201 44.1266C141.257 44.1266 140.233 44.6066 139.929 45.5026ZM144.958 49.8226C145.086 51.7426 146.782 52.2866 148.494 52.2866C150.206 52.2866 151.854 51.5506 151.854 49.8386C151.854 48.0146 150.286 47.7426 148.67 47.5346C147.47 47.3906 146.846 47.2466 146.83 46.6066C146.782 45.9186 147.614 45.5346 148.414 45.5346C149.23 45.5346 150.158 45.7746 150.158 46.5426H151.694C151.742 45.0066 150.19 44.2226 148.414 44.2226C146.734 44.2226 145.134 44.9906 145.134 46.6386C145.182 48.3826 146.958 48.5586 148.542 48.7666C149.55 48.8946 150.27 49.1026 150.27 49.8066C150.222 50.7506 149.278 50.9906 148.43 50.9906C147.598 50.9906 146.718 50.6226 146.67 49.8226H144.958ZM158.234 51.6946C159.226 52.0786 160.426 52.3186 161.482 52.3346C163.786 52.3506 165.882 51.2946 165.882 48.3186C165.882 45.8546 164.218 44.2706 162.202 44.2706C161.514 44.2706 160.714 44.4626 159.978 44.8466V40.3986H158.234V51.6946ZM159.946 46.3506C160.586 45.9666 161.322 45.8066 161.93 45.8226C163.13 45.8706 164.138 46.7026 164.138 48.3186C164.138 50.1906 163.034 50.8946 161.658 50.9106C161.146 50.9106 160.506 50.8146 159.946 50.6546V46.3506ZM173.001 50.7986C173.049 52.3186 173.993 52.3186 175.209 52.1106L175.177 51.1186C174.345 51.1986 174.377 50.7346 174.377 50.0146V46.9746C174.377 44.8466 172.713 44.1906 170.841 44.1906C169.817 44.1906 168.777 44.3986 167.993 44.7986L168.249 46.0466C169.209 45.5666 172.681 44.8946 172.681 46.9266V47.6946C171.993 47.3106 171.145 47.1186 170.393 47.1186C168.697 47.1186 167.353 47.9986 167.401 49.8386C167.401 51.3426 168.761 52.2386 170.169 52.2386C171.257 52.2386 172.489 51.8226 173.001 50.7986ZM172.681 49.4546C172.505 50.4306 171.433 50.8626 170.521 50.8626C169.817 50.8626 169.113 50.5106 169.113 49.7426C169.113 48.7986 169.833 48.3026 170.681 48.2866C171.369 48.2706 172.105 48.4786 172.681 48.8146V49.4546ZM176.55 49.8226C176.678 51.7426 178.374 52.2866 180.086 52.2866C181.798 52.2866 183.446 51.5506 183.446 49.8386C183.446 48.0146 181.878 47.7426 180.262 47.5346C179.062 47.3906 178.438 47.2466 178.422 46.6066C178.374 45.9186 179.206 45.5346 180.006 45.5346C180.822 45.5346 181.75 45.7746 181.75 46.5426H183.286C183.334 45.0066 181.782 44.2226 180.006 44.2226C178.326 44.2226 176.726 44.9906 176.726 46.6386C176.774 48.3826 178.55 48.5586 180.134 48.7666C181.142 48.8946 181.862 49.1026 181.862 49.8066C181.814 50.7506 180.87 50.9906 180.022 50.9906C179.19 50.9906 178.31 50.6226 178.262 49.8226H176.55ZM189.059 44.2066C186.963 44.2066 185.107 45.5026 185.059 48.0786C184.979 50.6866 186.851 52.3186 189.395 52.2706C190.371 52.2706 191.411 52.0146 192.307 51.6146L192.083 50.3186C191.171 50.7186 190.243 50.8466 189.283 50.7986C187.875 50.7986 186.771 49.9666 186.771 48.5586H192.467C192.979 45.9986 191.763 44.2066 189.059 44.2066ZM189.043 45.5506C190.147 45.5506 191.107 46.1586 191.059 47.3266H186.803C187.043 46.1106 187.891 45.5506 189.043 45.5506ZM200.304 50.9106C200.304 52.2066 201.36 52.3186 202.56 52.1106L202.528 50.9106C201.648 50.9106 201.728 50.5746 201.728 49.6946V40.3826H199.984V44.8626C199.28 44.4466 198.528 44.2706 197.84 44.2706C195.856 44.2706 194.192 45.8386 194.192 48.2226C194.192 50.3826 195.44 52.3026 197.744 52.2546C198.88 52.2546 199.792 51.8226 200.304 50.6866V50.9106ZM200.016 48.5586C200.016 49.7266 199.216 50.7026 198.016 50.7026C196.592 50.7026 195.92 49.5506 195.92 48.2226C195.92 46.6546 196.912 45.8066 198.112 45.7906C198.72 45.7746 199.392 45.9666 200.016 46.3986V48.5586ZM216.616 48.2066C216.616 45.5026 214.536 44.1586 212.472 44.1906C210.456 44.2226 208.472 45.5506 208.472 48.2066C208.472 50.8946 210.504 52.2386 212.536 52.2386C214.568 52.2386 216.616 50.8946 216.616 48.2066ZM210.2 48.2066C210.2 46.5746 211.32 45.7586 212.472 45.7266C213.656 45.6946 214.872 46.5266 214.872 48.2066C214.872 49.8546 213.72 50.6866 212.568 50.7026C211.384 50.7186 210.2 49.8866 210.2 48.2066ZM226.261 52.0946V47.5666C226.261 45.6626 225.301 44.2226 223.205 44.2226C222.197 44.2226 221.013 44.5906 220.581 45.5666C220.581 44.0946 219.285 44.1586 218.165 44.3666V45.5026C218.949 45.4546 218.981 45.7106 218.981 46.6226V52.0946H220.741V47.7106C220.741 46.4626 221.605 45.6146 222.693 45.6146C223.733 45.6306 224.517 46.3666 224.501 47.5666V52.0946H226.261ZM113.448 68.5746V68.3826H111.704L110.68 71.0866L109.512 74.4626H109.464L108.2 71.0706L107.064 68.3826H105.192V68.5746L108.664 76.1426L108.296 77.0866C107.832 78.3666 107.16 79.0386 105.784 78.4306L105.576 79.6946C108.248 80.8466 109.208 79.0226 110.104 76.7506L113.448 68.5746ZM122.682 72.2066C122.682 69.5026 120.602 68.1586 118.538 68.1906C116.522 68.2226 114.538 69.5506 114.538 72.2066C114.538 74.8946 116.57 76.2386 118.602 76.2386C120.635 76.2386 122.682 74.8946 122.682 72.2066ZM116.266 72.2066C116.266 70.5746 117.386 69.7586 118.538 69.7266C119.722 69.6946 120.938 70.5266 120.938 72.2066C120.938 73.8546 119.786 74.6866 118.635 74.7026C117.45 74.7186 116.266 73.8866 116.266 72.2066ZM130.072 68.3826V72.7986C130.072 74.0306 129.224 74.8306 128.12 74.8306C127.096 74.8306 126.44 74.0786 126.456 72.8466V68.3826H124.696V72.8466C124.696 74.7346 125.448 76.2226 127.576 76.2226C128.664 76.2226 129.72 75.8866 130.248 74.8466C130.248 76.5106 131.656 76.3026 132.648 76.1266L132.632 74.9906C131.896 75.0706 131.816 74.8146 131.816 73.8866V68.3826H130.072ZM136.546 69.5026C136.466 68.2546 135.218 68.0626 134.082 68.3186L134.098 69.5026C134.93 69.4546 134.93 69.8066 134.93 70.4946V76.0946H136.658V71.6306C136.658 70.3826 137.586 69.7106 138.626 69.7106C139.186 69.7106 139.698 69.8706 140.162 70.1746L140.594 68.6706C140.098 68.3026 139.458 68.1106 138.818 68.1266C137.874 68.1266 136.85 68.6066 136.546 69.5026ZM146.031 64.3826V73.3426C146.031 75.9186 147.119 76.5266 149.487 76.1426L149.423 74.7986C148.095 75.0066 147.759 74.6066 147.759 73.3266V64.3826H146.031ZM156.048 74.7986C156.096 76.3186 157.04 76.3186 158.256 76.1106L158.224 75.1186C157.392 75.1986 157.424 74.7346 157.424 74.0146V70.9746C157.424 68.8466 155.76 68.1906 153.888 68.1906C152.864 68.1906 151.824 68.3986 151.04 68.7986L151.296 70.0466C152.256 69.5666 155.728 68.8946 155.728 70.9266V71.6946C155.04 71.3106 154.192 71.1186 153.44 71.1186C151.744 71.1186 150.4 71.9986 150.448 73.8386C150.448 75.3426 151.808 76.2386 153.216 76.2386C154.304 76.2386 155.536 75.8226 156.048 74.7986ZM155.728 73.4546C155.552 74.4306 154.48 74.8626 153.568 74.8626C152.864 74.8626 152.16 74.5106 152.16 73.7426C152.16 72.7986 152.88 72.3026 153.728 72.2866C154.416 72.2706 155.152 72.4786 155.728 72.8146V73.4546ZM162.465 66.0146H160.929L160.753 68.3986H159.185V69.5346L160.753 69.6466V73.1506C160.753 76.1746 162.817 76.7826 165.457 75.9666L165.281 74.6546C163.697 75.2146 162.465 75.0866 162.465 73.1186V69.6466H165.137V68.3986H162.465V66.0146ZM170.732 68.2066C168.636 68.2066 166.78 69.5026 166.732 72.0786C166.652 74.6866 168.524 76.3186 171.068 76.2706C172.044 76.2706 173.084 76.0146 173.98 75.6146L173.756 74.3186C172.844 74.7186 171.916 74.8466 170.956 74.7986C169.548 74.7986 168.444 73.9666 168.444 72.5586H174.14C174.652 69.9986 173.436 68.2066 170.732 68.2066ZM170.716 69.5506C171.82 69.5506 172.78 70.1586 172.732 71.3266H168.476C168.716 70.1106 169.564 69.5506 170.716 69.5506ZM175.8 73.8226C175.928 75.7426 177.624 76.2866 179.336 76.2866C181.048 76.2866 182.696 75.5506 182.696 73.8386C182.696 72.0146 181.128 71.7426 179.512 71.5346C178.312 71.3906 177.688 71.2466 177.672 70.6066C177.624 69.9186 178.456 69.5346 179.256 69.5346C180.072 69.5346 181 69.7746 181 70.5426H182.536C182.584 69.0066 181.032 68.2226 179.256 68.2226C177.576 68.2226 175.976 68.9906 175.976 70.6386C176.024 72.3826 177.8 72.5586 179.384 72.7666C180.392 72.8946 181.112 73.1026 181.112 73.8066C181.064 74.7506 180.12 74.9906 179.272 74.9906C178.44 74.9906 177.56 74.6226 177.512 73.8226H175.8ZM187.269 66.0146H185.733L185.557 68.3986H183.989V69.5346L185.557 69.6466V73.1506C185.557 76.1746 187.621 76.7826 190.261 75.9666L190.085 74.6546C188.501 75.2146 187.269 75.0866 187.269 73.1186V69.6466H189.941V68.3986H187.269V66.0146ZM105.736 94.5106C105.736 98.1106 108.376 100.207 111.416 100.207C113.688 100.207 115.992 99.0066 116.552 96.2706H114.744C114.248 97.7586 112.952 98.5106 111.416 98.5106C109.128 98.5106 107.608 96.7346 107.608 94.5106C107.608 92.1266 109.128 90.4626 111.416 90.4626C112.888 90.4786 114.136 91.1186 114.696 92.5106H116.488C115.896 89.9826 113.624 88.7666 111.432 88.7666C108.376 88.7666 105.736 90.8946 105.736 94.5106ZM121.748 98.5906V90.3826H123.38V88.8946H118.26V90.3826H119.892V98.5906H118.116V100.095H123.524V98.5906H121.748ZM133.94 92.0466C133.94 89.9346 132.452 88.8946 130.42 88.8946H125.876V100.095H130.884C133.06 100.095 134.436 98.7986 134.436 96.7986C134.436 95.5346 133.796 94.6066 132.628 94.2066C133.508 93.7746 133.94 92.9906 133.94 92.0466ZM130.292 90.5106C131.38 90.5106 132.116 90.9906 132.116 92.0946C132.1 93.1826 131.364 93.5986 130.292 93.5986H127.732V90.5106H130.292ZM130.564 95.1186C131.076 95.1186 131.588 95.1506 132.02 95.4706C132.404 95.7906 132.596 96.2386 132.596 96.7986C132.548 97.8706 131.812 98.4626 130.772 98.4626H127.732V95.1186H130.564ZM139.779 98.5906V90.3826H141.411V88.8946H136.291V90.3826H137.923V98.5906H136.147V100.095H141.555V98.5906H139.779ZM145.778 88.8946H143.906V100.095H150.594V98.4146H145.778V88.8946ZM155.749 96.9106C155.797 99.2626 158.085 100.351 160.277 100.303C162.373 100.303 164.693 99.3746 164.693 96.9106C164.693 94.3346 162.613 93.8866 160.341 93.6306C159.045 93.4546 157.781 93.2946 157.781 92.0306C157.781 90.7666 159.109 90.3506 160.133 90.3506C161.237 90.3506 162.501 90.7346 162.581 91.9346H164.341C164.293 89.6466 162.277 88.6866 160.149 88.6866C157.973 88.6866 155.941 89.7746 155.941 92.0786C155.941 94.3186 157.973 94.9746 160.021 95.1506C161.317 95.2786 162.837 95.4226 162.837 96.8946C162.837 98.2866 161.429 98.6386 160.245 98.6386C159.029 98.6386 157.653 98.1746 157.573 96.9106H155.749ZM174.157 94.9426C173.741 93.0546 172.093 92.1426 170.413 92.1586C168.413 92.1746 166.365 93.5506 166.365 96.2066C166.365 98.8786 168.413 100.223 170.429 100.223C172.125 100.223 173.805 99.2626 174.205 97.3106H172.541C172.189 98.2546 171.325 98.7186 170.461 98.7186C169.293 98.7186 168.093 97.8706 168.093 96.2066C168.093 94.5746 169.309 93.7106 170.493 93.7106C171.389 93.7106 172.205 94.1106 172.541 94.9426H174.157ZM183.876 96.2066C183.876 93.5026 181.796 92.1586 179.732 92.1906C177.716 92.2226 175.732 93.5506 175.732 96.2066C175.732 98.8946 177.764 100.239 179.796 100.239C181.828 100.239 183.876 98.8946 183.876 96.2066ZM177.46 96.2066C177.46 94.5746 178.58 93.7586 179.732 93.7266C180.916 93.6946 182.132 94.5266 182.132 96.2066C182.132 97.8546 180.98 98.6866 179.828 98.7026C178.644 98.7186 177.46 97.8866 177.46 96.2066ZM187.873 93.5026C187.793 92.2546 186.545 92.0626 185.409 92.3186L185.425 93.5026C186.257 93.4546 186.257 93.8066 186.257 94.4946V100.095H187.985V95.6306C187.985 94.3826 188.913 93.7106 189.953 93.7106C190.513 93.7106 191.025 93.8706 191.489 94.1746L191.921 92.6706C191.425 92.3026 190.785 92.1106 190.145 92.1266C189.201 92.1266 188.177 92.6066 187.873 93.5026ZM196.856 92.2066C194.76 92.2066 192.904 93.5026 192.856 96.0786C192.776 98.6866 194.648 100.319 197.192 100.271C198.168 100.271 199.208 100.015 200.104 99.6146L199.88 98.3186C198.968 98.7186 198.04 98.8466 197.08 98.7986C195.672 98.7986 194.568 97.9666 194.568 96.5586H200.264C200.776 93.9986 199.56 92.2066 196.856 92.2066ZM196.84 93.5506C197.944 93.5506 198.904 94.1586 198.856 95.3266H194.6C194.84 94.1106 195.688 93.5506 196.84 93.5506Z" fill="#2C2C2C"/>
<path d="M45 83.2495C61.0163 83.2495 74 70.2099 74 54.1247C74 38.0396 61.0163 25 45 25C28.9837 25 16 38.0396 16 54.1247C16 70.2099 28.9837 83.2495 45 83.2495Z" fill="white"/>
<path d="M43.1499 40.553C43.829 38.8992 46.171 38.8992 46.8501 40.553L50.4351 49.2837C50.8565 50.3099 52.0326 50.7971 53.0563 50.3694L61.7383 46.7417C63.3851 46.0536 65.0402 47.7036 64.3571 49.3526L60.7324 58.1024C60.3096 59.1229 60.7942 60.2929 61.8148 60.7156L70.5385 64.3286C72.1847 65.0104 72.1847 67.3424 70.5385 68.0242L61.8148 71.6372C60.7942 72.0599 60.3096 73.2299 60.7324 74.2504L64.3571 83.0002C65.0402 84.6492 63.3851 86.2992 61.7383 85.6111L53.0563 81.9834C52.0326 81.5557 50.8565 82.0429 50.4351 83.0691L46.8501 91.7998C46.171 93.4536 43.829 93.4536 43.1499 91.7998L39.5649 83.0691C39.1435 82.0429 37.9674 81.5557 36.9437 81.9834L28.2617 85.6111C26.6149 86.2992 24.9598 84.6492 25.6429 83.0002L29.2676 74.2504C29.6904 73.2299 29.2058 72.0599 28.1852 71.6372L19.4615 68.0242C17.8153 67.3424 17.8153 65.0104 19.4615 64.3286L28.1852 60.7156C29.2058 60.2929 29.6904 59.1229 29.2676 58.1024L25.6429 49.3526C24.9598 47.7036 26.6149 46.0536 28.2617 46.7417L36.9437 50.3694C37.9674 50.7971 39.1435 50.3099 39.5649 49.2837L43.1499 40.553Z" fill="white" stroke="#006685" stroke-width="4" stroke-miterlimit="10"/>
<path d="M35 62.4319C35 56.712 43.3317 56.712 43.3317 62.4319C43.3317 68.1519 35 68.1519 35 62.4319ZM40.3198 62.4319C40.3198 60.329 38.0389 60.329 38.0389 62.4319C38.0389 64.5349 40.3198 64.4928 40.3198 62.4319ZM47 58.5696H50.6887L42.9797 74.748H39.3113L47 58.5696ZM46.6887 70.9277C46.6887 65.2078 55 65.2078 55 70.9277C55 76.6477 46.6887 76.6407 46.6887 70.9277ZM51.9813 70.9277C51.9813 68.8669 49.6802 68.8669 49.6802 70.9277C49.6802 72.9886 51.9813 73.0307 51.9813 70.9277Z" fill="#006685"/>
</svg>
