<svg width="260" height="170" viewBox="0 0 260 170" fill="none" xmlns="http://www.w3.org/2000/svg">
<rect width="260" height="170" fill="white"/>
<path d="M60.0112 53.0171C50.5352 62.1121 42.9458 72.9866 37.6774 85.0182C32.4091 97.0497 29.5652 110.002 29.3086 123.134H92.7043C92.805 118.271 93.8717 113.476 95.8424 109.029C97.8131 104.582 100.649 100.572 104.184 97.2306L60.0112 53.0171Z" fill="#D35224"/>
<path d="M60.0117 53.017L104.184 97.1895C111.007 90.6952 120.068 87.0774 129.488 87.0871V25.0001C103.569 24.9615 78.6529 35.0093 60.0117 53.017Z" fill="#FFC73A"/>
<path d="M154.806 97.1896L198.978 53.0171C180.323 34.9975 155.384 24.9488 129.447 25.0002V87.0872C138.885 87.0649 147.968 90.6835 154.806 97.1896V97.1896Z" fill="#76CC06"/>
<path d="M166.284 123.134H229.666C229.412 110.003 226.571 97.051 221.305 85.0193C216.039 72.9877 208.451 62.1128 198.977 53.0171L154.805 97.1896C158.345 100.536 161.183 104.553 163.154 109.007C165.125 113.462 166.189 118.264 166.284 123.134V123.134Z" fill="#34B704"/>
<path d="M30.3799 140.473C30.4813 143.262 32.5303 144.976 35.1879 144.976C38.3933 144.976 40.1786 142.601 40.1786 140.039C40.1786 138.035 39.1439 136.135 36.8718 135.743L39.9554 130.702V130.269H30.9276V132.727H35.9386L33.3215 137.313V137.746C35.1474 137.416 37.2572 137.746 37.3181 140.06C37.2978 141.382 36.466 142.311 35.1474 142.311C33.9301 142.311 33.1186 141.692 33.0375 140.473H30.3799Z" fill="#ACACAC"/>
<path d="M48.2757 130C45.3341 130 42.9605 131.859 42.9605 134.978V140.019C42.9605 143.158 45.3341 144.997 48.2757 144.997C51.1768 144.997 53.5504 143.158 53.5504 140.019V134.978C53.5504 131.859 51.1768 130 48.2757 130ZM48.2757 142.291C46.9773 142.291 46.0238 141.609 45.8818 140.349C45.8412 139.998 45.8209 139.626 45.8209 139.192V135.825C45.8209 135.412 45.8412 135.02 45.8818 134.648C46.0238 133.346 46.9773 132.706 48.2757 132.706C49.5132 132.706 50.5073 133.346 50.6493 134.648C50.6899 135.02 50.7102 135.412 50.7102 135.825V139.192C50.7102 139.626 50.6899 139.998 50.6493 140.349C50.5073 141.609 49.5132 142.291 48.2757 142.291Z" fill="#ACACAC"/>
<path d="M61.9156 130C58.974 130 56.6004 131.859 56.6004 134.978V140.019C56.6004 143.158 58.974 144.997 61.9156 144.997C64.8167 144.997 67.1903 143.158 67.1903 140.019V134.978C67.1903 131.859 64.8167 130 61.9156 130ZM61.9156 142.291C60.6173 142.291 59.6638 141.609 59.5218 140.349C59.4812 139.998 59.4609 139.626 59.4609 139.192V135.825C59.4609 135.412 59.4812 135.02 59.5218 134.648C59.6638 133.346 60.6173 132.706 61.9156 132.706C63.1532 132.706 64.1472 133.346 64.2892 134.648C64.3298 135.02 64.3501 135.412 64.3501 135.825V139.192C64.3501 139.626 64.3298 139.998 64.2892 140.349C64.1472 141.609 63.1532 142.291 61.9156 142.291Z" fill="#ACACAC"/>
<path d="M198.78 144.71L202.794 138.001C203.41 136.996 203.727 136.073 203.747 134.842C203.747 131.559 201.443 130 198.502 130C195.542 130 193.237 131.559 193.237 134.842C193.237 137.857 195.224 139.581 198.085 139.478C198.343 139.478 198.641 139.396 198.86 139.294L195.542 144.71H198.78ZM198.502 132.605C199.933 132.605 200.807 133.385 200.807 134.842C200.807 136.319 199.933 137.139 198.502 137.139C197.072 137.139 196.178 136.319 196.178 134.842C196.178 133.385 197.072 132.605 198.502 132.605Z" fill="#ACACAC"/>
<path d="M211.524 130.103C208.644 130.103 206.319 131.949 206.319 135.047V140.053C206.319 143.171 208.644 144.997 211.524 144.997C214.365 144.997 216.69 143.171 216.69 140.053V135.047C216.69 131.949 214.365 130.103 211.524 130.103ZM211.524 142.309C210.253 142.309 209.319 141.632 209.18 140.381C209.14 140.032 209.12 139.663 209.12 139.232V135.888C209.12 135.478 209.14 135.088 209.18 134.719C209.319 133.426 210.253 132.79 211.524 132.79C212.736 132.79 213.71 133.426 213.849 134.719C213.889 135.088 213.908 135.478 213.908 135.888V139.232C213.908 139.663 213.889 140.032 213.849 140.381C213.71 141.632 212.736 142.309 211.524 142.309Z" fill="#ACACAC"/>
<path d="M224.882 130.103C222.001 130.103 219.677 131.949 219.677 135.047V140.053C219.677 143.171 222.001 144.997 224.882 144.997C227.723 144.997 230.048 143.171 230.048 140.053V135.047C230.048 131.949 227.723 130.103 224.882 130.103ZM224.882 142.309C223.611 142.309 222.677 141.632 222.538 140.381C222.498 140.032 222.478 139.663 222.478 139.232V135.888C222.478 135.478 222.498 135.088 222.538 134.719C222.677 133.426 223.611 132.79 224.882 132.79C226.094 132.79 227.068 133.426 227.207 134.719C227.246 135.088 227.266 135.478 227.266 135.888V139.232C227.266 139.663 227.246 140.032 227.207 140.381C227.068 141.632 226.094 142.309 224.882 142.309Z" fill="#ACACAC"/>
</svg>
