<svg width="18" height="18" viewBox="0 0 18 18" fill="none" xmlns="http://www.w3.org/2000/svg">
<path d="M17.9186 1.62896C17.9186 0.733032 17.1855 0 16.2896 0H10.3439C9.93665 0 9.52941 0.162896 9.20362 0.488688L0.488688 9.20362C-0.162896 9.8552 -0.162896 10.914 0.488688 11.5656L6.43439 17.5113C7.08597 18.1629 8.1448 18.1629 8.79638 17.5113L17.5113 8.79638C17.8371 8.47059 18 8.06335 18 7.65611L17.9186 1.62896ZM13.0317 6.59729C12.1357 6.59729 11.4027 5.86425 11.4027 4.96833C11.4027 4.0724 12.1357 3.33937 13.0317 3.33937C13.9276 3.33937 14.6606 4.0724 14.6606 4.96833C14.6606 5.86425 13.9276 6.59729 13.0317 6.59729Z" fill="#006685"/>
</svg>
