<svg width="35" height="35" viewBox="0 0 35 35" fill="none" xmlns="http://www.w3.org/2000/svg">
<path d="M29.0409 15.8464H6.23255C5.48927 15.8464 4.88672 16.449 4.88672 17.1923V17.3339C4.88672 18.0772 5.48927 18.6798 6.23255 18.6798H29.0409C29.7842 18.6798 30.3867 18.0772 30.3867 17.3339V17.1923C30.3867 16.449 29.7842 15.8464 29.0409 15.8464Z" fill="#3EA3CE"/>
<path d="M29.0409 22.9299H6.23255C5.48927 22.9299 4.88672 23.5325 4.88672 24.2758V24.4174C4.88672 25.1607 5.48927 25.7633 6.23255 25.7633H29.0409C29.7842 25.7633 30.3867 25.1607 30.3867 24.4174V24.2758C30.3867 23.5325 29.7842 22.9299 29.0409 22.9299Z" fill="#3EA3CE"/>
<path d="M29.0409 8.76318H6.23255C5.48927 8.76318 4.88672 9.36573 4.88672 10.109V10.2507C4.88672 10.994 5.48927 11.5965 6.23255 11.5965H29.0409C29.7842 11.5965 30.3867 10.994 30.3867 10.2507V10.109C30.3867 9.36573 29.7842 8.76318 29.0409 8.76318Z" fill="#3EA3CE"/>
</svg>
