<svg width="112" height="45" viewBox="0 0 112 45" fill="none" xmlns="http://www.w3.org/2000/svg">
<path d="M0.155029 44.2251V35.224C1.30406 35.224 2.54758 35.2111 3.69631 35.224C5.54056 35.224 6.87337 36.4829 6.87337 38.2163C6.87337 39.9502 5.54056 41.1804 3.69631 41.1804H0.808485V44.2248H0.155029V44.2251ZM3.69631 40.5775C5.10685 40.5775 6.21839 39.628 6.21839 38.2022C6.21839 36.7782 5.1486 35.8141 3.69631 35.8141H0.808485V40.5772H3.69631V40.5775Z" fill="#2C2C2C"/>
<path d="M9.96747 44.3271C8.86903 44.3271 7.7334 43.7637 7.7334 42.5826C7.7334 41.2354 8.93516 40.5779 10.2031 40.5779C10.9854 40.5779 11.7855 40.7336 12.5173 41.0407V39.9624C12.5173 38.7568 11.3917 38.4839 10.3869 38.4839C9.65537 38.4839 8.89676 38.6513 8.36125 38.9619L8.21679 38.447C8.8035 38.1248 9.64196 37.9333 10.4664 37.9333C11.8254 37.9333 13.1061 38.4342 13.1061 39.974V42.8004C13.1061 43.5456 13.0644 43.9691 13.9007 43.8658L13.9269 44.2893C12.855 44.4562 12.5691 44.0839 12.6066 43.1098C12.111 44.0084 11.0126 44.3271 9.96747 44.3271ZM12.517 41.5684C11.7965 41.2075 11.0257 41.0664 10.2808 41.0799C9.33992 41.0799 8.34723 41.5187 8.34723 42.5314C8.34723 43.4809 9.19453 43.802 10.0705 43.802C11.0918 43.802 12.2418 43.3539 12.5167 42.2867V41.5684H12.517Z" fill="#2C2C2C"/>
<path d="M18.0544 37.9474C18.6686 37.9579 19.2187 38.1247 19.6381 38.4212L19.4135 38.9619C19.0096 38.6647 18.4881 38.5359 17.9752 38.5359C17.0364 38.5359 16.1331 39.167 16.1331 40.2208V44.2252H15.5067V39.4615C15.5067 38.8582 15.4924 38.4727 14.6957 38.577L14.6716 38.0229C15.6753 37.8566 16.0825 38.2304 16.0825 38.949C16.4994 38.2163 17.3248 37.9075 18.0544 37.9474Z" fill="#2C2C2C"/>
<path d="M22.1847 38.0366H24.6278V38.5632H22.1847V41.9017C22.1847 43.184 22.5919 43.7142 23.4105 43.7259C23.8067 43.7259 24.2877 43.6234 24.8479 43.4299L24.9427 43.9565C24.3538 44.1608 23.8168 44.253 23.3733 44.253C22.1959 44.253 21.5589 43.5458 21.5589 41.9146V38.5632L20.1204 38.5239V38.0366H21.5589L21.6105 36.1493H22.185V38.0366H22.1847Z" fill="#2C2C2C"/>
<path d="M32.5157 44.3271C30.8565 44.3271 29.2109 43.25 29.2109 41.1182C29.2109 38.9724 30.8705 37.9333 32.5291 37.9333C34.1871 37.9333 35.8226 38.9871 35.8226 41.1182C35.8226 43.2503 34.1631 44.3271 32.5157 44.3271ZM32.5157 43.7778C33.8485 43.7778 35.1966 42.8792 35.1966 41.1182C35.1966 39.3597 33.8616 38.512 32.5291 38.4992C31.1832 38.4839 29.8385 39.3468 29.8385 41.1182C29.8385 42.8792 31.1722 43.7778 32.5157 43.7778Z" fill="#2C2C2C"/>
<path d="M38.0932 38.5766H36.6162V38.036H38.0932V36.9187C38.0932 34.6986 39.8713 34.3892 41.5549 35.094L41.4251 35.5948C40.131 35.0443 38.7213 35.1221 38.7213 36.9328V38.0362H41.1523V38.5769H38.7213V44.2251H38.0929V38.5766H38.0932Z" fill="#2C2C2C"/>
<path d="M44.26 35.8284V35.2356H50.922V35.8284H47.9168V44.2256H47.2643V35.8284H44.26Z" fill="#2C2C2C"/>
<path d="M53.8736 37.9474C54.4878 37.9579 55.0376 38.1247 55.4549 38.4212L55.2333 38.9619C54.8285 38.6647 54.3058 38.5359 53.7962 38.5359C52.8554 38.5359 51.9541 39.167 51.9541 40.2208V44.2252H51.3266V39.4615C51.3266 38.8582 51.3135 38.4727 50.5167 38.577L50.4902 38.0229C51.496 37.8566 51.9011 38.2304 51.9011 38.949C52.3186 38.2163 53.1419 37.9075 53.8736 37.9474Z" fill="#2C2C2C"/>
<path d="M58.3053 44.3271C57.2068 44.3271 56.0715 43.7637 56.0715 42.5826C56.0715 41.2354 57.2718 40.5779 58.54 40.5779C59.3233 40.5779 60.119 40.7336 60.852 41.0407V39.9624C60.852 38.7568 59.7274 38.4839 58.7225 38.4839C57.9911 38.4839 57.2315 38.6513 56.6969 38.9619L56.5537 38.447C57.1413 38.1248 57.9776 37.9333 58.8009 37.9333C60.1611 37.9333 61.4418 38.4342 61.4418 39.974V42.8004C61.4418 43.5456 61.4022 43.9691 62.2373 43.8658L62.2626 44.2893C61.1931 44.4562 60.9048 44.0839 60.9423 43.1098C60.4491 44.0084 59.3507 44.3271 58.3053 44.3271ZM60.852 41.5684C60.1325 41.2075 59.3641 41.0664 58.618 41.0799C57.6759 41.0799 56.6832 41.5187 56.6832 42.5314C56.6832 43.4809 57.533 43.802 58.4089 43.802C59.4269 43.802 60.5765 43.3539 60.852 42.2867V41.5684Z" fill="#2C2C2C"/>
<path d="M68.6265 44.2257V40.4633C68.6265 39.2301 67.7901 38.5121 66.5753 38.5121C65.333 38.5121 64.4317 39.2819 64.4317 40.5666V44.2254H63.8054V39.6423C63.8054 38.6511 63.6987 38.4472 63.0054 38.549L62.9944 38.0113C63.9474 37.8697 64.3921 38.0739 64.3921 39.0639C64.9557 38.2677 65.7258 37.9197 66.7185 37.9338C68.3098 37.9338 69.254 38.9728 69.254 40.4633V44.2257H68.6265Z" fill="#2C2C2C"/>
<path d="M71.4294 42.5045C71.5373 43.4042 72.5693 43.8155 73.5885 43.8155C74.6208 43.8155 75.6803 43.4435 75.6803 42.5566C75.6803 41.4124 74.438 41.4124 73.6016 41.3105C72.345 41.1701 71.0024 40.952 71.0024 39.679C71.0024 38.3961 72.2557 37.9333 73.551 37.9333C74.8561 37.9333 76.0966 38.4611 76.0966 39.5631H75.5209C75.5209 38.7933 74.5416 38.4467 73.5599 38.4467C72.6068 38.4467 71.5096 38.793 71.5745 39.6664C71.5745 40.6183 72.9479 40.6932 73.6772 40.7965C74.9978 40.9751 76.3194 41.0919 76.2789 42.5563C76.2789 43.7912 74.9978 44.3265 73.5739 44.3265C72.2411 44.3265 70.9604 43.8152 70.8171 42.5042H71.4294V42.5045Z" fill="#2C2C2C"/>
<path d="M77.9597 41.145V35.2356H78.6153V41.1315C78.6153 42.7876 79.7512 43.726 81.3986 43.726C83.0304 43.726 84.1538 42.7876 84.1538 41.1315V35.2356H84.7945V41.145C84.7945 43.1476 83.3971 44.3275 81.3986 44.3275C79.387 44.3275 77.9597 43.1476 77.9597 41.145Z" fill="#2C2C2C"/>
<path d="M91.994 44.2257V40.4633C91.994 39.2301 91.1568 38.5121 89.9419 38.5121C88.7006 38.5121 87.8005 39.2819 87.8005 40.5666V44.2254H87.1711V39.6423C87.1711 38.6511 87.0687 38.4472 86.3744 38.549L86.3613 38.0113C87.3165 37.8697 87.76 38.0739 87.76 39.0639C88.3214 38.2677 89.0925 37.9197 90.0852 37.9338C91.6807 37.9338 92.6207 38.9728 92.6207 40.4633V44.2257H91.994Z" fill="#2C2C2C"/>
<path d="M95.0245 35.428C95.2345 35.442 95.4439 35.5846 95.4439 35.8656C95.4439 36.1492 95.2479 36.2885 95.0367 36.3038C94.8163 36.3149 94.5798 36.1609 94.5798 35.8656C94.5798 35.5705 94.802 35.4178 95.0245 35.428ZM95.3116 44.2254H94.6996V38.0366H95.3116V44.2254Z" fill="#2C2C2C"/>
<path d="M100.355 44.3271C98.6909 44.3271 97.0469 43.25 97.0469 41.1182C97.0469 38.9724 98.7052 37.9333 100.365 37.9333C102.025 37.9333 103.659 38.9871 103.659 41.1182C103.659 43.2503 101.997 44.3271 100.355 44.3271ZM100.355 43.7778C101.683 43.7778 103.03 42.8792 103.03 41.1182C103.03 39.3597 101.697 38.512 100.365 38.4992C99.02 38.4839 97.6741 39.3468 97.6741 41.1182C97.6741 42.8792 99.0057 43.7778 100.355 43.7778Z" fill="#2C2C2C"/>
<path d="M110.362 44.2257V40.4633C110.362 39.2301 109.526 38.5121 108.312 38.5121C107.068 38.5121 106.168 39.2819 106.168 40.5666V44.2254H105.541V39.6423C105.541 38.6511 105.435 38.4472 104.742 38.549L104.731 38.0113C105.684 37.8697 106.128 38.0739 106.128 39.0639C106.69 38.2677 107.46 37.9197 108.455 37.9338C110.048 37.9338 110.988 38.9728 110.988 40.4633V44.2257H110.362Z" fill="#2C2C2C"/>
<path d="M15.6311 0C21.646 0 27.8801 3.27834 29.5046 10.0965H24.5887C23.0502 6.34521 19.6278 4.61603 15.5882 4.5732C9.30992 4.5732 5.13469 9.05984 5.13469 15.4916C5.13469 21.4867 9.30992 26.2737 15.5882 26.2737C19.8039 26.2737 23.3583 24.2477 24.7186 20.234H29.6817C28.1443 27.6147 21.8222 30.8502 15.5882 30.8502C7.24562 30.8502 0 25.1984 0 15.4916C0 5.73777 7.24562 0 15.6311 0Z" fill="#00A6CA"/>
<path d="M45.7432 26.4936V30.5477H30.9048V26.4936H35.7786V4.35877H31.2989V0.341797H45.3491V4.35877H40.8706V26.4936H45.7432Z" fill="#00A6CA"/>
<path d="M67.6732 14.3246C70.8811 15.4035 72.6351 17.9061 72.6351 21.3138C72.6351 26.7092 68.8594 30.2029 62.8875 30.2029H49.1448V0H61.6141C67.1901 0 71.2709 2.80478 71.2709 8.50091C71.2709 11.0451 70.0889 13.1589 67.6732 14.3246ZM54.2389 4.35604V12.6844H61.2633C64.2057 12.6844 66.224 11.563 66.2703 8.62732C66.2703 5.6506 64.2487 4.35604 61.2633 4.35604H54.2389ZM54.2389 16.7808V25.8005H62.5836C65.4349 25.8005 67.4522 24.2064 67.5864 21.3138C67.5864 19.8042 67.0594 18.5944 66.0061 17.7354C64.8177 16.8706 63.4178 16.7808 62.0091 16.7808H54.2389Z" fill="#00A6CA"/>
<path d="M89.4214 26.4936V30.5477H74.583V26.4936H79.4559V4.35877H74.9789V0.341797H89.0276V4.35877H84.5488V26.4936H89.4214Z" fill="#00A6CA"/>
<path d="M97.8514 26.0159H111.067V30.5477H92.7148V0.341797H97.8514V26.0159Z" fill="#00A6CA"/>
</svg>
