<svg width="28" height="22" viewBox="0 0 28 22" fill="none" xmlns="http://www.w3.org/2000/svg">
<path d="M13.0667 4.56262C13.0667 4.06777 13.531 3.66663 14.1037 3.66663H14.8296C15.4024 3.66663 15.8667 4.06777 15.8667 4.56262V10.4761C15.8667 10.971 15.4024 11.3721 14.8296 11.3721H14.1037C13.531 11.3721 13.0667 10.971 13.0667 10.4761V4.56262Z" fill="#00A6CA"/>
<path d="M13.0667 13.4329C13.0667 12.9381 13.531 12.5369 14.1037 12.5369H14.8296C15.4024 12.5369 15.8667 12.9381 15.8667 13.4329V14.6873C15.8667 15.1821 15.4024 15.5833 14.8296 15.5833H14.1037C13.531 15.5833 13.0667 15.1821 13.0667 14.6873V13.4329Z" fill="#00A6CA"/>
<path fill-rule="evenodd" clip-rule="evenodd" d="M16.3277 2.59357H3.66728C2.76685 2.59357 2.67779 2.67825 2.67779 3.54679V16.0354C2.67779 16.8628 2.78416 16.9644 3.63512 16.9644H24.3188C25.1995 16.9644 25.3083 16.8676 25.3083 15.9967C25.3083 14.8531 25.3097 13.7096 25.3111 12.5661C25.3138 10.279 25.3165 7.9919 25.3083 5.70483C25.3083 5.18225 25.4592 5.03709 25.9737 5.07822C26.5249 5.10847 27.0774 5.10847 27.6286 5.07822C27.9181 5.07822 27.9972 5.175 27.9972 5.44596C27.9972 7.29425 27.9979 9.13544 27.9986 10.9791C27.9991 12.2579 27.9996 13.5379 27.9998 14.8223L28 16.5422V18.1257C28 20.2654 26.2264 22 24.0386 22H22.2469C21.9564 22 21.7209 21.7697 21.7209 21.4856V19.5222C19.4939 19.5251 19.1336 19.5263 16.9066 19.5047L11.5856 19.5313H3.2987C1.45083 19.5265 0.0408163 18.2539 0.025974 16.437C-0.008658 11.9854 -0.008658 7.53384 0.025974 3.08227C0.04329 1.31374 1.46567 4.62643e-05 3.27643 4.62643e-05H24.727C25.3726 -0.00337769 26.0043 0.183323 26.5399 0.535854C27.0755 0.888385 27.4902 1.39042 27.7301 1.97664C27.9601 2.5476 27.9329 2.58873 27.3095 2.58873H16.3277V2.59357Z" fill="#00A6CA"/>
</svg>
