<svg width="24" height="21" viewBox="0 0 24 21" fill="none" xmlns="http://www.w3.org/2000/svg">
<path d="M5.14286 2.57143C5.14286 1.88944 5.41377 1.23539 5.89601 0.753154C6.37825 0.270918 7.0323 0 7.71429 0H16.2857C16.9677 0 17.6218 0.270918 18.104 0.753154C18.5862 1.23539 18.8571 1.88944 18.8571 2.57143V3.42857H20.5714C21.4807 3.42857 22.3528 3.78979 22.9958 4.43278C23.6388 5.07576 24 5.94783 24 6.85714V14.5714C24 15.2534 23.7291 15.9075 23.2468 16.3897C22.7646 16.8719 22.1106 17.1429 21.4286 17.1429H19.0286V18C19.0286 18.682 18.7577 19.336 18.2754 19.8183C17.7932 20.3005 17.1391 20.5714 16.4571 20.5714H7.71429C7.0323 20.5714 6.37825 20.3005 5.89601 19.8183C5.41377 19.336 5.14286 18.682 5.14286 18V17.1429H2.57143C1.88944 17.1429 1.23539 16.8719 0.753154 16.3897C0.270918 15.9075 0 15.2534 0 14.5714V6.85714C0 5.94783 0.361224 5.07576 1.00421 4.43278C1.64719 3.78979 2.51926 3.42857 3.42857 3.42857H5.14286V2.57143ZM17.1429 3.42857V2.57143C17.1429 2.3441 17.0526 2.12608 16.8918 1.96534C16.7311 1.80459 16.513 1.71429 16.2857 1.71429H7.71429C7.48696 1.71429 7.26894 1.80459 7.10819 1.96534C6.94745 2.12608 6.85714 2.3441 6.85714 2.57143V3.42857H17.1429ZM5.14286 5.14286H3.42857C2.97391 5.14286 2.53788 5.32347 2.21639 5.64496C1.8949 5.96645 1.71429 6.40249 1.71429 6.85714V14.5714C1.71429 14.7988 1.80459 15.0168 1.96534 15.1775C2.12608 15.3383 2.3441 15.4286 2.57143 15.4286H5.14286V14.5714C5.14286 13.8894 5.41377 13.2354 5.89601 12.7532C6.37825 12.2709 7.0323 12 7.71429 12H16.4571C17.1391 12 17.7932 12.2709 18.2754 12.7532C18.7577 13.2354 19.0286 13.8894 19.0286 14.5714V15.4286H21.4286C21.6559 15.4286 21.8739 15.3383 22.0347 15.1775C22.1954 15.0168 22.2857 14.7988 22.2857 14.5714V6.85714C22.2857 6.40249 22.1051 5.96645 21.7836 5.64496C21.4621 5.32347 21.0261 5.14286 20.5714 5.14286H5.14286ZM7.71429 13.7143C7.48696 13.7143 7.26894 13.8046 7.10819 13.9653C6.94745 14.1261 6.85714 14.3441 6.85714 14.5714V18C6.85714 18.2273 6.94745 18.4453 7.10819 18.6061C7.26894 18.7668 7.48696 18.8571 7.71429 18.8571H16.4571C16.6845 18.8571 16.9025 18.7668 17.0632 18.6061C17.224 18.4453 17.3143 18.2273 17.3143 18V14.5714C17.3143 14.3441 17.224 14.1261 17.0632 13.9653C16.9025 13.8046 16.6845 13.7143 16.4571 13.7143H7.71429Z" fill="#00A6CA"/>
</svg>
