<svg width="37" height="32" viewBox="0 0 37 32" fill="none" xmlns="http://www.w3.org/2000/svg">
<path fill-rule="evenodd" clip-rule="evenodd" d="M2.6466 5.89325C1.95864 6.20656 1.21373 7.05595 1.02796 7.73901C0.809203 8.54344 1.93442 22.3674 2.30635 23.4452C2.85195 25.0264 3.52059 25.7406 6.24267 27.6498C8.12515 28.97 8.75462 29.6468 9.0213 30.637C9.27446 31.5771 10.0875 31.8381 10.6028 31.1447C10.844 30.8201 10.8458 30.7756 10.6457 30.087C10.5308 29.6918 10.1888 29.0035 9.88576 28.5579C9.41707 27.8685 9.00816 27.5137 7.15016 26.1838C4.86031 24.5449 4.29087 23.9651 3.94109 22.9163C3.82772 22.5763 3.61129 20.6581 3.41791 18.2783C3.23652 16.0463 2.97924 12.9157 2.84616 11.3214C2.63191 8.75433 2.62573 8.37686 2.79269 8.02193C2.98658 7.60941 3.42912 7.32766 3.88299 7.32766C4.25493 7.32766 4.85515 7.66635 4.95886 7.93484C5.00769 8.06148 5.33415 9.49846 5.68431 11.1282C6.20157 13.5359 6.37304 14.1347 6.5994 14.3232C6.97134 14.6328 7.45948 14.5548 7.77074 14.1361L8.02466 13.7943L7.35358 10.6619C6.98461 8.93921 6.60559 7.38267 6.51141 7.2032C6.28608 6.77342 5.58408 6.12012 5.06863 5.86052C4.51143 5.57993 3.29848 5.59629 2.6466 5.89325ZM32.0846 5.85795C31.5644 6.08289 30.8499 6.73129 30.6069 7.19882C30.5148 7.37597 30.1354 8.93173 29.7637 10.6561L29.0878 13.7915L29.3428 14.1346C29.6549 14.5547 30.1427 14.6332 30.5151 14.3232C30.7415 14.1347 30.913 13.5359 31.4302 11.1282C31.7804 9.49846 32.1069 8.06148 32.1557 7.93484C32.2653 7.65102 32.8666 7.32766 33.2846 7.32766C33.6585 7.32766 34.2531 7.76929 34.4002 8.15617C34.4613 8.31669 34.4043 9.66556 34.2663 11.3279C34.1344 12.9186 33.878 16.0463 33.6966 18.2783C33.5033 20.6581 33.2868 22.5763 33.1735 22.9163C32.8237 23.9651 32.2542 24.5449 29.9644 26.1838C27.5518 27.9107 26.9553 28.5741 26.4923 30.0466C26.2595 30.7867 26.2598 30.8058 26.5095 31.1416C27.027 31.8381 27.8396 31.5791 28.0932 30.637C28.3606 29.6445 28.9881 28.9703 30.8716 27.6527C33.5791 25.7585 34.2608 25.03 34.8087 23.4452C35.1796 22.3722 36.3037 8.5464 36.0856 7.73901C35.9012 7.05646 35.1566 6.20682 34.468 5.89325C33.8382 5.60634 32.705 5.58959 32.0846 5.85795ZM7.1557 15.1207C6.85964 15.2245 6.41105 15.5523 6.10134 15.8911C5.08628 17.0017 5.10908 18.5433 6.15738 19.6633C6.42303 19.9472 7.43139 20.9401 8.39827 21.8699C9.84247 23.2588 10.2238 23.5604 10.5362 23.5604C11.0134 23.5604 11.3427 23.207 11.3427 22.6948C11.3427 22.3536 11.0558 22.0236 9.217 20.2492C7.26121 18.3618 7.09128 18.1617 7.09128 17.7452C7.09128 17.4293 7.18829 17.2014 7.41233 16.991C7.96617 16.4706 8.33785 16.5828 10.0116 17.7758C10.8501 18.3731 12.0482 19.2032 12.6741 19.6202C14.1533 20.6057 15.1233 21.5012 15.4559 22.1882C15.7071 22.7072 15.723 22.9599 15.723 26.4354C15.723 29.9591 15.735 30.1428 15.9806 30.3885C16.3026 30.7104 16.9032 30.7214 17.1846 30.4105C17.3732 30.2021 17.3978 29.7191 17.3978 26.2155V22.2561L17.0545 21.5233C16.5712 20.4919 15.3514 19.3414 13.2108 17.8981C12.2188 17.2292 10.9753 16.3638 10.4476 15.9747C9.02929 14.9292 8.26648 14.7312 7.1557 15.1207ZM28.0734 15.1191C27.8159 15.2139 27.1782 15.6052 26.6563 15.9887C26.1344 16.3723 24.8958 17.2325 23.9038 17.9002C21.7647 19.34 20.5439 20.4909 20.0601 21.5233L19.7168 22.2561V26.2379C19.7168 29.9318 19.7338 30.2352 19.9524 30.4329C20.2719 30.7221 20.8208 30.7015 21.1339 30.3885C21.3796 30.1428 21.3916 29.9591 21.3916 26.4354C21.3916 22.9599 21.4074 22.7072 21.6586 22.1882C21.9913 21.5012 22.9612 20.6057 24.4405 19.6202C25.0664 19.2032 26.2511 18.3828 27.0732 17.7971C28.2561 16.9543 28.6611 16.7323 29.0154 16.7323C29.6002 16.7323 30.0233 17.1679 30.0233 17.77C30.0233 18.172 29.8341 18.3932 27.8976 20.2568C26.0106 22.0725 25.7718 22.3489 25.7718 22.7181C25.7718 23.2154 26.1068 23.5604 26.5897 23.5604C27.0687 23.5604 31.0586 19.769 31.4707 18.9225C32.5359 16.7339 30.3465 14.2829 28.0734 15.1191Z" fill="#00A6CA" stroke="#00A6CA" stroke-width="0.4"/>
<path fill-rule="evenodd" clip-rule="evenodd" d="M13.3931 0.880083V1.76012L14.5785 1.78343C15.5717 1.80291 15.8233 1.82221 16.1301 1.90244C16.8816 2.09898 17.3779 2.43625 17.6519 2.93678L17.8052 3.21658H15.5991H13.3931V3.84591V4.47524H15.6403H17.8876L17.8382 4.65005C17.7053 5.11972 17.3546 5.56631 16.9184 5.8214C16.271 6.20002 15.5525 6.33922 14.2432 6.33964L13.3931 6.33992V7.19562V8.05132L13.8774 8.55917C14.6699 9.38993 16.0202 10.8971 17.1414 12.202L18.1926 13.4257H19.5801H20.9676L20.4516 12.808C19.062 11.1447 17.6679 9.56125 16.6368 8.47489C16.1363 7.94765 16.085 7.87851 16.1818 7.86145C16.2418 7.85092 16.5107 7.80896 16.7794 7.76831C18.5314 7.50311 19.7813 6.5014 20.1904 5.03464C20.244 4.84235 20.2996 4.6273 20.3139 4.55682L20.3399 4.42862H21.5125H22.685V3.82339V3.21821L21.5044 3.20571L20.3238 3.19327L20.2349 2.82644C20.186 2.62468 20.0812 2.32754 20.002 2.16615C19.8456 1.84706 19.4538 1.3118 19.3641 1.29456C19.3334 1.28864 20.0627 1.27288 20.9847 1.25959L22.6611 1.23535L22.6744 0.617676L22.6878 0H18.0404H13.3931V0.880083Z" fill="#00A6CA"/>
</svg>
