<svg width="252" height="50" viewBox="0 0 252 50" fill="none" xmlns="http://www.w3.org/2000/svg">
<rect width="252" height="50" rx="25" fill="#F16E00"/>
<path d="M22.8491 24.384C22.8491 27.984 25.4411 30.144 28.4971 30.144C30.7051 30.144 32.6251 29.12 33.4731 26.992C33.8411 26.016 33.9211 25.024 33.8731 23.952H28.6251V25.536H32.1131C31.8091 27.68 30.4171 28.448 28.4971 28.448C26.1931 28.448 24.7371 26.752 24.7371 24.384C24.7371 22.144 26.1451 20.336 28.4971 20.336C29.9851 20.336 31.0731 20.864 31.6971 22.16H33.5371C32.8491 19.68 30.7371 18.656 28.5131 18.656C25.5051 18.656 22.8491 20.8 22.8491 24.384ZM39.4798 22.112C37.3838 22.112 35.5278 23.408 35.4798 25.984C35.3998 28.592 37.2718 30.224 39.8158 30.176C40.7918 30.176 41.8318 29.92 42.7278 29.52L42.5038 28.224C41.5918 28.624 40.6638 28.752 39.7038 28.704C38.2958 28.704 37.1918 27.872 37.1918 26.464H42.8878C43.3998 23.904 42.1838 22.112 39.4798 22.112ZM39.4638 23.456C40.5678 23.456 41.5278 24.064 41.4798 25.232H37.2238C37.4638 24.016 38.3118 23.456 39.4638 23.456ZM47.5723 19.92H46.0363L45.8603 22.304H44.2923V23.44L45.8603 23.552V27.056C45.8603 30.08 47.9243 30.688 50.5643 29.872L50.3883 28.56C48.8043 29.12 47.5723 28.992 47.5723 27.024V23.552H50.2443V22.304H47.5723V19.92ZM63.5443 22.48V22.288H61.8003L60.7763 24.992L59.6083 28.368H59.5603L58.2963 24.976L57.1603 22.288H55.2883V22.48L58.7603 30.048L58.3923 30.992C57.9283 32.272 57.2563 32.944 55.8803 32.336L55.6723 33.6C58.3443 34.752 59.3043 32.928 60.2003 30.656L63.5443 22.48ZM72.7788 26.112C72.7788 23.408 70.6988 22.064 68.6348 22.096C66.6188 22.128 64.6348 23.456 64.6348 26.112C64.6348 28.8 66.6668 30.144 68.6988 30.144C70.7308 30.144 72.7788 28.8 72.7788 26.112ZM66.3628 26.112C66.3628 24.48 67.4828 23.664 68.6348 23.632C69.8188 23.6 71.0348 24.432 71.0348 26.112C71.0348 27.76 69.8828 28.592 68.7308 28.608C67.5468 28.624 66.3628 27.792 66.3628 26.112ZM80.1679 22.288V26.704C80.1679 27.936 79.3199 28.736 78.2159 28.736C77.1919 28.736 76.5359 27.984 76.5519 26.752V22.288H74.7919V26.752C74.7919 28.64 75.5439 30.128 77.6719 30.128C78.7599 30.128 79.8159 29.792 80.3439 28.752C80.3439 30.416 81.7519 30.208 82.7439 30.032L82.7279 28.896C81.9919 28.976 81.9119 28.72 81.9119 27.792V22.288H80.1679ZM86.6428 23.408C86.5628 22.16 85.3148 21.968 84.1788 22.224L84.1948 23.408C85.0268 23.36 85.0268 23.712 85.0268 24.4V30H86.7548V25.536C86.7548 24.288 87.6828 23.616 88.7228 23.616C89.2828 23.616 89.7948 23.776 90.2588 24.08L90.6908 22.576C90.1948 22.208 89.5548 22.016 88.9148 22.032C87.9708 22.032 86.9468 22.512 86.6428 23.408ZM102.767 24H98.3193V20.432H103.215V18.8H96.4633V30H98.3193V25.648H102.767V24ZM106.947 23.408C106.867 22.16 105.619 21.968 104.483 22.224L104.499 23.408C105.331 23.36 105.331 23.712 105.331 24.4V30H107.059V25.536C107.059 24.288 107.987 23.616 109.027 23.616C109.587 23.616 110.099 23.776 110.563 24.08L110.995 22.576C110.499 22.208 109.859 22.016 109.219 22.032C108.275 22.032 107.251 22.512 106.947 23.408ZM115.93 22.112C113.834 22.112 111.978 23.408 111.93 25.984C111.85 28.592 113.722 30.224 116.266 30.176C117.242 30.176 118.282 29.92 119.178 29.52L118.954 28.224C118.042 28.624 117.114 28.752 116.154 28.704C114.746 28.704 113.642 27.872 113.642 26.464H119.338C119.85 23.904 118.634 22.112 115.93 22.112ZM115.914 23.456C117.018 23.456 117.978 24.064 117.93 25.232H113.674C113.914 24.016 114.762 23.456 115.914 23.456ZM125.062 22.112C122.966 22.112 121.11 23.408 121.062 25.984C120.982 28.592 122.854 30.224 125.398 30.176C126.374 30.176 127.414 29.92 128.31 29.52L128.086 28.224C127.174 28.624 126.246 28.752 125.286 28.704C123.878 28.704 122.774 27.872 122.774 26.464H128.47C128.982 23.904 127.766 22.112 125.062 22.112ZM125.046 23.456C126.15 23.456 127.11 24.064 127.062 25.232H122.806C123.046 24.016 123.894 23.456 125.046 23.456ZM134.61 24.416C134.61 28.016 137.25 30.112 140.29 30.112C142.562 30.112 144.866 28.912 145.426 26.176H143.618C143.122 27.664 141.826 28.416 140.29 28.416C138.002 28.416 136.482 26.64 136.482 24.416C136.482 22.032 138.002 20.368 140.29 20.368C141.762 20.384 143.01 21.024 143.57 22.416H145.362C144.77 19.888 142.498 18.672 140.306 18.672C137.25 18.672 134.61 20.8 134.61 24.416ZM150.623 28.496V20.288H152.255V18.8H147.135V20.288H148.767V28.496H146.991V30H152.399V28.496H150.623ZM162.814 21.952C162.814 19.84 161.326 18.8 159.294 18.8H154.75V30H159.758C161.934 30 163.31 28.704 163.31 26.704C163.31 25.44 162.67 24.512 161.502 24.112C162.382 23.68 162.814 22.896 162.814 21.952ZM159.166 20.416C160.254 20.416 160.99 20.896 160.99 22C160.974 23.088 160.238 23.504 159.166 23.504H156.606V20.416H159.166ZM159.438 25.024C159.95 25.024 160.462 25.056 160.894 25.376C161.278 25.696 161.47 26.144 161.47 26.704C161.422 27.776 160.686 28.368 159.646 28.368H156.606V25.024H159.438ZM168.653 28.496V20.288H170.285V18.8H165.165V20.288H166.797V28.496H165.021V30H170.429V28.496H168.653ZM174.653 18.8H172.781V30H179.469V28.32H174.653V18.8ZM184.624 26.816C184.672 29.168 186.96 30.256 189.152 30.208C191.248 30.208 193.568 29.28 193.568 26.816C193.568 24.24 191.488 23.792 189.216 23.536C187.92 23.36 186.656 23.2 186.656 21.936C186.656 20.672 187.984 20.256 189.008 20.256C190.112 20.256 191.376 20.64 191.456 21.84H193.216C193.168 19.552 191.152 18.592 189.024 18.592C186.848 18.592 184.816 19.68 184.816 21.984C184.816 24.224 186.848 24.88 188.896 25.056C190.192 25.184 191.712 25.328 191.712 26.8C191.712 28.192 190.304 28.544 189.12 28.544C187.904 28.544 186.528 28.08 186.448 26.816H184.624ZM203.031 24.848C202.615 22.96 200.967 22.048 199.287 22.064C197.287 22.08 195.239 23.456 195.239 26.112C195.239 28.784 197.287 30.128 199.303 30.128C200.999 30.128 202.679 29.168 203.079 27.216H201.415C201.063 28.16 200.199 28.624 199.335 28.624C198.167 28.624 196.967 27.776 196.967 26.112C196.967 24.48 198.183 23.616 199.367 23.616C200.263 23.616 201.079 24.016 201.415 24.848H203.031ZM212.75 26.112C212.75 23.408 210.67 22.064 208.606 22.096C206.59 22.128 204.606 23.456 204.606 26.112C204.606 28.8 206.638 30.144 208.67 30.144C210.702 30.144 212.75 28.8 212.75 26.112ZM206.334 26.112C206.334 24.48 207.454 23.664 208.606 23.632C209.79 23.6 211.006 24.432 211.006 26.112C211.006 27.76 209.854 28.592 208.702 28.608C207.518 28.624 206.334 27.792 206.334 26.112ZM216.747 23.408C216.667 22.16 215.419 21.968 214.283 22.224L214.299 23.408C215.131 23.36 215.131 23.712 215.131 24.4V30H216.859V25.536C216.859 24.288 217.787 23.616 218.827 23.616C219.387 23.616 219.899 23.776 220.363 24.08L220.795 22.576C220.299 22.208 219.659 22.016 219.019 22.032C218.075 22.032 217.051 22.512 216.747 23.408ZM225.73 22.112C223.634 22.112 221.778 23.408 221.73 25.984C221.65 28.592 223.522 30.224 226.066 30.176C227.042 30.176 228.082 29.92 228.978 29.52L228.754 28.224C227.842 28.624 226.914 28.752 225.954 28.704C224.546 28.704 223.442 27.872 223.442 26.464H229.138C229.65 23.904 228.434 22.112 225.73 22.112ZM225.714 23.456C226.818 23.456 227.778 24.064 227.73 25.232H223.474C223.714 24.016 224.562 23.456 225.714 23.456Z" fill="#2C2C2C"/>
</svg>
