<svg width="600" height="81" viewBox="0 0 600 81" fill="none" xmlns="http://www.w3.org/2000/svg">
<rect width="600" height="81" fill="white"/>
<g filter="url(#filter0_d_176:30)">
<path d="M42.5708 59.907V51.9875C43.574 51.9875 44.6596 51.9761 45.6625 51.9875C47.2726 51.9875 48.4362 53.0951 48.4362 54.6202C48.4362 56.1458 47.2726 57.2282 45.6625 57.2282H43.1413V59.9067H42.5708V59.907ZM45.6625 56.6977C46.894 56.6977 47.8644 55.8622 47.8644 54.6078C47.8644 53.3549 46.9304 52.5066 45.6625 52.5066H43.1413V56.6974H45.6625V56.6977Z" fill="black"/>
<path d="M51.1345 59.9985C50.1755 59.9985 49.1841 59.5028 49.1841 58.4637C49.1841 57.2783 50.2333 56.6998 51.3402 56.6998C52.0233 56.6998 52.7218 56.8369 53.3607 57.107V56.1582C53.3607 55.0975 52.378 54.8574 51.5007 54.8574C50.8621 54.8574 50.1998 55.0047 49.7322 55.278L49.6061 54.825C50.1183 54.5415 50.8503 54.373 51.5701 54.373C52.7566 54.373 53.8747 54.8137 53.8747 56.1685V58.6553C53.8747 59.3109 53.8383 59.6836 54.5684 59.5927L54.5913 59.9653C53.6555 60.1121 53.4059 59.7845 53.4386 58.9275C53.006 59.7181 52.047 59.9985 51.1345 59.9985ZM53.3604 57.5713C52.7313 57.2538 52.0584 57.1296 51.4081 57.1415C50.5867 57.1415 49.72 57.5276 49.72 58.4186C49.72 59.254 50.4597 59.5365 51.2245 59.5365C52.1161 59.5365 53.1201 59.1423 53.3601 58.2033V57.5713H53.3604Z" fill="black"/>
<path d="M58.196 54.3839C58.7322 54.3931 59.2125 54.5399 59.5786 54.8008L59.3825 55.2764C59.03 55.015 58.5747 54.9017 58.1268 54.9017C57.3073 54.9017 56.5186 55.457 56.5186 56.3841V59.9073H55.9718V55.716C55.9718 55.1853 55.9593 54.8461 55.2637 54.9378L55.2427 54.4503C56.1189 54.304 56.4744 54.6329 56.4744 55.2651C56.8384 54.6205 57.559 54.3488 58.196 54.3839Z" fill="black"/>
<path d="M61.8027 54.4613H63.9357V54.9246H61.8027V57.862C61.8027 58.9902 62.1582 59.4567 62.873 59.4669C63.2189 59.4669 63.6388 59.3768 64.1279 59.2066L64.2106 59.6699C63.6965 59.8496 63.2277 59.9308 62.8405 59.9308C61.8126 59.9308 61.2564 59.3086 61.2564 57.8733V54.9246L60.0005 54.8901V54.4613H61.2564L61.3014 52.8008H61.803V54.4613H61.8027Z" fill="black"/>
<path d="M70.8193 59.9985C69.3707 59.9985 67.9341 59.0508 67.9341 57.1752C67.9341 55.2873 69.383 54.373 70.831 54.373C72.2786 54.373 73.7064 55.3002 73.7064 57.1752C73.7064 59.0511 72.2576 59.9985 70.8193 59.9985ZM70.8193 59.5152C71.9829 59.5152 73.1599 58.7246 73.1599 57.1752C73.1599 55.628 71.9944 54.8822 70.831 54.8709C69.656 54.8574 68.482 55.6167 68.482 57.1752C68.482 58.7246 69.6464 59.5152 70.8193 59.5152Z" fill="black"/>
<path d="M75.6923 54.9383H74.4028V54.4626H75.6923V53.4796C75.6923 51.5262 77.2447 51.254 78.7145 51.8741L78.6012 52.3147C77.4714 51.8304 76.2407 51.8989 76.2407 53.492V54.4628H78.363V54.9385H76.2407V59.908H75.692V54.9383H75.6923Z" fill="black"/>
<path d="M81.0786 52.5215V52H86.8948V52.5215H84.2712V59.9098H83.7015V52.5215H81.0786Z" fill="black"/>
<path d="M89.47 54.3839C90.0062 54.3931 90.4862 54.5399 90.8505 54.8008L90.657 55.2764C90.3037 55.015 89.8473 54.9017 89.4024 54.9017C88.581 54.9017 87.7942 55.457 87.7942 56.3841V59.9073H87.2463V55.716C87.2463 55.1853 87.2348 54.8461 86.5393 54.9378L86.5161 54.4503C87.3942 54.304 87.7479 54.6329 87.7479 55.2651C88.1124 54.6205 88.8311 54.3488 89.47 54.3839Z" fill="black"/>
<path d="M93.3413 59.9985C92.3823 59.9985 91.3911 59.5028 91.3911 58.4637C91.3911 57.2783 92.439 56.6998 93.5462 56.6998C94.23 56.6998 94.9248 56.8369 95.5647 57.107V56.1582C95.5647 55.0975 94.5829 54.8574 93.7056 54.8574C93.0669 54.8574 92.4039 55.0047 91.9371 55.278L91.8121 54.825C92.3251 54.5415 93.0552 54.373 93.7739 54.373C94.9615 54.373 96.0796 54.8137 96.0796 56.1685V58.6553C96.0796 59.3109 96.045 59.6836 96.7741 59.5927L96.7962 59.9653C95.8625 60.1121 95.6108 59.7845 95.6435 58.9275C95.213 59.7181 94.254 59.9985 93.3413 59.9985ZM95.5647 57.5713C94.9365 57.2538 94.2657 57.1296 93.6143 57.1415C92.7918 57.1415 91.9252 57.5276 91.9252 58.4186C91.9252 59.254 92.667 59.5365 93.4318 59.5365C94.3205 59.5365 95.3242 59.1423 95.5647 58.2033V57.5713V57.5713Z" fill="black"/>
<path d="M102.347 59.9093V56.599C102.347 55.514 101.617 54.8823 100.556 54.8823C99.4719 54.8823 98.6851 55.5596 98.6851 56.6899V59.909H98.1382V55.8766C98.1382 55.0046 98.0451 54.8251 97.4398 54.9147L97.4302 54.4417C98.2622 54.317 98.6505 54.4967 98.6505 55.3677C99.1425 54.6672 99.8149 54.361 100.682 54.3734C102.071 54.3734 102.895 55.2876 102.895 56.599V59.9093H102.347V59.9093Z" fill="black"/>
<path d="M104.797 58.3949C104.891 59.1865 105.792 59.5484 106.682 59.5484C107.583 59.5484 108.508 59.2211 108.508 58.4407C108.508 57.434 107.423 57.434 106.693 57.3444C105.596 57.2208 104.424 57.029 104.424 55.9089C104.424 54.7802 105.518 54.373 106.649 54.373C107.788 54.373 108.871 54.8374 108.871 55.8069H108.369C108.369 55.1297 107.514 54.8247 106.657 54.8247C105.825 54.8247 104.867 55.1294 104.923 55.8979C104.923 56.7354 106.122 56.8013 106.759 56.8922C107.912 57.0493 109.066 57.152 109.031 58.4405C109.031 59.527 107.912 59.998 106.669 59.998C105.505 59.998 104.387 59.5481 104.262 58.3946H104.797V58.3949Z" fill="black"/>
<path d="M110.501 57.1993V52H111.073V57.1875C111.073 58.6445 112.065 59.4702 113.503 59.4702C114.928 59.4702 115.909 58.6445 115.909 57.1875V52H116.468V57.1993C116.468 58.9613 115.248 59.9994 113.503 59.9994C111.747 59.9994 110.501 58.9613 110.501 57.1993Z" fill="black"/>
<path d="M122.753 59.9093V56.599C122.753 55.514 122.022 54.8823 120.961 54.8823C119.878 54.8823 119.092 55.5596 119.092 56.6899V59.909H118.542V55.8766C118.542 55.0046 118.453 54.8251 117.847 54.9147L117.835 54.4417C118.669 54.317 119.057 54.4967 119.057 55.3677C119.547 54.6672 120.22 54.361 121.087 54.3734C122.48 54.3734 123.3 55.2876 123.3 56.599V59.9093H122.753V59.9093Z" fill="black"/>
<path d="M125.393 52.1664C125.576 52.1788 125.759 52.3043 125.759 52.5515C125.759 52.801 125.588 52.9236 125.403 52.937C125.211 52.9468 125.004 52.8113 125.004 52.5515C125.004 52.2919 125.198 52.1575 125.393 52.1664ZM125.643 59.9068H125.109V54.4616H125.643V59.9068Z" fill="black"/>
<path d="M130.049 59.9985C128.596 59.9985 127.161 59.0508 127.161 57.1752C127.161 55.2873 128.608 54.373 130.057 54.373C131.507 54.373 132.933 55.3002 132.933 57.1752C132.933 59.0511 131.482 59.9985 130.049 59.9985ZM130.049 59.5152C131.208 59.5152 132.384 58.7246 132.384 57.1752C132.384 55.628 131.221 54.8822 130.057 54.8709C128.883 54.8574 127.708 55.6167 127.708 57.1752C127.708 58.7246 128.871 59.5152 130.049 59.5152Z" fill="black"/>
<path d="M138.784 59.9093V56.599C138.784 55.514 138.055 54.8823 136.994 54.8823C135.908 54.8823 135.122 55.5596 135.122 56.6899V59.909H134.575V55.8766C134.575 55.0046 134.482 54.8251 133.877 54.9147L133.868 54.4417C134.7 54.317 135.088 54.4967 135.088 55.3677C135.578 54.6672 136.25 54.361 137.119 54.3734C138.51 54.3734 139.331 55.2876 139.331 56.599V59.9093H138.784V59.9093Z" fill="black"/>
</g>
<path d="M56.0804 21C61.3317 21 66.7743 23.8844 68.1926 29.8833H63.9008C62.5576 26.5828 59.5696 25.0614 56.0429 25.0237C50.5616 25.0237 46.9164 28.9712 46.9164 34.6301C46.9164 39.9048 50.5616 44.1167 56.0429 44.1167C59.7234 44.1167 62.8266 42.3341 64.0142 38.8027H68.3472C67.005 45.2965 61.4855 48.1433 56.0429 48.1433C48.7594 48.1433 42.4336 43.1706 42.4336 34.6301C42.4336 26.0483 48.7594 21 56.0804 21Z" fill="#00A2D1"/>
<path d="M82.3726 44.3121V47.8791H69.418V44.3121H73.673V24.837H69.762V21.3027H82.0286V24.837H78.1186V44.3121H82.3726Z" fill="#00A2D1"/>
<path d="M101.422 33.9081C104.223 34.8573 105.754 37.0592 105.754 40.0574C105.754 44.8045 102.458 47.8784 97.2442 47.8784H85.2461V21.3047H96.1324C101.001 21.3047 104.563 23.7724 104.563 28.7841C104.563 31.0226 103.531 32.8824 101.422 33.9081ZM89.6936 25.1373V32.4649H95.8262C98.395 32.4649 100.157 31.4783 100.198 28.8953C100.198 26.2763 98.4325 25.1373 95.8262 25.1373H89.6936ZM89.6936 36.0691V44.005H96.9789C99.4682 44.005 101.229 42.6024 101.347 40.0574C101.347 38.7292 100.886 37.6648 99.9668 36.909C98.9293 36.1481 97.7072 36.0691 96.4773 36.0691H89.6936Z" fill="#00A2D1"/>
<path d="M120.502 44.3121V47.8791H107.547V44.3121H111.801V24.837H107.893V21.3027H120.158V24.837H116.248V44.3121H120.502Z" fill="#00A2D1"/>
<path d="M127.863 43.8918H139.401V47.8791H123.379V21.3027H127.863V43.8918Z" fill="#00A2D1"/>
<defs>
<filter id="filter0_d_176:30" x="41.5708" y="50.5781" width="98.7598" height="10.4219" filterUnits="userSpaceOnUse" color-interpolation-filters="sRGB">
<feFlood flood-opacity="0" result="BackgroundImageFix"/>
<feColorMatrix in="SourceAlpha" type="matrix" values="0 0 0 0 0 0 0 0 0 0 0 0 0 0 0 0 0 0 127 0" result="hardAlpha"/>
<feOffset/>
<feGaussianBlur stdDeviation="0.5"/>
<feComposite in2="hardAlpha" operator="out"/>
<feColorMatrix type="matrix" values="0 0 0 0 1 0 0 0 0 1 0 0 0 0 1 0 0 0 1 0"/>
<feBlend mode="normal" in2="BackgroundImageFix" result="effect1_dropShadow_176:30"/>
<feBlend mode="normal" in="SourceGraphic" in2="effect1_dropShadow_176:30" result="shape"/>
</filter>
</defs>
</svg>
