<svg width="40" height="31" viewBox="0 0 40 31" fill="none" xmlns="http://www.w3.org/2000/svg">
<path fill-rule="evenodd" clip-rule="evenodd" d="M7.87665 1.2901C5.95068 1.94647 4.37634 3.44448 3.6805 5.28305C3.29449 6.30314 3.15014 8.17653 3.37635 9.23158C3.58553 10.2069 4.18042 11.427 4.79935 12.15L5.27989 12.7114L4.51253 13.2209C2.56544 14.5137 1.00421 16.7104 0.414123 18.9876C0.283317 19.4928 0.136487 20.5568 0.0881268 21.3522L0 22.7982H1.6243H3.24861V21.6481C3.24861 17.7945 6.36233 14.641 10.1677 14.641C11.0218 14.641 12.2295 14.376 12.884 14.0449L13.4154 13.7762L13.8173 14.5977C14.0384 15.0496 14.4382 15.6615 14.7058 15.9578L15.1923 16.4963L14.5737 16.903C11.4446 18.9595 9.81195 22.1846 9.97786 25.9818C10.0501 27.6329 10.3295 28.3041 11.2852 29.1222C12.3804 30.0597 12.5775 30.0814 20 30.0814C27.4225 30.0814 27.6196 30.0597 28.7148 29.1222C29.6705 28.3041 29.9499 27.6329 30.0221 25.9818C30.098 24.2432 29.7824 22.5562 29.1132 21.1254C28.5958 20.0187 27.5976 18.5797 27.345 18.5761C27.2589 18.5749 27.0295 18.7437 26.8352 18.9513C26.641 19.1589 26.1543 19.5646 25.7537 19.8527C25.3532 20.1408 24.998 20.3972 24.9647 20.4221C24.9313 20.4471 25.1154 20.7309 25.374 21.0527C26.1673 22.0397 26.6995 23.366 26.8818 24.8092C27.0286 25.9729 27.0194 26.1576 26.7974 26.4964L26.5482 26.8768H20H13.4518L13.2026 26.4964C12.8153 25.9053 13.1172 23.842 13.802 22.4001C14.9334 20.0177 17.4542 18.4365 20.1398 18.4247C22.5761 18.414 25.0024 16.9116 26.1111 14.7273L26.5919 13.7799L27.1196 14.0468C27.7708 14.3761 28.9799 14.641 29.8323 14.641C33.6377 14.641 36.7514 17.7945 36.7514 21.6481V22.7982H38.3757H40L39.9119 21.3522C39.8635 20.5568 39.7167 19.4928 39.5859 18.9876C38.9958 16.7104 37.4346 14.5137 35.4875 13.2209L34.7201 12.7114L35.2007 12.15C35.8196 11.427 36.4145 10.2069 36.6236 9.23158C36.8499 8.17653 36.7055 6.30314 36.3195 5.28305C34.2773 -0.112789 26.4952 -0.575273 23.8601 4.54264C23.6198 5.00935 23.4088 5.41648 23.3915 5.44722C23.374 5.47795 22.948 5.34685 22.4447 5.15589C21.1521 4.66544 18.727 4.66689 17.4772 5.1588C17.0111 5.34234 16.6178 5.46979 16.6033 5.44197C16.5887 5.41401 16.3802 5.00935 16.1399 4.54264C14.6355 1.62076 11.0488 0.208983 7.87665 1.2901ZM11.8648 4.54279C13.2457 5.29369 14.0563 6.94916 13.7478 8.38818C13.5344 9.38292 13.2805 9.83127 12.5644 10.4782C11.7685 11.1973 11.0942 11.4655 10.0822 11.4655C9.00322 11.4655 8.1438 11.0745 7.37091 10.232C6.54033 9.32655 6.20282 8.201 6.44186 7.13284C7.01854 4.55648 9.61166 3.3179 11.8648 4.54279ZM31.6973 4.55619C32.6144 5.0682 33.3108 6.02798 33.5542 7.11551C33.7006 7.76954 33.6897 8.0211 33.4841 8.72787C33.1896 9.74111 32.3086 10.7692 31.3808 11.1822C30.6074 11.5264 29.3049 11.5546 28.5604 11.2435C27.7508 10.9053 26.7511 9.90338 26.4585 9.13719C25.6847 7.111 26.8322 4.80717 28.9387 4.15765C29.7004 3.92284 30.8634 4.09079 31.6973 4.55619ZM21.007 8.023C21.9558 8.30471 22.9903 9.21497 23.3965 10.1254C24.2847 12.1163 23.104 14.53 20.9331 15.161C20.2293 15.3656 19.9735 15.3772 19.3291 15.2329C17.2904 14.7766 15.9266 12.7989 16.3491 10.9111C16.6602 9.52072 17.5498 8.5254 18.8975 8.05956C19.8159 7.74201 20.0473 7.73808 21.007 8.023Z" fill="#00A6CA"/>
</svg>
