<svg width="40" height="33" viewBox="0 0 40 33" fill="none" xmlns="http://www.w3.org/2000/svg">
<path fill-rule="evenodd" clip-rule="evenodd" d="M2.64486 0.339365C1.72615 0.754607 0.899839 1.52422 0.42056 2.41074C0.0610163 3.07596 0.0598484 3.11415 0.0114869 16.0854C-0.022533 25.1887 0.0179902 29.2933 0.146732 29.76C0.430564 30.7898 1.30908 31.8663 2.3245 32.4283L3.22853 32.9286H19.9883H36.7481L37.6551 32.4283C38.5838 31.9161 39.412 30.9526 39.7789 29.9575C39.9208 29.5724 39.9782 26.4138 39.9873 18.4618L40 7.49704H38.2526H36.5051L36.4599 18.1444C36.4227 26.8739 36.3734 28.8413 36.1858 29.0675C35.9758 29.3203 34.6367 29.3431 19.9883 29.3431C5.33793 29.3431 4.00098 29.3203 3.79086 29.0673C3.60142 28.8392 3.56206 26.6672 3.56206 16.4619V4.13225L3.95579 3.81356C4.33785 3.50405 4.87132 3.49471 22.0914 3.49471C41.8092 3.49471 40.1534 3.60227 39.5144 2.36238C39.0865 1.53256 38.2445 0.751939 37.3318 0.339365C36.5932 0.00533642 36.3184 0 19.9883 0C3.65828 0 3.38346 0.00533642 2.64486 0.339365ZM7.31425 9.24807V10.9991H9.06527H10.8163V9.24807V7.49704H9.06527H7.31425V9.24807ZM14.6519 9.24807V10.9991H23.6571H32.6624V9.24807V7.49704H23.6571H14.6519V9.24807ZM7.31425 16.5857V18.3367H9.06527H10.8163V16.5857V14.8347H9.06527H7.31425V16.5857ZM14.6519 16.5857V18.3367H23.6571H32.6624V16.5857V14.8347H23.6571H14.6519V16.5857ZM7.31425 23.9233V25.6743H9.06527H10.8163V23.9233V22.1723H9.06527H7.31425V23.9233ZM14.6519 23.9233V25.6743H23.6571H32.6624V23.9233V22.1723H23.6571H14.6519V23.9233Z" fill="#00A6CA"/>
</svg>
