<svg width="218" height="83" viewBox="0 0 218 83" fill="none" xmlns="http://www.w3.org/2000/svg">
<g clip-path="url(#clip0)">
<path d="M9.3402 76.2786V78.3244H2.33618V76.2786H4.67085V65.1729H2.33618V63.4194H9.04836V65.4652H7.00553V76.5708L9.3402 76.2786Z" fill="#77787B"/>
<path d="M18.6773 78.3242V72.1869C18.6773 70.7257 17.8018 69.8489 16.6345 69.5566H16.3426C14.8835 69.5566 13.7161 70.7257 13.7161 72.1869V72.4792V78.3242H11.3814V71.0179C11.3814 69.8489 11.3814 69.5566 10.2141 69.5566V68.0954C11.6733 67.8031 13.4243 67.8031 13.4243 69.8489C14.008 68.6799 15.4671 67.8031 16.9263 68.0954C18.9691 68.0954 21.012 69.5566 21.012 71.8947C21.012 72.1869 21.012 72.4792 21.012 72.4792V78.6165L18.6773 78.3242Z" fill="#77787B"/>
<path d="M24.5126 69.5569H22.4697V67.8034H24.5126V66.3421C24.5126 62.2506 27.7227 61.6661 30.9329 62.8351L30.6411 64.5886C28.8901 63.7119 26.8472 64.0041 26.8472 66.6344V68.0957H30.3492V69.8492H26.8472V78.3245H24.5126V69.5569Z" fill="#77787B"/>
<path d="M36.1874 78.3245C33.2691 78.3245 30.9344 76.2788 30.6426 73.3562C30.6426 73.064 30.6426 73.064 30.6426 72.7717C30.6426 69.8492 32.6854 67.5112 35.6038 67.5112C35.8956 67.5112 35.8956 67.5112 36.1874 67.5112C39.1058 67.2189 41.4404 69.2647 41.7323 72.1872C41.7323 72.4795 41.7323 72.4795 41.7323 72.7717C41.7323 75.6943 39.6894 78.0323 36.7711 78.3245C36.4793 78.3245 36.4793 78.3245 36.1874 78.3245ZM36.1874 76.2788C37.9384 76.2788 39.3976 74.8175 39.3976 73.064C39.3976 73.064 39.3976 73.064 39.3976 72.7717C39.3976 71.0182 38.2303 69.5569 36.4793 69.5569H36.1874C34.4364 69.5569 33.2691 70.726 33.2691 72.4795V72.7717C32.9772 74.8175 34.4364 76.2788 36.1874 76.2788Z" fill="#77787B"/>
<path d="M49.3185 67.511C50.194 67.511 51.0695 67.8033 51.6532 68.0955L51.0695 70.1413C50.4859 69.849 49.6104 69.5568 49.0267 69.5568C47.5675 69.5568 46.4002 70.4336 46.4002 71.6026V71.8948V77.7399H44.0655V70.4336C44.0655 69.5568 44.0655 68.9723 42.8982 68.9723V67.511C44.3574 67.2188 46.1084 67.511 46.1084 68.9723C46.692 68.0955 47.8594 67.511 49.3185 67.511Z" fill="#77787B"/>
<path d="M66.8315 78.3242V72.1869C66.8315 70.7257 66.2479 69.5566 64.7887 69.5566C63.3295 69.5566 62.454 70.7257 62.454 71.8947V72.1869V78.032H60.1194V72.1869C60.1194 70.7257 59.5357 69.5566 58.0765 69.5566C56.6173 69.5566 55.45 70.7257 55.45 72.1869C55.45 72.1869 55.45 72.1869 55.45 72.4792V78.3242H53.1153V71.0179C53.1153 69.8489 53.1153 69.5566 51.948 69.5566V68.0954C53.4072 67.8031 55.1582 67.8031 55.1582 69.8489C55.7418 68.6799 57.201 67.8031 58.6602 68.0954C60.4112 68.0954 61.2867 68.6799 61.8704 70.1411C62.7459 68.6799 64.205 68.0954 65.6642 68.0954C68.5825 68.0954 69.1662 70.1411 69.1662 72.4792V78.6165H66.8315V78.3242Z" fill="#77787B"/>
<path d="M74.7111 78.3239C72.3764 78.3239 70.9172 76.8626 70.9172 75.1091C70.9172 73.3556 72.3764 71.6021 75.0029 71.6021C76.1703 71.6021 77.0458 71.8943 77.9213 72.1866V71.0176C77.9213 68.3873 73.2519 69.264 72.0846 69.8485L71.7927 68.095C72.9601 67.5105 74.4192 67.2183 75.5866 67.2183C78.2131 67.2183 80.2559 68.095 80.2559 71.0176V75.1091C80.2559 75.9859 80.2559 76.5704 81.4233 76.5704V78.0316C79.6723 78.3239 78.5049 78.3239 78.5049 76.2781C77.6294 77.7394 76.1703 78.6161 74.7111 78.3239ZM75.2947 73.3556C74.4192 73.3556 73.2519 73.9401 73.2519 74.8169C73.2519 74.8169 73.2519 74.8169 73.2519 75.1091C73.2519 75.9859 73.8356 76.5704 75.2947 76.5704C76.7539 76.5704 78.2131 75.6936 78.2131 73.9401C77.3376 73.6478 76.1702 73.3556 75.2947 73.3556Z" fill="#77787B"/>
<path d="M86.383 67.8034H89.885V69.5569H86.383V74.233C86.383 75.9865 86.9666 76.571 88.134 76.571C88.7176 76.571 89.3013 76.571 90.1768 76.2787L90.4686 78.0323C89.5931 78.3245 88.7176 78.6168 87.8421 78.6168C85.5075 78.6168 84.0483 77.4477 84.0483 74.233V69.5569H81.7136V68.0956H83.7565L84.0483 64.8809H86.0911L86.383 67.8034Z" fill="#77787B"/>
<path d="M93.096 63.126C93.6797 63.126 94.5552 63.7105 94.5552 64.295C94.5552 65.1717 93.9715 65.7563 93.096 65.7563C92.2205 65.7563 91.6369 65.1717 91.6369 64.295C91.345 64.0027 91.9287 63.126 93.096 63.126C92.8042 63.126 92.8042 63.126 93.096 63.126ZM93.9715 78.3232H91.6369V68.0943H93.9715V78.3232Z" fill="#77787B"/>
<path d="M101.555 78.3231C98.637 78.3231 96.3023 76.2774 96.0105 73.3548V73.0626C96.0105 70.14 98.3452 67.5098 101.555 67.5098C104.474 67.5098 107.1 69.8478 107.1 73.0626C107.1 75.9851 105.057 78.3231 102.139 78.6154C101.847 78.3231 101.555 78.3231 101.555 78.3231ZM101.555 76.2774C103.306 76.2774 104.766 74.8161 104.766 73.0626C104.766 73.0626 104.766 73.0626 104.766 72.7703C104.766 71.0168 103.015 69.8478 101.555 69.8478C99.8043 69.8478 98.637 71.6013 98.637 73.0626C98.3452 75.1084 99.8043 76.2774 101.555 76.2774Z" fill="#77787B"/>
<path d="M116.737 78.3242V72.1869C116.737 71.0179 115.861 69.8489 114.694 69.5566H114.402C112.943 69.5566 111.775 70.7257 111.775 72.1869V72.4792V78.3242H109.441V71.0179C109.441 69.8489 109.441 69.5566 108.273 69.5566V68.0954C109.733 67.8031 111.484 67.8031 111.484 69.8489C112.359 68.6799 113.818 67.8031 115.277 68.0954C117.32 68.0954 119.363 69.8489 119.363 71.8947C119.363 72.1869 119.363 72.1869 119.363 72.4792V78.6165L116.737 78.3242Z" fill="#77787B"/>
<path d="M127.237 69.5569H125.194V67.8034H127.237V66.3421C127.237 62.2506 130.447 61.6661 133.657 62.8351L133.365 64.5886C131.614 63.7119 129.571 64.0041 129.571 66.6344V68.0957H133.073V69.8492H129.571V78.3245H127.237V69.5569Z" fill="#77787B"/>
<path d="M138.912 78.3239C135.993 78.3239 133.659 76.2781 133.367 73.3556C133.367 73.0633 133.367 73.0633 133.367 72.7711C133.367 69.8485 135.701 67.2183 138.912 67.2183C141.83 67.2183 144.456 69.5563 144.456 72.7711C144.456 75.6936 142.414 78.0316 139.495 78.3239C139.203 78.3239 139.203 78.3239 138.912 78.3239ZM138.912 76.2781C140.663 76.2781 142.122 74.8169 142.122 73.0633C142.122 73.0633 142.122 73.0633 142.122 72.7711C142.414 71.0176 140.954 69.5563 139.203 69.264C137.452 68.9718 135.993 70.4331 135.701 72.1866C135.701 72.4788 135.701 72.4788 135.701 72.7711C135.701 74.5246 136.869 75.9859 138.62 75.9859C138.62 76.2781 138.912 76.2781 138.912 76.2781Z" fill="#77787B"/>
<path d="M152.043 67.511C152.918 67.511 153.794 67.8033 154.377 68.0955L153.794 70.1413C153.21 69.849 152.334 69.5568 151.751 69.5568C150.583 69.5568 149.416 70.4336 149.124 71.6026V71.8948V77.7399H146.79V70.4336C146.79 69.5568 146.79 68.9723 145.622 68.9723V67.511C147.081 67.2188 148.832 67.511 148.832 68.9723C149.416 68.0955 150.583 67.511 152.043 67.511Z" fill="#77787B"/>
<path d="M166.932 62.8339C170.142 62.5417 172.769 64.5874 173.644 67.51H171.31C170.434 65.7565 168.683 64.8797 166.932 65.1719C164.014 65.4642 161.679 68.0945 161.971 71.017C162.263 73.6473 164.306 75.9853 166.932 75.9853C169.267 76.2776 171.31 74.8163 171.893 72.186V71.8938H167.224V70.1403H174.228C174.228 71.6015 174.228 73.0628 173.644 74.2318C172.477 76.8621 169.851 78.6156 166.932 78.6156C162.555 78.3234 159.344 74.8163 159.636 70.4325C159.928 66.341 163.138 63.1262 166.932 62.8339Z" fill="#77787B"/>
<path d="M180.94 78.3237C178.022 78.3237 175.687 76.2779 175.395 73.3554C175.395 73.0631 175.395 73.0631 175.395 72.7709C175.687 69.8483 178.314 67.5103 181.232 67.8025C183.858 68.0948 186.193 70.1406 186.193 72.7709C186.193 75.6934 184.15 78.0314 181.232 78.3237C181.232 78.3237 181.232 78.3237 180.94 78.3237ZM180.94 76.2779C182.691 76.2779 184.15 74.8166 184.15 73.0631C184.15 73.0631 184.15 73.0631 184.15 72.7709C184.15 71.0173 182.983 69.5561 181.232 69.5561H180.94C179.189 69.5561 178.022 70.7251 178.022 72.4786V72.7709C177.73 74.8166 179.189 76.2779 180.94 76.2779Z" fill="#77787B"/>
<path d="M193.196 78.3237C190.277 78.3237 187.943 76.2779 187.651 73.3554C187.651 73.0631 187.651 73.0631 187.651 72.7709C187.943 69.8483 190.569 67.5103 193.487 67.8025C196.114 68.0948 198.449 70.1406 198.449 72.7709C198.449 75.6934 196.406 78.0314 193.487 78.3237C193.487 78.3237 193.487 78.3237 193.196 78.3237ZM193.196 76.2779C194.947 76.2779 196.114 74.8166 196.114 73.0631C196.114 71.3096 194.655 69.8483 192.904 69.8483C191.153 69.8483 189.694 71.3096 189.694 73.0631C189.694 74.8166 190.861 76.2779 192.612 76.5702C192.904 76.2779 193.196 76.2779 193.196 76.2779Z" fill="#77787B"/>
<path d="M208.368 76.2777C207.785 77.739 206.325 78.6157 204.866 78.3235C202.24 78.3235 199.905 75.9854 200.197 73.3552C200.197 73.0629 200.197 73.0629 200.197 72.7706C199.905 70.1404 201.948 67.8023 204.866 67.5101H205.158C206.325 67.5101 207.201 67.8023 208.076 68.3868V62.2495H210.119V74.8164C210.119 75.9854 210.119 76.2777 211.287 76.2777V78.0312C209.536 78.3235 208.368 78.3235 208.368 76.2777ZM207.785 70.4326C206.909 69.8481 206.034 69.5559 205.158 69.5559C203.407 69.5559 202.24 70.7249 202.24 72.4784V72.7706C202.24 74.5242 203.115 75.9854 205.158 75.9854C206.617 75.9854 207.785 74.8164 207.785 73.3552C207.785 73.3552 207.785 73.3552 207.785 73.0629V70.4326Z" fill="#77787B"/>
<path d="M212.454 77.7386C212.454 78.0309 212.746 78.0309 213.037 78.0309C213.329 78.0309 213.621 78.0309 213.621 77.7386C213.621 77.4464 213.037 77.4464 213.037 77.4464C213.037 77.4464 212.454 77.4464 212.454 76.8618C212.454 76.2773 212.746 76.2773 213.037 76.2773C213.329 76.2773 213.621 76.2773 213.621 76.8618H213.329C213.329 76.5696 213.037 76.5696 213.037 76.5696C213.037 76.5696 212.746 76.5696 212.746 76.8618C212.746 77.1541 213.037 77.1541 213.329 77.1541C213.621 77.1541 213.913 77.1541 213.913 77.7386C213.913 78.3231 213.621 78.3231 213.037 78.3231C212.746 78.3231 212.454 78.0309 212.162 77.7386H212.454Z" fill="#77787B"/>
<path d="M215.662 76.5708V78.3243H215.37V77.1553L214.787 77.7398L214.495 77.1553V78.3243H214.203V76.5708L215.079 77.4476L215.662 76.5708Z" fill="#77787B"/>
<path d="M112.548 -1C101.162 -1 90.488 5.17607 84.7952 15.1528C82.6604 18.0033 82.4232 21.8039 84.0836 25.1295C85.9812 28.2176 90.0136 28.6926 92.3856 28.6926H96.418L94.9948 33.4435C94.046 36.0564 94.2832 38.9069 95.9436 41.2823C97.3668 43.1826 99.976 44.3703 102.348 44.3703C104.246 44.3703 106.38 43.8953 108.041 43.1826C107.566 42.47 107.092 41.7574 106.855 40.8072C106.618 40.0946 106.38 39.1444 106.38 38.4318C105.194 38.9069 104.008 39.1444 102.585 39.1444C101.636 39.1444 100.925 38.6694 100.213 38.1943C99.7388 37.2441 99.5016 36.0564 99.976 35.1062L102.111 28.9302H108.515L110.176 23.7043H103.771L106.618 15.1528H101.162L98.3156 23.4667H92.6228C90.7252 23.4667 89.5392 22.9916 89.0648 22.0415C88.5904 21.0913 89.0648 18.7159 90.488 16.103C98.5528 3.75082 115.157 0.425246 127.491 8.73918C139.826 17.0531 143.146 33.681 134.844 46.0331C126.542 58.3853 109.938 61.7108 97.604 53.3969C91.674 49.3587 87.6416 43.1826 86.2184 36.0564L81 37.0066C84.3208 54.3471 101.162 65.749 118.478 62.4235C135.793 59.0979 147.179 42.2325 143.858 24.892C141.012 9.92689 127.966 -1 112.548 -1Z" fill="#FCD800"/>
<path d="M132.948 39.8566C131.525 39.8566 130.102 39.6191 128.916 38.9065C128.441 38.4314 127.967 37.9563 127.73 37.2437C127.73 36.7686 127.73 36.2935 127.967 35.8184L131.999 23.4663H126.544L123.223 34.1557C122.274 37.0062 119.665 38.9065 116.819 39.144C116.107 39.144 115.395 38.9065 114.921 38.1939C114.447 37.4812 114.447 36.5311 114.684 35.8184L118.716 23.4663H113.261L109.94 34.1557C108.991 36.5311 109.465 39.3816 110.651 41.5194C112.075 43.4198 114.447 44.6075 116.819 44.3699C119.665 44.3699 122.274 43.1822 124.409 41.5194C125.121 42.7071 126.069 43.4198 127.255 43.8948C128.679 44.3699 130.102 44.6075 131.525 44.3699C131.999 44.3699 132.474 44.3699 133.185 44.1324L133.423 43.6573L133.897 42.7071C134.134 42.4696 134.371 41.9945 134.371 41.757L134.846 40.5693L135.083 39.8566C134.609 39.6191 133.897 39.8566 132.948 39.8566Z" fill="#FCD800"/>
</g>
<defs>
<clipPath id="clip0">
<rect width="218" height="83" fill="white"/>
</clipPath>
</defs>
</svg>
