<svg width="35" height="35" viewBox="0 0 35 35" fill="none" xmlns="http://www.w3.org/2000/svg">
<circle cx="17.5" cy="17.5" r="17.5" fill="#FCD800"/>
<path fill-rule="evenodd" clip-rule="evenodd" d="M17.165 7.1591C17.0534 7.24842 16.5367 8.11601 16.0166 9.08721C15.4966 10.0583 15.0248 10.871 14.968 10.8931C14.9113 10.9153 14.0521 10.6911 13.0587 10.3951C12.0653 10.099 11.103 9.85682 10.9203 9.85682C10.4726 9.85682 10.1186 10.199 10.1186 10.6317C10.1186 10.795 10.4862 12.1946 10.9353 13.7417L11.7521 16.5546L12.3206 16.2382C12.7521 15.9982 12.9261 15.8476 13.0425 15.6138L13.1957 15.3058L12.7421 13.7109C12.4925 12.8338 12.3041 12.1001 12.3233 12.0805C12.3426 12.061 12.9913 12.2329 13.7651 12.4627C15.3491 12.933 15.7379 12.9736 16.0047 12.6965C16.1021 12.5954 16.507 11.8973 16.9045 11.1452C17.302 10.3931 17.6453 9.77812 17.6674 9.77853C17.6895 9.77894 18.0489 10.4248 18.4663 11.2139C18.8836 12.0029 19.2982 12.7007 19.3876 12.7645C19.6628 12.9606 20.1197 12.8968 21.5724 12.4595C22.3412 12.2281 22.987 12.0557 23.0074 12.0765C23.0279 12.0972 22.8418 12.829 22.594 13.7027C21.9946 15.8158 21.9106 15.6157 23.853 16.7021C25.2407 17.4785 25.3072 17.5266 25.1262 17.6246C23.8204 18.3322 22.5711 19.0577 22.4297 19.1905C22.1038 19.4969 22.1218 19.7235 22.6046 21.3877C22.8537 22.2464 23.0456 22.9611 23.031 22.976C23.0164 22.9907 22.3223 22.7999 21.4887 22.5518C19.8596 22.0669 19.5965 22.0465 19.2957 22.3811C19.2054 22.4816 18.8118 23.1614 18.4208 23.8917C18.0299 24.6221 17.6884 25.2196 17.6619 25.2196C17.6354 25.2196 17.2829 24.6005 16.8785 23.8439C16.4742 23.0872 16.0752 22.4053 15.9918 22.3286C15.6907 22.0512 15.3661 22.0851 13.8154 22.5554C12.9998 22.8027 12.3205 22.9929 12.3058 22.9781C12.2912 22.9632 12.4808 22.2425 12.7271 21.3767C13.1152 20.0122 13.1635 19.7672 13.0893 19.5382C13.0422 19.3929 12.9417 19.2187 12.866 19.151C12.7078 19.0096 7.8604 16.2927 7.83125 16.3292C7.82057 16.3424 7.62928 16.6927 7.40595 17.1074L7 17.8615L8.33846 18.6093C9.07463 19.0207 10.0271 19.5555 10.455 19.7978L11.2332 20.2385L11.122 20.6248C11.0608 20.8373 10.81 21.7057 10.5646 22.5546C10.3193 23.4036 10.1186 24.2052 10.1186 24.336C10.1186 24.8259 10.4838 25.2196 10.9383 25.2196C11.0316 25.2196 11.9755 24.9609 13.0358 24.6448C14.0961 24.3286 14.9893 24.0988 15.0207 24.134C15.052 24.1693 15.5007 24.9887 16.0177 25.955C16.5347 26.9213 17.031 27.7763 17.1207 27.8549C17.3411 28.0484 17.9938 28.0484 18.2137 27.8549C18.3031 27.7763 18.7981 26.9213 19.3137 25.955C19.8292 24.9887 20.2774 24.1699 20.3096 24.1355C20.3419 24.1011 21.2331 24.3308 22.2903 24.646C23.3475 24.9612 24.2919 25.2192 24.3893 25.2193C24.8482 25.22 25.2162 24.8295 25.2162 24.3418C25.2162 24.2143 24.965 23.2472 24.6579 22.1928C24.1528 20.4585 24.112 20.2661 24.23 20.1747C24.3017 20.1191 25.135 19.6455 26.0816 19.1222C27.6298 18.2664 27.8148 18.1416 27.9214 17.8821C28.0686 17.5237 28.005 17.1298 27.7647 16.9097C27.666 16.8193 26.8082 16.3137 25.8586 15.7862C24.909 15.2586 24.1247 14.8197 24.1157 14.8109C24.1067 14.802 24.3507 13.9221 24.6578 12.8555C24.9649 11.7888 25.2162 10.7853 25.2162 10.6254C25.2162 10.1914 24.8595 9.85641 24.3992 9.85796C24.2081 9.85862 23.2573 10.0976 22.2862 10.3891C21.3151 10.6806 20.4659 10.9182 20.399 10.9171C20.3238 10.9158 19.9143 10.2299 19.3256 9.11867C18.8021 8.13071 18.2823 7.24915 18.1704 7.15959C17.9049 6.94697 17.4303 6.9468 17.165 7.1591Z" fill="black"/>
<ellipse cx="15.8225" cy="16.5089" rx="0.883368" ry="0.898885" fill="black"/>
<ellipse cx="18.9946" cy="19.7397" rx="0.883368" ry="0.898884" fill="black"/>
<rect width="7.8655" height="1.25168" transform="matrix(0.765522 -0.643409 0.630227 0.776411 14.1418 20.1376)" fill="black"/>
</svg>
