<svg width="35" height="35" viewBox="0 0 35 35" fill="none" xmlns="http://www.w3.org/2000/svg">
<circle cx="17.5" cy="17.5" r="17.5" fill="#FCD800"/>
<path fill-rule="evenodd" clip-rule="evenodd" d="M15.6649 7.07617C13.7145 7.67844 12.1232 9.35958 11.5509 11.4221C11.4245 11.8777 11.3907 12.4817 11.3587 14.8541L11.32 17.7332H12.2996H13.2792L13.2813 15.1305C13.2826 13.699 13.3237 12.3458 13.373 12.1235C13.7326 10.4969 15.1303 9.15431 16.7685 8.86179C18.633 8.52873 20.5591 9.76183 21.2565 11.7348C21.4225 12.2044 21.4441 12.5318 21.4945 15.3378C21.5472 18.2679 21.5602 18.4499 21.7509 18.9309C21.8615 19.2096 21.9889 19.4771 22.0341 19.5252C22.3386 19.8501 22.2929 19.8523 15.1791 19.8523H8.24219V20.8185V21.7846L11.1804 21.8089L14.1187 21.8331L14.1725 23.2612C14.2021 24.0466 14.2728 24.8416 14.3296 25.0279C14.4928 25.5637 15.088 26.4195 15.5255 26.747C16.2936 27.3222 16.6785 27.4494 17.6553 27.4514C18.4745 27.4531 18.5838 27.4312 19.1134 27.159C20.0939 26.6552 20.743 25.8414 21.0069 24.785C21.2383 23.8585 21.2829 23.9061 20.1818 23.9061H19.2196L19.1612 24.2305C19.0952 24.5973 18.6777 25.1392 18.3075 25.3388C17.6615 25.6872 16.7069 25.3719 16.3193 24.6821C16.1232 24.3333 16.107 24.2085 16.107 23.0458V21.787H21.1762H26.2453L26.4761 21.5464C26.7795 21.2301 26.8567 20.7874 26.6731 20.4171C26.4837 20.0353 26.2312 19.8849 25.673 19.8215C24.7416 19.7157 23.9618 19.1452 23.5857 18.2942C23.4112 17.8997 23.3953 17.6684 23.3471 14.831C23.2912 11.5357 23.2697 11.3759 22.7343 10.2698C21.959 8.66822 20.439 7.39698 18.8247 7.00016C17.9711 6.79038 16.4739 6.8264 15.6649 7.07617Z" fill="black"/>
</svg>
