<svg width="56" height="56" viewBox="0 0 56 56" fill="none" xmlns="http://www.w3.org/2000/svg">
<circle cx="18.5" cy="18.5" r="18.5" fill="#EDEDED"/>
<circle cx="32" cy="32" r="24" fill="white"/>
<path fill-rule="evenodd" clip-rule="evenodd" d="M29.7126 8.04889C29.5256 8.08074 28.9135 8.17182 28.3524 8.25119C21.8779 9.16714 15.7659 13.0794 12.0272 18.7013C7.30517 25.8014 6.69364 34.8296 10.4151 42.4989C13.7851 49.4443 20.2289 54.2904 27.9643 55.6972C29.5774 55.9905 32.8939 56.0936 34.6306 55.9042C37.308 55.6125 40.405 54.7009 42.7706 53.5086C44.8764 52.4472 47.1229 50.9103 47.1229 50.5312C47.1229 50.2405 44.2116 47.4505 43.9083 47.4505C43.751 47.4505 43.1116 47.7907 42.4874 48.2066C40.4265 49.5793 38.3296 50.4434 35.6974 51.0048C33.7004 51.4307 30.6763 51.4345 28.5456 51.0138C25.8237 50.4763 23.3224 49.4587 21.0755 47.9746C19.4026 46.8697 16.9091 44.2975 15.7806 42.5126C13.2267 38.4732 12.232 33.8007 12.9277 29.113C13.2421 26.9949 13.6919 25.5625 14.6719 23.5579C16.6193 19.5749 19.4948 16.7025 23.6069 14.6332C24.8704 13.9974 27.1628 13.2193 28.4014 13.0059C28.8607 12.9268 29.4048 12.8285 29.6106 12.7876L29.9847 12.7132V15.1038V17.4945L29.6106 17.5709C26.2793 18.2513 23.347 19.8319 21.3361 22.0313C15.4759 28.4402 16.3432 38.4629 23.2055 43.6384C29.5259 48.4054 38.4657 47.298 43.3895 41.1384C45.4668 38.5397 46.5788 35.353 46.5788 31.9986C46.5788 26.9725 44.1372 22.4905 39.8858 19.7127C38.3276 18.6945 36.7352 18.0731 34.3712 17.5608C34.0685 17.4952 34.0652 17.4698 34.0652 15.1828C34.0652 12.5272 33.9133 12.749 35.5507 13.0149C37.8699 13.3914 41.0699 14.7579 43.2155 16.2877C44.4185 17.1452 46.4519 19.0931 47.3268 20.2258C49.8472 23.4891 51.346 27.9386 51.3367 32.1312C51.329 35.6832 50.0925 39.8479 48.3969 42.0332C48.0653 42.4607 47.7024 43.0296 47.5904 43.2977C47.4073 43.7365 47.4094 43.832 47.6114 44.2581C47.8629 44.7885 50.2411 47.0421 50.5495 47.0421C50.8338 47.0421 51.1994 46.6057 52.1465 45.1361C55.043 40.6417 56.3 35.7467 55.9399 30.3649C55.2017 19.3354 47.0773 10.3016 36.1055 8.31055C34.882 8.0885 30.5249 7.91016 29.7126 8.04889ZM29.9847 24.4401V27.2962L29.4746 27.558C27.693 28.472 26.5845 30.8531 26.9844 32.9067C27.8025 37.1075 32.9309 38.5548 35.8132 35.3984C37.9646 33.0424 37.3948 29.229 34.6512 27.6195L34.0652 27.2759V24.4422V21.6086L34.7113 21.7816C37.7879 22.6059 40.2237 24.6548 41.5711 27.5519C42.2962 29.1111 42.4942 30.0653 42.4942 31.9986C42.4942 33.9319 42.2962 34.8861 41.5711 36.4453C39.8094 40.2333 36.1671 42.5549 31.9981 42.5471C27.8477 42.5394 24.2459 40.2536 22.5046 36.5224C21.7104 34.8207 21.5044 33.8886 21.5044 31.9986C21.5044 30.0511 21.718 29.125 22.5722 27.3699C24.0391 24.3564 26.3605 22.5388 29.9507 21.5929C29.9694 21.588 29.9847 22.8692 29.9847 24.4401Z" fill="#00A6CA"/>
</svg>
