<svg width="50" height="50" viewBox="0 0 50 50" fill="none" xmlns="http://www.w3.org/2000/svg">
<circle cx="25" cy="25" r="25" fill="#00A6CA"/>
<path fill-rule="evenodd" clip-rule="evenodd" d="M22.3484 10.3016C19.5415 11.1548 17.2513 13.5364 16.4277 16.4584C16.2459 17.1037 16.1972 17.9594 16.1511 21.3203L16.0954 25.3991H17.5052H18.9151L18.9181 21.7119C18.9199 19.684 18.9792 17.7669 19.05 17.4519C19.5676 15.1476 21.579 13.2456 23.9367 12.8312C26.62 12.3594 29.392 14.1063 30.3956 16.9014C30.6345 17.5667 30.6656 18.0304 30.7381 22.0055C30.8139 26.1565 30.8326 26.4144 31.1072 27.0959C31.2663 27.4907 31.4497 27.8696 31.5147 27.9377C31.9529 28.3979 31.8872 28.4011 21.6493 28.4011H11.666V29.7698V31.1385L15.8946 31.1729L20.1232 31.2073L20.2007 33.2303C20.2433 34.343 20.345 35.4693 20.4267 35.7332C20.6616 36.4923 21.5182 37.7046 22.1479 38.1686C23.2533 38.9834 23.8071 39.1637 25.213 39.1666C26.3919 39.1689 26.5492 39.1378 27.3114 38.7523C28.7225 38.0386 29.6566 36.8857 30.0364 35.3891C30.3694 34.0766 30.4337 34.144 28.8489 34.144H27.4642L27.3802 34.6035C27.2852 35.1231 26.6844 35.8909 26.1515 36.1737C25.2219 36.6672 23.8481 36.2206 23.2902 35.2434C23.008 34.7492 22.9847 34.5723 22.9847 32.9252V31.142H30.28H37.5752L37.9074 30.8011C38.344 30.353 38.4552 29.7258 38.1909 29.2013C37.9184 28.6604 37.5549 28.4473 36.7516 28.3575C35.4112 28.2076 34.289 27.3994 33.7476 26.1938C33.4966 25.6349 33.4737 25.3072 33.4044 21.2877C33.3239 16.6193 33.293 16.3929 32.5224 14.826C31.4066 12.557 29.2191 10.7561 26.8959 10.1939C25.6675 9.89672 23.5127 9.94775 22.3484 10.3016Z" fill="white"/>
</svg>
