<svg width="35" height="38" viewBox="0 0 35 38" fill="none" xmlns="http://www.w3.org/2000/svg">
<circle cx="17.4888" cy="19.0784" r="9.59916" fill="#FCD800" stroke="#006685" stroke-width="2"/>
<path d="M13.249 27.5576V32.0369C13.249 34.2461 15.0399 36.0369 17.249 36.0369H17.7284C19.9375 36.0369 21.7284 34.2461 21.7284 32.0369V27.5576" stroke="#006685" stroke-width="2"/>
<path fill-rule="evenodd" clip-rule="evenodd" d="M16.4287 4.27881C16.4287 4.85125 16.9162 5.29958 17.4886 5.29958C18.0611 5.29958 18.5485 4.85125 18.5485 4.27881V1.05992C18.5485 0.47454 18.074 0 17.4886 0C16.9032 0 16.4287 0.474541 16.4287 1.05992V4.27881ZM23.9812 5.73585C23.6954 6.23089 23.895 6.86286 24.3895 7.14956C24.8851 7.43689 25.5305 7.29206 25.817 6.79592L27.6808 3.56771C27.9735 3.06075 27.7998 2.41252 27.2928 2.11983C26.7859 1.82714 26.1377 2.00084 25.845 2.50779L23.9812 5.73585ZM29.4185 10.1719C28.9057 10.468 28.7712 11.1448 29.0912 11.643C29.3897 12.1079 29.9998 12.2841 30.4782 12.0079L34.0821 9.9272C34.589 9.63451 34.7627 8.98628 34.47 8.47933C34.1774 7.97238 33.5291 7.79868 33.0222 8.09137L29.4185 10.1719ZM5.89178 11.6342C5.59308 12.0985 4.98333 12.2744 4.50518 11.9983L0.917914 9.9272C0.410964 9.63451 0.23727 8.98628 0.529958 8.47933C0.822646 7.97238 1.47088 7.79868 1.97783 8.09137L5.56487 10.1623C6.07799 10.4586 6.21232 11.1359 5.89178 11.6342ZM11.1954 5.6223C11.4845 6.12297 11.2767 6.76233 10.7722 7.04454C10.2779 7.32101 9.64291 7.17297 9.35973 6.68248L7.56141 3.5677C7.26873 3.06075 7.44242 2.41252 7.94937 2.11983C8.45632 1.82714 9.10455 2.00084 9.39724 2.50779L11.1954 5.6223Z" fill="#006685"/>
</svg>
