<svg width="50" height="50" viewBox="0 0 50 50" fill="none" xmlns="http://www.w3.org/2000/svg">
<circle cx="25" cy="25" r="25" fill="#00A6CA"/>
<path fill-rule="evenodd" clip-rule="evenodd" d="M24.9248 10.2273C24.7609 10.3549 24.0023 11.5943 23.2387 12.9817C22.4751 14.369 21.7824 15.53 21.699 15.5616C21.6158 15.5933 20.3543 15.2731 18.8957 14.8501C17.4372 14.4272 16.0243 14.0812 15.756 14.0812C15.0987 14.0812 14.5789 14.57 14.5789 15.1881C14.5789 15.4214 15.1186 17.4208 15.7781 19.631L16.9773 23.6495L17.812 23.1975C18.4455 22.8545 18.701 22.6394 18.8719 22.3054L19.0969 21.8654L18.4308 19.587C18.0644 18.3339 17.7878 17.2859 17.816 17.2578C17.8443 17.2299 18.7968 17.4756 19.9328 17.8038C22.2586 18.4757 22.8294 18.5337 23.2211 18.1378C23.3641 17.9934 23.9586 16.9961 24.5423 15.9217C25.126 14.8473 25.63 13.9687 25.6624 13.9693C25.6949 13.9699 26.2226 14.8926 26.8354 16.0198C27.4481 17.1471 28.0568 18.1439 28.1881 18.2349C28.5921 18.5151 29.2631 18.4239 31.3959 17.7993C32.5248 17.4687 33.473 17.2224 33.503 17.2521C33.533 17.2818 33.2598 18.3272 32.896 19.5752C32.0159 22.594 31.8926 22.3082 34.7445 23.8602C36.7821 24.9692 36.8797 25.038 36.6138 25.1781C34.6966 26.1888 32.8623 27.2253 32.6547 27.415C32.1763 27.8528 32.2027 28.1764 32.9115 30.5539C33.2773 31.7806 33.559 32.8015 33.5376 32.8228C33.5162 32.8439 32.4971 32.5712 31.2731 32.2168C28.8811 31.5242 28.4949 31.495 28.0532 31.9731C27.9207 32.1165 27.3427 33.0877 26.7687 34.131C26.1947 35.1744 25.6932 36.028 25.6544 36.028C25.6155 36.028 25.0979 35.1435 24.5042 34.0627C23.9105 32.9818 23.3246 32.0076 23.2023 31.898C22.7601 31.5018 22.2835 31.5501 20.0068 32.2219C18.8092 32.5753 17.8119 32.8471 17.7903 32.8258C17.7688 32.8046 18.0472 31.7751 18.4089 30.5381C18.9787 28.5889 19.0496 28.2388 18.9406 27.9117C18.8714 27.7042 18.7239 27.4553 18.6128 27.3586C18.3806 27.1565 11.2633 23.2754 11.2205 23.3274C11.2048 23.3463 10.9239 23.8467 10.596 24.4391L10 25.5164L11.9652 26.5848C13.0461 27.1724 14.4445 27.9365 15.0728 28.2826L16.2154 28.9122L16.0521 29.464C15.9622 29.7676 15.594 31.0082 15.2338 32.2209C14.8736 33.4337 14.5789 34.5789 14.5789 34.7658C14.5789 35.4656 15.1152 36.028 15.7824 36.028C15.9194 36.028 17.3052 35.6585 18.8621 35.2068C20.4189 34.7552 21.7303 34.4269 21.7764 34.4772C21.8224 34.5275 22.4811 35.6982 23.2402 37.0786C23.9993 38.459 24.7281 39.6805 24.8597 39.7928C25.1834 40.0691 26.1417 40.0691 26.4646 39.7928C26.5958 39.6805 27.3226 38.459 28.0796 37.0786C28.8366 35.6982 29.4946 34.5285 29.5419 34.4793C29.5893 34.4302 30.8979 34.7583 32.45 35.2086C34.0022 35.6588 35.3889 36.0274 35.5319 36.0276C36.2057 36.0285 36.746 35.4708 36.746 34.7741C36.746 34.5918 36.3772 33.2102 35.9263 31.704C35.1847 29.2264 35.1248 28.9515 35.298 28.821C35.4033 28.7416 36.6268 28.065 38.0167 27.3174C40.2898 26.0948 40.5614 25.9166 40.7179 25.5458C40.934 25.0339 40.8407 24.4711 40.4878 24.1567C40.3429 24.0276 39.0835 23.3054 37.6893 22.5517C36.295 21.798 35.1435 21.171 35.1303 21.1584C35.117 21.1457 35.4753 19.8887 35.9261 18.365C36.377 16.8412 36.746 15.4075 36.746 15.1791C36.746 14.5592 36.2222 14.0806 35.5465 14.0828C35.2658 14.0837 33.8698 14.4252 32.444 14.8416C31.0183 15.258 29.7714 15.5975 29.6731 15.5958C29.5627 15.594 28.9614 14.6141 28.0972 13.0267C27.3285 11.6153 26.5653 10.3559 26.401 10.228C26.0111 9.92424 25.3143 9.924 24.9248 10.2273Z" fill="white"/>
<ellipse cx="22.9542" cy="23.5839" rx="1.29701" ry="1.28412" fill="white"/>
<ellipse cx="27.6115" cy="28.1992" rx="1.29701" ry="1.28412" fill="white"/>
<rect width="11.4204" height="1.80801" transform="matrix(0.774114 -0.633046 0.640607 0.767869 20.4863 28.7676)" fill="white"/>
</svg>
