<svg width="112" height="29" viewBox="0 0 112 29" fill="none" xmlns="http://www.w3.org/2000/svg">
<path d="M0 0H112V24C112 26.7614 109.761 29 107 29H5C2.23858 29 0 26.7614 0 24V0Z" fill="#FCD800"/>
<path d="M14.81 14.24L10.82 9.172H10.218V19H11.856V12.868L14.698 16.494H14.922L17.75 12.868V19H19.388V9.172H18.786L14.81 14.24ZM28.1707 15.598C28.1707 13.232 26.3507 12.056 24.5447 12.084C22.7807 12.112 21.0447 13.274 21.0447 15.598C21.0447 17.95 22.8227 19.126 24.6007 19.126C26.3787 19.126 28.1707 17.95 28.1707 15.598ZM22.5567 15.598C22.5567 14.17 23.5367 13.456 24.5447 13.428C25.5807 13.4 26.6447 14.128 26.6447 15.598C26.6447 17.04 25.6367 17.768 24.6287 17.782C23.5927 17.796 22.5567 17.068 22.5567 15.598ZM29.2602 17.012C29.3722 18.692 30.8562 19.168 32.3542 19.168C33.8522 19.168 35.2942 18.524 35.2942 17.026C35.2942 15.43 33.9222 15.192 32.5082 15.01C31.4582 14.884 30.9122 14.758 30.8982 14.198C30.8562 13.596 31.5842 13.26 32.2842 13.26C32.9982 13.26 33.8102 13.47 33.8102 14.142H35.1542C35.1962 12.798 33.8382 12.112 32.2842 12.112C30.8142 12.112 29.4142 12.784 29.4142 14.226C29.4562 15.752 31.0102 15.906 32.3962 16.088C33.2782 16.2 33.9082 16.382 33.9082 16.998C33.8662 17.824 33.0402 18.034 32.2982 18.034C31.5702 18.034 30.8002 17.712 30.7582 17.012H29.2602ZM39.0156 10.18H37.6716L37.5176 12.266H36.1456V13.26L37.5176 13.358V16.424C37.5176 19.07 39.3236 19.602 41.6336 18.888L41.4796 17.74C40.0936 18.23 39.0156 18.118 39.0156 16.396V13.358H41.3536V12.266H39.0156V10.18ZM48.2642 19V16.06H50.6862C52.8422 16.06 54.1442 14.492 54.1442 12.658C54.1442 10.796 52.8702 9.2 50.6862 9.2H46.6262V19H48.2642ZM48.2362 14.632V10.614H50.6862C51.8202 10.614 52.5762 11.482 52.5762 12.616C52.5762 13.75 51.7922 14.632 50.6862 14.632H48.2362ZM62.0906 15.598C62.0906 13.232 60.2706 12.056 58.4646 12.084C56.7006 12.112 54.9646 13.274 54.9646 15.598C54.9646 17.95 56.7426 19.126 58.5206 19.126C60.2986 19.126 62.0906 17.95 62.0906 15.598ZM56.4766 15.598C56.4766 14.17 57.4566 13.456 58.4646 13.428C59.5006 13.4 60.5646 14.128 60.5646 15.598C60.5646 17.04 59.5566 17.768 58.5486 17.782C57.5126 17.796 56.4766 17.068 56.4766 15.598ZM65.1261 13.344C65.1261 12.154 64.2721 11.972 63.1521 12.196L63.1661 13.246C63.9501 13.246 63.8801 13.624 63.8801 14.408V22.472H65.4061V18.538C65.9661 18.874 66.5541 19.042 67.1141 19.07C68.9201 19.154 70.4881 17.754 70.4881 15.584C70.4881 13.736 69.4241 12.07 67.4361 12.07C66.4701 12.07 65.5181 12.406 65.1261 13.344ZM65.3781 15.304C65.3781 14.296 66.0781 13.428 67.1281 13.428C68.3461 13.428 68.9481 14.464 68.9481 15.584C68.9481 16.956 68.1221 17.698 67.1001 17.74C66.5541 17.768 65.9381 17.586 65.3781 17.194V15.304ZM76.6706 12.252V16.116C76.6706 17.194 75.9286 17.894 74.9626 17.894C74.0666 17.894 73.4926 17.236 73.5066 16.158V12.252H71.9666V16.158C71.9666 17.81 72.6246 19.112 74.4866 19.112C75.4386 19.112 76.3626 18.818 76.8246 17.908C76.8246 19.364 78.0566 19.182 78.9246 19.028L78.9106 18.034C78.2666 18.104 78.1966 17.88 78.1966 17.068V12.252H76.6706ZM80.3342 8.752V16.592C80.3342 18.846 81.2862 19.378 83.3582 19.042L83.3022 17.866C82.1402 18.048 81.8462 17.698 81.8462 16.578V8.752H80.3342ZM88.8194 17.866C88.8614 19.196 89.6874 19.196 90.7514 19.014L90.7234 18.146C89.9954 18.216 90.0234 17.81 90.0234 17.18V14.52C90.0234 12.658 88.5674 12.084 86.9294 12.084C86.0334 12.084 85.1234 12.266 84.4374 12.616L84.6614 13.708C85.5014 13.288 88.5394 12.7 88.5394 14.478V15.15C87.9374 14.814 87.1954 14.646 86.5374 14.646C85.0534 14.646 83.8774 15.416 83.9194 17.026C83.9194 18.342 85.1094 19.126 86.3414 19.126C87.2934 19.126 88.3714 18.762 88.8194 17.866ZM88.5394 16.69C88.3854 17.544 87.4474 17.922 86.6494 17.922C86.0334 17.922 85.4174 17.614 85.4174 16.942C85.4174 16.116 86.0474 15.682 86.7894 15.668C87.3914 15.654 88.0354 15.836 88.5394 16.13V16.69ZM93.773 13.232C93.703 12.14 92.611 11.972 91.617 12.196L91.631 13.232C92.359 13.19 92.359 13.498 92.359 14.1V19H93.871V15.094C93.871 14.002 94.683 13.414 95.593 13.414C96.083 13.414 96.531 13.554 96.937 13.82L97.315 12.504C96.881 12.182 96.321 12.014 95.761 12.028C94.935 12.028 94.039 12.448 93.773 13.232Z" fill="#2C2C2C"/>
</svg>
