<svg width="127" height="30" viewBox="0 0 127 30" fill="none" xmlns="http://www.w3.org/2000/svg">
<path d="M0 0H127V30H0V0Z" fill="#FCD800"/>
<path d="M24.81 15.24L20.82 10.172H20.218V20H21.856V13.868L24.698 17.494H24.922L27.75 13.868V20H29.388V10.172H28.786L24.81 15.24ZM38.1707 16.598C38.1707 14.232 36.3507 13.056 34.5447 13.084C32.7807 13.112 31.0447 14.274 31.0447 16.598C31.0447 18.95 32.8227 20.126 34.6007 20.126C36.3787 20.126 38.1707 18.95 38.1707 16.598ZM32.5567 16.598C32.5567 15.17 33.5367 14.456 34.5447 14.428C35.5807 14.4 36.6447 15.128 36.6447 16.598C36.6447 18.04 35.6367 18.768 34.6287 18.782C33.5927 18.796 32.5567 18.068 32.5567 16.598ZM39.2602 18.012C39.3722 19.692 40.8562 20.168 42.3542 20.168C43.8522 20.168 45.2942 19.524 45.2942 18.026C45.2942 16.43 43.9222 16.192 42.5082 16.01C41.4582 15.884 40.9122 15.758 40.8982 15.198C40.8562 14.596 41.5842 14.26 42.2842 14.26C42.9982 14.26 43.8102 14.47 43.8102 15.142H45.1542C45.1962 13.798 43.8382 13.112 42.2842 13.112C40.8142 13.112 39.4142 13.784 39.4142 15.226C39.4562 16.752 41.0102 16.906 42.3962 17.088C43.2782 17.2 43.9082 17.382 43.9082 17.998C43.8662 18.824 43.0402 19.034 42.2982 19.034C41.5702 19.034 40.8002 18.712 40.7582 18.012H39.2602ZM49.0156 11.18H47.6716L47.5176 13.266H46.1456V14.26L47.5176 14.358V17.424C47.5176 20.07 49.3236 20.602 51.6336 19.888L51.4796 18.74C50.0936 19.23 49.0156 19.118 49.0156 17.396V14.358H51.3536V13.266H49.0156V11.18ZM58.2642 20V17.06H60.6862C62.8422 17.06 64.1442 15.492 64.1442 13.658C64.1442 11.796 62.8702 10.2 60.6862 10.2H56.6262V20H58.2642ZM58.2362 15.632V11.614H60.6862C61.8202 11.614 62.5762 12.482 62.5762 13.616C62.5762 14.75 61.7922 15.632 60.6862 15.632H58.2362ZM72.0906 16.598C72.0906 14.232 70.2706 13.056 68.4646 13.084C66.7006 13.112 64.9646 14.274 64.9646 16.598C64.9646 18.95 66.7426 20.126 68.5206 20.126C70.2986 20.126 72.0906 18.95 72.0906 16.598ZM66.4766 16.598C66.4766 15.17 67.4566 14.456 68.4646 14.428C69.5006 14.4 70.5646 15.128 70.5646 16.598C70.5646 18.04 69.5566 18.768 68.5486 18.782C67.5126 18.796 66.4766 18.068 66.4766 16.598ZM75.1261 14.344C75.1261 13.154 74.2721 12.972 73.1521 13.196L73.1661 14.246C73.9501 14.246 73.8801 14.624 73.8801 15.408V23.472H75.4061V19.538C75.9661 19.874 76.5541 20.042 77.1141 20.07C78.9201 20.154 80.4881 18.754 80.4881 16.584C80.4881 14.736 79.4241 13.07 77.4361 13.07C76.4701 13.07 75.5181 13.406 75.1261 14.344ZM75.3781 16.304C75.3781 15.296 76.0781 14.428 77.1281 14.428C78.3461 14.428 78.9481 15.464 78.9481 16.584C78.9481 17.956 78.1221 18.698 77.1001 18.74C76.5541 18.768 75.9381 18.586 75.3781 18.194V16.304ZM86.6706 13.252V17.116C86.6706 18.194 85.9286 18.894 84.9626 18.894C84.0666 18.894 83.4926 18.236 83.5066 17.158V13.252H81.9666V17.158C81.9666 18.81 82.6246 20.112 84.4866 20.112C85.4386 20.112 86.3626 19.818 86.8246 18.908C86.8246 20.364 88.0566 20.182 88.9246 20.028L88.9106 19.034C88.2666 19.104 88.1966 18.88 88.1966 18.068V13.252H86.6706ZM90.3342 9.752V17.592C90.3342 19.846 91.2862 20.378 93.3582 20.042L93.3022 18.866C92.1402 19.048 91.8462 18.698 91.8462 17.578V9.752H90.3342ZM98.8194 18.866C98.8614 20.196 99.6874 20.196 100.751 20.014L100.723 19.146C99.9954 19.216 100.023 18.81 100.023 18.18V15.52C100.023 13.658 98.5674 13.084 96.9294 13.084C96.0334 13.084 95.1234 13.266 94.4374 13.616L94.6614 14.708C95.5014 14.288 98.5394 13.7 98.5394 15.478V16.15C97.9374 15.814 97.1954 15.646 96.5374 15.646C95.0534 15.646 93.8774 16.416 93.9194 18.026C93.9194 19.342 95.1094 20.126 96.3414 20.126C97.2934 20.126 98.3714 19.762 98.8194 18.866ZM98.5394 17.69C98.3854 18.544 97.4474 18.922 96.6494 18.922C96.0334 18.922 95.4174 18.614 95.4174 17.942C95.4174 17.116 96.0474 16.682 96.7894 16.668C97.3914 16.654 98.0354 16.836 98.5394 17.13V17.69ZM103.773 14.232C103.703 13.14 102.611 12.972 101.617 13.196L101.631 14.232C102.359 14.19 102.359 14.498 102.359 15.1V20H103.871V16.094C103.871 15.002 104.683 14.414 105.593 14.414C106.083 14.414 106.531 14.554 106.937 14.82L107.315 13.504C106.881 13.182 106.321 13.014 105.761 13.028C104.935 13.028 104.039 13.448 103.773 14.232Z" fill="#2C2C2C"/>
</svg>
