<svg width="22" height="22" viewBox="0 0 22 22" fill="none" xmlns="http://www.w3.org/2000/svg">
<path d="M12.2924 10.9998L16.2341 7.06734C16.4067 6.89473 16.5037 6.66062 16.5037 6.41651C16.5037 6.1724 16.4067 5.93829 16.2341 5.76568C16.0615 5.59307 15.8274 5.49609 15.5833 5.49609C15.3392 5.49609 15.1051 5.59307 14.9324 5.76568L10.9999 9.70734L7.06744 5.76568C6.89483 5.59307 6.66072 5.49609 6.41661 5.49609C6.1725 5.49609 5.93839 5.59307 5.76578 5.76568C5.59317 5.93829 5.49619 6.1724 5.49619 6.41651C5.49619 6.66062 5.59317 6.89473 5.76578 7.06734L9.70744 10.9998L5.76578 14.9323C5.67986 15.0176 5.61167 15.1189 5.56513 15.2306C5.51859 15.3424 5.49463 15.4622 5.49463 15.5832C5.49463 15.7042 5.51859 15.824 5.56513 15.9357C5.61167 16.0474 5.67986 16.1488 5.76578 16.234C5.85099 16.3199 5.95238 16.3881 6.06408 16.4347C6.17579 16.4812 6.2956 16.5052 6.41661 16.5052C6.53762 16.5052 6.65743 16.4812 6.76914 16.4347C6.88084 16.3881 6.98223 16.3199 7.06744 16.234L10.9999 12.2923L14.9324 16.234C15.0177 16.3199 15.119 16.3881 15.2307 16.4347C15.3425 16.4812 15.4623 16.5052 15.5833 16.5052C15.7043 16.5052 15.8241 16.4812 15.9358 16.4347C16.0475 16.3881 16.1489 16.3199 16.2341 16.234C16.32 16.1488 16.3882 16.0474 16.4348 15.9357C16.4813 15.824 16.5053 15.7042 16.5053 15.5832C16.5053 15.4622 16.4813 15.3424 16.4348 15.2306C16.3882 15.1189 16.32 15.0176 16.2341 14.9323L12.2924 10.9998Z" fill="#ffffff"/>
</svg>
