<svg width="35" height="36" viewBox="0 0 35 36" fill="none" xmlns="http://www.w3.org/2000/svg">
<path fill-rule="evenodd" clip-rule="evenodd" d="M24.5596 1.4595C23.7307 1.85519 21.2779 4.19371 13.0752 12.4096L2.64485 22.8566L3.57706 23.806C4.70259 24.9519 5.61414 25.3101 6.58788 24.9888C7.0622 24.8323 10.2573 21.7797 16.9695 15.0699C23.5576 8.48391 26.8069 5.37677 27.1056 5.37677C27.6497 5.37677 30.5678 8.32799 30.5678 8.87833C30.5678 9.1061 26.5579 13.2789 20.7772 19.0668C14.2292 25.623 10.9403 29.0614 10.8463 29.4488C10.6253 30.3595 10.9028 31.0362 11.9594 32.1653L12.9394 33.2125L23.4617 22.7186C31.739 14.4633 34.0913 11.9996 34.4872 11.1709C35.1396 9.80561 35.1734 7.79219 34.5662 6.4549C33.9956 5.19789 30.971 2.13921 29.6461 1.47931C28.1847 0.751353 26.0602 0.743137 24.5596 1.4595ZM0 31.1871V35.9277H4.79429H9.58837L4.84868 31.1871C2.24178 28.5797 0.0843255 26.4464 0.0543902 26.4464C0.0244549 26.4464 0 28.5797 0 31.1871Z" fill="#00A6CA"/>
</svg>
