<svg width="40" height="32" viewBox="0 0 40 32" fill="none" xmlns="http://www.w3.org/2000/svg">
<path fill-rule="evenodd" clip-rule="evenodd" d="M11.7055 1.08328C11.5478 1.16656 11.3502 1.33203 11.2662 1.45094C11.0779 1.71781 0 30.3776 0 30.598C0 30.6852 0.0910156 30.8648 0.202266 30.997L0.404531 31.2374H2.84984C5.06273 31.2374 5.31117 31.2245 5.46305 31.1007C5.57531 31.0093 6.03125 29.9147 6.83789 27.7999C7.63094 25.721 8.1018 24.589 8.21078 24.4991C8.36563 24.3716 8.77969 24.3624 14.4191 24.3624C18.7711 24.3624 20.516 24.3873 20.6566 24.4514C20.9059 24.565 20.8766 24.4979 22.1871 27.9562C22.9718 30.027 23.3534 30.9374 23.4889 31.0616C23.679 31.236 23.7003 31.2374 26.0876 31.2374C28.3811 31.2374 28.504 31.23 28.6944 31.0802C28.8043 30.9938 28.9159 30.8248 28.9422 30.7047C28.9798 30.5337 27.7851 27.369 23.4348 16.1159C20.3793 8.21211 17.8133 1.63859 17.7326 1.50797C17.6519 1.37734 17.4475 1.19274 17.2784 1.09774C16.9786 0.92922 16.9089 0.925001 14.4816 0.928361C12.173 0.931564 11.9713 0.942814 11.7055 1.08328ZM14.9169 8.63977C15.032 8.73328 15.6536 10.2591 16.8819 13.464C19.0728 19.1805 18.9223 18.7462 18.8172 19.0477C18.6523 19.5209 18.6728 19.5187 14.4519 19.5187C11.9695 19.5187 10.5616 19.4902 10.4645 19.4382C10.2506 19.3238 10.0566 18.912 10.1121 18.6906C10.1379 18.5882 10.9866 16.3332 11.9983 13.6795C13.3587 10.1111 13.8884 8.80883 14.0326 8.67883C14.2692 8.46539 14.6795 8.44727 14.9169 8.63977ZM30.7125 14.7616C30.3598 14.8675 30.117 15.0336 29.9565 15.2787C29.8836 15.3899 29.2493 16.9905 28.547 18.8357L27.2702 22.1905L27.9741 24.0247C28.3612 25.0335 28.7296 25.988 28.7927 26.1459L28.9075 26.4327L31.817 26.4077C34.8983 26.3813 35.2319 26.4111 35.4035 26.7284C35.455 26.8236 35.8555 27.7956 36.2935 28.8885C36.7316 29.9813 37.1683 30.9569 37.2641 31.0565C37.4297 31.2285 37.4913 31.2374 38.5169 31.2374H39.5955L39.7977 30.997C39.909 30.8648 40 30.686 40 30.5997C40 30.3692 34.3928 15.6231 34.1795 15.2926C33.8652 14.8055 33.5698 14.7174 32.1875 14.6987C31.5215 14.6897 30.8577 14.718 30.7125 14.7616ZM32.2473 18.8807C32.356 18.9497 34.0625 23.1498 34.0625 23.3483C34.0625 23.6371 33.9202 23.6593 32.0703 23.6593C30.2204 23.6593 30.0781 23.6371 30.0781 23.3483C30.0781 23.1498 31.7846 18.9497 31.8934 18.8807C31.9477 18.8462 32.0273 18.818 32.0703 18.818C32.1133 18.818 32.1929 18.8462 32.2473 18.8807Z" fill="#00A6CA"/>
</svg>
