<svg width="28" height="39" viewBox="0 0 28 39" fill="none" xmlns="http://www.w3.org/2000/svg">
<path fill-rule="evenodd" clip-rule="evenodd" d="M3.03091 1.18946C1.99508 1.51201 0.881831 2.51511 0.400434 3.55928L0.00337293 4.42078L0.00168711 20.0349L0 35.649L0.471108 36.5599C0.997542 37.578 2.03675 38.4773 2.99819 38.747C3.85658 38.988 24.1434 38.988 25.0018 38.747C25.9633 38.4773 27.0025 37.578 27.5289 36.5599L28 35.649L27.9983 20.0349L27.9966 4.42078L27.6034 3.56763C27.0601 2.38902 25.5068 1.09813 24.6319 1.09813C24.5177 1.09813 24.4578 2.35682 24.4578 4.76157V8.425H14H3.54217V6.92947C3.54217 5.85157 3.61554 5.32795 3.8048 5.05515L4.06725 4.67637H12.3229H20.5783V2.80205V0.927734L12.1867 0.939662C5.50689 0.949033 3.63932 0.999981 3.03091 1.18946ZM24.4174 19.9691L24.3735 27.7646H14H3.62651L3.58265 19.9691L3.53879 12.1736H14H24.4612L24.4174 19.9691ZM12.108 33.3449L12.0602 35.2618L8.14159 35.3075C3.31159 35.3639 3.54217 35.4772 3.54217 33.0467V31.428H7.84894H12.1557L12.108 33.3449ZM24.4578 33.0467C24.4578 35.4772 24.6884 35.3639 19.8584 35.3075L15.9398 35.2618L15.892 33.3449L15.8443 31.428H20.1511H24.4578V33.0467Z" fill="#00A6CA"/>
</svg>
