<svg width="40" height="27" viewBox="0 0 40 27" fill="none" xmlns="http://www.w3.org/2000/svg">
<path fill-rule="evenodd" clip-rule="evenodd" d="M18.1539 0.972472C17.9431 1.00919 17.2534 1.11476 16.6212 1.20723C12.6927 1.78203 7.9201 4.35496 4.6781 7.64573L3.84706 8.48926L4.42919 9.37209C4.74937 9.85761 5.17685 10.4755 5.37901 10.745L5.74686 11.2351L6.96966 10.0311C11.2246 5.84137 16.6541 3.65981 21.4322 4.21983C25.5908 4.70733 29.4487 6.68871 33.1392 10.2324C34.7127 11.7432 36.4991 13.8696 37.6783 15.6352L38.4229 16.7499L39.0123 15.9399C40.3042 14.1641 40.3138 13.8505 39.1288 12.1405C37.3407 9.56084 34.4649 6.60325 32.1385 4.95154C29.6725 3.2008 26.4482 1.77593 23.7964 1.26512C22.5583 1.02655 18.9267 0.838258 18.1539 0.972472ZM17.8286 7.78833C14.7345 8.8366 12.9138 12.0044 13.5478 15.2366C14.2153 18.6395 17.5782 20.9808 20.9908 20.4188C24.4726 19.8454 26.8623 16.7851 26.5364 13.3169C26.143 9.12758 21.8744 6.41754 17.8286 7.78833ZM20.9716 10.8219C21.3513 10.9341 21.8834 11.2861 22.3081 11.7065C23.5415 12.9272 23.6465 14.5061 22.5905 15.9549C21.3969 17.5926 18.5893 17.5926 17.3958 15.9549C16.3399 14.5062 16.4447 12.9284 17.6781 11.7049C18.6791 10.712 19.6852 10.4423 20.9716 10.8219ZM0.724006 12.33C-0.25969 13.8003 -0.25034 14.1656 0.809378 15.6893C4.99154 21.7025 10.7187 25.6901 16.6098 26.6911C18.4684 27.0068 21.5212 27.0066 23.3723 26.6905C27.1947 26.0379 30.9759 24.1266 34.3871 21.1228C35.1805 20.4242 35.8972 19.7438 35.9798 19.611C36.0943 19.4268 35.938 19.0834 35.321 18.1637C34.8761 17.5005 34.456 16.8963 34.3875 16.8209C34.3177 16.7443 33.588 17.3217 32.7315 18.1311C25.7345 24.7439 17.3412 25.5543 9.9839 20.3277C7.25689 18.3904 4.66615 15.6913 2.62319 12.6597C2.10283 11.8874 1.62601 11.2534 1.56347 11.2505C1.50094 11.2476 1.12312 11.7334 0.724006 12.33Z" fill="#00A6CA"/>
</svg>
