<svg width="50" height="57" viewBox="0 0 50 57" fill="none" xmlns="http://www.w3.org/2000/svg">
<ellipse cx="24.2685" cy="21.3425" rx="21.2685" ry="21.3425" fill="#005365" fill-opacity="0.06"/>
<path fill-rule="evenodd" clip-rule="evenodd" d="M22.3785 8.69558C18.5215 9.33395 15.1765 11.2854 12.8726 14.2414C11.1232 16.4857 10.0802 19.2192 9.91438 21.9948C9.83299 23.3562 9.8971 23.5749 10.4782 23.9173C10.8154 24.1159 11.0741 24.1308 14.2223 24.1311L17.6041 24.1315V22.9231V21.7147H14.9796H12.355L12.4317 21.2478C12.7612 19.2436 13.5358 17.4336 14.7652 15.7954L15.1264 15.3139L16.4794 16.618L17.8324 17.922L18.7116 17.0724L19.5907 16.2227L18.2414 14.9152L16.8919 13.6077L17.3902 13.2586C19.0854 12.0704 21.0054 11.3021 23.0322 11.0011L23.5153 10.9294V12.7517V14.574H24.7657H26.0162V12.7517V10.9294L26.4993 11.0021C27.4506 11.1453 28.4764 11.4219 29.4648 11.8018L30.4693 12.1879L31.3742 11.3212L32.279 10.4544L31.0614 9.88478C29.0571 8.94715 27.0413 8.5253 24.6521 8.54353C23.8705 8.54958 22.8475 8.61791 22.3785 8.69558ZM28.972 17.0456L23.6872 22.1537L24.5677 23.0046L25.4481 23.8555L29.8738 19.5796C33.6586 15.9228 34.3244 15.324 34.4731 15.4433C34.7957 15.702 35.8345 17.3692 36.2123 18.2348C36.5809 19.079 36.9483 20.3267 37.0997 21.2478L37.1765 21.7147H34.6656H32.1547V22.9231V24.1315L35.4229 24.1311C38.4585 24.1308 38.7169 24.1155 39.0533 23.9173C39.6344 23.5749 39.6985 23.3562 39.6171 21.9948C39.412 18.5644 37.9661 15.4158 35.4177 12.8506C34.9187 12.3483 34.4535 11.9374 34.3837 11.9374C34.3139 11.9374 31.8786 14.2361 28.972 17.0456Z" fill="#5D5D5D"/>
<rect x="16" y="27" width="18" height="2" rx="1" fill="#5D5D5D"/>
<g opacity="0.3" filter="url(#filter0_f)">
<ellipse cx="24.7459" cy="51.5611" rx="20.554" ry="1.43899" fill="black"/>
</g>
<defs>
<filter id="filter0_f" x="0.191895" y="46.1221" width="49.1079" height="10.878" filterUnits="userSpaceOnUse" color-interpolation-filters="sRGB">
<feFlood flood-opacity="0" result="BackgroundImageFix"/>
<feBlend mode="normal" in="SourceGraphic" in2="BackgroundImageFix" result="shape"/>
<feGaussianBlur stdDeviation="2" result="effect1_foregroundBlur"/>
</filter>
</defs>
</svg>
