<svg width="50" height="58" viewBox="0 0 50 58" fill="none" xmlns="http://www.w3.org/2000/svg">
<ellipse cx="24.2685" cy="21.5175" rx="21.2685" ry="21.3425" fill="#005365" fill-opacity="0.06"/>
<path fill-rule="evenodd" clip-rule="evenodd" d="M22.4362 11.2892C19.1058 11.8424 16.2174 13.5333 14.228 16.0946C12.7175 18.0393 11.8169 20.4078 11.6737 22.8128C11.6034 23.9924 11.6587 24.1819 12.1605 24.4786C12.4517 24.6507 12.6751 24.6636 15.3934 24.6639L18.3136 24.6643V23.6172V22.5701H16.0474H13.7811L13.8474 22.1655C14.1318 20.4289 14.8007 18.8606 15.8622 17.4411L16.1742 17.0239L17.3424 18.1539L18.5107 19.2838L19.2699 18.5476L20.029 17.8114L18.8639 16.6785L17.6987 15.5455L18.1289 15.243C19.5927 14.2134 21.2506 13.5478 23.0006 13.287L23.4178 13.2248V14.8038V16.3828H24.4975H25.5773V14.8038V13.2248L25.9944 13.2878C26.8158 13.4118 27.7016 13.6515 28.5551 13.9807L29.4225 14.3153L30.2038 13.5642L30.9851 12.8132L29.9337 12.3196C28.2031 11.5072 26.4625 11.1417 24.3994 11.1575C23.7246 11.1627 22.8411 11.2219 22.4362 11.2892ZM28.1296 18.5244L23.5662 22.9505L24.3266 23.6878L25.0868 24.4251L28.9083 20.7201C32.1764 17.5515 32.7513 17.0327 32.8797 17.136C33.1583 17.3602 34.0552 18.8048 34.3814 19.5548C34.6997 20.2863 35.017 21.3674 35.1477 22.1655L35.214 22.5701H33.0459H30.8778V23.6172V24.6643L33.6998 24.6639C36.321 24.6636 36.5441 24.6504 36.8346 24.4786C37.3364 24.1819 37.3917 23.9924 37.3214 22.8128C37.1444 19.8405 35.8958 17.1122 33.6953 14.8895C33.2645 14.4543 32.8627 14.0983 32.8025 14.0983C32.7422 14.0983 30.6394 16.09 28.1296 18.5244Z" fill="#5D5D5D"/>
<rect x="15.884" y="28.0869" width="18" height="2" rx="1" fill="#5D5D5D"/>
<g opacity="0.3" filter="url(#filter0_f)">
<ellipse cx="24.7461" cy="51.7361" rx="20.554" ry="1.43899" fill="black"/>
</g>
<defs>
<filter id="filter0_f" x="0.192139" y="46.2971" width="49.1079" height="10.878" filterUnits="userSpaceOnUse" color-interpolation-filters="sRGB">
<feFlood flood-opacity="0" result="BackgroundImageFix"/>
<feBlend mode="normal" in="SourceGraphic" in2="BackgroundImageFix" result="shape"/>
<feGaussianBlur stdDeviation="2" result="effect1_foregroundBlur"/>
</filter>
</defs>
</svg>
