<svg width="234" height="305" viewBox="0 0 234 305" fill="none" xmlns="http://www.w3.org/2000/svg">
<rect x="0.7163" y="29.3536" width="193.932" height="256.457" transform="rotate(-8.49159 0.7163 29.3536)" fill="#FCFCFC" stroke="#D5D5D5"/>
<g opacity="0.5">
<path d="M70.6149 147.229L58.8414 148.986L59.3021 152.072L66.3045 151.027L62.4378 165.436L66.0221 164.901L70.6893 147.727L70.6149 147.229ZM83.288 158.95L84.8309 158.719L84.4021 155.847L82.8592 156.078L81.2998 145.633L77.6206 146.183L72.0912 159.044L72.3215 160.587L80.0835 159.428L80.5761 162.728L83.7806 162.249L83.288 158.95ZM79.067 150.019L79.4147 153.486L79.886 156.643L75.922 157.235L79.0432 150.023L79.067 150.019ZM74.0284 207.263C74.6255 210.449 77.3171 212.062 80.4266 211.597C84.1771 211.038 85.8584 207.996 85.4189 205.053C85.0752 202.75 83.5385 200.747 80.8127 200.693L83.5559 194.362L83.4815 193.864L72.9186 195.441L73.3403 198.266L79.2033 197.39L76.928 203.117L77.0025 203.616C79.0821 202.917 81.6074 202.928 82.0756 205.576C82.2786 207.099 81.4649 208.312 79.922 208.542C78.4978 208.755 77.442 208.185 77.1379 206.798L74.0284 207.263Z" fill="#3EA3CE"/>
<path d="M78.1164 128.178C79.2256 124.421 79.1626 120.415 77.9358 116.695C76.7091 112.975 74.3769 109.718 71.2506 107.357C68.1243 104.997 64.3526 103.647 60.4387 103.486C56.5249 103.325 52.6551 104.362 49.3459 106.458C46.0367 108.554 43.4454 111.61 41.9179 115.217C40.3904 118.824 39.9993 122.811 40.7968 126.646C41.5944 130.481 43.5426 133.982 46.3815 136.681C49.2204 139.38 52.8149 141.149 56.6854 141.751" stroke="#F0F0F0" stroke-width="15"/>
<path d="M71.1917 107.221C68.8506 105.498 66.147 104.324 63.2835 103.789C60.4201 103.254 57.4712 103.371 54.6577 104.132C51.8443 104.892 49.2394 106.276 47.0383 108.18C44.8371 110.084 43.0969 112.458 41.948 115.125C40.7991 117.792 40.2713 120.682 40.4043 123.579C40.5373 126.476 41.3275 129.304 42.7158 131.852C44.104 134.399 46.0543 136.6 48.4204 138.29C50.7864 139.979 53.5069 141.113 56.3779 141.607" stroke="#3EA3CE" stroke-width="15"/>
<path d="M54.7109 103.992C51.8853 104.756 49.2692 106.145 47.0584 108.056C44.8477 109.966 43.0997 112.349 41.9456 115.026C40.7915 117.702 40.2612 120.602 40.3944 123.509C40.5276 126.416 41.3208 129.254 42.7147 131.811C44.1086 134.367 46.0669 136.576 48.4429 138.271C50.8188 139.966 53.5508 141.104 56.434 141.599" stroke="#FCD833" stroke-width="15"/>
<path d="M40.4257 123.724C40.5567 126.6 41.3424 129.407 42.724 131.936C44.1056 134.465 46.0472 136.649 48.4033 138.325C50.7593 140.001 53.4687 141.126 56.3283 141.614" stroke="#F16E33" stroke-width="15"/>
<path d="M68.3418 113.747L65.866 112.123L57.7642 120.961L57.4977 121.252L57.4087 121.636L57.3521 121.881C56.6044 125.108 60.33 127.483 62.9399 125.441L63.234 125.211L63.3859 124.87L68.3418 113.747Z" fill="#3EA3CE" stroke="#3EA3CE" stroke-width="3"/>
</g>
<rect x="94.4438" y="115.687" width="72.18" height="5.97669" rx="2.98835" transform="rotate(-8.49159 94.4438 115.687)" fill="#C8C9CA"/>
<rect x="96.2778" y="127.964" width="39.5381" height="5.51694" rx="2.75847" transform="rotate(-8.49159 96.2778 127.964)" fill="#DCDDDF"/>
<rect x="84.8784" y="51.6126" width="88.7309" height="5.97669" rx="2.98835" transform="rotate(-8.49159 84.8784 51.6126)" fill="#C8C9CA"/>
<rect x="86.7144" y="63.886" width="48.733" height="5.51694" rx="2.75847" transform="rotate(-8.49159 86.7144 63.886)" fill="#DCDDDF"/>
<rect x="45.5708" y="189.96" width="59.3072" height="5.97669" rx="2.98835" transform="rotate(-8.49159 45.5708 189.96)" fill="#C8C9CA"/>
<rect x="47.4058" y="202.234" width="131.487" height="5.51694" rx="2.75847" transform="rotate(-8.49159 47.4058 202.234)" fill="#DCDDDF"/>
<rect x="49.105" y="213.601" width="131.487" height="5.51694" rx="2.75847" transform="rotate(-8.49159 49.105 213.601)" fill="#DCDDDF"/>
<rect x="36.7612" y="174.538" width="157.233" height="0.919491" rx="0.459745" transform="rotate(-8.49159 36.7612 174.538)" fill="#DCDDDF"/>
<rect x="24.3354" y="91.3275" width="157.233" height="0.919491" rx="0.459745" transform="rotate(-8.49159 24.3354 91.3275)" fill="#DCDDDF"/>
<rect x="143.113" y="120.972" width="24.8263" height="5.51694" rx="2.75847" transform="rotate(-8.49159 143.113 120.972)" fill="#DCDDDF"/>
<g clip-path="url(#clip0)">
<path d="M56.4643 60.1492C56.7006 61.7321 56.2984 63.3439 55.3463 64.6302C54.3942 65.9166 52.9701 66.772 51.3873 67.0083C49.8045 67.2446 48.1926 66.8425 46.9063 65.8903C45.62 64.9382 44.7646 63.5141 44.5282 61.9313C44.2919 60.3485 44.6941 58.7366 45.6462 57.4503C46.5983 56.164 48.0224 55.3086 49.6052 55.0723C51.188 54.8359 52.7999 55.2381 54.0862 56.1902C55.3725 57.1423 56.2279 58.5664 56.4643 60.1492Z" fill="#C8C9CA"/>
<path d="M36.776 50.8888C35.7208 51.0463 34.7714 51.6166 34.1367 52.4742C33.5019 53.3317 33.2338 54.4063 33.3914 55.4615L36.9555 79.3335C37.113 80.3887 37.6833 81.3381 38.5409 81.9729C39.3984 82.6076 40.473 82.8757 41.5282 82.7182L65.4002 79.1541C66.4554 78.9965 67.4048 78.4262 68.0396 77.5687C68.6743 76.7112 68.9424 75.6366 68.7849 74.5814L65.2208 50.7093C65.0632 49.6541 64.4929 48.7047 63.6354 48.07C62.7779 47.4352 61.7033 47.1671 60.6481 47.3247L36.776 50.8888ZM60.9451 49.314C61.4727 49.2352 62.01 49.3693 62.4387 49.6867C62.8675 50.004 63.1527 50.4787 63.2314 51.0063L66.7955 74.8784C66.8743 75.406 66.7403 75.9433 66.4229 76.372C66.1055 76.8008 65.6308 77.086 65.1032 77.1647L64.8062 75.1754C64.5092 73.1861 61.6288 67.5151 51.6822 69.0001C41.7355 70.4852 40.6372 76.7502 40.9342 78.7395L41.2312 80.7288C40.7036 80.8076 40.1663 80.6736 39.7375 80.3562C39.3087 80.0388 39.0236 79.5641 38.9448 79.0365L35.3807 55.1645C35.3019 54.6369 35.436 54.0996 35.7534 53.6708C36.0707 53.242 36.5454 52.9569 37.073 52.8781L60.9451 49.314Z" fill="#C8C9CA"/>
</g>
<path d="M17.7013 139.726L0.230957 196.044V205.929H31.9534V192.137L17.7013 139.726Z" fill="#0098B9"/>
<path d="M213.781 196.273V140.414L233.32 196.273H213.781Z" fill="#0098B9"/>
<rect x="19.3506" y="47.1289" width="193.932" height="256.457" fill="white" stroke="#D5D5D5"/>
<g opacity="0.5">
<path d="M69.0155 165.462H65.0475V166.502H67.4075L65.4235 171.062H66.6315L69.0155 165.63V165.462ZM72.6166 169.95H73.1366V168.982H72.6166V165.462H71.3766L68.9206 169.43V169.95H71.5366V171.062H72.6166V169.95ZM71.6646 166.798L71.6086 167.958V169.022H70.2726L71.6566 166.798H71.6646ZM73.8773 169.422C73.9173 170.502 74.7253 171.166 75.7733 171.166C77.0373 171.166 77.7413 170.246 77.7413 169.254C77.7413 168.478 77.3333 167.742 76.4373 167.59L77.6533 165.638V165.47H74.0933V166.422H76.0693L75.0373 168.198V168.366C75.7573 168.238 76.5893 168.366 76.6133 169.262C76.6053 169.774 76.2773 170.134 75.7573 170.134C75.2773 170.134 74.9573 169.894 74.9253 169.422H73.8773Z" fill="#3EA3CE"/>
<path d="M81.3037 156.296C82.9555 152.744 83.4847 148.773 82.8207 144.913C82.1567 141.052 80.3312 137.486 77.5876 134.69C74.8441 131.894 71.3131 130.002 67.4659 129.265C63.6187 128.528 59.6383 128.982 56.0558 130.566C52.4734 132.151 49.4593 134.79 47.4159 138.132C45.3725 141.474 44.397 145.359 44.6195 149.27C44.842 153.181 46.2519 156.931 48.6611 160.02C51.0704 163.108 54.3643 165.389 58.1033 166.556" stroke="#F0F0F0" stroke-width="5"/>
<path d="M77.5537 134.548C75.4927 132.498 72.992 130.938 70.239 129.986C67.486 129.034 64.5521 128.714 61.6572 129.051C58.7623 129.388 55.9816 130.372 53.5235 131.93C51.0653 133.488 48.9936 135.579 47.4635 138.047C45.9334 140.515 44.9846 143.296 44.6884 146.18C44.3921 149.065 44.7561 151.979 45.7529 154.704C46.7497 157.429 48.3536 159.894 50.4442 161.914C52.5349 163.934 55.0581 165.458 57.8248 166.37" stroke="#3EA3CE" stroke-width="5"/>
<path d="M61.7303 128.921C58.8231 129.259 56.0304 130.247 53.5617 131.81C51.0931 133.373 49.0124 135.472 47.4758 137.949C45.9391 140.425 44.9863 143.215 44.6888 146.11C44.3913 149.005 44.7568 151.929 45.7579 154.663C46.759 157.397 48.3697 159.871 50.4693 161.898C52.5689 163.926 55.103 165.454 57.8814 166.37" stroke="#FCD833" stroke-width="5"/>
<path d="M44.688 146.327C44.3929 149.191 44.7554 152.084 45.7485 154.789C46.7415 157.494 48.3393 159.941 50.422 161.947C52.5047 163.952 55.0184 165.465 57.7745 166.37" stroke="#F16E33" stroke-width="5"/>
<path d="M72.928 140.045L72.1917 139.388L62.8738 146.933L62.7716 147.015L62.7233 147.138L62.6312 147.371C61.7612 149.576 64.1466 151.649 66.2088 150.481L66.3171 150.42L66.384 150.315L72.928 140.045Z" fill="#3EA3CE" stroke="#3EA3CE"/>
</g>
<rect x="99.3076" y="146.359" width="72.18" height="5.97669" rx="2.98835" fill="#C8C9CA"/>
<rect x="99.3076" y="158.773" width="39.5381" height="5.51694" rx="2.75847" fill="#DCDDDF"/>
<rect x="99.3076" y="81.5703" width="88.7309" height="5.97669" rx="2.98835" fill="#C8C9CA"/>
<rect x="99.3076" y="93.9844" width="48.733" height="5.51694" rx="2.75847" fill="#DCDDDF"/>
<rect x="39.999" y="212.598" width="59.3072" height="5.97669" rx="2.98835" fill="#C8C9CA"/>
<rect x="39.999" y="225.008" width="131.487" height="5.51694" rx="2.75847" fill="#DCDDDF"/>
<rect x="39.999" y="236.5" width="131.487" height="5.51694" rx="2.75847" fill="#DCDDDF"/>
<rect x="33.5615" y="196.047" width="157.233" height="0.919491" rx="0.459745" fill="#DCDDDF"/>
<rect x="33.5615" y="111.914" width="157.233" height="0.919491" rx="0.459745" fill="#DCDDDF"/>
<rect x="146.656" y="158.773" width="24.8263" height="5.51694" rx="2.75847" fill="#DCDDDF"/>
<g clip-path="url(#clip1)">
<path d="M69.9384 85.8232C69.9384 87.4236 69.3027 88.9584 68.1711 90.09C67.0394 91.2216 65.5046 91.8574 63.9043 91.8574C62.3039 91.8574 60.7691 91.2216 59.6375 90.09C58.5059 88.9584 57.8701 87.4236 57.8701 85.8232C57.8701 84.2229 58.5059 82.6881 59.6375 81.5564C60.7691 80.4248 62.3039 79.7891 63.9043 79.7891C65.5046 79.7891 67.0394 80.4248 68.1711 81.5564C69.3027 82.6881 69.9384 84.2229 69.9384 85.8232Z" fill="#C8C9CA"/>
<path d="M51.8343 73.7539C50.7674 73.7539 49.7442 74.1777 48.9898 74.9321C48.2354 75.6866 47.8115 76.7098 47.8115 77.7767V101.913C47.8115 102.98 48.2354 104.003 48.9898 104.758C49.7442 105.512 50.7674 105.936 51.8343 105.936H75.9709C77.0378 105.936 78.061 105.512 78.8155 104.758C79.5699 104.003 79.9937 102.98 79.9937 101.913V77.7767C79.9937 76.7098 79.5699 75.6866 78.8155 74.9321C78.061 74.1777 77.0378 73.7539 75.9709 73.7539H51.8343ZM75.9709 75.7653C76.5044 75.7653 77.016 75.9772 77.3932 76.3544C77.7704 76.7316 77.9823 77.2432 77.9823 77.7767V101.913C77.9823 102.447 77.7704 102.958 77.3932 103.336C77.016 103.713 76.5044 103.925 75.9709 103.925V101.913C75.9709 99.9019 73.9595 93.8678 63.9026 93.8678C53.8457 93.8678 51.8343 99.9019 51.8343 101.913V103.925C51.3008 103.925 50.7892 103.713 50.412 103.336C50.0348 102.958 49.8229 102.447 49.8229 101.913V77.7767C49.8229 77.2432 50.0348 76.7316 50.412 76.3544C50.7892 75.9772 51.3008 75.7653 51.8343 75.7653H75.9709Z" fill="#C8C9CA"/>
</g>
<rect y="196.043" width="233.551" height="108.04" fill="#00A6CA"/>
<mask id="mask0" mask-type="alpha" maskUnits="userSpaceOnUse" x="0" y="196" width="234" height="68">
<rect y="196" width="234" height="68" fill="#00A6CA"/>
</mask>
<g mask="url(#mask0)">
<path fill-rule="evenodd" clip-rule="evenodd" d="M178.973 182.923C173.962 183.453 169.494 184.809 164.752 187.238C157.519 190.945 151.347 196.949 148.019 203.521C146.608 206.306 146.141 208.273 146.282 210.843C146.472 214.315 148.026 216.803 150.908 218.244C152.989 219.285 154.628 219.555 158.879 219.555C160.945 219.555 162.683 219.643 162.742 219.75C162.801 219.857 162.331 221.582 161.697 223.582C160.603 227.032 160.548 227.354 160.626 229.825C160.7 232.159 160.798 232.612 161.569 234.171C162.525 236.103 163.876 237.379 165.948 238.309C168.365 239.395 175.173 239.151 176.865 237.919C177.279 237.618 177.264 237.514 176.656 236.448C176.296 235.818 175.8 234.559 175.554 233.652C175.196 232.338 175.021 232.037 174.691 232.171C173.755 232.55 170.787 232.87 169.844 232.694C168.55 232.452 167.24 231.168 167.004 229.911C166.866 229.174 167.093 228.108 168.027 225.114C168.687 222.996 169.389 220.879 169.586 220.41L169.944 219.555H173.847H177.75L178.687 216.591C179.203 214.961 179.625 213.558 179.625 213.473C179.625 213.388 177.922 213.319 175.842 213.319C173.101 213.319 172.058 213.234 172.058 213.011C172.058 212.842 172.763 210.574 173.624 207.972C174.485 205.369 175.189 203.11 175.189 202.953C175.189 202.759 174.102 202.666 171.815 202.666H168.44L166.719 207.993L164.997 213.319H160.878C155.898 213.319 154.308 212.965 153.522 211.681C152.824 210.542 152.893 209.114 153.752 206.949C155.702 202.028 161.514 196.158 167.6 192.963C176.25 188.421 186.729 187.936 195.978 191.649C202.049 194.086 207.581 198.603 211.289 204.148C215.122 209.883 216.934 215.833 216.936 222.692C216.938 231.89 213.561 240.014 207.013 246.56C198.163 255.407 185.013 258.62 173.111 254.844C167.833 253.169 163.447 250.486 159.396 246.454C156.473 243.544 154.367 240.577 152.638 236.937C151.57 234.69 150.141 230.43 150.141 229.497C150.141 229.207 149.953 229.141 149.423 229.246C149.029 229.324 147.62 229.595 146.292 229.849C143.498 230.381 143.569 230.251 144.408 233.331C147.702 245.423 156.707 255.409 168.537 260.089L170.506 260.868L183.219 260.867C195.484 260.867 195.983 260.848 197.368 260.324C216.539 253.068 227.14 232.929 222.246 213.059C220.484 205.905 217.034 199.88 211.6 194.469C208.244 191.126 205.198 188.905 201.294 186.953C194.563 183.587 186.483 182.128 178.973 182.923ZM183.674 213.644C183.615 213.823 182.562 217.095 181.335 220.916C179.258 227.382 179.103 228.017 179.103 230.066C179.103 232.953 179.777 234.802 181.424 236.437C183.252 238.251 184.744 238.853 187.743 238.987C191.155 239.14 193.628 238.403 196.683 236.323L197.695 235.635L198.546 236.56C199.014 237.069 200.085 237.8 200.926 238.185C202.237 238.784 202.885 238.899 205.456 238.988L208.457 239.092L209.272 237.703C209.954 236.539 211.196 233.96 211.196 233.706C211.196 233.666 209.993 233.593 208.522 233.544C205.126 233.432 203.674 232.82 202.873 231.167C202.222 229.82 202.129 230.235 205.159 220.972C206.471 216.964 207.544 213.602 207.544 213.502C207.544 213.401 206.025 213.319 204.169 213.319H200.794L199.066 218.71C198.116 221.676 197.153 224.687 196.926 225.401C196.36 227.185 195.894 228.067 194.81 229.398C193.006 231.616 189.608 233.142 187.724 232.58C186.358 232.173 185.506 231.177 185.515 229.998C185.519 229.47 186.661 225.57 188.053 221.332C189.445 217.093 190.584 213.556 190.584 213.472C190.584 213.388 189.054 213.319 187.184 213.319C184.695 213.319 183.754 213.406 183.674 213.644Z" fill="#FCD833"/>
</g>
<defs>
<clipPath id="clip0">
<rect width="32.1822" height="32.1822" fill="white" transform="translate(32.7974 51.4828) rotate(-8.49159)"/>
</clipPath>
<clipPath id="clip1">
<rect width="32.1822" height="32.1822" fill="white" transform="translate(47.8115 73.7539)"/>
</clipPath>
</defs>
</svg>
