<svg width="37" height="52" viewBox="0 0 37 52" fill="none" xmlns="http://www.w3.org/2000/svg">
<path fill-rule="evenodd" clip-rule="evenodd" d="M14.0991 2.04437C14.0991 1.46758 14.5667 1 15.1435 1H21.2356C21.8124 1 22.28 1.46758 22.28 2.04437V4.13311H21.5838V2.04437C21.5838 1.85211 21.4279 1.69625 21.2356 1.69625H15.1435C14.9512 1.69625 14.7954 1.85211 14.7954 2.04437V4.13311H14.0991V2.04437Z" fill="#5A8BA0" stroke="#5A8BA0"/>
<path d="M0 7.09215C0 6.89989 0.15586 6.74403 0.348123 6.74403H35.8567C36.0489 6.74403 36.2048 6.89989 36.2048 7.09215V51.6519C36.2048 51.8441 36.0489 52 35.8567 52H0.348122C0.155859 52 0 51.8441 0 51.6519V7.09215Z" fill="#BAD5E6"/>
<path fill-rule="evenodd" clip-rule="evenodd" d="M2.78498 9.52901V49.215H33.4198V9.52901H2.78498ZM0.348123 6.74403C0.15586 6.74403 0 6.89989 0 7.09215V51.6519C0 51.8441 0.155859 52 0.348122 52H35.8567C36.0489 52 36.2048 51.8441 36.2048 51.6519V7.09215C36.2048 6.89989 36.0489 6.74403 35.8567 6.74403H0.348123Z" fill="#3EA3CE"/>
<path d="M11.4883 14.4027C11.4883 13.8259 11.9559 13.3584 12.5326 13.3584H23.6726C24.2494 13.3584 24.717 13.8259 24.717 14.4027V25.1945C24.717 25.7713 24.2494 26.2389 23.6726 26.2389H12.5326C11.9559 26.2389 11.4883 25.7713 11.4883 25.1945V14.4027Z" fill="#FCFBFC"/>
<g clip-path="url(#clip0)">
<path d="M18.1022 15.3109C17.4376 15.3109 16.9184 15.5616 16.5446 16.0629C16.1707 16.5643 15.9838 17.2052 15.9838 17.9857C15.9792 18.9553 16.2838 19.7239 16.8977 20.2915C16.9761 20.3672 17.0038 20.4641 16.9807 20.5824L16.8215 20.9229C16.7707 21.0365 16.6957 21.1251 16.5965 21.189C16.4973 21.2529 16.2884 21.3439 15.97 21.4622C15.9561 21.4669 15.6642 21.5639 15.0942 21.753C14.5243 21.9422 14.2208 22.0463 14.1839 22.0652C13.7962 22.2308 13.5424 22.4034 13.4224 22.5831C13.2931 22.8811 13.2285 23.6356 13.2285 24.8464H22.976C22.976 23.6356 22.9113 22.8811 22.7821 22.5831C22.6621 22.4034 22.4083 22.2308 22.0206 22.0652C21.9837 22.0463 21.6802 21.9422 21.1102 21.753C20.5402 21.5639 20.2483 21.4669 20.2345 21.4622C19.916 21.3439 19.7072 21.2529 19.608 21.189C19.5087 21.1251 19.4337 21.0365 19.383 20.9229L19.2237 20.5824C19.2007 20.4641 19.2284 20.3672 19.3068 20.2915C19.9207 19.7239 20.2253 18.9553 20.2206 17.9857C20.2206 17.2052 20.0337 16.5643 19.6599 16.0629C19.2861 15.5616 18.7668 15.3109 18.1022 15.3109Z" fill="#B0C9D9"/>
</g>
<path fill-rule="evenodd" clip-rule="evenodd" d="M29.9385 29.372H6.26611V29.0239H29.9385V29.372Z" fill="#3EA3CE"/>
<path fill-rule="evenodd" clip-rule="evenodd" d="M29.9385 35.9864H6.26611V35.6382H29.9385V35.9864Z" fill="#3EA3CE"/>
<path fill-rule="evenodd" clip-rule="evenodd" d="M29.9385 31.1126H6.26611V30.7645H29.9385V31.1126Z" fill="#3EA3CE"/>
<path fill-rule="evenodd" clip-rule="evenodd" d="M29.9385 37.727H6.26611V37.3788H29.9385V37.727Z" fill="#3EA3CE"/>
<path fill-rule="evenodd" clip-rule="evenodd" d="M29.9385 41.2082H6.26611V40.8601H29.9385V41.2082Z" fill="#3EA3CE"/>
<path fill-rule="evenodd" clip-rule="evenodd" d="M29.9385 42.9488H6.26611V42.6007H29.9385V42.9488Z" fill="#3EA3CE"/>
<path fill-rule="evenodd" clip-rule="evenodd" d="M29.9385 32.8532H6.26611V32.5051H29.9385V32.8532Z" fill="#3EA3CE"/>
<path fill-rule="evenodd" clip-rule="evenodd" d="M29.9385 39.4676H6.26611V39.1195H29.9385V39.4676Z" fill="#3EA3CE"/>
<path d="M9.57324 11.2696V5.52559L13.5767 4.1331H22.8019L26.8053 5.52559V11.2696H9.57324Z" fill="#5A8BA0"/>
<path d="M9.57324 11.2696V5.5256L10.2695 6.22184V10.5734H26.2831L26.8053 11.2696H9.57324Z" fill="#3C5C69"/>
<defs>
<clipPath id="clip0">
<rect width="9.74744" height="10.4437" fill="white" transform="translate(13.2285 14.4027)"/>
</clipPath>
</defs>
</svg>
