<svg width="305" height="336" viewBox="0 0 305 336" fill="none" xmlns="http://www.w3.org/2000/svg">
<g opacity="0.3" filter="url(#filter0_f)">
<ellipse cx="140.5" cy="240.5" rx="93.5" ry="6.5" fill="black"/>
</g>
<path d="M279 197.5C279 160.768 264.408 125.54 238.434 99.5657C212.461 73.5919 177.232 59 140.5 59C103.768 59 68.5395 73.5919 42.5657 99.5657C16.5919 125.539 2.00001 160.767 2 197.5H78.6982C78.6982 181.109 85.2095 165.39 96.7995 153.8C108.39 142.209 124.109 135.698 140.5 135.698C156.891 135.698 172.61 142.209 184.2 153.8C195.791 165.39 202.302 181.109 202.302 197.5H279Z" fill="#FD4036"/>
<path d="M279 197.5C279 167.594 269.32 138.491 251.407 114.542C233.494 90.5942 208.31 73.0876 179.621 64.6401C150.933 56.1925 120.281 57.258 92.248 67.6771C64.2152 78.0962 40.308 97.3092 24.1009 122.443L88.6134 164.042C95.8379 152.838 106.495 144.274 118.991 139.63C131.487 134.985 145.151 134.51 157.939 138.276C170.727 142.041 181.953 149.845 189.938 160.52C197.923 171.196 202.238 184.169 202.238 197.5H279Z" fill="#FEB52E"/>
<path d="M279 197.5C279 175.385 273.704 153.591 263.555 133.942C253.407 114.293 238.7 97.3597 220.666 84.559C202.632 71.7584 181.795 63.4624 159.897 60.3651C138 57.2677 115.68 59.4591 94.8027 66.7559L120.117 139.182C129.429 135.928 139.385 134.95 149.152 136.332C158.919 137.713 168.214 141.414 176.258 147.123C184.301 152.833 190.861 160.386 195.388 169.15C199.915 177.915 202.277 187.636 202.277 197.5H279Z" fill="#FFE83B"/>
<path d="M279 197.5C279 169.914 270.762 142.957 255.343 120.083C239.923 97.2093 218.025 79.4612 192.453 69.1134L163.677 140.225C175.085 144.841 184.854 152.759 191.733 162.963C198.612 173.168 202.287 185.194 202.287 197.5H279Z" fill="#85C22D"/>
<path d="M279 197.5C279 170.078 270.86 143.274 255.611 120.483L191.864 163.134C198.668 173.304 202.3 185.264 202.3 197.5H279Z" fill="#18B734"/>
<g filter="url(#filter1_d)">
<path fill-rule="evenodd" clip-rule="evenodd" d="M143.417 197.625L215.5 131.087L135.96 184.751L135.956 184.744C135.197 185.221 134.547 185.855 134.044 186.612C133.541 187.368 133.194 188.232 133.024 189.153C132.854 190.075 132.863 191.036 133.052 191.982C133.241 192.928 133.605 193.841 134.123 194.667C134.642 195.494 135.305 196.219 136.075 196.8C136.845 197.381 137.706 197.808 138.61 198.056C139.514 198.303 140.442 198.367 141.342 198.243C142.21 198.124 143.008 197.804 143.384 197.571L143.417 197.625Z" fill="black"/>
</g>
<g filter="url(#filter2_d)">
<path d="M279 197.5C279 160.768 264.408 125.54 238.434 99.5657C212.461 73.5919 177.232 59 140.5 59C103.768 59 68.5395 73.5919 42.5657 99.5657C16.5919 125.539 2.00001 160.767 2 197.5H14.7684C14.7684 164.154 28.0151 132.174 51.5943 108.594C75.1736 85.0151 107.154 71.7684 140.5 71.7684C173.846 71.7684 205.826 85.0151 229.406 108.594C252.985 132.174 266.232 164.154 266.232 197.5H279Z" fill="#EEEEEE"/>
</g>
<path opacity="0.1" fill-rule="evenodd" clip-rule="evenodd" d="M127.775 0.157262C127.01 0.360214 126.243 0.885781 125.745 1.54688C124.983 2.5601 125 2.33004 125 11.7606C125 20.3722 125.006 20.5507 125.301 21.1708C125.737 22.0896 126.272 22.6457 127.115 23.0559L127.858 23.418H140.304H152.75L152.638 22.7509C152.576 22.384 152.522 21.7203 152.517 21.2761L152.508 20.4686H140.586C128.855 20.4686 128.658 20.4641 128.376 20.1877C128.095 19.9132 128.088 19.7195 128.088 11.7122C128.088 3.95168 128.102 3.50519 128.351 3.2851C128.593 3.07148 130.014 3.05266 145.868 3.05266H163.122L163.346 3.36488C163.525 3.6146 163.569 4.10983 163.569 5.84173V8.00664L164.236 7.91731C164.602 7.86815 165.281 7.82798 165.744 7.82798H166.586L166.583 5.33498C166.58 3.22597 166.539 2.75546 166.318 2.28018C165.928 1.44421 165.344 0.837045 164.52 0.412321L163.785 0.0329636L146.116 0.00599712C132.213 -0.0153514 128.304 0.0169519 127.775 0.157262ZM134.068 5.78695C132.392 6.37109 131.331 8.32574 131.796 9.97196C131.926 10.4338 131.893 10.5794 131.501 11.2884C130.293 13.4689 131.18 16.1392 133.479 17.2455C134.544 17.758 136.183 17.7374 137.308 17.1975C138.761 16.4996 139.583 15.2737 139.692 13.6408C139.765 12.5554 139.6 11.8484 139.089 11.0584C138.862 10.7082 138.8 10.4658 138.874 10.2156C139.542 7.94273 137.778 5.56911 135.434 5.58695C134.989 5.59032 134.374 5.68035 134.068 5.78695ZM155.774 5.86589C153.974 6.30802 152.365 8.1072 152.365 9.67884V10.0752H153.856H155.347L155.527 9.64823C155.905 8.7565 156.894 8.53782 157.669 9.17477C157.912 9.37477 158.111 9.63179 158.111 9.74612C158.111 9.91101 158.196 9.89458 158.524 9.66634C158.751 9.5082 159.395 9.16423 159.954 8.90215L160.971 8.42546L160.571 7.8079C159.561 6.25171 157.538 5.43259 155.774 5.86589ZM141.879 7.68093V9.23249H144.03H146.181L145.682 10.3034C145.407 10.8925 145.182 11.3981 145.182 11.427C145.182 11.456 145.48 11.4797 145.843 11.4797C146.664 11.4797 147.262 11.8131 147.567 12.4418C148.045 13.4273 147.251 14.5678 146.085 14.5691C145.54 14.5698 144.65 13.8809 144.581 13.4042C144.538 13.1095 144.461 13.0931 142.943 13.0554L141.351 13.016L141.458 13.7845C141.655 15.2043 142.644 16.5262 144.063 17.2673C144.588 17.5414 144.893 17.5893 146.116 17.5892C147.394 17.5892 147.633 17.5479 148.277 17.2156C149.161 16.7591 150.131 15.7564 150.541 14.8752C150.775 14.3717 150.847 13.94 150.848 13.0247C150.849 11.9931 150.795 11.7259 150.447 11.0584C150.226 10.6335 149.912 10.1465 149.749 9.97618L149.454 9.66663L149.85 8.75622C150.313 7.6909 150.27 7.08051 149.694 6.55129C149.327 6.21406 149.312 6.21266 145.602 6.17109L141.879 6.12923V7.68093ZM135.979 8.61942C136.142 8.82294 136.276 9.07856 136.276 9.18755C136.276 9.45651 135.626 10.0752 135.343 10.0752C135.217 10.0752 134.956 9.92 134.762 9.73039C134.568 9.54078 134.409 9.28516 134.409 9.16227C134.409 8.8485 135.058 8.24934 135.398 8.24934C135.553 8.24934 135.815 8.41591 135.979 8.61942ZM163.622 10.8467C156.499 12.3613 153.105 20.4384 157.088 26.3966C159.011 29.274 162.3 31.0067 165.824 31C167.565 30.9966 168.871 30.6984 170.393 29.9573C172.021 29.1639 173.125 28.3004 174.046 27.0987C175.548 25.1402 176.21 23.2186 176.21 20.8197C176.21 19.265 175.885 17.7039 175.344 16.668L175.035 16.0751L176.517 14.6205L178 13.166L176.857 12.0415L175.714 10.9172L174.399 12.1971L173.085 13.4769L172.241 12.8044C170.009 11.0244 166.517 10.2312 163.622 10.8467ZM135.976 12.2456C136.781 12.6527 136.884 13.7411 136.169 14.291C135.5 14.8054 134.585 14.6081 134.192 13.8644C133.908 13.3279 134.037 12.8384 134.579 12.3922C135.067 11.9909 135.403 11.9557 135.976 12.2456ZM168.051 14.1325C169.025 14.4618 170.004 15.0031 170.434 15.4504L170.744 15.7738L168.307 18.1536L165.87 20.5334L164.862 19.5553L163.854 18.5772L162.703 19.7025L161.552 20.8277L163.399 22.6145C165.197 24.354 165.263 24.4012 165.872 24.4012C166.496 24.4012 166.513 24.3878 169.554 21.4263C171.549 19.4829 172.632 18.5211 172.678 18.6524C173.767 21.8047 172.263 25.4569 169.228 27.0311C166.316 28.5413 163.121 28.0566 160.757 25.7463C159.587 24.6026 159.059 23.638 158.724 22.0321C158.417 20.5641 158.621 19.265 159.401 17.7128C160.975 14.5776 164.749 13.016 168.051 14.1325Z" fill="black"/>
<g opacity="0.1">
<path fill-rule="evenodd" clip-rule="evenodd" d="M16.421 52.2117C12.876 53.2147 9.98365 56.0143 8.9435 59.4491C8.71382 60.2076 8.6523 61.2135 8.59416 65.1643L8.52381 69.959H10.3042H12.0848L12.0887 65.6246C12.0909 63.2408 12.1658 60.9872 12.2553 60.617C12.909 57.9082 15.4493 55.6724 18.427 55.1853C21.8158 54.6307 25.3166 56.6842 26.5842 59.9698C26.8858 60.7519 26.9252 61.297 27.0167 65.9698C27.1125 70.8493 27.1361 71.1525 27.4828 71.9535C27.6838 72.4176 27.9154 72.863 27.9975 72.9431C28.5509 73.4841 28.4679 73.4878 15.5381 73.4878H2.92969V75.0968V76.7057L8.27019 76.7462L13.6107 76.7865L13.7085 79.1647C13.7623 80.4726 13.8908 81.7966 13.9939 82.1068C14.2906 82.9992 15.3725 84.4242 16.1677 84.9696C17.5638 85.9275 18.2633 86.1394 20.0387 86.1428C21.5277 86.1455 21.7263 86.109 22.6889 85.6558C24.4711 84.8168 25.6509 83.4616 26.1305 81.7024C26.5511 80.1595 26.6322 80.2387 24.6308 80.2387H22.882L22.7758 80.7789C22.6558 81.3897 21.8971 82.2922 21.2241 82.6246C20.05 83.2048 18.315 82.6797 17.6104 81.531C17.254 80.9501 17.2246 80.7422 17.2246 78.806V76.7098H26.4382H35.6517L36.0712 76.3091C36.6226 75.7823 36.763 75.0451 36.4292 74.4285C36.085 73.7927 35.626 73.5421 34.6115 73.4366C32.9186 73.2604 31.5013 72.3104 30.8176 70.8932C30.5005 70.2362 30.4716 69.8509 30.3841 65.1259C30.2824 59.6383 30.2434 59.3721 29.2702 57.5302C27.8609 54.863 25.0983 52.7459 22.1642 52.0851C20.6128 51.7358 17.8915 51.7958 16.421 52.2117Z" fill="black"/>
</g>
<g opacity="0.1">
<path fill-rule="evenodd" clip-rule="evenodd" d="M275.026 76.0749C274.051 76.3614 273.169 76.8198 272.298 77.493L271.515 78.0985L271.06 77.6168C270.316 76.8288 269.636 76.569 268.127 76.4953C267.362 76.458 266.442 76.5075 266.013 76.6093C264.72 76.9161 263.641 77.9885 263.413 79.1937L263.323 79.6721H265.995C268.233 79.6721 268.705 79.7112 268.894 79.9118C269.089 80.1182 269.12 80.733 269.12 84.3066C269.12 87.3349 269.074 88.5113 268.948 88.6448C268.843 88.7552 268.339 88.828 267.68 88.828C267.021 88.828 266.517 88.7552 266.412 88.6448C266.291 88.5162 266.24 87.6546 266.24 85.7455V83.0293H264.727H263.215V85.8245C263.215 89.2165 263.361 89.907 264.291 90.892C265.079 91.7268 265.988 92.0325 267.68 92.0325C269.288 92.0325 270.254 91.7268 270.99 90.9848L271.564 90.4066L272.034 90.8163C272.8 91.4824 274.029 92.1534 274.948 92.4065C275.614 92.5899 276.627 92.6429 279.468 92.6429H283.129L289.804 89.4989C297.216 86.0078 297.422 85.8766 298.169 84.1698C298.498 83.4173 298.569 83.0445 298.572 82.0342C298.575 80.953 298.52 80.6909 298.101 79.7873C297.257 77.9723 295.788 77.0229 293.823 77.0227C292.698 77.0226 292.61 77.0509 290.183 78.1948C288.814 78.8394 287.641 79.3669 287.576 79.3669C287.51 79.3669 287.519 78.9869 287.594 78.5226C287.771 77.4367 287.644 76.754 287.174 76.2558L286.798 75.8572L281.236 75.8708C277.269 75.8805 275.488 75.9391 275.026 76.0749ZM284.162 79.4051C283.974 80.0406 283.217 81.0569 282.54 81.5825C281.559 82.3435 280.801 82.5715 279.249 82.5715H277.907V84.25V85.9286L279.167 85.926C279.86 85.9245 280.849 85.8265 281.363 85.7083C281.904 85.5839 284.659 84.393 287.888 82.8878C290.962 81.4549 293.639 80.2825 293.837 80.2825C295.103 80.2825 295.878 81.8002 295.207 82.9658C294.971 83.3761 294.116 83.8225 288.54 86.4487L282.143 89.4608L279.053 89.4113C276.052 89.3634 275.938 89.3501 275.142 88.9546C272.022 87.4054 271.275 83.1797 273.672 80.6403C274.337 79.9361 275.158 79.4368 275.996 79.2277C276.294 79.1533 278.276 79.0855 280.401 79.077L284.264 79.0617L284.162 79.4051Z" fill="black"/>
<path d="M289.921 54.1577C289.879 54.2792 289.765 54.3609 289.637 54.3609H287.033C286.771 54.3609 286.627 54.6808 286.774 54.897C287.12 55.4045 287.363 55.9798 287.502 56.6231C287.533 56.766 287.657 56.8718 287.803 56.8718H290.115C290.321 56.8718 290.466 57.074 290.399 57.2686L289.921 58.6723C289.879 58.7938 289.765 58.8755 289.637 58.8755H287.861C287.709 58.8755 287.582 58.9895 287.557 59.1395C287.331 60.5135 286.646 61.5584 285.5 62.2741C284.423 62.9475 282.973 63.3229 281.151 63.4004C280.883 63.4117 280.749 63.74 280.939 63.9286L287.711 70.6378C287.731 70.6579 287.743 70.6854 287.743 70.7141C287.743 70.7734 287.695 70.8215 287.635 70.8215H284.495C284.416 70.8215 284.34 70.7901 284.284 70.7342L276.588 63.0838C276.532 63.0282 276.501 62.9527 276.5 62.8738L276.489 61.7146C276.487 61.5478 276.622 61.4118 276.789 61.4118H280.184C281.421 61.4033 282.426 61.1751 283.199 60.727C283.844 60.3453 284.292 59.8515 284.544 59.2454C284.619 59.0632 284.475 58.8755 284.278 58.8755H276.49C276.284 58.8755 276.139 58.6733 276.206 58.4787L276.684 57.075C276.726 56.9535 276.84 56.8718 276.968 56.8718H284.237C284.438 56.8718 284.582 56.6781 284.503 56.4939C283.92 55.134 282.51 54.423 280.273 54.3609H276.522C276.316 54.3609 276.171 54.1571 276.239 53.9622L276.728 52.5585C276.77 52.4379 276.884 52.3572 277.011 52.3572H290.115C290.321 52.3572 290.466 52.5594 290.399 52.754L289.921 54.1577Z" fill="black"/>
</g>
<defs>
<filter id="filter0_f" x="39" y="226" width="203" height="29" filterUnits="userSpaceOnUse" color-interpolation-filters="sRGB">
<feFlood flood-opacity="0" result="BackgroundImageFix"/>
<feBlend mode="normal" in="SourceGraphic" in2="BackgroundImageFix" result="shape"/>
<feGaussianBlur stdDeviation="4" result="effect1_foregroundBlur"/>
</filter>
<filter id="filter1_d" x="127.848" y="112.895" width="89.6523" height="103.149" filterUnits="userSpaceOnUse" color-interpolation-filters="sRGB">
<feFlood flood-opacity="0" result="BackgroundImageFix"/>
<feColorMatrix in="SourceAlpha" type="matrix" values="0 0 0 0 0 0 0 0 0 0 0 0 0 0 0 0 0 0 127 0"/>
<feOffset dy="4"/>
<feGaussianBlur stdDeviation="1"/>
<feColorMatrix type="matrix" values="0 0 0 0 0 0 0 0 0 0 0 0 0 0 0 0 0 0 0.25 0"/>
<feBlend mode="normal" in2="BackgroundImageFix" result="effect1_dropShadow"/>
<feBlend mode="normal" in="SourceGraphic" in2="effect1_dropShadow" result="shape"/>
</filter>
<filter id="filter2_d" x="0" y="58" width="281" height="142.5" filterUnits="userSpaceOnUse" color-interpolation-filters="sRGB">
<feFlood flood-opacity="0" result="BackgroundImageFix"/>
<feColorMatrix in="SourceAlpha" type="matrix" values="0 0 0 0 0 0 0 0 0 0 0 0 0 0 0 0 0 0 127 0"/>
<feOffset dy="1"/>
<feGaussianBlur stdDeviation="1"/>
<feColorMatrix type="matrix" values="0 0 0 0 0 0 0 0 0 0 0 0 0 0 0 0 0 0 0.25 0"/>
<feBlend mode="normal" in2="BackgroundImageFix" result="effect1_dropShadow"/>
<feBlend mode="normal" in="SourceGraphic" in2="effect1_dropShadow" result="shape"/>
</filter>
</defs>
</svg>
