<svg width="282" height="83" viewBox="0 0 282 83" fill="none" xmlns="http://www.w3.org/2000/svg">
<path d="M271.556 0H10.4444C4.67614 0 0 4.64502 0 10.3749V72.6246C0 78.3546 4.67614 82.9996 10.4444 82.9996H271.556C277.324 82.9996 282 78.3546 282 72.6246V10.3749C282 4.64502 277.324 0 271.556 0Z" fill="black"/>
<path d="M271.556 1.65982C273.882 1.66249 276.112 2.58159 277.756 4.21548C279.401 5.84937 280.326 8.06461 280.329 10.3752V72.6249C280.326 74.9355 279.401 77.1507 277.756 78.7846C276.112 80.4184 273.882 81.3376 271.556 81.3403H10.4444C8.11836 81.3376 5.88833 80.4185 4.24358 78.7846C2.59882 77.1507 1.67368 74.9355 1.67111 72.6249V10.3752C1.67364 8.06458 2.59877 5.84931 4.24353 4.21542C5.88829 2.58153 8.11835 1.66245 10.4444 1.65982H271.556ZM271.556 0.000244141H10.4444C7.6769 0.00829116 5.02502 1.10395 3.06806 3.04789C1.1111 4.99182 0.00810092 7.62606 0 10.3752L0 72.6249C0.00810092 75.374 1.1111 78.0083 3.06806 79.9522C5.02502 81.8961 7.6769 82.9918 10.4444 82.9998H271.556C274.323 82.9918 276.975 81.8961 278.932 79.9522C280.889 78.0083 281.992 75.374 282 72.6249V10.3752C281.992 7.62606 280.889 4.99182 278.932 3.04789C276.975 1.10395 274.323 0.00829116 271.556 0.000244141Z" fill="#A6A6A6"/>
<path d="M99.0521 21.2575C99.09 22.019 98.9716 22.7801 98.704 23.4946C98.4364 24.209 98.0252 24.862 97.4954 25.4135C96.9017 26.0252 96.1848 26.5054 95.3914 26.8228C94.598 27.1402 93.746 27.2877 92.8913 27.2555C92.0312 27.2632 91.1781 27.0999 90.3824 26.7754C89.5866 26.4509 88.8642 25.9717 88.2576 25.3658C87.651 24.76 87.1724 24.0399 86.8499 23.2477C86.5275 22.4555 86.3678 21.6073 86.3801 20.7529C86.3679 19.8985 86.5277 19.0503 86.8501 18.2581C87.1726 17.4659 87.6511 16.7457 88.2577 16.1398C88.8643 15.5339 89.5867 15.0546 90.3824 14.7299C91.1781 14.4053 92.0311 14.2418 92.8913 14.2493C93.7757 14.2466 94.6513 14.4242 95.4638 14.7711C96.2184 15.075 96.8901 15.5516 97.4242 16.1622L96.3225 17.2574C95.9027 16.7665 95.375 16.3781 94.7801 16.122C94.1852 15.8658 93.5389 15.7489 92.8913 15.7802C92.2394 15.7768 91.5935 15.9042 90.9924 16.1547C90.3912 16.4052 89.8471 16.7736 89.3927 17.2379C88.9382 17.7022 88.5828 18.2528 88.3477 18.8568C88.1125 19.4608 88.0025 20.1057 88.0242 20.7529C88.0087 21.7223 88.2833 22.6745 88.8132 23.4887C89.3432 24.3029 90.1046 24.9424 91.0009 25.3262C91.8973 25.71 92.8881 25.8207 93.8479 25.6443C94.8076 25.468 95.6931 25.0125 96.3919 24.3356C97.035 23.6472 97.4078 22.7522 97.4424 21.8136H92.8913V20.3182H98.9643C99.0218 20.6281 99.0511 20.9425 99.0521 21.2575Z" fill="white" stroke="white" stroke-width="0.2" stroke-miterlimit="10"/>
<path d="M108.678 16.0515H102.97V19.9987H108.117V21.4944H102.97V25.4417H108.678V26.9715H101.361V14.5216H108.678V16.0515Z" fill="white" stroke="white" stroke-width="0.2" stroke-miterlimit="10"/>
<path d="M115.475 26.9715H113.864V16.0515H110.363V14.5216H118.976V16.0515H115.475V26.9715Z" fill="white" stroke="white" stroke-width="0.2" stroke-miterlimit="10"/>
<path d="M125.203 26.9772V14.5272H126.813V26.9772H125.203Z" fill="white" stroke="white" stroke-width="0.2" stroke-miterlimit="10"/>
<path d="M133.952 26.9715H132.341V16.0515H128.84V14.5216H137.453V16.0515H133.952V26.9715Z" fill="white" stroke="white" stroke-width="0.2" stroke-miterlimit="10"/>
<path d="M153.762 25.3687C152.542 26.5768 150.89 27.2553 149.167 27.2553C147.445 27.2553 145.792 26.5768 144.572 25.3687C143.969 24.7615 143.494 24.0399 143.177 23.247C142.86 22.454 142.707 21.6057 142.726 20.7527C142.707 19.8996 142.86 19.0514 143.177 18.2584C143.494 17.4654 143.969 16.7438 144.572 16.1366C145.175 15.5375 145.891 15.0624 146.679 14.7385C147.467 14.4146 148.312 14.2483 149.165 14.249C150.018 14.2498 150.862 14.4176 151.65 14.7429C152.437 15.0682 153.152 15.5446 153.754 16.1447C154.358 16.7503 154.833 17.4703 155.152 18.2618C155.47 19.0534 155.626 19.9004 155.608 20.7527C155.627 21.6057 155.474 22.4537 155.157 23.2467C154.839 24.0396 154.365 24.7612 153.762 25.3687ZM145.762 24.3262C146.665 25.2222 147.89 25.7254 149.166 25.7254C150.443 25.7254 151.667 25.2222 152.571 24.3262C153.034 23.855 153.397 23.2954 153.636 22.6812C153.876 22.067 153.987 21.4109 153.964 20.7527C153.987 20.0944 153.876 19.4383 153.636 18.8241C153.397 18.2099 153.034 17.6503 152.571 17.1791C151.667 16.2831 150.443 15.7799 149.166 15.7799C147.89 15.7799 146.665 16.2831 145.762 17.1791C145.299 17.6507 144.937 18.2104 144.698 18.8246C144.459 19.4387 144.348 20.0946 144.37 20.7527C144.348 21.4107 144.459 22.0666 144.698 22.6808C144.937 23.2949 145.299 23.8546 145.762 24.3262Z" fill="white" stroke="white" stroke-width="0.2" stroke-miterlimit="10"/>
<path d="M157.873 26.9715V14.5216H159.833L165.924 24.2066H165.994L165.924 21.8073V14.5216H167.536V26.9715H165.855L159.482 16.8174H159.413L159.482 19.2167V26.9715H157.873Z" fill="white" stroke="white" stroke-width="0.2" stroke-miterlimit="10"/>
<path d="M142.329 45.137C140.573 45.1436 138.858 45.6668 137.402 46.6406C135.945 47.6143 134.812 48.995 134.144 50.6082C133.477 52.2214 133.306 53.9948 133.653 55.7045C133.999 57.4142 134.848 58.9836 136.092 60.2145C137.336 61.4454 138.919 62.2826 140.641 62.6204C142.364 62.9582 144.149 62.7815 145.77 62.1125C147.391 61.4436 148.777 60.3124 149.752 58.8618C150.726 57.4112 151.247 55.7062 151.247 53.9621C151.264 52.7956 151.045 51.6376 150.602 50.5569C150.16 49.4762 149.503 48.495 148.671 47.6717C147.839 46.8483 146.849 46.1996 145.759 45.7641C144.669 45.3287 143.503 45.1154 142.329 45.137ZM142.329 59.3108C141.247 59.3874 140.168 59.1389 139.231 58.5975C138.294 58.0562 137.542 57.2471 137.075 56.2757C136.607 55.3043 136.445 54.2155 136.609 53.1511C136.773 52.0867 137.255 51.096 137.994 50.308C138.733 49.52 139.693 48.9711 140.751 48.7329C141.808 48.4947 142.913 48.5782 143.921 48.9725C144.93 49.3668 145.796 50.0536 146.406 50.9436C147.016 51.8335 147.343 52.8854 147.343 53.9621C147.376 54.6424 147.271 55.3223 147.035 55.9618C146.8 56.6014 146.437 57.1876 145.97 57.686C145.503 58.1844 144.94 58.5849 144.315 58.864C143.689 59.143 143.014 59.295 142.329 59.3108ZM122.874 45.137C121.118 45.1436 119.404 45.6668 117.947 46.6405C116.49 47.6142 115.357 48.9948 114.69 50.608C114.022 52.2212 113.851 53.9946 114.198 55.7044C114.544 57.4141 115.393 58.9835 116.637 60.2145C117.881 61.4454 119.464 62.2826 121.186 62.6204C122.909 62.9582 124.694 62.7815 126.315 62.1125C127.937 61.4436 129.322 60.3124 130.297 58.8618C131.272 57.4112 131.792 55.7062 131.792 53.9621C131.809 52.7956 131.59 51.6376 131.147 50.557C130.705 49.4763 130.048 48.4951 129.216 47.6717C128.384 46.8484 127.394 46.1997 126.304 45.7642C125.215 45.3288 124.048 45.1155 122.874 45.137ZM122.874 59.3108C121.793 59.3874 120.713 59.1389 119.776 58.5975C118.839 58.0562 118.088 57.2471 117.62 56.2757C117.152 55.3043 116.99 54.2155 117.154 53.1511C117.318 52.0867 117.801 51.096 118.54 50.308C119.278 49.52 120.239 48.9711 121.296 48.7329C122.353 48.4947 123.458 48.5782 124.467 48.9725C125.475 49.3668 126.341 50.0536 126.951 50.9436C127.562 51.8335 127.888 52.8854 127.888 53.9621C127.921 54.6424 127.816 55.3223 127.581 55.9619C127.345 56.6014 126.983 57.1876 126.516 57.686C126.048 58.1845 125.485 58.585 124.86 58.864C124.235 59.143 123.559 59.295 122.874 59.3108ZM99.7315 47.8449V51.5888H108.751C108.621 53.3448 107.897 55.0058 106.698 56.3023C105.794 57.2174 104.707 57.9342 103.507 58.4063C102.307 58.8785 101.021 59.0955 99.7315 59.0434C97.0953 59.0079 94.5792 57.9428 92.7276 56.0784C90.876 54.2141 89.8378 51.7005 89.8378 49.0816C89.8378 46.4626 90.876 43.949 92.7276 42.0847C94.5792 40.2203 97.0953 39.1552 99.7315 39.1197C102.264 39.0869 104.707 40.0479 106.53 41.794L109.188 39.1532C107.944 37.93 106.467 36.9658 104.843 36.3171C103.219 35.6684 101.482 35.3484 99.7315 35.3756C97.9027 35.3492 96.0868 35.6842 94.3894 36.3611C92.6921 37.038 91.1471 38.0433 89.8444 39.3187C88.5417 40.594 87.5072 42.1139 86.8011 43.7899C86.0951 45.4659 85.7314 47.2647 85.7314 49.0816C85.7314 50.8984 86.0951 52.6972 86.8011 54.3732C87.5072 56.0492 88.5417 57.5691 89.8444 58.8444C91.1471 60.1198 92.6921 61.1251 94.3894 61.802C96.0868 62.479 97.9027 62.8139 99.7315 62.7875C101.518 62.8611 103.301 62.5564 104.96 61.8936C106.62 61.2308 108.118 60.2251 109.356 58.9432C111.555 56.5595 112.726 53.4158 112.621 50.1848C112.629 49.4002 112.562 48.6166 112.419 47.8449H99.7315ZM194.376 50.753C193.842 49.1545 192.825 47.758 191.465 46.7532C190.104 45.7485 188.465 45.1842 186.77 45.137C185.628 45.144 184.5 45.3809 183.453 45.8334C182.407 46.2858 181.463 46.9444 180.68 47.7693C179.897 48.5942 179.29 49.5683 178.897 50.6327C178.503 51.6971 178.331 52.8298 178.39 53.9621C178.365 55.1224 178.575 56.276 179.008 57.3539C179.441 58.4317 180.088 59.4118 180.911 60.2356C181.734 61.0594 182.716 61.7099 183.798 62.1484C184.88 62.5868 186.039 62.8042 187.207 62.7875C188.671 62.7955 190.114 62.4424 191.406 61.7597C192.698 61.0771 193.799 60.0863 194.611 58.8763L191.582 56.8707C191.129 57.6192 190.487 58.2377 189.72 58.6655C188.953 59.0933 188.087 59.3157 187.207 59.3108C186.302 59.3452 185.408 59.1087 184.64 58.6318C183.871 58.1549 183.265 57.4598 182.9 56.6366L194.78 51.756L194.376 50.753ZM182.261 53.6949C182.219 53.0526 182.306 52.4084 182.518 51.8001C182.73 51.1918 183.062 50.6315 183.494 50.1522C183.927 49.6728 184.451 49.2839 185.036 49.0082C185.622 48.7326 186.257 48.5757 186.904 48.5468C187.578 48.5028 188.251 48.6568 188.837 48.9897C189.424 49.3226 189.899 49.8197 190.203 50.4189L182.261 53.6949ZM172.602 62.2526H176.506V36.3119H172.602V62.2526ZM166.208 47.1093H166.073C165.48 46.4688 164.756 45.9615 163.949 45.6213C163.142 45.2812 162.272 45.1161 161.396 45.137C159.105 45.2339 156.94 46.206 155.353 47.8504C153.767 49.4949 152.881 51.6846 152.881 53.9622C152.881 56.2399 153.767 58.4296 155.353 60.074C156.94 61.7185 159.105 62.6906 161.396 62.7875C162.275 62.8107 163.149 62.6433 163.957 62.297C164.765 61.9506 165.487 61.4336 166.073 60.7818H166.208V62.0521C166.208 65.4285 164.391 67.2336 161.463 67.2336C160.487 67.2104 159.54 66.8991 158.743 66.3395C157.946 65.7799 157.335 64.9972 156.987 64.0912L153.588 65.4953C154.229 67.0447 155.32 68.3687 156.723 69.2978C158.126 70.2269 159.777 70.7187 161.463 70.7102C166.04 70.7102 169.91 68.036 169.91 61.5172V45.6717H166.208V47.1093ZM161.732 59.3108C160.383 59.1972 159.126 58.5845 158.21 57.594C157.293 56.6035 156.785 55.3074 156.785 53.9622C156.785 52.6171 157.293 51.321 158.21 50.3305C159.126 49.34 160.383 48.7273 161.732 48.6136C162.404 48.6462 163.061 48.8127 163.666 49.1032C164.272 49.3936 164.812 49.8022 165.254 50.3044C165.697 50.8066 166.034 51.3923 166.244 52.0264C166.454 52.6606 166.533 53.3303 166.477 53.9956C166.53 54.6567 166.447 55.3216 166.235 55.9504C166.023 56.5793 165.685 57.1591 165.242 57.6553C164.799 58.1516 164.26 58.5539 163.657 58.8384C163.054 59.1228 162.399 59.2835 161.732 59.3108ZM212.661 36.3123H203.322V62.2526H207.219V52.4246H212.661C213.764 52.4846 214.867 52.3208 215.904 51.943C216.94 51.5653 217.888 50.9816 218.69 50.2276C219.492 49.4736 220.13 48.5652 220.567 47.5578C221.003 46.5504 221.228 45.4652 221.228 44.3684C221.228 43.2717 221.003 42.1865 220.567 41.1791C220.13 40.1717 219.492 39.2632 218.69 38.5092C217.888 37.7553 216.94 37.1716 215.904 36.7938C214.867 36.4161 213.764 36.2522 212.661 36.3123ZM212.762 48.8145H207.219V39.9226H212.762C213.358 39.9103 213.95 40.0162 214.504 40.2342C215.057 40.4521 215.562 40.7776 215.987 41.1917C216.413 41.6057 216.751 42.1 216.982 42.6455C217.213 43.191 217.332 43.7768 217.332 44.3685C217.332 44.9603 217.213 45.546 216.982 46.0916C216.751 46.6371 216.413 47.1313 215.987 47.5454C215.562 47.9595 215.057 48.285 214.504 48.5029C213.95 48.7208 213.358 48.8268 212.762 48.8145ZM236.851 45.0893C235.428 45.0068 234.012 45.3386 232.777 46.0441C231.541 46.7496 230.54 47.7979 229.896 49.0606L233.356 50.4957C233.7 49.869 234.219 49.3552 234.852 49.0174C235.484 48.6795 236.202 48.5321 236.918 48.5933C237.906 48.4974 238.893 48.7949 239.661 49.4204C240.43 50.046 240.917 50.9486 241.016 51.9305V52.1976C239.765 51.537 238.369 51.1932 236.951 51.1964C233.222 51.1964 229.426 53.2322 229.426 57.0367C229.462 57.8384 229.66 58.6248 230.008 59.3492C230.356 60.0735 230.847 60.721 231.452 61.2532C232.057 61.7855 232.763 62.1917 233.529 62.4476C234.294 62.7036 235.104 62.8041 235.91 62.7433C236.891 62.8007 237.87 62.5957 238.745 62.1496C239.619 61.7035 240.357 61.0327 240.882 60.207H241.016V62.2094H244.779V52.2644C244.779 47.6589 241.319 45.0893 236.851 45.0893ZM236.38 59.3059C235.103 59.3059 233.323 58.672 233.323 57.1033C233.323 55.1011 235.54 54.3334 237.455 54.3334C238.699 54.3005 239.929 54.6002 241.016 55.2011C240.873 56.3263 240.325 57.3619 239.473 58.1164C238.62 58.871 237.522 59.2935 236.38 59.3059ZM258.486 45.6566L254.018 56.903H253.884L249.247 45.6566H245.048L252.002 61.375L248.038 70.1186H252.103L262.82 45.6566H258.486ZM223.378 62.2526H227.276V36.3123H223.378V62.2526Z" fill="white"/>
<path d="M21.7985 15.6383C21.1136 16.4519 20.7677 17.4948 20.8318 18.5535V64.4441C20.7675 65.5028 21.1134 66.5458 21.7985 67.3593L21.9531 67.5089L47.8324 41.8021V41.1956L21.9531 15.4877L21.7985 15.6383Z" fill="url(#paint0_linear)"/>
<path d="M56.4574 50.3774L47.8315 41.8047V41.1982L56.4595 32.6277L56.654 32.7379L66.8745 38.5065C69.7939 40.1541 69.7939 42.8499 66.8745 44.4985L56.654 50.2672L56.4574 50.3774Z" fill="url(#paint1_linear)"/>
<path d="M56.6546 50.2646L47.8322 41.5L21.7983 67.3604C22.3932 67.8815 23.1528 68.1796 23.9456 68.2028C24.7384 68.2261 25.5145 67.9732 26.1393 67.4878L56.6546 50.2646Z" fill="url(#paint2_linear)"/>
<path d="M56.6546 32.74L26.1393 15.5168C25.5145 15.0315 24.7384 14.7785 23.9456 14.8018C23.1528 14.825 22.3932 15.1231 21.7983 15.6442L47.8322 41.5048L56.6546 32.74Z" fill="url(#paint3_linear)"/>
<path opacity="0.2" d="M56.4611 50.071L26.1402 67.1841C25.5395 67.6384 24.8063 67.8862 24.0513 67.8902C23.2963 67.8942 22.5605 67.6542 21.9549 67.2063L21.7993 67.3609L21.9539 67.5105L21.9549 67.5095C22.5604 67.9576 23.2963 68.1978 24.0513 68.1938C24.8064 68.1898 25.5396 67.9418 26.1402 67.4873L56.6556 50.264L56.4611 50.071Z" fill="black"/>
<path opacity="0.12" d="M21.7961 67.0605C21.1111 66.247 20.7653 65.204 20.8293 64.1454V64.4485C20.7653 65.5072 21.1111 66.5501 21.7961 67.3637L21.9517 67.2091L21.7961 67.0605Z" fill="black"/>
<path opacity="0.12" d="M66.8764 44.1919L56.4614 50.0707L56.6559 50.2637L66.8764 44.495C67.4776 44.2359 67.9979 43.8213 68.383 43.2945C68.7681 42.7678 69.0041 42.1481 69.0662 41.5C68.937 42.0869 68.6718 42.6358 68.2916 43.1031C67.9115 43.5704 67.4269 43.9432 66.8764 44.1919Z" fill="black"/>
<path opacity="0.25" d="M26.1407 15.8133L66.8765 38.8042C67.4272 39.0529 67.912 39.4258 68.2921 39.8933C68.6723 40.3608 68.9374 40.9099 69.0663 41.4971C69.0046 40.8487 68.7688 40.2287 68.3837 39.7017C67.9985 39.1747 67.478 38.7601 66.8765 38.501L26.1407 15.5101C23.2212 13.8624 20.833 15.231 20.833 18.5527V18.8558C20.833 15.5344 23.2212 14.1657 26.1407 15.8133Z" fill="white"/>
<defs>
<linearGradient id="paint0_linear" x1="45.5374" y1="18.0696" x2="10.7148" y2="53.1254" gradientUnits="userSpaceOnUse">
<stop stop-color="#00A0FF"/>
<stop offset="0.00657" stop-color="#00A1FF"/>
<stop offset="0.2601" stop-color="#00BEFF"/>
<stop offset="0.5122" stop-color="#00D2FF"/>
<stop offset="0.7604" stop-color="#00DFFF"/>
<stop offset="1" stop-color="#00E3FF"/>
</linearGradient>
<linearGradient id="paint1_linear" x1="70.6756" y1="41.5025" x2="20.131" y2="41.5025" gradientUnits="userSpaceOnUse">
<stop stop-color="#FFE000"/>
<stop offset="0.4087" stop-color="#FFBD00"/>
<stop offset="0.7754" stop-color="#FFA500"/>
<stop offset="1" stop-color="#FF9C00"/>
</linearGradient>
<linearGradient id="paint2_linear" x1="51.8607" y1="46.2623" x2="4.63854" y2="93.8008" gradientUnits="userSpaceOnUse">
<stop stop-color="#FF3A44"/>
<stop offset="1" stop-color="#C31162"/>
</linearGradient>
<linearGradient id="paint3_linear" x1="15.2433" y1="0.368511" x2="36.3299" y2="21.5964" gradientUnits="userSpaceOnUse">
<stop stop-color="#32A071"/>
<stop offset="0.0685" stop-color="#2DA771"/>
<stop offset="0.4762" stop-color="#15CF74"/>
<stop offset="0.8009" stop-color="#06E775"/>
<stop offset="1" stop-color="#00F076"/>
</linearGradient>
</defs>
</svg>
