<svg width="35" height="35" viewBox="0 0 35 35" fill="none" xmlns="http://www.w3.org/2000/svg">
<circle cx="17.5" cy="17.5" r="17.5" fill="#FCD800"/>
<path fill-rule="evenodd" clip-rule="evenodd" d="M16.0394 11.1012C13.5573 11.5247 11.4047 12.8193 9.92211 14.7801C8.79634 16.269 8.12516 18.0822 8.01843 19.9235C7.96605 20.8266 8.00731 20.9717 8.38127 21.1988C8.59825 21.3306 8.76474 21.3404 10.7907 21.3406L12.967 21.3409V20.5393V19.7377H11.278H9.58904L9.63842 19.4279C9.85042 18.0984 10.3489 16.8977 11.14 15.811L11.3725 15.4916L12.2432 16.3567L13.1139 17.2217L13.6796 16.6581L14.2454 16.0945L13.3771 15.2271L12.5087 14.3598L12.8293 14.1282C13.9202 13.34 15.1558 12.8303 16.4601 12.6307L16.771 12.5831V13.7919V15.0008H17.5757H18.3804V13.7919V12.5831L18.6913 12.6313C19.3034 12.7263 19.9635 12.9098 20.5996 13.1618L21.2461 13.4179L21.8284 12.8429L22.4106 12.268L21.6271 11.8901C20.3373 11.2681 19.0401 10.9883 17.5025 11.0004C16.9996 11.0044 16.3412 11.0497 16.0394 11.1012ZM20.2825 16.6403L16.8816 20.0289L17.4482 20.5934L18.0148 21.1578L20.8628 18.3213C23.2985 15.8955 23.7269 15.4983 23.8226 15.5774C24.0302 15.7491 24.6987 16.855 24.9418 17.4292C25.179 17.9892 25.4155 18.8169 25.5129 19.4279L25.5623 19.7377H23.9465H22.3306V20.5393V21.3409L24.4338 21.3406C26.3873 21.3404 26.5536 21.3303 26.7701 21.1988C27.144 20.9717 27.1853 20.8266 27.1329 19.9235C27.0009 17.6479 26.0704 15.5592 24.4305 13.8575C24.1094 13.5243 23.81 13.2518 23.765 13.2518C23.7201 13.2518 22.153 14.7766 20.2825 16.6403Z" fill="black"/>
</svg>
