<svg width="50" height="57" viewBox="0 0 50 57" fill="none" xmlns="http://www.w3.org/2000/svg">
<ellipse cx="24.2144" cy="21.2882" rx="21.2144" ry="21.2882" fill="#005365" fill-opacity="0.06"/>
<path fill-rule="evenodd" clip-rule="evenodd" d="M20.3989 21.9732C19.7057 22.1682 19.0786 22.4803 18.4591 22.9387L17.902 23.351L17.5785 23.023C17.0497 22.4865 16.5665 22.3096 15.4928 22.2594C14.9487 22.234 14.2951 22.2678 13.9896 22.3371C13.07 22.5459 12.3029 23.2761 12.141 24.0966L12.0768 24.4224H13.9772C15.5682 24.4224 15.9038 24.449 16.0386 24.5856C16.1769 24.726 16.1995 25.1446 16.1995 27.5778C16.1995 29.6396 16.1662 30.4405 16.0766 30.5314C16.0025 30.6066 15.6441 30.6561 15.1752 30.6561C14.7063 30.6561 14.3479 30.6066 14.2739 30.5314C14.1875 30.4439 14.1509 29.8573 14.1509 28.5574V26.7081H13.0755H12V28.6112C12 30.9206 12.1043 31.3908 12.7655 32.0614C13.3258 32.6298 13.9717 32.8379 15.1752 32.8379C16.3186 32.8379 17.0054 32.6298 17.5289 32.1246L17.9369 31.7309L18.2717 32.0099C18.8159 32.4634 19.6903 32.9202 20.3436 33.0926C20.8174 33.2175 21.5375 33.2535 23.5576 33.2535H26.161L30.9079 31.113C36.1787 28.736 36.3252 28.6467 36.8563 27.4846C37.0903 26.9723 37.1404 26.7185 37.1427 26.0306C37.1453 25.2945 37.1062 25.116 36.8076 24.5008C36.2079 23.2651 35.1632 22.6186 33.7656 22.6185C32.9659 22.6184 32.9035 22.6377 31.177 23.4165C30.204 23.8554 29.3698 24.2146 29.3233 24.2146C29.2767 24.2146 29.2827 23.9559 29.3363 23.6397C29.4619 22.9004 29.3719 22.4355 29.0375 22.0963L28.7699 21.825L24.8149 21.8342C21.9943 21.8408 20.7276 21.8807 20.3989 21.9732ZM26.8958 24.2405C26.7624 24.6733 26.2238 25.3652 25.7422 25.723C25.0447 26.2412 24.5054 26.3964 23.4023 26.3964H22.4475V27.5392V28.6821L23.3437 28.6803C23.8367 28.6793 24.5395 28.6126 24.9057 28.5321C25.2903 28.4474 27.2495 27.6366 29.5455 26.6118C31.7313 25.6362 33.6349 24.8379 33.7757 24.8379C34.676 24.8379 35.2272 25.8713 34.7501 26.6648C34.5821 26.9442 33.9745 27.2481 30.0087 29.0362L25.46 31.087L23.2624 31.0533C21.1287 31.0207 21.0477 31.0117 20.4813 30.7424C18.2629 29.6876 17.7319 26.8105 19.4363 25.0816C19.9091 24.6021 20.4931 24.2621 21.0887 24.1198C21.3009 24.0691 22.7105 24.023 24.2212 24.0172L26.968 24.0068L26.8958 24.2405Z" fill="#5D5D5D"/>
<path d="M27.6964 10.6098C27.6517 10.7254 27.5405 10.8016 27.4166 10.8016H26.4337C26.1629 10.8016 26.0093 11.1567 26.1338 11.3972C26.1973 11.5199 26.2494 11.6492 26.2902 11.7851C26.3315 11.9228 26.4529 12.0255 26.5967 12.0255H27.5623C27.7731 12.0255 27.9181 12.2372 27.8421 12.4337L27.6964 12.8104C27.6517 12.926 27.5405 13.0021 27.4166 13.0021H26.6361C26.4859 13.0021 26.361 13.114 26.3254 13.26C26.1777 13.8664 25.8078 14.3327 25.2156 14.6587C24.6998 14.9428 24.0298 15.1181 23.2057 15.1846C22.9294 15.2069 22.8002 15.5587 23.0089 15.741L26.4384 18.7355C26.4495 18.7452 26.4559 18.7592 26.4559 18.774C26.4559 18.8021 26.433 18.825 26.4049 18.825H24.7042C24.6315 18.825 24.5612 18.7985 24.5065 18.7506L20.3391 15.0994C20.2749 15.0432 20.2377 14.9623 20.2368 14.877L20.2332 14.5416C20.2314 14.3747 20.3663 14.2384 20.5332 14.2384H22.2752C22.9596 14.2343 23.5154 14.123 23.9425 13.9046C24.2227 13.7586 24.4358 13.5789 24.5816 13.3655C24.6952 13.1993 24.5525 13.0021 24.3512 13.0021H20.4377C20.2269 13.0021 20.0819 12.7905 20.1579 12.5939L20.3036 12.2173C20.3483 12.1017 20.4595 12.0255 20.5834 12.0255H24.3221C24.5271 12.0255 24.6707 11.8219 24.5543 11.653C24.1819 11.1127 23.4386 10.8289 22.3244 10.8016H20.4576C20.2459 10.8016 20.1008 10.5882 20.1786 10.3913L20.3275 10.0147C20.3727 9.90017 20.4834 9.82495 20.6065 9.82495H27.5623C27.7731 9.82495 27.9181 10.0366 27.8421 10.2332L27.6964 10.6098Z" fill="#5D5D5D"/>
<g opacity="0.3" filter="url(#filter0_f)">
<ellipse cx="24.6912" cy="51.5647" rx="20.5017" ry="1.43533" fill="black"/>
</g>
<defs>
<filter id="filter0_f" x="0.189453" y="46.1294" width="49.0034" height="10.8707" filterUnits="userSpaceOnUse" color-interpolation-filters="sRGB">
<feFlood flood-opacity="0" result="BackgroundImageFix"/>
<feBlend mode="normal" in="SourceGraphic" in2="BackgroundImageFix" result="shape"/>
<feGaussianBlur stdDeviation="2" result="effect1_foregroundBlur"/>
</filter>
</defs>
</svg>
