<svg width="50" height="57" viewBox="0 0 50 57" fill="none" xmlns="http://www.w3.org/2000/svg">
<ellipse cx="24.2686" cy="21.3426" rx="21.2686" ry="21.3426" fill="#005365" fill-opacity="0.06"/>
<path fill-rule="evenodd" clip-rule="evenodd" d="M11.571 13.0964C11.1379 13.2208 10.7034 13.5429 10.4219 13.9481C9.9905 14.5691 10 14.4281 10 20.2081C10 25.4862 10.0033 25.5956 10.1701 25.9757C10.4174 26.5388 10.7203 26.8796 11.1969 27.1311L11.6175 27.353H18.6626H25.7077L25.6441 26.9441C25.6091 26.7192 25.5783 26.3124 25.5757 26.0402L25.5708 25.5452H18.8221C12.1818 25.5452 12.0708 25.5425 11.9108 25.3731C11.7519 25.2049 11.7482 25.0862 11.7482 20.1784C11.7482 15.422 11.7561 15.1483 11.8969 15.0134C12.0335 14.8825 12.8383 14.871 21.8121 14.871H31.5786L31.7051 15.0623C31.8064 15.2154 31.8317 15.5189 31.8317 16.5804V17.9073L32.209 17.8525C32.4164 17.8224 32.8006 17.7978 33.0627 17.7978H33.5392L33.5374 16.2698C33.5359 14.9772 33.5128 14.6888 33.3874 14.3975C33.1667 13.8852 32.836 13.513 32.37 13.2527L31.9537 13.0202L21.9526 13.0037C14.0827 12.9906 11.8704 13.0104 11.571 13.0964ZM15.1329 16.5468C14.1842 16.9049 13.5834 18.1029 13.8466 19.1118C13.9204 19.3949 13.9019 19.4842 13.6796 19.9187C12.9959 21.2551 13.4979 22.8917 14.7994 23.5698C15.4023 23.8839 16.3302 23.8713 16.9668 23.5404C17.7895 23.1126 18.2547 22.3613 18.3165 21.3605C18.3575 20.6953 18.2639 20.2619 17.9747 19.7777C17.8465 19.5631 17.8115 19.4145 17.8532 19.2612C18.2311 17.8681 17.2326 16.4133 15.906 16.4243C15.654 16.4263 15.3061 16.4815 15.1329 16.5468ZM27.4193 16.5952C26.4001 16.8662 25.4895 17.9689 25.4895 18.9322V19.1751H26.3334H27.1773L27.2796 18.9134C27.4935 18.3669 28.0535 18.2329 28.4917 18.6232C28.6293 18.7458 28.7419 18.9034 28.7419 18.9734C28.7419 19.0745 28.7902 19.0644 28.9757 18.9245C29.1043 18.8276 29.4686 18.6168 29.7853 18.4562L30.361 18.164L30.1344 17.7855C29.563 16.8317 28.418 16.3297 27.4193 16.5952ZM19.5539 17.7077V18.6586H20.7715H21.9891L21.7066 19.315C21.5512 19.676 21.424 19.9859 21.424 20.0037C21.424 20.0214 21.5922 20.0359 21.7977 20.0359C22.2627 20.0359 22.601 20.2403 22.7737 20.6256C23.0445 21.2297 22.5948 21.9286 21.9351 21.9294C21.6263 21.9299 21.1229 21.5076 21.0836 21.2155C21.0594 21.0349 21.0156 21.0248 20.1567 21.0017L19.2552 20.9775L19.3156 21.4486C19.4272 22.3188 19.9869 23.129 20.7902 23.5832C21.0875 23.7512 21.2604 23.7805 21.9526 23.7805C22.6759 23.7805 22.8109 23.7552 23.1755 23.5515C23.6761 23.2717 24.2253 22.6572 24.4571 22.1171C24.5897 21.8085 24.6302 21.5439 24.6308 20.9829C24.6316 20.3506 24.6007 20.1869 24.404 19.7777C24.2788 19.5173 24.1012 19.2189 24.0091 19.1144L23.8419 18.9247L24.0659 18.3667C24.328 17.7138 24.3035 17.3397 23.9777 17.0153C23.77 16.8086 23.7615 16.8078 21.6615 16.7823L19.5539 16.7566V17.7077ZM16.2143 18.2829C16.307 18.4076 16.3828 18.5643 16.3828 18.6311C16.3828 18.7959 16.0145 19.1751 15.8543 19.1751C15.7832 19.1751 15.6352 19.08 15.5254 18.9638C15.4157 18.8476 15.3258 18.6909 15.3258 18.6156C15.3258 18.4233 15.693 18.056 15.8854 18.056C15.9736 18.056 16.1217 18.1581 16.2143 18.2829ZM31.8613 19.648C27.8294 20.5763 25.9084 25.5267 28.1628 29.1785C29.2516 30.9421 31.1131 32.0041 33.108 32C34.0936 31.9979 34.8328 31.8152 35.6939 31.3609C36.6157 30.8746 37.2403 30.3454 37.7619 29.6089C38.612 28.4085 38.987 27.2307 38.987 25.7605C38.987 24.8076 38.8025 23.8508 38.4967 23.2158L38.3215 22.8525L39.1607 21.9609L40 21.0695L39.3529 20.3803L38.7058 19.6912L37.9618 20.4757L37.2178 21.26L36.7405 20.8479C35.4767 19.7569 33.4999 19.2708 31.8613 19.648ZM16.2128 20.5054C16.6686 20.7549 16.7268 21.422 16.3221 21.759C15.9434 22.0743 15.4256 21.9534 15.2029 21.4975C15.0424 21.1687 15.1152 20.8687 15.4222 20.5952C15.6983 20.3493 15.8883 20.3277 16.2128 20.5054ZM34.3687 21.6619C34.9199 21.8637 35.4738 22.1954 35.7171 22.4696L35.893 22.6678L34.5135 24.1264L33.134 25.585L32.5633 24.9855L31.9928 24.3861L31.3413 25.0757L30.6899 25.7654L31.7353 26.8605C32.7531 27.9266 32.7901 27.9556 33.1353 27.9556C33.4883 27.9556 33.4977 27.9474 35.219 26.1322C36.3485 24.9411 36.9616 24.3516 36.9873 24.4321C37.604 26.3642 36.7529 28.6026 35.0348 29.5675C33.3866 30.493 31.5778 30.196 30.2397 28.78C29.5773 28.079 29.2784 27.4878 29.0889 26.5035C28.9155 25.6038 29.0308 24.8076 29.4722 23.8562C30.3635 21.9347 32.4993 20.9775 34.3687 21.6619Z" fill="#5D5D5D"/>
<g opacity="0.3" filter="url(#filter0_f)">
<ellipse cx="24.746" cy="51.5608" rx="20.5541" ry="1.43899" fill="black"/>
</g>
<defs>
<filter id="filter0_f" x="0.191895" y="46.1218" width="49.1081" height="10.878" filterUnits="userSpaceOnUse" color-interpolation-filters="sRGB">
<feFlood flood-opacity="0" result="BackgroundImageFix"/>
<feBlend mode="normal" in="SourceGraphic" in2="BackgroundImageFix" result="shape"/>
<feGaussianBlur stdDeviation="2" result="effect1_foregroundBlur"/>
</filter>
</defs>
</svg>
