<svg width="50" height="57" viewBox="0 0 50 57" fill="none" xmlns="http://www.w3.org/2000/svg">
<ellipse cx="24.2686" cy="21.3426" rx="21.2686" ry="21.3426" fill="#005365" fill-opacity="0.06"/>
<path fill-rule="evenodd" clip-rule="evenodd" d="M12.8912 13.2925C12.534 13.3914 12.1758 13.6476 11.9436 13.9698C11.5879 14.4637 11.5957 14.3516 11.5957 18.9484C11.5957 23.1461 11.5984 23.2331 11.736 23.5354C11.9399 23.9832 12.1896 24.2543 12.5827 24.4543L12.9295 24.6307H18.7391H24.5486L24.4962 24.3056C24.4674 24.1267 24.4419 23.8032 24.4398 23.5867L24.4358 23.1931H18.8706C13.3949 23.1931 13.3033 23.1909 13.1714 23.0561C13.0404 22.9224 13.0373 22.8279 13.0373 18.9248C13.0373 15.142 13.0438 14.9244 13.1599 14.8171C13.2726 14.713 13.9362 14.7038 21.3362 14.7038H29.3899L29.4942 14.856C29.5778 14.9777 29.5986 15.2191 29.5986 16.0633V17.1186L29.9097 17.075C30.0808 17.0511 30.3976 17.0315 30.6138 17.0315H31.0067L31.0052 15.8163C31.0039 14.7883 30.9849 14.5589 30.8815 14.3273C30.6995 13.9198 30.4268 13.6238 30.0425 13.4168L29.6992 13.2319L21.4521 13.2187C14.9624 13.2083 13.1381 13.2241 12.8912 13.2925ZM15.8284 16.0366C15.0461 16.3214 14.5507 17.2741 14.7677 18.0766C14.8285 18.3017 14.8133 18.3727 14.63 18.7183C14.0662 19.7811 14.4801 21.0827 15.5534 21.622C16.0506 21.8718 16.8158 21.8617 17.3407 21.5986C18.0191 21.2584 18.4027 20.6609 18.4536 19.8649C18.4875 19.3359 18.4103 18.9912 18.1718 18.6061C18.0661 18.4354 18.0373 18.3173 18.0716 18.1954C18.3832 17.0874 17.5599 15.9304 16.466 15.9391C16.2581 15.9408 15.9712 15.9847 15.8284 16.0366ZM25.9601 16.0751C25.1196 16.2906 24.3687 17.1676 24.3687 17.9337V18.1269H25.0646H25.7605L25.8449 17.9188C26.0212 17.4841 26.483 17.3775 26.8444 17.688C26.9579 17.7855 27.0507 17.9108 27.0507 17.9665C27.0507 18.0469 27.0905 18.0389 27.2435 17.9276C27.3496 17.8505 27.6499 17.6829 27.9111 17.5551L28.3859 17.3227L28.1989 17.0217C27.7278 16.2632 26.7836 15.8639 25.9601 16.0751ZM19.4741 16.9598V17.7161H20.4782H21.4822L21.2492 18.2381C21.1211 18.5253 21.0162 18.7717 21.0162 18.7858C21.0162 18.7999 21.1549 18.8115 21.3244 18.8115C21.7078 18.8115 21.9868 18.974 22.1292 19.2805C22.3525 19.7609 21.9817 20.3168 21.4376 20.3174C21.183 20.3177 20.7679 19.9819 20.7355 19.7496C20.7155 19.6059 20.6794 19.5979 19.9711 19.5796L19.2277 19.5603L19.2776 19.935C19.3695 20.627 19.8311 21.2714 20.4936 21.6326C20.7387 21.7662 20.8813 21.7896 21.4521 21.7895C22.0485 21.7895 22.1598 21.7694 22.4605 21.6074C22.8733 21.3849 23.3262 20.8962 23.5174 20.4666C23.6267 20.2212 23.6601 20.0108 23.6606 19.5646C23.6612 19.0617 23.6358 18.9315 23.4736 18.6061C23.3703 18.399 23.2238 18.1617 23.1479 18.0786L23.01 17.9277L23.1947 17.484C23.4109 16.9647 23.3907 16.6672 23.122 16.4092C22.9508 16.2448 22.9438 16.2441 21.2121 16.2239L19.4741 16.2035V16.9598ZM16.7201 17.4173C16.7966 17.5165 16.8591 17.6411 16.8591 17.6942C16.8591 17.8253 16.5554 18.1269 16.4233 18.1269C16.3646 18.1269 16.2426 18.0512 16.1521 17.9588C16.0616 17.8664 15.9875 17.7418 15.9875 17.6819C15.9875 17.5289 16.2903 17.2369 16.4489 17.2369C16.5217 17.2369 16.6438 17.3181 16.7201 17.4173ZM29.623 18.503C26.2982 19.2412 24.7141 23.1783 26.5732 26.0826C27.471 27.4852 29.006 28.3298 30.6511 28.3265C31.4638 28.3249 32.0734 28.1795 32.7835 27.8183C33.5436 27.4315 34.0587 27.0106 34.4888 26.4249C35.1898 25.4702 35.499 24.5335 35.499 23.3642C35.499 22.6064 35.3469 21.8455 35.0947 21.3405L34.9503 21.0515L35.6423 20.3424L36.3344 19.6335L35.8007 19.0854L35.2671 18.5373L34.6536 19.1612L34.0401 19.785L33.6465 19.4572C32.6044 18.5896 30.9743 18.203 29.623 18.503ZM16.7189 19.1848C17.0948 19.3833 17.1428 19.9138 16.809 20.1818C16.4968 20.4326 16.0698 20.3364 15.8862 19.9739C15.7537 19.7124 15.8138 19.4738 16.067 19.2563C16.2946 19.0607 16.4513 19.0435 16.7189 19.1848ZM31.6907 20.1046C32.1452 20.2651 32.602 20.5289 32.8026 20.747L32.9476 20.9047L31.8101 22.0647L30.6725 23.2247L30.2019 22.7479L29.7314 22.2711L29.1942 22.8197L28.6571 23.3681L29.5192 24.2391C30.3584 25.087 30.3889 25.11 30.6736 25.11C30.9647 25.11 30.9724 25.1035 32.3918 23.6599C33.3232 22.7126 33.8289 22.2438 33.85 22.3078C34.3586 23.8443 33.6567 25.6246 32.24 26.3919C30.8808 27.128 29.3892 26.8918 28.2858 25.7656C27.7396 25.2082 27.4931 24.738 27.3368 23.9552C27.1939 23.2396 27.2889 22.6064 27.6529 21.8498C28.3879 20.3216 30.1492 19.5603 31.6907 20.1046Z" fill="#5D5D5D"/>
<g opacity="0.3" filter="url(#filter0_f)">
<ellipse cx="24.746" cy="51.5608" rx="20.5541" ry="1.43899" fill="black"/>
</g>
<defs>
<filter id="filter0_f" x="0.191895" y="46.1218" width="49.1081" height="10.878" filterUnits="userSpaceOnUse" color-interpolation-filters="sRGB">
<feFlood flood-opacity="0" result="BackgroundImageFix"/>
<feBlend mode="normal" in="SourceGraphic" in2="BackgroundImageFix" result="shape"/>
<feGaussianBlur stdDeviation="2" result="effect1_foregroundBlur"/>
</filter>
</defs>
</svg>
