<svg width="37" height="35" viewBox="0 0 37 35" fill="none" xmlns="http://www.w3.org/2000/svg">
<mask id="path-1-outside-1" maskUnits="userSpaceOnUse" x="0" y="0" width="37" height="21" fill="black">
<rect fill="white" width="37" height="21"/>
<path d="M34.1528 18.0764C34.1528 15.9652 33.7369 13.8747 32.929 11.9242C32.1211 9.97374 30.9369 8.2015 29.4441 6.70867C27.9513 5.21583 26.179 4.03166 24.2286 3.22374C22.2781 2.41583 20.1876 2 18.0764 2C15.9652 2 13.8747 2.41583 11.9242 3.22374C9.97374 4.03166 8.2015 5.21584 6.70866 6.70867C5.21583 8.2015 4.03166 9.97374 3.22374 11.9242C2.41583 13.8747 2 15.9652 2 18.0764L18.0764 18.0764H34.1528Z"/>
</mask>
<path d="M34.1528 18.0764C34.1528 15.9652 33.7369 13.8747 32.929 11.9242C32.1211 9.97374 30.9369 8.2015 29.4441 6.70867C27.9513 5.21583 26.179 4.03166 24.2286 3.22374C22.2781 2.41583 20.1876 2 18.0764 2C15.9652 2 13.8747 2.41583 11.9242 3.22374C9.97374 4.03166 8.2015 5.21584 6.70866 6.70867C5.21583 8.2015 4.03166 9.97374 3.22374 11.9242C2.41583 13.8747 2 15.9652 2 18.0764L18.0764 18.0764H34.1528Z" fill="white"/>
<path d="M34.1528 18.0764C34.1528 15.9652 33.7369 13.8747 32.929 11.9242C32.1211 9.97374 30.9369 8.2015 29.4441 6.70867C27.9513 5.21583 26.179 4.03166 24.2286 3.22374C22.2781 2.41583 20.1876 2 18.0764 2C15.9652 2 13.8747 2.41583 11.9242 3.22374C9.97374 4.03166 8.2015 5.21584 6.70866 6.70867C5.21583 8.2015 4.03166 9.97374 3.22374 11.9242C2.41583 13.8747 2 15.9652 2 18.0764L18.0764 18.0764H34.1528Z" stroke="#FCD833" stroke-width="4" mask="url(#path-1-outside-1)"/>
<circle cx="18.0764" cy="18.5292" r="16.0764" fill="white"/>
<path d="M18.0763 8.79285C18.3345 8.79285 18.5822 8.89543 18.7648 9.07802C18.9474 9.26061 19.0499 9.50826 19.0499 9.76649V10.7401C19.0499 10.9984 18.9474 11.246 18.7648 11.4286C18.5822 11.6112 18.3345 11.7138 18.0763 11.7138C17.8181 11.7138 17.5704 11.6112 17.3878 11.4286C17.2052 11.246 17.1027 10.9984 17.1027 10.7401V9.76649C17.1027 9.50826 17.2052 9.26061 17.3878 9.07802C17.5704 8.89543 17.8181 8.79285 18.0763 8.79285ZM11.0593 11.5122C11.2419 11.3297 11.4895 11.2272 11.7476 11.2272C12.0058 11.2272 12.2534 11.3297 12.436 11.5122L13.4097 12.4859C13.587 12.6695 13.6851 12.9154 13.6829 13.1707C13.6807 13.426 13.5783 13.6702 13.3978 13.8507C13.2173 14.0313 12.9731 14.1336 12.7178 14.1359C12.4625 14.1381 12.2166 14.0399 12.0329 13.8626L11.0593 12.889C10.8768 12.7064 10.7742 12.4588 10.7742 12.2006C10.7742 11.9424 10.8768 11.6948 11.0593 11.5122ZM25.0933 11.5122C25.2759 11.6948 25.3784 11.9424 25.3784 12.2006C25.3784 12.4588 25.2759 12.7064 25.0933 12.889L24.1197 13.8626C24.0299 13.9556 23.9224 14.0298 23.8037 14.0808C23.6849 14.1318 23.5571 14.1587 23.4278 14.1598C23.2985 14.1609 23.1703 14.1363 23.0507 14.0873C22.931 14.0384 22.8223 13.9661 22.7309 13.8747C22.6395 13.7832 22.5672 13.6745 22.5182 13.5549C22.4693 13.4352 22.4446 13.307 22.4458 13.1777C22.4469 13.0485 22.4737 12.9207 22.5248 12.8019C22.5758 12.6831 22.65 12.5757 22.743 12.4859L23.7166 11.5122C23.8992 11.3297 24.1468 11.2272 24.405 11.2272C24.6631 11.2272 24.9108 11.3297 25.0933 11.5122ZM18.0763 14.6347C17.0434 14.6347 16.0528 15.045 15.3224 15.7754C14.5921 16.5058 14.1817 17.4963 14.1817 18.5293C14.1817 19.5622 14.5921 20.5528 15.3224 21.2831C16.0528 22.0135 17.0434 22.4238 18.0763 22.4238C19.1092 22.4238 20.0998 22.0135 20.8302 21.2831C21.5606 20.5528 21.9709 19.5622 21.9709 18.5293C21.9709 17.4963 21.5606 16.5058 20.8302 15.7754C20.0998 15.045 19.1092 14.6347 18.0763 14.6347ZM12.2345 18.5293C12.2346 17.5038 12.5047 16.4965 13.0175 15.6085C13.5303 14.7206 14.2678 13.9832 15.1559 13.4706C16.044 12.958 17.0514 12.6881 18.0768 12.6882C19.1022 12.6883 20.1096 12.9583 20.9976 13.4711C21.8856 13.9839 22.623 14.7214 23.1356 15.6094C23.6483 16.4975 23.9182 17.5049 23.9182 18.5303C23.9181 19.5557 23.6482 20.5631 23.1354 21.4511C22.6227 22.3391 21.8853 23.0765 20.9972 23.5893V25.3447C20.9972 26.1194 20.6895 26.8624 20.1417 27.4101C19.5939 27.9579 18.851 28.2657 18.0763 28.2657C17.3016 28.2657 16.5587 27.9579 16.0109 27.4101C15.4631 26.8624 15.1554 26.1194 15.1554 25.3447V23.5893C14.2671 23.0766 13.5294 22.3391 13.0167 21.4508C12.5039 20.5625 12.2341 19.5549 12.2345 18.5293ZM17.1027 24.2903V25.3447C17.1027 25.603 17.2052 25.8506 17.3878 26.0332C17.5704 26.2158 17.8181 26.3184 18.0763 26.3184C18.3345 26.3184 18.5822 26.2158 18.7648 26.0332C18.9474 25.8506 19.0499 25.603 19.0499 25.3447V24.2903C18.4054 24.3986 17.7472 24.3986 17.1027 24.2903ZM8.3399 18.5293C8.3399 18.271 8.44248 18.0234 8.62508 17.8408C8.80767 17.6582 9.05532 17.5556 9.31355 17.5556H10.2872C10.5454 17.5556 10.7931 17.6582 10.9757 17.8408C11.1582 18.0234 11.2608 18.271 11.2608 18.5293C11.2608 18.7875 11.1582 19.0351 10.9757 19.2177C10.7931 19.4003 10.5454 19.5029 10.2872 19.5029H9.31355C9.05532 19.5029 8.80767 19.4003 8.62508 19.2177C8.44248 19.0351 8.3399 18.7875 8.3399 18.5293ZM24.8918 18.5293C24.8918 18.271 24.9944 18.0234 25.177 17.8408C25.3596 17.6582 25.6072 17.5556 25.8654 17.5556H26.8391C27.0973 17.5556 27.3449 17.6582 27.5275 17.8408C27.7101 18.0234 27.8127 18.271 27.8127 18.5293C27.8127 18.7875 27.7101 19.0351 27.5275 19.2177C27.3449 19.4003 27.0973 19.5029 26.8391 19.5029H25.8654C25.6072 19.5029 25.3596 19.4003 25.177 19.2177C24.9944 19.0351 24.8918 18.7875 24.8918 18.5293Z" fill="#FCD833"/>
</svg>
