<svg width="540" height="160" viewBox="0 0 540 160" fill="none" xmlns="http://www.w3.org/2000/svg">
<path d="M536.418 141.111C536.418 143.125 536.021 145.119 535.249 146.979C534.478 148.839 533.347 150.529 531.922 151.952C530.497 153.376 528.806 154.504 526.944 155.273C525.083 156.042 523.088 156.437 521.073 156.435H18.9263C14.8564 156.439 10.9514 154.827 8.07015 151.954C5.1889 149.08 3.56732 145.18 3.56201 141.111V18.9053C3.56731 14.8346 5.18826 10.9324 8.06893 8.05545C10.9496 5.17854 14.8545 3.56209 18.9263 3.56104H521.069C523.085 3.56104 525.08 3.95795 526.942 4.72912C528.804 5.50029 530.496 6.6306 531.921 8.0555C533.346 9.48039 534.476 11.172 535.247 13.0336C536.018 14.8952 536.414 16.8904 536.414 18.9053L536.418 141.111Z" fill="white"/>
<path d="M521.073 160H18.9262C13.9125 159.999 9.10404 158.01 5.55583 154.468C2.00763 150.927 0.00953966 146.123 0 141.111L0 18.9092C0.00741701 13.8944 2.00419 9.08723 5.55228 5.54232C9.10037 1.99742 13.91 0.00423271 18.9262 0L521.069 0C526.085 0.00634473 530.893 2.00021 534.441 5.54466C537.988 9.0891 539.986 13.895 539.995 18.9092V141.111C540.003 151.53 531.499 160 521.073 160Z" fill="#A6A6A6"/>
<path d="M536.418 141.111C536.418 143.125 536.021 145.119 535.249 146.979C534.478 148.839 533.347 150.529 531.922 151.952C530.497 153.376 528.806 154.504 526.944 155.273C525.083 156.042 523.088 156.437 521.073 156.435H18.9263C14.8564 156.439 10.9514 154.827 8.07015 151.954C5.1889 149.08 3.56732 145.18 3.56201 141.111V18.9053C3.56731 14.8346 5.18826 10.9324 8.06893 8.05545C10.9496 5.17854 14.8545 3.56209 18.9263 3.56104H521.069C523.085 3.56104 525.08 3.95795 526.942 4.72912C528.804 5.50029 530.496 6.6306 531.921 8.0555C533.346 9.48039 534.476 11.172 535.247 13.0336C536.018 14.8952 536.414 16.8904 536.414 18.9053L536.418 141.111Z" fill="black"/>
<path d="M120.577 79.1579C120.461 66.2624 131.139 59.9887 131.627 59.6966C125.58 50.8822 116.207 49.6778 112.913 49.5818C105.041 48.7536 97.4046 54.2911 93.3945 54.2911C89.3043 54.2911 83.1289 49.6618 76.4733 49.7979C67.9087 49.9299 59.8964 54.8873 55.502 62.5854C46.4331 78.2817 53.1968 101.348 61.8855 114.036C66.2318 120.253 71.3106 127.187 77.9581 126.943C84.4617 126.679 86.891 122.802 94.7392 122.802C102.515 122.802 104.797 126.943 111.576 126.787C118.556 126.679 122.95 120.545 127.145 114.276C132.167 107.158 134.184 100.14 134.265 99.7796C134.104 99.7236 120.713 94.6102 120.577 79.1579ZM107.77 41.2355C111.268 36.8623 113.661 30.9127 112.997 24.875C107.934 25.0991 101.603 28.376 97.9569 32.6531C94.7312 36.4222 91.8496 42.5999 92.594 48.4095C98.2811 48.8336 104.12 45.5407 107.77 41.2355Z" fill="white"/>
<path d="M521.073 0H252.108L357.457 160H521.073C526.088 159.996 530.897 158.004 534.444 154.46C537.992 150.917 539.99 146.112 540 141.099V18.9092C539.991 13.8947 537.994 9.08817 534.446 5.54349C530.898 1.99882 526.089 0.00528912 521.073 0V0Z" fill="url(#paint0_linear_431_659)"/>
<path d="M214.776 126.05H205.687L200.708 110.41H183.403L178.66 126.05H169.812L186.961 72.8038H197.55L214.776 126.05ZM199.207 103.848L194.705 89.9445C194.229 88.5242 193.332 85.1792 192.02 79.9138H191.859C191.331 82.1784 190.487 85.5233 189.33 89.9445L184.904 103.848H199.207ZM258.792 106.381C258.792 112.911 257.019 118.072 253.469 121.861C250.291 125.234 246.341 126.919 241.63 126.919C236.544 126.919 232.886 125.106 230.664 121.473V141.619H222.132V100.275C222.132 96.1743 222.024 91.9691 221.816 87.6559H229.32L229.796 93.7416H229.956C232.802 89.1563 237.12 86.8637 242.915 86.8637C247.445 86.8637 251.227 88.6522 254.253 92.2332C257.275 95.8222 258.792 100.535 258.792 106.381ZM250.099 106.693C250.099 102.956 249.258 99.8753 247.569 97.4466C245.725 94.9219 243.247 93.6576 240.141 93.6576C238.036 93.6576 236.123 94.3618 234.414 95.7501C232.701 97.1505 231.581 98.979 231.057 101.244C230.823 102.091 230.69 102.962 230.66 103.84V110.246C230.66 113.035 231.517 115.392 233.23 117.32C234.943 119.241 237.168 120.205 239.905 120.205C243.119 120.205 245.62 118.961 247.409 116.492C249.202 114.015 250.099 110.75 250.099 106.693ZM302.963 106.381C302.963 112.911 301.19 118.072 297.641 121.861C294.459 125.234 290.513 126.919 285.798 126.919C280.711 126.919 277.053 125.106 274.832 121.473V141.619H266.3V100.275C266.3 96.1743 266.192 91.9691 265.983 87.6559H273.487L273.964 93.7416H274.124C276.965 89.1563 281.284 86.8637 287.083 86.8637C291.609 86.8637 295.391 88.6522 298.425 92.2332C301.443 95.8222 302.963 100.535 302.963 106.381ZM294.267 106.693C294.267 102.956 293.422 99.8753 291.733 97.4466C289.888 94.9219 287.419 93.6576 284.313 93.6576C282.208 93.6576 280.295 94.3618 278.578 95.7501C276.865 97.1505 275.749 98.979 275.224 101.244C274.964 102.3 274.824 103.16 274.824 103.84V110.246C274.824 113.035 275.685 115.392 277.39 117.32C279.103 119.237 281.328 120.205 284.073 120.205C287.291 120.205 289.792 118.961 291.577 116.492C293.37 114.015 294.267 110.75 294.267 106.693ZM352.35 111.114C352.35 115.648 350.765 119.333 347.615 122.177C344.15 125.282 339.311 126.839 333.108 126.839C327.377 126.839 322.782 125.734 319.316 123.522L321.289 116.412C325.031 118.628 329.142 119.733 333.616 119.733C336.834 119.733 339.335 119.005 341.12 117.56C342.909 116.112 343.813 114.175 343.813 111.759C343.813 109.594 343.065 107.781 341.596 106.305C340.119 104.833 337.678 103.46 334.248 102.2C324.923 98.723 320.257 93.6376 320.257 86.9477C320.257 82.5785 321.906 79.0015 325.195 76.2048C328.485 73.412 332.848 72.0156 338.274 72.0156C343.121 72.0156 347.159 72.8599 350.365 74.5443L348.224 81.4982C345.206 79.8658 341.8 79.0496 337.99 79.0496C334.981 79.0496 332.619 79.7898 330.93 81.2622C329.51 82.5785 328.789 84.183 328.789 86.0875C328.789 88.1881 329.61 89.9326 331.243 91.3009C332.659 92.5613 335.245 93.9336 338.983 95.4061C343.569 97.2546 346.939 99.4072 349.096 101.88C351.269 104.353 352.35 107.437 352.35 111.114ZM380.633 94.0577H371.228V112.699C371.228 117.44 372.885 119.805 376.207 119.805C377.732 119.805 378.996 119.677 379.997 119.409L380.233 125.886C378.552 126.515 376.339 126.831 373.598 126.831C370.228 126.831 367.594 125.802 365.693 123.746C363.8 121.689 362.848 118.244 362.848 113.395V94.0417H357.245V87.6399H362.848V80.61L371.228 78.0813V87.6399H380.633V94.0577ZM422.984 106.537C422.984 112.439 421.295 117.284 417.925 121.073C414.4 124.974 409.709 126.919 403.862 126.919C398.219 126.919 393.732 125.05 390.387 121.317C387.041 117.576 385.368 112.863 385.368 107.177C385.368 101.228 387.097 96.3543 390.543 92.5653C393.997 88.7722 398.647 86.8757 404.494 86.8757C410.129 86.8757 414.656 88.7482 418.082 92.4853C421.355 96.1102 422.984 100.792 422.984 106.537ZM414.139 106.733C414.139 103.216 413.379 100.199 411.854 97.6747C410.065 94.6258 407.504 93.1014 404.186 93.1014C400.768 93.1014 398.147 94.6258 396.362 97.6747C394.833 100.199 394.073 103.268 394.073 106.893C394.073 110.414 394.833 113.439 396.362 115.956C398.207 119.005 400.78 120.529 404.114 120.529C407.376 120.529 409.933 118.973 411.782 115.88C413.351 113.295 414.139 110.258 414.139 106.733ZM450.731 95.158C449.844 94.9978 448.943 94.9188 448.042 94.9219C445.04 94.9219 442.719 96.0502 441.086 98.3229C439.669 100.323 438.957 102.852 438.957 105.905V126.05H430.424V99.7472C430.432 95.7168 430.349 91.6867 430.176 87.6599H437.608L437.92 95.0059H438.156C439.061 92.4813 440.478 90.4447 442.423 88.9203C444.203 87.5882 446.366 86.8669 448.59 86.8637C449.378 86.8637 450.091 86.9197 450.723 87.0198L450.731 95.158ZM488.892 105.037C488.913 106.333 488.809 107.629 488.58 108.906H462.982C463.078 112.699 464.318 115.604 466.696 117.604C468.853 119.389 471.642 120.285 475.068 120.285C478.858 120.285 482.316 119.685 485.426 118.472L486.763 124.39C483.129 125.974 478.838 126.763 473.888 126.763C467.932 126.763 463.258 125.01 459.856 121.513C456.462 118.012 454.761 113.307 454.761 107.413C454.761 101.628 456.342 96.8064 459.508 92.9614C462.822 88.8563 467.3 86.8037 472.935 86.8037C478.47 86.8037 482.66 88.8563 485.506 92.9614C487.759 96.2143 488.892 100.247 488.892 105.037ZM480.755 102.824C480.815 100.291 480.255 98.1108 479.098 96.2663C477.622 93.8896 475.348 92.7053 472.303 92.7053C469.513 92.7053 467.24 93.8616 465.511 96.1823C464.09 98.0268 463.246 100.243 462.986 102.816L480.755 102.824Z" fill="white"/>
<path d="M180.942 53.9789C178.568 53.9789 176.515 53.8628 174.806 53.6668V27.9237C177.197 27.5546 179.612 27.3726 182.03 27.3796C191.816 27.3796 196.322 32.1929 196.322 40.039C196.322 49.0895 190.999 53.9789 180.942 53.9789ZM182.374 30.6805C181.054 30.6805 179.929 30.7605 178.997 30.9525V50.5219C179.501 50.6019 180.469 50.638 181.83 50.638C188.242 50.638 191.892 46.9889 191.892 40.1551C191.892 34.0614 188.59 30.6805 182.374 30.6805ZM210.366 54.1749C204.851 54.1749 201.277 50.0578 201.277 44.4683C201.277 38.6427 204.927 34.4895 210.678 34.4895C216.113 34.4895 219.767 38.4106 219.767 44.1602C219.767 50.0578 216.001 54.1749 210.366 54.1749ZM210.526 37.5544C207.496 37.5544 205.555 40.3871 205.555 44.3482C205.555 48.2333 207.536 51.0661 210.486 51.0661C213.435 51.0661 215.416 48.0372 215.416 44.2682C215.416 40.4271 213.475 37.5544 210.526 37.5544ZM251.216 34.8776L245.312 53.7468H241.466L239.021 45.5526C238.413 43.5482 237.907 41.5144 237.504 39.4589H237.424C237.116 41.5154 236.532 43.576 235.911 45.5526L233.31 53.7468H229.424L223.869 34.8776H228.179L230.316 43.8481C230.821 45.9847 231.245 48.0012 231.597 49.9057H231.677C231.985 48.3173 232.49 46.3328 233.23 43.8881L235.911 34.8816H239.329L241.895 43.696C242.515 45.8326 243.019 47.9292 243.411 49.9098H243.523C243.796 47.9692 244.224 45.9086 244.804 43.696L247.097 34.8816L251.216 34.8776ZM272.947 53.7468H268.753V42.9118C268.753 39.5749 267.472 37.9024 264.947 37.9024C262.462 37.9024 260.753 40.039 260.753 42.5237V53.7468H256.559V40.2711C256.559 38.6026 256.518 36.8141 256.402 34.8736H260.092L260.289 37.7864H260.405C261.533 35.7699 263.822 34.4895 266.388 34.4895C270.35 34.4895 272.951 37.5183 272.951 42.4477L272.947 53.7468ZM284.514 53.7468H280.315V26.2192H284.514V53.7468ZM299.806 54.1749C294.295 54.1749 290.717 50.0578 290.717 44.4683C290.717 38.6427 294.367 34.4895 300.114 34.4895C305.553 34.4895 309.203 38.4106 309.203 44.1602C309.207 50.0578 305.437 54.1749 299.806 54.1749ZM299.962 37.5544C296.932 37.5544 294.991 40.3871 294.991 44.3482C294.991 48.2333 296.976 51.0661 299.918 51.0661C302.872 51.0661 304.849 48.0372 304.849 44.2682C304.853 40.4271 302.916 37.5544 299.962 37.5544ZM325.74 53.7468L325.436 51.5742H325.324C324.043 53.3227 322.174 54.1749 319.805 54.1749C316.423 54.1749 314.021 51.8063 314.021 48.6214C314.021 43.9641 318.06 41.5555 325.051 41.5555V41.2074C325.051 38.7227 323.735 37.4783 321.133 37.4783C319.272 37.4783 317.639 37.9465 316.203 38.8787L315.35 36.122C317.095 35.0337 319.272 34.4895 321.83 34.4895C326.76 34.4895 329.25 37.0902 329.25 42.2957V49.2456C329.25 51.1501 329.334 52.6265 329.522 53.7508L325.74 53.7468ZM325.164 44.3482C320.505 44.3482 318.168 45.4765 318.168 48.1533C318.168 50.1338 319.372 51.1021 321.045 51.1021C323.178 51.1021 325.164 49.4736 325.164 47.261V44.3482ZM349.617 53.7468L349.421 50.718H349.305C348.1 53.0066 346.075 54.1749 343.245 54.1749C338.695 54.1749 335.325 50.1738 335.325 44.5443C335.325 38.6427 338.819 34.4855 343.589 34.4855C346.115 34.4855 347.904 35.3377 348.912 37.0502H348.996V26.2192H353.195V48.6614C353.195 50.4859 353.239 52.1944 353.351 53.7468H349.617ZM348.996 42.6438C348.996 40.003 347.247 37.7504 344.578 37.7504C341.468 37.7504 339.567 40.5072 339.567 44.3882C339.567 48.1933 341.54 50.798 344.494 50.798C347.131 50.798 348.996 48.5054 348.996 45.7886V42.6438ZM379.813 54.1749C374.302 54.1749 370.728 50.0578 370.728 44.4683C370.728 38.6427 374.378 34.4895 380.125 34.4895C385.564 34.4895 389.214 38.4106 389.214 44.1602C389.218 50.0578 385.452 54.1749 379.813 54.1749ZM379.969 37.5544C376.943 37.5544 375.002 40.3871 375.002 44.3482C375.002 48.2333 376.983 51.0661 379.929 51.0661C382.883 51.0661 384.86 48.0372 384.86 44.2682C384.868 40.4271 382.927 37.5544 379.969 37.5544ZM411.77 53.7468H407.572V42.9118C407.572 39.5749 406.291 37.9024 403.766 37.9024C401.281 37.9024 399.576 40.039 399.576 42.5237V53.7468H395.377V40.2711C395.377 38.6026 395.337 36.8141 395.221 34.8736H398.911L399.107 37.7864H399.223C400.348 35.7699 402.641 34.4855 405.203 34.4855C409.165 34.4855 411.77 37.5143 411.77 42.4437V53.7468ZM439.99 38.0225H435.375V47.185C435.375 49.5176 436.183 50.682 437.816 50.682C438.557 50.682 439.177 50.6019 439.677 50.4859L439.793 53.6708C438.981 53.9829 437.892 54.1389 436.54 54.1389C433.234 54.1389 431.257 52.3144 431.257 47.5371V38.0225H428.503V34.8776H431.257V31.4207L435.375 30.1763V34.8736H439.99V38.0225ZM462.193 53.7468H458.003V42.9918C458.003 39.6149 456.727 37.9065 454.197 37.9065C452.024 37.9065 449.999 39.3829 449.999 42.3717V53.7468H445.809V26.2192H449.999V37.5544H450.083C451.404 35.4978 453.317 34.4855 455.758 34.4855C459.752 34.4855 462.193 37.5904 462.193 42.5237V53.7468ZM484.942 45.3205H472.355C472.435 48.8935 474.8 50.91 478.302 50.91C480.163 50.91 481.876 50.5979 483.389 50.0178L484.041 52.9306C482.256 53.7068 480.155 54.0949 477.71 54.0949C471.807 54.0949 468.313 50.3659 468.313 44.5843C468.313 38.7987 471.891 34.4495 477.238 34.4495C482.06 34.4495 485.086 38.0225 485.086 43.42C485.113 44.0569 485.065 44.6949 484.942 45.3205ZM481.096 42.3317C481.096 39.4189 479.627 37.3623 476.945 37.3623C474.536 37.3623 472.631 39.4589 472.359 42.3317H481.096Z" fill="white"/>
<defs>
<linearGradient id="paint0_linear_431_659" x1="396.049" y1="160.425" x2="396.049" y2="-416.612" gradientUnits="userSpaceOnUse">
<stop stop-color="#1A1A1A" stop-opacity="0.1"/>
<stop offset="0.123" stop-color="#212121" stop-opacity="0.151"/>
<stop offset="0.308" stop-color="#353535" stop-opacity="0.227"/>
<stop offset="0.532" stop-color="#575757" stop-opacity="0.318"/>
<stop offset="0.783" stop-color="#858585" stop-opacity="0.421"/>
<stop offset="1" stop-color="#B3B3B3" stop-opacity="0.51"/>
</linearGradient>
</defs>
</svg>
