<svg width="22" height="21" viewBox="0 0 22 21" fill="none" xmlns="http://www.w3.org/2000/svg">
<path fill-rule="evenodd" clip-rule="evenodd" d="M18.0604 10.6133C18.0604 14.6271 14.8068 17.881 10.7933 17.881C6.77972 17.881 3.52611 14.6271 3.52611 10.6133C3.52611 10.3126 3.54437 10.0161 3.57984 9.72501H1.71162C1.68339 10.0173 1.66895 10.3136 1.66895 10.6133C1.66895 15.6529 5.75404 19.7383 10.7933 19.7383C15.8325 19.7383 19.9176 15.6529 19.9176 10.6133C19.9176 5.57368 15.8325 1.48828 10.7933 1.48828C6.65149 1.48828 3.15426 4.2481 2.03996 8.02921H3.99888C5.04066 5.29114 7.68977 3.34558 10.7933 3.34558C14.8068 3.34558 18.0604 6.59944 18.0604 10.6133Z" fill="#3EA3CE"/>
<path fill-rule="evenodd" clip-rule="evenodd" d="M9.31538 7.98425L10.6434 6.65625L13.453 9.46586L13.4508 9.46807C13.7433 9.67878 13.9425 10.0945 13.9425 10.5727C13.9425 11.0572 13.7383 11.4771 13.4396 11.6853L13.453 11.6988L10.6434 14.5088L9.31538 13.1808L10.9945 11.5014H2.47656V9.72483H11.0557L9.31538 7.98425Z" fill="#3EA3CE"/>
</svg>
