<svg width="25" height="24" viewBox="0 0 25 24" fill="none" xmlns="http://www.w3.org/2000/svg">
<path d="M21.7093 12H19.7093C19.4441 12 19.1897 12.1054 19.0022 12.2929C18.8147 12.4804 18.7093 12.7348 18.7093 13C18.7093 13.2652 18.8147 13.5196 19.0022 13.7071C19.1897 13.8946 19.4441 14 19.7093 14V16H18.5233C18.6421 15.6798 18.7047 15.3415 18.7083 15C18.7083 14.3396 18.4904 13.6977 18.0883 13.1738C17.6863 12.6499 17.1227 12.2733 16.4848 12.1024C15.8469 11.9314 15.1705 11.9758 14.5603 12.2285C13.9502 12.4812 13.4405 12.9281 13.1103 13.5C13.0436 13.6138 13.0001 13.7396 12.9822 13.8703C12.9644 14.0009 12.9725 14.1339 13.0062 14.2614C13.0399 14.3889 13.0985 14.5084 13.1786 14.6132C13.2587 14.7179 13.3588 14.8058 13.473 14.8718C13.5872 14.9377 13.7133 14.9804 13.8441 14.9974C13.9749 15.0144 14.1077 15.0054 14.235 14.9708C14.3623 14.9363 14.4815 14.8769 14.5857 14.7961C14.6899 14.7153 14.7771 14.6147 14.8423 14.5C14.9301 14.348 15.0563 14.2218 15.2083 14.134C15.3603 14.0462 15.5328 14 15.7083 14C15.9735 14 16.2279 14.1054 16.4154 14.2929C16.603 14.4804 16.7083 14.7348 16.7083 15C16.7083 15.2652 16.603 15.5196 16.4154 15.7071C16.2279 15.8946 15.9735 16 15.7083 16C15.4431 16 15.1887 16.1054 15.0012 16.2929C14.8137 16.4804 14.7083 16.7348 14.7083 17C14.7083 17.2652 14.8137 17.5196 15.0012 17.7071C15.1887 17.8946 15.4431 18 15.7083 18C15.9735 18 16.2279 18.1054 16.4154 18.2929C16.603 18.4804 16.7083 18.7348 16.7083 19C16.7083 19.2652 16.603 19.5196 16.4154 19.7071C16.2279 19.8946 15.9735 20 15.7083 20C15.5328 20 15.3603 19.9538 15.2083 19.866C15.0563 19.7783 14.9301 19.652 14.8423 19.5C14.7771 19.3854 14.6899 19.2847 14.5857 19.2039C14.4815 19.1231 14.3623 19.0637 14.235 19.0292C14.1077 18.9946 13.9749 18.9856 13.8441 19.0026C13.7133 19.0196 13.5872 19.0623 13.473 19.1282C13.3588 19.1942 13.2587 19.2821 13.1786 19.3868C13.0985 19.4916 13.0399 19.6112 13.0062 19.7387C12.9725 19.8662 12.9644 19.9991 12.9822 20.1297C13.0001 20.2604 13.0436 20.3862 13.1103 20.5C13.4405 21.0719 13.9502 21.5188 14.5603 21.7715C15.1705 22.0242 15.8469 22.0686 16.4848 21.8976C17.1227 21.7267 17.6863 21.3501 18.0883 20.8262C18.4904 20.3023 18.7083 19.6604 18.7083 19C18.7047 18.6585 18.6421 18.3202 18.5233 18H19.7083V21C19.7083 21.2652 19.8137 21.5196 20.0012 21.7071C20.1887 21.8946 20.4431 22 20.7083 22C20.9735 22 21.2279 21.8946 21.4154 21.7071C21.603 21.5196 21.7083 21.2652 21.7083 21V14C21.9735 14 22.2279 13.8946 22.4154 13.7071C22.603 13.5196 22.7083 13.2652 22.7083 13C22.7083 12.7348 22.603 12.4804 22.4154 12.2929C22.2279 12.1054 21.9735 12 21.7083 12H21.7093ZM9.73932 11.243C9.77046 11.3712 9.82666 11.492 9.90468 11.5983C9.9827 11.7047 10.081 11.7946 10.1939 11.8628C10.3068 11.9311 10.4321 11.9763 10.5626 11.9958C10.693 12.0154 10.8261 12.009 10.9541 11.977C11.082 11.9449 11.2024 11.8878 11.3082 11.8091C11.414 11.7303 11.5032 11.6313 11.5706 11.5179C11.638 11.4045 11.6823 11.2789 11.701 11.1483C11.7197 11.0177 11.7123 10.8847 11.6793 10.757L9.92232 3.727C9.79941 3.23319 9.51483 2.79468 9.11389 2.4813C8.71295 2.16792 8.2187 1.99768 7.70982 1.99768C7.20093 1.99768 6.70668 2.16792 6.30574 2.4813C5.9048 2.79468 5.62022 3.23319 5.49732 3.727L3.73932 10.757C3.70634 10.8847 3.69897 11.0177 3.71763 11.1483C3.73628 11.2789 3.78059 11.4045 3.84801 11.5179C3.91542 11.6313 4.00461 11.7303 4.11043 11.8091C4.21625 11.8878 4.33661 11.9449 4.46457 11.977C4.59254 12.009 4.72559 12.0154 4.85605 11.9958C4.98651 11.9763 5.11181 11.9311 5.22472 11.8628C5.33763 11.7946 5.43593 11.7047 5.51395 11.5983C5.59197 11.492 5.64817 11.3712 5.67932 11.243L6.23832 9H9.17832L9.73932 11.243ZM6.73932 7L7.43632 4.213C7.45734 4.15762 7.49471 4.10993 7.54347 4.07628C7.59223 4.04264 7.65007 4.02461 7.70932 4.02461C7.76856 4.02461 7.8264 4.04264 7.87516 4.07628C7.92392 4.10993 7.96129 4.15762 7.98232 4.213L8.67932 7H6.73932ZM14.7093 7H15.7093C15.9745 7.00027 16.2287 7.10571 16.4161 7.29319C16.6036 7.48067 16.7091 7.73487 16.7093 8V9C16.7093 9.26522 16.8147 9.51958 17.0022 9.70711C17.1897 9.89465 17.4441 10 17.7093 10C17.9745 10 18.2289 9.89465 18.4164 9.70711C18.604 9.51958 18.7093 9.26522 18.7093 9V8C18.7085 7.2046 18.3922 6.442 17.8298 5.87956C17.2673 5.31712 16.5047 5.0008 15.7093 5H14.7093C14.4441 5 14.1897 5.10536 14.0022 5.2929C13.8147 5.48043 13.7093 5.73479 13.7093 6C13.7093 6.26522 13.8147 6.51958 14.0022 6.70711C14.1897 6.89465 14.4441 7 14.7093 7ZM10.7093 16H9.70932C9.44418 15.9997 9.18998 15.8943 9.0025 15.7068C8.81502 15.5193 8.70958 15.2651 8.70932 15V14C8.70932 13.7348 8.60396 13.4804 8.41642 13.2929C8.22889 13.1054 7.97453 13 7.70932 13C7.4441 13 7.18975 13.1054 7.00221 13.2929C6.81467 13.4804 6.70932 13.7348 6.70932 14V15C6.71011 15.7954 7.02644 16.558 7.58887 17.1204C8.15131 17.6829 8.91391 17.9992 9.70932 18H10.7093C10.9745 18 11.2289 17.8946 11.4164 17.7071C11.604 17.5196 11.7093 17.2652 11.7093 17C11.7093 16.7348 11.604 16.4804 11.4164 16.2929C11.2289 16.1054 10.9745 16 10.7093 16Z" fill="black"/>
</svg>
