<svg width="39" height="34" viewBox="0 0 39 34" fill="none" xmlns="http://www.w3.org/2000/svg">
<path fill-rule="evenodd" clip-rule="evenodd" d="M16.2192 1.82012C11.0133 2.28447 6.22051 5.59084 3.95986 10.2775C0.877323 16.6676 2.80809 24.4869 8.50971 28.7035C16.2513 34.4286 27.3609 31.793 31.5376 23.2404C32.9629 20.3219 33.3575 17.3248 32.766 13.9075C32.6795 13.4073 32.5609 12.969 32.5024 12.9335C32.444 12.8981 31.8254 13.4382 31.1279 14.1337L29.8597 15.3983L29.7798 17.1429C29.6851 19.2099 29.4409 20.1809 28.5733 21.9404C27.8251 23.458 26.6819 24.8771 25.3606 25.9286C19.2511 30.7906 10.2084 28.7313 6.83368 21.7094C5.97184 19.9163 5.789 19.019 5.79921 16.6341C5.80779 14.6679 5.83989 14.433 6.27643 13.1449C7.5924 9.26213 10.6465 6.40061 14.6841 5.26737C15.6235 5.0038 16.2223 4.94041 17.7724 4.94041C20.078 4.94041 21.3319 5.23815 23.3604 6.26788L24.6786 6.93692L25.8069 5.8281C27.0995 4.55777 27.1279 4.70912 25.4161 3.74728C22.6011 2.16569 19.5388 1.52399 16.2192 1.82012ZM26.1297 10.02L17.7746 18.2319L15.626 16.1238L13.4772 14.0156L12.3326 15.1471L11.188 16.2786L14.1189 19.1459L17.0496 22.0131H17.7783H18.507L27.6464 13.0347L36.7857 4.05621L35.6351 2.93214L34.4847 1.80806L26.1297 10.02Z" fill="#0BA11B"/>
</svg>
