<svg width="30" height="30" viewBox="0 0 30 30" fill="none" xmlns="http://www.w3.org/2000/svg">
<circle cx="15" cy="15" r="15" fill="#EDEDED"/>
<path fill-rule="evenodd" clip-rule="evenodd" d="M16.315 10.4873H9.09218C8.57849 10.4873 8.52768 10.5358 8.52768 11.0339V18.1953C8.52768 18.6698 8.58836 18.728 9.07384 18.728H20.8739C21.3763 18.728 21.4384 18.6725 21.4384 18.1731C21.4384 17.5174 21.4392 16.8616 21.44 16.2059C21.4415 14.8944 21.4431 13.5829 21.4384 12.2714C21.4384 11.9717 21.5245 11.8885 21.818 11.912C22.1325 11.9294 22.4477 11.9294 22.7621 11.912C22.9273 11.912 22.9724 11.9675 22.9724 12.1229C22.9724 12.2908 22.9827 17.7341 23 17.9361C23 19.7759 22.141 20.1847 20.5779 20.1847C19.0148 20.1847 13.6096 20.2 13.6096 20.2H8.88191C7.8277 20.1972 7.02329 19.4675 7.01482 18.4256C6.99506 15.8729 6.99506 13.3202 7.01482 10.7675C7.0247 9.75335 7.83617 9.00003 8.8692 9.00003H21.1067C21.475 8.99806 21.8354 9.10512 22.141 9.30728C22.4466 9.50943 22.6832 9.79732 22.82 10.1335C22.9512 10.4609 22.9357 10.4845 22.5801 10.4845H16.315V10.4873Z" fill="#00A6CA"/>
<path fill-rule="evenodd" clip-rule="evenodd" d="M11.5199 11.792C10.5308 12.026 9.62828 12.9047 9.36591 13.8892C9.26224 14.2782 9.25756 15.0327 9.35666 15.3943C9.466 15.7933 9.73486 16.2786 10.016 16.5842C10.519 17.1426 11.5199 17.5738 12.2236 17.5738C13.5562 17.5707 14.8179 16.6353 15.1541 15.4014C15.2573 15.0224 15.2514 14.2177 15.1427 13.8563C14.9905 13.3501 14.6947 12.8682 14.3211 12.5176C13.584 11.8258 12.5305 11.5529 11.5199 11.792ZM12.9851 13.0383C13.3552 13.1974 13.7536 13.5858 13.917 13.9466C14.0925 14.3343 14.1075 14.7014 13.9666 15.1548C13.6705 16.1078 12.588 16.631 11.6341 16.2822C10.6792 15.933 10.1915 14.8387 10.5943 13.9488C10.7426 13.6211 11.1196 13.2331 11.4472 13.0708C11.9742 12.8098 12.4311 12.8001 12.9851 13.0383Z" fill="#00A6CA"/>
<path d="M20.1833 12.1582C20.4769 12.1582 20.7148 12.3827 20.7148 12.6596L20.7148 13.0106C20.7148 13.2876 20.4769 13.5121 20.1833 13.5121L16.675 13.5121C16.3814 13.5121 16.1434 13.2876 16.1434 13.0106L16.1434 12.6596C16.1434 12.3827 16.3814 12.1582 16.675 12.1582L20.1833 12.1582Z" fill="#00A6CA"/>
<path d="M18.3908 14.8672C18.6647 14.8672 18.8867 15.0917 18.8867 15.3686L18.8867 15.7196C18.8867 15.9966 18.6647 16.2211 18.3908 16.2211L16.6398 16.2211C16.3659 16.2211 16.1439 15.9966 16.1439 15.7196L16.1439 15.3686C16.1439 15.0917 16.3659 14.8672 16.6398 14.8672L18.3908 14.8672Z" fill="#00A6CA"/>
</svg>
