<svg width="30" height="30" viewBox="0 0 30 30" fill="none" xmlns="http://www.w3.org/2000/svg">
<circle cx="15" cy="15" r="15" fill="#EDEDED"/>
<path fill-rule="evenodd" clip-rule="evenodd" d="M16.315 10.4873H9.09218C8.57849 10.4873 8.52768 10.5358 8.52768 11.0339V18.1953C8.52768 18.6698 8.58836 18.728 9.07384 18.728H20.8739C21.3763 18.728 21.4384 18.6725 21.4384 18.1731C21.4384 17.5174 21.4392 16.8616 21.44 16.2059C21.4415 14.8944 21.4431 13.5829 21.4384 12.2714C21.4384 11.9717 21.5245 11.8885 21.818 11.912C22.1325 11.9294 22.4477 11.9294 22.7621 11.912C22.9273 11.912 22.9724 11.9675 22.9724 12.1229C22.9724 12.2908 22.9827 17.7341 23 17.9361C23 19.7759 22.141 20.1847 20.5779 20.1847C19.0148 20.1847 13.6096 20.2 13.6096 20.2H8.88191C7.8277 20.1972 7.02329 19.4675 7.01482 18.4256C6.99506 15.8729 6.99506 13.3202 7.01482 10.7675C7.0247 9.75335 7.83617 9.00003 8.8692 9.00003H21.1067C21.475 8.99806 21.8354 9.10512 22.141 9.30728C22.4466 9.50943 22.6832 9.79732 22.82 10.1335C22.9512 10.4609 22.9357 10.4845 22.5801 10.4845H16.315V10.4873Z" fill="#00A6CA"/>
<path fill-rule="evenodd" clip-rule="evenodd" d="M14.714 16.4258L7.60742 12.918L8.22074 11.707L15.2234 15.1636L21.4011 12.0159C21.7327 11.847 22.1384 11.9764 22.3108 12.3062C22.4858 12.6409 22.3539 13.054 22.0174 13.2254L15.7492 16.4192C15.425 16.5844 15.0403 16.5869 14.714 16.4258Z" fill="#00A6CA"/>
</svg>
