<svg width="30" height="30" viewBox="0 0 30 30" fill="none" xmlns="http://www.w3.org/2000/svg">
<circle cx="15" cy="15" r="15" fill="#EDEDED"/>
<path d="M14.4668 11.6077C14.4668 11.3249 14.7321 11.0957 15.0594 11.0957H15.4742C15.8015 11.0957 16.0668 11.3249 16.0668 11.6077V14.9869C16.0668 15.2696 15.8015 15.4989 15.4742 15.4989H15.0594C14.7321 15.4989 14.4668 15.2696 14.4668 14.9869V11.6077Z" fill="#00A6CA"/>
<path d="M14.4668 16.6764C14.4668 16.3937 14.7321 16.1644 15.0594 16.1644H15.4742C15.8015 16.1644 16.0668 16.3937 16.0668 16.6764V17.3932C16.0668 17.676 15.8015 17.9052 15.4742 17.9052H15.0594C14.7321 17.9052 14.4668 17.676 14.4668 17.3932V16.6764Z" fill="#00A6CA"/>
<path fill-rule="evenodd" clip-rule="evenodd" d="M16.3301 10.482H9.09559C8.58106 10.482 8.53017 10.5304 8.53017 11.0267V18.1631C8.53017 18.6359 8.59095 18.6939 9.07721 18.6939H20.8965C21.3997 18.6939 21.4619 18.6386 21.4619 18.141C21.4619 17.4875 21.4627 16.8341 21.4635 16.1806C21.465 14.8737 21.4666 13.5668 21.4619 12.2599C21.4619 11.9613 21.5481 11.8783 21.8421 11.9018C22.1571 11.9191 22.4728 11.9191 22.7878 11.9018C22.9532 11.9018 22.9984 11.9571 22.9984 12.112C22.9984 13.1681 22.9988 14.2203 22.9992 15.2738C22.9995 16.0045 22.9998 16.7359 22.9999 17.4699L23 18.4527V19.3575C23 20.5802 21.9865 21.5714 20.7363 21.5714H19.7125C19.5465 21.5714 19.412 21.4398 19.412 21.2775V20.1555C18.1394 20.1572 17.9335 20.1579 16.6609 20.1455L13.6204 20.1607H8.88497C7.82905 20.158 7.02332 19.4308 7.01484 18.3926C6.99505 15.8488 6.99505 13.3051 7.01484 10.7613C7.02474 9.75071 7.83753 9.00003 8.87225 9.00003H21.1297C21.4986 8.99807 21.8596 9.10476 22.1657 9.3062C22.4717 9.50765 22.7087 9.79453 22.8458 10.1295C22.9772 10.4558 22.9617 10.4793 22.6055 10.4793H16.3301V10.482Z" fill="#00A6CA"/>
</svg>
