<svg width="90" height="36" viewBox="0 0 90 36" fill="none" xmlns="http://www.w3.org/2000/svg">
<path d="M0.125 35.9181V28.6082C1.05606 28.6082 2.06368 28.5977 2.9945 28.6082C4.48889 28.6082 5.56887 29.6305 5.56887 31.0382C5.56887 32.4464 4.48889 33.4454 2.9945 33.4454H0.654495V35.9178H0.125V35.9181ZM2.9945 32.9558C4.13745 32.9558 5.03814 32.1847 5.03814 31.0268C5.03814 29.8704 4.17129 29.0874 2.9945 29.0874H0.654495V32.9555H2.9945V32.9558Z" fill="#00A6CA"/>
<path d="M8.07589 35.9991C7.18582 35.9991 6.26562 35.5415 6.26562 34.5824C6.26562 33.4882 7.23941 32.9543 8.26679 32.9543C8.90076 32.9543 9.54904 33.0808 10.142 33.3301V32.4544C10.142 31.4753 9.22996 31.2537 8.41572 31.2537C7.823 31.2537 7.2083 31.3897 6.77438 31.642L6.65731 31.2238C7.13272 30.9621 7.81213 30.8066 8.48017 30.8066C9.5814 30.8066 10.6191 31.2134 10.6191 32.4639V34.7592C10.6191 35.3644 10.5853 35.7084 11.263 35.6244L11.2842 35.9684C10.4156 36.1039 10.184 35.8015 10.2144 35.0105C9.8128 35.7402 8.92274 35.9991 8.07589 35.9991ZM10.1418 33.7587C9.55793 33.4656 8.93336 33.351 8.32977 33.362C7.56739 33.362 6.76302 33.7183 6.76302 34.5408C6.76302 35.3119 7.44958 35.5726 8.15936 35.5726C8.98695 35.5726 9.91875 35.2087 10.1415 34.342V33.7587H10.1418Z" fill="#00A6CA"/>
<path d="M14.6278 30.8192C15.1254 30.8277 15.5712 30.9632 15.911 31.204L15.729 31.6431C15.4018 31.4017 14.9792 31.2972 14.5636 31.2972C13.8029 31.2972 13.0709 31.8097 13.0709 32.6654V35.9174H12.5634V32.0488C12.5634 31.5589 12.5518 31.2458 11.9062 31.3305L11.8867 30.8805C12.7 30.7455 13.0299 31.049 13.0299 31.6326C13.3678 31.0376 14.0366 30.7868 14.6278 30.8192Z" fill="#00A6CA"/>
<path d="M17.9754 30.8901H19.9551V31.3178H17.9754V34.029C17.9754 35.0704 18.3054 35.5009 18.9687 35.5104C19.2898 35.5104 19.6795 35.4272 20.1334 35.2701L20.2102 35.6977C19.7331 35.8636 19.2979 35.9385 18.9386 35.9385C17.9846 35.9385 17.4684 35.3642 17.4684 34.0395V31.3178L16.3027 31.2859V30.8901H17.4684L17.5102 29.3574H17.9757V30.8901H17.9754Z" fill="#00A6CA"/>
<path d="M26.3458 35.9991C25.0013 35.9991 23.668 35.1243 23.668 33.3931C23.668 31.6505 25.0127 30.8066 26.3567 30.8066C27.7002 30.8066 29.0254 31.6624 29.0254 33.3931C29.0254 35.1246 27.6807 35.9991 26.3458 35.9991ZM26.3458 35.5529C27.4258 35.5529 28.5181 34.8232 28.5181 33.3931C28.5181 31.965 27.4364 31.2766 26.3567 31.2661C25.2661 31.2537 24.1765 31.9545 24.1765 33.3931C24.1765 34.8232 25.2572 35.5529 26.3458 35.5529Z" fill="#00A6CA"/>
<path d="M30.8667 31.33H29.6699V30.8909H30.8667V29.9836C30.8667 28.1806 32.3075 27.9294 33.6717 28.5017L33.5665 28.9084C32.5179 28.4613 31.3757 28.5246 31.3757 29.995V30.8912H33.3455V31.3302H31.3757V35.9172H30.8665V31.33H30.8667Z" fill="#00A6CA"/>
<path d="M35.8633 29.0986V28.6172H41.2615V29.0986H38.8264V35.9181H38.2976V29.0986H35.8633Z" fill="#00A6CA"/>
<path d="M43.6517 30.8192C44.1494 30.8277 44.5949 30.9632 44.933 31.204L44.7534 31.6431C44.4255 31.4017 44.0019 31.2972 43.589 31.2972C42.8266 31.2972 42.0963 31.8097 42.0963 32.6654V35.9174H41.5878V32.0488C41.5878 31.5589 41.5772 31.2458 40.9316 31.3305L40.9102 30.8805C41.7251 30.7455 42.0534 31.049 42.0534 31.6326C42.3917 31.0376 43.0588 30.7868 43.6517 30.8192Z" fill="#00A6CA"/>
<path d="M47.2436 35.9991C46.3535 35.9991 45.4336 35.5415 45.4336 34.5824C45.4336 33.4882 46.4061 32.9543 47.4338 32.9543C48.0685 32.9543 48.7133 33.0808 49.3072 33.3301V32.4544C49.3072 31.4753 48.3959 31.2537 47.5817 31.2537C46.989 31.2537 46.3735 31.3897 45.9404 31.642L45.8243 31.2238C46.3004 30.9621 46.9781 30.8066 47.6452 30.8066C48.7474 30.8066 49.7851 31.2134 49.7851 32.4639V34.7592C49.7851 35.3644 49.753 35.7084 50.4297 35.6244L50.4502 35.9684C49.5836 36.1039 49.35 35.8015 49.3803 35.0105C48.9808 35.7402 48.0907 35.9991 47.2436 35.9991ZM49.3072 33.7587C48.7242 33.4656 48.1016 33.351 47.497 33.362C46.7336 33.362 45.9293 33.7183 45.9293 34.5408C45.9293 35.3119 46.6178 35.5726 47.3276 35.5726C48.1524 35.5726 49.084 35.2087 49.3072 34.342V33.7587Z" fill="#00A6CA"/>
<path d="M55.6066 35.9167V32.8612C55.6066 31.8598 54.929 31.2767 53.9446 31.2767C52.9379 31.2767 52.2077 31.9018 52.2077 32.9451V35.9164H51.7001V32.1945C51.7001 31.3896 51.6137 31.2239 51.0519 31.3066L51.043 30.87C51.8152 30.7549 52.1756 30.9208 52.1756 31.7248C52.6322 31.0782 53.2563 30.7955 54.0606 30.807C55.35 30.807 56.1151 31.6508 56.1151 32.8612V35.9167H55.6066Z" fill="#00A6CA"/>
<path d="M57.879 34.5189C57.9664 35.2496 58.8026 35.5836 59.6285 35.5836C60.4649 35.5836 61.3234 35.2815 61.3234 34.5612C61.3234 33.632 60.3168 33.632 59.6391 33.5493C58.6209 33.4352 57.533 33.2581 57.533 32.2243C57.533 31.1825 58.5485 30.8066 59.5981 30.8066C60.6556 30.8066 61.6608 31.2352 61.6608 32.1302H61.1942C61.1942 31.505 60.4007 31.2236 59.6053 31.2236C58.833 31.2236 57.9439 31.5048 57.9965 32.2141C57.9965 32.9871 59.1093 33.0479 59.7003 33.1319C60.7704 33.2768 61.8413 33.3717 61.8084 34.561C61.8084 35.5639 60.7704 35.9986 59.6166 35.9986C58.5366 35.9986 57.4989 35.5833 57.3828 34.5186H57.879V34.5189Z" fill="#00A6CA"/>
<path d="M63.1699 33.4163V28.6172H63.7011V33.4053C63.7011 34.7502 64.6216 35.5123 65.9564 35.5123C67.2787 35.5123 68.189 34.7502 68.189 33.4053V28.6172H68.7081V33.4163C68.7081 35.0426 67.5758 36.0008 65.9564 36.0008C64.3265 36.0008 63.1699 35.0426 63.1699 33.4163Z" fill="#00A6CA"/>
<path d="M74.5408 35.9167V32.8612C74.5408 31.8598 73.8623 31.2767 72.8779 31.2767C71.872 31.2767 71.1427 31.9018 71.1427 32.9451V35.9164H70.6328V32.1945C70.6328 31.3896 70.5498 31.2239 69.9872 31.3066L69.9766 30.87C70.7506 30.7549 71.1099 30.9208 71.1099 31.7248C71.5648 31.0782 72.1896 30.7955 72.994 30.807C74.2869 30.807 75.0485 31.6508 75.0485 32.8612V35.9167H74.5408Z" fill="#00A6CA"/>
<path d="M76.997 28.7719C77.1672 28.7833 77.3369 28.8991 77.3369 29.1273C77.3369 29.3576 77.1781 29.4707 77.0069 29.4831C76.8284 29.4921 76.6367 29.3671 76.6367 29.1273C76.6367 28.8877 76.8167 28.7636 76.997 28.7719ZM77.2297 35.9164H76.7338V30.8903H77.2297V35.9164Z" fill="#00A6CA"/>
<path d="M81.3173 35.9991C79.9689 35.9991 78.6367 35.1243 78.6367 33.3931C78.6367 31.6505 79.9805 30.8066 81.3252 30.8066C82.6707 30.8066 83.9941 31.6624 83.9941 33.3931C83.9941 35.1246 82.6477 35.9991 81.3173 35.9991ZM81.3173 35.5529C82.3933 35.5529 83.4849 34.8232 83.4849 33.3931C83.4849 31.965 82.4049 31.2766 81.3252 31.2661C80.2356 31.2537 79.145 31.9545 79.145 33.3931C79.145 34.8232 80.224 35.5529 81.3173 35.5529Z" fill="#00A6CA"/>
<path d="M89.4262 35.9167V32.8612C89.4262 31.8598 88.7493 31.2767 87.7649 31.2767C86.7573 31.2767 86.0277 31.9018 86.0277 32.9451V35.9164H85.5195V32.1945C85.5195 31.3896 85.4338 31.2239 84.8722 31.3066L84.8633 30.87C85.6355 30.7549 85.9956 30.9208 85.9956 31.7248C86.4505 31.0782 87.0746 30.7955 87.8807 30.807C89.1721 30.807 89.9335 31.6508 89.9335 32.8612V35.9167H89.4262Z" fill="#00A6CA"/>
<path d="M12.6659 0C17.5398 0 22.5912 2.66237 23.9075 8.19946H19.9242C18.6775 5.153 15.9044 3.74872 12.6311 3.71393C7.54382 3.71393 4.16063 7.35757 4.16063 12.5809C4.16063 17.4495 7.54382 21.3371 12.6311 21.3371C16.0471 21.3371 18.9272 19.6918 20.0294 16.4322H24.051C22.8053 22.4261 17.6825 25.0537 12.6311 25.0537C5.87112 25.0537 0 20.4639 0 12.5809C0 4.65969 5.87112 0 12.6659 0Z" fill="#00A6CA"/>
<path d="M37.0665 21.5155V24.8078H25.043V21.5155H28.9922V3.53956H25.3623V0.277344H36.7472V3.53956H33.1183V21.5155H37.0665Z" fill="#00A6CA"/>
<path d="M54.744 11.9144C57.3434 12.7906 58.7647 14.823 58.7647 17.5904C58.7647 21.9721 55.7052 24.8093 50.8662 24.8093H39.7305V0.28125H49.8344C54.3526 0.28125 57.6592 2.55904 57.6592 7.18491C57.6592 9.25108 56.7015 10.9677 54.744 11.9144ZM43.8583 3.81883V10.5824H49.5501C51.9343 10.5824 53.5697 9.67165 53.6073 7.28757C53.6073 4.87015 51.9691 3.81883 49.5501 3.81883H43.8583ZM43.8583 13.9091V21.234H50.62C52.9303 21.234 54.565 19.9395 54.6737 17.5904C54.6737 16.3644 54.2467 15.3819 53.3931 14.6843C52.4302 13.982 51.2959 13.9091 50.1544 13.9091H43.8583Z" fill="#00A6CA"/>
<path d="M72.4571 21.5155V24.8078H60.4336V21.5155H64.3821V3.53956H60.7544V0.277344H72.1381V3.53956H68.5089V21.5155H72.4571Z" fill="#00A6CA"/>
<path d="M79.2891 21.1275H89.9978V24.8078H75.127V0.277344H79.2891V21.1275Z" fill="#00A6CA"/>
</svg>
