<svg width="30" height="30" viewBox="0 0 30 30" fill="none" xmlns="http://www.w3.org/2000/svg">
<circle cx="15" cy="15" r="15" fill="#F9F9F9"/>
<path d="M12.663 19H17.336H12.663ZM15 5V6V5ZM21.364 7.636L20.657 8.343L21.364 7.636ZM24 14H23H24ZM7 14H6H7ZM9.343 8.343L8.636 7.636L9.343 8.343ZM11.464 17.536C10.7649 16.8367 10.2888 15.9458 10.096 14.9759C9.90316 14.006 10.0023 13.0008 10.3807 12.0872C10.7592 11.1737 11.4001 10.3928 12.2223 9.84349C13.0445 9.29414 14.0111 9.00093 15 9.00093C15.9889 9.00093 16.9555 9.29414 17.7777 9.84349C18.5999 10.3928 19.2408 11.1737 19.6193 12.0872C19.9977 13.0008 20.0968 14.006 19.904 14.9759C19.7112 15.9458 19.2351 16.8367 18.536 17.536L17.988 18.083C17.6747 18.3963 17.4262 18.7683 17.2567 19.1777C17.0872 19.5871 16.9999 20.0259 17 20.469V21C17 21.5304 16.7893 22.0391 16.4142 22.4142C16.0391 22.7893 15.5304 23 15 23C14.4696 23 13.9609 22.7893 13.5858 22.4142C13.2107 22.0391 13 21.5304 13 21V20.469C13 19.574 12.644 18.715 12.012 18.083L11.464 17.536Z" stroke="#00A6CA" stroke-width="1.6" stroke-linecap="round" stroke-linejoin="round"/>
</svg>
