<svg width="30" height="30" viewBox="0 0 30 30" fill="none" xmlns="http://www.w3.org/2000/svg">
<circle cx="15" cy="15" r="15" fill="#EDEDED"/>
<path fill-rule="evenodd" clip-rule="evenodd" d="M12.2071 7.06404C11.9836 7.09994 11.5235 7.25983 11.1848 7.41936C10.1429 7.90988 9.35811 8.84287 9.06987 9.93364C8.94097 10.4215 8.92375 11.4486 9.03648 11.9308C9.16014 12.4597 9.52587 13.1353 9.91664 13.5567L10.2816 13.9504L9.70493 14.3206C8.83053 14.882 8.07713 15.7145 7.62667 16.6172C7.05462 17.7636 7.00114 18.0414 7.0001 19.8692C6.99922 21.4304 6.99973 21.4356 7.19889 21.8076C7.30866 22.0128 7.5545 22.316 7.74523 22.4814C8.29519 22.9586 8.53756 23 10.78 23C11.8493 23 12.7235 22.9918 12.7226 22.9818C12.7218 22.9718 12.6061 22.636 12.4656 22.2355L12.2101 21.5074L10.5892 21.471C8.98536 21.4349 8.96623 21.4327 8.77151 21.2526L8.57479 21.0705L8.60589 19.6871C8.63293 18.4844 8.65863 18.2446 8.80298 17.8506C9.27722 16.5562 10.4335 15.4853 11.7663 15.106C11.9912 15.0421 12.5738 14.9599 13.0609 14.9234C14.0232 14.8514 14.4833 14.7181 15.0874 14.336C15.8862 13.8307 16.5301 13.0014 16.7976 12.1332C17.0012 11.4726 16.9674 10.2948 16.7261 9.64218C16.3691 8.67643 15.6216 7.86248 14.6817 7.41557C13.8484 7.01948 13.1248 6.91668 12.2071 7.06404ZM13.943 8.80726C14.4131 9.02635 14.9316 9.53617 15.1595 10.0034C15.421 10.5396 15.419 11.381 15.1549 11.9329C14.9402 12.3815 14.4534 12.8972 14.0576 13.0953C13.1292 13.5599 11.9915 13.3809 11.2537 12.654C9.97433 11.3935 10.4601 9.35181 12.1921 8.70963C12.6698 8.53248 13.4465 8.5758 13.943 8.80726Z" fill="#00A6CA"/>
<path fill-rule="evenodd" clip-rule="evenodd" d="M14.7246 17.912V18.8924H18.8625H23.0005V17.912V16.9316H18.8625H14.7246V17.912ZM14.7246 22.0202V23.0006H18.8625H23.0005V22.0202V21.0399H18.8625H14.7246V22.0202Z" fill="#00A6CA"/>
</svg>
