<svg width="64" height="64" viewBox="0 0 64 64" fill="none" xmlns="http://www.w3.org/2000/svg">
<circle cx="32" cy="32" r="32" fill="#EAF8FB"/>
<path d="M51 31.4999L51 42.9999C51 44.1045 50.1046 44.9999 49 44.9999L39.75 44.9999L14 44.9999C12.8954 44.9999 12 44.1045 12 42.9999L12 22.9999C12 21.8954 12.8954 20.9999 14 20.9999L49 20.9999C50.1046 20.9999 51 21.8954 51 22.9999L51 27.2499" stroke="#00A6CA" stroke-width="2"/>
<rect x="32" y="28.9999" width="14" height="3" rx="1.5" fill="#00A6CA"/>
<rect x="32" y="34.9999" width="14" height="3" rx="1.5" fill="#00A6CA"/>
<path d="M22 20.9999C22 18.7908 23.7909 16.9999 26 16.9999H35C37.2091 16.9999 39 18.7908 39 20.9999H22Z" fill="#00A6CA"/>
<path d="M28 33.4999C28 30.4624 25.5376 27.9999 22.5 27.9999C19.4624 27.9999 17 30.4624 17 33.4999C17 36.5375 19.4624 38.9999 22.5 38.9999C23.9615 38.9999 25.2899 38.4299 26.2749 37.4999" stroke="#00A6CA" stroke-width="2"/>
</svg>
