<svg width="64" height="64" viewBox="0 0 64 64" fill="none" xmlns="http://www.w3.org/2000/svg">
<circle cx="32" cy="32" r="32" fill="#EAF8FB"/>
<path d="M22 39H27.5L31.5 40.5H37C39.5 40.5 40.5 42 40.5 44M32 44.5H40L46.5 41C47.6667 40.5 50.2 40 51 42L38.5 49.5C37.5 50.1667 34.8 51.2 32 50C29.2 48.8 26.5 47.8333 25.5 47.5C24.6667 47.1667 22.8 46.9 22 48.5" stroke="#00A6CA" stroke-width="2"/>
<rect x="13" y="36" width="10" height="15" rx="1" fill="#00A6CA"/>
<path d="M42 23L36.5 23L32.5 21.5L27 21.5C24.5 21.5 23.5 20 23.5 18M32 17.5L24 17.5L17.5 21C16.3333 21.5 13.8 22 13 20L25.5 12.5C26.5 11.8333 29.2 10.8 32 12C34.8 13.2 37.5 14.1667 38.5 14.5C39.3333 14.8333 41.2 15.1 42 13.5" stroke="#00A6CA" stroke-width="2"/>
<rect x="51" y="26" width="10" height="15" rx="1" transform="rotate(-180 51 26)" fill="#00A6CA"/>
<path d="M36.7 27.4286C36.8657 27.4286 37 27.3086 37 27.1607V26.2679C37 26.1199 36.8657 26 36.7 26H29.3C29.1343 26 29 26.1199 29 26.2679V27.2667C29 27.4146 29.1343 27.5346 29.3 27.5346H31.432C32.1147 27.5346 32.6385 27.7568 32.9562 28.1429H29.3C29.1343 28.1429 29 28.2628 29 28.4107V29.3036C29 29.4515 29.1343 29.5714 29.3 29.5714H33.2689C33.1135 30.3769 32.4449 30.8802 31.4 30.8802H29.3C29.1343 30.8802 29 31.0001 29 31.148V32.3313C29 32.4061 29.035 32.4775 29.0965 32.5282L33.2228 35.929C33.2782 35.9746 33.3509 36 33.4263 36H35.4904C35.7635 36 35.8945 35.7007 35.6938 35.5353L31.9218 32.4265C33.8342 32.3742 35.2004 31.2346 35.3797 29.5714H36.7C36.8657 29.5714 37 29.4515 37 29.3036V28.4107C37 28.2628 36.8657 28.1429 36.7 28.1429H35.2327C35.1456 27.8852 35.0258 27.6463 34.8765 27.4286H36.7Z" fill="#00A6CA"/>
</svg>
