<svg width="64" height="64" viewBox="0 0 64 64" fill="none" xmlns="http://www.w3.org/2000/svg">
<circle cx="32" cy="32" r="32" fill="#EAF8FB"/>
<path d="M51 36.5L51 40C51 41.1046 50.1046 42 49 42L47.5 42L32.3586 42C31.8104 42 31.2862 42.225 30.9086 42.6225L23.9706 49.9257C23.3188 50.6118 22.1669 50.0926 22.2494 49.1498L22.6847 44.1743C22.787 43.0054 21.8657 42 20.6924 42L14 42C12.8954 42 12 41.1046 12 40L12 20C12 18.8954 12.8954 18 14 18L49 18C50.1046 18 51 18.8954 51 20L51 30.25" stroke="#00A6CA" stroke-width="2"/>
<circle cx="23" cy="30" r="3" fill="#00A6CA"/>
<circle cx="32" cy="30" r="3" fill="#00A6CA"/>
<circle cx="41" cy="30" r="3" fill="#00A6CA"/>
</svg>
