<svg width="64" height="64" viewBox="0 0 64 64" fill="none" xmlns="http://www.w3.org/2000/svg">
<circle cx="32" cy="32" r="32" fill="#EAF8FB"/>
<path d="M47 38.5V15C47 13.8954 46.1046 13 45 13H20C18.8954 13 18 13.8954 18 15V50C18 51.1046 18.8954 52 20 52H45C46.1046 52 47 51.1046 47 50V45.25" stroke="#00A6CA" stroke-width="1.6"/>
<rect x="21" y="32" width="23" height="3" rx="1.5" fill="#00A6CA"/>
<rect x="35" y="19" width="9" height="3" rx="1.5" fill="#00A6CA"/>
<rect x="35" y="25" width="9" height="3" rx="1.5" fill="#00A6CA"/>
<rect x="21" y="38" width="17" height="3" rx="1.5" fill="#00A6CA"/>
<rect x="21" y="44" width="17" height="3" rx="1.5" fill="#00A6CA"/>
<path d="M24 13C24 10.7909 25.7909 9 28 9H37C39.2091 9 41 10.7909 41 13H24Z" fill="#00A6CA"/>
<path d="M33 23.5C33 20.4624 30.5376 18 27.5 18C24.4624 18 22 20.4624 22 23.5C22 26.5376 24.4624 29 27.5 29C28.9615 29 30.2899 28.4299 31.2749 27.5" stroke="#00A6CA" stroke-width="2"/>
</svg>
