<svg width="60" height="60" viewBox="0 0 60 60" fill="none" xmlns="http://www.w3.org/2000/svg">
<circle cx="30" cy="30" r="30" fill="white"/>
<path d="M31.6056 45L19 32.0182V30.1828H22.2757C23.751 30.1828 24.9896 30.0437 25.9917 29.7656C27.0216 29.4875 27.8288 29.0287 28.4134 28.3891C28.9979 27.7494 29.3459 26.8734 29.4572 25.7611H19L20.5714 23.0914H29.4155C29.2206 22.0624 28.8309 21.2282 28.2464 20.5885C27.6618 19.9211 26.8685 19.4345 25.8665 19.1285C24.8922 18.8226 23.6953 18.6697 22.2757 18.6697H19L20.5714 16H41L39.4286 18.6697H30.7516C31.3918 19.1981 31.9206 19.8238 32.3382 20.5468C32.7557 21.2699 33.0201 22.1181 33.1315 23.0914H41L39.4286 25.7611H33.215C33.0201 27.7912 32.2407 29.3763 30.8768 30.5165C29.5407 31.6288 25.9917 32.4595 23.7143 32.4595L35.8644 45H31.6056Z" fill="#00A6CA"/>
</svg>
