<svg width="16" height="14" viewBox="0 0 16 14" fill="none" xmlns="http://www.w3.org/2000/svg">
<path fill-rule="evenodd" clip-rule="evenodd" d="M6.40228 0.0327249C3.97285 0.249419 1.73624 1.79239 0.68127 3.97948C-0.757249 6.96156 0.143776 10.6106 2.80453 12.5783C6.41726 15.25 11.6017 14.02 13.5509 10.0289C14.216 8.66689 14.4001 7.26822 14.1242 5.67348C14.0838 5.44009 14.0284 5.23554 14.0011 5.21899C13.9739 5.20244 13.6852 5.45448 13.3597 5.77904L12.7679 6.36922L12.7306 7.18334C12.6864 8.14795 12.5724 8.60108 12.1675 9.4222C11.8184 10.1304 11.2849 10.7926 10.6683 11.2834C7.81719 13.5523 3.59724 12.5913 2.02238 9.31439C1.62019 8.4776 1.53487 8.05887 1.53963 6.94589C1.54364 6.02837 1.55862 5.91873 1.76233 5.31763C2.37646 3.50566 3.80172 2.17028 5.68592 1.64144C6.12428 1.51844 6.40373 1.48886 7.12713 1.48886C8.20309 1.48886 8.78821 1.6278 9.73487 2.10834L10.35 2.42056L10.8765 1.90312C11.4798 1.31029 11.493 1.38092 10.6942 0.932065C9.38052 0.19399 7.95146 -0.105473 6.40228 0.0327249ZM11.0272 3.85933L7.12817 7.69156L6.12546 6.70776L5.12268 5.72395L4.58856 6.25198L4.05438 6.78001L5.42214 8.1181L6.78983 9.45612H7.12989H7.46995L11.735 5.26621L16 1.07623L15.4631 0.551663L14.9262 0.0270938L11.0272 3.85933Z" fill="#0BA11B"/>
</svg>
