<svg width="37" height="36" viewBox="0 0 37 36" fill="none" xmlns="http://www.w3.org/2000/svg">
<path fill-rule="evenodd" clip-rule="evenodd" d="M17.9098 0.272747C17.7131 0.425861 16.8027 1.91315 15.8864 3.57807C14.9701 5.24285 14.1389 6.63601 14.0388 6.67397C13.9389 6.71193 12.4251 6.32768 10.6749 5.82015C8.9246 5.31262 7.2291 4.8974 6.90721 4.8974C6.11839 4.8974 5.4947 5.48394 5.4947 6.2257C5.4947 6.50573 6.1423 8.90498 6.93367 11.5572L8.37278 16.3794L9.3744 15.837C10.1346 15.4254 10.4413 15.1672 10.6463 14.7664L10.9162 14.2385L10.117 11.5044C9.67734 10.0007 9.3454 8.74304 9.37921 8.70942C9.41317 8.67594 10.5561 8.97068 11.9194 9.3646C14.7103 10.1708 15.3953 10.2404 15.8653 9.76539C16.037 9.5921 16.7504 8.39535 17.4508 7.106C18.1511 5.81678 18.756 4.7625 18.7949 4.7632C18.8338 4.7639 19.4672 5.87114 20.2025 7.22381C20.9377 8.57648 21.6682 9.77267 21.8257 9.88194C22.3106 10.2181 23.1157 10.1087 25.6751 9.35914C27.0298 8.96241 28.1676 8.66683 28.2036 8.70255C28.2397 8.73814 27.9118 9.99261 27.4752 11.4903C26.4191 15.1127 26.2711 14.7698 29.6933 16.6323C32.1385 17.9631 32.2556 18.0456 31.9366 18.2137C29.6359 19.4265 27.4347 20.6704 27.1857 20.898C26.6115 21.4233 26.6432 21.8116 27.4939 24.6646C27.9328 26.1367 28.2708 27.3619 28.2452 27.3873C28.2194 27.4127 26.9965 27.0855 25.5277 26.6602C22.6574 25.829 22.1938 25.794 21.6638 26.3677C21.5048 26.5398 20.8112 27.7052 20.1224 28.9571C19.4336 30.2092 18.8319 31.2335 18.7853 31.2335C18.7386 31.2335 18.1175 30.1723 17.4051 28.8752C16.6926 27.5781 15.9896 26.4091 15.8427 26.2776C15.3121 25.8021 14.7402 25.8601 12.0081 26.6663C10.571 27.0904 9.37426 27.4165 9.34837 27.391C9.32262 27.3655 9.65668 26.1301 10.0906 24.6457C10.7745 22.3067 10.8595 21.8866 10.7288 21.4941C10.6457 21.245 10.4687 20.9463 10.3354 20.8303C10.0567 20.5879 1.51594 15.9304 1.46458 15.9929C1.44576 16.0156 1.10873 16.616 0.715241 17.3269L0 18.6197L2.35825 19.9017C3.6553 20.6069 5.3334 21.5238 6.08741 21.9391L7.45846 22.6946L7.2625 23.3568C7.15468 23.7212 6.7128 25.2099 6.28054 26.6651C5.84828 28.1204 5.4947 29.4947 5.4947 29.7189C5.4947 30.5588 6.1382 31.2335 6.9389 31.2335C7.10332 31.2335 8.76627 30.7902 10.6345 30.2482C12.5026 29.7062 14.0763 29.3123 14.1316 29.3726C14.1868 29.433 14.9773 30.8378 15.8883 32.4943C16.7992 34.1508 17.6737 35.6166 17.8317 35.7513C18.2201 36.0829 19.3701 36.0829 19.7575 35.7513C19.915 35.6166 20.7871 34.1508 21.6955 32.4943C22.6039 30.8378 23.3936 29.4341 23.4503 29.3752C23.5072 29.3162 25.0775 29.71 26.9401 30.2503C28.8027 30.7906 30.4667 31.2328 30.6382 31.2331C31.4469 31.2342 32.0952 30.5649 32.0952 29.7289C32.0952 29.5102 31.6526 27.8523 31.1115 26.0448C30.2217 23.0717 30.1498 22.7418 30.3576 22.5852C30.484 22.4899 31.9521 21.678 33.62 20.7809C36.3477 19.3138 36.6737 19.0999 36.8615 18.655C37.1208 18.0407 37.0089 17.3653 36.5854 16.9881C36.4115 16.8331 34.9002 15.9664 33.2271 15.062C31.554 14.1576 30.1722 13.4052 30.1563 13.3901C30.1405 13.3748 30.5703 11.8664 31.1114 10.038C31.6524 8.20945 32.0952 6.48906 32.0952 6.21491C32.0952 5.47105 31.4667 4.8967 30.6558 4.89936C30.319 4.90048 28.6438 5.31023 26.9328 5.80992C25.2219 6.30961 23.7256 6.71698 23.6078 6.71502C23.4752 6.71277 22.7537 5.53689 21.7166 3.63201C20.7942 1.93837 19.8783 0.427122 19.6812 0.273588C19.2133 -0.0909156 18.3771 -0.0911957 17.9098 0.272747Z" fill="#00A6CA"/>
<ellipse cx="15.5444" cy="16.3007" rx="1.55641" ry="1.54094" fill="#00A6CA"/>
<ellipse cx="21.1333" cy="21.8393" rx="1.55641" ry="1.54094" fill="#00A6CA"/>
<rect width="13.7044" height="2.16961" transform="matrix(0.774114 -0.633046 0.640607 0.767869 12.5833 22.5215)" fill="#00A6CA"/>
</svg>
