<svg width="44" height="58" viewBox="0 0 44 58" fill="none" xmlns="http://www.w3.org/2000/svg">
<circle cx="21.8887" cy="21.6328" r="21" fill="#005365" fill-opacity="0.06"/>
<path fill-rule="evenodd" clip-rule="evenodd" d="M9.35243 13.5206C8.92477 13.643 8.49581 13.96 8.21787 14.3587C7.79189 14.9697 7.80129 14.8309 7.80129 20.5182C7.80129 25.7115 7.8045 25.8192 7.96924 26.1932C8.21338 26.7473 8.51243 27.0826 8.98305 27.33L9.39835 27.5484H16.3545H23.3106L23.2478 27.146C23.2133 26.9248 23.1829 26.5245 23.1803 26.2567L23.1755 25.7697H16.512C9.95552 25.7697 9.84593 25.7669 9.68794 25.6003C9.53106 25.4347 9.52737 25.3179 9.52737 20.489C9.52737 15.8089 9.53516 15.5396 9.67421 15.4069C9.80908 15.2781 10.6037 15.2667 19.4641 15.2667H29.1073L29.2323 15.455C29.3323 15.6056 29.3573 15.9043 29.3573 16.9487V18.2543L29.7298 18.2004C29.9346 18.1708 30.3139 18.1466 30.5727 18.1466H31.0432L31.0414 16.6431C31.0399 15.3713 31.0171 15.0875 30.8933 14.8009C30.6754 14.2967 30.3489 13.9306 29.8887 13.6744L29.4777 13.4457L19.6029 13.4294C11.8325 13.4165 9.64803 13.436 9.35243 13.5206ZM12.8693 16.9157C11.9326 17.268 11.3394 18.4467 11.5993 19.4395C11.6721 19.718 11.6539 19.8059 11.4344 20.2334C10.7593 21.5484 11.255 23.1587 12.5401 23.8259C13.1354 24.135 14.0516 24.1226 14.6801 23.797C15.4924 23.3761 15.9517 22.6368 16.0127 21.6521C16.0532 20.9975 15.9608 20.5711 15.6753 20.0947C15.5487 19.8835 15.5141 19.7373 15.5553 19.5865C15.9284 18.2158 14.9425 16.7843 13.6327 16.7951C13.3838 16.7971 13.0403 16.8514 12.8693 16.9157ZM25.0006 16.9633C23.9943 17.2299 23.0952 18.315 23.0952 19.2628V19.5018H23.9284H24.7616L24.8627 19.2443C25.0738 18.7065 25.6267 18.5746 26.0595 18.9588C26.1953 19.0794 26.3065 19.2344 26.3065 19.3033C26.3065 19.4028 26.3542 19.3929 26.5373 19.2552C26.6643 19.1598 27.024 18.9524 27.3367 18.7944L27.9052 18.5069L27.6813 18.1345C27.1172 17.196 25.9867 16.702 25.0006 16.9633ZM17.2345 18.0579V18.9936H18.4368H19.639L19.36 19.6394C19.2066 19.9947 19.081 20.2996 19.081 20.317C19.081 20.3345 19.2471 20.3488 19.45 20.3488C19.9091 20.3488 20.2431 20.5499 20.4137 20.929C20.681 21.5233 20.237 22.2111 19.5856 22.2119C19.2808 22.2123 18.7837 21.7968 18.7449 21.5094C18.721 21.3317 18.6778 21.3218 17.8297 21.2991L16.9396 21.2752L16.9992 21.7387C17.1094 22.595 17.662 23.3922 18.4552 23.8391C18.7487 24.0044 18.9195 24.0333 19.6029 24.0332C20.3171 24.0332 20.4503 24.0083 20.8103 23.8079C21.3046 23.5326 21.8469 22.9279 22.0758 22.3965C22.2067 22.0929 22.2467 21.8325 22.2473 21.2805C22.248 20.6584 22.2176 20.4973 22.0234 20.0947C21.8998 19.8385 21.7244 19.5448 21.6335 19.4421L21.4683 19.2554L21.6895 18.7064C21.9483 18.0639 21.9242 17.6958 21.6024 17.3766C21.3974 17.1733 21.389 17.1724 19.3155 17.1473L17.2345 17.1221V18.0579ZM13.9371 18.6239C14.0286 18.7466 14.1035 18.9007 14.1035 18.9665C14.1035 19.1287 13.7398 19.5018 13.5817 19.5018C13.5114 19.5018 13.3653 19.4082 13.2569 19.2938C13.1485 19.1795 13.0598 19.0253 13.0598 18.9512C13.0598 18.762 13.4224 18.4007 13.6123 18.4007C13.6994 18.4007 13.8456 18.5011 13.9371 18.6239ZM29.3865 19.967C25.4055 20.8805 23.5087 25.7514 25.7347 29.3446C26.8097 31.0799 28.6477 32.1249 30.6175 32.1208C31.5906 32.1188 32.3205 31.9389 33.1707 31.492C34.0809 31.0135 34.6976 30.4927 35.2126 29.768C36.052 28.587 36.4222 27.4281 36.4222 25.9814C36.4222 25.0438 36.2401 24.1024 35.938 23.4776L35.7651 23.1201L36.5937 22.2429L37.4224 21.3657L36.7834 20.6876L36.1445 20.0096L35.4099 20.7814L34.6754 21.5532L34.204 21.1477C32.9563 20.0742 31.0044 19.5959 29.3865 19.967ZM13.9356 20.8107C14.3857 21.0562 14.4431 21.7126 14.0435 22.0442C13.6696 22.3544 13.1583 22.2354 12.9385 21.7869C12.78 21.4634 12.8519 21.1682 13.155 20.8991C13.4276 20.6571 13.6152 20.6358 13.9356 20.8107ZM31.8622 21.9486C32.4065 22.1472 32.9534 22.4736 33.1936 22.7434L33.3672 22.9384L32.0051 24.3736L30.6431 25.8088L30.0796 25.2189L29.5163 24.6291L28.8731 25.3077L28.2299 25.9862L29.2621 27.0638C30.267 28.1128 30.3035 28.1413 30.6444 28.1413C30.9929 28.1413 31.0022 28.1332 32.7018 26.3472C33.817 25.1752 34.4224 24.5952 34.4478 24.6744C35.0567 26.5754 34.2163 28.778 32.5199 29.7273C30.8925 30.638 29.1065 30.3457 27.7853 28.9525C27.1313 28.2627 26.8362 27.681 26.6491 26.7125C26.4779 25.8272 26.5917 25.0438 27.0275 24.1077C27.9076 22.217 30.0165 21.2752 31.8622 21.9486Z" fill="#5D5D5D"/>
<g opacity="0.3" filter="url(#filter0_f)">
<ellipse cx="21.8888" cy="52.1929" rx="17.1451" ry="1.43899" fill="black"/>
</g>
<defs>
<filter id="filter0_f" x="0.743652" y="46.7539" width="42.2903" height="10.878" filterUnits="userSpaceOnUse" color-interpolation-filters="sRGB">
<feFlood flood-opacity="0" result="BackgroundImageFix"/>
<feBlend mode="normal" in="SourceGraphic" in2="BackgroundImageFix" result="shape"/>
<feGaussianBlur stdDeviation="2" result="effect1_foregroundBlur"/>
</filter>
</defs>
</svg>
