<svg width="44" height="58" viewBox="0 0 44 58" fill="none" xmlns="http://www.w3.org/2000/svg">
<circle cx="21.8887" cy="21.9844" r="21" fill="#005365" fill-opacity="0.06"/>
<path fill-rule="evenodd" clip-rule="evenodd" d="M18.1104 22.6619C17.4242 22.8543 16.8034 23.1621 16.1902 23.6143L15.6387 24.021L15.3185 23.6974C14.7951 23.1682 14.3167 22.9937 13.2539 22.9442C12.7153 22.9191 12.0683 22.9524 11.7659 23.0208C10.8556 23.2268 10.0962 23.9471 9.936 24.7566L9.87243 25.0779H11.7536C13.3285 25.0779 13.6607 25.1041 13.7941 25.2389C13.9311 25.3774 13.9534 25.7904 13.9534 28.1906C13.9534 30.2245 13.9205 31.0146 13.8317 31.1042C13.7584 31.1783 13.4037 31.2272 12.9395 31.2272C12.4753 31.2272 12.1206 31.1783 12.0473 31.1042C11.9618 31.0178 11.9256 30.4392 11.9256 29.1569V27.3326H10.861H9.79639V29.21C9.79639 31.4882 9.8996 31.9519 10.5542 32.6135C11.1088 33.1742 11.7482 33.3795 12.9395 33.3795C14.0713 33.3795 14.7512 33.1742 15.2694 32.6758L15.6733 32.2875L16.0046 32.5627C16.5434 33.01 17.4089 33.4607 18.0557 33.6307C18.5246 33.7539 19.2375 33.7895 21.2371 33.7895H23.8143L28.5131 31.6779C33.7307 29.3331 33.8757 29.245 34.4014 28.0986C34.6331 27.5933 34.6827 27.3429 34.685 26.6643C34.6875 25.9382 34.6488 25.7621 34.3532 25.1552C33.7596 23.9362 32.7254 23.2985 31.3419 23.2984C30.5504 23.2983 30.4886 23.3174 28.7796 24.0857C27.8164 24.5186 26.9907 24.8729 26.9446 24.8729C26.8985 24.8729 26.9044 24.6177 26.9575 24.3058C27.0818 23.5765 26.9927 23.118 26.6616 22.7833L26.3968 22.5156L22.4818 22.5247C19.6897 22.5313 18.4358 22.5707 18.1104 22.6619ZM24.5417 24.8985C24.4095 25.3254 23.8764 26.008 23.3997 26.3609C22.7092 26.872 22.1754 27.0252 21.0834 27.0252H20.1383V28.1525V29.2799L21.0254 29.2782C21.5134 29.2772 22.2092 29.2114 22.5716 29.1319C22.9524 29.0484 24.8918 28.2486 27.1645 27.2376C29.3282 26.2752 31.2126 25.4878 31.352 25.4878C32.2432 25.4878 32.7888 26.5072 32.3165 27.29C32.1502 27.5656 31.5488 27.8654 27.623 29.6292L23.1204 31.6523L20.9449 31.619C18.8328 31.5869 18.7526 31.5779 18.192 31.3123C15.996 30.2718 15.4703 27.4337 17.1576 25.7282C17.6256 25.2552 18.2036 24.9198 18.7932 24.7794C19.0033 24.7294 20.3986 24.6839 21.894 24.6782L24.6131 24.6679L24.5417 24.8985Z" fill="#5D5D5D"/>
<path d="M25.3348 11.4478C25.29 11.5632 25.1789 11.6392 25.0551 11.6392H24.0935C23.8224 11.6392 23.6685 11.9954 23.7922 12.2366C23.8523 12.3538 23.9019 12.4771 23.941 12.6064C23.9826 12.7439 24.104 12.8465 24.2477 12.8465H25.1962C25.4071 12.8465 25.5522 13.0585 25.4759 13.2551L25.3348 13.6185C25.29 13.7339 25.1789 13.81 25.0551 13.81H24.2869C24.1367 13.81 24.0119 13.9217 23.976 14.0676C23.8293 14.6642 23.4633 15.123 22.8782 15.4441C22.3697 15.7232 21.7099 15.8958 20.8987 15.962C20.6222 15.9846 20.4932 16.3371 20.7024 16.5192L24.0887 19.4657C24.0996 19.4753 24.1059 19.4891 24.1059 19.5037C24.1059 19.5314 24.0834 19.5539 24.0557 19.5539H22.3728C22.3003 19.5539 22.2302 19.5276 22.1755 19.4799L18.0524 15.8801C17.988 15.8239 17.9506 15.7428 17.9497 15.6573L17.9462 15.3327C17.9444 15.1658 18.0793 15.0295 18.2462 15.0295H19.9675C20.645 15.0254 21.1952 14.9157 21.618 14.7002C21.8933 14.5573 22.1032 14.3815 22.2475 14.1731C22.3621 14.0074 22.2195 13.81 22.018 13.81H18.1536C17.9427 13.81 17.7976 13.598 17.8739 13.4014L18.015 13.038C18.0598 12.9226 18.1709 12.8465 18.2947 12.8465H21.989C22.1942 12.8465 22.3377 12.6426 22.2203 12.4743C21.8505 11.9444 21.1159 11.666 20.0163 11.6392H18.1733C17.9615 11.6392 17.8163 11.4255 17.8945 11.2286L18.0386 10.8652C18.084 10.7508 18.1945 10.6758 18.3175 10.6758H25.1962C25.4071 10.6758 25.5522 10.8877 25.4759 11.0843L25.3348 11.4478Z" fill="#5D5D5D"/>
<g opacity="0.3" filter="url(#filter0_f)">
<ellipse cx="22.6644" cy="52.5486" rx="17.1015" ry="1.43533" fill="black"/>
</g>
<defs>
<filter id="filter0_f" x="1.56299" y="47.1133" width="42.2029" height="10.8707" filterUnits="userSpaceOnUse" color-interpolation-filters="sRGB">
<feFlood flood-opacity="0" result="BackgroundImageFix"/>
<feBlend mode="normal" in="SourceGraphic" in2="BackgroundImageFix" result="shape"/>
<feGaussianBlur stdDeviation="2" result="effect1_foregroundBlur"/>
</filter>
</defs>
</svg>
