<svg width="32" height="31" viewBox="0 0 32 31" fill="none" xmlns="http://www.w3.org/2000/svg">
<path fill-rule="evenodd" clip-rule="evenodd" d="M15.4895 0.234866C15.3194 0.366714 14.5321 1.64744 13.7396 3.08112C12.9471 4.51468 12.2282 5.71434 12.1417 5.74703C12.0553 5.77972 10.746 5.44883 9.23231 5.01179C7.71857 4.57475 6.2522 4.21721 5.9738 4.21721C5.29158 4.21721 4.75217 4.72228 4.75217 5.36102C4.75217 5.60215 5.31226 7.66818 5.99669 9.95205L7.24133 14.1045L8.10759 13.6374C8.76509 13.283 9.03027 13.0607 9.20759 12.7156L9.44107 12.2609L8.7498 9.90658C8.36959 8.61174 8.08251 7.52873 8.11175 7.49978C8.14112 7.47095 9.12964 7.72475 10.3087 8.06396C12.7225 8.75818 13.3149 8.81814 13.7214 8.40908C13.8698 8.25986 14.4868 7.22933 15.0925 6.11905C15.6983 5.0089 16.2214 4.10104 16.2551 4.10164C16.2887 4.10225 16.8365 5.0557 17.4724 6.2205C18.1083 7.3853 18.7401 8.41535 18.8763 8.50945C19.2956 8.79896 19.9919 8.70474 22.2055 8.05926C23.3771 7.71763 24.3612 7.46311 24.3923 7.49387C24.4235 7.52451 24.14 8.60474 23.7623 9.89439C22.8489 13.0138 22.7209 12.7184 25.6807 14.3222C27.7954 15.4682 27.8968 15.5393 27.6208 15.684C25.631 16.7284 23.7273 17.7995 23.5119 17.9955C23.0154 18.4479 23.0428 18.7823 23.7785 21.239C24.1581 22.5066 24.4504 23.5616 24.4283 23.5835C24.406 23.6054 23.3483 23.3236 22.078 22.9574C19.5956 22.2417 19.1947 22.2115 18.7363 22.7055C18.5987 22.8537 17.9989 23.8573 17.4032 24.9353C16.8075 26.0135 16.287 26.8956 16.2468 26.8956C16.2064 26.8956 15.6692 25.9817 15.053 24.8648C14.4369 23.7478 13.8288 22.7412 13.7018 22.6279C13.2429 22.2185 12.7483 22.2684 10.3854 22.9627C9.14249 23.3278 8.10747 23.6086 8.08507 23.5867C8.0628 23.5647 8.35172 22.5009 8.72703 21.2227C9.31846 19.2086 9.392 18.8468 9.27893 18.5088C9.2071 18.2943 9.05401 18.0371 8.93874 17.9372C8.69767 17.7284 1.31109 13.7179 1.26667 13.7717C1.25039 13.7912 0.958902 14.3082 0.618587 14.9204L0 16.0336L2.03956 17.1376C3.16134 17.7448 4.61267 18.5344 5.26478 18.892L6.45056 19.5426L6.28108 20.1128C6.18783 20.4266 5.80566 21.7085 5.43182 22.9616C5.05798 24.2148 4.75217 25.3982 4.75217 25.5913C4.75217 26.3145 5.30871 26.8956 6.00121 26.8956C6.14341 26.8956 7.58164 26.5138 9.19743 26.047C10.8131 25.5803 12.1741 25.2411 12.222 25.2931C12.2697 25.3451 12.9534 26.5548 13.7412 27.9812C14.529 29.4077 15.2854 30.6698 15.422 30.7859C15.7579 31.0714 16.7525 31.0714 17.0876 30.7859C17.2238 30.6698 17.9781 29.4077 18.7637 27.9812C19.5493 26.5548 20.2323 25.3461 20.2813 25.2953C20.3305 25.2445 21.6886 25.5836 23.2995 26.0489C24.9104 26.5141 26.3496 26.8949 26.4979 26.8952C27.1973 26.8962 27.758 26.3198 27.758 25.5999C27.758 25.4116 27.3752 23.9839 26.9073 22.4274C26.1377 19.8673 26.0755 19.5832 26.2553 19.4484C26.3645 19.3663 27.6343 18.6672 29.0768 17.8947C31.4359 16.6313 31.7178 16.4471 31.8802 16.064C32.1045 15.535 32.0077 14.9535 31.6414 14.6286C31.491 14.4952 30.184 13.7489 28.737 12.9701C27.2899 12.1913 26.0948 11.5434 26.0811 11.5304C26.0674 11.5172 26.4392 10.2183 26.9071 8.64383C27.3751 7.06925 27.758 5.5878 27.758 5.35173C27.758 4.71118 27.2144 4.2166 26.5131 4.2189C26.2219 4.21986 24.773 4.5727 23.2933 5.00299C21.8136 5.43327 20.5195 5.78406 20.4175 5.78237C20.3029 5.78044 19.6789 4.76788 18.7819 3.12756C17.9842 1.66915 17.1921 0.367799 17.0216 0.23559C16.6169 -0.0782884 15.8937 -0.0785296 15.4895 0.234866Z" fill="#00A6CA"/>
<ellipse cx="13.4438" cy="14.0369" rx="1.34608" ry="1.32692" fill="#00A6CA"/>
<ellipse cx="18.2775" cy="18.8064" rx="1.34608" ry="1.32692" fill="#00A6CA"/>
<rect width="11.8319" height="1.87162" transform="matrix(0.775461 -0.631395 0.642249 0.766496 10.8828 19.3936)" fill="#00A6CA"/>
</svg>
