<svg width="44" height="58" viewBox="0 0 44 58" fill="none" xmlns="http://www.w3.org/2000/svg">
<circle cx="21.8887" cy="21.9688" r="21" fill="#005365" fill-opacity="0.06"/>
<path fill-rule="evenodd" clip-rule="evenodd" d="M20.1951 9.99551C16.9066 10.5487 14.0547 12.2396 12.0905 14.8009C10.599 16.7456 9.70976 19.1141 9.56836 21.5191C9.49897 22.6987 9.55363 22.8882 10.0491 23.1849C10.3365 23.357 10.5571 23.3699 13.2412 23.3702L16.1245 23.3706V22.3235V21.2764H13.8868H11.6492L11.7146 20.8718C11.9955 19.1352 12.6559 17.5669 13.7041 16.1474L14.0121 15.7302L15.1656 16.8602L16.3191 17.9901L17.0687 17.2539L17.8182 16.5177L16.6678 15.3848L15.5173 14.2518L15.9421 13.9493C17.3874 12.9197 19.0244 12.2541 20.7524 11.9933L21.1643 11.9311V13.5101V15.0891H22.2304H23.2965V13.5101V11.9311L23.7084 11.9941C24.5194 12.1181 25.394 12.3578 26.2367 12.687L27.0931 13.0216L27.8646 12.2705L28.636 11.5195L27.5979 11.0259C25.8891 10.2135 24.1705 9.84797 22.1334 9.86377C21.4671 9.86901 20.5949 9.92821 20.1951 9.99551ZM25.8165 17.2307L21.3108 21.6568L22.0615 22.3941L22.8122 23.1314L26.5854 19.4264C29.8123 16.2578 30.3799 15.7389 30.5067 15.8423C30.7818 16.0665 31.6674 17.5111 31.9895 18.2611C32.3038 18.9926 32.617 20.0737 32.7461 20.8718L32.8115 21.2764H30.6708H28.5301V22.3235V23.3706L31.3165 23.3702C33.9046 23.3699 34.1249 23.3567 34.4116 23.1849C34.9071 22.8882 34.9617 22.6987 34.8924 21.5191C34.7175 18.5467 33.4847 15.8185 31.312 13.5958C30.8866 13.1606 30.4899 12.8045 30.4304 12.8045C30.3709 12.8045 28.2946 14.7963 25.8165 17.2307Z" fill="#5D5D5D"/>
<rect x="13.7886" y="26.793" width="18" height="2" rx="1" fill="#5D5D5D"/>
<g opacity="0.3" filter="url(#filter0_f)">
<ellipse cx="22.7891" cy="52.5288" rx="17.145" ry="1.43899" fill="black"/>
</g>
<defs>
<filter id="filter0_f" x="1.64404" y="47.0898" width="42.2901" height="10.878" filterUnits="userSpaceOnUse" color-interpolation-filters="sRGB">
<feFlood flood-opacity="0" result="BackgroundImageFix"/>
<feBlend mode="normal" in="SourceGraphic" in2="BackgroundImageFix" result="shape"/>
<feGaussianBlur stdDeviation="2" result="effect1_foregroundBlur"/>
</filter>
</defs>
</svg>
