<svg width="16" height="25" viewBox="0 0 16 25" fill="none" xmlns="http://www.w3.org/2000/svg">
<g clip-path="url(#clip0)">
<path d="M13.1562 0.571289H2.65625C2.05951 0.571289 1.48722 0.808342 1.06526 1.2303C0.643303 1.65226 0.40625 2.22455 0.40625 2.82129L0.40625 22.3213C0.40625 22.918 0.643303 23.4903 1.06526 23.9123C1.48722 24.3342 2.05951 24.5713 2.65625 24.5713H13.1562C13.753 24.5713 14.3253 24.3342 14.7472 23.9123C15.1692 23.4903 15.4062 22.918 15.4062 22.3213V2.82129C15.4062 2.22455 15.1692 1.65226 14.7472 1.2303C14.3253 0.808342 13.753 0.571289 13.1562 0.571289V0.571289ZM7.90625 23.0713C7.70953 23.0712 7.51476 23.0323 7.33307 22.9569C7.15137 22.8815 6.98631 22.771 6.8473 22.6318C6.56655 22.3507 6.40898 21.9696 6.40925 21.5723C6.40938 21.3756 6.44826 21.1808 6.52366 20.9991C6.59906 20.8174 6.70952 20.6523 6.84871 20.5133C7.12983 20.2326 7.51096 20.075 7.90825 20.0753C8.30554 20.0756 8.68646 20.2336 8.9672 20.5147C9.24794 20.7959 9.40551 21.177 9.40525 21.5743C9.40498 21.9716 9.24691 22.3525 8.96579 22.6332C8.68467 22.914 8.30354 23.0716 7.90625 23.0713H7.90525H7.90625ZM13.1562 18.0113C13.1552 18.1595 13.0959 18.3013 12.9911 18.4061C12.8863 18.5109 12.7444 18.5702 12.5962 18.5713H3.21825C3.06973 18.5713 2.92729 18.5123 2.82227 18.4073C2.71725 18.3022 2.65825 18.1598 2.65825 18.0113V3.38429C2.65825 3.23577 2.71725 3.09333 2.82227 2.98831C2.92729 2.88329 3.06973 2.82429 3.21825 2.82429H12.5922C12.7404 2.82534 12.8823 2.88467 12.9871 2.98947C13.0919 3.09426 13.1512 3.23609 13.1523 3.38429L13.1562 18.0113Z" fill="#3EA3CE"/>
</g>
<defs>
<clipPath id="clip0">
<rect width="15" height="24" fill="white" transform="translate(0.40625 0.571289)"/>
</clipPath>
</defs>
</svg>
