<svg width="90" height="90" viewBox="0 0 90 90" fill="none" xmlns="http://www.w3.org/2000/svg">
<path d="M41.3565 55.099C41.4053 52.22 41.7957 49.9021 42.5276 48.1454C43.2596 46.3887 44.8333 44.327 47.2488 41.9603C49.6642 39.5693 51.2135 37.8858 51.8967 36.9098C52.6043 35.9095 53.141 34.8237 53.507 33.6526C53.8974 32.4571 54.0926 31.1029 54.0926 29.5902C54.0926 26.5404 53.2752 24.1493 51.6405 22.417C50.0302 20.6603 47.7733 19.782 44.8699 19.782C41.942 19.782 39.5754 20.6237 37.7699 22.3072C35.9888 23.9663 35.0738 26.2232 35.025 29.0778H30.6699C30.7187 25.0765 32.0728 21.8802 34.7322 19.4892C37.3917 17.0737 40.7709 15.866 44.8699 15.866C49.0665 15.866 52.3725 17.0981 54.7879 19.5624C57.2278 22.0022 58.4477 25.3204 58.4477 29.517C58.4477 32.1521 57.85 34.6285 56.6544 36.9464C55.4589 39.2399 53.1898 41.9237 49.8472 44.998C47.0902 47.3158 45.7116 50.6829 45.7116 55.099H41.3565ZM40.7709 67.3228C40.7709 66.4932 41.0271 65.7978 41.5395 65.2367C42.0762 64.6511 42.8204 64.3583 43.7719 64.3583C44.6991 64.3583 45.4311 64.6511 45.9678 65.2367C46.529 65.7978 46.8096 66.4932 46.8096 67.3228C46.8096 68.1279 46.529 68.8111 45.9678 69.3722C45.4311 69.909 44.6991 70.1774 43.7719 70.1774C42.8204 70.1774 42.0762 69.909 41.5395 69.3722C41.0271 68.8111 40.7709 68.1279 40.7709 67.3228Z" fill="#838383"/>
<path fill-rule="evenodd" clip-rule="evenodd" d="M44.6566 85.0577C66.9397 85.0577 85.0037 66.9937 85.0037 44.7106C85.0037 22.4274 66.9397 4.36341 44.6566 4.36341C22.3735 4.36341 4.30946 22.4274 4.30946 44.7106C4.30946 66.9937 22.3735 85.0577 44.6566 85.0577ZM44.6566 89.2685C69.2653 89.2685 89.2146 69.3192 89.2146 44.7106C89.2146 20.1019 69.2653 0.152588 44.6566 0.152588C20.0479 0.152588 0.0986328 20.1019 0.0986328 44.7106C0.0986328 69.3192 20.0479 89.2685 44.6566 89.2685Z" fill="#838383"/>
</svg>
