<svg width="64" height="66" viewBox="0 0 64 66" fill="none" xmlns="http://www.w3.org/2000/svg">
<path d="M38.2299 51.5402C52.4623 51.5402 63.9999 40.0025 63.9999 25.7701C63.9999 11.5377 52.4623 0 38.2299 0C23.9974 0 12.4598 11.5377 12.4598 25.7701C12.4598 40.0025 23.9974 51.5402 38.2299 51.5402Z" fill="#EAEAEA"/>
<path d="M44.6472 15.168H16.6168C14.324 15.168 12.4654 17.0266 12.4654 19.3194V54.3882C12.4654 56.6809 14.324 58.5396 16.6168 58.5396H44.6472C46.94 58.5396 48.7986 56.6809 48.7986 54.3882V19.3194C48.7986 17.0266 46.94 15.168 44.6472 15.168Z" fill="#006685"/>
<path d="M42.6387 18.2617H18.631C16.9068 18.2617 15.5091 19.6595 15.5091 21.3837V52.3234C15.5091 54.0476 16.9068 55.4454 18.631 55.4454H42.6387C44.3629 55.4454 45.7607 54.0476 45.7607 52.3234V21.3837C45.7607 19.6595 44.3629 18.2617 42.6387 18.2617Z" fill="white"/>
<path d="M31.9469 28.7241H20.9418C19.9746 28.7241 19.1906 29.5082 19.1906 30.4753C19.1906 31.4425 19.9746 32.2265 20.9418 32.2265H31.9469C32.9141 32.2265 33.6981 31.4425 33.6981 30.4753C33.6981 29.5082 32.9141 28.7241 31.9469 28.7241Z" fill="#006685"/>
<path d="M39.6287 35.3711H20.9418C19.9746 35.3711 19.1906 36.1551 19.1906 37.1223C19.1906 38.0895 19.9746 38.8735 20.9418 38.8735H39.6287C40.5959 38.8735 41.3799 38.0895 41.3799 37.1223C41.3799 36.1551 40.5959 35.3711 39.6287 35.3711Z" fill="#006685"/>
<path d="M41.71 63.8044C47.9641 63.8044 53.0341 58.7344 53.0341 52.4803C53.0341 46.2262 47.9641 41.1562 41.71 41.1562C35.4559 41.1562 30.3859 46.2262 30.3859 52.4803C30.3859 58.7344 35.4559 63.8044 41.71 63.8044Z" fill="white"/>
<path fill-rule="evenodd" clip-rule="evenodd" d="M41.7098 42.8345C36.3827 42.8345 32.0642 47.153 32.0642 52.4801C32.0642 57.8072 36.3827 62.1257 41.7098 62.1257C47.0369 62.1257 51.3554 57.8072 51.3554 52.4801C51.3554 47.153 47.0369 42.8345 41.7098 42.8345ZM28.7073 52.4801C28.7073 45.299 34.5287 39.4775 41.7098 39.4775C48.8909 39.4775 54.7123 45.299 54.7123 52.4801C54.7123 59.6612 48.8909 65.4826 41.7098 65.4826C34.5287 65.4826 28.7073 59.6612 28.7073 52.4801Z" fill="#006685"/>
<path d="M13.0025 28.8698C19.2566 28.8698 24.3265 23.7999 24.3265 17.5457C24.3265 11.2916 19.2566 6.22168 13.0025 6.22168C6.74836 6.22168 1.67841 11.2916 1.67841 17.5457C1.67841 23.7999 6.74836 28.8698 13.0025 28.8698Z" fill="white"/>
<path fill-rule="evenodd" clip-rule="evenodd" d="M13.0025 7.8999C7.67542 7.8999 3.35694 12.2184 3.35694 17.5455C3.35694 22.8726 7.67542 27.1911 13.0025 27.1911C18.3296 27.1911 22.6481 22.8726 22.6481 17.5455C22.6481 12.2184 18.3296 7.8999 13.0025 7.8999ZM0 17.5455C0 10.3644 5.82143 4.54297 13.0025 4.54297C20.1836 4.54297 26.0051 10.3644 26.0051 17.5455C26.0051 24.7266 20.1836 30.548 13.0025 30.548C5.82143 30.548 0 24.7266 0 17.5455Z" fill="#006685"/>
<path d="M7.96143 18.0717L10.9715 21.0817L18.0434 14.0098" fill="white"/>
<path fill-rule="evenodd" clip-rule="evenodd" d="M19.0325 13.0205C19.5787 13.5668 19.5787 14.4524 19.0325 14.9986L11.9606 22.0706C11.4143 22.6168 10.5287 22.6168 9.98247 22.0706L6.97242 19.0605C6.42619 18.5143 6.42619 17.6286 6.97242 17.0824C7.51866 16.5362 8.40428 16.5362 8.95051 17.0824L10.9715 19.1034L17.0544 13.0205C17.6007 12.4743 18.4863 12.4743 19.0325 13.0205Z" fill="#006685"/>
<path fill-rule="evenodd" clip-rule="evenodd" d="M46.2349 47.9551C46.7812 48.5013 46.7812 49.3869 46.2349 49.9332L39.163 57.0051C38.6167 57.5514 37.7311 57.5514 37.1849 57.0051C36.6386 56.4589 36.6386 55.5733 37.1849 55.027L44.2568 47.9551C44.8031 47.4089 45.6887 47.4089 46.2349 47.9551Z" fill="#006685"/>
<path fill-rule="evenodd" clip-rule="evenodd" d="M37.1849 47.9551C37.7311 47.4089 38.6167 47.4089 39.163 47.9551L46.2349 55.027C46.7812 55.5733 46.7812 56.4589 46.2349 57.0051C45.6887 57.5514 44.8031 57.5514 44.2568 57.0051L37.1849 49.9332C36.6386 49.3869 36.6386 48.5013 37.1849 47.9551Z" fill="#006685"/>
</svg>
