<svg width="64" height="70" viewBox="0 0 64 70" fill="none" xmlns="http://www.w3.org/2000/svg">
<path d="M28.0676 56.1351C43.5689 56.1351 56.1351 43.5689 56.1351 28.0676C56.1351 12.5663 43.5689 0 28.0676 0C12.5663 0 0 12.5663 0 28.0676C0 43.5689 12.5663 56.1351 28.0676 56.1351Z" fill="#EDEDED"/>
<rect x="59.5" y="13.5" width="37" height="49" rx="4.5" transform="rotate(90 59.5 13.5)" fill="white" stroke="#006685" stroke-width="3"/>
<path d="M61 24L9 24" stroke="#006685" stroke-width="3"/>
<path d="M61 30L9 30" stroke="#006685" stroke-width="3"/>
<circle cx="46" cy="52" r="16.5" fill="white" stroke="#006685" stroke-width="3"/>
<path fill-rule="evenodd" clip-rule="evenodd" d="M49.4944 42.0279C47.5935 42.3195 45.9049 43.591 45.1516 45.2981C44.9505 45.7539 44.791 46.3159 44.7159 46.8334C44.6511 47.28 44.6852 48.2009 44.783 48.6407L44.8541 48.9614L44.3798 49.4248L43.9055 49.8882L42.4886 48.5027L41.0716 47.1172L41.1619 46.3461C41.2115 45.9221 41.2397 45.5108 41.2246 45.4323C41.2096 45.3537 41.1384 45.224 41.0666 45.1441C40.9406 45.004 38.5464 43.4846 38.3176 43.3996C37.9712 43.271 37.716 43.4057 36.9953 44.0979C36.2766 44.7882 36.1445 44.9683 36.1445 45.2578C36.1445 45.3731 36.1772 45.5293 36.2171 45.6049C36.4141 45.9784 37.7599 47.9965 37.9036 48.134C38.1498 48.3696 38.2514 48.3817 39.1718 48.2852L39.9785 48.2006L40.4691 48.6683C40.7389 48.9256 41.3787 49.5404 41.8908 50.0347L42.8218 50.9334L39.6914 54.0181C37.5961 56.0826 36.5123 57.1809 36.414 57.3393C36.1871 57.7051 36.0606 58.0524 36.0198 58.422C35.8677 59.7973 36.6017 60.9387 37.9255 61.3856C38.4036 61.547 39.1273 61.5594 39.5965 61.4141C40.2611 61.2084 40.2399 61.2267 43.6464 57.9096L46.8169 54.8223L47.1744 55.2015L47.532 55.5807L47.0512 56.0533C46.4939 56.6011 46.3927 56.7757 46.3919 57.1917C46.3914 57.4227 46.4134 57.5082 46.5191 57.6858C46.7078 58.0029 50.4297 61.6057 50.7253 61.7573C51.3951 62.1009 52.219 62.0781 52.8327 61.6988C53.1073 61.5292 54.5474 60.1422 54.7977 59.8063C55.2668 59.177 55.3363 58.4612 54.9992 57.7288C54.8685 57.4446 54.7542 57.3233 52.929 55.531C51.6256 54.251 50.9288 53.5976 50.7873 53.5223C50.4986 53.3688 50.2441 53.3417 49.9301 53.4308C49.7005 53.496 49.6214 53.5542 49.1521 54.003L48.6297 54.5026L48.2575 54.1389L47.8852 53.7752L48.3581 53.315L48.8311 52.8548L49.1091 52.9184C49.787 53.0734 50.7864 53.0738 51.5284 52.9194C53.756 52.4557 55.4693 50.7245 55.9165 48.485C56.0908 47.6128 55.9802 46.3123 55.697 45.9034C55.45 45.5467 54.9829 45.4081 54.5807 45.5723C54.4759 45.6151 53.9831 46.0604 53.1859 46.8326C51.8979 48.0804 51.7935 48.1602 51.3216 48.2587C50.7086 48.3865 50.0118 48.0382 49.7078 47.452C49.5919 47.2286 49.5787 47.1613 49.5787 46.795C49.5787 46.1683 49.5849 46.1594 51.0094 44.7543C51.68 44.0927 52.2647 43.4837 52.3087 43.401C52.3568 43.3103 52.389 43.1568 52.3896 43.0143C52.3919 42.544 52.076 42.2099 51.5135 42.0877C51.1458 42.0079 49.8713 41.9701 49.4944 42.0279ZM38.9728 45.5635L39.6684 45.9953L39.6416 46.2125C39.6269 46.332 39.6043 46.5007 39.5914 46.5873L39.568 46.7448L39.1955 46.7751C38.9907 46.7918 38.8159 46.7983 38.8072 46.7895C38.7595 46.7414 37.9035 45.4161 37.9035 45.3904C37.9035 45.3259 38.1837 45.0811 38.2293 45.1058C38.2557 45.1201 38.5903 45.326 38.9728 45.5635Z" fill="#006685"/>
</svg>
