<svg width="64" height="70" viewBox="0 0 64 70" fill="none" xmlns="http://www.w3.org/2000/svg">
<path d="M28.0676 56.1351C43.5689 56.1351 56.1351 43.5689 56.1351 28.0676C56.1351 12.5663 43.5689 0 28.0676 0C12.5663 0 0 12.5663 0 28.0676C0 43.5689 12.5663 56.1351 28.0676 56.1351Z" fill="#EDEDED"/>
<rect x="16.5" y="7.5" width="37" height="49" rx="4.5" fill="white" stroke="#006685" stroke-width="3"/>
<path d="M33.7564 14H22.7512C21.784 14 21 14.784 21 15.7512C21 16.7184 21.784 17.5024 22.7512 17.5024H33.7564C34.7235 17.5024 35.5076 16.7184 35.5076 15.7512C35.5076 14.784 34.7235 14 33.7564 14Z" fill="#006685"/>
<path d="M41.4381 21.647H22.7512C21.784 21.647 21 22.431 21 23.3982C21 24.3653 21.784 25.1494 22.7512 25.1494H41.4381C42.4053 25.1494 43.1893 24.3653 43.1893 23.3982C43.1893 22.431 42.4053 21.647 41.4381 21.647Z" fill="#006685"/>
<path d="M41.4381 29H22.7512C21.784 29 21 29.784 21 30.7512C21 31.7184 21.784 32.5024 22.7512 32.5024H41.4381C42.4053 32.5024 43.1893 31.7184 43.1893 30.7512C43.1893 29.784 42.4053 29 41.4381 29Z" fill="#006685"/>
<circle cx="46" cy="52" r="16.5" fill="white" stroke="#006685" stroke-width="3"/>
<path fill-rule="evenodd" clip-rule="evenodd" d="M38.9986 42.3234C38.2569 42.6923 37.7596 43.2628 37.2027 44.3836C36.5153 45.7667 35.9588 48.5262 35.9579 50.5547C35.9576 51.3725 35.9469 51.401 35.6123 51.4773C32.3683 52.2166 30.6347 53.6302 31.0648 55.1855C31.2592 55.8881 31.6306 56.2568 32.6073 56.716C34.8917 57.7904 36.8167 57.9786 45.5008 57.9771C54.1935 57.9756 56.1157 57.7876 58.3944 56.716C59.3747 56.255 59.7475 55.8831 59.9382 55.1757C60.357 53.6229 58.6249 52.2146 55.3894 51.4773C55.0547 51.401 55.0441 51.3725 55.0437 50.5547C55.0432 49.3566 54.8148 47.6408 54.48 46.3195C53.7841 43.574 52.4464 42 50.809 42C50.6022 42 49.8435 42.1948 49.123 42.4331C46.4755 43.3083 44.5261 43.3083 41.8786 42.4331C40.3113 41.9149 39.8544 41.8974 38.9986 42.3234ZM35.2047 59.0055C35.2052 59.5662 35.4884 61.3838 35.693 62.1384L35.833 62.6551L36.7121 65.4027C44.6212 69.3767 49.4545 68.052 53.8485 66.2858L55.1686 62.6551L55.3086 62.1384C55.5132 61.3838 55.7965 59.5662 55.797 59.0055L55.7975 58.5207L55.0127 58.6009C52.7502 58.8325 50.0909 58.9223 45.5008 58.9223C40.9108 58.9223 38.2515 58.8325 35.989 58.6009L35.2042 58.5207L35.2047 59.0055ZM43.115 60.0545C43.4789 60.4178 43.4707 61.551 43.1018 61.8844C42.8688 62.0949 42.6324 62.1232 41.1059 62.1232C38.9774 62.1232 38.8457 62.0531 38.8457 60.9198C38.8457 59.8643 38.97 59.8037 41.1339 59.8037C42.6965 59.8037 42.8882 59.828 43.115 60.0545ZM51.8768 59.9989C52.1106 60.1623 52.156 60.312 52.156 60.9198C52.156 62.0531 52.0243 62.1232 49.8957 62.1232C47.7891 62.1232 47.6355 62.0452 47.6355 60.9754C47.6355 59.8798 47.7805 59.8037 49.8677 59.8037C51.2304 59.8037 51.6571 59.8452 51.8768 59.9989Z" fill="#006685"/>
</svg>
