<svg width="29" height="24" viewBox="0 0 29 24" fill="none" xmlns="http://www.w3.org/2000/svg">
<path d="M0.220453 2.33954V1.16977V0L5.51154 0.0311401L10.8026 0.0622802L11.3495 0.346779C12.1079 0.741327 12.4791 1.20049 13.2239 2.66535C13.578 3.36177 13.9637 4.0262 14.0809 4.14175C14.2887 4.3466 14.4534 4.352 20.4623 4.352H26.6302L27.3062 4.69698C27.7366 4.91666 28.1104 5.20783 28.3353 5.49847C29.0297 6.39603 29.0215 6.28323 28.9886 14.4246C28.9592 21.6628 28.9553 21.7831 28.7307 22.2618C28.4397 22.8821 27.825 23.4882 27.1957 23.7751L26.7027 24H14.4553H2.20797L1.76577 23.7668C1.08615 23.4083 0.723345 23.0635 0.376659 22.4465L0.0593033 21.8816L0.0296517 14.4408L0 6.99998H1.18456H2.36912V14.1163V21.2324L2.60268 21.4776L2.83634 21.7227H14.4502C24.7877 21.7227 26.0902 21.7046 26.3027 21.5578L26.5416 21.393V14.2129C26.5416 7.44209 26.5306 7.02297 26.3488 6.8608C26.1765 6.70712 25.4971 6.68572 19.9297 6.65903L13.7033 6.62926L13.1986 6.38417C12.4205 6.00625 11.9829 5.47739 11.2105 3.98129C10.8196 3.22397 10.4228 2.54629 10.3288 2.47533C10.2005 2.37831 8.92544 2.34547 5.18924 2.34293L0.220453 2.33954Z" fill="#00A6CA"/>
<path d="M11.8253 16.109C11.9135 16.109 13.508 14.6076 15.3685 12.7726C17.2291 10.9375 18.777 9.43612 18.8083 9.43612C18.8396 9.43612 19.2387 9.80652 19.6952 10.2592L20.5251 11.0824L17.0605 14.485C14.8116 16.6937 13.4262 17.9742 13.1124 18.1344C12.7341 18.3277 12.454 18.3819 11.8232 18.3839C10.7008 18.3872 10.2631 18.1228 8.48614 16.3673L7.04643 14.945L7.90192 14.0966L8.75752 13.248L10.2112 14.6786C11.0107 15.4654 11.7371 16.109 11.8253 16.109Z" fill="#00A6CA"/>
</svg>
