<svg width="27" height="28" viewBox="0 0 27 28" fill="none" xmlns="http://www.w3.org/2000/svg">
<path fill-rule="evenodd" clip-rule="evenodd" d="M12.0586 0.0782803C9.34596 0.405752 6.5332 1.68812 4.65446 3.45383L4.14486 3.93278L4.82051 4.67171C5.65362 5.58284 5.74009 5.64883 6.10072 5.64883C6.32256 5.64883 6.5484 5.52479 7.07109 5.11563C8.2746 4.17371 9.40439 3.60866 10.9393 3.18106C11.7319 2.96025 11.9058 2.94445 13.5301 2.94622C15.1668 2.94798 15.3219 2.96263 16.1175 3.19147C17.211 3.50606 18.0636 3.86335 18.8235 4.32571C21.376 5.87847 23.1337 8.26869 23.9052 11.2363C24.167 12.2436 24.1797 12.3662 24.1825 13.9238C24.1857 15.6376 24.1295 16.0829 23.754 17.3203C23.2562 18.9604 22.1066 20.9098 20.993 22.002C19.4946 23.4719 17.4953 24.5539 15.526 24.9609C14.7518 25.1208 12.1427 25.1234 11.4682 24.9649C8.36191 24.235 5.84574 22.3774 4.26657 19.6483C3.56255 18.4316 2.9822 16.6347 2.87 15.3243C2.74642 13.881 2.59346 13.7482 1.05327 13.7478L0 13.7474L0.056566 14.7139C0.324702 19.3 2.5549 23.2957 6.22574 25.7669C9.23783 27.7946 12.8595 28.4723 16.413 27.6731C18.5572 27.1909 20.7448 26.0313 22.394 24.5028C26.7802 20.4376 28.1823 14.1925 25.9563 8.63525C24.5489 5.12189 21.8022 2.33777 18.3713 0.947245C16.4367 0.163148 14.0626 -0.163618 12.0586 0.0782803ZM11.6383 8.87609C10.623 11.2885 9.74778 13.3858 9.69342 13.5368C9.60016 13.796 9.70319 14.0686 11.5355 18.411C12.603 20.9407 13.4979 23.0096 13.5244 23.0085C13.5509 23.0073 14.4465 20.9266 15.5148 18.3847L17.457 13.763L15.5297 9.1898C14.4698 6.67456 13.576 4.58816 13.5435 4.55332C13.511 4.51847 12.6537 6.46372 11.6383 8.87609ZM14.4192 11.8375L15.2309 13.7642L14.5385 15.4099C14.1576 16.315 13.7727 17.233 13.6832 17.4496L13.5204 17.8436L12.7784 16.0822C12.3703 15.1135 11.9856 14.1918 11.9235 14.034C11.8148 13.7576 11.8407 13.6759 12.6449 11.7624C13.1037 10.6707 13.5079 9.80743 13.5432 9.84412C13.5785 9.88082 13.9727 10.7778 14.4192 11.8375Z" fill="#00A6CA"/>
</svg>
