<svg width="30" height="30" viewBox="0 0 30 30" fill="none" xmlns="http://www.w3.org/2000/svg">
<path d="M1.97014 7.51758C4.44048 3.29299 8.72736 0.534838 13.5614 0.0599333C15.5063 -0.131072 17.9438 0.143265 19.7594 0.757388C22.1498 1.56612 24.8676 3.37719 26.3371 5.14082C28.812 8.11121 29.9831 11.269 29.9997 15.0172C30.0078 16.8402 29.835 18.0082 29.3265 19.5683C28.6583 21.6187 27.0732 24.382 26.5598 24.3917C26.3996 24.3947 25.0925 23.1259 24.849 22.7309C24.5888 22.3088 24.6666 22.0119 25.2202 21.3133C26.689 19.4602 27.4599 15.6663 26.9176 12.9599C26.4108 10.4303 25.4327 8.49074 23.8006 6.77815C22.6832 5.60566 21.7241 4.88114 20.4433 4.2418C15.6968 1.8725 10.0915 2.78728 6.42549 6.52964C4.85167 8.1363 3.92345 9.71252 3.32113 11.8013C3.07418 12.6576 3.03812 13.0648 3.037 15.0172C3.03576 17.0881 3.06 17.3319 3.36676 18.3286C3.78729 19.695 4.09342 20.3832 4.73478 21.404C5.89417 23.2488 7.4195 24.658 9.29709 25.6191C10.7804 26.3783 11.6783 26.6758 13.3083 26.9479C16.0762 27.4103 19.2865 26.6946 21.6121 25.0969C21.9762 24.8466 22.3557 24.642 22.4552 24.642C22.7308 24.642 24.4837 26.4863 24.4044 26.6929C24.3232 26.9044 22.7361 27.9336 21.6451 28.4824C21.2119 28.7004 20.3496 29.0444 19.729 29.247C14.3039 31.0175 8.43191 29.6141 4.39458 25.5817C2.67565 23.865 1.49888 21.9719 0.735158 19.6953C-0.581892 15.7691 -0.104908 11.0662 1.97014 7.51758Z" fill="#00A6CA"/>
<path d="M10.2102 9.06947C10.7779 7.95622 11.9563 7.04267 13.2935 6.67904C14.092 6.46196 15.9642 6.4745 16.8423 6.70289C18.2661 7.07323 19.4256 8.03409 20.0567 9.36653C20.3848 10.0596 20.4388 10.3142 20.4376 11.1673C20.4356 12.6746 20.1052 13.2793 18.2701 15.1346C16.583 16.8404 16.2847 17.3469 16.2805 18.5123C16.2784 19.0916 16.2304 19.2933 16.081 19.3506C15.7788 19.4665 13.9997 19.4363 13.8031 19.3118C13.5761 19.1684 13.5986 17.7519 13.8421 16.8473C14.1175 15.8236 14.5271 15.2518 16.1319 13.6511C17.7747 12.0123 17.9647 11.6485 17.6506 10.7434C17.175 9.37261 16.3361 8.81463 14.8626 8.88889C14.1003 8.92739 13.881 8.99048 13.4984 9.28196C12.981 9.67614 12.6729 10.2202 12.3681 11.2781L12.1571 12.0098L11.14 11.9292C9.66516 11.8123 9.56319 11.7717 9.56319 11.2996C9.56319 10.8094 9.88039 9.71613 10.2102 9.06947Z" fill="#00A6CA"/>
<path d="M13.5914 23.3894C13.3812 23.215 13.3457 21.1587 13.5466 20.7839C13.6604 20.5714 13.8164 20.5437 14.8992 20.5437C15.7948 20.5437 16.1616 20.5901 16.2671 20.7171C16.3613 20.8306 16.3987 21.3348 16.3755 22.1763L16.3399 23.4622L15.0525 23.4977C14.2099 23.5209 13.7051 23.4835 13.5914 23.3894Z" fill="#00A6CA"/>
</svg>
