<svg width="377" height="241" viewBox="0 0 377 241" fill="none" xmlns="http://www.w3.org/2000/svg">
<circle r="90.2639" transform="matrix(0.866044 0.499967 -0.866044 0.499967 189.061 149.819)" fill="#EEFCFF"/>
<path d="M26.4101 164.533C26.4525 162.372 26.5373 160.215 26.6641 158.064L26.2908 158.042C26.1638 160.197 26.0787 162.359 26.0362 164.526L26.4101 164.533ZM27.1718 151.61L26.7996 151.574C27.0119 149.418 27.2663 147.269 27.5623 145.129L27.9327 145.18C27.6373 147.315 27.3835 149.459 27.1718 151.61ZM28.9454 138.786L28.5773 138.72C28.958 136.588 29.3802 134.466 29.8434 132.355L30.2086 132.436C29.7465 134.542 29.3252 136.659 28.9454 138.786ZM31.7202 126.14L31.3584 126.046C31.905 123.952 32.4923 121.869 33.1199 119.801L33.4777 119.909C32.8515 121.973 32.2655 124.051 31.7202 126.14ZM35.4786 113.752L35.1254 113.629C35.8343 111.585 36.5831 109.555 37.3714 107.541L37.7196 107.677C36.9331 109.687 36.1859 111.712 35.4786 113.752ZM40.1972 101.696L39.8547 101.546C40.7214 99.5646 41.6271 97.5999 42.5712 95.6532L42.9076 95.8164C41.9656 97.7587 41.062 99.7189 40.1972 101.696ZM45.8469 90.0474L45.5171 89.8712C46.5362 87.9645 47.5932 86.0769 48.6875 84.2097L49.0101 84.3987C47.9182 86.2618 46.8637 88.1451 45.8469 90.0474ZM52.3928 78.8783L52.0779 78.6767C53.2431 76.8565 54.4449 75.0575 55.683 73.2811L55.9897 73.4949C54.7545 75.2673 53.5553 77.0622 52.3928 78.8783ZM59.7951 68.2574L59.4969 68.0317C60.801 66.3091 62.1404 64.6099 63.5148 62.9353L63.8039 63.1725C62.4326 64.8433 61.0961 66.5386 59.7951 68.2574ZM68.0082 58.2501L67.7288 58.0017C69.1632 56.3876 70.6317 54.7988 72.1338 53.2366L72.4033 53.4958C70.9047 55.0545 69.4395 56.6396 68.0082 58.2501ZM76.9826 48.9165L76.7235 48.647C78.2857 47.1449 79.8744 45.6764 81.4886 44.2419L81.7369 44.5214C80.1264 45.9526 78.5413 47.4178 76.9826 48.9165ZM86.6593 40.317L86.4221 40.028C88.0967 38.6536 89.7959 37.3141 91.5185 36.0101L91.7442 36.3082C90.0255 37.6093 88.3301 38.9457 86.6593 40.317ZM96.9818 32.5029L96.768 32.1962C98.5444 30.9581 100.343 29.7562 102.164 28.5911L102.365 28.906C100.549 30.0685 98.7542 31.2676 96.9818 32.5029ZM107.886 25.5233L107.697 25.2007C109.564 24.1063 111.451 23.0494 113.358 22.0303L113.534 22.3601C111.632 23.3768 109.749 24.4314 107.886 25.5233ZM119.303 19.4208L119.14 19.0844C121.087 18.1402 123.051 17.2345 125.033 16.3678L125.183 16.7104C123.206 17.5751 121.246 18.4788 119.303 19.4208ZM131.164 14.2327L131.028 13.8846C133.042 13.0963 135.072 12.3474 137.116 11.6385L137.238 11.9918C135.199 12.6991 133.174 13.4462 131.164 14.2327ZM143.396 9.9909L143.288 9.6331C145.356 9.00547 147.438 8.41814 149.533 7.8716L149.627 8.23339C147.538 8.77869 145.46 9.36469 143.396 9.9909ZM155.922 6.7218L155.842 6.35659C157.953 5.89337 160.075 5.47118 162.207 5.09052L162.273 5.4586C160.146 5.8384 158.029 6.25963 155.922 6.7218ZM168.667 4.44586L168.616 4.07548C170.756 3.77948 172.904 3.5251 175.06 3.31283L175.097 3.68493C172.946 3.89673 170.802 4.15052 168.667 4.44586ZM181.551 3.17725L181.529 2.80399C183.684 2.67694 185.846 2.59192 188.013 2.54941L188.02 2.92324C185.858 2.96565 183.701 3.05048 181.551 3.17725ZM194.496 2.92324L194.504 2.54941C196.67 2.59192 198.832 2.67694 200.988 2.80399L200.966 3.17725C198.815 3.05048 196.658 2.96565 194.496 2.92324ZM207.42 3.68493L207.456 3.31283C209.612 3.5251 211.761 3.77948 213.901 4.07548L213.85 4.44586C211.714 4.15053 209.571 3.89673 207.42 3.68493ZM220.244 5.4586L220.31 5.09052C222.441 5.47119 224.563 5.89337 226.674 6.35659L226.594 6.7218C224.488 6.25963 222.371 5.8384 220.244 5.4586ZM232.89 8.2334L232.984 7.87161C235.078 8.41815 237.16 9.00548 239.229 9.63311L239.12 9.99091C237.056 9.3647 234.979 8.7787 232.89 8.2334ZM245.278 11.9918L245.401 11.6386C247.445 12.3475 249.474 13.0963 251.488 13.8846L251.352 14.2328C249.343 13.4463 247.318 12.6991 245.278 11.9918ZM257.334 16.7104L257.484 16.3678C259.465 17.2346 261.43 18.1402 263.376 19.0844L263.213 19.4208C261.271 18.4788 259.311 17.5752 257.334 16.7104ZM268.982 22.3601L269.159 22.0303C271.065 23.0494 272.953 24.1063 274.82 25.2007L274.631 25.5233C272.768 24.4314 270.885 23.3768 268.982 22.3601ZM280.151 28.906L280.353 28.5911C282.173 29.7562 283.972 30.9581 285.749 32.1962L285.535 32.5029C283.762 31.2676 281.968 30.0685 280.151 28.906ZM290.772 36.3082L290.998 36.0101C292.721 37.3142 294.42 38.6536 296.094 40.028L295.857 40.317C294.186 38.9457 292.491 37.6093 290.772 36.3082ZM300.78 44.5214L301.028 44.2419C302.642 45.6764 304.231 47.1449 305.793 48.647L305.534 48.9165C303.975 47.4178 302.39 45.9527 300.78 44.5214ZM310.113 53.4958L310.383 53.2367C311.885 54.7989 313.353 56.3876 314.788 58.0018L314.508 58.2501C313.077 56.6396 311.612 55.0545 310.113 53.4958ZM318.713 63.1725L319.002 62.9353C320.376 64.6099 321.716 66.3091 323.02 68.0317L322.721 68.2574C321.42 66.5386 320.084 64.8433 318.713 63.1725ZM326.527 73.4949L326.834 73.2812C328.072 75.0576 329.273 76.8565 330.439 78.6768L330.124 78.8783C328.961 77.0622 327.762 75.2673 326.527 73.4949ZM333.506 84.3988L333.829 84.2097C334.923 86.077 335.98 87.9645 336.999 89.8712L336.67 90.0475C335.653 88.1451 334.598 86.2618 333.506 84.3988ZM339.609 95.8164L339.945 95.6532C340.889 97.5999 341.795 99.5646 342.662 101.546L342.319 101.696C341.455 99.719 340.551 97.7587 339.609 95.8164ZM344.797 107.678L345.145 107.541C345.933 109.555 346.682 111.585 347.391 113.629L347.038 113.752C346.331 111.712 345.583 109.687 344.797 107.678ZM349.039 119.909L349.397 119.801C350.024 121.87 350.612 123.952 351.158 126.046L350.796 126.14C350.251 124.051 349.665 121.973 349.039 119.909ZM352.308 132.436L352.673 132.356C353.136 134.467 353.559 136.588 353.939 138.72L353.571 138.786C353.191 136.659 352.77 134.542 352.308 132.436ZM354.584 145.18L354.954 145.129C355.25 147.269 355.505 149.418 355.717 151.574L355.345 151.61C355.133 149.459 354.879 147.315 354.584 145.18ZM355.852 158.064L356.226 158.042C356.353 160.198 356.438 162.359 356.48 164.526L356.106 164.533C356.064 162.372 355.979 160.215 355.852 158.064Z" stroke="#00A6CA" stroke-width="0.838852" stroke-dasharray="6.71 6.71"/>
<circle cx="28.9404" cy="148.94" r="28.9404" fill="#C7F4FF"/>
<circle cx="348.89" cy="147.89" r="27.89" fill="#C7F4FF"/>
<path fill-rule="evenodd" clip-rule="evenodd" d="M352.425 134.072C352.244 134.145 351.236 135.072 350.186 136.131C349.136 137.19 348.208 138.062 348.125 138.069C348.041 138.076 346.985 137.459 345.777 136.698C344.569 135.937 343.382 135.258 343.14 135.188C342.546 135.018 341.95 135.326 341.789 135.886C341.728 136.097 341.697 138.048 341.718 140.221L341.758 144.173L342.629 143.979C343.291 143.833 343.578 143.704 343.819 143.446L344.136 143.105L344.126 140.869C344.121 139.639 344.143 138.618 344.176 138.6C344.209 138.582 345.006 139.051 345.947 139.643C347.873 140.854 348.374 141.054 348.831 140.797C348.997 140.703 349.794 139.954 350.6 139.132C351.406 138.31 352.09 137.644 352.119 137.653C352.148 137.662 352.385 138.635 352.646 139.815C352.907 140.995 353.198 142.055 353.293 142.172C353.585 142.53 354.215 142.621 356.304 142.608C357.41 142.601 358.331 142.624 358.35 142.658C358.369 142.693 357.851 143.569 357.198 144.606C355.619 147.112 355.582 146.821 357.755 148.966C359.308 150.499 359.378 150.586 359.102 150.644C357.107 151.063 355.18 151.527 354.944 151.645C354.398 151.918 354.337 152.218 354.36 154.555C354.372 155.761 354.361 156.759 354.337 156.773C354.312 156.786 353.462 156.275 352.448 155.637C350.467 154.39 350.126 154.264 349.602 154.582C349.445 154.678 348.671 155.408 347.881 156.204C347.092 157.001 346.417 157.644 346.382 157.634C346.347 157.624 346.109 156.689 345.853 155.556C345.598 154.423 345.321 153.389 345.239 153.258C344.943 152.784 344.5 152.704 342.268 152.723C341.094 152.733 340.123 152.721 340.109 152.696C340.095 152.671 340.614 151.811 341.262 150.784C342.283 149.166 342.438 148.867 342.425 148.542C342.416 148.336 342.347 148.073 342.272 147.956C342.115 147.713 336.693 142.353 336.641 142.389C336.621 142.402 336.238 142.783 335.788 143.235L334.969 144.056L336.467 145.533C337.291 146.346 338.356 147.4 338.834 147.876L339.703 148.743L339.412 149.2C339.252 149.452 338.597 150.48 337.956 151.486C337.316 152.491 336.752 153.452 336.703 153.622C336.522 154.256 336.86 154.904 337.463 155.077C337.587 155.112 338.935 155.137 340.459 155.131C341.982 155.125 343.252 155.167 343.281 155.225C343.31 155.282 343.601 156.513 343.928 157.961C344.255 159.408 344.596 160.703 344.686 160.839C344.907 161.173 345.772 161.421 346.136 161.255C346.284 161.187 347.257 160.269 348.3 159.214C349.342 158.16 350.241 157.271 350.296 157.238C350.352 157.206 351.449 157.842 352.734 158.652C354.02 159.462 355.177 160.156 355.306 160.193C355.914 160.368 356.547 160.003 356.728 159.372C356.776 159.207 356.801 157.859 356.785 156.378C356.759 153.942 356.776 153.677 356.967 153.604C357.082 153.559 358.363 153.263 359.813 152.946C362.185 152.427 362.476 152.336 362.714 152.041C363.042 151.633 363.104 151.099 362.867 150.723C362.77 150.568 361.819 149.588 360.755 148.544C359.692 147.5 358.814 146.633 358.805 146.619C358.797 146.604 359.447 145.558 360.25 144.294C361.053 143.031 361.759 141.827 361.818 141.62C361.979 141.059 361.631 140.49 361.019 140.317C360.766 140.245 359.416 140.192 358.019 140.2C356.623 140.208 355.408 140.193 355.32 140.166C355.221 140.135 354.932 139.092 354.564 137.43C354.236 135.952 353.873 134.614 353.758 134.455C353.485 134.079 352.855 133.898 352.425 134.072Z" fill="#00A6CA"/>
<ellipse cx="347.174" cy="145.662" rx="1.21902" ry="1.21017" transform="rotate(16 347.174 145.662)" fill="#00A6CA"/>
<ellipse cx="350.183" cy="151.049" rx="1.21902" ry="1.21017" transform="rotate(16 350.183 151.049)" fill="#00A6CA"/>
<rect width="10.7453" height="1.70201" transform="matrix(0.918092 -0.396366 0.40292 0.915235 343.598 149.718)" fill="#00A6CA"/>
<path fill-rule="evenodd" clip-rule="evenodd" d="M18.5146 137.614C18.2872 137.792 17.5037 139.408 16.3129 142.155L14.4644 146.42L18.1654 155.951L21.8665 165.483L22.4765 165.976C22.812 166.247 23.3843 166.572 23.7482 166.698C25.0096 167.133 25.2022 167.08 32.5906 164.243L39.3024 161.667L38.73 160.176L38.1577 158.685L31.4959 161.242L24.834 163.8L24.5108 163.578C24.2282 163.384 23.8431 162.459 21.4463 156.215L18.7051 149.074L21.1883 148.068C23.66 147.066 23.674 147.058 24.2441 146.375C24.8816 145.611 25.2669 144.487 25.182 143.639C25.1513 143.332 24.7695 142.151 24.3335 141.014L23.5408 138.946L27.8504 137.292C31.3615 135.944 32.2216 135.655 32.4927 135.731C32.8173 135.822 32.9425 136.126 37.5795 148.102L42.3333 160.381L42.6635 160.15C43.4712 159.587 44.0906 158.224 44.0576 157.082C44.035 156.294 35.6772 134.483 35.1771 133.907C34.5161 133.145 33.5883 132.657 32.6241 132.564L31.6925 132.474L25.28 134.905C21.742 136.247 18.7092 137.461 18.5146 137.614ZM21.4774 142.01C22.0533 143.649 22.1102 143.909 21.9501 144.161C21.8155 144.373 21.2971 144.629 19.9611 145.142L18.1543 145.835L19.3713 143.035C20.0406 141.495 20.641 140.215 20.7054 140.19C20.7698 140.166 21.1173 140.984 21.4774 142.01ZM23.4803 152.344L24.0527 153.835L29.3881 151.787L34.7236 149.739L34.1513 148.248L33.5789 146.757L28.2435 148.805L22.908 150.853L23.4803 152.344ZM25.7697 158.308L26.342 159.799L31.6775 157.751L37.013 155.703L36.4407 154.212L35.8683 152.721L30.5328 154.769L25.1973 156.817L25.7697 158.308Z" fill="#00A6CA"/>
<g opacity="0.6" filter="url(#filter0_f_4123_2386)">
<ellipse cx="185.5" cy="184" rx="78.5" ry="5" transform="rotate(180 185.5 184)" fill="#616A6C"/>
</g>
<path d="M113.072 175.506V90.2454C113.072 89.7283 113.33 89.2452 113.759 88.9571L185.931 40.5424L259.745 88.9585C260.183 89.2453 260.446 89.7329 260.446 90.2557V175.506H113.072Z" fill="#3C8BA5"/>
<rect x="133.472" y="34.5706" width="110.798" height="121.925" rx="0.879943" fill="white" stroke="#A1C4D0" stroke-width="0.465391"/>
<rect x="142.633" y="98.148" width="43.4365" height="3.1026" rx="1.5513" fill="url(#paint0_linear_4123_2386)"/>
<rect x="142.633" y="105.904" width="61.2764" height="3.1026" rx="1.5513" fill="url(#paint1_linear_4123_2386)"/>
<rect x="142.633" y="113.662" width="50.4173" height="3.1026" rx="1.5513" fill="url(#paint2_linear_4123_2386)"/>
<path d="M112.516 94.3119V175.954C112.516 176.518 112.973 176.975 113.538 176.975H260.588C261.152 176.975 261.609 176.518 261.609 175.954V94.4017C261.609 92.4536 259.366 91.361 257.832 92.5623L195.765 141.181C194.688 142.025 193.359 142.483 191.991 142.483H184.842C183.515 142.483 182.225 142.052 181.164 141.255L116.257 92.4445C114.717 91.2864 112.516 92.3851 112.516 94.3119Z" fill="#49AAC9" stroke="url(#paint3_linear_4123_2386)" stroke-width="1.11264"/>
<path d="M113.072 175.862V93.7777C113.072 92.3055 114.758 91.4695 115.93 92.3603L180.277 141.264C181.34 142.072 181.167 143.721 179.959 144.291L113.072 175.862Z" fill="#4399B5"/>
<path d="M260.446 176.282V94.6302C260.446 93.1435 258.731 92.3118 257.564 93.2321L195.215 142.374C194.178 143.191 194.36 144.812 195.551 145.38L260.446 176.282Z" fill="#4399B5"/>
<rect x="143.114" y="69.627" width="57.8572" height="3.33791" rx="1.66896" fill="url(#paint4_linear_4123_2386)"/>
<rect x="143.114" y="85.2048" width="57.8572" height="3.33791" rx="1.66896" fill="url(#paint5_linear_4123_2386)"/>
<rect x="143.114" y="77.4159" width="76.772" height="3.33791" rx="1.66896" fill="url(#paint6_linear_4123_2386)"/>
<path d="M161.663 51.3514C161.663 55.4815 164.761 57.6889 168.037 57.6889C170.636 57.6889 173.288 56.3182 173.822 53.0248H171.259C170.832 54.538 169.568 55.2678 168.019 55.2678C165.794 55.2678 164.352 53.4876 164.352 51.3514C164.352 48.9837 165.829 47.3815 168.037 47.3815C169.532 47.3815 170.654 48.0045 171.205 49.4109H173.787C173.217 46.3311 170.547 44.9782 168.037 44.9782C164.761 44.9248 161.663 47.2034 161.663 51.3514ZM180.049 55.4459V47.1678H181.669V45.1028H175.758V47.1678H177.378V55.4459H175.616V57.5643H181.811V55.4459H180.049ZM193.64 48.8056C193.64 46.4736 192.002 45.1206 189.724 45.1206H184.436V57.5643H190.222C192.714 57.5643 194.174 56.0689 194.174 53.8793C194.174 52.5975 193.551 51.5828 192.394 51.1021C193.177 50.6215 193.64 49.7136 193.64 48.8056ZM189.528 47.3993C190.454 47.3993 191.041 47.9867 191.023 48.8947C191.005 49.7314 190.436 50.2298 189.528 50.2298H187.089V47.3993H189.528ZM189.919 52.4017C190.329 52.4017 190.685 52.4373 190.988 52.6509C191.361 52.918 191.557 53.3808 191.539 53.8793C191.486 54.716 190.952 55.25 190.044 55.25H187.089V52.4017H189.919ZM200.44 55.4459V47.1678H202.06V45.1028H196.15V47.1678H197.77V55.4459H196.008V57.5643H202.203V55.4459H200.44ZM207.481 45.1028H204.81V57.5643H212.679V55.1788H207.481V45.1028Z" fill="#00A6CA"/>
<circle cx="296.94" cy="37.331" r="28.9404" fill="#C7F4FF"/>
<path d="M296.608 36.7957L295.062 33.0236L295.189 32.2115L295.884 32.3202C296.293 32.3842 296.65 32.3538 296.954 32.229C297.26 32.0969 297.475 31.8833 297.6 31.5881L295.342 31.2348L295.469 30.4227L297.716 30.7742C297.69 30.4853 297.583 30.2325 297.395 30.0158C297.209 29.7917 296.922 29.6495 296.536 29.5891L295.621 29.446L295.748 28.6339L300.972 29.451L300.845 30.2631L299.027 29.9786C299.253 30.2989 299.372 30.6511 299.384 31.0351L300.692 31.2398L300.565 32.0519L299.28 31.8508C299.118 32.3801 298.831 32.77 298.42 33.0206C298.01 33.2637 297.511 33.3955 296.923 33.4159L298.669 37.1182L296.608 36.7957Z" fill="#00A6CA"/>
<path fill-rule="evenodd" clip-rule="evenodd" d="M293.466 39.0502C292.846 39.1221 292.267 39.3017 291.676 39.6059L291.144 39.8796L290.91 39.5591C290.528 39.0349 290.137 38.8207 289.223 38.6343C288.76 38.5399 288.196 38.4808 287.925 38.4984C287.109 38.5515 286.355 39.0656 286.108 39.7372L286.01 40.0038L287.639 40.2586C289.002 40.4719 289.286 40.5393 289.384 40.6728C289.484 40.8101 289.448 41.1668 289.126 43.2225C288.854 44.9646 288.719 45.6368 288.63 45.7016C288.557 45.7551 288.243 45.749 287.841 45.6861C287.44 45.6232 287.139 45.5333 287.085 45.4599C287.023 45.3743 287.069 44.8738 287.241 43.7756L287.485 42.2131L286.564 42.0689L285.642 41.9247L285.39 43.5327C285.085 45.4839 285.112 45.8951 285.59 46.5504C285.996 47.1058 286.522 47.3682 287.553 47.5295C288.533 47.6828 289.149 47.5991 289.664 47.2424L290.066 46.9645L290.316 47.245C290.723 47.7012 291.412 48.2044 291.949 48.4376C292.338 48.6066 292.951 48.7336 294.682 49.0044L296.913 49.3535L301.264 48.1813C306.096 46.8797 306.233 46.8238 306.842 45.9132C307.11 45.5117 307.187 45.304 307.28 44.7231C307.379 44.1015 307.369 43.9454 307.194 43.3856C306.844 42.2612 306.034 41.5749 304.836 41.3875C304.151 41.2802 304.095 41.2881 302.512 41.7147C301.62 41.955 300.858 42.1466 300.818 42.1404C300.778 42.1342 300.817 41.9164 300.905 41.6565C301.111 41.0486 301.095 40.6438 300.853 40.3124L300.66 40.0472L297.269 39.5248C294.851 39.1523 293.76 39.0162 293.466 39.0502ZM298.734 41.8369C298.563 42.1846 298.01 42.6971 297.55 42.9348C296.883 43.2791 296.401 43.3379 295.455 43.19L294.637 43.062L294.486 44.0276L294.335 44.9932L295.103 45.1119C295.526 45.1771 296.137 45.215 296.461 45.196C296.802 45.176 298.588 44.7537 300.692 44.1956C302.694 43.6644 304.431 43.2451 304.551 43.264C305.323 43.3847 305.659 44.3317 305.145 44.9382C304.964 45.1517 304.403 45.327 300.768 46.3061L296.599 47.429L294.72 47.1059C292.896 46.7923 292.827 46.7738 292.377 46.4703C290.616 45.2818 290.541 42.7797 292.23 41.5474C292.699 41.2057 293.244 40.9968 293.773 40.9564C293.962 40.942 295.176 41.092 296.471 41.2896L298.827 41.6491L298.734 41.8369Z" fill="#00A6CA"/>
<path d="M291.894 38.0653C290.345 36.3735 289.552 34.0362 289.93 31.6158C290.597 27.3538 294.646 24.4477 298.973 25.1246C303.301 25.8016 306.268 29.8053 305.602 34.0672C305.223 36.4877 303.754 38.4709 301.762 39.6088" stroke="#00A6CA" stroke-width="2.51656"/>
<circle cx="82.655" cy="34.8405" r="28.9404" transform="rotate(-13.3496 82.655 34.8405)" fill="#C7F4FF"/>
<path d="M93.6075 20.12L92.423 21.6772M68.7087 23.7745L70.2908 24.9257M96.3901 39.078L94.8081 37.9269M71.4913 42.7326L72.6758 41.1754M80.1884 44.2227L88.488 43.0045M82.168 48.0821L87.701 47.27M81.3569 23.3014C75.8238 24.1135 73.3785 27.1699 74.0511 31.2903C74.3784 33.2993 75.2396 34.5742 76.8216 35.7253C78.4036 36.8764 79.1946 37.452 79.5922 40.1602L87.8918 38.9421C87.4942 36.2338 88.0865 35.4552 89.271 33.898C90.4555 32.3408 90.914 30.8722 90.6503 28.854C90.1105 24.7141 86.89 22.4893 81.3569 23.3014Z" stroke="#00A6CA" stroke-width="2.34879" stroke-linecap="round" stroke-linejoin="round"/>
<defs>
<filter id="filter0_f_4123_2386" x="89.3841" y="161.384" width="192.232" height="45.2318" filterUnits="userSpaceOnUse" color-interpolation-filters="sRGB">
<feFlood flood-opacity="0" result="BackgroundImageFix"/>
<feBlend mode="normal" in="SourceGraphic" in2="BackgroundImageFix" result="shape"/>
<feGaussianBlur stdDeviation="8.80795" result="effect1_foregroundBlur_4123_2386"/>
</filter>
<linearGradient id="paint0_linear_4123_2386" x1="144.805" y1="100.475" x2="178.832" y2="99.7992" gradientUnits="userSpaceOnUse">
<stop stop-color="#49AAC9"/>
<stop offset="1" stop-color="#3E8999" stop-opacity="0"/>
</linearGradient>
<linearGradient id="paint1_linear_4123_2386" x1="145.697" y1="108.231" x2="193.681" y2="106.887" gradientUnits="userSpaceOnUse">
<stop stop-color="#49AAC9"/>
<stop offset="1" stop-color="#3E8999" stop-opacity="0"/>
</linearGradient>
<linearGradient id="paint2_linear_4123_2386" x1="145.154" y1="115.989" x2="184.644" y2="115.079" gradientUnits="userSpaceOnUse">
<stop stop-color="#49AAC9"/>
<stop offset="1" stop-color="#3E8999" stop-opacity="0"/>
</linearGradient>
<linearGradient id="paint3_linear_4123_2386" x1="187.063" y1="90.7458" x2="187.063" y2="197.113" gradientUnits="userSpaceOnUse">
<stop stop-color="#88BFCF"/>
<stop offset="0.690547" stop-color="#88BFCF" stop-opacity="0"/>
</linearGradient>
<linearGradient id="paint4_linear_4123_2386" x1="146.007" y1="72.1305" x2="191.321" y2="71.0163" gradientUnits="userSpaceOnUse">
<stop stop-color="#49AAC9"/>
<stop offset="1" stop-color="#3E8999" stop-opacity="0"/>
</linearGradient>
<linearGradient id="paint5_linear_4123_2386" x1="146.007" y1="87.7082" x2="191.321" y2="86.5941" gradientUnits="userSpaceOnUse">
<stop stop-color="#49AAC9"/>
<stop offset="1" stop-color="#3E8999" stop-opacity="0"/>
</linearGradient>
<linearGradient id="paint6_linear_4123_2386" x1="146.952" y1="79.9193" x2="207.054" y2="77.9586" gradientUnits="userSpaceOnUse">
<stop stop-color="#49AAC9"/>
<stop offset="1" stop-color="#3E8999" stop-opacity="0"/>
</linearGradient>
</defs>
</svg>
