<svg width="115" height="117" viewBox="0 0 115 117" fill="none" xmlns="http://www.w3.org/2000/svg">
<g opacity="0.3" filter="url(#filter0_f_4092_2441)">
<ellipse cx="55.8261" cy="105.403" rx="47.2891" ry="2.72822" transform="rotate(180 55.8261 105.403)" fill="#616A6C"/>
</g>
<path d="M20.8162 12.2021C20.6139 12.1565 20.413 12.2836 20.3674 12.4859C20.3219 12.6882 20.4489 12.8892 20.6512 12.9347L20.8162 12.2021ZM17.704 12.5305C17.9112 12.54 18.0868 12.3797 18.0963 12.1725C18.1058 11.9654 17.9456 11.7898 17.7384 11.7803L17.704 12.5305ZM14.5953 11.9552C14.3906 11.9884 14.2517 12.1814 14.2849 12.3861C14.3182 12.5908 14.5111 12.7297 14.7158 12.6965L14.5953 11.9552ZM11.8584 13.4935C12.0507 13.4157 12.1434 13.1968 12.0656 13.0046C11.9879 12.8123 11.7689 12.7196 11.5767 12.7973L11.8584 13.4935ZM8.81437 14.2965C8.64421 14.415 8.60237 14.6491 8.72092 14.8192C8.83947 14.9894 9.07351 15.0312 9.24367 14.9127L8.81437 14.2965ZM6.99389 16.865C7.13572 16.7137 7.12803 16.4761 6.97673 16.3343C6.82542 16.1924 6.58779 16.2001 6.44597 16.3514L6.99389 16.865ZM4.53362 18.8329C4.42289 19.0083 4.47527 19.2402 4.65061 19.3509C4.82596 19.4616 5.05787 19.4093 5.1686 19.2339L4.53362 18.8329ZM3.79731 21.8951C3.87632 21.7033 3.78493 21.4838 3.59318 21.4048C3.40144 21.3258 3.18195 21.4172 3.10294 21.6089L3.79731 21.8951ZM2.15148 24.5832C2.10425 24.7851 2.22966 24.9871 2.43159 25.0343C2.63353 25.0816 2.83551 24.9561 2.88274 24.7542L2.15148 24.5832ZM2.42884 27.7226C2.4442 27.5158 2.28901 27.3357 2.08219 27.3203C1.87538 27.3049 1.69527 27.4601 1.6799 27.6669L2.42884 27.7226ZM1.69045 30.7865C1.70728 30.9932 1.88849 31.1472 2.09518 31.1303C2.30188 31.1135 2.4558 30.9323 2.43897 30.7256L1.69045 30.7865ZM2.91829 33.6889C2.86893 33.4875 2.66563 33.3642 2.46421 33.4136C2.26278 33.4629 2.13951 33.6662 2.18887 33.8676L2.91829 33.6889ZM3.1765 36.8282C3.25812 37.0189 3.47884 37.1073 3.66948 37.0257C3.86013 36.944 3.94851 36.7233 3.86689 36.5327L3.1765 36.8282ZM5.27356 39.1796C5.16115 39.0053 4.92875 38.9552 4.75447 39.0676C4.58019 39.18 4.53004 39.4124 4.64245 39.5867L5.27356 39.1796ZM6.54973 42.0586C6.68971 42.2116 6.92723 42.2222 7.08024 42.0822C7.23325 41.9422 7.24381 41.7047 7.10383 41.5517L6.54973 42.0586ZM9.29846 43.589C9.13568 43.4605 8.89955 43.4883 8.77106 43.6511C8.64257 43.8138 8.67036 44.05 8.83314 44.1784L9.29846 43.589ZM11.4238 45.9206C11.604 46.0233 11.8333 45.9605 11.936 45.7804C12.0387 45.6002 11.9759 45.3709 11.7958 45.2682L11.4238 45.9206ZM14.5138 46.5797C14.3215 46.5021 14.1027 46.595 14.025 46.7873C13.9474 46.9796 14.0403 47.1984 14.2326 47.2761L14.5138 46.5797ZM17.1681 48.2623C17.3681 48.317 17.5746 48.1992 17.6294 47.9992C17.6841 47.7992 17.5663 47.5926 17.3663 47.5379L17.1681 48.2623ZM20.3174 48.1834C20.1128 48.1491 19.9192 48.2871 19.8849 48.4917C19.8506 48.6962 19.9886 48.8898 20.1931 48.9241L20.3174 48.1834ZM23.268 49.3C23.4748 49.3165 23.6557 49.1622 23.6721 48.9555C23.6885 48.7487 23.5343 48.5678 23.3275 48.5514L23.268 49.3ZM26.3722 48.6762C26.1648 48.6752 25.996 48.8426 25.995 49.05C25.9941 49.2574 26.1615 49.4262 26.3689 49.4271L26.3722 48.6762ZM29.4387 49.3402C29.6457 49.3278 29.8035 49.15 29.7912 48.943C29.7788 48.7359 29.601 48.5781 29.394 48.5905L29.4387 49.3402ZM32.4053 48.3246C32.1993 48.3484 32.0516 48.5348 32.0755 48.7408C32.0993 48.9468 32.2857 49.0945 32.4917 49.0706L32.4053 48.3246ZM22.3446 12.6102C21.8282 12.451 21.3186 12.3152 20.8162 12.2021L20.6512 12.9347C21.1342 13.0435 21.625 13.1742 22.1233 13.3279L22.3446 12.6102ZM17.7384 11.7803C16.6466 11.7303 15.5976 11.7923 14.5953 11.9552L14.7158 12.6965C15.6657 12.5421 16.6628 12.4828 17.704 12.5305L17.7384 11.7803ZM11.5767 12.7973C10.5912 13.1961 9.66885 13.7012 8.81437 14.2965L9.24367 14.9127C10.0535 14.3485 10.9265 13.8706 11.8584 13.4935L11.5767 12.7973ZM6.44597 16.3514C5.73464 17.1103 5.09576 17.9427 4.53362 18.8329L5.1686 19.2339C5.70648 18.3822 6.3165 17.5877 6.99389 16.865L6.44597 16.3514ZM3.10294 21.6089C2.70904 22.5649 2.39056 23.561 2.15148 24.5832L2.88274 24.7542C3.1128 23.7706 3.41905 22.813 3.79731 21.8951L3.10294 21.6089ZM1.6799 27.6669C1.60324 28.6988 1.60546 29.7429 1.69045 30.7865L2.43897 30.7256C2.35718 29.7212 2.35502 28.7161 2.42884 27.7226L1.6799 27.6669ZM2.18887 33.8676C2.43469 34.8708 2.76269 35.8617 3.1765 36.8282L3.86689 36.5327C3.46966 35.6048 3.15456 34.6531 2.91829 33.6889L2.18887 33.8676ZM4.64245 39.5867C5.19718 40.4467 5.83197 41.2741 6.54973 42.0586L7.10383 41.5517C6.41479 40.7985 5.8057 40.0046 5.27356 39.1796L4.64245 39.5867ZM8.83314 44.1784C9.62659 44.8048 10.4895 45.3879 11.4238 45.9206L11.7958 45.2682C10.8936 44.7538 10.0619 44.1916 9.29846 43.589L8.83314 44.1784ZM14.2326 47.2761C15.1563 47.6492 16.1343 47.9794 17.1681 48.2623L17.3663 47.5379C16.3598 47.2625 15.4095 46.9415 14.5138 46.5797L14.2326 47.2761ZM20.1931 48.9241C21.1755 49.0889 22.2002 49.2151 23.268 49.3L23.3275 48.5514C22.2805 48.4682 21.2775 48.3445 20.3174 48.1834L20.1931 48.9241ZM26.3689 49.4271C27.3593 49.4316 28.3824 49.4032 29.4387 49.3402L29.394 48.5905C28.353 48.6526 27.346 48.6805 26.3722 48.6762L26.3689 49.4271ZM32.4917 49.0706C33.0071 49.0109 33.5297 48.9435 34.0595 48.8682L33.9538 48.1247C33.4303 48.1991 32.9141 48.2657 32.4053 48.3246L32.4917 49.0706Z" fill="#ACACAC"/>
<path d="M21.9707 12.7677C24.3532 14.8699 31.5989 17.8127 38.9987 15.2901C48.2485 12.1367 59.1801 -0.266405 72.6343 0.574484C86.0885 1.41537 99.9632 8.77342 102.486 9.61431" stroke="#ACACAC" stroke-width="0.751001" stroke-dasharray="3 3"/>
<path d="M17.9785 99.5911V53.3275C17.9785 53.0771 18.1033 52.8433 18.3111 52.7038L57.472 26.4337L97.5239 52.7045C97.7355 52.8433 97.863 53.0794 97.863 53.3325V99.5911H17.9785Z" fill="#3C8BA5"/>
<rect x="29.0228" y="23.183" width="60.0857" height="66.1168" rx="0.425989" fill="white" stroke="#A1C4D0" stroke-width="0.2253"/>
<rect x="34.002" y="57.6602" width="23.5449" height="1.68178" rx="0.84089" fill="url(#paint0_linear_4092_2441)"/>
<rect x="34.002" y="61.8633" width="33.2151" height="1.68178" rx="0.84089" fill="url(#paint1_linear_4092_2441)"/>
<rect x="34.002" y="66.0684" width="27.3289" height="1.68178" rx="0.84089" fill="url(#paint2_linear_4092_2441)"/>
<path d="M17.7092 55.3748V99.8626C17.7092 100.136 17.9306 100.357 18.2038 100.357H97.9668C98.24 100.357 98.4615 100.136 98.4615 99.8626V55.4183C98.4615 54.4752 97.3752 53.9463 96.6328 54.5278L62.7173 81.0949C62.1959 81.5034 61.5527 81.7253 60.8904 81.7253H56.7525C56.1102 81.7253 55.4853 81.5165 54.9719 81.1305L19.5202 54.4708C18.7747 53.9102 17.7092 54.4421 17.7092 55.3748Z" fill="#49AAC9" stroke="url(#paint3_linear_4092_2441)" stroke-width="0.538639"/>
<path d="M17.9785 99.783V55.081C17.9785 54.3683 18.7944 53.9636 19.3618 54.3948L54.5422 81.1319C55.0572 81.5233 54.9735 82.3213 54.3886 82.5974L17.9785 99.783Z" fill="#4399B5"/>
<path d="M97.8623 100.013V55.5403C97.8623 54.8205 97.0323 54.4179 96.467 54.8634L62.373 81.7356C61.8712 82.131 61.9591 82.9158 62.5359 83.1905L97.8623 100.013Z" fill="#4399B5"/>
<rect x="34.2617" y="42.1973" width="31.3617" height="1.80933" rx="0.904665" fill="url(#paint4_linear_4092_2441)"/>
<rect x="34.2617" y="50.6445" width="31.3617" height="1.80933" rx="0.904665" fill="url(#paint5_linear_4092_2441)"/>
<rect x="34.2617" y="46.4219" width="41.6146" height="1.80933" rx="0.904665" fill="url(#paint6_linear_4092_2441)"/>
<path d="M44.2741 31.8965C44.2741 33.896 45.7736 34.9646 47.3594 34.9646C48.6177 34.9646 49.9018 34.301 50.1603 32.7066H48.9193C48.7125 33.4392 48.1006 33.7925 47.3508 33.7925C46.2735 33.7925 45.5754 32.9307 45.5754 31.8965C45.5754 30.7503 46.2907 29.9747 47.3594 29.9747C48.0833 29.9747 48.6263 30.2763 48.8934 30.9571H50.1431C49.8673 29.4662 48.5746 28.8112 47.3594 28.8112C45.7736 28.7854 44.2741 29.8885 44.2741 31.8965ZM53.1745 33.8787V29.8713H53.9587V28.8715H51.0975V29.8713H51.8817V33.8787H51.0285V34.9043H54.0277V33.8787H53.1745ZM59.7543 30.6641C59.7543 29.5351 58.9614 28.8802 57.8583 28.8802H55.2987V34.9043H58.0996C59.3062 34.9043 60.0128 34.1804 60.0128 33.1203C60.0128 32.4998 59.7112 32.0086 59.151 31.7759C59.5302 31.5432 59.7543 31.1037 59.7543 30.6641ZM57.7635 29.9833C58.2116 29.9833 58.496 30.2677 58.4874 30.7072C58.4788 31.1123 58.203 31.3536 57.7635 31.3536H56.5828V29.9833H57.7635ZM57.9531 32.405C58.1513 32.405 58.3237 32.4222 58.4702 32.5257C58.6512 32.6549 58.746 32.879 58.7373 33.1203C58.7115 33.5254 58.4529 33.7839 58.0134 33.7839H56.5828V32.405H57.9531ZM63.0464 33.8787V29.8713H63.8307V28.8715H60.9694V29.8713H61.7537V33.8787H60.9005V34.9043H63.8996V33.8787H63.0464ZM66.4547 28.8715H65.162V34.9043H68.9712V33.7495H66.4547V28.8715Z" fill="#00A6CA"/>
<path d="M113.904 13.2911L103.235 2.70387C102.82 2.29012 102.154 2.53852 102.081 3.08246L101.657 6.29265L110.64 12.2094C110.813 12.3223 110.668 12.5891 110.479 12.5038L100.746 8.14207L98.564 8.73644C97.9244 8.91069 97.8828 9.75175 98.4496 10.0049L101.013 11.1551L100.519 14.9174C100.461 15.3465 100.822 15.7199 101.256 15.6774L113.495 14.439C114.068 14.382 114.303 13.6861 113.904 13.2911Z" fill="#66CADF"/>
<path d="M100.759 15.1207L101.282 11.1973L113.283 14.4171L101.166 15.5442C100.925 15.5666 100.727 15.3599 100.759 15.1207Z" fill="#53B9CE"/>
<defs>
<filter id="filter0_f_4092_2441" x="0.008955" y="94.1464" width="111.634" height="22.5125" filterUnits="userSpaceOnUse" color-interpolation-filters="sRGB">
<feFlood flood-opacity="0" result="BackgroundImageFix"/>
<feBlend mode="normal" in="SourceGraphic" in2="BackgroundImageFix" result="shape"/>
<feGaussianBlur stdDeviation="4.26402" result="effect1_foregroundBlur_4092_2441"/>
</filter>
<linearGradient id="paint0_linear_4092_2441" x1="35.1792" y1="58.9215" x2="53.6238" y2="58.5552" gradientUnits="userSpaceOnUse">
<stop stop-color="#49AAC9"/>
<stop offset="1" stop-color="#3E8999" stop-opacity="0"/>
</linearGradient>
<linearGradient id="paint1_linear_4092_2441" x1="35.6627" y1="63.1246" x2="61.6726" y2="62.396" gradientUnits="userSpaceOnUse">
<stop stop-color="#49AAC9"/>
<stop offset="1" stop-color="#3E8999" stop-opacity="0"/>
</linearGradient>
<linearGradient id="paint2_linear_4092_2441" x1="35.3684" y1="67.3297" x2="56.7744" y2="66.8363" gradientUnits="userSpaceOnUse">
<stop stop-color="#49AAC9"/>
<stop offset="1" stop-color="#3E8999" stop-opacity="0"/>
</linearGradient>
<linearGradient id="paint3_linear_4092_2441" x1="58.0853" y1="53.6484" x2="58.0853" y2="111.305" gradientUnits="userSpaceOnUse">
<stop stop-color="#88BFCF"/>
<stop offset="0.690547" stop-color="#88BFCF" stop-opacity="0"/>
</linearGradient>
<linearGradient id="paint4_linear_4092_2441" x1="35.8298" y1="43.5543" x2="60.3928" y2="42.9504" gradientUnits="userSpaceOnUse">
<stop stop-color="#49AAC9"/>
<stop offset="1" stop-color="#3E8999" stop-opacity="0"/>
</linearGradient>
<linearGradient id="paint5_linear_4092_2441" x1="35.8298" y1="52.0015" x2="60.3928" y2="51.3976" gradientUnits="userSpaceOnUse">
<stop stop-color="#49AAC9"/>
<stop offset="1" stop-color="#3E8999" stop-opacity="0"/>
</linearGradient>
<linearGradient id="paint6_linear_4092_2441" x1="36.3424" y1="47.7789" x2="68.9206" y2="46.716" gradientUnits="userSpaceOnUse">
<stop stop-color="#49AAC9"/>
<stop offset="1" stop-color="#3E8999" stop-opacity="0"/>
</linearGradient>
</defs>
</svg>
