<svg width="23" height="24" viewBox="0 0 23 24" fill="none" xmlns="http://www.w3.org/2000/svg">
<circle cx="11.5" cy="11.8672" r="11.5" fill="#C7F4FF"/>
<path fill-rule="evenodd" clip-rule="evenodd" d="M9.3454 6.2515C9.23571 6.28519 8.71486 6.77322 7.88197 7.62265L6.58887 8.94152L6.60454 13.0045L6.62021 17.0676L6.77628 17.3373C6.86212 17.4857 7.02819 17.6877 7.14532 17.7861C7.55126 18.1273 7.63029 18.1349 10.7751 18.1349H13.6319V17.5003V16.8656H10.7964H7.96083L7.87249 16.7374C7.79522 16.6253 7.78409 16.2273 7.78409 13.5697V10.5301L8.84862 10.5103C9.90826 10.4906 9.91456 10.4897 10.2234 10.3174C10.5687 10.1248 10.8716 9.76274 10.9609 9.43613C10.9932 9.31792 11.0197 8.82533 11.0199 8.34139L11.0203 7.46157H12.8546C14.3491 7.46157 14.7093 7.47674 14.7991 7.54343C14.9066 7.62334 14.9097 7.75407 14.9244 12.8573L14.9395 18.0893L15.0947 18.0509C15.4746 17.9569 15.8985 17.5394 16.049 17.1109C16.1527 16.8155 16.1581 7.53409 16.0547 7.24902C15.918 6.87223 15.6433 6.55906 15.2989 6.38719L14.9661 6.22115L12.2409 6.21013C10.7373 6.20407 9.43936 6.22259 9.3454 6.2515ZM9.81856 8.30412C9.79874 8.99437 9.7829 9.09868 9.68758 9.16953C9.60741 9.22907 9.37872 9.25007 8.81007 9.25007H8.041L8.8912 8.38467C9.35879 7.90869 9.76383 7.51926 9.79125 7.51926C9.81867 7.51926 9.83099 7.87246 9.81856 8.30412ZM9.08991 12.4232V13.0579H11.3609H13.6319V12.4232V11.7886H11.3609H9.08991V12.4232ZM9.08991 14.9617V15.5964H11.3609H13.6319V14.9617V14.3271H11.3609H9.08991V14.9617Z" fill="#00A6CA"/>
</svg>
