<svg width="24" height="25" viewBox="0 0 24 25" fill="none" xmlns="http://www.w3.org/2000/svg">
<circle cx="12" cy="12.3672" r="12" fill="#C7F4FF"/>
<path fill-rule="evenodd" clip-rule="evenodd" d="M9.75653 6.04251C9.64684 6.07621 9.12599 6.56424 8.2931 7.41366L7 8.73254L7.01567 12.7956L7.03134 16.8586L7.18741 17.1284C7.27326 17.2767 7.43932 17.4787 7.55645 17.5772C7.96239 17.9183 8.04142 17.9259 11.1862 17.9259H14.043V17.2913V16.6567H11.2075H8.37196L8.28362 16.5284C8.20635 16.4163 8.19522 16.0183 8.19522 13.3607V10.3211L9.25975 10.3013C10.3194 10.2816 10.3257 10.2807 10.6345 10.1084C10.9798 9.91578 11.2827 9.55375 11.372 9.22715C11.4043 9.10893 11.4309 8.61634 11.431 8.13241L11.4314 7.25258H13.2657C14.7602 7.25258 15.1204 7.26776 15.2103 7.33445C15.3177 7.41435 15.3209 7.54509 15.3356 12.6483L15.3506 17.8803L15.5059 17.8419C15.8858 17.7479 16.3096 17.3305 16.4601 16.902C16.5639 16.6065 16.5693 7.3251 16.4658 7.04004C16.3291 6.66324 16.0544 6.35008 15.71 6.17821L15.3772 6.01217L12.652 6.00115C11.1485 5.99509 9.85049 6.01361 9.75653 6.04251ZM10.2297 8.09514C10.2099 8.78539 10.194 8.8897 10.0987 8.96055C10.0185 9.02009 9.78986 9.04109 9.2212 9.04109H8.45213L9.30233 8.17568C9.76993 7.69971 10.175 7.31028 10.2024 7.31028C10.2298 7.31028 10.2421 7.66348 10.2297 8.09514ZM9.50104 12.2142V12.8489H11.772H14.043V12.2142V11.5796H11.772H9.50104V12.2142ZM9.50104 14.7528V15.3874H11.772H14.043V14.7528V14.1181H11.772H9.50104V14.7528Z" fill="#00A6CA"/>
</svg>
