<svg width="23" height="24" viewBox="0 0 23 24" fill="none" xmlns="http://www.w3.org/2000/svg">
<circle cx="11.5" cy="11.8672" r="11.5" fill="#C7F4FF"/>
<path fill-rule="evenodd" clip-rule="evenodd" d="M11.3679 6.45551C11.3044 6.50509 11.0104 6.98671 10.7145 7.52586C10.4186 8.06495 10.1501 8.51609 10.1178 8.52838C10.0856 8.54068 9.59667 8.41625 9.03142 8.25189C8.46618 8.08754 7.91862 7.95309 7.81466 7.95309C7.55992 7.95309 7.35849 8.14302 7.35849 8.38322C7.35849 8.4739 7.56764 9.25084 7.82321 10.1097L8.28797 11.6712L8.61144 11.4956C8.85696 11.3623 8.95598 11.2787 9.02219 11.1489L9.10938 10.978L8.85125 10.0926C8.70927 9.60567 8.60207 9.1984 8.613 9.18751C8.62396 9.17667 8.99308 9.27211 9.43335 9.39968C10.3347 9.66074 10.5559 9.68329 10.7077 9.52946C10.7631 9.47335 10.9935 9.08581 11.2197 8.66828C11.4459 8.25081 11.6412 7.9094 11.6538 7.90963C11.6664 7.90986 11.8709 8.26841 12.1084 8.70643C12.3458 9.14446 12.5817 9.53182 12.6326 9.5672C12.7892 9.67607 13.0492 9.64064 13.8757 9.39791C14.3132 9.26944 14.6807 9.17372 14.6923 9.18529C14.704 9.19681 14.5981 9.60304 14.4571 10.088C14.116 11.2611 14.0682 11.15 15.1734 11.7531C15.9631 12.1841 16.0009 12.2108 15.8979 12.2652C15.1549 12.658 14.444 13.0608 14.3636 13.1345C14.1782 13.3046 14.1884 13.4303 14.4631 14.3542C14.6049 14.8309 14.714 15.2276 14.7057 15.2359C14.6974 15.2441 14.3025 15.1381 13.8281 15.0004C12.9012 14.7313 12.7515 14.7199 12.5803 14.9057C12.5289 14.9614 12.3049 15.3388 12.0825 15.7442C11.8601 16.1497 11.6657 16.4814 11.6507 16.4814C11.6356 16.4814 11.435 16.1377 11.2049 15.7177C10.9749 15.2977 10.7478 14.9191 10.7004 14.8765C10.529 14.7226 10.3443 14.7413 9.462 15.0024C8.99788 15.1397 8.6114 15.2453 8.60303 15.2371C8.59472 15.2288 8.7026 14.8287 8.84275 14.3481C9.06359 13.5907 9.09105 13.4546 9.04883 13.3275C9.02201 13.2468 8.96485 13.1501 8.9218 13.1126C8.83178 13.034 6.07356 11.5259 6.05697 11.5461C6.05089 11.5534 5.94205 11.7479 5.81497 11.9781L5.58398 12.3967L6.34558 12.8119C6.76446 13.0402 7.3064 13.3371 7.54991 13.4716L7.99269 13.7163L7.9294 13.9307C7.89458 14.0487 7.75188 14.5308 7.61228 15.002C7.47268 15.4733 7.35849 15.9183 7.35849 15.9909C7.35849 16.2629 7.56631 16.4814 7.8249 16.4814C7.878 16.4814 8.41505 16.3378 9.0184 16.1623C9.62171 15.9868 10.1299 15.8592 10.1478 15.8788C10.1656 15.8983 10.4209 16.3532 10.7151 16.8896C11.0093 17.4261 11.2917 17.9007 11.3427 17.9443C11.4681 18.0517 11.8395 18.0517 11.9647 17.9443C12.0155 17.9007 12.2972 17.4261 12.5905 16.8896C12.8839 16.3532 13.1389 15.8987 13.1572 15.8796C13.1756 15.8605 13.6827 15.988 14.2843 16.163C14.8858 16.3379 15.4232 16.4812 15.4786 16.4812C15.7397 16.4816 15.9491 16.2649 15.9491 15.9941C15.9491 15.9233 15.8062 15.3864 15.6314 14.8011C15.3441 13.8384 15.3208 13.7315 15.388 13.6808C15.4288 13.65 15.9029 13.3871 16.4416 13.0966C17.3225 12.6215 17.4277 12.5522 17.4884 12.4081C17.5721 12.2092 17.536 11.9905 17.3992 11.8683C17.3431 11.8182 16.855 11.5375 16.3147 11.2446C15.7743 10.9518 15.3281 10.7081 15.3229 10.7032C15.3178 10.6983 15.4566 10.2098 15.6314 9.61774C15.8061 9.02561 15.9491 8.4685 15.9491 8.37973C15.9491 8.13885 15.7461 7.95286 15.4842 7.95372C15.3755 7.95408 14.8345 8.08677 14.2819 8.24858C13.7294 8.41039 13.2462 8.54231 13.2081 8.54167C13.1653 8.54095 12.9323 8.16017 12.5973 7.54332C12.2995 6.99488 12.0037 6.5055 11.94 6.45578C11.7889 6.33775 11.5189 6.33766 11.3679 6.45551Z" fill="#00A6CA"/>
<ellipse cx="10.6041" cy="11.6458" rx="0.502642" ry="0.498996" fill="#00A6CA"/>
<ellipse cx="12.4091" cy="13.4393" rx="0.502642" ry="0.498996" fill="#00A6CA"/>
<rect width="4.43065" height="0.701795" transform="matrix(0.773274 -0.634072 0.639584 0.768721 9.64783 13.6602)" fill="#00A6CA"/>
</svg>
