<svg width="24" height="25" viewBox="0 0 24 25" fill="none" xmlns="http://www.w3.org/2000/svg">
<circle cx="12" cy="12.3672" r="12" fill="#C7F4FF"/>
<path fill-rule="evenodd" clip-rule="evenodd" d="M11.7839 7.08832C11.7204 7.1379 11.4264 7.61953 11.1305 8.15867C10.8346 8.69776 10.5661 9.1489 10.5338 9.1612C10.5016 9.17349 10.0127 9.04906 9.44744 8.88471C8.88219 8.72036 8.33463 8.5859 8.23068 8.5859C7.97593 8.5859 7.77451 8.77583 7.77451 9.01603C7.77451 9.10671 7.98365 9.88365 8.23922 10.7425L8.70398 12.3041L9.02746 12.1284C9.27298 11.9951 9.372 11.9115 9.43821 11.7817L9.52539 11.6108L9.26726 10.7254C9.12529 10.2385 9.01809 9.83121 9.02901 9.82032C9.03998 9.80948 9.4091 9.90493 9.84937 10.0325C10.7507 10.2936 10.9719 10.3161 11.1237 10.1623C11.1791 10.1062 11.4095 9.71862 11.6357 9.3011C11.8619 8.88362 12.0572 8.54221 12.0698 8.54244C12.0824 8.54267 12.2869 8.90122 12.5244 9.33925C12.7618 9.77727 12.9977 10.1646 13.0486 10.2C13.2052 10.3089 13.4652 10.2735 14.2918 10.0307C14.7292 9.90225 15.0967 9.80653 15.1083 9.8181C15.12 9.82962 15.0141 10.2359 14.8731 10.7208C14.532 11.8939 14.4842 11.7828 15.5894 12.3859C16.3791 12.8169 16.4169 12.8436 16.3139 12.898C15.5709 13.2908 14.86 13.6936 14.7796 13.7673C14.5942 13.9374 14.6044 14.0631 14.8791 14.987C15.0209 15.4637 15.13 15.8604 15.1218 15.8687C15.1134 15.8769 14.7185 15.7709 14.2441 15.6332C13.3172 15.3641 13.1675 15.3527 12.9963 15.5385C12.945 15.5942 12.721 15.9716 12.4985 16.377C12.2761 16.7825 12.0817 17.1142 12.0667 17.1142C12.0516 17.1142 11.851 16.7705 11.621 16.3505C11.3909 15.9305 11.1638 15.5519 11.1164 15.5093C10.945 15.3554 10.7603 15.3741 9.87802 15.6352C9.4139 15.7725 9.02741 15.8781 9.01905 15.8699C9.01073 15.8616 9.11862 15.4616 9.25876 14.9809C9.47961 14.2235 9.50707 14.0874 9.46485 13.9603C9.43802 13.8797 9.38086 13.7829 9.33782 13.7454C9.2478 13.6669 6.48957 12.1587 6.47299 12.1789C6.46691 12.1862 6.35806 12.3807 6.23099 12.6109L6 13.0295L6.76159 13.4447C7.18048 13.673 7.72242 13.9699 7.96592 14.1044L8.40871 14.3491L8.34542 14.5635C8.3106 14.6815 8.16789 15.1636 8.0283 15.6348C7.8887 16.1061 7.77451 16.5511 7.77451 16.6237C7.77451 16.8957 7.98233 17.1142 8.24091 17.1142C8.29401 17.1142 8.83106 16.9706 9.43442 16.7951C10.0377 16.6196 10.5459 16.492 10.5638 16.5116C10.5816 16.5311 10.8369 16.986 11.1311 17.5225C11.4253 18.0589 11.7077 18.5335 11.7587 18.5772C11.8842 18.6845 12.2556 18.6845 12.3807 18.5772C12.4315 18.5335 12.7132 18.0589 13.0066 17.5225C13.2999 16.986 13.5549 16.5315 13.5733 16.5124C13.5916 16.4933 14.0987 16.6208 14.7003 16.7958C15.3018 16.9708 15.8392 17.114 15.8946 17.1141C16.1557 17.1144 16.3651 16.8977 16.3651 16.6269C16.3651 16.5561 16.2222 16.0193 16.0474 15.4339C15.7601 14.4712 15.7369 14.3644 15.804 14.3136C15.8448 14.2828 16.3189 14.0199 16.8576 13.7294C17.7385 13.2543 17.8438 13.185 17.9044 13.0409C17.9881 12.842 17.952 12.6233 17.8152 12.5012C17.7591 12.451 17.271 12.1703 16.7307 11.8775C16.1903 11.5846 15.7441 11.3409 15.739 11.336C15.7338 11.3311 15.8727 10.8426 16.0474 10.2505C16.2221 9.65842 16.3651 9.10132 16.3651 9.01254C16.3651 8.77166 16.1621 8.58567 15.9003 8.58653C15.7915 8.5869 15.2505 8.71958 14.6979 8.8814C14.1454 9.04321 13.6622 9.17512 13.6241 9.17449C13.5813 9.17376 13.3483 8.79298 13.0134 8.17613C12.7155 7.62769 12.4197 7.13831 12.356 7.08859C12.2049 6.97056 11.9349 6.97047 11.7839 7.08832Z" fill="#00A6CA"/>
<ellipse cx="11.0201" cy="12.2787" rx="0.502642" ry="0.498996" fill="#00A6CA"/>
<ellipse cx="12.8251" cy="14.0721" rx="0.502642" ry="0.498996" fill="#00A6CA"/>
<rect width="4.43065" height="0.701795" transform="matrix(0.773274 -0.634072 0.639584 0.768721 10.0638 14.293)" fill="#00A6CA"/>
</svg>
