<svg width="24" height="25" viewBox="0 0 24 25" fill="none" xmlns="http://www.w3.org/2000/svg">
<path d="M23.6731 9.88006C25.203 16.3269 21.217 22.7934 14.7701 24.3232C8.32321 25.8531 1.85677 21.8671 0.326899 15.4202C-1.20298 8.97335 2.78304 2.50692 9.22992 0.977045C15.6768 -0.552829 22.1432 3.43319 23.6731 9.88006Z" fill="#C7F4FF"/>
<path d="M16.7511 8L16.2094 8.53033M7 8L7.54173 8.53033M16.7511 15.4246L16.2094 14.8942M7 15.4246L7.54173 14.8942M10.2504 16.4852H13.5008M10.7921 18.0762H12.959M11.8756 8.53033C9.70865 8.53033 8.59919 9.56446 8.62519 11.182C8.63765 11.9705 8.89606 12.5078 9.43779 13.0381C9.97952 13.5684 10.2504 13.8336 10.2504 14.8942H13.5008C13.5008 13.8336 13.7716 13.5684 14.3134 13.0381C14.8551 12.5078 15.1135 11.9705 15.126 11.182C15.152 9.56446 14.0425 8.53033 11.8756 8.53033Z" stroke="#00A6CA" stroke-width="0.910107" stroke-linecap="round" stroke-linejoin="round"/>
</svg>
