<svg width="27" height="28" viewBox="0 0 27 28" fill="none" xmlns="http://www.w3.org/2000/svg">
<circle cx="13.5" cy="13.8664" r="11.2138" transform="rotate(-13.3496 13.5 13.8664)" fill="#C7F4FF"/>
<path d="M18.5275 8.81824L17.9858 9.34856M8.77637 8.81824L9.3181 9.34856M18.5275 16.2428L17.9858 15.7125M8.77637 16.2428L9.3181 15.7125M12.0267 17.3034H15.2771M12.5685 18.8944H14.7354M13.6519 9.34856C11.485 9.34856 10.3756 10.3827 10.4016 12.0002C10.414 12.7888 10.6724 13.326 11.2142 13.8563C11.7559 14.3867 12.0267 14.6518 12.0267 15.7125H15.2771C15.2771 14.6518 15.548 14.3867 16.0897 13.8563C16.6315 13.326 16.8899 12.7888 16.9023 12.0002C16.9283 10.3827 15.8189 9.34856 13.6519 9.34856Z" stroke="#00A6CA" stroke-width="0.910107" stroke-linecap="round" stroke-linejoin="round"/>
</svg>
