<svg width="40" height="40" viewBox="0 0 40 40" fill="none" xmlns="http://www.w3.org/2000/svg">
<circle cx="20" cy="20" r="20" fill="#E7FBFF"/>
<path fill-rule="evenodd" clip-rule="evenodd" d="M18.81 10.1965C17.0206 10.7523 15.5606 12.3037 15.0356 14.2072C14.9197 14.6275 14.8886 15.185 14.8593 17.3744L14.8238 20.0314H15.7225H16.6213L16.6232 17.6294C16.6243 16.3084 16.6621 15.0596 16.7073 14.8544C17.0373 13.3533 18.3195 12.1143 19.8226 11.8443C21.5332 11.537 23.3003 12.6749 23.9401 14.4958C24.0924 14.9291 24.1123 15.2312 24.1585 17.8207C24.2068 20.5248 24.2187 20.6928 24.3937 21.1367C24.4952 21.3939 24.6121 21.6408 24.6535 21.6851C24.9329 21.9849 24.891 21.987 18.3644 21.987H12V22.8786V23.7702L14.6957 23.7927L17.3915 23.815L17.4409 25.1329C17.468 25.8577 17.5329 26.5914 17.5849 26.7633C17.7347 27.2578 18.2808 28.0476 18.6822 28.3498C19.3869 28.8806 19.74 28.9981 20.6362 28.9999C21.3877 29.0015 21.488 28.9812 21.9739 28.7301C22.8735 28.2651 23.469 27.5141 23.7111 26.5392C23.9234 25.6842 23.9644 25.7281 22.9541 25.7281H22.0714L22.0178 26.0275C21.9572 26.3659 21.5742 26.8661 21.2345 27.0503C20.6418 27.3718 19.7661 27.0808 19.4104 26.4442C19.2305 26.1223 19.2157 26.0071 19.2157 24.9341V23.7725H23.8664H28.5171L28.7289 23.5504C29.0072 23.2585 29.0781 22.85 28.9096 22.5083C28.7359 22.1559 28.5042 22.0171 27.9921 21.9586C27.1376 21.861 26.4222 21.3345 26.077 20.5491C25.917 20.185 25.9024 19.9715 25.8582 17.3531C25.8069 14.312 25.7872 14.1645 25.2959 13.1438C24.5846 11.6657 23.1901 10.4925 21.709 10.1263C20.9259 9.93272 19.5523 9.96597 18.81 10.1965Z" fill="#00A6CA"/>
</svg>
