<svg width="17" height="15" viewBox="0 0 17 15" fill="none" xmlns="http://www.w3.org/2000/svg">
<path d="M10.1152 1.7314C8.9025 1.12873 7.541 0.890764 6.19575 1.04636C4.85049 1.20195 3.57926 1.74441 2.53612 2.60799C1.49298 3.47157 0.722735 4.61919 0.318742 5.91175C-0.0852507 7.2043 -0.105643 8.5863 0.260036 9.89021C0.625715 11.1941 1.36177 12.364 2.37897 13.258C3.39617 14.1519 4.65085 14.7317 5.99093 14.9269C7.331 15.1221 8.69893 14.9244 9.92891 14.3578C11.1589 13.7912 12.1981 12.8799 12.9206 11.7345L11.1296 10.6049C10.6257 11.4038 9.90085 12.0394 9.04293 12.4346C8.18502 12.8298 7.23087 12.9677 6.29616 12.8316C5.36145 12.6954 4.4863 12.291 3.7768 11.6675C3.06729 11.0439 2.55389 10.2279 2.29883 9.31843C2.04376 8.40895 2.05799 7.445 2.33978 6.54343C2.62156 5.64186 3.15882 4.84139 3.88641 4.23904C4.61401 3.63668 5.50071 3.25831 6.43903 3.14978C7.37735 3.04126 8.32701 3.20724 9.17289 3.6276L10.1152 1.7314Z" fill="#00A6CA"/>
<path d="M5 6L7.92647 9L16 1" stroke="#00A6CA" stroke-width="2"/>
</svg>
