<svg width="40" height="40" viewBox="0 0 40 40" fill="none" xmlns="http://www.w3.org/2000/svg">
<circle cx="20" cy="20" r="20" fill="#E7FBFF"/>
<path fill-rule="evenodd" clip-rule="evenodd" d="M15.0951 12.1077C13.9836 12.4652 13.1373 13.3138 12.8172 14.392C12.7296 14.687 12.7054 14.973 12.7248 15.4808C12.7486 16.1022 12.7757 16.2196 13.0027 16.6833C13.1409 16.966 13.3602 17.3146 13.49 17.4581C13.7194 17.712 13.7221 17.7216 13.5876 17.8134C12.4523 18.5884 11.9568 19.1076 11.5202 19.9801C11.061 20.8979 11.0053 21.2412 11.0009 23.1784C10.997 24.8692 10.9981 24.8819 11.178 25.2543C11.3984 25.7104 11.7032 26.0169 12.1792 26.2605L12.5385 26.4445L14.7996 26.4786L17.0607 26.5128L16.3585 27.192C15.9724 27.5655 15.6564 27.9031 15.6564 27.9422C15.6564 27.9813 15.8855 28.2343 16.1656 28.5044L16.6747 28.9956L17.9839 27.7201C18.7039 27.0186 19.3261 26.3585 19.3665 26.2532C19.4069 26.1478 19.44 25.8851 19.44 25.6694C19.44 25.1345 19.285 24.9261 17.8672 23.5539L16.7084 22.4323L16.1824 22.9398C15.8931 23.2188 15.6564 23.4781 15.6564 23.5158C15.6564 23.5535 15.979 23.8988 16.3733 24.283L17.0902 24.9817L14.9895 24.9795C12.7824 24.9773 12.7554 24.9737 12.5849 24.6629C12.4581 24.4316 12.4782 21.9301 12.6113 21.3815C12.9873 19.8322 14.5152 18.6532 16.1469 18.6532C17.0476 18.6532 17.9145 18.3 18.5655 17.6678C20.2417 16.0397 19.7759 13.3384 17.6417 12.3113C17.0695 12.0359 17.0263 12.0263 16.2661 12.0053C15.649 11.9882 15.3987 12.0101 15.0951 12.1077ZM16.8742 13.5846C17.5675 13.8659 18.0379 14.5679 18.0364 15.3188C18.0331 17.0439 15.8714 17.8131 14.69 16.5096C14.3965 16.1857 14.185 15.6864 14.185 15.3173C14.185 15.2178 14.2301 14.9907 14.2853 14.8127C14.6244 13.7184 15.8137 13.1542 16.8742 13.5846ZM22.9045 15.4108C22.3446 15.5881 21.7453 15.9543 21.369 16.349C20.1906 17.5852 20.1188 19.3566 21.1911 20.736L21.4647 21.0879L21.0596 21.3308C20.6289 21.5889 19.7275 22.4616 19.553 22.7892L19.4485 22.9856L20.0026 23.5207C20.3075 23.815 20.5679 24.0421 20.5815 24.0254C20.5951 24.0087 20.6888 23.8546 20.7899 23.6831C21.0353 23.2665 21.7911 22.5897 22.254 22.3718C23.6996 21.6916 25.2868 21.9469 26.4131 23.0408C27.2382 23.8421 27.4949 24.5809 27.4965 26.1586C27.4976 27.1375 27.4928 27.17 27.3256 27.3324L27.1536 27.4995H23.7685H20.3835L19.614 28.2498L18.8444 29L23.1535 28.9813C27.3939 28.9628 27.4677 28.9602 27.7883 28.8163C27.9674 28.7358 28.2368 28.5508 28.3868 28.4051C28.5369 28.2594 28.737 27.9884 28.8318 27.8028C28.9975 27.478 29.0038 27.4159 28.999 26.1385C28.9935 24.6721 28.9213 24.2381 28.5512 23.4454C28.1462 22.578 27.5227 21.868 26.7002 21.3376C26.4836 21.1979 26.3064 21.0691 26.3064 21.0512C26.3064 21.0334 26.4056 20.9092 26.5267 20.7752C26.6478 20.6412 26.8601 20.3004 26.9984 20.0177C27.2257 19.553 27.2524 19.4373 27.2764 18.8095C27.2981 18.2438 27.2754 18.0269 27.1539 17.6384C26.8625 16.7067 26.0668 15.8698 25.138 15.5182C24.6339 15.3273 23.3614 15.2661 22.9045 15.4108ZM24.5281 16.8929C25.2356 17.1499 25.816 17.9235 25.816 18.6094C25.816 19.5902 24.9102 20.4881 23.9192 20.4898C23.3444 20.4908 22.918 20.3234 22.5262 19.9429C21.7273 19.1669 21.7728 17.9695 22.629 17.2375C23.1918 16.7564 23.8326 16.6401 24.5281 16.8929Z" fill="#00A6CA"/>
</svg>
