<svg width="26" height="28" viewBox="0 0 26 28" fill="none" xmlns="http://www.w3.org/2000/svg">
<path d="M19.8655 14.2941C19.8655 18.1357 16.78 21.2353 12.9918 21.2353C9.20364 21.2353 6.11816 18.1357 6.11816 14.2941C6.11816 10.4525 9.20364 7.35291 12.9918 7.35291C16.78 7.35291 19.8655 10.4525 19.8655 14.2941Z" fill="#FCD800" stroke="#006685" stroke-width="2"/>
<path d="M9.8418 20.6471V23.8506C9.8418 25.59 11.2519 27 12.9913 27V27C14.7307 27 16.1407 25.59 16.1407 23.8506V20.6471" stroke="#006685" stroke-width="2"/>
<path fill-rule="evenodd" clip-rule="evenodd" d="M12.2042 3.21254C12.2042 3.63771 12.5664 3.97059 12.9915 3.97059C13.4167 3.97059 13.7789 3.63771 13.7789 3.21254V0.787366C13.7789 0.352516 13.4264 0 12.9915 0C12.5567 0 12.2042 0.352516 12.2042 0.787366V3.21254ZM17.8101 4.30543C17.5997 4.67284 17.7473 5.14022 18.1129 5.3537C18.483 5.56982 18.9666 5.46149 19.1796 5.08955L20.5674 2.66503C20.7828 2.28881 20.6543 1.80931 20.2797 1.59117C19.9012 1.37074 19.4155 1.50087 19.1979 1.88104L17.8101 4.30543ZM21.8514 7.62249C21.4707 7.84417 21.3705 8.34673 21.6073 8.71821C21.8306 9.06835 22.2898 9.2011 22.6487 8.99215L25.3203 7.43648C25.6965 7.2174 25.8255 6.73585 25.6092 6.35803C25.3907 5.97623 24.9029 5.84555 24.5228 6.06692L21.8514 7.62249ZM4.37998 8.71157C4.15662 9.06133 3.69763 9.1938 3.339 8.98497L0.679733 7.43648C0.303516 7.2174 0.174489 6.73585 0.390772 6.35803C0.609329 5.97623 1.09705 5.84555 1.47723 6.06692L4.1363 7.6153C4.51722 7.83711 4.61722 8.34007 4.37998 8.71157ZM8.3212 4.22043C8.53394 4.59207 8.38028 5.06494 8.0072 5.27513C7.63806 5.48309 7.16226 5.37235 6.95177 5.00465L5.61247 2.66503C5.39711 2.28881 5.52559 1.80931 5.9002 1.59117C6.27876 1.37074 6.7644 1.50087 6.98203 1.88104L8.3212 4.22043Z" fill="#006685"/>
</svg>
