<svg width="50" height="57" viewBox="0 0 50 57" fill="none" xmlns="http://www.w3.org/2000/svg">
<ellipse cx="24.2686" cy="21.3426" rx="21.2686" ry="21.3426" fill="#005365" fill-opacity="0.06"/>
<path fill-rule="evenodd" clip-rule="evenodd" d="M21.6044 10.0682C19.2899 10.7417 17.4015 12.6217 16.7224 14.9283C16.5725 15.4377 16.5323 16.1131 16.4944 18.7662L16.4484 21.986H17.6108H18.7734L18.7759 19.0753C18.7773 17.4745 18.8262 15.9612 18.8846 15.7126C19.3114 13.8935 20.9699 12.3921 22.914 12.065C25.1265 11.6926 27.4121 13.0715 28.2397 15.278C28.4366 15.8031 28.4623 16.1692 28.5221 19.3071C28.5846 22.5839 28.6 22.7874 28.8264 23.3254C28.9576 23.637 29.1088 23.9361 29.1624 23.9899C29.5238 24.3532 29.4695 24.3557 21.0279 24.3557H12.7961V25.4362V26.5166L16.2829 26.5438L19.7696 26.5709L19.8334 28.1679C19.8686 29.0462 19.9524 29.9353 20.0198 30.1436C20.2135 30.7428 20.9198 31.6998 21.439 32.0661C22.3505 32.7093 22.8071 32.8516 23.9663 32.8539C24.9384 32.8557 25.0681 32.8312 25.6966 32.5268C26.8601 31.9635 27.6303 31.0534 27.9435 29.872C28.2181 28.8359 28.2711 28.8891 26.9644 28.8891H25.8226L25.7533 29.2519C25.6749 29.662 25.1796 30.2681 24.7402 30.4913C23.9736 30.8809 22.8409 30.5283 22.3809 29.7569C22.1482 29.3669 22.129 29.2272 22.129 27.927V26.5194H28.1444H34.1597L34.4336 26.2502C34.7936 25.8965 34.8852 25.4015 34.6673 24.9874C34.4426 24.5604 34.1429 24.3922 33.4806 24.3213C32.3753 24.203 31.45 23.565 31.0036 22.6133C30.7966 22.1721 30.7777 21.9134 30.7206 18.7405C30.6542 15.0553 30.6287 14.8766 29.9933 13.6397C29.0733 11.8485 27.2696 10.4269 25.354 9.98315C24.3411 9.74855 22.5644 9.78884 21.6044 10.0682Z" fill="#5D5D5D"/>
<g opacity="0.3" filter="url(#filter0_f)">
<ellipse cx="24.746" cy="51.5611" rx="20.5541" ry="1.43899" fill="black"/>
</g>
<defs>
<filter id="filter0_f" x="0.191895" y="46.1221" width="49.1081" height="10.878" filterUnits="userSpaceOnUse" color-interpolation-filters="sRGB">
<feFlood flood-opacity="0" result="BackgroundImageFix"/>
<feBlend mode="normal" in="SourceGraphic" in2="BackgroundImageFix" result="shape"/>
<feGaussianBlur stdDeviation="2" result="effect1_foregroundBlur"/>
</filter>
</defs>
</svg>
