<svg width="62" height="64" viewBox="0 0 62 64" fill="none" xmlns="http://www.w3.org/2000/svg">
<path opacity="0.5" d="M17.6128 9.16695L40.1866 13.4068L34.6165 43.0626L12.0427 38.8227L17.6128 9.16695Z" fill="#6FB5D2"/>
<path d="M19.9348 12.4443C20.0266 11.9554 20.4974 11.6335 20.9863 11.7253L32.4945 13.8868C32.9834 13.9787 33.3053 14.4495 33.2135 14.9384L33.0472 15.8236C32.9554 16.3125 32.4846 16.6344 31.9957 16.5426L20.4875 14.3811C19.9986 14.2892 19.6767 13.8185 19.7685 13.3296L19.9348 12.4443Z" fill="#84B0C2"/>
<path d="M19.3113 15.7639C19.3802 15.3972 19.7333 15.1558 20.1 15.2247L32.0508 17.4693C32.4175 17.5382 32.6589 17.8913 32.59 18.2579C32.5212 18.6246 32.1681 18.866 31.8014 18.7972L19.8506 16.5525C19.4839 16.4837 19.2425 16.1306 19.3113 15.7639Z" fill="#84B0C2"/>
<path d="M17.0667 27.7148C17.1356 27.3481 17.4887 27.1067 17.8553 27.1756L31.134 29.6696C31.5007 29.7385 31.7421 30.0916 31.6733 30.4582C31.6044 30.8249 31.2513 31.0663 30.8846 30.9975L17.6059 28.5034C17.2393 28.4346 16.9978 28.0815 17.0667 27.7148Z" fill="#3EA3CE"/>
<path d="M17.4827 25.5017C17.5516 25.135 17.9047 24.8936 18.2714 24.9624L25.3533 26.2926C25.72 26.3615 25.9614 26.7146 25.8926 27.0812C25.8237 27.4479 25.4706 27.6893 25.1039 27.6205L18.022 26.2903C17.6553 26.2214 17.4138 25.8684 17.4827 25.5017Z" fill="#3EA3CE"/>
<path d="M16.5266 30.5919C16.6184 30.103 17.0892 29.7811 17.5781 29.8729L30.4142 32.2838C30.9031 32.3756 31.225 32.8464 31.1332 33.3353L31.05 33.778C30.9582 34.2669 30.4874 34.5888 29.9985 34.4969L17.1624 32.086C16.6735 31.9942 16.3516 31.5234 16.4435 31.0345L16.5266 30.5919Z" fill="#3EA3CE"/>
<path opacity="0.5" d="M35.2742 12.2835L55.3016 23.5287L40.5286 49.8393L20.5011 38.5941L35.2742 12.2835Z" fill="#6FB5D2"/>
<path d="M36.4245 16.1318C36.668 15.6981 37.2171 15.5439 37.6509 15.7874L47.861 21.5203C48.2947 21.7638 48.4489 22.3129 48.2054 22.7466L47.7644 23.532C47.5208 23.9658 46.9718 24.12 46.538 23.8764L36.3279 18.1436C35.8942 17.9001 35.74 17.351 35.9835 16.9172L36.4245 16.1318Z" fill="#84B0C2"/>
<path d="M34.7708 19.0769C34.9535 18.7516 35.3653 18.636 35.6906 18.8186L46.2934 24.7719C46.6187 24.9546 46.7343 25.3664 46.5517 25.6917C46.369 26.017 45.9572 26.1327 45.6319 25.95L35.0291 19.9967C34.7038 19.814 34.5882 19.4022 34.7708 19.0769Z" fill="#84B0C2"/>
<path d="M28.8177 29.6798C29.0004 29.3545 29.4122 29.2389 29.7375 29.4215L41.5183 36.0363C41.8437 36.219 41.9593 36.6308 41.7766 36.9561C41.594 37.2814 41.1822 37.3971 40.8569 37.2144L29.076 30.5996C28.7507 30.4169 28.635 30.0051 28.8177 29.6798Z" fill="#84B0C2"/>
<path d="M29.9202 27.7163C30.1029 27.391 30.5147 27.2753 30.84 27.458L37.1231 30.9859C37.4485 31.1685 37.5641 31.5803 37.3815 31.9057C37.1988 32.231 36.787 32.3466 36.4617 32.164L30.1785 28.6361C29.8532 28.4534 29.7376 28.0416 29.9202 27.7163Z" fill="#84B0C2"/>
<path d="M27.3842 32.2323C27.6278 31.7986 28.1768 31.6444 28.6106 31.8879L39.9988 38.2822C40.4325 38.5258 40.5867 39.0748 40.3432 39.5086L40.1227 39.9013C39.8791 40.335 39.3301 40.4892 38.8963 40.2457L27.5081 33.8514C27.0744 33.6078 26.9202 33.0588 27.1637 32.625L27.3842 32.2323Z" fill="#84B0C2"/>
<path opacity="0.5" d="M44.9751 23.5054L60.692 40.2545L38.6884 60.9022L22.9714 44.1532L44.9751 23.5054Z" fill="#6FB5D2"/>
<path d="M44.9145 27.5215C45.2772 27.1811 45.8472 27.1992 46.1876 27.562L54.2002 36.1007C54.5406 36.4635 54.5225 37.0335 54.1597 37.3739L53.5029 37.9902C53.1401 38.3306 52.5701 38.3125 52.2297 37.9498L44.2172 29.411C43.8768 29.0483 43.8949 28.4783 44.2576 28.1379L44.9145 27.5215Z" fill="#84B0C2"/>
<path d="M42.4512 29.8328C42.7233 29.5775 43.1508 29.5911 43.4061 29.8631L51.7268 38.7303C51.9821 39.0023 51.9686 39.4299 51.6965 39.6852C51.4244 39.9405 50.9969 39.9269 50.7416 39.6548L42.4209 30.7877C42.1656 30.5156 42.1792 30.0881 42.4512 29.8328Z" fill="#84B0C2"/>
<path d="M33.584 38.1536C33.8561 37.8983 34.2836 37.9119 34.5389 38.184L43.7842 48.0363C44.0395 48.3084 44.0259 48.7359 43.7538 48.9912C43.4818 49.2465 43.0542 49.2329 42.7989 48.9609L33.5537 39.1085C33.2984 38.8364 33.312 38.4089 33.584 38.1536Z" fill="#84B0C2"/>
<path d="M35.2261 36.6127C35.4982 36.3574 35.9257 36.371 36.181 36.6431L41.1118 41.8977C41.3671 42.1698 41.3535 42.5973 41.0815 42.8526C40.8094 43.1079 40.3819 43.0943 40.1266 42.8222L35.1958 37.5676C34.9405 37.2955 34.9541 36.868 35.2261 36.6127Z" fill="#84B0C2"/>
<path d="M31.4496 40.1567C31.8124 39.8163 32.3824 39.8345 32.7228 40.1972L41.6599 49.7212C42.0003 50.0839 41.9822 50.654 41.6194 50.9944L41.291 51.3025C40.9282 51.6429 40.3582 51.6248 40.0178 51.2621L31.0807 41.7381C30.7403 41.3753 30.7585 40.8053 31.1212 40.4649L31.4496 40.1567Z" fill="#3EA3CE"/>
<path fill-rule="evenodd" clip-rule="evenodd" d="M12.3052 17.1553C11.559 17.1553 10.9541 17.7602 10.9541 18.5064V46.4289V61.7412C10.9541 62.4874 11.559 63.0923 12.3052 63.0923H37.5255H45.1817C45.9279 63.0923 46.5328 62.4874 46.5328 61.7412V46.4289C46.5328 45.6827 45.9279 45.0778 45.1817 45.0778H38.8766V18.5064C38.8766 17.7602 38.2717 17.1553 37.5255 17.1553H12.3052Z" fill="#3EA3CE"/>
<path d="M10.9541 61.2909H46.0824C46.8286 61.2909 47.4335 61.8958 47.4335 62.6419V63.0923H12.3052C11.559 63.0923 10.9541 62.4874 10.9541 61.7412V61.2909Z" fill="#3982A2"/>
</svg>
