<svg version="1.2" baseProfile="tiny-ps" xmlns="http://www.w3.org/2000/svg" viewBox="0 0 50 54" width="50" height="54">
	<title>account-info-svg</title>
	<style>
		tspan { white-space:pre }
		.shp0 { opacity: 0.502;fill: #6fb5d2 } 
		.shp1 { fill: #84b0c2 } 
		.shp2 { fill: #3ea3ce } 
		.shp3 { fill: #3982a2 } 
	</style>
	<path id="Layer" class="shp0" d="M6.61 0.17L29.19 4.41L23.62 34.06L1.04 29.82L6.61 0.17Z" />
	<path id="Layer" class="shp1" d="M8.93 3.44C9.03 2.96 9.5 2.63 9.99 2.73L21.49 4.89C21.98 4.98 22.31 5.45 22.21 5.94L22.05 6.82C21.96 7.31 21.48 7.63 21 7.54L9.49 5.38C9 5.29 8.68 4.82 8.77 4.33L8.93 3.44Z" />
	<path id="Layer" class="shp1" d="M8.31 6.76C8.38 6.4 8.73 6.16 9.1 6.22L21.05 8.47C21.42 8.54 21.66 8.89 21.59 9.26C21.52 9.62 21.17 9.87 20.8 9.8L8.85 7.55C8.48 7.48 8.24 7.13 8.31 6.76Z" />
	<path id="Layer" class="shp2" d="M6.07 18.71C6.14 18.35 6.49 18.11 6.86 18.18L20.13 20.67C20.5 20.74 20.74 21.09 20.67 21.46C20.6 21.82 20.25 22.07 19.88 22L6.61 19.5C6.24 19.43 6 19.08 6.07 18.71Z" />
	<path id="Layer" class="shp2" d="M6.48 16.5C6.55 16.14 6.9 15.89 7.27 15.96L14.35 17.29C14.72 17.36 14.96 17.71 14.89 18.08C14.82 18.45 14.47 18.69 14.1 18.62L7.02 17.29C6.66 17.22 6.41 16.87 6.48 16.5Z" />
	<path id="Layer" class="shp2" d="M5.53 21.59C5.62 21.1 6.09 20.78 6.58 20.87L19.41 23.28C19.9 23.38 20.23 23.85 20.13 24.34L20.05 24.78C19.96 25.27 19.49 25.59 19 25.5L6.16 23.09C5.67 22.99 5.35 22.52 5.44 22.03L5.53 21.59Z" />
	<path id="Layer" class="shp0" d="M24.27 3.28L44.3 14.53L29.53 40.84L9.5 29.59L24.27 3.28Z" />
	<path id="Layer" class="shp1" d="M25.42 7.13C25.67 6.7 26.22 6.54 26.65 6.79L36.86 12.52C37.29 12.76 37.45 13.31 37.21 13.75L36.76 14.53C36.52 14.97 35.97 15.12 35.54 14.88L25.33 9.14C24.89 8.9 24.74 8.35 24.98 7.92L25.42 7.13Z" />
	<path id="Layer" class="shp1" d="M23.77 10.08C23.95 9.75 24.37 9.64 24.69 9.82L35.29 15.77C35.62 15.95 35.73 16.37 35.55 16.69C35.37 17.02 34.96 17.13 34.63 16.95L24.03 11C23.7 10.81 23.59 10.4 23.77 10.08Z" />
	<path id="Layer" class="shp1" d="M17.82 20.68C18 20.35 18.41 20.24 18.74 20.42L30.52 27.04C30.84 27.22 30.96 27.63 30.78 27.96C30.59 28.28 30.18 28.4 29.86 28.21L18.08 21.6C17.75 21.42 17.64 21.01 17.82 20.68Z" />
	<path id="Layer" class="shp1" d="M18.92 18.72C19.1 18.39 19.51 18.28 19.84 18.46L26.12 21.99C26.45 22.17 26.56 22.58 26.38 22.91C26.2 23.23 25.79 23.35 25.46 23.16L19.18 19.64C18.85 19.45 18.74 19.04 18.92 18.72Z" />
	<path id="Layer" class="shp1" d="M16.38 23.23C16.63 22.8 17.18 22.64 17.61 22.89L29 29.28C29.43 29.53 29.59 30.07 29.34 30.51L29.12 30.9C28.88 31.34 28.33 31.49 27.9 31.25L16.51 24.85C16.07 24.61 15.92 24.06 16.16 23.63L16.38 23.23Z" />
	<path id="Layer" class="shp0" d="M33.98 14.51L49.69 31.25L27.69 51.9L11.97 35.15L33.98 14.51Z" />
	<path id="Layer" class="shp1" d="M33.91 18.52C34.28 18.18 34.85 18.2 35.19 18.56L43.2 27.1C43.54 27.46 43.52 28.03 43.16 28.37L42.5 28.99C42.14 29.33 41.57 29.31 41.23 28.95L33.22 20.41C32.88 20.05 32.89 19.48 33.26 19.14L33.91 18.52Z" />
	<path id="Layer" class="shp1" d="M31.45 20.83C31.72 20.58 32.15 20.59 32.41 20.86L40.73 29.73C40.98 30 40.97 30.43 40.7 30.69C40.42 30.94 40 30.93 39.74 30.65L31.42 21.79C31.17 21.52 31.18 21.09 31.45 20.83Z" />
	<path id="Layer" class="shp1" d="M22.58 29.15C22.86 28.9 23.28 28.91 23.54 29.18L32.78 39.04C33.04 39.31 33.03 39.74 32.75 39.99C32.48 40.25 32.05 40.23 31.8 39.96L22.55 30.11C22.3 29.84 22.31 29.41 22.58 29.15Z" />
	<path id="Layer" class="shp1" d="M24.23 27.61C24.5 27.36 24.93 27.37 25.18 27.64L30.11 32.9C30.37 33.17 30.35 33.6 30.08 33.85C29.81 34.11 29.38 34.09 29.13 33.82L24.2 28.57C23.94 28.3 23.95 27.87 24.23 27.61Z" />
	<path id="Layer" class="shp2" d="M20.45 31.16C20.81 30.82 21.38 30.83 21.72 31.2L30.66 40.72C31 41.08 30.98 41.65 30.62 41.99L30.29 42.3C29.93 42.64 29.36 42.62 29.02 42.26L20.08 32.74C19.74 32.38 19.76 31.81 20.12 31.46L20.45 31.16Z" />
	<path id="Layer" fill-rule="evenodd" class="shp2" d="M1.31 8.16C0.56 8.16 -0.05 8.76 -0.05 9.51L-0.05 37.43L-0.05 52.74C-0.05 53.49 0.56 54.09 1.31 54.09L26.53 54.09L34.18 54.09C34.93 54.09 35.53 53.49 35.53 52.74L35.53 37.43C35.53 36.68 34.93 36.08 34.18 36.08L27.88 36.08L27.88 9.51C27.88 8.76 27.27 8.16 26.53 8.16L1.31 8.16Z" />
	<path id="Layer" class="shp3" d="M-0.05 52.29L35.08 52.29C35.83 52.29 36.43 52.9 36.43 53.64L36.43 54.09L1.31 54.09C0.56 54.09 -0.05 53.49 -0.05 52.74L-0.05 52.29Z" />
</svg>