<svg width="50" height="57" viewBox="0 0 50 57" fill="none" xmlns="http://www.w3.org/2000/svg">
<circle cx="24" cy="21" r="21" fill="#005365" fill-opacity="0.06"/>
<path fill-rule="evenodd" clip-rule="evenodd" d="M21.0148 8.40872C18.4209 9.16094 16.3045 11.2607 15.5434 13.8368C15.3754 14.4057 15.3303 15.1601 15.2878 18.1232L15.2363 21.7192H16.5391H17.842L17.8448 18.4684C17.8464 16.6805 17.9012 14.9903 17.9667 14.7127C18.445 12.6811 20.3037 11.0043 22.4825 10.6389C24.9622 10.2229 27.5237 11.7631 28.4512 14.2273C28.672 14.8138 28.7007 15.2227 28.7677 18.7273C28.8378 22.3869 28.8551 22.6143 29.1088 23.2151C29.2558 23.5632 29.4253 23.8972 29.4853 23.9573C29.8903 24.363 29.8296 24.3658 20.3687 24.3658H11.1431V25.5726V26.7792L15.0508 26.8096L18.9584 26.8398L19.03 28.6234C19.0694 29.6044 19.1634 30.5974 19.2389 30.8301C19.4559 31.4993 20.2476 32.5681 20.8294 32.9772C21.851 33.6956 22.3628 33.8545 23.6619 33.857C24.7513 33.8591 24.8967 33.8317 25.601 33.4918C26.9051 32.8626 27.7683 31.8461 28.1192 30.5267C28.427 29.3696 28.4864 29.4289 27.0219 29.4289H25.7423L25.6646 29.8341C25.5768 30.2922 25.0216 30.9691 24.5292 31.2184C23.6701 31.6535 22.4006 31.2597 21.885 30.3982C21.6242 29.9625 21.6027 29.8066 21.6027 28.3544V26.7823H28.3444H35.086L35.3929 26.4817C35.7964 26.0867 35.8991 25.5338 35.6549 25.0713C35.403 24.5944 35.0672 24.4065 34.3249 24.3274C33.0862 24.1953 32.0491 23.4827 31.5488 22.4198C31.3168 21.9271 31.2957 21.6381 31.2316 18.0944C31.1572 13.9786 31.1287 13.779 30.4166 12.3976C29.3854 10.3972 27.364 8.8094 25.2171 8.31379C24.0819 8.05177 22.0907 8.09676 21.0148 8.40872Z" fill="#5D5D5D"/>
<g opacity="0.3" filter="url(#filter0_f)">
<ellipse cx="24.746" cy="51.5611" rx="20.5541" ry="1.43899" fill="black"/>
</g>
<defs>
<filter id="filter0_f" x="0.191895" y="46.1221" width="49.1081" height="10.878" filterUnits="userSpaceOnUse" color-interpolation-filters="sRGB">
<feFlood flood-opacity="0" result="BackgroundImageFix"/>
<feBlend mode="normal" in="SourceGraphic" in2="BackgroundImageFix" result="shape"/>
<feGaussianBlur stdDeviation="2" result="effect1_foregroundBlur"/>
</filter>
</defs>
</svg>
