<svg width="15" height="15" viewBox="0 0 15 15" fill="none" xmlns="http://www.w3.org/2000/svg">
<path fill-rule="evenodd" clip-rule="evenodd" d="M13.4735 7.5C13.4735 10.799 10.799 13.4735 7.5 13.4735C4.20095 13.4735 1.52655 10.799 1.52655 7.5C1.52655 7.25284 1.54156 7.00919 1.57072 6.76991H0.0350812C0.0118741 7.01014 0 7.25368 0 7.5C0 11.6421 3.35786 15 7.5 15C11.6421 15 15 11.6421 15 7.5C15 3.35786 11.6421 0 7.5 0C4.09555 0 1.2209 2.26834 0.304968 5.37611H1.91516C2.77148 3.12563 4.949 1.52655 7.5 1.52655C10.799 1.52655 13.4735 4.20095 13.4735 7.5Z" fill="white"/>
<path fill-rule="evenodd" clip-rule="evenodd" d="M6.28543 5.3376L7.37707 4.24609L9.68646 6.55536L9.68465 6.55718C9.92512 6.73037 10.0888 7.07208 10.0888 7.46512C10.0888 7.86335 9.92097 8.20843 9.67544 8.37955L9.68646 8.39069L7.37707 10.7002L6.28543 9.60872L7.66563 8.22839H0.664062V6.76822H7.71592L6.28543 5.3376Z" fill="white"/>
</svg>
