<svg width="42" height="37" viewBox="0 0 42 37" fill="none" xmlns="http://www.w3.org/2000/svg">
<circle cx="20.6737" cy="18.3979" r="9.79272" fill="#FCD833"/>
<path d="M20.6736 2.07672C21.1064 2.07672 21.5216 2.24868 21.8277 2.55476C22.1337 2.86084 22.3057 3.27598 22.3057 3.70884V5.34096C22.3057 5.77382 22.1337 6.18896 21.8277 6.49504C21.5216 6.80112 21.1064 6.97308 20.6736 6.97308C20.2407 6.97308 19.8256 6.80112 19.5195 6.49504C19.2134 6.18896 19.0415 5.77382 19.0415 5.34096V3.70884C19.0415 3.27598 19.2134 2.86084 19.5195 2.55476C19.8256 2.24868 20.2407 2.07672 20.6736 2.07672ZM8.9109 6.63523C9.21696 6.32926 9.63202 6.15737 10.0648 6.15737C10.4976 6.15737 10.9126 6.32926 11.2187 6.63523L12.8508 8.26735C13.1481 8.57517 13.3126 8.98745 13.3089 9.41539C13.3052 9.84332 13.1336 10.2527 12.831 10.5553C12.5283 10.8579 12.119 11.0295 11.6911 11.0333C11.2631 11.037 10.8508 10.8725 10.543 10.5752L8.9109 8.94305C8.60492 8.63698 8.43303 8.22192 8.43303 7.78914C8.43303 7.35636 8.60492 6.9413 8.9109 6.63523ZM32.4363 6.63523C32.7422 6.9413 32.9141 7.35636 32.9141 7.78914C32.9141 8.22192 32.7422 8.63698 32.4363 8.94305L30.8041 10.5752C30.6536 10.7311 30.4735 10.8554 30.2744 10.9409C30.0752 11.0265 29.8611 11.0715 29.6444 11.0734C29.4277 11.0753 29.2127 11.034 29.0122 10.9519C28.8116 10.8698 28.6293 10.7486 28.4761 10.5954C28.3229 10.4422 28.2017 10.2599 28.1196 10.0593C28.0375 9.85876 27.9962 9.64384 27.9981 9.42713C28 9.21042 28.045 8.99625 28.1306 8.79713C28.2161 8.598 28.3404 8.41791 28.4963 8.26735L30.1284 6.63523C30.4345 6.32926 30.8496 6.15737 31.2824 6.15737C31.7151 6.15737 32.1302 6.32926 32.4363 6.63523ZM20.6736 11.8694C18.9421 11.8694 17.2816 12.5573 16.0572 13.7816C14.8329 15.0059 14.1451 16.6665 14.1451 18.3979C14.1451 20.1294 14.8329 21.7899 16.0572 23.0142C17.2816 24.2386 18.9421 24.9264 20.6736 24.9264C22.405 24.9264 24.0656 24.2386 25.2899 23.0142C26.5142 21.7899 27.2021 20.1294 27.2021 18.3979C27.2021 16.6665 26.5142 15.0059 25.2899 13.7816C24.0656 12.5573 22.405 11.8694 20.6736 11.8694ZM10.8809 18.3979C10.8811 16.679 11.3338 14.9904 12.1934 13.5019C13.0531 12.0134 14.2894 10.7773 15.7781 9.91804C17.2668 9.05874 18.9555 8.60643 20.6744 8.60658C22.3934 8.60673 24.082 9.05934 25.5705 9.9189C27.0591 10.7785 28.2952 12.0147 29.1546 13.5034C30.014 14.9921 30.4664 16.6807 30.4663 18.3996C30.4662 20.1186 30.0137 21.8072 29.1542 23.2958C28.2948 24.7844 27.0586 26.0206 25.5699 26.88V29.8228C25.5699 31.1213 25.0541 32.3668 24.1358 33.285C23.2176 34.2032 21.9722 34.7191 20.6736 34.7191C19.375 34.7191 18.1296 34.2032 17.2113 33.285C16.2931 32.3668 15.7772 31.1213 15.7772 29.8228V26.88C14.2881 26.0207 13.0516 24.7843 12.1921 23.2953C11.3325 21.8063 10.8803 20.1172 10.8809 18.3979ZM19.0415 28.0552V29.8228C19.0415 30.2556 19.2134 30.6708 19.5195 30.9768C19.8256 31.2829 20.2407 31.4549 20.6736 31.4549C21.1064 31.4549 21.5216 31.2829 21.8277 30.9768C22.1337 30.6708 22.3057 30.2556 22.3057 29.8228V28.0552C21.2252 28.2368 20.122 28.2368 19.0415 28.0552ZM4.35239 18.3979C4.35239 17.965 4.52434 17.5499 4.83042 17.2438C5.1365 16.9378 5.55164 16.7658 5.98451 16.7658H7.61663C8.04949 16.7658 8.46463 16.9378 8.77071 17.2438C9.07679 17.5499 9.24874 17.965 9.24874 18.3979C9.24874 18.8308 9.07679 19.2459 8.77071 19.552C8.46463 19.8581 8.04949 20.03 7.61663 20.03H5.98451C5.55164 20.03 5.1365 19.8581 4.83042 19.552C4.52434 19.2459 4.35239 18.8308 4.35239 18.3979ZM32.0984 18.3979C32.0984 17.965 32.2704 17.5499 32.5765 17.2438C32.8825 16.9378 33.2977 16.7658 33.7305 16.7658H35.3627C35.7955 16.7658 36.2107 16.9378 36.5167 17.2438C36.8228 17.5499 36.9948 17.965 36.9948 18.3979C36.9948 18.8308 36.8228 19.2459 36.5167 19.552C36.2107 19.8581 35.7955 20.03 35.3627 20.03H33.7305C33.2977 20.03 32.8825 19.8581 32.5765 19.552C32.2704 19.2459 32.0984 18.8308 32.0984 18.3979Z" fill="#005365"/>
<path opacity="0.6" d="M38.9717 34.5365L37.8015 33.9877L37.5839 32.7548C37.578 32.721 37.5607 32.6899 37.5348 32.6661C37.4698 32.6065 37.3681 32.608 37.3074 32.6693L36.4317 33.5641L35.156 33.3565C35.1209 33.3507 35.0853 33.3564 35.0546 33.3722C35.0173 33.3915 34.9899 33.4245 34.9783 33.464C34.9667 33.5034 34.9719 33.5461 34.9927 33.5825L35.6214 34.6842L35.0507 35.7889C35.0374 35.8146 35.0319 35.8435 35.0348 35.8724C35.0377 35.9013 35.0489 35.9291 35.0672 35.9525C35.0854 35.9759 35.11 35.9941 35.1381 36.0049C35.1661 36.0157 35.1966 36.0188 35.226 36.0138L36.4906 35.8001L37.4137 36.6904C37.4389 36.7149 37.472 36.7307 37.5069 36.7354C37.595 36.7475 37.675 36.6886 37.6854 36.6037L37.838 35.3698L38.9789 34.8154C39.01 34.8001 39.035 34.7755 39.0499 34.7446C39.0879 34.6677 39.0523 34.5746 38.9717 34.5365Z" fill="#0C7187"/>
<path opacity="0.4" d="M4.12276 1.26333L3.70683 2.48705L4.4443 3.4988C4.4645 3.52647 4.47499 3.56053 4.47411 3.59565C4.47202 3.68377 4.40041 3.7561 4.3142 3.7573L3.06224 3.76784L2.32727 4.831C2.30708 4.86035 2.27831 4.88199 2.24559 4.89318C2.20584 4.90661 2.16303 4.90349 2.12657 4.88451C2.0901 4.86552 2.06297 4.83222 2.05112 4.79192L1.69323 3.57498L0.501586 3.22022C0.473847 3.21201 0.449167 3.19591 0.430343 3.17376C0.411519 3.15161 0.399306 3.12429 0.395087 3.09491C0.390869 3.06552 0.394814 3.03523 0.406476 3.00749C0.418137 2.97975 0.437049 2.95565 0.461066 2.93794L1.49194 2.17496L1.49049 0.892452C1.49028 0.857351 1.50184 0.822532 1.52267 0.794069C1.57508 0.722235 1.67292 0.705441 1.74134 0.756807L2.73626 1.50247L3.92685 1.06483C3.95936 1.05297 3.99451 1.05203 4.02704 1.06276C4.10881 1.08867 4.15119 1.17886 4.12276 1.26333Z" fill="#3EA3CE"/>
<path opacity="0.3" d="M33.1703 35.0919L32.4967 34.776L32.3714 34.0662C32.368 34.0468 32.358 34.0288 32.3431 34.0152C32.3057 33.9809 32.2471 33.9817 32.2122 34.017L31.7081 34.5321L30.9737 34.4126C30.9534 34.4092 30.933 34.4125 30.9153 34.4216C30.8938 34.4328 30.878 34.4518 30.8714 34.4745C30.8647 34.4972 30.8677 34.5217 30.8796 34.5427L31.2416 35.177L30.9131 35.8129C30.9054 35.8277 30.9022 35.8444 30.9039 35.861C30.9056 35.8777 30.912 35.8936 30.9225 35.9071C30.933 35.9206 30.9472 35.931 30.9633 35.9373C30.9795 35.9435 30.997 35.9453 31.014 35.9424L31.742 35.8193L32.2734 36.3319C32.2879 36.346 32.307 36.3551 32.3271 36.3578C32.3778 36.3648 32.4238 36.3309 32.4298 36.282L32.5177 35.5716L33.1745 35.2525C33.1924 35.2437 33.2068 35.2295 33.2153 35.2117C33.2372 35.1675 33.2167 35.1139 33.1703 35.0919Z" fill="#FCD833"/>
<path d="M9.44629 2.35942L9.20684 3.06391L9.63139 3.64637C9.64303 3.6623 9.64906 3.68191 9.64856 3.70213C9.64736 3.75286 9.60613 3.7945 9.5565 3.79519L8.83575 3.80126L8.41263 4.41331C8.40101 4.43021 8.38445 4.44267 8.36561 4.44911C8.34273 4.45684 8.31808 4.45505 8.29709 4.44412C8.2761 4.43319 8.26047 4.41401 8.25365 4.39082L8.04762 3.69023L7.3616 3.486C7.34563 3.48127 7.33142 3.472 7.32058 3.45925C7.30975 3.4465 7.30272 3.43077 7.30029 3.41385C7.29786 3.39693 7.30013 3.3795 7.30684 3.36353C7.31356 3.34756 7.32444 3.33369 7.33827 3.32349L7.93174 2.88425L7.93091 2.14591C7.93078 2.12571 7.93744 2.10566 7.94943 2.08927C7.9796 2.04792 8.03593 2.03825 8.07532 2.06782L8.64808 2.4971L9.3335 2.24515C9.35222 2.23832 9.37245 2.23778 9.39118 2.24396C9.43825 2.25888 9.46265 2.3108 9.44629 2.35942Z" fill="#FCD833"/>
<path opacity="0.3" d="M40.8472 2.29339C40.8472 3.33471 40.0987 4.08678 39.2832 4.08678C38.4676 4.08678 37.7191 3.33471 37.7191 2.29339C37.7191 1.25207 38.4676 0.5 39.2832 0.5C40.0987 0.5 40.8472 1.25207 40.8472 2.29339Z" stroke="#3EA3CE"/>
<circle opacity="0.3" cx="8.32236" cy="29.6611" r="0.876035" stroke="#3EA3CE"/>
</svg>
