<svg width="64" height="34" viewBox="0 0 64 34" fill="none" xmlns="http://www.w3.org/2000/svg">
<path d="M0.548389 31.528C0.24289 31.528 -0.00527311 31.2803 8.51702e-05 30.9749C0.0931407 25.6702 1.52341 20.4745 4.15827 15.8695C4.30999 15.6044 4.64996 15.5186 4.91242 15.6749L13.8653 21.0082C14.1278 21.1645 14.2131 21.5037 14.0641 21.7704C12.4889 24.589 11.6195 27.7473 11.5303 30.9749C11.5218 31.2803 11.275 31.528 10.9695 31.528H0.548389Z" fill="#3EA3CE"/>
<path fill-rule="evenodd" clip-rule="evenodd" d="M0.553327 30.9749H10.9695C10.9696 30.9749 10.9696 30.9749 10.9697 30.9749C10.9701 30.9746 10.9708 30.9741 10.9718 30.9732C10.9733 30.9717 10.9747 30.9697 10.9757 30.9675C10.9765 30.9656 10.9772 30.9631 10.9773 30.9596C11.0691 27.6427 11.9625 24.3971 13.5812 21.5005C13.5829 21.4975 13.5836 21.495 13.5838 21.493C13.5841 21.4906 13.5839 21.4881 13.5834 21.486C13.5831 21.4847 13.5827 21.4839 13.5825 21.4835C13.5824 21.4835 13.5823 21.4834 13.5823 21.4834L4.63357 16.1527C2.04961 20.672 0.646266 25.7699 0.553327 30.9749ZM8.51702e-05 30.9749C-0.00527311 31.2803 0.24289 31.528 0.548389 31.528H10.9695C11.275 31.528 11.5218 31.2803 11.5303 30.9749C11.6195 27.7473 12.4889 24.589 14.0641 21.7704C14.2131 21.5037 14.1278 21.1645 13.8653 21.0082L4.91242 15.6749C4.64996 15.5186 4.30999 15.6044 4.15827 15.8695C1.52341 20.4745 0.0931407 25.6702 8.51702e-05 30.9749Z" fill="white"/>
<path d="M4.59421 16.2193C4.32863 16.0683 4.2353 15.7303 4.39092 15.4675C7.09344 10.9018 10.9046 7.09184 15.471 4.39071C15.734 4.23517 16.0719 4.32861 16.2228 4.59423L21.3703 13.6553C21.5212 13.9209 21.4277 14.2579 21.1663 14.4161C18.404 16.088 16.0873 18.404 14.4146 21.1658C14.2563 21.4271 13.9193 21.5205 13.6537 21.3695L4.59421 16.2193Z" fill="#3EA3CE" fill-opacity="0.84"/>
<path fill-rule="evenodd" clip-rule="evenodd" d="M4.87188 15.7409L13.9271 20.8886C13.9271 20.8887 13.9272 20.8887 13.9273 20.8887C13.9277 20.8887 13.9286 20.8886 13.9299 20.8883C13.932 20.8877 13.9342 20.8867 13.9361 20.8852C13.9378 20.884 13.9396 20.8822 13.9414 20.8792C15.6604 18.041 18.0412 15.661 20.8799 13.9429C20.8829 13.9411 20.8847 13.9393 20.8859 13.9376C20.8873 13.9357 20.8884 13.9335 20.889 13.9313C20.8893 13.9301 20.8894 13.9292 20.8894 13.9287C20.8894 13.9287 20.8893 13.9286 20.8893 13.9285L15.7443 4.87176C11.2645 7.52355 7.52504 11.2618 4.87188 15.7409ZM20.8894 13.9284C20.8894 13.9284 20.8894 13.9284 20.8894 13.9284L20.8894 13.9284ZM13.927 20.8887C13.927 20.8887 13.927 20.8887 13.9269 20.8887L13.9269 20.8887C13.9269 20.8887 13.9269 20.8887 13.927 20.8887ZM4.39092 15.4675C4.2353 15.7303 4.32863 16.0683 4.59421 16.2193L13.6537 21.3695C13.9193 21.5205 14.2563 21.4271 14.4146 21.1658C16.0873 18.404 18.404 16.088 21.1663 14.4161C21.4277 14.2579 21.5211 13.9209 21.3703 13.6553L16.2228 4.59423C16.0719 4.32861 15.734 4.23517 15.471 4.39071C10.9046 7.09184 7.09344 10.9018 4.39092 15.4675Z" fill="white"/>
<path d="M15.6877 4.90671C15.5315 4.64415 15.6175 4.30424 15.8827 4.15269C20.4894 1.52081 25.6861 0.0939103 30.9908 0.00429043C31.2963 -0.000870028 31.5438 0.247453 31.5436 0.552952L31.5368 10.974C31.5366 11.2795 31.2887 11.5262 30.9833 11.5345C27.7557 11.6216 24.5968 12.489 21.7772 14.0623C21.5104 14.2112 21.1713 14.1257 21.0151 13.8631L15.6877 4.90671Z" fill="#3EA3CE" fill-opacity="0.68"/>
<path fill-rule="evenodd" clip-rule="evenodd" d="M16.1656 4.62817L21.4905 13.5803C21.4906 13.5804 21.4906 13.5805 21.4906 13.5805C21.491 13.5807 21.4919 13.5811 21.4931 13.5814C21.4952 13.582 21.4977 13.5822 21.5001 13.5819C21.5019 13.5816 21.5041 13.5811 21.5067 13.5797C21.507 13.5796 21.5073 13.5794 21.5077 13.5793C24.4053 11.9624 27.6515 11.0711 30.9684 10.9815C30.9719 10.9814 30.9743 10.9807 30.9763 10.9799C30.9785 10.9789 30.9805 10.9775 30.982 10.976C30.9829 10.975 30.9834 10.9743 30.9837 10.9739C30.9837 10.9738 30.9837 10.9738 30.9837 10.9737L30.9904 0.557532C25.7854 0.647101 20.6865 2.04715 16.1656 4.62817ZM15.8827 4.15269C15.6175 4.30424 15.5315 4.64415 15.6877 4.90671L21.0151 13.8631C21.1713 14.1257 21.5104 14.2112 21.7772 14.0623C24.5968 12.489 27.7557 11.6216 30.9833 11.5345C31.2887 11.5262 31.5366 11.2795 31.5368 10.974L31.5436 0.552952C31.5438 0.247453 31.2963 -0.000870028 30.9908 0.00429043C25.6861 0.0939103 20.4894 1.52081 15.8827 4.15269Z" fill="white"/>
<path d="M30.9288 0.558857C30.923 0.253414 31.1658 0.000545141 31.4713 4.26565e-05C36.7768 -0.00868383 41.999 1.32164 46.6537 3.86768C46.9217 4.01429 47.014 4.35254 46.8627 4.61795L41.7022 13.6716C41.5509 13.937 41.2135 14.0287 40.944 13.8849C38.0957 12.3641 34.9213 11.5554 31.6925 11.5281C31.387 11.5255 31.1346 11.2834 31.1287 10.978L30.9288 0.558857Z" fill="#3EA3CE" fill-opacity="0.52"/>
<path fill-rule="evenodd" clip-rule="evenodd" d="M31.482 0.553182L31.6818 10.9674C31.6818 10.9675 31.6818 10.9676 31.6818 10.9676C31.682 10.968 31.6826 10.9687 31.6835 10.9697C31.6851 10.9712 31.6871 10.9726 31.6893 10.9735C31.6913 10.9743 31.6937 10.9749 31.6972 10.975C35.0152 11.003 38.2774 11.8341 41.2045 13.3969C41.2076 13.3986 41.21 13.3992 41.2121 13.3994C41.2145 13.3996 41.2169 13.3994 41.219 13.3988C41.2203 13.3985 41.2211 13.3981 41.2215 13.3978C41.2216 13.3978 41.2216 13.3977 41.2216 13.3976L46.3797 4.34832C41.8117 1.85154 36.6878 0.546252 31.482 0.553182ZM31.6816 10.9674C31.6816 10.9673 31.6816 10.9673 31.6816 10.9673L31.6816 10.9674ZM31.4713 4.26565e-05C31.1658 0.000545141 30.923 0.253414 30.9288 0.558857L31.1287 10.978C31.1346 11.2834 31.387 11.5255 31.6925 11.5281C34.9213 11.5554 38.0957 12.3641 40.944 13.8849C41.2135 14.0287 41.5509 13.937 41.7022 13.6716L46.8627 4.61795C47.014 4.35254 46.9217 4.01429 46.6537 3.86768C41.999 1.32164 36.7768 -0.00868383 31.4713 4.26565e-05Z" fill="white"/>
<path d="M46.4037 4.36172C46.5505 4.09378 46.8869 3.99511 47.1523 4.14654C51.9653 6.89347 55.9694 10.8607 58.7609 15.648C58.9148 15.9119 58.8192 16.2493 58.5527 16.3985L49.4596 21.4891C49.193 21.6383 48.8566 21.5427 48.7 21.2804C46.9688 18.3791 44.5306 15.9635 41.6135 14.2592C41.3497 14.1051 41.251 13.7696 41.3977 13.5017L46.4037 4.36172Z" fill="#3EA3CE" fill-opacity="0.27"/>
<path fill-rule="evenodd" clip-rule="evenodd" d="M46.8865 4.63178L41.8829 13.7674C41.8828 13.7675 41.8828 13.7675 41.8828 13.7676C41.8828 13.7681 41.8829 13.7689 41.8832 13.7702C41.8838 13.7723 41.8849 13.7745 41.8864 13.7764C41.8877 13.7781 41.8894 13.7798 41.8925 13.7816C44.8903 15.533 47.3959 18.0154 49.175 20.9969C49.1768 20.9999 49.1786 21.0017 49.1803 21.003C49.1822 21.0044 49.1844 21.0055 49.1865 21.0061C49.1877 21.0064 49.1885 21.0065 49.189 21.0065C49.1891 21.0065 49.1891 21.0065 49.1891 21.0065C49.1892 21.0065 49.1893 21.0065 49.1893 21.0064L58.2782 15.9183C55.5375 11.2215 51.6085 7.32873 46.8865 4.63178ZM47.1523 4.14654C46.8869 3.99511 46.5505 4.09378 46.4037 4.36172L41.3977 13.5017C41.251 13.7696 41.3497 14.1051 41.6135 14.2592C44.5306 15.9635 46.9688 18.3791 48.7 21.2804C48.8566 21.5427 49.193 21.6383 49.4596 21.4891L58.5527 16.3985C58.8192 16.2493 58.9148 15.9119 58.7609 15.648C55.9695 10.8607 51.9653 6.89347 47.1523 4.14654Z" fill="white"/>
<path fill-rule="evenodd" clip-rule="evenodd" d="M58.4571 16.2245L49.4946 21.5319L49.4934 21.5345C49.4929 21.5366 49.4927 21.5391 49.493 21.5415C49.4932 21.5435 49.4939 21.546 49.4956 21.549C51.1067 24.4498 51.9917 27.6977 52.0748 31.0149C52.0749 31.0169 52.0755 31.02 52.0755 31.02L52.0764 31.0227C52.0774 31.0249 52.0788 31.0269 52.0803 31.0285L52.0824 31.0302L62.4987 31.0573C62.4193 25.8521 61.0293 20.7505 58.4571 16.2245ZM58.9331 15.9426C58.7821 15.677 58.4424 15.5904 58.1795 15.746L49.2127 21.0559C48.9499 21.2116 48.8637 21.5506 49.012 21.8176C50.5798 24.6403 51.441 27.8009 51.5218 31.0287C51.5295 31.3341 51.7757 31.5825 52.0812 31.5833L62.5022 31.6105C62.8077 31.6113 63.0565 31.3642 63.052 31.0587C62.9727 25.7538 61.556 20.5544 58.9331 15.9426Z" fill="#CBE6F2"/>
<path d="M29.7543 26.7337L38.4352 4.49892L34.6709 28.2484L29.7543 26.7337Z" fill="#3EA3CE"/>
<path fill-rule="evenodd" clip-rule="evenodd" d="M38.1797 4.3979L38.7105 4.54179L34.8963 28.6062L29.3905 26.9099L38.1797 4.3979ZM30.1223 26.5566L34.4497 27.8898L37.763 6.98616L30.1223 26.5566Z" fill="white"/>
<path fill-rule="evenodd" clip-rule="evenodd" d="M33.1802 32.6705C35.2968 31.9363 36.4175 29.6253 35.6833 27.5087C34.9491 25.3921 32.638 24.2714 30.5214 25.0056C28.4048 25.7398 27.2842 28.0508 28.0184 30.1674C28.7526 32.284 31.0636 33.4047 33.1802 32.6705ZM32.1867 30.0877C32.8121 29.8708 33.1432 29.188 32.9262 28.5626C32.7093 27.9372 32.0265 27.6061 31.4011 27.8231C30.7758 28.04 30.4447 28.7228 30.6616 29.3481C30.8785 29.9735 31.5613 30.3046 32.1867 30.0877Z" fill="#3EA3CE"/>
<path fill-rule="evenodd" clip-rule="evenodd" d="M32.9989 32.1479C34.8269 31.5138 35.7947 29.5179 35.1606 27.6899C34.5266 25.862 32.5307 24.8941 30.7027 25.5282C28.8747 26.1623 27.9069 28.1582 28.541 29.9862C29.175 31.8141 31.1709 32.782 32.9989 32.1479ZM33.4488 28.3813C33.7659 29.2953 33.282 30.2932 32.368 30.6103C31.454 30.9273 30.456 30.4434 30.139 29.5294C29.822 28.6154 30.3059 27.6175 31.2199 27.3004C32.1339 26.9834 33.1318 27.4673 33.4488 28.3813ZM35.6833 27.5087C36.4175 29.6253 35.2968 31.9363 33.1802 32.6705C31.0636 33.4047 28.7526 32.284 28.0184 30.1674C27.2842 28.0508 28.4048 25.7398 30.5214 25.0056C32.638 24.2714 34.9491 25.3921 35.6833 27.5087ZM32.9262 28.5626C33.1432 29.188 32.8121 29.8708 32.1867 30.0877C31.5613 30.3046 30.8785 29.9735 30.6616 29.3481C30.4447 28.7228 30.7758 28.04 31.4011 27.8231C32.0265 27.6061 32.7093 27.9372 32.9262 28.5626Z" fill="white"/>
</svg>
