<svg width="35" height="27" viewBox="0 0 35 27" fill="none" xmlns="http://www.w3.org/2000/svg">
<path d="M8.10509 11.0816C7.72413 11.0816 7.35854 11.1396 6.99467 11.1926C7.11254 10.7963 7.23384 10.3931 7.42859 10.0309C7.62334 9.50477 7.92742 9.04865 8.22979 8.5891C8.48263 8.09198 8.9285 7.75544 9.2565 7.33006C9.59988 6.91664 10.068 6.6416 10.4387 6.29823C10.8025 5.93948 11.2792 5.7601 11.6584 5.50727C12.0548 5.28006 12.3998 5.02894 12.7688 4.90935L13.6896 4.5301L14.4994 4.19356L13.6708 0.882812L12.651 1.12881C12.3247 1.21081 11.9266 1.30648 11.4739 1.42094C11.011 1.50635 10.5173 1.7404 9.96717 1.95394C9.42392 2.19652 8.79525 2.36052 8.211 2.75002C7.62334 3.12244 6.94513 3.43335 6.34721 3.93219C5.76809 4.4464 5.06938 4.89227 4.55346 5.54656C3.98971 6.15815 3.43279 6.80048 3.00059 7.53164C2.50004 8.22864 2.16009 8.99398 1.80134 9.75077C1.47675 10.5076 1.21538 11.2814 1.00184 12.0331C0.596961 13.5399 0.415878 14.9714 0.345836 16.1963C0.287753 17.4229 0.321919 18.4428 0.393669 19.1808C0.419294 19.5293 0.467128 19.8675 0.501295 20.1016L0.544003 20.3886L0.588419 20.3783C0.892265 21.7976 1.59173 23.102 2.6059 24.1404C3.62007 25.1788 4.9075 25.9089 6.31926 26.2461C7.73103 26.5834 9.20943 26.5141 10.5835 26.0463C11.9575 25.5784 13.171 24.7311 14.0836 23.6024C14.9962 22.4737 15.5706 21.1097 15.7403 19.6681C15.9101 18.2266 15.6683 16.7665 15.0429 15.4566C14.4174 14.1468 13.434 13.0408 12.2062 12.2665C10.9784 11.4923 9.55658 11.0815 8.10509 11.0816ZM26.8968 11.0816C26.5158 11.0816 26.1502 11.1396 25.7863 11.1926C25.9042 10.7963 26.0255 10.3931 26.2203 10.0309C26.415 9.50477 26.7191 9.04865 27.0215 8.5891C27.2743 8.09198 27.7202 7.75544 28.0482 7.33006C28.3915 6.91664 28.8596 6.6416 29.2303 6.29823C29.5942 5.93948 30.0708 5.7601 30.4501 5.50727C30.8464 5.28006 31.1915 5.02894 31.5605 4.90935L32.4813 4.5301L33.291 4.19356L32.4625 0.882812L31.4426 1.12881C31.1163 1.21081 30.7183 1.30648 30.2656 1.42094C29.8026 1.50635 29.3089 1.7404 28.7588 1.95394C28.2173 2.19823 27.5869 2.36052 27.0027 2.75173C26.415 3.12415 25.7368 3.43506 25.1389 3.9339C24.5598 4.4481 23.861 4.89398 23.3451 5.54656C22.7814 6.15815 22.2245 6.80048 21.7923 7.53164C21.2917 8.22864 20.9518 8.99398 20.593 9.75077C20.2684 10.5076 20.007 11.2814 19.7935 12.0331C19.3886 13.5399 19.2075 14.9714 19.1375 16.1963C19.0794 17.4229 19.1136 18.4428 19.1853 19.1808C19.211 19.5293 19.2588 19.8675 19.293 20.1016L19.3357 20.3886L19.3801 20.3783C19.6839 21.7976 20.3834 23.102 21.3976 24.1404C22.4117 25.1788 23.6992 25.9089 25.1109 26.2461C26.5227 26.5834 28.0011 26.5141 29.3751 26.0463C30.7492 25.5784 31.9627 24.7311 32.8752 23.6024C33.7878 22.4737 34.3622 21.1097 34.532 19.6681C34.7018 18.2266 34.4599 16.7665 33.8345 15.4566C33.2091 14.1468 32.2256 13.0408 30.9979 12.2665C29.7701 11.4923 28.3482 11.0815 26.8968 11.0816Z" fill="#C4C4C4"/>
</svg>
