<svg width="13" height="13" viewBox="0 0 13 13" fill="none" xmlns="http://www.w3.org/2000/svg">
<path fill-rule="evenodd" clip-rule="evenodd" d="M2.889 1.09501C3.5988 0.62081 4.39504 0.291055 5.23228 0.124575C6.06951 -0.0419054 6.93134 -0.0418499 7.76855 0.124738C8.60577 0.291327 9.40197 0.621185 10.1117 1.09548C10.8214 1.56978 11.4308 2.17922 11.905 2.88901C12.3792 3.59881 12.709 4.39505 12.8754 5.23229C13.0419 6.06952 13.0419 6.93135 12.8753 7.76856C12.7087 8.60578 12.3788 9.40198 11.9045 10.1117C11.4302 10.8214 10.8208 11.4308 10.111 11.905C8.67746 12.8574 6.9247 13.2024 5.23715 12.8643C3.5496 12.5262 2.06502 11.5326 1.10902 10.1015C0.153015 8.67033 -0.196362 6.91844 0.137509 5.23005C0.471381 3.54165 1.46125 2.05459 2.89 1.09501H2.889ZM3.444 11.073C4.04418 11.4866 4.72058 11.7767 5.43389 11.9266C6.14719 12.0765 6.88317 12.0831 7.59904 11.946C8.31491 11.8089 8.99641 11.531 9.6039 11.1282C10.2114 10.7255 10.7328 10.206 11.1377 9.59994C11.5427 8.99392 11.8232 8.31345 11.9629 7.59808C12.1025 6.88271 12.0986 6.14671 11.9513 5.43287C11.8041 4.71902 11.5164 4.04157 11.105 3.43989C10.6936 2.8382 10.1667 2.32429 9.555 1.92801C8.34214 1.14795 6.87143 0.875427 5.45959 1.16915C4.04776 1.46287 2.80776 2.29933 2.00664 3.49839C1.20552 4.69745 0.907369 6.16318 1.1764 7.57992C1.44543 8.99667 2.26011 10.2511 3.445 11.073H3.444ZM7 3.00001H6V8.00001H7V3.00001ZM7 9.00001H6V10H7V9.00001Z" fill="#666666"/>
</svg>
