<svg version="1.2" baseProfile="tiny-ps" xmlns="http://www.w3.org/2000/svg" viewBox="0 0 297 247" width="297" height="247">
	<title>exit-intent-img-svg</title>
	<style>
		tspan { white-space:pre }
		.shp0 { fill: #000000 } 
		.shp1 { fill: #fd4036 } 
		.shp2 { fill: #feb52e } 
		.shp3 { fill: #ffe83b } 
		.shp4 { fill: #85c22d } 
		.shp5 { fill: #18b734 } 
		.shp6 { fill: #eeeeee } 
		.shp7 { opacity: 0.102;fill: #000000 } 
	</style>
	<g id="Layer" style="opacity: 0.302">
		<path id="Layer" class="shp0" d="M138.5 247C86.79 247 45 244.09 45 240.5C45 236.91 86.79 234 138.5 234C190.21 234 232 236.91 232 240.5C232 244.09 190.21 247 138.5 247Z" />
	</g>
	<path id="Layer" class="shp1" d="M277 197.5C277 160.77 262.41 125.54 236.43 99.57C210.46 73.59 175.23 59 138.5 59C101.77 59 66.54 73.59 40.57 99.57C14.59 125.54 0 160.77 0 197.5L76.7 197.5C76.7 181.11 83.21 165.39 94.8 153.8C106.39 142.21 122.11 135.7 138.5 135.7C154.89 135.7 170.61 142.21 182.2 153.8C193.79 165.39 200.3 181.11 200.3 197.5L277 197.5Z" />
	<path id="Layer" class="shp2" d="M277 197.5C277 167.59 267.32 138.49 249.41 114.54C231.49 90.59 206.31 73.09 177.62 64.64C148.93 56.19 118.28 57.26 90.25 67.68C62.22 78.1 38.31 97.31 22.1 122.44L86.61 164.04C93.84 152.84 104.5 144.27 116.99 139.63C129.49 134.99 143.15 134.51 155.94 138.28C168.73 142.04 179.95 149.84 187.94 160.52C195.92 171.2 200.24 184.17 200.24 197.5L277 197.5Z" />
	<path id="Layer" class="shp3" d="M277 197.5C277 175.38 271.7 153.59 261.56 133.94C251.41 114.29 236.7 97.36 218.67 84.56C200.63 71.76 179.79 63.46 157.9 60.37C136 57.27 113.68 59.46 92.8 66.76L118.12 139.18C127.43 135.93 137.38 134.95 147.15 136.33C156.92 137.71 166.21 141.41 174.26 147.12C182.3 152.83 188.86 160.39 193.39 169.15C197.91 177.91 200.28 187.64 200.28 197.5L277 197.5Z" />
	<path id="Layer" class="shp4" d="M277 197.5C277 169.91 268.76 142.96 253.34 120.08C237.92 97.21 216.03 79.46 190.45 69.11L161.68 140.22C173.09 144.84 182.85 152.76 189.73 162.96C196.61 173.17 200.29 185.19 200.29 197.5L277 197.5Z" />
	<path id="Layer" class="shp5" d="M277 197.5C277 170.08 268.86 143.27 253.61 120.48L189.86 163.13C196.67 173.3 200.3 185.26 200.3 197.5L277 197.5Z" />
	<g id="Layer">
		<path id="Layer" fill-rule="evenodd" class="shp0" d="M141.42 197.63L213.5 131.09L133.96 184.75L133.96 184.74C133.2 185.22 132.55 185.85 132.04 186.61C131.54 187.37 131.19 188.23 131.02 189.15C130.85 190.07 130.86 191.04 131.05 191.98C131.24 192.93 131.6 193.84 132.12 194.67C132.64 195.49 133.31 196.22 134.07 196.8C134.84 197.38 135.71 197.81 136.61 198.06C137.51 198.3 138.44 198.37 139.34 198.24C140.21 198.12 141.01 197.8 141.38 197.57L141.42 197.63Z" />
	</g>
	<g id="Layer">
		<path id="Layer" class="shp6" d="M277 197.5C277 160.77 262.41 125.54 236.43 99.57C210.46 73.59 175.23 59 138.5 59C101.77 59 66.54 73.59 40.57 99.57C14.59 125.54 0 160.77 0 197.5L12.77 197.5C12.77 164.15 26.02 132.17 49.59 108.59C73.17 85.02 105.15 71.77 138.5 71.77C171.85 71.77 203.83 85.02 227.41 108.59C250.99 132.17 264.23 164.15 264.23 197.5L277 197.5Z" />
	</g>
	<path id="Layer" fill-rule="evenodd" class="shp7" d="M144.12 0.01L161.78 0.03L162.52 0.41C163.34 0.84 163.93 1.44 164.32 2.28C164.54 2.76 164.58 3.23 164.58 5.33L164.59 7.83L163.74 7.83C163.28 7.83 162.6 7.87 162.24 7.92L161.57 8.01L161.57 5.84C161.57 4.11 161.53 3.61 161.35 3.36L161.12 3.05L143.87 3.05C128.01 3.05 126.59 3.07 126.35 3.29C126.1 3.51 126.09 3.95 126.09 11.71C126.09 19.72 126.09 19.91 126.38 20.19C126.66 20.46 126.85 20.47 138.59 20.47L150.51 20.47L150.52 21.28C150.52 21.72 150.58 22.38 150.64 22.75L150.75 23.42L125.86 23.42L125.11 23.06C124.27 22.65 123.74 22.09 123.3 21.17C123.01 20.55 123 20.37 123 11.76C123 2.33 122.98 2.56 123.75 1.55C124.24 0.89 125.01 0.36 125.78 0.16C126.3 0.02 130.21 -0.02 144.12 0.01ZM133.43 5.59C135.78 5.57 137.54 7.94 136.87 10.22C136.8 10.47 136.86 10.71 137.09 11.06C137.6 11.85 137.76 12.56 137.69 13.64C137.58 15.27 136.76 16.5 135.31 17.2C134.18 17.74 132.54 17.76 131.48 17.25C129.18 16.14 128.29 13.47 129.5 11.29C129.89 10.58 129.93 10.43 129.8 9.97C129.33 8.33 130.39 6.37 132.07 5.79C132.37 5.68 132.99 5.59 133.43 5.59ZM158.57 7.81L158.97 8.43L157.95 8.9C157.4 9.16 156.75 9.51 156.52 9.67C156.2 9.89 156.11 9.91 156.11 9.75C156.11 9.63 155.91 9.37 155.67 9.17C154.89 8.54 153.91 8.76 153.53 9.65L153.35 10.08L150.37 10.08L150.37 9.68C150.37 8.11 151.97 6.31 153.77 5.87C155.54 5.43 157.56 6.25 158.57 7.81ZM139.88 6.13L143.6 6.17C147.31 6.21 147.33 6.21 147.69 6.55C148.27 7.08 148.31 7.69 147.85 8.76L147.45 9.67L147.75 9.98C147.91 10.15 148.23 10.63 148.45 11.06C148.79 11.73 148.85 11.99 148.85 13.02C148.85 13.94 148.78 14.37 148.54 14.88C148.13 15.76 147.16 16.76 146.28 17.22C145.63 17.55 145.39 17.59 144.12 17.59C142.89 17.59 142.59 17.54 142.06 17.27C140.64 16.53 139.66 15.2 139.46 13.78L139.35 13.02L140.94 13.06C142.46 13.09 142.54 13.11 142.58 13.4C142.65 13.88 143.54 14.57 144.09 14.57C145.25 14.57 146.04 13.43 145.57 12.44C145.26 11.81 144.66 11.48 143.84 11.48C143.48 11.48 143.18 11.46 143.18 11.43C143.18 11.4 143.41 10.89 143.68 10.3L144.18 9.23L139.88 9.23L139.88 6.13ZM133.4 8.25C133.06 8.25 132.41 8.85 132.41 9.16C132.41 9.29 132.57 9.54 132.76 9.73C132.96 9.92 133.22 10.08 133.34 10.08C133.63 10.08 134.28 9.46 134.28 9.19C134.28 9.08 134.14 8.82 133.98 8.62C133.81 8.42 133.55 8.25 133.4 8.25ZM170.24 12.8L171.09 13.48L172.4 12.2L173.71 10.92L174.86 12.04L176 13.17L174.52 14.62L173.03 16.08L173.34 16.67C173.88 17.7 174.21 19.27 174.21 20.82C174.21 23.22 173.55 25.14 172.05 27.1C171.13 28.3 170.02 29.16 168.39 29.96C166.87 30.7 165.56 31 163.82 31C160.3 31.01 157.01 29.27 155.09 26.4C151.1 20.44 154.5 12.36 161.62 10.85C164.52 10.23 168.01 11.02 170.24 12.8ZM132.58 12.39C132.04 12.84 131.91 13.33 132.19 13.86C132.59 14.61 133.5 14.81 134.17 14.29C134.88 13.74 134.78 12.65 133.98 12.25C133.4 11.96 133.07 11.99 132.58 12.39ZM157.4 17.71C156.62 19.27 156.42 20.56 156.72 22.03C157.06 23.64 157.59 24.6 158.76 25.75C161.12 28.06 164.32 28.54 167.23 27.03C170.26 25.46 171.77 21.8 170.68 18.65C170.63 18.52 169.55 19.48 167.55 21.43C164.51 24.39 164.5 24.4 163.87 24.4C163.26 24.4 163.2 24.35 161.4 22.61L159.55 20.83L160.7 19.7L161.85 18.58L163.87 20.53L168.74 15.77L168.43 15.45C168 15 167.03 14.46 166.05 14.13C162.75 13.02 158.97 14.58 157.4 17.71Z" />
	<g id="Layer" style="opacity: 0.102">
		<path id="Layer" fill-rule="evenodd" class="shp0" d="M14.42 52.21C10.88 53.21 7.98 56.01 6.94 59.45C6.71 60.21 6.65 61.21 6.59 65.16L6.52 69.96L8.3 69.96L10.08 69.96L10.09 65.62C10.09 63.24 10.17 60.99 10.26 60.62C10.91 57.91 13.45 55.67 16.43 55.19C19.82 54.63 23.32 56.68 24.58 59.97C24.89 60.75 24.93 61.3 25.02 65.97C25.11 70.85 25.14 71.15 25.48 71.95C25.68 72.42 25.92 72.86 26 72.94C26.55 73.48 26.47 73.49 13.54 73.49L0.93 73.49L0.93 75.1L0.93 76.71L6.27 76.75L11.61 76.79L11.71 79.16C11.76 80.47 11.89 81.8 11.99 82.11C12.29 83 13.37 84.42 14.17 84.97C15.56 85.93 16.26 86.14 18.04 86.14C19.53 86.15 19.73 86.11 20.69 85.66C22.47 84.82 23.65 83.46 24.13 81.7C24.55 80.16 24.63 80.24 22.63 80.24L20.88 80.24L20.78 80.78C20.66 81.39 19.9 82.29 19.22 82.62C18.05 83.2 16.32 82.68 15.61 81.53C15.25 80.95 15.22 80.74 15.22 78.81L15.22 76.71L24.44 76.71L33.65 76.71L34.07 76.31C34.62 75.78 34.76 75.05 34.43 74.43C34.09 73.79 33.63 73.54 32.61 73.44C30.92 73.26 29.5 72.31 28.82 70.89C28.5 70.24 28.47 69.85 28.38 65.13C28.28 59.64 28.24 59.37 27.27 57.53C25.86 54.86 23.1 52.75 20.16 52.09C18.61 51.74 15.89 51.8 14.42 52.21Z" />
	</g>
	<g id="Layer" style="opacity: 0.102">
		<path id="Layer" fill-rule="evenodd" class="shp0" d="M279.24 75.87L284.8 75.86L285.17 76.26C285.64 76.75 285.77 77.44 285.59 78.52C285.52 78.99 285.51 79.37 285.58 79.37C285.64 79.37 286.81 78.84 288.18 78.19C290.61 77.05 290.7 77.02 291.82 77.02C293.79 77.02 295.26 77.97 296.1 79.79C296.52 80.69 296.57 80.95 296.57 82.03C296.57 83.04 296.5 83.42 296.17 84.17C295.42 85.88 295.22 86.01 287.8 89.5L281.13 92.64L277.47 92.64C274.63 92.64 273.61 92.59 272.95 92.41C272.03 92.15 270.8 91.48 270.03 90.82L269.56 90.41L268.99 90.98C268.25 91.73 267.29 92.03 265.68 92.03C263.99 92.03 263.08 91.73 262.29 90.89C261.36 89.91 261.21 89.22 261.21 85.82L261.21 83.03L264.24 83.03L264.24 85.75C264.24 87.65 264.29 88.52 264.41 88.64C264.52 88.76 265.02 88.83 265.68 88.83C266.34 88.83 266.84 88.76 266.95 88.64C267.07 88.51 267.12 87.33 267.12 84.31C267.12 80.73 267.09 80.12 266.89 79.91C266.7 79.71 266.23 79.67 264 79.67L261.32 79.67L261.41 79.19C261.64 77.99 262.72 76.92 264.01 76.61C264.44 76.51 265.36 76.46 266.13 76.5C267.64 76.57 268.32 76.83 269.06 77.62L269.51 78.1L270.3 77.49C271.17 76.82 272.05 76.36 273.03 76.07C273.49 75.94 275.27 75.88 279.24 75.87ZM282.26 79.06L278.4 79.08C276.28 79.09 274.29 79.15 274 79.23C273.16 79.44 272.34 79.94 271.67 80.64C269.27 83.18 270.02 87.41 273.14 88.95C273.94 89.35 274.05 89.36 277.05 89.41L280.14 89.46L286.54 86.45C292.12 83.82 292.97 83.38 293.21 82.97C293.88 81.8 293.1 80.28 291.84 80.28C291.64 80.28 288.96 81.45 285.89 82.89C282.66 84.39 279.9 85.58 279.36 85.71C278.85 85.83 277.86 85.92 277.17 85.93L275.91 85.93L275.91 82.57L277.25 82.57C278.8 82.57 279.56 82.34 280.54 81.58C281.22 81.06 281.97 80.04 282.16 79.41L282.26 79.06Z" />
		<path id="Layer" class="shp0" d="M287.92 54.16C287.88 54.28 287.76 54.36 287.64 54.36L285.03 54.36C284.77 54.36 284.63 54.68 284.77 54.9C285.12 55.4 285.36 55.98 285.5 56.62C285.53 56.77 285.66 56.87 285.8 56.87L288.12 56.87C288.32 56.87 288.47 57.07 288.4 57.27L287.92 58.67C287.88 58.79 287.76 58.88 287.64 58.88L285.86 58.88C285.71 58.88 285.58 58.99 285.56 59.14C285.33 60.51 284.65 61.56 283.5 62.27C282.42 62.95 280.97 63.32 279.15 63.4C278.88 63.41 278.75 63.74 278.94 63.93L285.71 70.64C285.73 70.66 285.74 70.69 285.74 70.71C285.74 70.77 285.69 70.82 285.63 70.82L282.5 70.82C282.42 70.82 282.34 70.79 282.28 70.73L274.59 63.08C274.53 63.03 274.5 62.95 274.5 62.87L274.49 61.71C274.49 61.55 274.62 61.41 274.79 61.41L278.18 61.41C279.42 61.4 280.43 61.18 281.2 60.73C281.84 60.35 282.29 59.85 282.54 59.25C282.62 59.06 282.48 58.88 282.28 58.88L274.49 58.88C274.28 58.88 274.14 58.67 274.21 58.48L274.68 57.08C274.73 56.95 274.84 56.87 274.97 56.87L282.24 56.87C282.44 56.87 282.58 56.68 282.5 56.49C281.92 55.13 280.51 54.42 278.27 54.36L274.52 54.36C274.32 54.36 274.17 54.16 274.24 53.96L274.73 52.56C274.77 52.44 274.88 52.36 275.01 52.36L288.12 52.36C288.32 52.36 288.47 52.56 288.4 52.75L287.92 54.16Z" />
	</g>
</svg>