<svg width="36" height="33" viewBox="0 0 36 33" fill="none" xmlns="http://www.w3.org/2000/svg">
<g clip-path="url(#clip0)">
<path d="M5.46729 29.5116V23.1167H6.26595V29.5116H5.46729Z" stroke="white" stroke-width="2"/>
<path d="M27.3937 22.7638L27.3936 22.7638L24.8378 25.3196L24.8378 25.3196L23.7902 26.3672C23.1793 26.9781 22.3507 27.3213 21.4868 27.3213H16.393C15.4365 27.3213 14.565 26.585 14.5165 25.5553L14.5165 25.5552C14.4664 24.4918 15.3151 23.6125 16.3688 23.6125H21.5463C22.1136 23.6125 22.5908 23.2088 22.6841 22.674L22.6841 22.6738C22.7073 22.5409 22.7224 22.4048 22.7285 22.2661H20.0404C18.8857 22.2661 17.817 21.7604 16.9407 21.3458C16.9113 21.3319 16.8821 21.318 16.8531 21.3044L27.3937 22.7638ZM27.3937 22.7638C28.5676 21.5897 30.4591 21.5561 31.6742 22.6631L25.6405 28.6969C25.6405 28.6969 25.6405 28.6969 25.6405 28.6969C25.3573 28.98 24.2814 29.8464 23.059 30.5709C22.4535 30.9297 21.8531 31.2287 21.3299 31.4046C20.7691 31.5932 20.4669 31.5818 20.3566 31.545L20.2027 31.4937H20.0404H14.2614L9.97266 29.8244V22.2918M27.3937 22.7638L9.97266 22.2918M9.97266 22.2918L9.9801 22.2042C10.0407 21.4914 10.5442 20.8709 11.2362 20.6711M9.97266 22.2918L16.8531 21.3043C15.8419 20.8267 14.9852 20.4335 14.0073 20.3684L14.0072 20.3684C13.0794 20.3066 12.1478 20.4079 11.2362 20.6711M11.2362 20.6711L10.9588 19.7104M11.2362 20.6711L10.9588 19.7104M10.9588 19.7104C9.86534 20.0261 9.07929 20.9975 8.98374 22.119L17.2799 20.4C16.2913 19.933 15.269 19.4501 14.0737 19.3706C13.0281 19.3009 11.9802 19.4154 10.9588 19.7104ZM31.7798 22.5576L31.7795 22.5579C31.7796 22.5578 31.7797 22.5577 31.7798 22.5576Z" stroke="white" stroke-width="2"/>
<path d="M26.9086 10.9135C26.9086 14.2991 24.1641 17.0436 20.7785 17.0436C17.393 17.0436 14.6484 14.2991 14.6484 10.9135C14.6484 7.52797 17.393 4.78345 20.7785 4.78345C24.1641 4.78345 26.9086 7.52797 26.9086 10.9135Z" stroke="white" stroke-width="1.5"/>
<path d="M20.8261 15L19 11.7647V11.3333H19.2126C19.7279 11.3333 20.1208 11.2582 20.3913 11.1078C20.6683 10.9575 20.8293 10.6863 20.8744 10.2941H19V9.66667H20.8647C20.8003 9.30065 20.6296 9.03595 20.3527 8.87255C20.0821 8.70915 19.7021 8.62745 19.2126 8.62745H19V8H23V8.62745H21.1739C21.4831 8.88235 21.6667 9.22876 21.7246 9.66667H23V10.2941H21.744C21.6989 10.7712 21.5185 11.1438 21.2029 11.4118C20.8937 11.6732 20.4815 11.8399 19.9662 11.9118L21.8116 15H20.8261Z" fill="white"/>
</g>
<defs>
<clipPath id="clip0">
<rect width="36" height="36" fill="white" transform="translate(-0.675781 -3.50635)"/>
</clipPath>
</defs>
</svg>
