<svg width="50" height="58" viewBox="0 0 50 58" fill="none" xmlns="http://www.w3.org/2000/svg">
<ellipse cx="24.2144" cy="21.4633" rx="21.2144" ry="21.2882" fill="#005365" fill-opacity="0.06"/>
<path fill-rule="evenodd" clip-rule="evenodd" d="M20.3989 22.1483C19.7057 22.3433 19.0786 22.6554 18.4591 23.1138L17.902 23.526L17.5785 23.198C17.0497 22.6615 16.5665 22.4847 15.4928 22.4345C14.9487 22.409 14.2951 22.4428 13.9896 22.5121C13.07 22.7209 12.3029 23.4511 12.141 24.2717L12.0768 24.5974H13.9772C15.5682 24.5974 15.9038 24.624 16.0386 24.7606C16.1769 24.9011 16.1995 25.3197 16.1995 27.7528C16.1995 29.8146 16.1662 30.6156 16.0766 30.7065C16.0025 30.7816 15.6441 30.8312 15.1752 30.8312C14.7063 30.8312 14.3479 30.7816 14.2739 30.7065C14.1875 30.6189 14.1509 30.0323 14.1509 28.7325V26.8831H13.0755H12V28.7863C12 31.0957 12.1043 31.5658 12.7655 32.2365C13.3258 32.8049 13.9717 33.013 15.1752 33.013C16.3186 33.013 17.0054 32.8049 17.5289 32.2996L17.9369 31.906L18.2717 32.1849C18.8159 32.6384 19.6903 33.0953 20.3436 33.2676C20.8174 33.3925 21.5375 33.4286 23.5576 33.4286H26.161L30.9079 31.288C36.1787 28.9111 36.3252 28.8217 36.8563 27.6596C37.0903 27.1473 37.1404 26.8935 37.1427 26.2056C37.1453 25.4695 37.1062 25.291 36.8076 24.6758C36.2079 23.4401 35.1632 22.7937 33.7656 22.7936C32.9659 22.7935 32.9035 22.8128 31.177 23.5916C30.204 24.0304 29.3698 24.3896 29.3233 24.3896C29.2767 24.3896 29.2827 24.1309 29.3363 23.8148C29.4619 23.0754 29.3719 22.6106 29.0375 22.2714L28.7699 22L24.8149 22.0092C21.9943 22.0159 20.7276 22.0558 20.3989 22.1483ZM26.8958 24.4156C26.7624 24.8483 26.2238 25.5403 25.7422 25.8981C25.0447 26.4162 24.5054 26.5714 23.4023 26.5714H22.4475V27.7143V28.8571L23.3437 28.8554C23.8367 28.8543 24.5395 28.7876 24.9057 28.7071C25.2903 28.6224 27.2495 27.8116 29.5455 26.7868C31.7313 25.8112 33.6349 25.013 33.7757 25.013C34.676 25.013 35.2272 26.0463 34.7501 26.8399C34.5821 27.1193 33.9745 27.4232 30.0087 29.2112L25.46 31.262L23.2624 31.2284C21.1287 31.1957 21.0477 31.1867 20.4813 30.9174C18.2629 29.8626 17.7319 26.9856 19.4363 25.2566C19.9091 24.7771 20.4931 24.4372 21.0887 24.2949C21.3009 24.2442 22.7105 24.198 24.2212 24.1922L26.968 24.1818L26.8958 24.4156Z" fill="#5D5D5D"/>
<path d="M27.6964 10.7849C27.6517 10.9005 27.5405 10.9766 27.4166 10.9766H26.4337C26.1629 10.9766 26.0093 11.3317 26.1338 11.5722C26.1973 11.695 26.2494 11.8243 26.2902 11.9601C26.3315 12.0978 26.4529 12.2005 26.5967 12.2005H27.5623C27.7731 12.2005 27.9181 12.4122 27.8421 12.6088L27.6964 12.9854C27.6517 13.101 27.5405 13.1772 27.4166 13.1772H26.6361C26.4859 13.1772 26.361 13.289 26.3254 13.435C26.1777 14.0414 25.8078 14.5077 25.2156 14.8338C24.6998 15.1178 24.0298 15.2931 23.2057 15.3596C22.9294 15.3819 22.8002 15.7338 23.0089 15.9161L26.4384 18.9106C26.4495 18.9203 26.4559 18.9343 26.4559 18.949V18.949C26.4559 18.9772 26.433 19 26.4049 19H24.7042C24.6315 19 24.5612 18.9736 24.5065 18.9256L20.3391 15.2745C20.2749 15.2183 20.2377 15.1374 20.2368 15.052L20.2332 14.7167C20.2314 14.5497 20.3663 14.4135 20.5332 14.4135H22.2752C22.9596 14.4093 23.5154 14.2981 23.9425 14.0797C24.2227 13.9337 24.4357 13.754 24.5816 13.5406C24.6952 13.3744 24.5525 13.1772 24.3512 13.1772H20.4377C20.2269 13.1772 20.0819 12.9655 20.1579 12.769L20.3036 12.3923C20.3483 12.2767 20.4595 12.2005 20.5834 12.2005H24.3221C24.5271 12.2005 24.6707 11.9969 24.5543 11.8281C24.1819 11.2877 23.4386 11.0039 22.3244 10.9766H20.4576C20.2459 10.9766 20.1008 10.7633 20.1786 10.5664L20.3275 10.1897C20.3727 10.0752 20.4834 10 20.6065 10H27.5623C27.7731 10 27.9181 10.2117 27.8421 10.4082L27.6964 10.7849Z" fill="#5D5D5D"/>
<g opacity="0.3" filter="url(#filter0_f)">
<ellipse cx="24.6909" cy="51.7398" rx="20.5017" ry="1.43533" fill="black"/>
</g>
<defs>
<filter id="filter0_f" x="0.189209" y="46.3044" width="49.0034" height="10.8707" filterUnits="userSpaceOnUse" color-interpolation-filters="sRGB">
<feFlood flood-opacity="0" result="BackgroundImageFix"/>
<feBlend mode="normal" in="SourceGraphic" in2="BackgroundImageFix" result="shape"/>
<feGaussianBlur stdDeviation="2" result="effect1_foregroundBlur"/>
</filter>
</defs>
</svg>
