<svg width="12" height="14" viewBox="0 0 12 14" fill="none" xmlns="http://www.w3.org/2000/svg">
<path d="M5.65385 0C3.70539 0 2.12019 1.5701 2.12019 3.5V5.6H1.41346C1.03859 5.6 0.679069 5.7475 0.413993 6.01005C0.148918 6.2726 0 6.6287 0 7V12.6C0 12.9713 0.148918 13.3274 0.413993 13.5899C0.679069 13.8525 1.03859 14 1.41346 14H9.89423C10.2691 14 10.6286 13.8525 10.8937 13.5899C11.1588 13.3274 11.3077 12.9713 11.3077 12.6V7C11.3077 6.6287 11.1588 6.2726 10.8937 6.01005C10.6286 5.7475 10.2691 5.6 9.89423 5.6H9.1875V3.5C9.1875 1.5701 7.6023 0 5.65385 0ZM3.53365 3.5C3.53365 2.3422 4.48491 1.4 5.65385 1.4C6.82278 1.4 7.77404 2.3422 7.77404 3.5V5.6H3.53365V3.5ZM6.36058 11.0061V12.6H4.94712V11.0061C4.70003 10.866 4.50163 10.6549 4.37808 10.4008C4.25452 10.1468 4.21161 9.86156 4.255 9.58284C4.2984 9.30412 4.42605 9.04496 4.62115 8.83955C4.81624 8.63414 5.0696 8.49211 5.34783 8.4322C5.55449 8.38694 5.76877 8.3882 5.97488 8.4359C6.18098 8.48359 6.37364 8.5765 6.53866 8.70777C6.70368 8.83904 6.83685 9.00532 6.92835 9.19436C7.01984 9.3834 7.06733 9.59036 7.06731 9.8C7.0669 10.0448 7.00136 10.2852 6.87729 10.497C6.75322 10.7087 6.57499 10.8843 6.36058 11.0061Z" fill="#005365"/>
</svg>
