<svg width="127" height="124" viewBox="0 0 127 124" fill="none" xmlns="http://www.w3.org/2000/svg">
<rect x="115" y="3" width="8" height="10" fill="black"/>
<path d="M119 15.5C114.858 15.5 111.5 12.142 111.5 8C111.5 3.858 114.858 0.5 119 0.5C123.142 0.5 126.5 3.858 126.5 8C126.5 12.142 123.142 15.5 119 15.5ZM119 3.75L115 7.57625H117.714V12.25H120.285V7.57625H123L119 3.75Z" fill="#FCD833"/>
<g opacity="0.4" filter="url(#filter0_f)">
<ellipse cx="60.5" cy="84" rx="50.5" ry="2" fill="black"/>
</g>
<path d="M124 62C124 45.5566 117.468 29.7866 105.841 18.1594C94.2134 6.53213 78.4434 1.24144e-06 62 0C45.5566 -1.24144e-06 29.7866 6.53212 18.1594 18.1594C6.53213 29.7866 2.48289e-06 45.5566 0 62H20.8324C20.8324 51.0817 25.1697 40.6105 32.8901 32.8901C40.6105 25.1697 51.0817 20.8324 62 20.8324C72.9183 20.8324 83.3895 25.1697 91.1099 32.8901C98.8303 40.6105 103.168 51.0817 103.168 62H124Z" fill="#FD4036"/>
<path d="M124 62C124 48.6123 119.667 35.5842 111.648 24.8637C103.629 14.1433 92.3554 6.30636 79.5129 2.5248C66.6703 -1.25677 52.9488 -0.779821 40.3998 3.88433C27.8508 8.54847 17.1487 17.1492 9.89356 28.4006L27.4017 39.6902C32.219 32.2194 39.3252 26.5085 47.6576 23.4116C55.99 20.3146 65.1011 19.9979 73.6284 22.5089C82.1558 25.0198 89.6413 30.2235 94.9658 37.3418C100.29 44.4601 103.168 53.1107 103.168 62H124Z" fill="#FEB52E"/>
<path d="M124 62C124 52.1 121.629 42.344 117.086 33.548C112.543 24.752 105.96 17.1719 97.8866 11.4416C89.8136 5.71133 80.4857 1.99761 70.6833 0.611079C60.8809 -0.77545 50.889 0.205535 41.5435 3.47197L48.417 23.1378C54.6224 20.9689 61.257 20.3175 67.7657 21.2382C74.2744 22.1588 80.468 24.6247 85.8285 28.4296C91.1889 32.2344 95.5602 37.2676 98.5768 43.1081C101.593 48.9485 103.168 55.4265 103.168 62H124Z" fill="#FFE83B"/>
<path d="M124 62C124 49.6512 120.312 37.5836 113.41 27.3441C106.507 17.1045 96.7041 9.15951 85.257 4.5273L77.4425 23.8385C85.0433 26.9143 91.5525 32.1897 96.1358 38.9887C100.719 45.7877 103.168 53.8004 103.168 62H124Z" fill="#85C22D"/>
<path d="M124 62C124 49.7246 120.356 37.7254 113.53 27.5229L96.2155 39.1075C100.748 45.8818 103.168 53.8492 103.168 62H124Z" fill="#18B734"/>
<path fill-rule="evenodd" clip-rule="evenodd" d="M63.305 62.0559L95.5732 32.2699L59.9672 56.2927L59.9653 56.2897C59.6254 56.503 59.3345 56.7871 59.1093 57.1258C58.8841 57.4645 58.7289 57.8511 58.6528 58.2636C58.5766 58.6761 58.5808 59.1064 58.6652 59.5299C58.7497 59.9534 58.9126 60.3619 59.1448 60.7319C59.377 61.102 59.6739 61.4264 60.0185 61.6866C60.3631 61.9469 60.7487 62.1379 61.1533 62.2487C61.5579 62.3595 61.9735 62.388 62.3764 62.3326C62.7647 62.2791 63.1218 62.1362 63.2904 62.0316L63.305 62.0559Z" fill="white"/>
<defs>
<filter id="filter0_f" x="6" y="78" width="109" height="12" filterUnits="userSpaceOnUse" color-interpolation-filters="sRGB">
<feFlood flood-opacity="0" result="BackgroundImageFix"/>
<feBlend mode="normal" in="SourceGraphic" in2="BackgroundImageFix" result="shape"/>
<feGaussianBlur stdDeviation="2" result="effect1_foregroundBlur"/>
</filter>
</defs>
</svg>
