<svg version="1.2" baseProfile="tiny-ps" xmlns="http://www.w3.org/2000/svg" viewBox="0 0 308 154" width="308" height="154">
	<title>meter-image-new-svg</title>
	<style>
		tspan { white-space:pre }
		.shp0 { fill: #feb3af } 
		.shp1 { fill: #ffe1ab } 
		.shp2 { fill: #fff6b1 } 
		.shp3 { fill: #98d35a } 
		.shp4 { fill: #88c746 } 
		.shp5 { fill: #ffffff } 
	</style>
	<path id="Layer" class="shp0" d="M308 154C308 113.16 291.77 73.99 262.89 45.11C234.01 16.23 194.84 0 154 0C113.16 0 73.99 16.22 45.11 45.11C16.23 73.99 0 113.16 0 154L30.8 154C30.8 121.33 43.78 89.99 66.88 66.88C89.99 43.78 121.33 30.8 154 30.8C186.68 30.8 218.01 43.78 241.12 66.88C264.22 89.99 277.2 121.33 277.2 154L308 154Z" />
	<path id="Layer" class="shp1" d="M308 154C308 120.75 297.24 88.39 277.32 61.76C257.4 35.13 229.4 15.66 197.5 6.27C165.6 -3.12 131.52 -1.94 100.35 9.65C69.18 21.23 42.6 42.6 24.57 70.54L50.46 87.23C64.88 64.88 86.14 47.79 111.08 38.52C136.01 29.25 163.28 28.3 188.8 35.82C214.32 43.33 236.72 58.9 252.66 80.21C268.59 101.51 277.2 127.4 277.2 154L308 154Z" />
	<path id="Layer" class="shp2" d="M308 154C308 130.04 302.41 106.41 291.67 84.99C280.94 63.58 265.35 44.96 246.16 30.62C226.96 16.28 204.69 6.62 181.1 2.4C157.52 -1.81 133.27 -0.47 110.3 6.33L119.04 35.86C137.42 30.43 156.81 29.35 175.68 32.72C194.55 36.1 212.37 43.83 227.73 55.3C243.08 66.77 255.55 81.66 264.14 98.8C272.73 115.93 277.2 134.83 277.2 154L308 154Z" />
	<path id="Layer" class="shp3" d="M308 154C308 120.97 297.38 88.82 277.72 62.29C258.05 35.76 230.38 16.26 198.78 6.65L189.82 36.12C215.1 43.8 237.24 59.41 252.97 80.63C268.71 101.86 277.2 127.58 277.2 154L308 154Z" />
	<path id="Layer" class="shp4" d="M308 154C308 123.51 298.95 93.7 281.99 68.36L256.39 85.49C269.96 105.76 277.2 129.61 277.2 154L308 154Z" />
	<path id="Layer" fill-rule="evenodd" class="shp5" d="M154.63 102.46L181.15 44.15L146.88 96.6L146.88 96.6C146.54 97.08 146.31 97.63 146.2 98.21C146.09 98.79 146.1 99.4 146.23 100C146.36 100.59 146.61 101.17 146.96 101.69C147.31 102.21 147.76 102.67 148.29 103.04C148.81 103.4 149.39 103.67 150 103.83C150.61 103.98 151.24 104.02 151.84 103.94C152.45 103.86 153.03 103.66 153.54 103.36C154.03 103.07 154.43 102.67 154.6 102.44L154.63 102.46Z" />
</svg>