<svg width="38" height="37" viewBox="0 0 38 37" fill="none" xmlns="http://www.w3.org/2000/svg">
<path fill-rule="evenodd" clip-rule="evenodd" d="M20.9893 0.349519C20.2321 0.729654 19.7033 1.3257 19.4239 2.11457C19.1599 2.85953 19.1615 8.62278 19.4259 9.37741C19.8276 10.524 20.7309 11.3079 21.8599 11.4897C22.3969 11.5762 22.5095 11.5238 24.6599 10.1874L24.9174 10.0273C25.5116 9.65803 25.2662 8.74239 24.5669 8.71986C23.2836 8.6785 22.2185 8.63312 22.2003 8.61915C22.182 8.60505 22.1669 7.33118 22.1669 5.78822C22.1669 3.35394 22.1948 2.97206 22.3779 2.90129C22.4939 2.85645 25.3319 2.81979 28.6845 2.81979C33.2479 2.81979 34.8205 2.86034 34.9403 2.98092C35.1663 3.20852 35.1663 8.33919 34.9403 8.56678C34.842 8.66575 34.3611 8.72791 33.6937 8.72791C32.9838 8.72791 32.2882 8.92751 31.6862 9.30392L29.3537 10.7625C27.5644 11.8815 25.9052 12.9148 25.6669 13.0584C25.4287 13.2022 25.2336 13.3508 25.2336 13.3886C25.2336 13.4962 26.5691 15.6957 26.6736 15.7605C26.7249 15.7922 28.2969 14.8575 30.1669 13.6831L32.7765 12.0443C33.2931 11.7199 33.8903 11.5469 34.5003 11.5449C36.0323 11.5398 37.0057 10.9683 37.5833 9.73498C37.886 9.08844 37.8977 8.94517 37.8989 5.85657C37.8997 3.83813 37.8439 2.45993 37.7481 2.13794C37.5275 1.39647 36.8847 0.68306 36.1097 0.31971C35.6644 0.110918 35.1787 0.00263571 34.6869 0.00253964L28.5597 0.00134279L22.4654 0.000152262C21.9529 5.21394e-05 21.4474 0.119687 20.9893 0.349519ZM7.11987 10.1977C3.00613 11.728 1.60827 16.5397 4.23173 20.1388L4.29771 20.2293C4.51602 20.5288 4.44092 20.9498 4.13253 21.1554C2.508 22.2381 1.076 24.1253 0.483467 25.9647C0.220133 26.7819 0.1152 27.4365 0.0658666 28.5671L0.061718 28.6623C0.0280759 29.4338 0.644511 30.0777 1.4168 30.0777H2.06151C2.48829 30.0777 2.83461 29.7324 2.83587 29.3057C2.84133 27.5041 3.45147 25.8501 4.5448 24.6723C5.8436 23.2736 7.02307 22.7359 9.21747 22.5426C10.1461 22.4608 10.8677 22.3123 11.4111 22.0913C11.8563 21.9102 12.2301 21.7751 12.2416 21.7909C12.2531 21.8068 12.4229 22.1459 12.6191 22.5446C12.8152 22.9431 13.1519 23.4934 13.3672 23.7672C13.5795 24.0371 13.5205 24.4301 13.2383 24.6258L13.0224 24.7756C11.3045 25.9672 9.8088 28.1235 9.3016 30.1395C9.00347 31.3249 9.0316 34.0081 9.34974 34.7132C9.66867 35.4203 10.3508 36.0953 11.0988 36.444C11.6829 36.7163 11.8892 36.7244 18.2336 36.7244C24.578 36.7244 24.7843 36.7163 25.3684 36.444C26.1369 36.0858 26.8025 35.4141 27.1515 34.6446C27.3801 34.1402 27.4236 33.7902 27.4105 32.553C27.4015 31.688 27.3052 30.706 27.1803 30.2032C26.9131 29.1281 26.0543 27.3635 25.4555 26.6593C25.2049 26.3648 24.7641 26.3263 24.4664 26.5732L24.3519 26.6681C23.9935 26.9652 23.4903 27.3509 23.2336 27.5253C22.9769 27.6997 22.7448 27.8591 22.7177 27.8794C22.6907 27.8998 22.8855 28.1716 23.1504 28.4835C24.0577 29.5508 24.5627 30.9909 24.5653 32.5187C24.5665 33.1565 24.5064 33.4764 24.3575 33.6265C24.1732 33.8119 23.4324 33.8375 18.2336 33.8375C13.0348 33.8375 12.294 33.8119 12.1097 33.6265C11.6699 33.1834 11.9344 30.9341 12.5869 29.5694C12.9263 28.8597 14.0111 27.6475 14.7895 27.1081C15.6411 26.518 16.7241 26.1868 18.2517 26.0497C20.5055 25.8472 22.0681 25.0919 23.1109 23.7011C25.8301 20.0739 24.3845 15.127 20.1893 13.7038C19.0075 13.3028 17.3332 13.3267 16.1076 13.7623C15.5983 13.9432 15.1705 14.0779 15.1569 14.0616C15.1435 14.0452 14.9673 13.7012 14.7657 13.297C14.2427 12.2488 12.9689 11.0192 11.8336 10.4664C10.9637 10.0427 10.796 10.0092 9.36694 9.97198C8.1012 9.93908 7.70907 9.97856 7.11987 10.1977ZM10.6432 13.1323C12.7059 14.2025 13.1893 16.8997 11.6119 18.5366C10.8967 19.2786 10.1605 19.5983 9.16694 19.5983C6.87534 19.5983 5.25934 17.3805 5.92374 15.1472C6.20094 14.2156 7.23627 13.2248 8.29947 12.8737C8.82934 12.6987 10.0716 12.8358 10.6432 13.1323ZM19.4007 16.5151C22.1747 17.5603 22.3855 21.4205 19.7409 22.7476C16.9141 24.1663 13.8117 21.1788 15.1519 18.3286C15.5536 17.4744 16.2107 16.8457 17.0444 16.5178C17.8921 16.1844 18.5213 16.1837 19.4007 16.5151Z" fill="white"/>
</svg>
