<svg width="83" height="78" viewBox="0 0 83 78" fill="none" xmlns="http://www.w3.org/2000/svg">
<path fill-rule="evenodd" clip-rule="evenodd" d="M81.997 36H82.997C82.999 36.1664 83 36.3331 83 36.5C83 37.2813 82.9784 38.0575 82.9358 38.8282L82.4366 38.8006L81.9373 38.773C81.9789 38.0207 82 37.2629 82 36.5C82 36.3331 81.999 36.1664 81.997 36ZM1.00302 36C1.00101 36.1664 1 36.3331 1 36.5C1 37.2629 1.02108 38.0207 1.06268 38.773L0.563444 38.8006L0.0642063 38.8282C0.0215901 38.0575 0 37.2813 0 36.5C0 36.3331 0.000985222 36.1664 0.00295017 36H1.00302ZM1.07326 43.3717L0.580231 43.4549C0.840656 44.9983 1.18628 46.5128 1.61211 47.9933L2.09263 47.8551L2.57315 47.7169C2.15767 46.2724 1.82042 44.7946 1.56629 43.2885L1.07326 43.3717ZM3.6109 52.1942L3.14904 52.3857C3.74619 53.8257 4.42209 55.2248 5.17136 56.5777L5.60875 56.3354L6.04615 56.0932C5.31497 54.773 4.65543 53.4077 4.07276 52.0026L3.6109 52.1942ZM8.05884 60.2268L7.6513 60.5165C8.55183 61.7834 9.52171 62.9976 10.5554 64.1535L10.9281 63.8202L11.3008 63.4869C10.2919 62.3587 9.34527 61.1736 8.46637 59.9371L8.05884 60.2268ZM14.1798 67.0719L13.8465 67.4446C15.0024 68.4783 16.2166 69.4482 17.4835 70.3487L17.7732 69.9412L18.0629 69.5336C16.8264 68.6547 15.6413 67.7081 14.5131 66.6992L14.1798 67.0719ZM21.6646 72.3912L21.4223 72.8286C22.7752 73.5779 24.1743 74.2538 25.6143 74.851L25.8058 74.3891L25.9974 73.9272C24.5923 73.3446 23.227 72.685 21.9068 71.9538L21.6646 72.3912ZM30.1449 75.9074L30.0067 76.3879C31.4872 76.8137 33.0017 77.1593 34.5451 77.4198L34.6283 76.9267L34.7115 76.4337C33.2054 76.1796 31.7276 75.8423 30.2831 75.4268L30.1449 75.9074ZM39.1994 77.4366L39.1718 77.9358C39.9425 77.9784 40.7187 78 41.5 78C42.2813 78 43.0575 77.9784 43.8282 77.9358L43.8006 77.4366L43.773 76.9373C43.0207 76.9789 42.2629 77 41.5 77C40.7371 77 39.9793 76.9789 39.227 76.9373L39.1994 77.4366ZM48.3717 76.9267L48.4549 77.4198C49.9983 77.1593 51.5128 76.8137 52.9933 76.3879L52.8551 75.9074L52.7169 75.4269C51.2724 75.8423 49.7946 76.1796 48.2885 76.4337L48.3717 76.9267ZM57.1942 74.3891L57.3857 74.851C58.8257 74.2538 60.2248 73.5779 61.5777 72.8286L61.3354 72.3912L61.0932 71.9539C59.773 72.685 58.4077 73.3446 57.0026 73.9272L57.1942 74.3891ZM65.2268 69.9412L65.5165 70.3487C66.7834 69.4482 67.9976 68.4783 69.1535 67.4446L68.8202 67.0719L68.4869 66.6992C67.3587 67.7081 66.1736 68.6547 64.9371 69.5336L65.2268 69.9412ZM72.0719 63.8202L72.4446 64.1535C73.4783 62.9976 74.4482 61.7834 75.3487 60.5165L74.9412 60.2268L74.5336 59.9371C73.6547 61.1736 72.7081 62.3587 71.6992 63.4869L72.0719 63.8202ZM77.3912 56.3354L77.8286 56.5777C78.5779 55.2248 79.2538 53.8257 79.851 52.3857L79.3891 52.1942L78.9272 52.0026C78.3446 53.4077 77.685 54.773 76.9538 56.0932L77.3912 56.3354ZM80.9074 47.8551L81.3879 47.9933C81.8137 46.5128 82.1593 44.9983 82.4198 43.4549L81.9267 43.3717L81.4337 43.2885C81.1796 44.7946 80.8423 46.2724 80.4268 47.7169L80.9074 47.8551Z" fill="#3EA3CE"/>
<circle cx="41.5" cy="35.5" r="35.5" fill="#9FD1E7"/>
<circle cx="41.5" cy="35.5" r="31.5" fill="#3EA3CE"/>
<path fill-rule="evenodd" clip-rule="evenodd" d="M38.631 18.2154C33.1876 19.1163 28.4667 21.8704 25.2153 26.0421C22.7464 29.2095 21.2745 33.0672 21.0404 36.9845C20.9255 38.9057 21.016 39.2144 21.8362 39.6977C22.312 39.978 22.6771 39.9989 27.1201 39.9994L31.8929 40V38.2946V36.5891H28.1889H24.4849L24.5931 35.9302C25.0581 33.1017 26.1512 30.5472 27.8863 28.2353L28.3961 27.5557L30.3056 29.3962L32.215 31.2365L33.4558 30.0375L34.6966 28.8384L32.7923 26.9931L30.8878 25.1478L31.591 24.6551C33.9835 22.9782 36.6931 21.894 39.5534 21.4692L40.2353 21.368V23.9397V26.5115H42H43.7647V23.9397V21.368L44.4466 21.4706C45.789 21.6726 47.2368 22.063 48.6317 22.5991L50.0494 23.1441L51.3265 21.9208L52.6033 20.6976L50.885 19.8937C48.0564 18.5704 45.2115 17.9751 41.8396 18.0008C40.7366 18.0093 39.2927 18.1058 38.631 18.2154ZM47.9362 29.9996L40.4778 37.2087L41.7205 38.4096L42.9631 39.6104L49.2089 33.5759C54.5505 28.4151 55.4901 27.57 55.6999 27.7384C56.1552 28.1035 57.6213 30.4564 58.1544 31.6779C58.6746 32.8694 59.1932 34.6302 59.4069 35.9302L59.5151 36.5891H55.9716H52.428V38.2946V40L57.0403 39.9994C61.3245 39.9989 61.6891 39.9774 62.1639 39.6977C62.984 39.2144 63.0745 38.9057 62.9596 36.9845C62.6702 32.1432 60.6295 27.6996 57.033 24.0793C56.3288 23.3704 55.6722 22.7906 55.5737 22.7906C55.4752 22.7906 52.0383 26.0346 47.9362 29.9996Z" fill="white"/>
</svg>
