<svg width="20" height="20" viewBox="0 0 20 20" fill="none" xmlns="http://www.w3.org/2000/svg">
<path d="M10 19C5.02353 19 1 14.9765 1 10C1 5.02353 5.02353 1 10 1C14.9765 1 19 5.02353 19 10C19 14.9765 14.9765 19 10 19ZM10 2.05882C5.60588 2.05882 2.05882 5.60588 2.05882 10C2.05882 14.3941 5.60588 17.9412 10 17.9412C14.3941 17.9412 17.9412 14.3941 17.9412 10C17.9412 5.60588 14.3941 2.05882 10 2.05882Z" fill="#FF0000" stroke="#FF0000" stroke-width="0.25"/>
<path d="M12.6183 6.82125C12.7738 6.66575 13.0259 6.66579 13.1813 6.82134C13.3367 6.97682 13.3367 7.2288 13.1812 7.38422L7.38373 13.1814C7.22832 13.3368 6.97637 13.3368 6.82096 13.1814C6.66554 13.026 6.66554 12.774 6.82095 12.6186L12.6183 6.82125Z" fill="#FF0000" stroke="#FF0000"/>
<path d="M6.82086 6.82134C6.97631 6.66579 7.22843 6.66575 7.38392 6.82124L13.1812 12.6182C13.3366 12.7736 13.3367 13.0256 13.1813 13.1811C13.0259 13.3366 12.7738 13.3367 12.6183 13.1812L6.82096 7.38423C6.66553 7.2288 6.66549 6.97682 6.82086 6.82134Z" fill="#FF0000" stroke="#FF0000"/>
</svg>
