<svg width="83" height="78" viewBox="0 0 83 78" fill="none" xmlns="http://www.w3.org/2000/svg">
<path fill-rule="evenodd" clip-rule="evenodd" d="M81.997 36H82.997C82.999 36.1664 83 36.3331 83 36.5C83 37.2813 82.9784 38.0575 82.9358 38.8282L82.4366 38.8006L81.9373 38.773C81.9789 38.0207 82 37.2629 82 36.5C82 36.3331 81.999 36.1664 81.997 36ZM1.00302 36C1.00101 36.1664 1 36.3331 1 36.5C1 37.2629 1.02108 38.0207 1.06268 38.773L0.563444 38.8006L0.0642063 38.8282C0.0215901 38.0575 0 37.2813 0 36.5C0 36.3331 0.000985222 36.1664 0.00295017 36H1.00302ZM1.07326 43.3717L0.580231 43.4549C0.840656 44.9983 1.18628 46.5128 1.61211 47.9933L2.09263 47.8551L2.57315 47.7169C2.15767 46.2724 1.82042 44.7946 1.56629 43.2885L1.07326 43.3717ZM3.6109 52.1942L3.14904 52.3857C3.74619 53.8257 4.42209 55.2248 5.17136 56.5777L5.60875 56.3354L6.04615 56.0932C5.31497 54.773 4.65543 53.4077 4.07276 52.0026L3.6109 52.1942ZM8.05884 60.2268L7.6513 60.5165C8.55183 61.7834 9.52171 62.9976 10.5554 64.1535L10.9281 63.8202L11.3008 63.4869C10.2919 62.3587 9.34527 61.1736 8.46637 59.9371L8.05884 60.2268ZM14.1798 67.0719L13.8465 67.4446C15.0024 68.4783 16.2166 69.4482 17.4835 70.3487L17.7732 69.9412L18.0629 69.5336C16.8264 68.6547 15.6413 67.7081 14.5131 66.6992L14.1798 67.0719ZM21.6646 72.3912L21.4223 72.8286C22.7752 73.5779 24.1743 74.2538 25.6143 74.851L25.8058 74.3891L25.9974 73.9272C24.5923 73.3446 23.227 72.685 21.9068 71.9538L21.6646 72.3912ZM30.1449 75.9074L30.0067 76.3879C31.4872 76.8137 33.0017 77.1593 34.5451 77.4198L34.6283 76.9267L34.7115 76.4337C33.2054 76.1796 31.7276 75.8423 30.2831 75.4268L30.1449 75.9074ZM39.1994 77.4366L39.1718 77.9358C39.9425 77.9784 40.7187 78 41.5 78C42.2813 78 43.0575 77.9784 43.8282 77.9358L43.8006 77.4366L43.773 76.9373C43.0207 76.9789 42.2629 77 41.5 77C40.7371 77 39.9793 76.9789 39.227 76.9373L39.1994 77.4366ZM48.3717 76.9267L48.4549 77.4198C49.9983 77.1593 51.5128 76.8137 52.9933 76.3879L52.8551 75.9074L52.7169 75.4269C51.2724 75.8423 49.7946 76.1796 48.2885 76.4337L48.3717 76.9267ZM57.1942 74.3891L57.3857 74.851C58.8257 74.2538 60.2248 73.5779 61.5777 72.8286L61.3354 72.3912L61.0932 71.9539C59.773 72.685 58.4077 73.3446 57.0026 73.9272L57.1942 74.3891ZM65.2268 69.9412L65.5165 70.3487C66.7834 69.4482 67.9976 68.4783 69.1535 67.4446L68.8202 67.0719L68.4869 66.6992C67.3587 67.7081 66.1736 68.6547 64.9371 69.5336L65.2268 69.9412ZM72.0719 63.8202L72.4446 64.1535C73.4783 62.9976 74.4482 61.7834 75.3487 60.5165L74.9412 60.2268L74.5336 59.9371C73.6547 61.1736 72.7081 62.3587 71.6992 63.4869L72.0719 63.8202ZM77.3912 56.3354L77.8286 56.5777C78.5779 55.2248 79.2538 53.8257 79.851 52.3857L79.3891 52.1942L78.9272 52.0026C78.3446 53.4077 77.685 54.773 76.9538 56.0932L77.3912 56.3354ZM80.9074 47.8551L81.3879 47.9933C81.8137 46.5128 82.1593 44.9983 82.4198 43.4549L81.9267 43.3717L81.4337 43.2885C81.1796 44.7946 80.8423 46.2724 80.4268 47.7169L80.9074 47.8551Z" fill="#3EA3CE"/>
<circle cx="41.5" cy="35.5" r="35.5" fill="#9FD1E7"/>
<circle cx="41.5" cy="35.5" r="31.5" fill="#3EA3CE"/>
<path fill-rule="evenodd" clip-rule="evenodd" d="M33.4327 20.1915C31.1458 20.7395 29.2702 22.5639 28.5605 24.9301C28.3121 25.7586 28.2977 27.6023 28.5328 28.4765C28.7671 29.3474 29.4266 30.534 30.07 31.2426L30.6072 31.8341L29.9514 32.2007C27.5963 33.5172 25.7814 36.0275 25.2202 38.7447C25.0119 39.7536 24.9776 40.3277 25.0113 42.2381C25.0557 44.7528 25.1242 45.0144 25.9971 45.9985C26.6706 46.758 27.5331 47.0775 29.1091 47.1514L30.4813 47.2158V45.8391V44.4623H29.4147C28.4486 44.4623 28.3191 44.4338 28.0417 44.159C27.7408 43.8613 27.7352 43.8179 27.7352 41.7982C27.7352 39.4391 27.8765 38.7027 28.5856 37.3636C29.1634 36.2724 30.5221 34.9013 31.5655 34.3563C32.5502 33.8419 34.0355 33.4652 35.0884 33.4629C38.8161 33.4546 41.8297 30.5027 41.8353 26.8538C41.8384 24.8773 41.2021 23.3184 39.8429 21.9728C38.159 20.3059 35.7495 19.6363 33.4327 20.1915ZM35.9051 22.7755C37.0142 22.9619 38.2517 23.9131 38.7764 24.9827C40.0702 27.6198 38.0757 30.7462 35.0997 30.7462C33.9582 30.7462 33.0516 30.3582 32.2048 29.5071C31.6061 28.9053 31.4514 28.6531 31.2214 27.9031C30.7639 26.412 31.054 25.1537 32.1191 24.0099C32.9024 23.1685 34.421 22.5073 35.2245 22.6577C35.3275 22.6769 35.6338 22.73 35.9051 22.7755ZM50.7647 28.0778C50.3134 28.2909 49.5271 28.9839 47.9242 30.5809L45.7079 32.7893L46.7077 33.7733L47.7074 34.7571L49.08 33.4026L50.4527 32.0479V39.6144V47.1808H51.8881H53.3236V39.6763V32.1717L54.6051 33.4361C55.31 34.1315 55.9433 34.7004 56.0125 34.7004C56.0816 34.7004 56.5572 34.283 57.0691 33.7728L58 32.845L55.6929 30.547C54.2786 29.1382 53.1928 28.1594 52.8867 28.0176C52.2113 27.7043 51.5134 27.7241 50.7647 28.0778ZM44.8357 42.6706V47.1808H46.2712H47.7066V42.6706V38.1603H46.2712H44.8357V42.6706ZM39.2188 44.7712V47.1808H40.5918H41.9648V44.7712V42.3617H40.5918H39.2188V44.7712ZM33.8515 45.8216V47.1808H35.2245H36.5975V45.8216V44.4623H35.2245H33.8515V45.8216ZM33.477 50.7025V52H43.3379H53.1988V50.7025V49.4051H43.3379H33.477V50.7025Z" fill="white"/>
</svg>
