<svg width="117" height="27" viewBox="0 0 117 27" fill="none" xmlns="http://www.w3.org/2000/svg">
<path d="M38.2549 3.46447C38.2549 4.28322 38.006 4.93521 37.5076 5.42158C36.9414 5.99991 36.2036 6.2893 35.2965 6.2893C34.4279 6.2893 33.6893 5.99614 33.082 5.40897C32.4736 4.82225 32.1699 4.09467 32.1699 3.2266C32.1699 2.35813 32.4736 1.63099 33.082 1.04378C33.6893 0.457102 34.4279 0.163498 35.2965 0.163498C35.7276 0.163498 36.1402 0.245628 36.532 0.409405C36.9238 0.573577 37.238 0.791507 37.4732 1.06442L36.9441 1.58013C36.5457 1.11634 35.9972 0.884617 35.2965 0.884617C34.6631 0.884617 34.1153 1.10149 33.6529 1.53551C33.1905 1.96996 32.9594 2.53337 32.9594 3.2266C32.9594 3.91987 33.1905 4.48323 33.6529 4.91773C34.1153 5.35174 34.663 5.56858 35.2965 5.56858C35.9686 5.56858 36.5289 5.35056 36.9775 4.91391C37.2687 4.62944 37.437 4.23403 37.4821 3.72627H35.2965V3.02197H38.2129C38.2411 3.17512 38.2548 3.32208 38.2548 3.46447" fill="white"/>
<path d="M38.2536 3.4636H38.1532C38.1524 4.26369 37.9126 4.88511 37.4353 5.35163L37.4343 5.35242L37.4338 5.35321C36.8857 5.9116 36.1811 6.18953 35.2952 6.19071C34.4497 6.18953 33.7421 5.90857 33.1512 5.33902C32.5616 4.76833 32.27 4.07163 32.2689 3.22573C32.27 2.37944 32.5616 1.68314 33.1512 1.11284C33.7421 0.542891 34.4497 0.261541 35.2952 0.260355C35.7133 0.260355 36.1114 0.33985 36.491 0.498225C36.8711 0.657829 37.1713 0.866975 37.395 1.12663L37.4718 1.06356L37.4009 0.994475L36.8719 1.51053L36.9428 1.57927L37.02 1.51673C36.6031 1.02996 36.0178 0.784582 35.2952 0.786031C34.6382 0.785241 34.0603 1.01398 33.5822 1.46446C33.0995 1.9164 32.857 2.51151 32.8578 3.22573C32.857 3.94 33.0995 4.53507 33.5822 4.98705C34.0603 5.43753 34.6382 5.66622 35.2952 5.66543C35.9895 5.66662 36.5812 5.43714 37.047 4.98213C37.3581 4.6782 37.5345 4.25723 37.5807 3.7338L37.5901 3.62769H35.3955V3.11883H38.2116V3.02111L38.1128 3.03828C38.1402 3.18647 38.1532 3.32728 38.1532 3.4636H38.3538C38.3538 3.31507 38.3397 3.1624 38.3103 3.00363L38.2954 2.92339H35.1949V3.82313H37.4808V3.72541L37.3809 3.71702C37.3366 4.20875 37.1759 4.57903 36.9052 4.844C36.4742 5.26234 35.9453 5.4688 35.2952 5.46999C34.6852 5.4692 34.1676 5.26458 33.7213 4.84659C33.2794 4.4301 33.0595 3.89836 33.0584 3.22573C33.0595 2.5531 33.2794 2.02136 33.7213 1.60487C34.1676 1.18689 34.6852 0.982265 35.2952 0.981475C35.9735 0.983056 36.4857 1.20138 36.8661 1.64229L36.9366 1.72398L37.5428 1.13269L37.6078 1.06936L37.5486 1.00093C37.3021 0.714706 36.9738 0.487508 36.5702 0.318856C36.1659 0.149677 35.7392 0.0649123 35.2952 0.0649123C34.4035 0.0641656 33.634 0.36954 33.0098 0.973876C32.3833 1.57703 32.0675 2.33517 32.0684 3.22573C32.0675 4.1159 32.3833 4.87448 33.0102 5.47798C33.634 6.08192 34.4035 6.38695 35.2952 6.38616C36.2239 6.38695 36.9942 6.08645 37.5788 5.48826L37.5062 5.42071L37.5772 5.48984C38.0967 4.98402 38.3545 4.30071 38.3538 3.4636H38.2535H38.2536ZM42.8769 1.01433H40.1361V2.87345H42.6078V3.57801H40.1361V5.43714H42.8769V6.15747H39.3635V0.293998H42.8769V1.01433Z" fill="white"/>
<path d="M42.8778 1.01339V0.915672H40.0368V2.97024H42.5084V3.4791L40.0368 3.47936V5.53393H42.7775V6.05881H39.4648V0.390786H42.7775V1.01339H42.8778V0.915672V1.01339H42.9781V0.195343H39.2642V6.25426H42.9781V5.33848H40.2374V3.6748H42.709V2.7748H40.2374V1.11111H42.9781V1.01339H42.8778ZM46.1389 6.15658H45.3651V1.01335H43.6842V0.293021H47.8198V1.01335H46.1389V6.15649" fill="white"/>
<path d="M46.1385 6.15658V6.05881H45.465V0.915672H43.7841V0.39083H47.7191V0.915672H46.0382V6.15654H46.1385V6.05881V6.15654H46.2389V1.11111H47.9197V0.195343H43.5835V1.11107H45.2644V6.25421H46.2389V6.15649H46.1385V6.15658ZM50.8117 6.15658V0.293021H51.5848V6.15649H50.8117" fill="white"/>
<path d="M50.8122 6.15658H50.9125V0.390786H51.4849V6.05881H50.8122V6.15654H50.9125H50.8122V6.25426H51.6855V0.195343H50.7119V6.25426H50.8122V6.15654V6.15658ZM55.0156 6.15658H54.2417V1.01335H52.5609V0.293021H56.6965V1.01335H55.0156V6.15649" fill="white"/>
<path d="M55.0154 6.15837V6.0606H54.3419V0.917461H52.6611V0.39262H56.596V0.917461H54.9151V6.15832H55.0154V6.0606V6.15832H55.1157V1.1129H56.7966V0.197132H52.4604V1.11286H54.1412V6.256H55.1157V6.15828H55.0154V6.15837ZM60.6834 4.90973C61.1289 5.34906 61.674 5.56852 62.3185 5.56852C62.9631 5.56852 63.5084 5.34906 63.9532 4.90973C64.399 4.47035 64.6224 3.90871 64.6224 3.22659C64.6224 2.54451 64.399 1.98287 63.9532 1.54349C63.5084 1.10412 62.9631 0.884609 62.3185 0.884609C61.674 0.884609 61.1289 1.10412 60.6834 1.54349C60.2387 1.98287 60.0154 2.54447 60.0154 3.22659C60.0154 3.90871 60.2387 4.47035 60.6834 4.90973ZM64.5252 5.40058C63.9335 5.99336 63.1977 6.28929 62.3185 6.28929C61.4384 6.28929 60.703 5.99336 60.1126 5.40058C59.5205 4.80845 59.2259 4.08364 59.2259 3.22659C59.2259 2.36954 59.5205 1.6446 60.1126 1.0526C60.703 0.459685 61.4384 0.16349 62.3185 0.16349C63.1931 0.16349 63.9269 0.461266 64.5213 1.05642C65.1149 1.65154 65.4119 2.3749 65.4119 3.22659C65.4119 4.08364 65.1156 4.80845 64.5252 5.40058Z" fill="white"/>
<path d="M60.6828 4.90887L60.6115 4.97756C61.0735 5.43451 61.6499 5.66662 62.3179 5.66544C62.9855 5.66662 63.5627 5.43451 64.0239 4.97756C64.4889 4.52018 64.7228 3.9285 64.7221 3.22573C64.7228 2.52302 64.4889 1.93129 64.0239 1.4739C63.5627 1.01696 62.9855 0.784891 62.3179 0.786032C61.6499 0.784891 61.0735 1.01696 60.6115 1.4739C60.1476 1.93129 59.9133 2.52302 59.9145 3.22573C59.9133 3.92845 60.1476 4.52018 60.6115 4.97756L60.6828 4.90887L60.7542 4.84014C60.3287 4.41829 60.1159 3.88765 60.1151 3.22573C60.1159 2.56386 60.3287 2.03322 60.7541 1.61133C61.1835 1.18957 61.6964 0.982662 62.3179 0.98152C62.9389 0.982662 63.4529 1.18957 63.8813 1.61133C64.3075 2.03322 64.5203 2.56386 64.5211 3.22573C64.5203 3.88761 64.3075 4.41829 63.8813 4.84014C63.4529 5.26195 62.9389 5.46881 62.3179 5.46995C61.6964 5.46881 61.1835 5.26195 60.7541 4.84014L60.6828 4.90887ZM64.5246 5.39972L64.4529 5.33182C63.8777 5.90594 63.1744 6.18957 62.3179 6.19072C61.461 6.18953 60.7577 5.90594 60.1836 5.33182L60.1809 5.32875L60.1836 5.33182C59.6097 4.75572 59.3264 4.061 59.3256 3.22573C59.3264 2.39047 59.6097 1.69574 60.1836 1.11969C60.7577 0.545528 61.461 0.261543 62.3179 0.260401C63.1689 0.261543 63.8706 0.546714 64.449 1.12386C65.0249 1.7026 65.3098 2.39622 65.311 3.22573C65.3098 4.061 65.0257 4.75572 64.4529 5.33182L64.5246 5.39972L64.5967 5.46762C65.2048 4.8592 65.5123 4.10448 65.5116 3.22573C65.5123 2.35199 65.2036 1.59881 64.5927 0.987669C63.9815 0.374109 63.2159 0.0638595 62.3179 0.0649136C61.4152 0.0638595 60.6472 0.37266 60.0399 0.983848V0.983408C59.4306 1.59227 59.1242 2.34699 59.125 3.22573C59.1242 4.10448 59.4306 4.8592 60.0399 5.46802L60.0426 5.47078L60.0399 5.46762C60.6472 6.07881 61.4152 6.38695 62.3179 6.38616C63.2202 6.38695 63.9882 6.07881 64.5967 5.46762L64.5246 5.39972ZM66.4966 6.15751V0.293955H67.4378L70.3626 4.85533H70.396L70.3626 3.72537V0.293955H71.1365V6.15743H70.3293L67.2693 1.375H67.2359L67.2693 2.50536V6.15743H66.4966" fill="white"/>
<path d="M66.4973 6.15658H66.5976V0.390786H67.3828L70.3077 4.95217H70.4997L70.4636 3.72303V0.39083H71.0369V6.05881H70.3857L67.3256 1.27638H67.1336L67.1696 2.50605V6.05881H66.4973V6.15653H66.5976H66.4973V6.25426H67.3702V2.50293L67.337 1.37147L67.2366 1.37411V1.47183H67.27V1.37411L67.1849 1.42606L70.2744 6.25426H71.2375V0.195343H70.2631V3.72562L70.2963 4.85708L70.3967 4.85444V4.75672H70.3633V4.85444L70.4484 4.80257L67.494 0.195343H66.397V6.25426H66.4974V6.15653L66.4973 6.15658ZM97.9535 22.7697H99.8252V10.553H97.9535L97.9535 22.7697ZM114.812 14.9538L112.666 20.2503H112.602L110.375 14.9537H108.359L111.698 22.3567L109.795 26.4745H111.747L116.893 14.9537L114.812 14.9538ZM104.197 21.3822C103.584 21.3822 102.729 21.0836 102.729 20.3446C102.729 19.4016 103.794 19.0402 104.713 19.0402C105.537 19.0402 105.923 19.2131 106.423 19.4491C106.278 20.5805 105.278 21.3822 104.197 21.3822ZM104.423 14.6865C103.068 14.6865 101.665 15.2682 101.084 16.557L102.745 17.2327C103.1 16.557 103.761 16.3367 104.455 16.3367C105.423 16.3367 106.407 16.9028 106.423 17.9087V18.0343C106.084 17.8457 105.359 17.5629 104.471 17.5629C102.681 17.5629 100.857 18.5214 100.857 20.3132C100.857 21.9479 102.326 23.0011 103.971 23.0011C105.23 23.0011 105.923 22.451 106.359 21.8067H106.423V22.7495H108.23V18.0656C108.23 15.897 106.569 14.6865 104.423 14.6865ZM92.856 16.4409H90.1939V12.2533H92.856C94.2553 12.2533 95.0497 13.382 95.0497 14.3471C95.0497 15.2938 94.2553 16.4409 92.856 16.4409ZM92.8079 10.553H88.3232V22.7697H90.1939V18.1412H92.8079C94.8822 18.1412 96.9214 16.678 96.9214 14.3471C96.9214 12.0162 94.8822 10.553 92.8079 10.553ZM68.3525 21.3844C67.0595 21.3844 65.9769 20.3297 65.9769 18.881C65.9769 17.4171 67.0595 16.3463 68.3525 16.3463C69.6291 16.3463 70.631 17.417 70.631 18.881C70.631 20.3297 69.6291 21.3844 68.3526 21.3844H68.3525ZM70.5017 15.6378H70.437C70.017 15.1499 69.2086 14.709 68.1908 14.709C66.0577 14.709 64.1025 16.5352 64.1025 18.881C64.1025 21.2111 66.0576 23.0217 68.1908 23.0217C69.2086 23.0217 70.017 22.5807 70.437 22.0772H70.5017V22.6754C70.5017 24.2658 69.6291 25.1159 68.2233 25.1159C67.0759 25.1159 66.3649 24.3127 66.0737 23.6359L64.4419 24.2971C64.9105 25.3991 66.1548 26.7532 68.2233 26.7532C70.4209 26.7532 72.2793 25.4934 72.2793 22.4235V14.961H70.5017V15.6378ZM73.5719 22.7697H75.4464V10.5526H73.5719V22.7697ZM78.2098 18.7394C78.1612 17.1334 79.4864 16.3149 80.4397 16.3149C81.1835 16.3149 81.8134 16.6768 82.0231 17.1968L78.2098 18.7394ZM84.0272 17.354C83.6721 16.4249 82.5888 14.709 80.375 14.709C78.1773 14.709 76.3515 16.3936 76.3515 18.8653C76.3515 21.1955 78.1612 23.0217 80.585 23.0217C82.5407 23.0217 83.6721 21.8566 84.1405 21.1797L82.6861 20.2349C82.2016 20.9278 81.5386 21.3844 80.585 21.3844C79.6317 21.3844 78.9532 20.9592 78.5166 20.125L84.2208 17.8262L84.0272 17.354ZM38.5809 15.9843V17.7476H42.9115C42.7822 18.7394 42.4429 19.4635 41.9257 19.9674C41.2957 20.5816 40.3099 21.2584 38.5808 21.2584C35.9144 21.2584 33.83 19.1646 33.83 16.5668C33.83 13.9692 35.9144 11.875 38.5809 11.875C40.0191 11.875 41.0692 12.4262 41.845 13.1346L43.1216 11.891C42.039 10.8832 40.6006 10.1118 38.5809 10.1118C34.9287 10.1118 31.8584 13.0087 31.8584 16.5668C31.8584 20.125 34.9287 23.0217 38.5809 23.0217C40.5524 23.0217 42.039 22.3922 43.2023 21.2111C44.3981 20.046 44.77 18.4088 44.77 17.0865C44.77 16.6768 44.7378 16.2993 44.6728 15.9843H38.5809ZM49.6935 21.3844C48.4005 21.3844 47.2854 20.3453 47.2854 18.8653C47.2854 17.3697 48.4005 16.3463 49.6935 16.3463C50.9861 16.3463 52.1011 17.3697 52.1011 18.8653C52.1011 20.3453 50.9861 21.3844 49.6935 21.3844ZM49.6935 14.709C47.334 14.709 45.4109 16.4565 45.4109 18.8653C45.4109 21.2584 47.334 23.0217 49.6935 23.0217C52.0526 23.0217 53.9756 21.2584 53.9756 18.8653C53.9756 16.4565 52.0526 14.709 49.6935 14.709ZM59.0351 21.3844C57.7426 21.3844 56.6274 20.3453 56.6274 18.8653C56.6274 17.3697 57.7426 16.3463 59.0351 16.3463C60.3278 16.3463 61.4428 17.3697 61.4428 18.8653C61.4428 20.3453 60.3278 21.3844 59.0351 21.3844H59.0351ZM59.0351 14.709C56.6757 14.709 54.753 16.4565 54.753 18.8653C54.753 21.2584 56.6756 23.0217 59.0351 23.0217C61.3943 23.0217 63.3174 21.2584 63.3174 18.8653C63.3174 16.4565 61.3943 14.709 59.0351 14.709H59.0351Z" fill="white"/>
<path d="M1.23236 0.892489C0.895752 1.18838 0.694824 1.6819 0.694824 2.33701V2.18891V23.8067V23.6643C0.694824 24.2693 0.867171 24.7365 1.15904 25.0374L1.23354 25.1069V25.1072C1.46977 25.3149 1.7727 25.4252 2.11988 25.4248C2.45911 25.4248 2.84078 25.3195 3.24358 25.097L17.803 17.0373L22.8041 14.2686C23.4393 13.917 23.7958 13.4635 23.8554 13.0016V12.9997C23.7958 12.5367 23.4393 12.0835 22.8041 11.7319L17.8026 8.96354L3.24363 0.903908C2.83996 0.681015 2.45802 0.575256 2.11789 0.575256C1.77112 0.575256 1.4686 0.685187 1.23245 0.892489H1.23236Z" fill="#00C1FF"/>
<path d="M1.23358 25.1042L1.15904 25.0347C0.867171 24.7339 0.694824 24.2666 0.694824 23.6616V23.804V2.19158V2.33431C0.694824 1.67921 0.895752 1.18568 1.23236 0.889793L13.6599 12.9974L1.23358 25.1042Z" fill="url(#paint0_linear_2546_1908)"/>
<path d="M17.8037 17.0359L13.6606 12.9987L17.8034 8.96212L22.8048 11.7305C23.44 12.0821 23.7965 12.5352 23.8561 12.9983V13.0001C23.7965 13.4621 23.44 13.9156 22.8048 14.2671L17.8038 17.0358" fill="url(#paint1_linear_2546_1908)"/>
<path d="M2.11965 25.423C1.77252 25.4233 1.46959 25.313 1.2334 25.1053V25.105L13.6598 12.9982L17.8029 17.0354L3.24335 25.0951C2.84055 25.3176 2.45888 25.423 2.11965 25.423Z" fill="url(#paint2_linear_2546_1908)"/>
<path d="M13.6605 12.9977L1.23291 0.890088C1.46915 0.682786 1.77167 0.572854 2.11839 0.572854C2.45852 0.572854 2.84051 0.678569 3.24413 0.901506L17.8032 8.96114L13.6605 12.9977Z" fill="url(#paint3_linear_2546_1908)"/>
<path d="M2.11936 25.568C1.77223 25.568 1.4689 25.4577 1.23266 25.25L1.23225 25.2503C1.23128 25.2494 1.23024 25.2485 1.22914 25.2477L1.16452 25.1862C1.16249 25.1843 1.1606 25.1821 1.1582 25.1798L1.2327 25.1072C1.46894 25.3149 1.77182 25.4252 2.11904 25.4248C2.45823 25.4248 2.8399 25.3195 3.2427 25.0969L17.8022 17.0373L17.8954 17.1282L17.801 17.1805L3.24266 25.2397C2.87557 25.4424 2.52641 25.5481 2.21102 25.5657C2.18049 25.5672 2.14993 25.5679 2.11936 25.5679" fill="url(#paint4_linear_2546_1908)"/>
<path d="M1.15904 25.1796C0.867171 24.8787 0.694824 24.4118 0.694824 23.8065V23.6641C0.694824 24.2691 0.867171 24.7363 1.15904 25.0372L1.23354 25.1067L1.15904 25.1796Z" fill="url(#paint5_linear_2546_1908)"/>
<path d="M17.895 17.1259L17.8018 17.035L22.8028 14.2663C23.438 13.9148 23.7946 13.4612 23.8542 12.9993C23.8542 13.1688 23.8153 13.3383 23.7382 13.5033C23.5826 13.8357 23.2708 14.1499 22.8029 14.4091L17.895 17.1259" fill="url(#paint6_linear_2546_1908)"/>
<path d="M23.8546 12.9977C23.795 12.5346 23.4384 12.0815 22.8033 11.7299L17.8018 8.96154L17.895 8.87062H17.8954L22.8033 11.5875C23.5035 11.9754 23.8542 12.4865 23.8546 12.9977Z" fill="url(#paint7_linear_2546_1908)"/>
<path d="M0.694824 2.33774V2.18841C0.694824 2.13457 0.696314 2.08191 0.699159 2.03078V2.02845C0.699159 2.02775 0.699159 2.02701 0.69943 2.02621V2.02046C0.729637 1.49935 0.895752 1.09288 1.15904 0.821451L1.23236 0.893172C0.895752 1.1891 0.694824 1.68263 0.694824 2.33774Z" fill="url(#paint8_linear_2546_1908)"/>
<path d="M17.8017 8.96208L3.2427 0.902359C2.83909 0.679465 2.45714 0.57375 2.11701 0.57375C1.77024 0.57375 1.46772 0.683681 1.23153 0.890984L1.1582 0.819219C1.1811 0.795599 1.2049 0.772819 1.22954 0.750923C1.23031 0.750133 1.23153 0.749342 1.2323 0.748595C1.46664 0.542874 1.76595 0.432943 2.10961 0.430967H2.11701C2.45714 0.430967 2.83909 0.536726 3.2427 0.759707L17.8954 8.87086L17.895 8.87117L17.8017 8.96208Z" fill="url(#paint9_linear_2546_1908)"/>
<defs>
<linearGradient id="paint0_linear_2546_1908" x1="8.6368" y1="1.96315" x2="-1.7762" y2="12.6856" gradientUnits="userSpaceOnUse">
<stop stop-color="#00A0FF"/>
<stop offset="0.00657" stop-color="#00A1FF"/>
<stop offset="0.2601" stop-color="#00BEFF"/>
<stop offset="0.5122" stop-color="#00D2FF"/>
<stop offset="0.7604" stop-color="#00DFFF"/>
<stop offset="1" stop-color="#00E3FF"/>
</linearGradient>
<linearGradient id="paint1_linear_2546_1908" x1="24.63" y1="12.9289" x2="0.359204" y2="12.9289" gradientUnits="userSpaceOnUse">
<stop stop-color="#FFE000"/>
<stop offset="0.4087" stop-color="#FFBD00"/>
<stop offset="0.7754" stop-color="#FFA500"/>
<stop offset="1" stop-color="#FF9C00"/>
</linearGradient>
<linearGradient id="paint2_linear_2546_1908" x1="15.6032" y1="16.8366" x2="-2.04595" y2="34.8776" gradientUnits="userSpaceOnUse">
<stop stop-color="#FF3A44"/>
<stop offset="1" stop-color="#C31162"/>
</linearGradient>
<linearGradient id="paint3_linear_2546_1908" x1="-1.97004" y1="-0.904921" x2="5.89548" y2="7.14755" gradientUnits="userSpaceOnUse">
<stop stop-color="#32A071"/>
<stop offset="0.0685" stop-color="#2DA771"/>
<stop offset="0.4762" stop-color="#15CF74"/>
<stop offset="0.8009" stop-color="#06E775"/>
<stop offset="1" stop-color="#00F076"/>
</linearGradient>
<linearGradient id="paint4_linear_2546_1908" x1="15.5935" y1="19.6389" x2="1.46204" y2="34.1905" gradientUnits="userSpaceOnUse">
<stop stop-color="#CC2E36"/>
<stop offset="1" stop-color="#9C0E4E"/>
</linearGradient>
<linearGradient id="paint5_linear_2546_1908" x1="2.35036" y1="1.96559" x2="-6.82334" y2="11.4121" gradientUnits="userSpaceOnUse">
<stop stop-color="#008DE0"/>
<stop offset="0.00657" stop-color="#008DE0"/>
<stop offset="0.2601" stop-color="#00A7E0"/>
<stop offset="0.5122" stop-color="#00B8E0"/>
<stop offset="0.7604" stop-color="#00C4E0"/>
<stop offset="1" stop-color="#00C7E0"/>
</linearGradient>
<linearGradient id="paint6_linear_2546_1908" x1="24.628" y1="12.9984" x2="0.357212" y2="12.9984" gradientUnits="userSpaceOnUse">
<stop stop-color="#E0C500"/>
<stop offset="0.4087" stop-color="#E0A600"/>
<stop offset="0.7754" stop-color="#E09100"/>
<stop offset="1" stop-color="#E08900"/>
</linearGradient>
<linearGradient id="paint7_linear_2546_1908" x1="24.6284" y1="12.9986" x2="0.357697" y2="12.9986" gradientUnits="userSpaceOnUse">
<stop stop-color="#FFE840"/>
<stop offset="0.4087" stop-color="#FFCE40"/>
<stop offset="0.7754" stop-color="#FFBC40"/>
<stop offset="1" stop-color="#FFB540"/>
</linearGradient>
<linearGradient id="paint8_linear_2546_1908" x1="2.34012" y1="1.98318" x2="-6.50661" y2="10.6982" gradientUnits="userSpaceOnUse">
<stop stop-color="#40B8FF"/>
<stop offset="0.00657" stop-color="#40B9FF"/>
<stop offset="0.2601" stop-color="#40CEFF"/>
<stop offset="0.5122" stop-color="#40DDFF"/>
<stop offset="0.7604" stop-color="#40E7FF"/>
<stop offset="1" stop-color="#40EAFF"/>
</linearGradient>
<linearGradient id="paint9_linear_2546_1908" x1="-1.98957" y1="1.6565" x2="4.32077" y2="8.15447" gradientUnits="userSpaceOnUse">
<stop stop-color="#65B895"/>
<stop offset="0.0685" stop-color="#62BD95"/>
<stop offset="0.4762" stop-color="#50DB97"/>
<stop offset="0.8009" stop-color="#44ED98"/>
<stop offset="1" stop-color="#40F498"/>
</linearGradient>
</defs>
</svg>
