<svg width="30" height="30" viewBox="0 0 30 30" fill="none" xmlns="http://www.w3.org/2000/svg">
<path fill-rule="evenodd" clip-rule="evenodd" d="M15 30C23.2843 30 30 23.2843 30 15C30 6.71573 23.2843 0 15 0C6.71573 0 0 6.71573 0 15C0 23.2843 6.71573 30 15 30ZM17.0793 19.2182C18.7951 17.4928 18.8191 14.6836 17.0687 12.9314C16.8835 12.7461 16.6823 12.5775 16.4675 12.4276C16.2799 12.2967 16.0262 12.3165 15.8645 12.4783L15.2476 13.0951C15.003 13.3398 14.8933 13.6588 14.9049 13.9683C14.9077 14.0415 14.9276 14.113 14.9629 14.1771C14.9983 14.2412 15.0481 14.2962 15.1084 14.3377C15.1938 14.3964 15.303 14.4805 15.4114 14.5887C16.2339 15.4112 16.2373 16.7461 15.4114 17.572L13.4427 19.5405C12.6153 20.3678 11.2659 20.3628 10.4448 19.5255C9.63186 18.6964 9.65761 17.3595 10.4787 16.5384L10.8621 16.155C10.9895 16.0276 11.0311 15.8389 10.9729 15.6683C10.8011 15.1646 10.708 14.643 10.689 14.1238C10.6742 13.7164 10.1777 13.5248 9.88941 13.813L8.80232 14.9001C7.06589 16.6363 7.06589 19.4616 8.80232 21.1978C10.5385 22.934 13.3636 22.9342 15.1 21.1978L17.0687 19.229L17.0688 19.229C17.0723 19.2255 17.0761 19.2217 17.0793 19.2182ZM14.9 8.80223C16.6365 7.06581 19.4615 7.06604 21.1977 8.80223C22.9341 10.5384 22.9341 13.3637 21.1977 15.0998L20.1106 16.1869C19.8223 16.4752 19.3258 16.2836 19.3109 15.8762C19.292 15.357 19.1988 14.8354 19.027 14.3317C18.9689 14.1611 19.0104 13.9724 19.1379 13.845L19.5213 13.4616C20.3424 12.6405 20.3681 11.3036 19.5551 10.4745C18.7341 9.63719 17.3846 9.63221 16.5573 10.4595L14.5886 12.428C13.7627 13.2539 13.7661 14.5888 14.5886 15.4113C14.697 15.5195 14.8062 15.6036 14.8915 15.6623C14.9519 15.7038 15.0017 15.7587 15.0371 15.8229C15.0724 15.887 15.0923 15.9585 15.0951 16.0316C15.1067 16.3412 14.997 16.6602 14.7523 16.9049L14.1355 17.5217C13.9738 17.6834 13.72 17.7033 13.5325 17.5724C13.3177 17.4224 13.1165 17.2539 12.9313 17.0686C11.1809 15.3164 11.2049 12.5072 12.9207 10.7818C12.9232 10.7791 12.9261 10.7762 12.9289 10.7733C12.9297 10.7725 12.9305 10.7718 12.9313 10.771L14.9 8.80223Z" fill="#FCD833"/>
</svg>
