<svg width="51" height="46" viewBox="0 0 51 46" fill="none" xmlns="http://www.w3.org/2000/svg">
<path fill-rule="evenodd" clip-rule="evenodd" d="M27.0454 8.73024H9.77197V26.8334C4.10641 25.0742 0 19.8753 0 13.7357C0 6.14966 6.26894 0 14.0021 0C19.9348 0 25.0058 3.6195 27.0454 8.73024Z" fill="#EDEDED"/>
<path d="M30.1403 41.8108C40.7585 34.4085 47.2406 24.6779 47.2928 11.2635H46.3543C36.6572 11.2635 26.9427 11.2635 17.2456 11.2635C16.481 11.2635 16.2029 11.0724 16.2724 10.2904C16.3419 9.5085 16.2724 8.55281 16.2724 7.66663H48.5788C50.4035 7.66663 51.0291 8.27479 50.9944 10.0993C51.1091 17.023 49.4648 23.8625 46.2153 29.9776C43.5244 34.604 39.9873 38.683 35.7883 42.0019C34.3459 43.2009 32.834 44.3303 31.3394 45.4772C31.1776 45.6427 30.9843 45.7742 30.7709 45.8639C30.5576 45.9537 30.3284 46 30.0969 46C29.8654 46 29.6362 45.9537 29.4229 45.8639C29.2095 45.7742 29.0162 45.6427 28.8543 45.4772C23.2587 41.5991 18.5254 36.606 14.9517 30.8117C12.1997 26.2191 10.4248 21.1083 9.73816 15.7987C9.58175 13.3834 9.47748 10.9855 9.28632 8.58756C9.26817 8.30984 9.26817 8.03123 9.28632 7.75351H12.9879C12.5534 22.141 17.9755 33.644 30.1403 41.8108Z" fill="#06A7CB"/>
<path d="M25.7081 23.0261C24.3005 19.5509 24.7002 17.2572 26.942 15.6065C27.9077 14.8869 29.0873 14.5128 30.2913 14.5443C31.4953 14.5758 32.6537 15.0111 33.5805 15.7802C35.6485 17.5178 35.9961 19.9158 34.6406 22.8523C35.415 23.722 36.1347 24.6389 36.7955 25.5978C37.6074 26.8582 37.9174 28.3771 37.6644 29.8549C37.5438 30.5118 37.1989 31.1064 36.6886 31.5374C36.1784 31.9684 35.5344 32.2089 34.8665 32.2181H25.4648C25.0717 32.216 24.6829 32.135 24.3217 31.9799C23.9604 31.8248 23.6339 31.5988 23.3617 31.3152C23.0894 31.0316 22.8768 30.6963 22.7366 30.329C22.5963 29.9618 22.5313 29.5701 22.5452 29.1772C22.544 28.0897 22.7797 27.015 23.2358 26.0278C23.692 25.0405 24.3577 24.1645 25.1868 23.4605L25.7081 23.0261ZM34.0845 28.6733C33.9789 27.6585 33.479 26.7258 32.6925 26.0758C31.9059 25.4258 30.8956 25.1106 29.8789 25.1981C28.9533 25.2332 28.0726 25.6062 27.4033 26.2466C26.7341 26.8869 26.3226 27.7503 26.2468 28.6733H34.0845ZM31.8774 19.9158C31.8774 19.4549 31.6943 19.0129 31.3684 18.6871C31.0425 18.3612 30.6005 18.1781 30.1396 18.1781C29.6787 18.1781 29.2367 18.3612 28.9107 18.6871C28.5848 19.0129 28.4017 19.4549 28.4017 19.9158C28.4017 20.3766 28.5848 20.8186 28.9107 21.1444C29.2367 21.4703 29.6787 21.6534 30.1396 21.6534C30.6005 21.6534 31.0425 21.4703 31.3684 21.1444C31.6943 20.8186 31.8774 20.3766 31.8774 19.9158Z" fill="#06A7CB"/>
</svg>
