<svg width="69" height="46" viewBox="0 0 69 46" fill="none" xmlns="http://www.w3.org/2000/svg">
<path fill-rule="evenodd" clip-rule="evenodd" d="M26.8334 8.73048H9.69507V26.8333C4.07408 25.074 0 19.8752 0 13.7357C0 6.14966 6.21978 0 13.8923 0C19.7785 0 24.8098 3.61961 26.8334 8.73048Z" fill="#EDEDED"/>
<path fill-rule="evenodd" clip-rule="evenodd" d="M12.125 7.76321C10.9743 8.12127 10.0227 8.98013 9.51406 10.12C9.2089 10.8037 9.19995 11.1025 9.19995 20.674C9.19995 29.8735 9.21847 30.5657 9.48134 31.1498C9.90026 32.0805 10.528 32.7564 11.4128 33.2292L12.2031 33.6515L25.3619 33.6956L38.5207 33.7397V32.0148V30.2899H25.718H12.9151L12.675 29.9423C12.4643 29.6377 12.4346 28.491 12.4346 20.6321V11.6693L12.8136 11.2856L13.1923 10.9017L31.6063 10.9041C46.1302 10.9058 50.1016 10.948 50.406 11.1039C50.7862 11.2984 50.7925 11.3334 50.835 13.464C50.8777 15.6134 50.88 15.6259 51.2208 15.5318C51.4095 15.4797 52.0152 15.3602 52.567 15.2664C53.1188 15.1725 53.7265 15.0653 53.9176 15.0283C54.2544 14.9631 54.2649 14.9052 54.2649 13.1161C54.2649 10.2735 53.762 9.0974 52.1311 8.12627L51.4093 7.69645L31.9606 7.66956C21.2637 7.65486 12.3377 7.69692 12.125 7.76321ZM19.8437 13.8567C18.6842 14.1061 17.6507 14.9282 17.1352 16.0115C16.8075 16.6999 16.6633 18.3032 16.8776 18.8759C16.996 19.1922 16.9348 19.4267 16.5573 20.1047C15.9579 21.1811 15.8118 22.8017 16.2057 24.003C16.517 24.9525 17.4567 26.0773 18.4131 26.6451C19.336 27.1929 21.1234 27.3285 22.282 26.9387C23.2755 26.6046 24.3729 25.6267 24.9047 24.6021C25.2663 23.9056 25.3207 23.6177 25.3219 22.3939C25.3231 21.1101 25.2815 20.9113 24.8466 20.1267C24.4328 19.3798 24.3891 19.1949 24.5154 18.7195C24.8516 17.454 24.3691 15.8288 23.3688 14.8577C22.4992 14.0134 21.041 13.5994 19.8437 13.8567ZM42.533 14.1749C40.8664 14.6884 39.2978 16.6053 39.294 18.1332L39.2924 18.7195H40.8945H42.4964L42.6913 18.2431C43.0985 17.2471 44.5021 17.0506 45.1598 17.8976C45.4552 18.278 45.5137 18.2955 45.8226 18.0958C46.1101 17.9101 47.2808 17.1963 48.089 16.714C48.2825 16.5984 48.2503 16.4769 47.8835 15.9408C47.4103 15.2491 46.6419 14.6499 45.7417 14.2706C45.1374 14.016 43.2328 13.9593 42.533 14.1749ZM28.0245 16.0615V17.7814H30.2627C31.4936 17.7814 32.5008 17.8421 32.5008 17.9162C32.5008 17.9903 32.2924 18.5164 32.0377 19.0854C31.783 19.6544 31.5747 20.1566 31.5747 20.2015C31.5747 20.2464 31.8199 20.2831 32.1199 20.2831C33.3641 20.2831 34.2296 21.0275 34.2296 22.0976C34.2296 22.8362 33.7818 23.4366 33.0441 23.6867C32.5375 23.8585 32.3847 23.848 31.9013 23.6085C31.5707 23.4448 31.2172 23.0931 31.0344 22.7462L30.7257 22.1602L29.0528 22.1598L27.3799 22.1594L27.4844 22.8239C27.732 24.3971 28.8383 25.9974 30.1453 26.6729C31.0347 27.1326 32.3363 27.3299 33.3624 27.1607C35.0631 26.8802 36.3939 25.8645 37.1497 24.2702C37.5197 23.4895 37.5944 23.1321 37.5944 22.14C37.5945 20.7725 37.3459 19.933 36.65 18.9514L36.1601 18.2605L36.4913 17.4529C37.1001 15.9691 36.8474 14.8938 35.7946 14.4884C35.585 14.4076 33.7509 14.3416 31.719 14.3416H28.0245V16.0615ZM21.4902 17.2521C21.725 17.6152 21.7297 17.7057 21.5325 18.0575C21.2023 18.6464 20.8618 18.8127 20.3563 18.6326C19.3483 18.2735 19.6172 16.8433 20.6926 16.8433C21.0972 16.8433 21.2895 16.9418 21.4902 17.2521ZM53.9562 18.5682C48.4355 19.2296 44.0916 22.9829 42.4339 28.5235C42.0668 29.7508 42.0224 30.1518 42.0224 32.2443C42.0224 34.3368 42.0668 34.7379 42.4339 35.9651C44.4141 42.5835 50.3288 46.6408 56.9413 45.9167C58.8298 45.7099 60.1339 45.3113 61.8536 44.4154C64.4099 43.0837 66.3612 41.052 67.6867 38.3422C68.8265 36.012 69 35.2062 69 32.2443C69 29.2825 68.8265 28.4766 67.6867 26.1465C65.5882 21.8562 61.6881 19.0984 56.9661 18.566C55.4432 18.3943 55.4067 18.3943 53.9562 18.5682ZM21.789 21.5518C22.2493 22.067 22.1517 22.9035 21.57 23.4301C21.0141 23.9331 20.6482 23.9853 20.0121 23.6521C19.1776 23.2151 19.0386 22.0635 19.741 21.4081C20.3402 20.8488 21.2159 20.9102 21.789 21.5518ZM58.7375 22.4094C61.3575 23.2909 63.4913 25.1935 64.6826 27.71C65.5205 29.48 65.7545 30.4699 65.7545 32.2443C65.7545 34.0188 65.5205 35.0087 64.6826 36.7787C63.4904 39.2972 61.3546 41.2009 58.7375 42.0771C53.4482 43.8483 47.9167 41.1107 45.8819 35.7147C45.4237 34.4998 45.3986 34.3196 45.3986 32.2443C45.3986 30.169 45.4237 29.9889 45.8819 28.774C47.1652 25.3708 49.9712 22.8577 53.359 22.0771C54.8771 21.7275 57.1228 21.8662 58.7375 22.4094ZM53.8018 28.8045V32.3225H55.4997H57.1976V28.8045V25.2865H55.4997H53.8018V28.8045ZM53.8018 37.4823V39.2022H55.4997H57.1976V37.4823V35.7623H55.4997H53.8018V37.4823Z" fill="#00A6CA"/>
</svg>
