<svg width="55" height="46" viewBox="0 0 55 46" fill="none" xmlns="http://www.w3.org/2000/svg">
<path fill-rule="evenodd" clip-rule="evenodd" d="M26.7359 8.73024H9.65991V26.8333C4.05931 25.074 0 19.8753 0 13.7357C0 6.14966 6.1972 0 13.8418 0C19.7066 0 24.7196 3.6195 26.7359 8.73024Z" fill="#EDEDED"/>
<path d="M54.6842 12.0564H14.9432C13.4918 12.0564 13.3581 12.1714 13.3581 13.6476V40.1623C13.3581 41.4852 13.6255 41.7536 14.905 41.7536H49.1652C50.4447 41.7536 50.6929 41.4852 50.6929 40.1623V16.1975C52.0297 16.1975 53.3283 16.1975 54.6078 16.1975C54.7415 16.1975 54.9707 16.7151 54.9707 17.0027C54.9707 19.2841 54.9707 21.5848 54.9707 23.8662V40.0664C55.0879 41.1898 54.8504 42.3218 54.2918 43.3023C53.7332 44.2828 52.8818 45.0622 51.8579 45.5304C51.1308 45.8291 50.3517 45.979 49.5662 45.9714C38.0125 45.9714 26.4778 45.9714 14.9241 45.9714C14.1518 46.0527 13.3712 45.9599 12.6393 45.6996C11.9074 45.4393 11.2426 45.0182 10.6935 44.467C10.1444 43.9158 9.72495 43.2484 9.46569 42.5136C9.20643 41.7788 9.11394 40.9951 9.19497 40.2198C9.19497 31.2729 9.19497 22.3708 9.19497 13.5134C9.12248 12.7348 9.2209 11.9498 9.48331 11.2135C9.74572 10.4773 10.1657 9.80776 10.7138 9.2521C11.2618 8.69644 11.9245 8.26816 12.6553 7.99743C13.386 7.72671 14.167 7.62012 14.9432 7.68517H49.318C50.5977 7.59523 51.8638 7.9966 52.86 8.80808C53.8562 9.61957 54.5082 10.7806 54.6842 12.0564V12.0564Z" fill="#17A8CB"/>
<path d="M21.323 26.3812C20.4081 25.0376 20.0156 23.4039 20.2197 21.7893C20.4238 20.1747 21.2104 18.6912 22.4307 17.6196C23.5503 16.691 24.9529 16.175 26.4051 16.1576C27.8574 16.1401 29.2718 16.6223 30.4133 17.5238C33.0486 19.556 33.5261 22.6043 31.7691 26.477C33.3718 27.6474 34.5516 29.3096 35.1302 31.2125C35.3843 32.0657 35.5256 32.9488 35.5504 33.839C35.5905 34.3333 35.527 34.8305 35.3638 35.2986C35.2007 35.7667 34.9416 36.1952 34.6033 36.5565C34.265 36.9179 33.8549 37.2039 33.3997 37.3963C32.9444 37.5887 32.454 37.6831 31.9601 37.6734C28.3317 37.6734 24.6841 37.6734 21.0557 37.6734C20.5777 37.6741 20.1046 37.5769 19.6654 37.3878C19.2261 37.1986 18.8299 36.9215 18.501 36.5734C18.1721 36.2252 17.9173 35.8133 17.7524 35.363C17.5875 34.9126 17.5158 34.4332 17.5418 33.9541C17.5105 32.4781 17.8385 31.0169 18.4975 29.6971C19.1564 28.3774 20.1264 27.2391 21.323 26.3812V26.3812ZM21.8387 33.2639H31.1771C31.0708 32.1303 30.5564 31.0746 29.7302 30.2946C28.904 29.5146 27.8228 29.0639 26.6893 29.0269C25.4969 28.9864 24.3336 29.401 23.4335 30.1871C22.5334 30.9733 21.9636 32.0727 21.8387 33.2639V33.2639ZM24.3404 22.5468C24.3349 23.1237 24.5529 23.6802 24.9484 24.0987C25.344 24.5172 25.886 24.7651 26.4602 24.7899C27.0196 24.7548 27.5478 24.5184 27.9477 24.124C28.3475 23.7296 28.5924 23.2036 28.6372 22.6427C28.6193 22.0886 28.406 21.5589 28.0352 21.1481C27.6645 20.7372 27.1604 20.472 26.6129 20.3996C26.0299 20.389 25.466 20.6077 25.0414 21.0089C24.6168 21.4101 24.3652 21.962 24.3404 22.5468V22.5468Z" fill="#0DA7CB"/>
<path d="M46.4735 29.1409H39.6177V24.9242H46.3971L46.4735 29.1409Z" fill="#31ABCD"/>
<path d="M39.6177 33.3767H46.3971V37.6317H39.6177V33.3767Z" fill="#2CAACD"/>
</svg>
