<svg width="61" height="46" viewBox="0 0 61 46" fill="none" xmlns="http://www.w3.org/2000/svg">
<path fill-rule="evenodd" clip-rule="evenodd" d="M26.7793 8.80504H9.67578V27.0625C4.06599 25.2883 0 20.0451 0 13.853C0 6.20218 6.20725 0 13.8643 0C19.7387 0 24.7598 3.65052 26.7793 8.80504Z" fill="#EDEDED"/>
<path fill-rule="evenodd" clip-rule="evenodd" d="M12.1896 7.88646C11.0103 8.26009 10.0278 9.17133 9.50444 10.3772C9.1906 11.1001 9.1814 11.4161 9.1814 21.5363C9.1814 31.2633 9.20045 31.9951 9.47078 32.6128C9.90161 33.5968 10.5472 34.3114 11.4571 34.8114L12.2699 35.2579L24.0961 35.304L35.9224 35.3503L35.9305 33.5268L35.9387 31.7035H24.4704H13.0022L12.7551 31.336C12.5383 31.0138 12.508 29.7955 12.508 21.4288V11.889L12.9287 11.5445L13.3493 11.1998L32.2286 11.2431C50.7087 11.2855 51.1125 11.2932 51.3332 11.6073C51.5134 11.8639 51.5584 12.7447 51.5584 16.0017V20.0754L52.9474 20.5698C53.7115 20.842 54.4642 21.1238 54.6206 21.1966C54.8908 21.3224 54.9023 21.0673 54.8587 15.9622L54.8127 10.5957L54.2272 9.67788C53.7608 8.9465 53.4413 8.6557 52.6542 8.24604L51.6666 7.73206L32.1269 7.74627C21.3802 7.75404 12.4083 7.8172 12.1896 7.88646ZM41.7958 14.8957C39.1512 15.8025 37.6071 18.6735 38.284 21.4252C38.5197 22.3829 39.1314 23.6174 39.4823 23.8432C39.5703 23.8999 40.1756 23.5048 40.8274 22.9653C41.4791 22.4259 42.1065 21.9498 42.2216 21.9071C42.3724 21.8512 42.32 21.7041 42.0339 21.3804C41.7211 21.0261 41.6371 20.7562 41.6371 20.1041C41.6371 19.3792 41.7009 19.2179 42.1555 18.795C42.7548 18.2373 43.7819 18.1337 44.3806 18.5706C44.7981 18.875 45.2088 19.6449 45.2088 20.1228C45.2088 20.5202 45.1766 20.5179 46.3993 20.2104C46.9232 20.0787 47.6509 19.9697 48.0164 19.9684L48.6811 19.9658L48.5979 19.3458C48.462 18.3349 47.6366 16.7266 46.9302 16.0971C45.902 15.1804 44.9723 14.7974 43.6214 14.734C42.9159 14.7008 42.1721 14.7668 41.7958 14.8957ZM17.1823 18.3539C15.8328 21.393 15.7665 21.5958 15.7122 22.8589C15.6354 24.6481 16.054 25.8293 17.1805 27.0026C18.3173 28.1866 19.448 28.619 21.1594 28.5241C23.2461 28.4082 24.8211 27.3318 25.6445 25.4587C26.9973 22.3814 25.4162 18.7607 22.3297 17.867C21.2751 17.5617 21.277 17.5711 21.9738 16.1275C22.1806 15.6987 22.35 15.3082 22.35 15.2596C22.35 15.2111 21.5052 15.1715 20.4727 15.1715H18.5956L17.1823 18.3539ZM27.5885 16.9073V18.6432H29.8902C31.1562 18.6432 32.192 18.6863 32.192 18.7391C32.192 18.7918 31.4313 20.5586 30.5017 22.6654C29.5721 24.7721 28.6433 26.8887 28.4379 27.369L28.0644 28.242L29.9802 28.1956L31.8962 28.1491L34.2664 22.7798C36.8985 16.8177 36.9837 16.4993 36.1727 15.6547L35.7087 15.1715H31.6486H27.5885V16.9073ZM22.2309 21.9491C23.0154 22.8506 22.7164 24.2975 21.6352 24.8318C20.222 25.5303 18.6805 24.089 19.1742 22.531C19.6196 21.1255 21.245 20.816 22.2309 21.9491ZM46.7962 23.8519C43.3585 24.7247 40.6361 27.4971 39.7282 31.0497C39.4238 32.2416 39.4282 35.0078 39.7366 36.2412C40.5675 39.563 43.3767 42.4887 46.5663 43.354C47.7867 43.6849 50.3588 43.6813 51.615 43.3469C52.1513 43.204 53.0484 42.8268 53.6084 42.5085L54.6266 41.9297L56.5855 43.9648L58.5442 45.9999L59.7721 44.7212L60.9999 43.4424L59.0549 41.4119L57.1098 39.3813L57.6619 38.2386C58.6693 36.1534 58.9712 33.4929 58.4578 31.2246C57.8435 28.5105 55.7683 25.856 53.3046 24.6331C52.5625 24.2646 51.5767 23.8822 51.1141 23.783C49.9958 23.5435 47.8785 23.5772 46.7962 23.8519ZM50.0609 27.2554C51.3834 27.5095 52.5028 28.1271 53.4362 29.1179C56.5245 32.3957 55.613 37.5512 51.5967 39.5213C50.659 39.9813 50.3596 40.0464 49.1773 40.0487C47.5609 40.0517 46.5711 39.7331 45.4507 38.849C43.7128 37.4778 42.9053 35.7846 42.9099 33.522C42.9124 32.2912 42.9754 31.9784 43.4167 31.0024C44.4402 28.7398 46.3466 27.3929 48.9497 27.094C49.0429 27.0833 49.5429 27.156 50.0609 27.2554Z" fill="#00A6CA"/>
</svg>
