<svg width="54" height="39" viewBox="0 0 54 39" fill="none" xmlns="http://www.w3.org/2000/svg">
<path fill-rule="evenodd" clip-rule="evenodd" d="M40.7806 0L38.5646 2.20144L39.0078 2.64682L50.0207 12.8524C50.9742 13.7304 50.9742 14.2521 50.0207 15.1302L42.2042 22.3453C42.105 22.4393 41.9997 22.5276 41.8599 22.6448L41.8598 22.6449L41.8597 22.645C41.7914 22.7023 41.7148 22.7665 41.6267 22.8416V18.6168C41.6267 17.0135 41.1432 16.5681 39.4107 16.5681H38.4438V17.0389V26.5064C38.423 26.8046 38.5082 27.1007 38.686 27.3475C38.8637 27.5943 39.1236 27.7776 39.4242 27.868C39.7154 27.9926 40.0398 28.0302 40.3542 27.9756C40.6685 27.9211 40.9578 27.777 41.1835 27.5626C42.4846 26.3554 43.7872 25.1524 45.0892 23.9499L45.0896 23.9495L45.0896 23.9495L45.0896 23.9494C47.6852 21.5523 50.2788 19.157 52.8545 16.7335C53.2443 16.3321 53.5459 15.8611 53.7416 15.3481C53.9373 14.8351 54.0233 14.2903 53.9946 13.7454C53.9658 13.2006 53.8229 12.6666 53.5741 12.1747C53.3254 11.6827 52.9757 11.2426 52.5456 10.88L41.2641 0.394479L40.7806 0ZM19.2231 18H19.2203V21H32.4163V26.7236C32.4163 27.9851 32.333 27.9851 30.9033 27.9851H14.1469C12.4396 27.9851 11.8983 28.4644 11.8983 29.9782V30.9874L31.2781 30.9874C31.8532 31.0306 32.4319 30.9624 32.9759 30.7874C33.5199 30.6124 34.0169 30.3345 34.434 29.9721C34.8511 29.6096 35.179 29.1709 35.3958 28.6849C35.6127 28.1989 35.7137 27.6766 35.6921 27.1525V21H35.6949V18H22.3729V12.7041C22.3729 11.3164 22.453 11.3164 23.8277 11.3164H39.9395C41.5812 11.3164 42.1017 10.7891 42.1017 9.12396V8.01385H23.4673C22.9143 7.96635 22.3579 8.04134 21.8348 8.23386C21.3117 8.42638 20.8339 8.73206 20.4328 9.13072C20.0317 9.52938 19.7165 10.012 19.5079 10.5466C19.2994 11.0812 19.2023 11.6558 19.2231 12.2323V18ZM15.4354 36.7986L13.2194 39L12.7359 38.6055L1.45443 28.12C1.0243 27.7574 0.67465 27.3173 0.425873 26.8253C0.177095 26.3334 0.034164 25.7994 0.00541259 25.2546C-0.0233388 24.7097 0.0626643 24.1649 0.258408 23.6519C0.454152 23.1389 0.755721 22.6679 1.14553 22.2665C3.72141 19.8428 6.31516 17.4473 8.9109 15.05C10.2129 13.8476 11.5154 12.6446 12.8165 11.4374C13.0422 11.223 13.3315 11.0789 13.6458 11.0244C13.9602 10.9698 14.2846 11.0074 14.5758 11.132C14.8764 11.2224 15.1363 11.4057 15.314 11.6525C15.4918 11.8993 15.577 12.1954 15.5563 12.4936L15.5563 21.9611V22.4319H14.5893C12.8568 22.4319 12.3733 21.9865 12.3733 20.3832L12.3733 16.1584C12.2854 16.2334 12.209 16.2974 12.1408 16.3546L12.1405 16.3548L12.1402 16.3551L12.1401 16.3551L12.14 16.3553C12.0002 16.4725 11.895 16.5607 11.7958 16.6547L3.97933 23.8698C3.02578 24.7479 3.02578 25.2696 3.97933 26.1476L14.9922 36.3532L15.4354 36.7986Z" fill="#15A8CB"/>
</svg>
