<svg width="54" height="52" viewBox="0 0 54 52" fill="none" xmlns="http://www.w3.org/2000/svg">
<path d="M19.6364 28.6446L21.3304 26.5222L25.2078 30.1065L33.8969 21.0476L35.5909 23.0396C35.5257 23.1153 35.419 23.255 35.2945 23.3773L26.6973 32.0915C26.3712 32.4175 26.0688 32.7552 25.7427 33.0753C25.6569 33.1852 25.5465 33.2742 25.4201 33.3354C25.2936 33.3967 25.1545 33.4286 25.0135 33.4286C24.8724 33.4286 24.7333 33.3967 24.6069 33.3354C24.4804 33.2742 24.37 33.1852 24.2842 33.0753C23.3 32.0857 20.6029 29.6284 19.6364 28.6446Z" fill="#07A7CB"/>
<path fill-rule="evenodd" clip-rule="evenodd" d="M33.9241 20.129L36.4017 23.0424L36.0539 23.4459C36.0481 23.4527 36.0381 23.4649 36.0247 23.4812C35.9667 23.5519 35.8456 23.6993 35.7262 23.8172L27.1292 32.5314C26.9839 32.6766 26.8431 32.8246 26.6964 32.9789C26.6852 32.9907 26.674 33.0025 26.6627 33.0143C26.5137 33.171 26.3584 33.3336 26.1962 33.4939C26.0563 33.6625 25.8819 33.7985 25.6856 33.8936C25.4758 33.9952 25.2458 34.0477 25.0134 34.0477C24.7809 34.0477 24.551 33.9952 24.3412 33.8936C24.1439 33.798 23.9688 33.6611 23.8285 33.4913C23.3578 33.0199 22.5072 32.2223 21.6317 31.4012L21.5358 31.3113C20.6225 30.4548 19.6949 29.5837 19.2005 29.0805L18.8144 28.6875L21.2626 25.62L25.182 29.2432L33.9241 20.129ZM33.8696 21.9664L25.2335 30.97L21.3981 27.4245L20.4629 28.5962C20.9625 29.0824 21.6614 29.7387 22.3713 30.4045C22.4084 30.4392 22.4455 30.474 22.4826 30.5088C23.3594 31.331 24.2359 32.1529 24.7173 32.6369L24.7433 32.6631L24.7661 32.6923C24.7932 32.727 24.8293 32.7566 24.8724 32.7775C24.9155 32.7984 24.9638 32.8096 25.0134 32.8096C25.063 32.8096 25.1113 32.7984 25.1544 32.7775C25.1975 32.7566 25.2335 32.727 25.2607 32.6923L25.2857 32.6602L25.3147 32.6318C25.4693 32.48 25.6198 32.3225 25.7772 32.1571C25.789 32.1447 25.8009 32.1322 25.8128 32.1196C25.9569 31.9681 26.1075 31.8097 26.2638 31.6534C26.2643 31.6529 26.2648 31.6524 26.2653 31.6519L34.7728 23.0285L33.8696 21.9664Z" fill="#00A6CA"/>
<path d="M12.589 13C13.2515 15.275 13.9141 17.225 14.5767 19.175C14.908 21.125 14.908 21.45 13.5828 22.75C12.9202 23.075 12.9202 23.075 12.2577 23.4C11.2638 20.475 10.2699 17.55 9.27607 14.625C8.94479 13 8.6135 11.7 7.95092 10.075C7.61963 9.1 7.61963 8.125 8.6135 7.475C9.27607 6.825 10.2699 6.825 11.2638 7.15C13.9141 8.125 16.8957 8.775 19.546 9.425C20.2086 9.75 20.5399 9.425 20.8712 9.1C22.1963 6.5 23.5215 3.9 24.8466 1.625C25.5092 0.65 25.8405 0 27.1656 0C28.1595 0 28.8221 0.65 29.4847 1.625C30.8098 3.9 32.135 6.5 33.4601 8.775C33.7914 9.425 34.1227 9.75 35.1166 9.425C37.7669 8.45 40.4172 7.8 43.0675 7.15C44.0614 6.825 45.0552 6.825 45.7178 7.475C46.3804 8.125 46.3804 9.1 46.3804 10.075C45.7178 12.675 44.7239 15.6 44.0614 18.2C43.7301 18.85 44.0614 19.175 44.7239 19.5C47.3742 20.8 49.6933 22.1 52.3436 23.4C53.3374 24.05 54 24.375 54 25.675C54 26.65 53.3374 27.3 52.3436 27.95C49.6933 29.25 47.3742 30.55 44.7239 31.85C44.0614 32.175 44.0614 32.5 44.0614 33.15C45.0552 35.75 45.7178 38.675 46.3804 41.275C46.7117 42.25 46.7117 42.9 46.0491 43.875C45.3865 44.525 44.3926 44.525 43.3988 44.525C40.7485 43.875 37.7669 42.9 35.1166 42.25C34.454 41.925 34.1227 42.25 33.4601 42.9C32.135 45.5 30.8098 47.775 29.4847 50.375C29.1534 51.35 28.4908 52 27.1656 52C26.1718 52 25.5092 51.35 24.8466 50.375C23.5215 48.1 22.1963 45.825 20.8712 43.225C20.5399 42.25 19.8773 42.25 18.8834 42.575C16.2331 43.55 13.5828 44.2 10.9325 44.85C9.93865 45.175 8.94479 45.175 8.28221 44.525C7.61963 43.875 7.61963 42.9 7.95092 41.925C8.6135 39.325 9.60736 36.725 10.2699 33.8C10.6012 32.5 10.6012 32.175 9.93865 31.85C6.95706 30.225 3.97546 28.6 0.993865 26.975C0.662577 26.975 0.331288 26.65 0 26.65C0.0659518 26.5206 0.127946 26.3952 0.186769 26.2731C1.00551 24.5729 2.94144 23.8739 4.63804 24.7V24.7C7.61963 26.325 9.60736 26.975 12.589 28.6C14.2454 29.25 15.5706 30.55 14.908 32.175C14.2454 34.45 13.2515 38.025 12.2577 40.3C13.5828 39.975 14.5767 39 15.9018 39C16.8957 38.675 18.2209 38.025 19.546 37.7C21.2025 37.375 21.865 37.375 22.8589 38.675C23.8528 40.625 26.1718 44.2 27.1656 46.475C27.4969 46.15 28.1595 44.525 28.4908 44.2C29.4847 42.575 30.1472 40.625 31.1411 39C31.8037 37.7 32.4663 37.7 33.7914 38.025C36.1104 38.675 39.4233 39.975 42.0736 40.625C42.0736 40.3 41.411 38.675 41.411 38.35C40.7485 36.4 40.4172 34.775 39.7546 32.825C39.4233 31.525 39.092 30.55 40.4172 29.9C42.0736 28.925 43.7301 27.95 45.3865 26.975C45.7178 26.65 46.7117 26 47.3742 25.675C45.0552 24.375 42.7362 23.075 40.7485 22.1C39.092 21.125 39.092 20.8 39.4233 18.85C40.0859 16.575 40.4172 14.625 41.0798 12.675L41.411 11.7L40.7485 12.025C38.4295 12.675 37.1043 13 34.7853 13.325C32.7975 13.975 31.8037 14.3 30.8098 13C29.816 10.725 28.1595 8.45 27.1656 6.175C26.5031 6.825 25.8405 8.125 25.5092 8.775C24.8466 10.075 24.184 11.375 23.5215 13C22.8589 13.975 22.1963 14.625 20.5399 13.975C18.2209 13.325 16.2331 12.35 13.9141 11.7C13.9141 11.7 11.9264 11.05 11.9264 11.375C11.9264 11.7 12.589 13 12.589 13Z" fill="#09A7CB"/>
</svg>
