<svg width="54" height="30" viewBox="0 0 54 30" fill="none" xmlns="http://www.w3.org/2000/svg">
<path d="M40.6793 3.87769C39.5347 5.00432 39.0008 5.14509 37.9459 6.07143C37.7664 6.24668 37.2162 6.07143 36.8514 6.07143L31.3784 4.28571C31.0135 4.28571 28.9225 3.8354 28.4595 3.87769V11.7641H24.6997V3.87769C20.421 4.27622 15.4757 7.30941 12.0405 10.1827L17.1486 15.3571L14.2411 17.9481L9.12162 12.8571C6.35411 16.2636 4.10567 21.7547 3.64865 26.3237H14.0167V29.9655H2.61553C2.27447 30.0293 1.9248 30.0043 1.59381 29.8925C1.26283 29.7807 0.959488 29.5851 0.707464 29.3209C0.45544 29.0567 0.261552 28.7311 0.140934 28.3696C0.0203155 28.008 -0.0237703 27.6203 0.0121175 27.2366C0.140279 21.0742 2.21477 15.1602 5.86981 10.5373C8.24868 7.44488 11.1666 4.92459 14.4462 3.12979C17.7257 1.335 21.2983 0.303212 24.9466 0.0972026C29.9321 -0.343558 34.9322 0.720106 39.4225 3.17667L40.6793 3.87769Z" fill="#0DA7CB"/>
<path d="M40.2287 26.4286L50.3514 26.3237C49.9115 21.855 48.2786 16.5811 45.6081 13.2143L28.4684 29.661L25.5405 26.7857L45.2432 7.33089C46.2981 8.48256 46.6923 8.85581 47.7696 10.1827C51.4113 14.5706 53.5875 20.4586 53.892 26.4286C53.892 26.754 53.8742 26.8319 53.9864 27.1574C54.0212 27.5085 53.989 27.8639 53.892 28.2002C53.7949 28.5365 53.6351 28.8461 53.4231 29.1086C53.2111 29.3711 52.9518 29.5805 52.662 29.7232C52.3723 29.8659 52.0588 29.9385 51.742 29.9364C47.9267 29.9364 44.1338 29.9364 40.2287 29.9364V26.4286Z" fill="#0DA7CB"/>
</svg>
