<svg width="416" height="262" viewBox="0 0 416 262" fill="none" xmlns="http://www.w3.org/2000/svg">
<g filter="url(#filter0_d_354_66)">
<path d="M178 12.8998C178 11.8506 177.152 11 176.105 11H17.8949C16.8484 11 16 11.8506 16 12.8998V169.1C16 170.149 16.8484 171 17.8949 171H176.105C177.152 171 178 170.149 178 169.1V12.8998Z" fill="white"/>
</g>
<path d="M110.679 42.8777C109.535 44.0043 109.001 44.1451 107.946 45.0714C107.766 45.2467 107.216 45.0714 106.851 45.0714L101.378 43.2857C101.014 43.2857 98.9225 42.8354 98.4595 42.8777V50.7641H94.6997V42.8777C90.421 43.2762 85.4757 46.3094 82.0405 49.1827L87.1486 54.3571L84.2411 56.9481L79.1216 51.8571C76.3541 55.2636 74.1057 60.7547 73.6486 65.3237H84.0167V68.9655H72.6155C72.2745 69.0293 71.9248 69.0043 71.5938 68.8925C71.2628 68.7807 70.9595 68.5851 70.7075 68.3209C70.4554 68.0567 70.2616 67.7311 70.1409 67.3696C70.0203 67.008 69.9762 66.6203 70.0121 66.2366C70.1403 60.0742 72.2148 54.1602 75.8698 49.5373C78.2487 46.4449 81.1666 43.9246 84.4462 42.1298C87.7257 40.335 91.2983 39.3032 94.9466 39.0972C99.9321 38.6564 104.932 39.7201 109.422 42.1767L110.679 42.8777Z" fill="#0DA7CB"/>
<path d="M110.229 65.4286L120.351 65.3237C119.911 60.855 118.279 55.5811 115.608 52.2143L98.4684 68.661L95.5405 65.7857L115.243 46.3309C116.298 47.4826 116.692 47.8558 117.77 49.1827C121.411 53.5706 123.587 59.4586 123.892 65.4286C123.892 65.754 123.874 65.8319 123.986 66.1574C124.021 66.5085 123.989 66.8639 123.892 67.2002C123.795 67.5365 123.635 67.8461 123.423 68.1086C123.211 68.3711 122.952 68.5805 122.662 68.7232C122.372 68.8659 122.059 68.9385 121.742 68.9364C117.927 68.9364 114.134 68.9364 110.229 68.9364V65.4286Z" fill="#0DA7CB"/>
<g filter="url(#filter1_d_354_66)">
<path d="M29 129.075C29 126.825 30.8713 125 33.1797 125H160.82C163.129 125 165 126.825 165 129.075V146.925C165 149.175 163.129 151 160.82 151H33.1797C30.8713 151 29 149.175 29 146.925V129.075Z" fill="#707070"/>
</g>
<path d="M47.0922 138.114C47.0922 141.264 49.4022 143.098 52.0622 143.098C54.0502 143.098 56.0662 142.048 56.5562 139.654H54.9742C54.5402 140.956 53.4062 141.614 52.0622 141.614C50.0602 141.614 48.7302 140.06 48.7302 138.114C48.7302 136.028 50.0602 134.572 52.0622 134.572C53.3502 134.586 54.4422 135.146 54.9322 136.364H56.5002C55.9822 134.152 53.9942 133.088 52.0762 133.088C49.4022 133.088 47.0922 134.95 47.0922 138.114ZM66.045 143V133.2H64.407V137.134H59.927V133.2H58.303V143H59.927V138.632H64.407V143H66.045ZM74.4388 133.2H68.4748V143H74.5228V141.516H70.1128V138.66H74.2008V137.218H70.1128V134.628H74.4388V133.2ZM75.8715 138.114C75.8715 141.264 78.1815 143.098 80.8415 143.098C82.8295 143.098 84.8455 142.048 85.3355 139.654H83.7535C83.3195 140.956 82.1855 141.614 80.8415 141.614C78.8395 141.614 77.5095 140.06 77.5095 138.114C77.5095 136.028 78.8395 134.572 80.8415 134.572C82.1295 134.586 83.2215 135.146 83.7115 136.364H85.2795C84.7615 134.152 82.7735 133.088 80.8555 133.088C78.1815 133.088 75.8715 134.95 75.8715 138.114ZM88.7203 133.2H87.0823V143H88.7203V138.87C89.1963 138.87 90.1343 138.87 90.5543 138.716L93.3543 143H95.2023V142.762L91.9823 138.072C92.6403 137.47 92.9623 136.518 93.2563 135.454C93.5503 134.446 93.9003 134.264 94.8803 134.334V133.214C92.8643 132.836 92.1083 133.718 91.7583 134.978C91.4923 136 91.2123 136.994 90.6383 137.302C90.2043 137.526 89.4623 137.54 88.7203 137.54V133.2ZM99.5919 140.214C99.6339 142.272 101.636 143.224 103.554 143.182C105.388 143.182 107.418 142.37 107.418 140.214C107.418 137.96 105.598 137.568 103.61 137.344C102.476 137.19 101.37 137.05 101.37 135.944C101.37 134.838 102.532 134.474 103.428 134.474C104.394 134.474 105.5 134.81 105.57 135.86H107.11C107.068 133.858 105.304 133.018 103.442 133.018C101.538 133.018 99.7599 133.97 99.7599 135.986C99.7599 137.946 101.538 138.52 103.33 138.674C104.464 138.786 105.794 138.912 105.794 140.2C105.794 141.418 104.562 141.726 103.526 141.726C102.462 141.726 101.258 141.32 101.188 140.214H99.5919ZM108.67 138.114C108.67 141.264 110.98 143.098 113.64 143.098C115.628 143.098 117.644 142.048 118.134 139.654H116.552C116.118 140.956 114.984 141.614 113.64 141.614C111.638 141.614 110.308 140.06 110.308 138.114C110.308 136.028 111.638 134.572 113.64 134.572C114.928 134.586 116.02 135.146 116.51 136.364H118.078C117.56 134.152 115.572 133.088 113.654 133.088C110.98 133.088 108.67 134.95 108.67 138.114ZM129.289 138.1C129.289 134.908 126.979 133.032 124.305 133.032C121.645 133.032 119.307 134.908 119.307 138.1C119.307 141.292 121.589 143.168 124.277 143.168C127.231 143.168 129.289 141.082 129.289 138.1ZM120.959 138.1C120.959 135.832 122.471 134.558 124.319 134.558C126.153 134.558 127.665 135.86 127.665 138.1C127.665 140.382 126.139 141.628 124.305 141.628C122.457 141.628 120.959 140.382 120.959 138.1ZM136.537 139.332C137.783 138.884 138.595 137.75 138.595 136.392C138.595 134.642 137.321 133.2 135.193 133.2H131.147V143H132.785V139.584H134.941L137.377 143H139.029V142.762L136.537 139.332ZM132.757 138.24V134.614H135.179C136.257 134.614 137.013 135.384 137.013 136.406C137.013 137.47 136.243 138.24 135.179 138.24H132.757ZM146.654 133.2H140.69V143H146.738V141.516H142.328V138.66H146.416V137.218H142.328V134.628H146.654V133.2Z" fill="white"/>
<g filter="url(#filter2_d_354_66)">
<path d="M283.88 42.8998C283.88 41.8506 283.032 41 281.985 41H123.775C122.728 41 121.88 41.8506 121.88 42.8998V199.1C121.88 200.149 122.728 201 123.775 201H281.985C283.032 201 283.88 200.149 283.88 199.1V42.8998Z" fill="white"/>
</g>
<path d="M238.746 116.7C238.746 119.378 236.581 121.549 233.91 121.549C231.239 121.549 229.074 119.378 229.074 116.7C229.074 114.022 231.239 111.852 233.91 111.852C236.581 111.852 238.746 114.022 238.746 116.7Z" fill="#DFDFDF"/>
<path fill-rule="evenodd" clip-rule="evenodd" d="M215.781 69L213.565 71.2014L214.008 71.6468L225.021 81.8524C225.974 82.7304 225.974 83.2521 225.021 84.1302L217.204 91.3453C217.105 91.4393 217 91.5276 216.86 91.6448L216.86 91.6449L216.86 91.645C216.791 91.7023 216.715 91.7665 216.627 91.8416V87.6168C216.627 86.0135 216.143 85.5681 214.411 85.5681H213.444V86.0389V95.5064C213.423 95.8046 213.508 96.1007 213.686 96.3475C213.864 96.5943 214.124 96.7776 214.424 96.868C214.715 96.9926 215.04 97.0302 215.354 96.9756C215.669 96.9211 215.958 96.777 216.184 96.5626C217.485 95.3554 218.787 94.1524 220.089 92.9499L220.09 92.9495L220.09 92.9495L220.09 92.9494C222.685 90.5523 225.279 88.157 227.854 85.7335C228.244 85.3321 228.546 84.8611 228.742 84.3481C228.937 83.8351 229.023 83.2903 228.995 82.7454C228.966 82.2006 228.823 81.6666 228.574 81.1747C228.325 80.6827 227.976 80.2426 227.546 79.88L216.264 69.3945L215.781 69ZM194.223 87H194.22V90H207.416V95.7236C207.416 96.9851 207.333 96.9851 205.903 96.9851H189.147C187.44 96.9851 186.898 97.4644 186.898 98.9782V99.9874L206.278 99.9874C206.853 100.031 207.432 99.9624 207.976 99.7874C208.52 99.6124 209.017 99.3345 209.434 98.9721C209.851 98.6096 210.179 98.1709 210.396 97.6849C210.613 97.1989 210.714 96.6766 210.692 96.1525V90H210.695V87H197.373V81.7041C197.373 80.3164 197.453 80.3164 198.828 80.3164H214.94C216.581 80.3164 217.102 79.7891 217.102 78.124V77.0139H198.467C197.914 76.9664 197.358 77.0413 196.835 77.2339C196.312 77.4264 195.834 77.7321 195.433 78.1307C195.032 78.5294 194.716 79.012 194.508 79.5466C194.299 80.0812 194.202 80.6558 194.223 81.2323V87ZM190.435 105.799L188.219 108L187.736 107.606L176.454 97.12C176.024 96.7574 175.675 96.3173 175.426 95.8253C175.177 95.3334 175.034 94.7994 175.005 94.2546C174.977 93.7097 175.063 93.1649 175.258 92.6519C175.454 92.1389 175.756 91.6679 176.146 91.2665C178.721 88.8428 181.315 86.4473 183.911 84.05C185.213 82.8476 186.515 81.6446 187.816 80.4374C188.042 80.223 188.331 80.0789 188.646 80.0244C188.96 79.9698 189.285 80.0074 189.576 80.132C189.876 80.2224 190.136 80.4057 190.314 80.6525C190.492 80.8993 190.577 81.1954 190.556 81.4936L190.556 90.9611V91.4319H189.589C187.857 91.4319 187.373 90.9865 187.373 89.3832L187.373 85.1584C187.285 85.2334 187.209 85.2974 187.141 85.3546L187.141 85.3548L187.14 85.3551L187.14 85.3551L187.14 85.3553C187 85.4725 186.895 85.5607 186.796 85.6547L178.979 92.8698C178.026 93.7479 178.026 94.2696 178.979 95.1476L189.992 105.353L190.435 105.799Z" fill="#15A8CB"/>
<g filter="url(#filter3_d_354_66)">
<path d="M135 159.075C135 156.825 136.871 155 139.18 155H266.82C269.129 155 271 156.825 271 159.075V176.925C271 179.175 269.129 181 266.82 181H139.18C136.871 181 135 179.175 135 176.925V159.075Z" fill="#707070"/>
</g>
<path d="M143.454 168.114C143.454 171.264 145.764 173.098 148.424 173.098C150.412 173.098 152.428 172.048 152.918 169.654H151.336C150.902 170.956 149.768 171.614 148.424 171.614C146.422 171.614 145.092 170.06 145.092 168.114C145.092 166.028 146.422 164.572 148.424 164.572C149.712 164.586 150.804 165.146 151.294 166.364H152.862C152.344 164.152 150.356 163.088 148.438 163.088C145.764 163.088 143.454 164.95 143.454 168.114ZM164.072 168.1C164.072 164.908 161.762 163.032 159.088 163.032C156.428 163.032 154.09 164.908 154.09 168.1C154.09 171.292 156.372 173.168 159.06 173.168C162.014 173.168 164.072 171.082 164.072 168.1ZM155.742 168.1C155.742 165.832 157.254 164.558 159.102 164.558C160.936 164.558 162.448 165.86 162.448 168.1C162.448 170.382 160.922 171.628 159.088 171.628C157.24 171.628 155.742 170.382 155.742 168.1ZM170.522 168.24L166.532 163.172H165.93V173H167.568V166.868L170.41 170.494H170.634L173.462 166.868V173H175.1V163.172H174.498L170.522 168.24ZM179.175 173V170.06H181.597C183.753 170.06 185.055 168.492 185.055 166.658C185.055 164.796 183.781 163.2 181.597 163.2H177.537V173H179.175ZM179.147 168.632V164.614H181.597C182.731 164.614 183.487 165.482 183.487 166.616C183.487 167.75 182.703 168.632 181.597 168.632H179.147ZM191.964 170.97L192.93 173H194.624V172.79L190.116 163.13H189.36L184.824 172.79V173H186.532L187.484 170.97H191.964ZM189.738 165.678L191.446 169.598H188.016L189.738 165.678ZM201.261 169.332C202.507 168.884 203.319 167.75 203.319 166.392C203.319 164.642 202.045 163.2 199.917 163.2H195.871V173H197.509V169.584H199.665L202.101 173H203.753V172.762L201.261 169.332ZM197.481 168.24V164.614H199.903C200.981 164.614 201.737 165.384 201.737 166.406C201.737 167.47 200.967 168.24 199.903 168.24H197.481ZM211.378 163.2H205.414V173H211.462V171.516H207.052V168.66H211.14V167.218H207.052V164.628H211.378V163.2ZM218.646 163.2H217.008V173H222.86V171.53H218.646V163.2ZM233.457 168.1C233.457 164.908 231.147 163.032 228.473 163.032C225.813 163.032 223.475 164.908 223.475 168.1C223.475 171.292 225.757 173.168 228.445 173.168C231.399 173.168 233.457 171.082 233.457 168.1ZM225.127 168.1C225.127 165.832 226.639 164.558 228.487 164.558C230.321 164.558 231.833 165.86 231.833 168.1C231.833 170.382 230.307 171.628 228.473 171.628C226.625 171.628 225.127 170.382 225.127 168.1ZM240.95 170.97L241.916 173H243.61V172.79L239.102 163.13H238.346L233.81 172.79V173H235.518L236.47 170.97H240.95ZM238.724 165.678L240.432 169.598H237.002L238.724 165.678ZM252.348 173.014H252.908V163.2H251.284V166.77L251.396 169.766L245.446 163.172H244.858V173H246.468V169.444L246.356 166.336L252.348 173.014ZM254.756 170.214C254.798 172.272 256.8 173.224 258.718 173.182C260.552 173.182 262.582 172.37 262.582 170.214C262.582 167.96 260.762 167.568 258.774 167.344C257.64 167.19 256.534 167.05 256.534 165.944C256.534 164.838 257.696 164.474 258.592 164.474C259.558 164.474 260.664 164.81 260.734 165.86H262.274C262.232 163.858 260.468 163.018 258.606 163.018C256.702 163.018 254.924 163.97 254.924 165.986C254.924 167.946 256.702 168.52 258.494 168.674C259.628 168.786 260.958 168.912 260.958 170.2C260.958 171.418 259.726 171.726 258.69 171.726C257.626 171.726 256.422 171.32 256.352 170.214H254.756Z" fill="white"/>
<path d="M243.88 172.414C243.88 174.423 245.504 176.051 247.507 176.051H315.209C317.212 176.051 318.835 174.423 318.835 172.414V172.414C318.835 170.406 317.212 168.778 315.209 168.778H247.507C245.504 168.778 243.88 170.406 243.88 172.414V172.414Z" fill="#FBFBFB"/>
<g filter="url(#filter4_d_354_66)">
<path d="M389.76 72.8998C389.76 71.8506 388.911 71 387.865 71H229.655C228.608 71 227.76 71.8506 227.76 72.8998V229.1C227.76 230.149 228.608 231 229.655 231H387.865C388.911 231 389.76 230.149 389.76 229.1V72.8998Z" fill="white"/>
</g>
<path d="M301.636 127.645L303.33 125.522L307.208 129.107L315.897 120.048L317.591 122.04C317.526 122.115 317.419 122.255 317.294 122.377L308.697 131.092C308.371 131.418 308.069 131.755 307.743 132.075C307.657 132.185 307.547 132.274 307.42 132.335C307.294 132.397 307.154 132.429 307.013 132.429C306.872 132.429 306.733 132.397 306.607 132.335C306.48 132.274 306.37 132.185 306.284 132.075C305.3 131.086 302.603 128.628 301.636 127.645Z" fill="#07A7CB"/>
<path fill-rule="evenodd" clip-rule="evenodd" d="M315.924 119.129L318.402 122.042L318.054 122.446C318.048 122.453 318.038 122.465 318.025 122.481C317.967 122.552 317.846 122.699 317.726 122.817L309.129 131.531C308.984 131.677 308.843 131.825 308.696 131.979C308.685 131.991 308.674 132.002 308.663 132.014C308.514 132.171 308.358 132.334 308.196 132.494C308.056 132.662 307.882 132.798 307.686 132.894C307.476 132.995 307.246 133.048 307.013 133.048C306.781 133.048 306.551 132.995 306.341 132.894C306.144 132.798 305.969 132.661 305.828 132.491C305.358 132.02 304.507 131.222 303.632 130.401L303.536 130.311C302.622 129.455 301.695 128.584 301.2 128.08L300.814 127.687L303.263 124.62L307.182 128.243L315.924 119.129ZM315.87 120.966L307.233 129.97L303.398 126.424L302.463 127.596C302.963 128.082 303.661 128.739 304.371 129.404C304.408 129.439 304.446 129.474 304.483 129.509C305.359 130.331 306.236 131.153 306.717 131.637L306.743 131.663L306.766 131.692C306.793 131.727 306.829 131.757 306.872 131.777C306.916 131.798 306.964 131.81 307.013 131.81C307.063 131.81 307.111 131.798 307.154 131.777C307.197 131.757 307.234 131.727 307.261 131.692L307.286 131.66L307.315 131.632C307.469 131.48 307.62 131.322 307.777 131.157C307.789 131.145 307.801 131.132 307.813 131.12C307.957 130.968 308.108 130.81 308.264 130.653C308.264 130.653 308.265 130.652 308.265 130.652L316.773 122.028L315.87 120.966Z" fill="#00A6CA"/>
<path d="M294.589 112C295.252 114.275 295.914 116.225 296.577 118.175C296.908 120.125 296.908 120.45 295.583 121.75C294.92 122.075 294.92 122.075 294.258 122.4C293.264 119.475 292.27 116.55 291.276 113.625C290.945 112 290.613 110.7 289.951 109.075C289.62 108.1 289.62 107.125 290.613 106.475C291.276 105.825 292.27 105.825 293.264 106.15C295.914 107.125 298.896 107.775 301.546 108.425C302.209 108.75 302.54 108.425 302.871 108.1C304.196 105.5 305.521 102.9 306.847 100.625C307.509 99.65 307.84 99 309.166 99C310.16 99 310.822 99.65 311.485 100.625C312.81 102.9 314.135 105.5 315.46 107.775C315.791 108.425 316.123 108.75 317.117 108.425C319.767 107.45 322.417 106.8 325.067 106.15C326.061 105.825 327.055 105.825 327.718 106.475C328.38 107.125 328.38 108.1 328.38 109.075C327.718 111.675 326.724 114.6 326.061 117.2C325.73 117.85 326.061 118.175 326.724 118.5C329.374 119.8 331.693 121.1 334.344 122.4C335.337 123.05 336 123.375 336 124.675C336 125.65 335.337 126.3 334.344 126.95C331.693 128.25 329.374 129.55 326.724 130.85C326.061 131.175 326.061 131.5 326.061 132.15C327.055 134.75 327.718 137.675 328.38 140.275C328.712 141.25 328.712 141.9 328.049 142.875C327.387 143.525 326.393 143.525 325.399 143.525C322.748 142.875 319.767 141.9 317.117 141.25C316.454 140.925 316.123 141.25 315.46 141.9C314.135 144.5 312.81 146.775 311.485 149.375C311.153 150.35 310.491 151 309.166 151C308.172 151 307.509 150.35 306.847 149.375C305.521 147.1 304.196 144.825 302.871 142.225C302.54 141.25 301.877 141.25 300.883 141.575C298.233 142.55 295.583 143.2 292.933 143.85C291.939 144.175 290.945 144.175 290.282 143.525C289.62 142.875 289.62 141.9 289.951 140.925C290.613 138.325 291.607 135.725 292.27 132.8C292.601 131.5 292.601 131.175 291.939 130.85C288.957 129.225 285.975 127.6 282.994 125.975C282.663 125.975 282.331 125.65 282 125.65C282.066 125.521 282.128 125.395 282.187 125.273C283.006 123.573 284.941 122.874 286.638 123.7V123.7C289.62 125.325 291.607 125.975 294.589 127.6C296.245 128.25 297.571 129.55 296.908 131.175C296.245 133.45 295.252 137.025 294.258 139.3C295.583 138.975 296.577 138 297.902 138C298.896 137.675 300.221 137.025 301.546 136.7C303.202 136.375 303.865 136.375 304.859 137.675C305.853 139.625 308.172 143.2 309.166 145.475C309.497 145.15 310.16 143.525 310.491 143.2C311.485 141.575 312.147 139.625 313.141 138C313.804 136.7 314.466 136.7 315.791 137.025C318.11 137.675 321.423 138.975 324.074 139.625C324.074 139.3 323.411 137.675 323.411 137.35C322.748 135.4 322.417 133.775 321.755 131.825C321.423 130.525 321.092 129.55 322.417 128.9C324.074 127.925 325.73 126.95 327.387 125.975C327.718 125.65 328.712 125 329.374 124.675C327.055 123.375 324.736 122.075 322.748 121.1C321.092 120.125 321.092 119.8 321.423 117.85C322.086 115.575 322.417 113.625 323.08 111.675L323.411 110.7L322.748 111.025C320.429 111.675 319.104 112 316.785 112.325C314.798 112.975 313.804 113.3 312.81 112C311.816 109.725 310.16 107.45 309.166 105.175C308.503 105.825 307.84 107.125 307.509 107.775C306.847 109.075 306.184 110.375 305.521 112C304.859 112.975 304.196 113.625 302.54 112.975C300.221 112.325 298.233 111.35 295.914 110.7C295.914 110.7 293.926 110.05 293.926 110.375C293.926 110.7 294.589 112 294.589 112Z" fill="#09A7CB"/>
<g filter="url(#filter5_d_354_66)">
<path d="M241 189.075C241 186.825 242.871 185 245.18 185H372.82C375.129 185 377 186.825 377 189.075V206.925C377 209.175 375.129 211 372.82 211H245.18C242.871 211 241 209.175 241 206.925V189.075Z" fill="#707070"/>
</g>
<path d="M253.352 200.97L254.318 203H256.012V202.79L251.504 193.13H250.748L246.212 202.79V203H247.92L248.872 200.97H253.352ZM251.126 195.678L252.834 199.598H249.404L251.126 195.678ZM258.898 203V200.06H261.32C263.476 200.06 264.778 198.492 264.778 196.658C264.778 194.796 263.504 193.2 261.32 193.2H257.26V203H258.898ZM258.87 198.632V194.614H261.32C262.454 194.614 263.21 195.482 263.21 196.616C263.21 197.75 262.426 198.632 261.32 198.632H258.87ZM268.031 203V200.06H270.453C272.609 200.06 273.911 198.492 273.911 196.658C273.911 194.796 272.637 193.2 270.453 193.2H266.393V203H268.031ZM268.003 198.632V194.614H270.453C271.587 194.614 272.343 195.482 272.343 196.616C272.343 197.75 271.559 198.632 270.453 198.632H268.003ZM277.164 193.2H275.526V203H281.378V201.53H277.164V193.2ZM284.979 197.638L283.803 195.384L282.487 193.2H280.737V193.438L284.195 199.024V203H285.819V199.024L289.263 193.438V193.2H287.527L286.253 195.314L285.035 197.638H284.979ZM299.143 197.75H295.251V194.628H299.535V193.2H293.627V203H295.251V199.192H299.143V197.75ZM310.705 198.1C310.705 194.908 308.395 193.032 305.721 193.032C303.061 193.032 300.723 194.908 300.723 198.1C300.723 201.292 303.005 203.168 305.693 203.168C308.647 203.168 310.705 201.082 310.705 198.1ZM302.375 198.1C302.375 195.832 303.887 194.558 305.735 194.558C307.569 194.558 309.081 195.86 309.081 198.1C309.081 200.382 307.555 201.628 305.721 201.628C303.873 201.628 302.375 200.382 302.375 198.1ZM317.953 199.332C319.199 198.884 320.011 197.75 320.011 196.392C320.011 194.642 318.737 193.2 316.609 193.2H312.563V203H314.201V199.584H316.357L318.793 203H320.445V202.762L317.953 199.332ZM314.173 198.24V194.614H316.595C317.673 194.614 318.429 195.384 318.429 196.406C318.429 197.47 317.659 198.24 316.595 198.24H314.173ZM327.257 193.2H325.619V203H331.471V201.53H327.257V193.2ZM342.068 198.1C342.068 194.908 339.758 193.032 337.084 193.032C334.424 193.032 332.086 194.908 332.086 198.1C332.086 201.292 334.368 203.168 337.056 203.168C340.01 203.168 342.068 201.082 342.068 198.1ZM333.738 198.1C333.738 195.832 335.25 194.558 337.098 194.558C338.932 194.558 340.444 195.86 340.444 198.1C340.444 200.382 338.918 201.628 337.084 201.628C335.236 201.628 333.738 200.382 333.738 198.1ZM349.561 200.97L350.527 203H352.221V202.79L347.713 193.13H346.957L342.421 202.79V203H344.129L345.081 200.97H349.561ZM347.335 195.678L349.043 199.598H345.613L347.335 195.678ZM360.959 203.014H361.519V193.2H359.895V196.77L360.007 199.766L354.057 193.172H353.469V203H355.079V199.444L354.967 196.336L360.959 203.014ZM363.367 200.214C363.409 202.272 365.411 203.224 367.329 203.182C369.163 203.182 371.193 202.37 371.193 200.214C371.193 197.96 369.373 197.568 367.385 197.344C366.251 197.19 365.145 197.05 365.145 195.944C365.145 194.838 366.307 194.474 367.203 194.474C368.169 194.474 369.275 194.81 369.345 195.86H370.885C370.843 193.858 369.079 193.018 367.217 193.018C365.313 193.018 363.535 193.97 363.535 195.986C363.535 197.946 365.313 198.52 367.105 198.674C368.239 198.786 369.569 198.912 369.569 200.2C369.569 201.418 368.337 201.726 367.301 201.726C366.237 201.726 365.033 201.32 364.963 200.214H363.367Z" fill="white"/>
<defs>
<filter id="filter0_d_354_66" x="4.57764e-05" y="0" width="204" height="202" filterUnits="userSpaceOnUse" color-interpolation-filters="sRGB">
<feFlood flood-opacity="0" result="BackgroundImageFix"/>
<feColorMatrix in="SourceAlpha" type="matrix" values="0 0 0 0 0 0 0 0 0 0 0 0 0 0 0 0 0 0 127 0" result="hardAlpha"/>
<feOffset dx="5" dy="10"/>
<feGaussianBlur stdDeviation="10.5"/>
<feColorMatrix type="matrix" values="0 0 0 0 0 0 0 0 0 0 0 0 0 0 0 0 0 0 0.09 0"/>
<feBlend mode="normal" in2="BackgroundImageFix" result="effect1_dropShadow_354_66"/>
<feBlend mode="normal" in="SourceGraphic" in2="effect1_dropShadow_354_66" result="shape"/>
</filter>
<filter id="filter1_d_354_66" x="29" y="125" width="140" height="30" filterUnits="userSpaceOnUse" color-interpolation-filters="sRGB">
<feFlood flood-opacity="0" result="BackgroundImageFix"/>
<feColorMatrix in="SourceAlpha" type="matrix" values="0 0 0 0 0 0 0 0 0 0 0 0 0 0 0 0 0 0 127 0" result="hardAlpha"/>
<feOffset dx="3" dy="3"/>
<feGaussianBlur stdDeviation="0.5"/>
<feColorMatrix type="matrix" values="0 0 0 0 0 0 0 0 0 0 0 0 0 0 0 0 0 0 0.05 0"/>
<feBlend mode="normal" in2="BackgroundImageFix" result="effect1_dropShadow_354_66"/>
<feBlend mode="normal" in="SourceGraphic" in2="effect1_dropShadow_354_66" result="shape"/>
</filter>
<filter id="filter2_d_354_66" x="105.88" y="30" width="204" height="202" filterUnits="userSpaceOnUse" color-interpolation-filters="sRGB">
<feFlood flood-opacity="0" result="BackgroundImageFix"/>
<feColorMatrix in="SourceAlpha" type="matrix" values="0 0 0 0 0 0 0 0 0 0 0 0 0 0 0 0 0 0 127 0" result="hardAlpha"/>
<feOffset dx="5" dy="10"/>
<feGaussianBlur stdDeviation="10.5"/>
<feColorMatrix type="matrix" values="0 0 0 0 0 0 0 0 0 0 0 0 0 0 0 0 0 0 0.09 0"/>
<feBlend mode="normal" in2="BackgroundImageFix" result="effect1_dropShadow_354_66"/>
<feBlend mode="normal" in="SourceGraphic" in2="effect1_dropShadow_354_66" result="shape"/>
</filter>
<filter id="filter3_d_354_66" x="135" y="155" width="140" height="30" filterUnits="userSpaceOnUse" color-interpolation-filters="sRGB">
<feFlood flood-opacity="0" result="BackgroundImageFix"/>
<feColorMatrix in="SourceAlpha" type="matrix" values="0 0 0 0 0 0 0 0 0 0 0 0 0 0 0 0 0 0 127 0" result="hardAlpha"/>
<feOffset dx="3" dy="3"/>
<feGaussianBlur stdDeviation="0.5"/>
<feColorMatrix type="matrix" values="0 0 0 0 0 0 0 0 0 0 0 0 0 0 0 0 0 0 0.05 0"/>
<feBlend mode="normal" in2="BackgroundImageFix" result="effect1_dropShadow_354_66"/>
<feBlend mode="normal" in="SourceGraphic" in2="effect1_dropShadow_354_66" result="shape"/>
</filter>
<filter id="filter4_d_354_66" x="211.76" y="60" width="204" height="202" filterUnits="userSpaceOnUse" color-interpolation-filters="sRGB">
<feFlood flood-opacity="0" result="BackgroundImageFix"/>
<feColorMatrix in="SourceAlpha" type="matrix" values="0 0 0 0 0 0 0 0 0 0 0 0 0 0 0 0 0 0 127 0" result="hardAlpha"/>
<feOffset dx="5" dy="10"/>
<feGaussianBlur stdDeviation="10.5"/>
<feColorMatrix type="matrix" values="0 0 0 0 0 0 0 0 0 0 0 0 0 0 0 0 0 0 0.09 0"/>
<feBlend mode="normal" in2="BackgroundImageFix" result="effect1_dropShadow_354_66"/>
<feBlend mode="normal" in="SourceGraphic" in2="effect1_dropShadow_354_66" result="shape"/>
</filter>
<filter id="filter5_d_354_66" x="241" y="185" width="140" height="30" filterUnits="userSpaceOnUse" color-interpolation-filters="sRGB">
<feFlood flood-opacity="0" result="BackgroundImageFix"/>
<feColorMatrix in="SourceAlpha" type="matrix" values="0 0 0 0 0 0 0 0 0 0 0 0 0 0 0 0 0 0 127 0" result="hardAlpha"/>
<feOffset dx="3" dy="3"/>
<feGaussianBlur stdDeviation="0.5"/>
<feColorMatrix type="matrix" values="0 0 0 0 0 0 0 0 0 0 0 0 0 0 0 0 0 0 0.05 0"/>
<feBlend mode="normal" in2="BackgroundImageFix" result="effect1_dropShadow_354_66"/>
<feBlend mode="normal" in="SourceGraphic" in2="effect1_dropShadow_354_66" result="shape"/>
</filter>
</defs>
</svg>
