<svg version="1.2" baseProfile="tiny-ps" xmlns="http://www.w3.org/2000/svg" viewBox="0 0 337 181" width="337" height="181">
	<title>Group 24688-svg</title>
	<style>
		tspan { white-space:pre }
		.shp0 { fill: #3ea3ce } 
		.shp1 { fill: #ffffff } 
		.shp2 { fill: #2c2c2c } 
	</style>
	<path id="Layer" class="shp0" d="M20 40C8.94 40 0 31.06 0 20C0 8.94 8.94 0 20 0C31.06 0 40 8.94 40 20C40 31.06 31.06 40 20 40Z" />
	<path id="Layer" class="shp1" d="M17.34 15.67L17.34 13.8L21.29 13.8L21.29 23.16L23.22 23.16L23.22 25L17.11 25L17.11 23.16L19 23.16L19 15.67L17.34 15.67Z" />
	<path id="Layer" fill-rule="evenodd" class="shp2" d="M57.43 12.67C59.62 12.67 61.9 13.89 62.49 16.42L60.7 16.42C60.14 15.02 58.89 14.38 57.42 14.37C55.13 14.37 53.61 16.03 53.61 18.42C53.61 20.64 55.13 22.42 57.42 22.42C58.95 22.42 60.25 21.66 60.74 20.18L62.55 20.18C61.99 22.91 59.69 24.11 57.42 24.11C54.38 24.11 51.74 22.02 51.74 18.42C51.74 14.8 54.38 12.67 57.43 12.67ZM70.13 24L70.13 19.44C70.15 18.16 69.43 17.52 68.34 17.5C67.2 17.5 66.36 18.27 66.36 19.54L66.36 24L64.61 24L64.61 12.3L66.36 12.3L66.36 17.23C67.01 16.35 67.81 16.11 68.84 16.11C70.96 16.11 71.89 17.46 71.89 19.44L71.89 24L70.13 24ZM81.31 20.46L75.62 20.46C75.62 21.87 76.72 22.7 78.13 22.7C79.09 22.75 80.02 22.62 80.93 22.22L81.15 23.52C80.26 23.92 79.22 24.18 78.24 24.18C75.7 24.22 73.83 22.59 73.91 19.98C73.95 17.41 75.81 16.11 77.91 16.11C80.61 16.11 81.83 17.9 81.31 20.46ZM75.65 19.23L79.91 19.23C79.95 18.06 78.99 17.46 77.89 17.46C76.74 17.46 75.89 18.02 75.65 19.23ZM89.21 18.85C88.88 18.02 88.06 17.62 87.17 17.62C85.98 17.62 84.77 18.48 84.77 20.11C84.77 21.78 85.97 22.62 87.13 22.62C88 22.62 88.86 22.16 89.21 21.22L90.88 21.22C90.48 23.17 88.8 24.13 87.1 24.13C85.09 24.13 83.04 22.78 83.04 20.11C83.04 17.46 85.09 16.08 87.09 16.06C88.77 16.05 90.41 16.96 90.83 18.85L89.21 18.85ZM95.41 19.3C97.35 19.3 98.04 18.11 98.04 16.27L99.68 16.27C99.73 17.94 99.27 19.31 97.67 20.05L100.07 23.82L100.07 24L98.32 24L96.2 20.61C95.96 20.67 95.65 20.69 95.38 20.69L94.61 20.69L94.61 24L92.88 24L92.88 12.3L94.61 12.3L94.61 19.3L95.41 19.3ZM109.82 24.66C108.92 26.93 107.97 28.75 105.29 27.6L105.5 26.34C106.88 26.94 107.55 26.27 108.01 24.99L108.38 24.05L104.91 16.48L104.91 16.29L106.78 16.29L107.92 18.98L109.18 22.37L109.23 22.37L110.4 18.99L111.42 16.29L113.17 16.29L113.17 16.48L109.82 24.66ZM118.32 24.14C116.29 24.14 114.25 22.8 114.25 20.11C114.25 17.46 116.24 16.13 118.25 16.1C120.32 16.06 122.4 17.41 122.4 20.11C122.4 22.8 120.35 24.14 118.32 24.14ZM118.35 22.61C119.5 22.59 120.66 21.76 120.66 20.11C120.66 18.43 119.44 17.6 118.25 17.63C117.1 17.66 115.98 18.48 115.98 20.11C115.98 21.79 117.17 22.62 118.35 22.61ZM131.53 16.29L131.53 21.79C131.53 22.72 131.61 22.98 132.35 22.9L132.36 24.03C131.37 24.21 129.96 24.42 129.96 22.75C129.44 23.79 128.38 24.13 127.29 24.13C125.16 24.13 124.41 22.64 124.41 20.75L124.41 16.29L126.17 16.29L126.17 20.75C126.16 21.98 126.81 22.74 127.84 22.74C128.94 22.74 129.79 21.94 129.79 20.7L129.79 16.29L131.53 16.29ZM138.53 16.03C139.18 16.02 139.81 16.21 140.31 16.58L139.88 18.08C139.41 17.78 138.9 17.62 138.34 17.62C137.3 17.62 136.38 18.29 136.38 19.54L136.38 24L134.65 24L134.65 18.4C134.65 17.71 134.65 17.36 133.81 17.41L133.8 16.22C134.94 15.97 136.18 16.16 136.26 17.41C136.57 16.51 137.59 16.03 138.53 16.03ZM151.12 12.67C153.32 12.67 155.59 13.89 156.18 16.42L154.39 16.42C153.83 15.02 152.58 14.38 151.11 14.37C148.82 14.37 147.3 16.03 147.3 18.42C147.3 20.64 148.82 22.42 151.11 22.42C152.64 22.42 153.94 21.66 154.44 20.18L156.24 20.18C155.68 22.91 153.38 24.11 151.11 24.11C148.07 24.11 145.43 22.02 145.43 18.42C145.43 14.8 148.07 12.67 151.12 12.67ZM163.22 22.5L163.22 24L157.81 24L157.81 22.5L159.58 22.5L159.58 14.29L157.95 14.29L157.95 12.8L163.07 12.8L163.07 14.29L161.44 14.29L161.44 22.5L163.22 22.5ZM172.32 18.11C173.49 18.51 174.13 19.44 174.13 20.7C174.13 22.7 172.75 24 170.58 24L165.57 24L165.57 12.8L170.11 12.8C172.14 12.8 173.63 13.84 173.63 15.95C173.63 16.9 173.2 17.68 172.32 18.11ZM167.42 14.42L167.42 17.5L169.98 17.5C171.06 17.5 171.79 17.09 171.81 16C171.81 14.9 171.07 14.42 169.98 14.42L167.42 14.42ZM167.42 19.02L167.42 22.37L170.46 22.37C171.5 22.37 172.24 21.78 172.29 20.7C172.29 20.14 172.1 19.7 171.71 19.38C171.28 19.06 170.77 19.02 170.26 19.02L167.42 19.02ZM181.25 22.5L181.25 24L175.84 24L175.84 22.5L177.62 22.5L177.62 14.29L175.98 14.29L175.98 12.8L181.1 12.8L181.1 14.29L179.47 14.29L179.47 22.5L181.25 22.5ZM185.47 22.32L190.29 22.32L190.29 24L183.6 24L183.6 12.8L185.47 12.8L185.47 22.32ZM197.26 20.82C197.34 22.08 198.72 22.54 199.94 22.54C201.12 22.54 202.53 22.19 202.53 20.8C202.53 19.33 201.01 19.18 199.71 19.06C197.66 18.88 195.63 18.22 195.63 15.98C195.63 13.68 197.66 12.59 199.84 12.59C201.97 12.59 203.99 13.55 204.03 15.84L202.27 15.84C202.19 14.64 200.93 14.26 199.82 14.26C198.8 14.26 197.47 14.67 197.47 15.94C197.47 17.2 198.74 17.36 200.03 17.54C202.31 17.79 204.38 18.24 204.38 20.82C204.38 23.28 202.06 24.21 199.97 24.21C197.78 24.26 195.49 23.17 195.44 20.82L197.26 20.82ZM212.23 18.85C211.9 18.02 211.08 17.62 210.19 17.62C209 17.62 207.78 18.48 207.78 20.11C207.78 21.78 208.99 22.62 210.15 22.62C211.02 22.62 211.88 22.16 212.23 21.22L213.9 21.22C213.5 23.17 211.82 24.13 210.12 24.13C208.1 24.13 206.06 22.78 206.06 20.11C206.06 17.46 208.1 16.08 210.1 16.06C211.78 16.05 213.43 16.96 213.85 18.85L212.23 18.85ZM219.49 24.14C217.46 24.14 215.42 22.8 215.42 20.11C215.42 17.46 217.41 16.13 219.42 16.1C221.49 16.06 223.57 17.41 223.57 20.11C223.57 22.8 221.52 24.14 219.49 24.14ZM219.52 22.61C220.67 22.59 221.82 21.76 221.82 20.11C221.82 18.43 220.61 17.6 219.42 17.63C218.27 17.66 217.15 18.48 217.15 20.11C217.15 21.79 218.34 22.62 219.52 22.61ZM229.84 16.03C230.48 16.02 231.12 16.21 231.61 16.58L231.18 18.08C230.72 17.78 230.21 17.62 229.65 17.62C228.6 17.62 227.68 18.29 227.68 19.54L227.68 24L225.95 24L225.95 18.4C225.95 17.71 225.95 17.36 225.12 17.41L225.1 16.22C226.24 15.97 227.49 16.16 227.56 17.41C227.87 16.51 228.89 16.03 229.84 16.03ZM239.96 20.46L234.26 20.46C234.26 21.87 235.36 22.7 236.77 22.7C237.73 22.75 238.66 22.62 239.57 22.22L239.8 23.52C238.9 23.92 237.86 24.18 236.88 24.18C234.34 24.22 232.47 22.59 232.55 19.98C232.6 17.41 234.45 16.11 236.55 16.11C239.25 16.11 240.47 17.9 239.96 20.46ZM234.29 19.23L238.55 19.23C238.6 18.06 237.64 17.46 236.53 17.46C235.38 17.46 234.53 18.02 234.29 19.23Z" />
	<path id="Layer" class="shp0" d="M20 110C8.94 110 0 101.06 0 90C0 78.94 8.94 70 20 70C31.06 70 40 78.94 40 90C40 101.06 31.06 110 20 110Z" />
	<path id="Layer" class="shp1" d="M19.92 85.67C19.28 85.67 18.53 85.99 18.53 87.1L16.48 87.1C16.48 84.9 17.79 83.62 19.98 83.62C23.15 83.62 24.35 86.82 22.13 89.78C21.79 90.25 21.3 91.08 19.87 92.92L23.52 92.92L23.52 95L16.34 95L16.34 94.49L20.3 88.92C20.7 88.36 21.1 87.72 21.15 87.06C21.2 86.14 20.58 85.67 19.92 85.67Z" />
	<path id="Layer" fill-rule="evenodd" class="shp2" d="M59.43 83.67C61.62 83.67 63.9 84.89 64.49 87.42L62.7 87.42C62.14 86.02 60.89 85.38 59.42 85.37C57.13 85.37 55.61 87.03 55.61 89.42C55.61 91.64 57.13 93.42 59.42 93.42C60.95 93.42 62.25 92.66 62.74 91.18L64.55 91.18C63.99 93.91 61.69 95.11 59.42 95.11C56.38 95.11 53.74 93.02 53.74 89.42C53.74 85.8 56.38 83.67 59.43 83.67ZM70.2 95.14C68.16 95.14 66.13 93.8 66.13 91.11C66.13 88.46 68.12 87.13 70.13 87.1C72.2 87.06 74.28 88.41 74.28 91.11C74.28 93.8 72.23 95.14 70.2 95.14ZM70.23 93.61C71.38 93.59 72.53 92.76 72.53 91.11C72.53 89.43 71.32 88.6 70.13 88.63C68.98 88.66 67.86 89.48 67.86 91.11C67.86 92.79 69.04 93.62 70.23 93.61ZM86.83 95L86.83 90.49C86.85 89.34 86.37 88.52 85.35 88.54C84.27 88.55 83.55 89.32 83.54 90.54L83.54 95L81.83 95L81.83 90.54C81.83 89.34 81.33 88.54 80.24 88.55C79.15 88.57 78.37 89.34 78.37 90.55L78.37 95L76.63 95L76.63 89.48C76.63 88.58 76.58 88.3 75.81 88.34L75.79 87.27C76.82 87.02 78.26 86.94 78.21 88.55C78.64 87.61 79.78 87.13 80.83 87.13C82.18 87.13 82.87 87.64 83.17 88.58C83.6 87.56 84.8 87.13 85.99 87.13C88.1 87.13 88.64 88.63 88.59 90.49L88.59 95L86.83 95ZM95.42 87.08C97.69 87.08 98.9 88.98 98.9 91.1C98.9 93.58 97.11 95.18 95.05 95.08C94.41 95.05 93.74 94.86 93.1 94.47L93.1 98.97L91.35 98.97L91.35 89.75C91.35 88.86 91.43 88.42 90.54 88.42L90.52 87.22C91.8 86.97 92.78 87.18 92.78 88.54C93.22 87.46 94.31 87.08 95.42 87.08ZM93.06 92.94C93.7 93.38 94.41 93.59 95.03 93.56C96.2 93.51 97.14 92.66 97.14 91.1C97.14 89.82 96.46 88.63 95.06 88.63C93.86 88.63 93.06 89.62 93.06 90.78L93.06 92.94ZM103.19 95.14C101.78 95.14 100.42 94.25 100.42 92.74C100.37 90.9 101.71 90.02 103.41 90.02C104.16 90.02 105.01 90.22 105.7 90.6L105.7 89.83C105.7 87.8 102.23 88.47 101.27 88.95L101.01 87.7C101.79 87.3 102.83 87.1 103.86 87.1C105.73 87.1 107.39 87.75 107.39 89.88L107.39 92.92C107.39 93.64 107.36 94.1 108.19 94.02L108.23 95.02C107.01 95.22 106.07 95.22 106.02 93.7C105.51 94.73 104.27 95.14 103.19 95.14ZM105.7 91.72C105.12 91.38 104.39 91.18 103.7 91.19C102.85 91.21 102.13 91.7 102.13 92.65C102.13 93.42 102.83 93.77 103.54 93.77C104.45 93.77 105.52 93.34 105.7 92.36L105.7 91.72ZM114.27 87.03C114.91 87.02 115.55 87.21 116.05 87.58L115.61 89.08C115.15 88.78 114.64 88.62 114.08 88.62C113.04 88.62 112.11 89.29 112.11 90.54L112.11 95L110.38 95L110.38 89.4C110.38 88.71 110.38 88.36 109.55 88.41L109.53 87.22C110.67 86.97 111.92 87.16 112 88.41C112.3 87.51 113.33 87.03 114.27 87.03ZM124.39 91.46L118.69 91.46C118.69 92.87 119.8 93.7 121.21 93.7C122.17 93.75 123.09 93.62 124.01 93.22L124.23 94.52C123.33 94.92 122.29 95.18 121.32 95.18C118.77 95.22 116.9 93.59 116.98 90.98C117.03 88.41 118.89 87.11 120.98 87.11C123.69 87.11 124.9 88.9 124.39 91.46ZM118.73 90.23L122.98 90.23C123.03 89.06 122.07 88.46 120.97 88.46C119.81 88.46 118.97 89.02 118.73 90.23ZM134.48 95.66C133.58 97.93 132.62 99.75 129.95 98.6L130.16 97.34C131.53 97.94 132.2 97.27 132.67 95.99L133.04 95.05L129.56 87.48L129.56 87.29L131.44 87.29L132.57 89.98L133.84 93.37L133.88 93.37L135.05 89.99L136.08 87.29L137.82 87.29L137.82 87.48L134.48 95.66ZM142.97 95.14C140.94 95.14 138.91 93.8 138.91 91.11C138.91 88.46 140.9 87.13 142.91 87.1C144.97 87.06 147.06 88.41 147.06 91.11C147.06 93.8 145.01 95.14 142.97 95.14ZM143.01 93.61C144.16 93.59 145.31 92.76 145.31 91.11C145.31 89.43 144.09 88.6 142.91 88.63C141.76 88.66 140.64 89.48 140.64 91.11C140.64 92.79 141.82 93.62 143.01 93.61ZM156.19 87.29L156.19 92.79C156.19 93.72 156.27 93.98 157 93.9L157.02 95.03C156.03 95.21 154.62 95.42 154.62 93.75C154.09 94.79 153.04 95.13 151.95 95.13C149.82 95.13 149.07 93.64 149.07 91.75L149.07 87.29L150.83 87.29L150.83 91.75C150.81 92.98 151.47 93.74 152.49 93.74C153.6 93.74 154.44 92.94 154.44 91.7L154.44 87.29L156.19 87.29ZM163.19 87.03C163.83 87.02 164.47 87.21 164.97 87.58L164.53 89.08C164.07 88.78 163.56 88.62 163 88.62C161.96 88.62 161.03 89.29 161.03 90.54L161.03 95L159.3 95L159.3 89.4C159.3 88.71 159.3 88.36 158.47 88.41L158.46 87.22C159.59 86.97 160.84 87.16 160.92 88.41C161.22 87.51 162.25 87.03 163.19 87.03ZM172.13 83.29L172.13 92.23C172.13 93.51 172.47 93.91 173.8 93.7L173.86 95.05C171.49 95.43 170.4 94.82 170.4 92.25L170.4 83.29L172.13 83.29ZM179 95.14C176.97 95.14 174.93 93.8 174.93 91.11C174.93 88.46 176.92 87.13 178.93 87.1C181 87.06 183.08 88.41 183.08 91.11C183.08 93.8 181.03 95.14 179 95.14ZM179.03 93.61C180.18 93.59 181.33 92.76 181.33 91.11C181.33 89.43 180.12 88.6 178.93 88.63C177.78 88.66 176.66 89.48 176.66 91.11C176.66 92.79 177.84 93.62 179.03 93.61ZM187.36 95.14C185.95 95.14 184.59 94.25 184.59 92.74C184.55 90.9 185.89 90.02 187.59 90.02C188.34 90.02 189.19 90.22 189.87 90.6L189.87 89.83C189.87 87.8 186.4 88.47 185.44 88.95L185.19 87.7C185.97 87.3 187.01 87.1 188.03 87.1C189.91 87.1 191.57 87.75 191.57 89.88L191.57 92.92C191.57 93.64 191.54 94.1 192.37 94.02L192.4 95.02C191.19 95.22 190.24 95.22 190.19 93.7C189.68 94.73 188.45 95.14 187.36 95.14ZM189.87 91.72C189.3 91.38 188.56 91.18 187.87 91.19C187.03 91.21 186.31 91.7 186.31 92.65C186.31 93.42 187.01 93.77 187.71 93.77C188.63 93.77 189.7 93.34 189.87 92.36L189.87 91.72ZM200.06 95L200.06 90.47C200.08 89.27 199.29 88.54 198.25 88.52C197.17 88.52 196.3 89.37 196.3 90.62L196.3 95L194.54 95L194.54 89.53C194.54 88.62 194.51 88.36 193.73 88.41L193.73 87.27C194.85 87.06 196.14 87 196.14 88.47C196.57 87.5 197.76 87.13 198.77 87.13C200.86 87.13 201.82 88.57 201.82 90.47L201.82 95L200.06 95ZM212.23 95.14C210.2 95.14 208.17 93.8 208.17 91.11C208.17 88.46 210.15 87.13 212.17 87.1C214.23 87.06 216.31 88.41 216.31 91.11C216.31 93.8 214.26 95.14 212.23 95.14ZM212.26 93.61C213.41 93.59 214.57 92.76 214.57 91.11C214.57 89.43 213.35 88.6 212.17 88.63C211.01 88.66 209.89 89.48 209.89 91.11C209.89 92.79 211.08 93.62 212.26 93.61ZM218.98 88.63L217.56 88.63L217.56 87.32L219.01 87.32L219.01 86.28C219.01 83.24 221.35 82.78 223.76 83.58L223.57 84.79C222.21 84.23 220.69 84.39 220.69 86.31L220.69 87.32L223.3 87.32L223.3 88.63L220.69 88.63L220.69 95L218.98 95L218.98 88.63ZM225.6 88.63L224.17 88.63L224.17 87.32L225.63 87.32L225.63 86.28C225.63 83.24 227.97 82.78 230.38 83.58L230.19 84.79C228.83 84.23 227.31 84.39 227.31 86.31L227.31 87.32L229.92 87.32L229.92 88.63L227.31 88.63L227.31 95L225.6 95L225.6 88.63ZM238.35 91.46L232.65 91.46C232.65 92.87 233.75 93.7 235.16 93.7C236.12 93.75 237.05 93.62 237.96 93.22L238.19 94.52C237.29 94.92 236.25 95.18 235.28 95.18C232.73 95.22 230.86 93.59 230.94 90.98C230.99 88.41 232.84 87.11 234.94 87.11C237.64 87.11 238.86 88.9 238.35 91.46ZM232.68 90.23L236.94 90.23C236.99 89.06 236.03 88.46 234.92 88.46C233.77 88.46 232.92 89.02 232.68 90.23ZM244.71 87.03C245.35 87.02 245.99 87.21 246.49 87.58L246.06 89.08C245.59 88.78 245.08 88.62 244.52 88.62C243.48 88.62 242.55 89.29 242.55 90.54L242.55 95L240.82 95L240.82 89.4C240.82 88.71 240.82 88.36 239.99 88.41L239.97 87.22C241.11 86.97 242.36 87.16 242.44 88.41C242.74 87.51 243.77 87.03 244.71 87.03ZM249.18 92.73C249.23 93.53 250.11 93.9 250.94 93.9C251.79 93.9 252.73 93.66 252.78 92.71C252.78 92.01 252.06 91.8 251.05 91.67C249.47 91.46 247.69 91.29 247.64 89.54C247.64 87.9 249.24 87.13 250.92 87.13C252.7 87.13 254.25 87.91 254.2 89.45L252.67 89.45C252.67 88.68 251.74 88.44 250.92 88.44C250.12 88.44 249.29 88.82 249.34 89.51C249.36 90.15 249.98 90.3 251.18 90.44C252.8 90.65 254.36 90.92 254.36 92.74C254.36 94.46 252.72 95.19 251 95.19C249.29 95.19 247.6 94.65 247.47 92.73L249.18 92.73Z" />
	<path id="Layer" class="shp0" d="M20 181C8.94 181 0 172.06 0 161C0 149.94 8.94 141 20 141C31.06 141 40 149.94 40 161C40 172.06 31.06 181 20 181Z" />
	<path id="Layer" fill-rule="evenodd" class="shp2" d="M54.06 162.68L52.97 165L51.02 165L51.02 164.76L56.2 153.72L57.06 153.72L62.22 164.76L62.22 165L60.28 165L59.18 162.68L54.06 162.68ZM54.66 161.11L58.58 161.11L56.63 156.63L54.66 161.11ZM68.03 157.08C70.3 157.08 71.51 158.98 71.51 161.1C71.51 163.58 69.72 165.18 67.66 165.08C67.02 165.05 66.35 164.86 65.71 164.47L65.71 168.97L63.96 168.97L63.96 159.75C63.96 158.86 64.04 158.42 63.15 158.42L63.13 157.22C64.41 156.97 65.39 157.18 65.39 158.54C65.83 157.46 66.92 157.08 68.03 157.08ZM65.67 162.94C66.31 163.38 67.02 163.59 67.64 163.56C68.81 163.51 69.75 162.66 69.75 161.1C69.75 159.82 69.07 158.63 67.67 158.63C66.47 158.63 65.67 159.62 65.67 160.78L65.67 162.94ZM77.94 157.08C80.21 157.08 81.43 158.98 81.43 161.1C81.43 163.58 79.64 165.18 77.57 165.08C76.93 165.05 76.26 164.86 75.62 164.47L75.62 168.97L73.88 168.97L73.88 159.75C73.88 158.86 73.96 158.42 73.06 158.42L73.04 157.22C74.32 156.97 75.3 157.18 75.3 158.54C75.75 157.46 76.84 157.08 77.94 157.08ZM75.59 162.94C76.23 163.38 76.93 163.59 77.56 163.56C78.72 163.51 79.67 162.66 79.67 161.1C79.67 159.82 78.98 158.63 77.59 158.63C76.39 158.63 75.59 159.62 75.59 160.78L75.59 162.94ZM85.18 153.29L85.18 162.23C85.18 163.51 85.52 163.91 86.85 163.7L86.91 165.05C84.54 165.43 83.45 164.82 83.45 162.25L83.45 153.29L85.18 153.29ZM92.21 165.66C91.32 167.93 90.36 169.75 87.68 168.6L87.89 167.34C89.27 167.94 89.94 167.27 90.4 165.99L90.77 165.05L87.3 157.48L87.3 157.29L89.17 157.29L90.31 159.98L91.57 163.37L91.62 163.37L92.79 159.99L93.81 157.29L95.56 157.29L95.56 157.48L92.21 165.66ZM101.76 158.63L100.33 158.63L100.33 157.32L101.79 157.32L101.79 156.28C101.79 153.24 104.13 152.78 106.54 153.58L106.35 154.79C104.99 154.23 103.47 154.39 103.47 156.31L103.47 157.32L106.08 157.32L106.08 158.63L103.47 158.63L103.47 165L101.76 165L101.76 158.63ZM111.16 165.14C109.13 165.14 107.1 163.8 107.1 161.11C107.1 158.46 109.08 157.13 111.1 157.1C113.16 157.06 115.24 158.41 115.24 161.11C115.24 163.8 113.19 165.14 111.16 165.14ZM111.19 163.61C112.35 163.59 113.5 162.76 113.5 161.11C113.5 159.43 112.28 158.6 111.1 158.63C109.95 158.66 108.83 159.48 108.83 161.11C108.83 162.79 110.01 163.62 111.19 163.61ZM121.51 157.03C122.15 157.02 122.79 157.21 123.29 157.58L122.86 159.08C122.39 158.78 121.88 158.62 121.32 158.62C120.28 158.62 119.35 159.29 119.35 160.54L119.35 165L117.62 165L117.62 159.4C117.62 158.71 117.62 158.36 116.79 158.41L116.78 157.22C117.91 156.97 119.16 157.16 119.24 158.41C119.54 157.51 120.57 157.03 121.51 157.03ZM130.45 153.29L130.45 162.23C130.45 163.51 130.79 163.91 132.12 163.7L132.18 165.05C129.81 165.43 128.72 164.82 128.72 162.25L128.72 153.29L130.45 153.29ZM137.32 165.14C135.29 165.14 133.25 163.8 133.25 161.11C133.25 158.46 135.24 157.13 137.25 157.1C139.32 157.06 141.4 158.41 141.4 161.11C141.4 163.8 139.35 165.14 137.32 165.14ZM137.35 163.61C138.5 163.59 139.65 162.76 139.65 161.11C139.65 159.43 138.44 158.6 137.25 158.63C136.1 158.66 134.98 159.48 134.98 161.11C134.98 162.79 136.17 163.62 137.35 163.61ZM145.68 165.14C144.28 165.14 142.91 164.25 142.91 162.74C142.87 160.9 144.21 160.02 145.91 160.02C146.66 160.02 147.51 160.22 148.19 160.6L148.19 159.83C148.19 157.8 144.72 158.47 143.76 158.95L143.51 157.7C144.29 157.3 145.33 157.1 146.35 157.1C148.23 157.1 149.89 157.75 149.89 159.88L149.89 162.92C149.89 163.64 149.86 164.1 150.69 164.02L150.72 165.02C149.51 165.22 148.56 165.22 148.51 163.7C148 164.73 146.77 165.14 145.68 165.14ZM148.19 161.72C147.62 161.38 146.88 161.18 146.19 161.19C145.35 161.21 144.63 161.7 144.63 162.65C144.63 163.42 145.33 163.77 146.03 163.77C146.95 163.77 148.02 163.34 148.19 162.36L148.19 161.72ZM158.38 165L158.38 160.47C158.4 159.27 157.62 158.54 156.58 158.52C155.49 158.52 154.63 159.37 154.63 160.62L154.63 165L152.87 165L152.87 159.53C152.87 158.62 152.83 158.36 152.05 158.41L152.05 157.27C153.17 157.06 154.47 157 154.47 158.47C154.9 157.5 156.08 157.13 157.09 157.13C159.19 157.13 160.15 158.57 160.15 160.47L160.15 165L158.38 165ZM163.8 162.73C163.85 163.53 164.73 163.9 165.56 163.9C166.41 163.9 167.35 163.66 167.4 162.71C167.4 162.01 166.68 161.8 165.67 161.67C164.09 161.46 162.31 161.29 162.26 159.54C162.26 157.9 163.86 157.13 165.54 157.13C167.32 157.13 168.87 157.91 168.82 159.45L167.29 159.45C167.29 158.68 166.36 158.44 165.54 158.44C164.74 158.44 163.91 158.82 163.96 159.51C163.98 160.15 164.6 160.3 165.8 160.44C167.42 160.65 168.98 160.92 168.98 162.74C168.98 164.46 167.34 165.19 165.62 165.19C163.91 165.19 162.22 164.65 162.09 162.73L163.8 162.73ZM175.36 153.3L177.11 153.3L177.11 157.75C177.84 157.37 178.64 157.18 179.33 157.18C181.35 157.18 183.01 158.76 183.01 161.22C183.01 164.2 180.92 165.26 178.61 165.24C177.56 165.22 176.36 164.98 175.36 164.6L175.36 153.3ZM177.08 163.56C177.64 163.72 178.28 163.82 178.79 163.82C180.16 163.8 181.27 163.1 181.27 161.22C181.27 159.61 180.26 158.78 179.06 158.73C178.45 158.71 177.72 158.87 177.08 159.26L177.08 163.56ZM187.3 165.14C185.89 165.14 184.53 164.25 184.53 162.74C184.48 160.9 185.83 160.02 187.52 160.02C188.28 160.02 189.12 160.22 189.81 160.6L189.81 159.83C189.81 157.8 186.34 158.47 185.38 158.95L185.12 157.7C185.91 157.3 186.95 157.1 187.97 157.1C189.84 157.1 191.51 157.75 191.51 159.88L191.51 162.92C191.51 163.64 191.47 164.1 192.31 164.02L192.34 165.02C191.12 165.22 190.18 165.22 190.13 163.7C189.62 164.73 188.39 165.14 187.3 165.14ZM189.81 161.72C189.24 161.38 188.5 161.18 187.81 161.19C186.96 161.21 186.24 161.7 186.24 162.65C186.24 163.42 186.95 163.77 187.65 163.77C188.56 163.77 189.63 163.34 189.81 162.36L189.81 161.72ZM195.39 162.73C195.44 163.53 196.32 163.9 197.15 163.9C198 163.9 198.94 163.66 198.99 162.71C198.99 162.01 198.27 161.8 197.26 161.67C195.68 161.46 193.9 161.29 193.86 159.54C193.86 157.9 195.46 157.13 197.14 157.13C198.91 157.13 200.46 157.91 200.42 159.45L198.88 159.45C198.88 158.68 197.95 158.44 197.14 158.44C196.34 158.44 195.5 158.82 195.55 159.51C195.57 160.15 196.19 160.3 197.39 160.44C199.01 160.65 200.58 160.92 200.58 162.74C200.58 164.46 198.93 165.19 197.22 165.19C195.5 165.19 193.81 164.65 193.68 162.73L195.39 162.73ZM209.6 161.46L203.9 161.46C203.9 162.87 205 163.7 206.41 163.7C207.37 163.75 208.3 163.62 209.21 163.22L209.44 164.52C208.54 164.92 207.5 165.18 206.53 165.18C203.98 165.22 202.11 163.59 202.19 160.98C202.24 158.41 204.09 157.11 206.19 157.11C208.89 157.11 210.11 158.9 209.6 161.46ZM203.93 160.23L208.19 160.23C208.24 159.06 207.28 158.46 206.17 158.46C205.02 158.46 204.17 159.02 203.93 160.23ZM217.43 163.59C216.92 164.73 216.01 165.16 214.87 165.16C212.57 165.21 211.32 163.29 211.32 161.13C211.32 158.74 212.99 157.18 214.97 157.18C215.66 157.18 216.41 157.35 217.11 157.77L217.11 153.29L218.86 153.29L218.86 162.6C218.86 163.48 218.78 163.82 219.66 163.82L219.69 165.02C218.49 165.22 217.43 165.11 217.43 163.82L217.43 163.59ZM217.15 159.3C216.52 158.87 215.85 158.68 215.24 158.7C214.04 158.71 213.05 159.56 213.05 161.13C213.05 162.46 213.72 163.61 215.15 163.61C216.35 163.61 217.15 162.63 217.15 161.46L217.15 159.3ZM229.67 165.14C227.63 165.14 225.6 163.8 225.6 161.11C225.6 158.46 227.59 157.13 229.6 157.1C231.67 157.06 233.75 158.41 233.75 161.11C233.75 163.8 231.7 165.14 229.67 165.14ZM229.7 163.61C230.85 163.59 232 162.76 232 161.11C232 159.43 230.79 158.6 229.6 158.63C228.45 158.66 227.33 159.48 227.33 161.11C227.33 162.79 228.51 163.62 229.7 163.61ZM241.63 165L241.63 160.47C241.65 159.27 240.86 158.54 239.82 158.52C238.74 158.52 237.87 159.37 237.87 160.62L237.87 165L236.11 165L236.11 159.53C236.11 158.62 236.08 158.36 235.29 158.41L235.29 157.27C236.41 157.06 237.71 157 237.71 158.47C238.14 157.5 239.33 157.13 240.34 157.13C242.43 157.13 243.39 158.57 243.39 160.47L243.39 165L241.63 165ZM253.76 165.66C252.86 167.93 251.9 169.75 249.23 168.6L249.44 167.34C250.82 167.94 251.49 167.27 251.95 165.99L252.32 165.05L248.85 157.48L248.85 157.29L250.72 157.29L251.86 159.98L253.12 163.37L253.17 163.37L254.34 159.99L255.36 157.29L257.1 157.29L257.1 157.48L253.76 165.66ZM262.26 165.14C260.23 165.14 258.19 163.8 258.19 161.11C258.19 158.46 260.18 157.13 262.19 157.1C264.26 157.06 266.34 158.41 266.34 161.11C266.34 163.8 264.29 165.14 262.26 165.14ZM262.29 163.61C263.44 163.59 264.6 162.76 264.6 161.11C264.6 159.43 263.38 158.6 262.19 158.63C261.04 158.66 259.92 159.48 259.92 161.11C259.92 162.79 261.11 163.62 262.29 163.61ZM275.47 157.29L275.47 162.79C275.47 163.72 275.55 163.98 276.29 163.9L276.3 165.03C275.31 165.21 273.9 165.42 273.9 163.75C273.38 164.79 272.32 165.13 271.23 165.13C269.1 165.13 268.35 163.64 268.35 161.75L268.35 157.29L270.11 157.29L270.11 161.75C270.1 162.98 270.75 163.74 271.78 163.74C272.88 163.74 273.73 162.94 273.73 161.7L273.73 157.29L275.47 157.29ZM282.48 157.03C283.12 157.02 283.75 157.21 284.25 157.58L283.82 159.08C283.36 158.78 282.84 158.62 282.28 158.62C281.24 158.62 280.31 159.29 280.31 160.54L280.31 165L278.59 165L278.59 159.4C278.59 158.71 278.59 158.36 277.75 158.41L277.74 157.22C278.88 156.97 280.12 157.16 280.2 158.41C280.51 157.51 281.53 157.03 282.48 157.03ZM290.94 162.73C290.98 163.53 291.86 163.9 292.69 163.9C293.54 163.9 294.49 163.66 294.54 162.71C294.54 162.01 293.81 161.8 292.81 161.67C291.22 161.46 289.45 161.29 289.4 159.54C289.4 157.9 291 157.13 292.68 157.13C294.45 157.13 296.01 157.91 295.96 159.45L294.42 159.45C294.42 158.68 293.5 158.44 292.68 158.44C291.88 158.44 291.05 158.82 291.1 159.51C291.11 160.15 291.74 160.3 292.94 160.44C294.55 160.65 296.12 160.92 296.12 162.74C296.12 164.46 294.47 165.19 292.76 165.19C291.05 165.19 289.35 164.65 289.22 162.73L290.94 162.73ZM303.91 159.85C303.57 159.02 302.76 158.62 301.86 158.62C300.68 158.62 299.46 159.48 299.46 161.11C299.46 162.78 300.66 163.62 301.83 163.62C302.69 163.62 303.56 163.16 303.91 162.22L305.57 162.22C305.17 164.17 303.49 165.13 301.8 165.13C299.78 165.13 297.73 163.78 297.73 161.11C297.73 158.46 299.78 157.08 301.78 157.06C303.46 157.05 305.11 157.96 305.52 159.85L303.91 159.85ZM311.16 165.14C309.13 165.14 307.1 163.8 307.1 161.11C307.1 158.46 309.08 157.13 311.1 157.1C313.16 157.06 315.24 158.41 315.24 161.11C315.24 163.8 313.19 165.14 311.16 165.14ZM311.19 163.61C312.35 163.59 313.5 162.76 313.5 161.11C313.5 159.43 312.28 158.6 311.1 158.63C309.95 158.66 308.83 159.48 308.83 161.11C308.83 162.79 310.01 163.62 311.19 163.61ZM321.51 157.03C322.15 157.02 322.79 157.21 323.29 157.58L322.86 159.08C322.39 158.78 321.88 158.62 321.32 158.62C320.28 158.62 319.35 159.29 319.35 160.54L319.35 165L317.62 165L317.62 159.4C317.62 158.71 317.62 158.36 316.79 158.41L316.78 157.22C317.91 156.97 319.16 157.16 319.24 158.41C319.54 157.51 320.57 157.03 321.51 157.03ZM331.63 161.46L325.94 161.46C325.94 162.87 327.04 163.7 328.45 163.7C329.41 163.75 330.34 163.62 331.25 163.22L331.47 164.52C330.58 164.92 329.54 165.18 328.56 165.18C326.02 165.22 324.14 163.59 324.22 160.98C324.27 158.41 326.13 157.11 328.22 157.11C330.93 157.11 332.14 158.9 331.63 161.46ZM325.97 160.23L330.22 160.23C330.27 159.06 329.31 158.46 328.21 158.46C327.06 158.46 326.21 159.02 325.97 160.23Z" />
	<path id="Layer" class="shp1" d="M18.16 161.72C18.22 162.66 18.86 163.14 19.82 163.14C20.86 163.14 21.52 162.42 21.54 161.4C21.49 159.61 19.82 159.35 18.38 159.61L18.38 159.27L20.45 155.72L16.5 155.72L16.5 153.82L23.61 153.82L23.61 154.15L21.18 158.06C22.98 158.36 23.79 159.83 23.79 161.38C23.79 163.37 22.38 165.21 19.86 165.21C17.76 165.21 16.14 163.88 16.06 161.72L18.16 161.72Z" />
</svg>