<svg width="27" height="29" viewBox="0 0 27 29" fill="none" xmlns="http://www.w3.org/2000/svg">
<path fill-rule="evenodd" clip-rule="evenodd" d="M10.8159 0.299873C7.97396 1.14821 5.65514 3.51622 4.82125 6.42149C4.63712 7.0631 4.5878 7.91391 4.54119 11.2556L4.48479 15.3111H5.91216H7.33966L7.34275 11.6449C7.34455 9.62862 7.40456 7.72249 7.47628 7.40934C8.00036 5.11816 10.0369 3.22708 12.4241 2.81504C15.1409 2.34591 17.9475 4.08282 18.9637 6.86195C19.2056 7.52341 19.2371 7.9845 19.3105 11.9369C19.3873 16.0642 19.4062 16.3206 19.6842 16.9982C19.8453 17.3907 20.031 17.7675 20.0968 17.8352C20.5405 18.2928 20.4739 18.2959 10.1081 18.2959H0V19.6569V21.0177L4.28147 21.0519L8.56293 21.0861L8.64135 23.0976C8.68449 24.2039 8.7875 25.3237 8.87017 25.5862C9.108 26.3409 9.97537 27.5463 10.6129 28.0076C11.7321 28.8178 12.2929 28.997 13.7163 28.9999C14.9099 29.0022 15.0692 28.9713 15.8409 28.588C17.2697 27.8784 18.2155 26.7321 18.6 25.2441C18.9372 23.939 19.0022 24.006 17.3977 24.006H15.9957L15.9106 24.463C15.8144 24.9796 15.2061 25.7429 14.6666 26.0241C13.7253 26.5148 12.3344 26.0707 11.7695 25.0991C11.4837 24.6078 11.4602 24.4319 11.4602 22.7942V21.0212H18.8467H26.2331L26.5694 20.6822C27.0115 20.2367 27.124 19.6131 26.8564 19.0916C26.5805 18.5538 26.2125 18.3419 25.3992 18.2526C24.042 18.1036 22.9058 17.3 22.3576 16.1013C22.1034 15.5456 22.0803 15.2197 22.0101 11.2232C21.9286 6.5815 21.8973 6.35634 21.1171 4.7984C19.9873 2.54239 17.7725 0.75175 15.4202 0.192809C14.1765 -0.102689 11.9948 -0.0519473 10.8159 0.299873Z" fill="#00A6CA"/>
</svg>
