<svg width="28" height="27" viewBox="0 0 28 27" fill="none" xmlns="http://www.w3.org/2000/svg">
<path fill-rule="evenodd" clip-rule="evenodd" d="M6.37017 0.171086C4.64113 0.738812 3.32473 2.08663 2.82675 3.79911C2.69051 4.26762 2.6528 4.72186 2.68299 5.52833C2.72004 6.51529 2.76222 6.70172 3.11525 7.43826C3.33029 7.88721 3.67143 8.44089 3.87329 8.66882C4.23023 9.07205 4.23437 9.08729 4.02511 9.23309C2.25912 10.4639 1.48833 11.2886 0.809204 12.6744C0.0948729 14.132 0.00822424 14.6772 0.00135777 17.7539C-0.00463677 20.4393 -0.0028929 20.4595 0.276889 21.0509C0.619667 21.7754 1.09389 22.2621 1.83427 22.6491L2.39318 22.9412L5.91045 22.9954L9.42782 23.0497L8.33551 24.1284C7.73486 24.7217 7.24331 25.2579 7.24331 25.32C7.24331 25.382 7.59971 25.7838 8.03535 26.2129L8.82728 26.993L10.8638 24.9673C11.9839 23.8531 12.9517 22.8047 13.0146 22.6374C13.0774 22.4701 13.1289 22.0528 13.1289 21.7102C13.1289 20.8607 12.8878 20.5297 10.6823 18.3503L8.87971 16.569L8.06151 17.3749C7.61148 17.8181 7.24331 18.2299 7.24331 18.2898C7.24331 18.3497 7.7451 18.898 8.35851 19.5084L9.47371 20.618L6.20592 20.6145C2.77269 20.611 2.73062 20.6052 2.46544 20.1117C2.26817 19.7443 2.29945 15.7713 2.50653 14.9C3.09138 12.4394 5.46805 10.5669 8.00625 10.5669C9.40734 10.5669 10.7559 10.0058 11.7685 9.0018C14.376 6.41607 13.6514 2.12565 10.3316 0.494451C9.44145 0.0570653 9.37431 0.0418265 8.19175 0.0084309C7.23175 -0.0188044 6.84243 0.0159964 6.37017 0.171086ZM9.13769 2.51678C10.2161 2.96357 10.9478 4.07838 10.9455 5.27111C10.9404 8.01085 7.5778 9.23255 5.73998 7.16223C5.28342 6.6479 4.95448 5.85494 4.95448 5.26862C4.95448 5.11062 5.02467 4.74996 5.11045 4.46724C5.63797 2.72926 7.48799 1.83319 9.13769 2.51678ZM18.5182 5.41712C17.6472 5.69877 16.7149 6.28033 16.1296 6.90728C14.2965 8.8706 14.1848 11.6839 15.8529 13.8749L16.2785 14.4337L15.6483 14.8195C14.9783 15.2295 13.576 16.6155 13.3047 17.1359L13.142 17.4478L14.0041 18.2976C14.4783 18.765 14.8834 19.1257 14.9045 19.0992C14.9257 19.0726 15.0715 18.8279 15.2288 18.5556C15.6105 17.8939 16.7862 16.8189 17.5062 16.4729C19.755 15.3926 22.2239 15.798 23.9759 17.5354C25.2594 18.808 25.6587 19.9814 25.6613 22.4872C25.6629 24.0418 25.6555 24.0936 25.3953 24.3515L25.1279 24.6168H19.8621H14.5965L13.3995 25.8085L12.2024 27L18.9054 26.9703C25.5016 26.9409 25.6165 26.9368 26.1151 26.7082C26.3938 26.5805 26.8128 26.2866 27.0461 26.0552C27.2796 25.8237 27.591 25.3933 27.7383 25.0986C27.9962 24.5828 28.0059 24.4841 27.9985 22.4553C27.9899 20.1262 27.8776 19.437 27.3019 18.178C26.6719 16.8004 25.702 15.6727 24.4226 14.8303C24.0857 14.6085 23.81 14.4038 23.81 14.3755C23.81 14.3472 23.9643 14.1499 24.1526 13.9371C24.341 13.7243 24.6713 13.183 24.8863 12.734C25.24 11.996 25.2815 11.8122 25.3189 10.8151C25.3526 9.91656 25.3173 9.57212 25.1283 8.95511C24.675 7.47533 23.4373 6.1461 21.9925 5.58767C21.2083 5.28451 19.2289 5.18735 18.5182 5.41712ZM21.0437 7.77103C22.1443 8.17923 23.0471 9.40785 23.0471 10.4973C23.0471 12.0551 21.6382 13.4811 20.0965 13.4838C19.2024 13.4855 18.5391 13.2195 17.9297 12.6151C16.6869 11.3827 16.7576 9.48101 18.0896 8.31843C18.965 7.55433 19.9619 7.36952 21.0437 7.77103Z" fill="#00A6CA"/>
</svg>
