<svg width="29" height="33" viewBox="0 0 29 33" fill="none" xmlns="http://www.w3.org/2000/svg">
<path fill-rule="evenodd" clip-rule="evenodd" d="M8.47058 0.0792701C7.82037 0.293044 7.29623 0.790066 3.78107 4.31091L0 8.10684V8.57948C0 8.86599 0.0817748 9.13246 0.280633 9.35491L0.605576 9.71678L4.19472 9.77262H7.84604V9.01713C7.84604 8.7215 7.77023 8.12651 7.62179 7.96635C7.41123 7.4627 7.03464 7.41166 5.11007 7.41166H3.92257L6.27413 5.05229C7.73671 3.58564 8.93836 2.43705 9.08663 2.3726C9.29879 2.28038 9.29578 2.25298 9.48116 2.32182C9.61761 2.3725 11.2891 3.97988 13.3004 5.9873L17.148 9.81277L18.0047 8.94133L18.8023 8.15851L14.8956 4.28135C10.7425 0.143195 10.6439 0.0560843 9.52665 0.00540937C9.18532 -0.0100057 8.69524 0.00540385 8.47058 0.0792701ZM11.5359 7.54449C11.3055 7.61836 11.0784 7.82251 11.0359 7.88824C10.9936 7.95398 10.9283 10.2084 10.9039 12.7826C10.7787 17.3028 10.8726 16.921 10.7787 17.4217C10.5659 17.5343 8.43178 17.5781 7.93735 17.4217C7.86851 17.2277 7.84348 17.0355 7.84348 14.4614V11.3071H6.72319H5.47148L5.51529 14.7117C5.54162 17.8141 5.52642 17.8819 5.69053 18.2603C5.9972 18.9675 6.68939 19.4737 7.10236 19.6461C7.54662 19.8316 10.8946 19.9015 11.5906 19.6109C12.026 19.4291 12.6374 18.8864 12.9148 18.3687C13.106 18.012 13.1168 17.8904 13.1414 12.7826L13.1727 7.41168H12.4344C12.1281 7.41363 11.6886 7.47814 11.5359 7.54449Z" fill="#00A6CA"/>
<path fill-rule="evenodd" clip-rule="evenodd" d="M18.2462 32.6482C17.596 32.4344 16.9985 31.9366 13.4833 28.4157L9.69103 24.5969V24.0029C9.69103 23.7164 9.81571 23.5518 10.0146 23.3293L10.3116 22.9951H13.8546H17.5399V23.7203C17.5399 24.0159 17.4891 24.4351 17.3368 24.7125C17.1262 25.2161 16.7626 25.3062 14.7899 25.3062H13.6063L15.9384 27.6226C17.4009 29.0893 18.4891 30.1226 18.6532 30.2476C18.8524 30.3687 18.9996 30.4576 19.185 30.3888C19.3214 30.3381 21.0137 28.6941 23.025 26.6866L26.8226 22.9103L27.6606 23.743L28.4933 24.5598L24.6162 28.4104C20.3837 32.6641 20.2757 32.6559 19.1585 32.7066C18.8171 32.722 18.3681 32.6883 18.2462 32.6482ZM21.0522 25.0847C20.8996 25.0183 20.7079 24.8726 20.7079 24.689C20.6655 24.6233 20.619 22.5367 20.5946 19.9625C20.5243 15.3882 20.5751 15.564 20.4227 15.2828C19.8173 15.1109 18.1298 15.1421 17.6141 15.2906C17.4931 15.4116 17.536 15.6383 17.536 18.2125V21.4H16.3446H15.1944V18.0194C15.2207 14.917 15.2417 14.6799 15.4282 14.3318C15.6587 13.9016 16.2963 13.2757 16.8152 13.059C17.2594 12.8735 20.7742 12.8734 21.2969 13.0917C21.7323 13.2735 22.363 13.8259 22.6349 14.4025C22.8261 14.7591 22.8115 14.8187 22.8362 19.9265V25.2968H22.0693C21.763 25.2949 21.2157 25.2046 21.0522 25.0847Z" fill="#00A6CA"/>
</svg>
