<svg width="30" height="34" viewBox="0 0 30 34" fill="none" xmlns="http://www.w3.org/2000/svg">
<path d="M4.47808 8.31418H5.90167C6.85969 8.31418 7.42435 8.33013 7.77525 8.4129C7.95402 8.45506 8.08613 8.51632 8.18848 8.60801C8.29045 8.69936 8.35453 8.81356 8.40966 8.94544C8.45014 9.04225 8.48403 9.18997 8.50791 9.34594C8.53207 9.50376 8.5472 9.67815 8.5472 9.83184V10.3692V10.4699L8.44647 10.4691L4.98149 10.4441L1.5165 10.4189L1.47219 10.4186L1.44267 10.3856L1.18406 10.0962L1.18405 10.0962L1.25861 10.0296C1.05975 9.80712 1 9.65412 1 9.36761L4.47808 8.31418ZM4.47808 8.31418L6.96704 5.81816C7.69782 5.08534 8.39388 4.40546 8.92648 3.90054C9.19286 3.648 9.41787 3.43969 9.58568 3.29053C9.66967 3.21588 9.73862 3.15669 9.79089 3.1144C9.81708 3.09321 9.83829 3.07691 9.85464 3.06525C9.87269 3.05238 9.87976 3.04886 9.8792 3.0491C9.97962 3.00545 10.0541 2.98514 10.1212 2.98121C10.1862 2.97739 10.2511 2.98855 10.3331 3.01865C10.333 3.01884 10.3395 3.02252 10.3556 3.03453C10.3742 3.04847 10.3994 3.06874 10.4313 3.0956C10.4948 3.14918 10.5814 3.22594 10.6887 3.32379C10.9032 3.51932 11.1978 3.79662 11.5515 4.1355C12.2587 4.81313 13.2003 5.73544 14.2056 6.7388L17.8625 10.3885L17.9332 10.4591L18.0039 10.3885L18.6911 9.70118L19.3784 9.01387L19.4492 8.94304L19.3783 8.87233L15.6547 5.16216C13.5808 3.09577 12.5249 2.04584 11.8481 1.508C11.5081 1.23776 11.257 1.09099 11.0147 1.01035C10.7731 0.929918 10.5472 0.9179 10.2692 0.90529L10.2692 0.905289C10.0952 0.897434 9.91187 0.898621 9.75595 0.906912C9.60447 0.914967 9.46653 0.930226 9.39119 0.955018M4.47808 8.31418L9.39119 0.955018M9.39119 0.955018C9.39118 0.955022 9.39117 0.955026 9.39116 0.95503L9.42243 1.05002L9.39119 0.955018ZM12.341 8.45007L12.3411 8.45004C12.4301 8.41135 12.573 8.37935 12.7258 8.35663C12.8811 8.33352 13.0562 8.31864 13.2146 8.31764H13.2146L13.7715 8.31418L13.8726 8.31355L13.8721 8.41466L13.8472 13.5752C13.8349 16.1278 13.8282 17.4214 13.8006 18.1208C13.7868 18.4698 13.7676 18.6769 13.7384 18.8207C13.7082 18.9697 13.6671 19.05 13.6174 19.1428C13.6173 19.1428 13.6173 19.1428 13.6173 19.1428L13.5292 19.0956C13.2935 19.5356 12.7303 20.0575 12.2949 20.2392L12.341 8.45007ZM12.341 8.45007C12.2588 8.48585 12.1754 8.53248 12.1062 8.5793C12.0412 8.62336 11.9754 8.67635 11.9423 8.72766L11.9422 8.72774C11.9304 8.74606 11.9261 8.76607 11.9248 8.77196L11.9246 8.77259C11.9224 8.78249 11.9207 8.79361 11.9191 8.80488C11.916 8.82768 11.9131 8.85767 11.9102 8.89353C11.9045 8.96561 11.8987 9.06676 11.893 9.1931C11.8814 9.44606 11.8699 9.80344 11.8588 10.2387C11.8368 11.1093 11.817 12.2934 11.8048 13.5809C11.7835 15.8339 11.7708 17.0028 11.7428 17.624C11.7288 17.9363 11.7111 18.1022 11.6888 18.1963C11.6779 18.2422 11.6672 18.2651 11.6592 18.2777C11.6522 18.2888 11.6445 18.2962 11.6294 18.3073L11.6294 18.3073C11.6265 18.3094 11.6135 18.3167 11.5829 18.3261C11.5542 18.335 11.5164 18.3438 11.4697 18.3522C11.3764 18.3691 11.2544 18.3833 11.1121 18.3947C10.8277 18.4173 10.4694 18.4278 10.1121 18.4263C9.75476 18.4247 9.40083 18.4111 9.12524 18.3861C8.98716 18.3735 8.87098 18.3583 8.78468 18.3408C8.7414 18.332 8.70794 18.3231 8.68398 18.3146C8.66376 18.3074 8.6564 18.3026 8.65573 18.3023L12.341 8.45007Z" fill="#00A6CA" stroke="#00A6CA" stroke-width="0.2"/>
<path d="M19.0833 33.3526C18.7386 33.2393 18.4359 33.0603 17.7838 32.4757C17.1328 31.892 16.124 30.8949 14.3671 29.1353L10.6214 25.3834L10.5921 25.3541V25.3127V24.94C10.5921 24.7899 10.6077 24.6663 10.6537 24.5486C10.6996 24.4312 10.7728 24.3271 10.8762 24.2114C10.8762 24.2114 10.8762 24.2114 10.8762 24.2114L11.1348 23.9221L11.1643 23.889L11.2086 23.8887L14.6736 23.8635L18.1386 23.8385L18.2393 23.8377V23.9385V24.4758C18.2393 24.6295 18.2242 24.8039 18.2 24.9617C18.1762 25.1176 18.1423 25.2654 18.1018 25.3622C18.0467 25.4941 17.9826 25.6083 17.8806 25.6996C17.7783 25.7913 17.6462 25.8526 17.4674 25.8947C17.1165 25.9775 16.5518 25.9934 15.5938 25.9934H14.1702L16.6592 28.4895C17.39 29.2223 18.086 29.9022 18.6186 30.4071C18.885 30.6596 19.11 30.8679 19.2778 31.0171C19.3618 31.0917 19.4308 31.1509 19.483 31.1932C19.5092 31.2144 19.5304 31.2307 19.5468 31.2424C19.5648 31.2552 19.5719 31.2588 19.5713 31.2585C19.6718 31.3022 19.7463 31.3225 19.8133 31.3264C19.8783 31.3302 19.9432 31.3191 20.0252 31.289C20.0251 31.2888 20.0317 31.2851 20.0477 31.2731C20.0663 31.2591 20.0915 31.2389 20.1234 31.212C20.187 31.1584 20.2736 31.0817 20.3809 30.9838C20.5953 30.7883 20.89 30.511 21.2436 30.1721C21.9508 29.4945 22.8924 28.5722 23.8977 27.5688L27.5547 23.9191L27.6254 23.8485L27.696 23.9191L28.3833 24.6064L29.0705 25.2937L29.1414 25.3646L29.0704 25.4353L25.3468 29.1455C23.2729 31.2118 22.217 32.2618 21.5403 32.7996C21.2003 33.0699 20.9491 33.2166 20.7069 33.2973C20.4653 33.3777 20.2393 33.3897 19.9613 33.4023L19.9613 33.4023C19.7874 33.4102 19.604 33.409 19.4481 33.4007C19.2966 33.3927 19.1587 33.3774 19.0833 33.3526ZM19.0833 33.3526L19.1146 33.2576L19.0833 33.3526C19.0833 33.3526 19.0833 33.3526 19.0833 33.3526ZM22.0331 25.8575L22.0332 25.8576C22.1222 25.8963 22.2651 25.9283 22.4179 25.951C22.5732 25.9741 22.7484 25.989 22.9068 25.99H22.9068L23.4636 25.9934L23.5647 25.9941L23.5643 25.893L23.5393 20.7324C23.527 18.1798 23.5203 16.8863 23.4927 16.1868C23.4789 15.8378 23.4598 15.6307 23.4306 15.4869C23.4003 15.3379 23.3592 15.2576 23.3095 15.1648C23.3095 15.1648 23.3095 15.1648 23.3095 15.1648L23.2213 15.212C22.9857 14.7721 22.4224 14.2502 21.9871 14.0684L22.0331 25.8575ZM22.0331 25.8575C21.951 25.8218 21.8675 25.7751 21.7984 25.7283C21.7333 25.6843 21.6676 25.6313 21.6344 25.58L21.6344 25.5799C21.6226 25.5616 21.6182 25.5415 21.6169 25.5357L21.6168 25.535C21.6146 25.5251 21.6128 25.514 21.6113 25.5027C21.6081 25.4799 21.6052 25.4499 21.6024 25.4141C21.5966 25.342 21.5908 25.2409 21.5851 25.1145C21.5736 24.8616 21.562 24.5042 21.551 24.0689C21.5289 23.1983 21.5092 22.0142 21.497 20.7267C21.4756 18.4737 21.4629 17.3048 21.435 16.6836C21.4209 16.3713 21.4032 16.2054 21.3809 16.1113C21.3701 16.0654 21.3594 16.0425 21.3513 16.0299C21.3443 16.0188 21.3366 16.0114 21.3216 16.0004L21.3216 16.0004C21.3187 15.9982 21.3056 15.9909 21.275 15.9815C21.2463 15.9727 21.2085 15.9638 21.1618 15.9554C21.0686 15.9385 20.9466 15.9243 20.8042 15.9129C20.5198 15.8903 20.1615 15.8798 19.8042 15.8814C19.4469 15.8829 19.093 15.8965 18.8174 15.9215C18.6793 15.9341 18.5631 15.9493 18.4768 15.9668C18.4335 15.9756 18.4001 15.9845 18.3761 15.993C18.3559 16.0002 18.3485 16.005 18.3479 16.0053L22.0331 25.8575Z" fill="#00A6CA" stroke="#00A6CA" stroke-width="0.2"/>
</svg>
