<svg width="30" height="17" viewBox="0 0 30 17" fill="none" xmlns="http://www.w3.org/2000/svg">
<path d="M1.51153 16.208L1.51152 16.208C1.22725 16.0348 1.04779 15.8797 0.962878 15.5802C0.882687 15.2975 0.888977 14.8905 0.927406 14.2258C1.08632 11.4757 2.08548 8.76811 3.76122 6.5449C5.96838 3.61654 9.17296 1.68366 12.8663 1.05154L1.51153 16.208ZM1.51153 16.208C1.59796 16.2607 1.68281 16.303 1.80988 16.3348C1.93392 16.366 2.09565 16.3866 2.33565 16.4007C2.81528 16.4291 3.62914 16.4327 5.12488 16.4329L8.34171 16.4333L8.44173 16.4334V16.3333V15.1447V13.9561V13.8561H8.34173H5.84525H3.46592M1.51153 16.208L3.46592 13.8561M3.46592 13.8561L3.52051 13.5125C3.83141 11.5566 4.56211 9.791 5.72225 8.19241L5.72226 8.19241L5.9972 7.81346L7.2013 9.01364L7.2719 8.94282L7.20131 9.01365L8.48826 10.2963L8.55894 10.3667L8.62954 10.2962L9.46581 9.46048L10.3021 8.62476L10.3728 8.55412L10.3022 8.48339L9.01868 7.19728L8.9479 7.26792L9.01868 7.19728L7.81782 5.99407L8.1969 5.71938L8.19691 5.71937C9.79685 4.55975 11.6083 3.81038 13.5201 3.51676L13.8644 3.46389V5.13983V6.93229V7.03229H13.9644H15.1538H16.3433H16.4433V6.93229V5.13983V3.46413L16.7874 3.5177L16.8028 3.41889L16.7874 3.51771C17.6842 3.65724 18.6527 3.92719 19.5866 4.29838L20.5422 4.6782L20.603 4.70237L20.6495 4.65632L21.5102 3.80374L21.4398 3.73269L21.5102 3.80374L22.3708 2.95116L22.4712 2.85166L22.344 2.7901L21.1858 2.22982C19.2646 1.30038 17.3318 0.88251 15.0449 0.90056L15.0449 0.90056C14.2991 0.906522 13.3199 0.973843 12.8663 1.05154L3.46592 13.8561ZM14.0572 14.3171L13.9865 14.3879L14.0572 14.4586L14.8948 15.2956L15.7323 16.1325L15.8029 16.2032L15.8736 16.1325L20.0833 11.9267C21.8838 10.1278 22.9408 9.08274 23.5652 8.50203C23.8782 8.2109 24.0787 8.04019 24.2079 7.94965C24.2734 7.90381 24.3136 7.88356 24.3366 7.87636C24.3368 7.87629 24.337 7.87622 24.3372 7.87616C24.4034 7.93671 24.5099 8.0704 24.6429 8.2612C24.7827 8.46168 24.9449 8.71515 25.1093 8.988C25.4387 9.5346 25.7727 10.1527 25.9496 10.572L25.9497 10.572C26.2971 11.3949 26.6444 12.6143 26.7872 13.5125L26.8418 13.8561H24.5706H22.1822H22.0822V13.9561V15.1447V16.3333V16.4334L22.1822 16.4333L25.2909 16.4329C26.7331 16.4327 27.5203 16.429 27.9864 16.4006C28.2198 16.3863 28.3781 16.3657 28.5003 16.3346C28.6255 16.3027 28.71 16.2605 28.7962 16.208L28.7441 16.1226L28.7962 16.208C29.0804 16.0348 29.2599 15.8797 29.3448 15.5802C29.425 15.2975 29.4187 14.8905 29.3803 14.2258C29.1838 10.8269 27.798 7.70759 25.3581 5.1678C25.1197 4.9196 24.8888 4.69347 24.7086 4.52888C24.6186 4.44676 24.5401 4.37889 24.479 4.33103C24.4487 4.30727 24.4208 4.28703 24.397 4.27224C24.3851 4.26489 24.3723 4.25769 24.3595 4.25202C24.349 4.24744 24.3279 4.2389 24.3024 4.2389C24.2749 4.2389 24.2541 4.2505 24.2519 4.25166C24.2446 4.25539 24.2382 4.25955 24.2334 4.26278C24.2236 4.26946 24.2125 4.27801 24.2011 4.28724C24.1779 4.30606 24.1468 4.333 24.1089 4.36694C24.0327 4.4351 23.9252 4.53497 23.7902 4.66272C23.5199 4.9184 23.1373 5.28781 22.6707 5.74328C21.7373 6.65431 20.4667 7.91072 19.0841 9.29265L14.0572 14.3171Z" fill="#00A6CA" stroke="white" stroke-width="0.2"/>
</svg>
