<svg width="300" height="154" viewBox="0 0 300 154" fill="none" xmlns="http://www.w3.org/2000/svg">
<path d="M300 150C300 110.218 284.196 72.0644 256.066 43.934C227.936 15.8035 189.782 3.00349e-06 150 0C110.218 -3.00349e-06 72.0645 15.8035 43.934 43.934C15.8035 72.0644 6.00699e-06 110.218 0 150H30C30 118.174 42.6428 87.6515 65.1472 65.1472C87.6516 42.6428 118.174 30 150 30C181.826 30 212.348 42.6428 234.853 65.1472C257.357 87.6516 270 118.174 270 150H300Z" fill="white"/>
<path fill-rule="evenodd" clip-rule="evenodd" d="M145.319 148.728C142.679 145.973 142.869 141.573 145.736 139.055L213.048 79.9624C215.646 77.8152 219.168 81.4907 216.912 83.9956L155 148.724C152.363 151.481 147.959 151.483 145.319 148.728V148.728Z" fill="black"/>
<path d="M25.2796 66.6645C8.79735 91.3319 0 120.333 0 150H30C30 126.266 37.0379 103.066 50.2236 83.3316C63.4094 63.5977 82.1509 48.217 104.078 39.1345C126.005 30.052 150.133 27.6756 173.411 32.3058C196.689 36.9361 218.071 48.365 234.853 65.1473L256.066 43.9341C235.088 22.9562 208.361 8.67006 179.264 2.88228C150.166 -2.90551 120.006 0.064992 92.5975 11.4181C65.1886 22.7713 41.7618 41.9972 25.2796 66.6645Z" fill="#3BB012"/>
</svg>
