<svg width="30" height="17" viewBox="0 0 30 17" fill="none" xmlns="http://www.w3.org/2000/svg">
<path fill-rule="evenodd" clip-rule="evenodd" d="M12.3231 0.996031C8.65431 1.62396 5.44592 3.65237 3.25447 6.55989C1.59047 8.76751 0.602081 11.5215 0.444321 14.2516C0.319133 15.6974 0.517394 15.9489 1.07015 16.2857C1.44565 16.5485 1.83701 16.5482 4.83153 16.5485H8.16108V15.1466V13.7697H5.43861H3.21056L3.26063 13.4818C3.57399 11.5104 4.2692 9.84227 5.43861 8.23091L5.63098 7.97327L6.74665 9.10711L8.20065 10.527L9.2124 9.48569L10.1355 8.56994L8.75453 7.18155L7.59507 6.0147L7.93479 5.76361C9.73674 4.55985 11.0661 3.95427 13.1486 3.61456L13.3849 3.58264V5.16467V7.15295H14.7872H16.1583V5.14905V3.58655L16.4825 3.64514C17.3874 3.78594 18.2142 4.02148 19.1544 4.39514L20.2522 4.8288L21.1819 3.89521L22.2639 2.83661L20.8069 2.12175C18.9004 1.19947 16.9233 0.791283 14.6506 0.80922C13.9072 0.815163 12.7692 0.919634 12.3231 0.996031ZM18.5607 9.28967L13.4591 14.399L14.4825 15.4147L15.424 16.3639L19.795 11.985C23.5384 8.34356 23.8763 7.91317 23.9669 8.04749C24.3268 8.58115 25.131 9.81328 25.4904 10.6647C25.841 11.4951 26.1276 12.4735 26.2716 13.3795L26.3185 13.7623H24.1779H21.5997V15.1569V16.5514H24.9044C27.7919 16.5511 28.1313 16.5159 28.4513 16.3209C29.004 15.9841 29.2091 15.7584 29.1036 14.3522C28.8138 10.488 27.4574 7.61372 25.0333 5.09045C24.5587 4.59641 24.1622 4.16858 23.9044 4.13733C23.5607 4.13733 21.3254 6.5262 18.5607 9.28967Z" fill="#00A6CA"/>
</svg>
