<svg width="646" height="421" viewBox="0 0 646 421" fill="none" xmlns="http://www.w3.org/2000/svg">
<path fill-rule="evenodd" clip-rule="evenodd" d="M20 0C8.9543 0 0 8.9541 0 20V401C0 412.046 8.95429 421 20 421H624.531C635.577 421 644.531 412.046 644.531 401V20C644.531 8.9541 635.577 0 624.531 0H20ZM30.05 22.0527C25.0794 22.0527 21.05 26.082 21.05 31.0527V389.948C21.05 394.919 25.0794 398.948 30.05 398.948H614.481C619.452 398.948 623.481 394.919 623.481 389.948V31.0527C623.481 26.082 619.452 22.0527 614.481 22.0527H30.05Z" fill="#212121"/>
<path fill-rule="evenodd" clip-rule="evenodd" d="M625.451 0H349.248L343.787 22.0522H615.401C620.372 22.0522 624.401 26.0815 624.401 31.0522V389.947C624.401 394.918 620.372 398.947 615.401 398.947H250.461L245 421H625.451C636.497 421 645.451 412.046 645.451 401V20C645.451 8.9541 636.497 0 625.451 0Z" fill="url(#paint0_linear_542_5744)"/>
<defs>
<linearGradient id="paint0_linear_542_5744" x1="245.501" y1="0" x2="655.976" y2="0" gradientUnits="userSpaceOnUse">
<stop stop-color="#7B7B7B"/>
<stop offset="1" stop-color="#7B7B7B" stop-opacity="0"/>
</linearGradient>
</defs>
</svg>
