<svg width="40" height="40" viewBox="0 0 40 40" fill="none" xmlns="http://www.w3.org/2000/svg">
<circle cx="20" cy="20" r="20" fill="#FCD800"/>
<path d="M30.4016 18.4C30.4016 15.6417 29.3059 12.9965 27.3555 11.0461C25.4051 9.09571 22.7598 8 20.0016 8C17.2433 8 14.598 9.09571 12.6477 11.0461C10.6973 12.9965 9.60156 15.6417 9.60156 18.4" stroke="black" stroke-width="2" stroke-linecap="round" stroke-linejoin="round"/>
<path d="M30.4 27.4995V28.1495C30.4 28.839 30.1261 29.5004 29.6385 29.988C29.1509 30.4756 28.4896 30.7495 27.8 30.7495H23.25M7 24.1689V21.7301C7.00009 21.1503 7.19396 20.5872 7.55082 20.1302C7.90767 19.6733 8.40702 19.3487 8.9695 19.2081L11.2315 18.6413C11.3464 18.6127 11.4664 18.6106 11.5823 18.6352C11.6981 18.6599 11.8068 18.7106 11.9002 18.7835C11.9935 18.8564 12.069 18.9496 12.121 19.0561C12.1729 19.1625 12.2 19.2794 12.2 19.3979V26.4998C12.2002 26.6185 12.1733 26.7357 12.1214 26.8424C12.0694 26.9491 11.9938 27.0426 11.9003 27.1157C11.8068 27.1888 11.6978 27.2396 11.5817 27.2642C11.4655 27.2888 11.3453 27.2866 11.2302 27.2577L8.9682 26.6922C8.40596 26.5513 7.9069 26.2267 7.5503 25.7697C7.19371 25.3128 7.00002 24.7498 7 24.1702V24.1689ZM33 24.1689V21.7301C32.9999 21.1503 32.806 20.5872 32.4492 20.1302C32.0923 19.6733 31.593 19.3487 31.0305 19.2081L28.7685 18.6413C28.6536 18.6127 28.5336 18.6106 28.4177 18.6352C28.3019 18.6599 28.1932 18.7106 28.0998 18.7835C28.0065 18.8564 27.931 18.9496 27.879 19.0561C27.8271 19.1625 27.8 19.2794 27.8 19.3979V26.4998C27.7998 26.6183 27.8267 26.7354 27.8786 26.842C27.9304 26.9486 28.0059 27.042 28.0993 27.1151C28.1927 27.1881 28.3015 27.239 28.4174 27.2637C28.5334 27.2884 28.6535 27.2863 28.7685 27.2577L31.0305 26.6922C31.593 26.5516 32.0923 26.227 32.4492 25.7701C32.806 25.3131 32.9999 24.75 33 24.1702V24.1689Z" stroke="black" stroke-width="2"/>
<path d="M21.9516 32.6998H18.0516C17.5344 32.6998 17.0384 32.4944 16.6727 32.1287C16.307 31.763 16.1016 31.267 16.1016 30.7498C16.1016 30.2326 16.307 29.7366 16.6727 29.3709C17.0384 29.0053 17.5344 28.7998 18.0516 28.7998H21.9516C22.4687 28.7998 22.9647 29.0053 23.3304 29.3709C23.6961 29.7366 23.9016 30.2326 23.9016 30.7498C23.9016 31.267 23.6961 31.763 23.3304 32.1287C22.9647 32.4944 22.4687 32.6998 21.9516 32.6998Z" stroke="black" stroke-width="2"/>
</svg>
