<svg width="12" height="12" viewBox="0 0 12 12" fill="none" xmlns="http://www.w3.org/2000/svg">
<path d="M7.29244 5.99984L11.2341 2.06734C11.4067 1.89473 11.5037 1.66062 11.5037 1.41651C11.5037 1.1724 11.4067 0.93829 11.2341 0.765678C11.0615 0.593066 10.8274 0.496094 10.5833 0.496094C10.3392 0.496094 10.1051 0.593066 9.93244 0.765678L5.99994 4.70734L2.06744 0.765678C1.89483 0.593066 1.66072 0.496094 1.41661 0.496094C1.1725 0.496094 0.938389 0.593066 0.765777 0.765678C0.593166 0.93829 0.496193 1.1724 0.496193 1.41651C0.496193 1.66062 0.593166 1.89473 0.765777 2.06734L4.70744 5.99984L0.765777 9.93234C0.67986 10.0176 0.611665 10.1189 0.565127 10.2306C0.518589 10.3424 0.494629 10.4622 0.494629 10.5832C0.494629 10.7042 0.518589 10.824 0.565127 10.9357C0.611665 11.0474 0.67986 11.1488 0.765777 11.234C0.850993 11.3199 0.952378 11.3881 1.06408 11.4347C1.17579 11.4812 1.2956 11.5052 1.41661 11.5052C1.53762 11.5052 1.65743 11.4812 1.76914 11.4347C1.88084 11.3881 1.98223 11.3199 2.06744 11.234L5.99994 7.29234L9.93244 11.234C10.0177 11.3199 10.119 11.3881 10.2307 11.4347C10.3425 11.4812 10.4623 11.5052 10.5833 11.5052C10.7043 11.5052 10.8241 11.4812 10.9358 11.4347C11.0475 11.3881 11.1489 11.3199 11.2341 11.234C11.32 11.1488 11.3882 11.0474 11.4348 10.9357C11.4813 10.824 11.5053 10.7042 11.5053 10.5832C11.5053 10.4622 11.4813 10.3424 11.4348 10.2306C11.3882 10.1189 11.32 10.0176 11.2341 9.93234L7.29244 5.99984Z" fill="#ACACAC"/>
</svg>
