<svg width="89" height="77" viewBox="0 0 89 77" fill="none" xmlns="http://www.w3.org/2000/svg">
<path fill-rule="evenodd" clip-rule="evenodd" d="M48.4571 1.99463C46.916 -0.664139 43.0769 -0.664148 41.5358 1.99462L1.54141 70.9941C-0.00427651 73.6607 1.91983 77 5.00208 77H84.9908C88.073 77 89.9971 73.6607 88.4515 70.9941L48.4571 1.99463ZM48.9111 60.0171C48.9111 62.3289 47.1332 63.9214 44.7457 63.9214C42.4599 63.9214 40.5804 62.3289 40.5804 60.0171C40.5804 57.6026 42.4599 56.1128 44.7457 56.1128C47.1332 56.1128 48.9111 57.6026 48.9111 60.0171ZM48.3523 53.5956H41.1391L40.5296 30.5293H48.8095L48.3523 53.5956Z" fill="#707070"/>
</svg>
