<svg width="21" height="18" viewBox="0 0 21 18" fill="none" xmlns="http://www.w3.org/2000/svg">
<path d="M0.9 5.8608V13.8C0.9 14.6749 1.24391 15.5141 1.85642 16.1331C2.46895 16.7521 3.29995 17.1 4.16667 17.1H16.8333C17.7 17.1 18.531 16.7521 19.1436 16.1331C19.7561 15.5141 20.1 14.6749 20.1 13.8V4.2C20.1 3.32512 19.7561 2.48587 19.1436 1.86692C18.531 1.24793 17.7 0.9 16.8333 0.9H4.16667C3.29995 0.9 2.46895 1.24793 1.85642 1.86692C1.24391 2.48587 0.9 3.32512 0.9 4.2V5.8608ZM4.16667 2.7H16.8333C17.2264 2.7 17.6036 2.85778 17.8818 3.13897C18.1601 3.4202 18.3167 3.80184 18.3167 4.2V5.32456L10.5 9.57736L2.68333 5.32456V4.2C2.68333 3.80184 2.83986 3.42019 3.11816 3.13897C3.39642 2.85778 3.7736 2.7 4.16667 2.7ZM2.68333 13.8V7.36984L10.077 11.3918C10.2069 11.4625 10.3523 11.4996 10.5 11.4996C10.6477 11.4996 10.7931 11.4625 10.923 11.3918L18.3167 7.36984V13.8C18.3167 14.1982 18.1601 14.5798 17.8818 14.861C17.6036 15.1422 17.2264 15.3 16.8333 15.3H4.16667C3.7736 15.3 3.39642 15.1422 3.11816 14.861C2.83986 14.5798 2.68333 14.1982 2.68333 13.8Z" fill="black" stroke="black" stroke-width="0.2"/>
</svg>
