<svg width="19" height="19" viewBox="0 0 19 19" fill="none" xmlns="http://www.w3.org/2000/svg">
<path d="M8.12853 4.53417L5.30936 1.28001C4.98436 0.905006 4.38853 0.906672 4.01103 1.28501L1.69269 3.60751C1.00269 4.29834 0.805194 5.32417 1.20436 6.14667C3.58904 11.0841 7.57106 15.0717 12.5052 17.4633C13.3269 17.8625 14.3519 17.665 15.0419 16.9742L17.3819 14.63C17.761 14.2508 17.7619 13.6517 17.3835 13.3267L14.1169 10.5225C13.7752 10.2292 13.2444 10.2675 12.9019 10.6108L11.7652 11.7492C11.707 11.8102 11.6304 11.8504 11.5472 11.8636C11.4639 11.8769 11.3786 11.8624 11.3044 11.8225C9.4464 10.7526 7.90519 9.20936 6.83769 7.35001C6.79772 7.27563 6.78324 7.19019 6.79649 7.1068C6.80973 7.02341 6.84997 6.94666 6.91103 6.88834L8.04436 5.75417C8.38769 5.40917 8.42519 4.87584 8.12853 4.53334V4.53417Z" stroke="black" stroke-width="1.7" stroke-linecap="round" stroke-linejoin="round"/>
</svg>
