<svg width="268" height="89" viewBox="0 0 268 89" fill="none" xmlns="http://www.w3.org/2000/svg">
<rect y="51" width="101" height="17" rx="4" fill="url(#paint0_linear_435_2833)"/>
<rect x="167" y="51" width="101" height="17" rx="4" fill="url(#paint1_linear_435_2833)"/>
<rect y="28" width="65" height="14" rx="4" fill="url(#paint2_linear_435_2833)"/>
<rect x="167" y="28" width="65" height="14" rx="4" fill="url(#paint3_linear_435_2833)"/>
<rect y="75" width="101" height="14" rx="4" fill="url(#paint4_linear_435_2833)"/>
<rect x="167" y="75" width="101" height="14" rx="4" fill="url(#paint5_linear_435_2833)"/>
<path d="M178 82L159.348 63.3144M169.684 38.3421C169.684 47.7154 165.961 56.7048 159.333 63.3327C152.705 69.9607 143.715 73.6842 134.342 73.6842C124.969 73.6842 115.979 69.9607 109.351 63.3327C102.724 56.7048 99 47.7154 99 38.3421C99 28.9688 102.724 19.9794 109.351 13.3515C115.979 6.72353 124.969 3 134.342 3C143.715 3 152.705 6.72353 159.333 13.3515C165.961 19.9794 169.684 28.9688 169.684 38.3421Z" stroke="#ACACAC" stroke-width="6" stroke-linecap="round"/>
<defs>
<linearGradient id="paint0_linear_435_2833" x1="7.5" y1="60" x2="113.5" y2="60" gradientUnits="userSpaceOnUse">
<stop stop-color="#EDEDED"/>
<stop offset="1" stop-color="#EDEDED" stop-opacity="0"/>
</linearGradient>
<linearGradient id="paint1_linear_435_2833" x1="167" y1="64" x2="236.5" y2="63" gradientUnits="userSpaceOnUse">
<stop stop-color="#EDEDED"/>
<stop offset="1" stop-color="#EDEDED" stop-opacity="0"/>
</linearGradient>
<linearGradient id="paint2_linear_435_2833" x1="3" y1="39" x2="48.5" y2="38" gradientUnits="userSpaceOnUse">
<stop stop-color="#EDEDED"/>
<stop offset="1" stop-color="#EDEDED" stop-opacity="0"/>
</linearGradient>
<linearGradient id="paint3_linear_435_2833" x1="167" y1="39" x2="209.5" y2="39.5" gradientUnits="userSpaceOnUse">
<stop stop-color="#EDEDED"/>
<stop offset="1" stop-color="#EDEDED" stop-opacity="0"/>
</linearGradient>
<linearGradient id="paint4_linear_435_2833" x1="2.5" y1="82" x2="97.5" y2="82" gradientUnits="userSpaceOnUse">
<stop stop-color="#EDEDED"/>
<stop offset="1" stop-color="#EDEDED" stop-opacity="0"/>
</linearGradient>
<linearGradient id="paint5_linear_435_2833" x1="169.5" y1="82" x2="244" y2="82" gradientUnits="userSpaceOnUse">
<stop stop-color="#EDEDED"/>
<stop offset="1" stop-color="#EDEDED" stop-opacity="0"/>
</linearGradient>
</defs>
</svg>
