<svg width="44" height="58" viewBox="0 0 44 58" fill="none" xmlns="http://www.w3.org/2000/svg">
<circle cx="21.8887" cy="21.9375" r="21" fill="#005365" fill-opacity="0.06"/>
<path fill-rule="evenodd" clip-rule="evenodd" d="M19.4933 11.0037C17.1788 11.6772 15.2905 13.5572 14.6114 15.8638C14.4614 16.3732 14.4212 17.0487 14.3833 19.7018L14.3373 22.9215H15.4998H16.6623L16.6648 20.0109C16.6663 18.41 16.7151 16.8967 16.7735 16.6481C17.2003 14.8291 18.8589 13.3277 20.8029 13.0006C23.0154 12.6281 25.301 14.0071 26.1286 16.2135C26.3256 16.7387 26.3512 17.1047 26.411 20.2427C26.4735 23.5194 26.4889 23.723 26.7153 24.2609C26.8465 24.5726 26.9977 24.8717 27.0513 24.9255C27.4127 25.2888 27.3585 25.2912 18.9168 25.2912H10.6851V26.3717V27.4521L14.1718 27.4793L17.6585 27.5064L17.7223 29.1034C17.7575 29.9818 17.8414 30.8708 17.9087 31.0792C18.1024 31.6784 18.8087 32.6354 19.3279 33.0016C20.2394 33.6449 20.6961 33.7871 21.8552 33.7894C22.8273 33.7913 22.957 33.7668 23.5855 33.4624C24.749 32.899 25.5193 31.9889 25.8324 30.8076C26.107 29.7715 26.16 29.8246 24.8533 29.8246H23.7115L23.6422 30.1874C23.5639 30.5976 23.0685 31.2036 22.6291 31.4269C21.8626 31.8165 20.7298 31.4639 20.2698 30.6925C20.0371 30.3024 20.0179 30.1628 20.0179 28.8625V27.4549H26.0333H32.0486L32.3225 27.1858C32.6825 26.8321 32.7741 26.337 32.5562 25.9229C32.3315 25.496 32.0318 25.3277 31.3695 25.2568C30.2642 25.1385 29.3389 24.5006 28.8925 23.5489C28.6855 23.1077 28.6666 22.849 28.6095 19.676C28.5431 15.9909 28.5176 15.8121 27.8822 14.5752C26.9622 12.7841 25.1585 11.3625 23.2429 10.9187C22.23 10.6841 20.4533 10.7244 19.4933 11.0037Z" fill="#5D5D5D"/>
<g opacity="0.3" filter="url(#filter0_f)">
<ellipse cx="22.1554" cy="52.4976" rx="17.1451" ry="1.43899" fill="black"/>
</g>
<defs>
<filter id="filter0_f" x="1.01025" y="47.0586" width="42.2903" height="10.878" filterUnits="userSpaceOnUse" color-interpolation-filters="sRGB">
<feFlood flood-opacity="0" result="BackgroundImageFix"/>
<feBlend mode="normal" in="SourceGraphic" in2="BackgroundImageFix" result="shape"/>
<feGaussianBlur stdDeviation="2" result="effect1_foregroundBlur"/>
</filter>
</defs>
</svg>
