<svg width="14" height="14" viewBox="0 0 14 14" fill="none" xmlns="http://www.w3.org/2000/svg">
<g clip-path="url(#clip0)">
<path d="M7.01514 1.80664C3.87432 1.80664 1.32764 4.35332 1.32764 7.49414C1.32764 10.635 3.87432 13.1816 7.01514 13.1816C10.156 13.1816 12.7026 10.635 12.7026 7.49414C12.7026 4.35332 10.156 1.80664 7.01514 1.80664ZM9.11494 9.65488L8.27705 9.65107L7.01514 8.14668L5.75449 9.6498L4.91533 9.65361C4.85947 9.65361 4.81377 9.60918 4.81377 9.55205C4.81377 9.52793 4.82266 9.50508 4.83789 9.48604L6.48955 7.51826L4.83789 5.55176C4.82255 5.53315 4.81404 5.50986 4.81377 5.48574C4.81377 5.42988 4.85947 5.38418 4.91533 5.38418L5.75449 5.38799L7.01514 6.89238L8.27578 5.38926L9.11367 5.38545C9.16953 5.38545 9.21523 5.42988 9.21523 5.48701C9.21523 5.51113 9.20635 5.53398 9.19111 5.55303L7.54199 7.51953L9.19238 9.4873C9.20762 9.50635 9.2165 9.5292 9.2165 9.55332C9.2165 9.60918 9.1708 9.65488 9.11494 9.65488Z" fill="#18A160"/>
</g>
<defs>
<clipPath id="clip0">
<rect width="13" height="13" fill="white" transform="translate(0.515137 0.994141)"/>
</clipPath>
</defs>
</svg>
