<svg width="26" height="26" viewBox="0 0 26 26" fill="none" xmlns="http://www.w3.org/2000/svg">
<g opacity="0.75">
<path fill-rule="evenodd" clip-rule="evenodd" d="M16.877 9.34514C17.2838 9.75193 17.2838 10.4115 16.877 10.8183L10.627 17.0683C10.2202 17.4751 9.56065 17.4751 9.15385 17.0683C8.74706 16.6615 8.74706 16.0019 9.15385 15.5951L15.4039 9.34514C15.8106 8.93834 16.4702 8.93834 16.877 9.34514Z" fill="black"/>
<path d="M10.4112 11.1237C10.6989 11.1237 10.932 10.8905 10.932 10.6029C10.932 10.3152 10.6989 10.082 10.4112 10.082C10.1236 10.082 9.89038 10.3152 9.89038 10.6029C9.89038 10.8905 10.1236 11.1237 10.4112 11.1237Z" fill="black"/>
<path fill-rule="evenodd" clip-rule="evenodd" d="M10.4113 11.1234C10.6989 11.1234 10.9321 10.8902 10.9321 10.6025C10.9321 10.3149 10.6989 10.0817 10.4113 10.0817C10.1236 10.0817 9.89042 10.3149 9.89042 10.6025C9.89042 10.8902 10.1236 11.1234 10.4113 11.1234ZM8.84875 10.6025C8.84875 9.73959 9.54831 9.04004 10.4113 9.04004C11.2742 9.04004 11.9738 9.73959 11.9738 10.6025C11.9738 11.4655 11.2742 12.165 10.4113 12.165C9.54831 12.165 8.84875 11.4655 8.84875 10.6025Z" fill="black"/>
<path d="M15.6196 16.3317C15.9072 16.3317 16.1404 16.0985 16.1404 15.8109C16.1404 15.5232 15.9072 15.29 15.6196 15.29C15.3319 15.29 15.0988 15.5232 15.0988 15.8109C15.0988 16.0985 15.3319 16.3317 15.6196 16.3317Z" fill="black"/>
<path fill-rule="evenodd" clip-rule="evenodd" d="M15.6195 16.3324C15.9072 16.3324 16.1403 16.0992 16.1403 15.8115C16.1403 15.5239 15.9072 15.2907 15.6195 15.2907C15.3319 15.2907 15.0987 15.5239 15.0987 15.8115C15.0987 16.0992 15.3319 16.3324 15.6195 16.3324ZM14.057 15.8115C14.057 14.9486 14.7566 14.249 15.6195 14.249C16.4825 14.249 17.182 14.9486 17.182 15.8115C17.182 16.6745 16.4825 17.374 15.6195 17.374C14.7566 17.374 14.057 16.6745 14.057 15.8115Z" fill="black"/>
<path fill-rule="evenodd" clip-rule="evenodd" d="M13.0258 4.88509C12.8611 4.88509 12.698 4.91766 12.5459 4.98091C12.3937 5.04417 12.2556 5.13688 12.1395 5.25369L12.1374 5.25577L11.4082 5.98493L11.4062 5.987C10.7821 6.60761 9.93783 6.95619 9.05768 6.9567H8.01541C7.68389 6.9567 7.36595 7.08839 7.13153 7.32281C6.89711 7.55724 6.76541 7.87518 6.76541 8.2067V9.24836C6.76491 10.1285 6.41633 10.9733 5.79572 11.5974L5.79365 11.5995L5.06448 12.3287L5.06241 12.3308C4.94559 12.4469 4.85289 12.585 4.78963 12.7371C4.72637 12.8893 4.69381 13.0524 4.69381 13.2171C4.69381 13.3819 4.72637 13.545 4.78963 13.6971C4.85289 13.8492 4.94559 13.9873 5.06241 14.1035L5.06449 14.1055L5.79572 14.8368C6.41633 15.4609 6.76491 16.3051 6.76541 17.1853V18.2275C6.76541 18.5591 6.89711 18.877 7.13153 19.1114C7.36595 19.3458 7.68389 19.4775 8.01541 19.4775H9.05708C9.93723 19.478 10.7821 19.8266 11.4062 20.4472L11.4082 20.4493L12.1395 21.1805C12.2556 21.2973 12.3937 21.3901 12.5459 21.4533C12.698 21.5166 12.8611 21.5491 13.0258 21.5491C13.1906 21.5491 13.3537 21.5166 13.5058 21.4533C13.6579 21.3901 13.796 21.2973 13.9122 21.1805L13.9143 21.1785L14.6434 20.4493L14.6455 20.4472C15.2696 19.8266 16.1138 19.478 16.994 19.4775H18.0362C18.3678 19.4775 18.6857 19.3458 18.9201 19.1114C19.1546 18.877 19.2862 18.5591 19.2862 18.2275V17.1859C19.2868 16.3057 19.6353 15.4609 20.2559 14.8368L20.258 14.8347L20.9872 14.1055L20.9893 14.1035C21.1061 13.9873 21.1988 13.8492 21.262 13.6971C21.3253 13.545 21.3579 13.3819 21.3579 13.2171C21.3579 13.0524 21.3253 12.8893 21.262 12.7371C21.1988 12.585 21.1061 12.4469 20.9893 12.3308L20.9872 12.3287L20.258 11.5995L20.2559 11.5974C19.6353 10.9733 19.2868 10.1291 19.2862 9.24896V8.2067C19.2862 7.87518 19.1546 7.55724 18.9201 7.32281C18.6857 7.08839 18.3678 6.9567 18.0362 6.9567H16.9946C16.1144 6.95619 15.2696 6.60761 14.6455 5.987L14.6434 5.98493L13.9143 5.25577L13.9122 5.25369C13.796 5.13688 13.6579 5.04417 13.5058 4.98091C13.3537 4.91766 13.1906 4.88509 13.0258 4.88509ZM4.68208 9.24804C4.68182 9.57758 4.55144 9.89366 4.31934 10.1275C4.31904 10.1278 4.31874 10.1281 4.31844 10.1285L3.59342 10.8535C3.59301 10.8539 3.59261 10.8543 3.5922 10.8547C3.28126 11.1642 3.03447 11.5321 2.866 11.9372C2.69731 12.3428 2.61047 12.7778 2.61047 13.2171C2.61047 13.6564 2.69731 14.0914 2.866 14.4971C3.03449 14.9022 3.28131 15.2701 3.59231 15.5796C3.59268 15.58 3.59305 15.5804 3.59342 15.5808L4.31844 16.3058C4.31874 16.3061 4.31904 16.3064 4.31934 16.3067C4.55144 16.5406 4.68182 16.8567 4.68208 17.1862V18.2275C4.68208 19.1116 5.03327 19.9594 5.65839 20.5846C6.28351 21.2097 7.13136 21.5609 8.01541 21.5609H9.05649C9.38621 21.5611 9.7025 21.6915 9.93647 21.9238C9.93623 21.9236 9.9367 21.924 9.93647 21.9238L10.6622 22.6495C10.6626 22.6499 10.663 22.6503 10.6634 22.6507C10.9729 22.9617 11.3408 23.2085 11.7459 23.3769C12.1515 23.5456 12.5865 23.6325 13.0258 23.6325C13.4652 23.6325 13.9001 23.5456 14.3058 23.3769C14.7108 23.2085 15.0786 22.9618 15.3881 22.6509C15.3885 22.6505 15.389 22.65 15.3895 22.6495L16.1145 21.9245C16.1148 21.9242 16.1151 21.9239 16.1154 21.9236C16.3493 21.6914 16.6655 21.5611 16.9952 21.5609H18.0362C18.9203 21.5609 19.7682 21.2097 20.3933 20.5846C21.0184 19.9594 21.3696 19.1116 21.3696 18.2275V17.1865C21.3698 16.8568 21.5002 16.5406 21.7323 16.3067C21.7326 16.3064 21.7329 16.3061 21.7332 16.3058L22.4582 15.5808C22.4587 15.5803 22.4592 15.5798 22.4596 15.5794C22.7705 15.2699 23.0172 14.9021 23.1857 14.4971C23.3543 14.0914 23.4412 13.6564 23.4412 13.2171C23.4412 12.7778 23.3543 12.3428 23.1857 11.9372C23.0172 11.532 22.7704 11.1642 22.4594 10.8546C22.459 10.8542 22.4586 10.8539 22.4582 10.8535L21.7332 10.1285C21.7335 10.1287 21.733 10.1282 21.7332 10.1285C21.5009 9.89448 21.3698 9.5775 21.3696 9.24777V8.2067C21.3696 7.32264 21.0184 6.4748 20.3933 5.84968C19.7682 5.22455 18.9203 4.87336 18.0362 4.87336H16.9949C16.6654 4.8731 16.3493 4.74273 16.1154 4.51062C16.1151 4.51033 16.1148 4.51003 16.1145 4.50973L15.3895 3.7847C15.3891 3.78433 15.3887 3.78396 15.3884 3.78359C15.0788 3.4726 14.7109 3.22578 14.3058 3.05729C13.9001 2.8886 13.4651 2.80176 13.0258 2.80176C12.5865 2.80176 12.1515 2.8886 11.7459 3.05729C11.3408 3.22576 10.9729 3.47254 10.6634 3.78349C10.663 3.78389 10.6626 3.7843 10.6622 3.7847L9.93717 4.50973C9.93687 4.51003 9.93657 4.51033 9.93627 4.51062C9.70238 4.74273 9.38629 4.8731 9.05676 4.87336H8.01541C7.13136 4.87336 6.28351 5.22455 5.65839 5.84968C5.03327 6.4748 4.68208 7.32264 4.68208 8.2067V9.24804Z" fill="black"/>
</g>
</svg>
