<svg width="21" height="17" viewBox="0 0 21 17" fill="none" xmlns="http://www.w3.org/2000/svg">
<path d="M17.9834 0.418701H3.9834C3.18775 0.418701 2.42469 0.734772 1.86208 1.29738C1.29947 1.85999 0.983398 2.62305 0.983398 3.4187V13.4187C0.983398 14.2144 1.29947 14.9774 1.86208 15.54C2.42469 16.1026 3.18775 16.4187 3.9834 16.4187H17.9834C18.779 16.4187 19.5421 16.1026 20.1047 15.54C20.6673 14.9774 20.9834 14.2144 20.9834 13.4187V3.4187C20.9834 2.62305 20.6673 1.85999 20.1047 1.29738C19.5421 0.734772 18.779 0.418701 17.9834 0.418701ZM17.3134 2.4187L10.9834 7.1687L4.6534 2.4187H17.3134ZM17.9834 14.4187H3.9834C3.71818 14.4187 3.46383 14.3133 3.27629 14.1258C3.08876 13.9383 2.9834 13.6839 2.9834 13.4187V3.6687L10.3834 9.2187C10.5565 9.34852 10.767 9.4187 10.9834 9.4187C11.1998 9.4187 11.4103 9.34852 11.5834 9.2187L18.9834 3.6687V13.4187C18.9834 13.6839 18.878 13.9383 18.6905 14.1258C18.503 14.3133 18.2486 14.4187 17.9834 14.4187Z" fill="#3EA3CE"/>
</svg>
