<svg width="17" height="21" viewBox="0 0 17 21" fill="none" xmlns="http://www.w3.org/2000/svg">
<path d="M8.25812 0.929688C5.48082 0.929688 3.22131 3.16768 3.22131 5.91853V8.91184H2.21394C1.67961 8.91184 1.16715 9.12208 0.789318 9.49632C0.411484 9.87056 0.199219 10.3781 0.199219 10.9074V18.8895C0.199219 19.4188 0.411484 19.9264 0.789318 20.3006C1.16715 20.6748 1.67961 20.8851 2.21394 20.8851H14.3023C14.8366 20.8851 15.3491 20.6748 15.7269 20.3006C16.1048 19.9264 16.317 19.4188 16.317 18.8895V10.9074C16.317 10.3781 16.1048 9.87056 15.7269 9.49632C15.3491 9.12208 14.8366 8.91184 14.3023 8.91184H13.2949V5.91853C13.2949 3.16768 11.0354 0.929688 8.25812 0.929688ZM5.23603 5.91853C5.23603 4.26822 6.59194 2.92523 8.25812 2.92523C9.9243 2.92523 11.2802 4.26822 11.2802 5.91853V8.91184H5.23603V5.91853ZM9.26549 16.6176V18.8895H7.25076V16.6176C6.89857 16.4178 6.61578 16.1171 6.43966 15.7549C6.26355 15.3927 6.20238 14.9862 6.26423 14.5889C6.32608 14.1916 6.50805 13.8222 6.78613 13.5294C7.06421 13.2367 7.42535 13.0342 7.82193 12.9488C8.11651 12.8843 8.42194 12.8861 8.71571 12.9541C9.00949 13.0221 9.28411 13.1545 9.51933 13.3416C9.75454 13.5287 9.94436 13.7657 10.0748 14.0352C10.2052 14.3046 10.2729 14.5996 10.2728 14.8985C10.2723 15.2474 10.1788 15.5901 10.002 15.8919C9.82515 16.1937 9.57111 16.444 9.26549 16.6176Z" fill="#005365"/>
</svg>
