<svg width="163" height="146" viewBox="0 0 163 146" fill="none" xmlns="http://www.w3.org/2000/svg">
<g opacity="0.66">
<path d="M155.239 38.6196H38.8428V111.659H155.239V38.6196Z" fill="#DEE8F5"/>
<path d="M38.8428 38.6196L97.0407 72.9545L155.239 38.6196H38.8428Z" fill="#00A2D1"/>
<path d="M140.537 123.322C152.562 123.322 162.31 113.574 162.31 101.549C162.31 89.5244 152.562 79.7764 140.537 79.7764C128.512 79.7764 118.764 89.5244 118.764 101.549C118.764 113.574 128.512 123.322 140.537 123.322Z" fill="#0CBC8B"/>
<path d="M136.804 113.275C136.391 113.275 135.994 113.118 135.694 112.834L127.424 105.031C127.112 104.736 126.93 104.33 126.917 103.902C126.905 103.473 127.063 103.057 127.357 102.745C127.652 102.433 128.058 102.251 128.486 102.239C128.915 102.226 129.331 102.385 129.643 102.679L136.714 109.352L151.344 93.2305C151.632 92.913 152.034 92.7229 152.463 92.7021C152.891 92.6813 153.31 92.8315 153.627 93.1196C153.945 93.4077 154.135 93.8102 154.156 94.2384C154.177 94.6667 154.026 95.0857 153.738 95.4032L138.001 112.745C137.856 112.904 137.682 113.033 137.487 113.124C137.292 113.215 137.081 113.266 136.866 113.274C136.845 113.275 136.825 113.275 136.804 113.275Z" fill="white"/>
<path d="M9.38729 30.0416C9.38729 30.0416 7.1582 26.5004 7.2493 25.5414C7.34041 24.5824 10.1269 23.6124 10.1269 23.6124C10.1269 23.6124 9.72373 22.7642 9.36437 21.8335C8.94993 20.7596 8.59355 19.5752 8.98238 19.4573C9.35722 19.3433 9.92618 20.3184 10.4472 21.4521C11.1168 22.9074 11.7078 24.6223 11.7078 24.6223C11.7078 24.6223 11.7694 22.9286 12.3958 23.0363C12.6534 23.0807 12.762 23.3868 12.7629 24.6009C12.7629 25.9844 12.9794 28.1418 12.9794 28.1418L9.38729 30.0416Z" fill="#E98862"/>
<path d="M16.4646 45.9172C15.8188 45.9172 15.1877 45.7246 14.6521 45.3639C14.1164 45.0033 13.7005 44.491 13.4576 43.8926L7.62207 29.5225L13.6362 27.0811L15.4029 31.4321L16.7897 24.501L23.1555 25.775L19.6488 43.3082C19.5119 43.9926 19.158 44.6147 18.6396 45.082C18.1212 45.5494 17.4659 45.8372 16.771 45.9026C16.6684 45.9125 16.5662 45.9174 16.4646 45.9172Z" fill="#005365"/>
<path d="M5.93007 34.2664L9.53914 33.6905C9.68097 33.6679 9.81642 33.6156 9.93662 33.537C10.0568 33.4584 10.1591 33.3553 10.2367 33.2344C10.3143 33.1135 10.3655 32.9777 10.3869 32.8357C10.4084 32.6936 10.3996 32.5487 10.3612 32.4103L8.09039 24.2606C8.02323 24.0191 7.86951 23.8109 7.65858 23.6756C7.44764 23.5403 7.19427 23.4874 6.94682 23.527L3.33775 24.1028C3.19592 24.1254 3.06047 24.1778 2.94027 24.2564C2.82007 24.335 2.71782 24.4381 2.64022 24.5589C2.56262 24.6798 2.51142 24.8157 2.48996 24.9577C2.46851 25.0997 2.47728 25.2446 2.51572 25.383L4.7865 33.5328C4.85372 33.7741 5.00745 33.9824 5.21837 34.1177C5.42929 34.253 5.68263 34.3059 5.93007 34.2664Z" fill="#49769E"/>
<path d="M38.6301 107.54C33.218 106.173 32.6853 105.969 32.5103 105.903L34.7468 100.064C34.7292 100.057 34.7063 100.049 34.6783 100.04C35.1184 100.184 37.867 100.9 40.1613 101.479L38.6301 107.54Z" fill="#E98862"/>
<path d="M38.3869 115.707C38.3326 115.866 38.2462 116.013 38.1329 116.137C38.0196 116.261 37.8818 116.361 37.7283 116.429C37.5748 116.498 37.4088 116.534 37.2407 116.536C37.0726 116.537 36.9059 116.504 36.7512 116.438C36.5367 116.347 36.3527 116.197 36.2208 116.005C36.0889 115.812 36.0147 115.587 36.0068 115.354L36.011 107.679C36.0116 107.53 36.0443 107.384 36.1069 107.249C36.1694 107.114 36.2603 106.995 36.3733 106.899C37.3498 106.171 38.067 105.149 38.4193 103.984C38.6571 103.064 38.6315 102.095 38.3455 101.189C38.3144 101.107 38.3072 101.019 38.3247 100.933C38.3422 100.847 38.3837 100.769 38.4443 100.706C38.5049 100.643 38.5822 100.599 38.6671 100.578C38.752 100.557 38.841 100.561 38.9237 100.589L42.2975 101.721C42.397 101.754 42.4889 101.807 42.568 101.876C42.647 101.945 42.7117 102.029 42.7582 102.123C42.8048 102.217 42.8323 102.319 42.8393 102.424C42.8462 102.529 42.8324 102.634 42.7986 102.733L38.3869 115.707Z" fill="#C1D8ED"/>
<path d="M23.8148 142.504C23.8148 142.504 23.7939 136.029 23.7939 135.456H30.0463C30.0463 136.028 30.0671 142.484 30.0671 142.484L23.8148 142.504Z" fill="#E98862"/>
<path d="M40.197 52.8508C36.1854 48.8392 17.5467 54.2501 17.5467 54.2501L17.5298 54.3665L17.1481 54.1518C12.4073 63.6801 5.69414 77.9404 1.04957 87.6532C0.694724 88.321 0.480915 89.0546 0.421409 89.8085C0.361904 90.5624 0.45797 91.3204 0.703649 92.0356C0.949327 92.7508 1.33937 93.4079 1.84958 93.9661C2.35979 94.5243 2.97927 94.9716 3.66958 95.2804L23.9598 104.308C22.9178 115.752 21.7215 127.187 20.7256 138.614L31.6567 139.978C33.6431 126.346 35.6859 112.73 37.5097 99.0812L37.8075 98.4119L37.6113 98.3247C38.7298 89.9159 40.0166 81.517 40.6463 73.0475C41.1813 65.8449 42.3553 55.009 40.197 52.8508ZM13.8287 87.7446C17.7405 81.2243 22.3437 73.5406 26.3265 67.0188C26.1222 75.5824 25.6146 84.1397 24.9477 92.6917L13.8287 87.7446Z" fill="#262626"/>
<path d="M11.7422 32.1305L9.61373 35.0185C9.61373 35.0185 3.89258 33.8716 3.35607 29.4644C3.29414 28.9567 3.34773 27.5529 3.97624 27.7414C5.61375 28.2321 7.6514 30.7446 9.0805 31.0789C8.75449 30.4951 8.35672 29.6704 8.61307 29.5197C9.28802 29.1232 11.1024 31.516 11.7422 32.1305Z" fill="#E98862"/>
<path d="M33.2402 21.8806C33.2402 21.8806 30.8458 20.8523 30.8458 14.5621L26.033 14.0718C26.033 14.0718 27.0251 19.6301 24.7725 21.6043L33.2402 21.8806Z" fill="#E98862"/>
<g opacity="0.15">
<path opacity="0.15" d="M25.6479 20.3546L29.3398 17.02L26.2434 17.2415C26.2405 18.3072 26.0385 19.363 25.6479 20.3546Z" fill="black"/>
</g>
<path d="M33.337 11.9188C33.1643 13.8413 32.2771 15.7211 30.6551 16.4708C28.8917 17.3437 26.9415 17.7718 24.9747 17.7177C19.7501 17.7177 19.8091 5.83297 22.0849 3.3389C24.3608 0.844824 31.7114 1.70347 32.9053 5.46498C33.5228 7.41064 33.5019 10.0887 33.337 11.9188Z" fill="#E98862"/>
<path d="M25.7586 11.0684C25.9968 11.0684 26.19 10.8752 26.19 10.637C26.19 10.3987 25.9968 10.2056 25.7586 10.2056C25.5203 10.2056 25.3271 10.3987 25.3271 10.637C25.3271 10.8752 25.5203 11.0684 25.7586 11.0684Z" fill="#0F1011"/>
<path d="M22.343 11.0684C22.5813 11.0684 22.7744 10.8752 22.7744 10.637C22.7744 10.3987 22.5813 10.2056 22.343 10.2056C22.1048 10.2056 21.9116 10.3987 21.9116 10.637C21.9116 10.8752 22.1048 11.0684 22.343 11.0684Z" fill="#0F1011"/>
<path d="M21.5064 9.78281C21.4537 9.78377 21.4027 9.76414 21.3643 9.72809C21.3258 9.69204 21.303 9.64242 21.3005 9.58977C21.2981 9.53712 21.3163 9.48559 21.3512 9.44614C21.3862 9.40669 21.4351 9.38242 21.4877 9.3785L22.6256 9.27072C22.679 9.2663 22.7319 9.28296 22.7732 9.31713C22.8144 9.3513 22.8406 9.40026 22.8462 9.45352C22.8488 9.48004 22.846 9.5068 22.8382 9.53226C22.8304 9.55773 22.8176 9.5814 22.8007 9.60192C22.7837 9.62244 22.7628 9.63941 22.7393 9.65186C22.7157 9.6643 22.6899 9.67198 22.6634 9.67444L21.5258 9.78192L21.5064 9.78281Z" fill="#0F1011"/>
<path d="M26.6061 9.78257C26.5961 9.78258 26.5862 9.78178 26.5763 9.78019L25.4313 9.60155C25.4048 9.59762 25.3794 9.58851 25.3565 9.57473C25.3336 9.56095 25.3137 9.54278 25.2978 9.52127C25.282 9.49975 25.2705 9.47531 25.2642 9.44936C25.2578 9.4234 25.2566 9.39644 25.2607 9.37003C25.2648 9.34362 25.274 9.31827 25.2879 9.29545C25.3018 9.27263 25.3201 9.25279 25.3417 9.23706C25.3634 9.22134 25.3879 9.21004 25.4139 9.20381C25.4398 9.19759 25.4668 9.19657 25.4932 9.20081L26.6386 9.37944C26.6886 9.38762 26.7337 9.41423 26.7651 9.45404C26.7964 9.49384 26.8118 9.54395 26.808 9.59448C26.8043 9.64502 26.7818 9.69233 26.7449 9.72709C26.708 9.76185 26.6595 9.78153 26.6088 9.78227L26.6061 9.78257Z" fill="#0F1011"/>
<path d="M25.8363 14.0396C25.8363 14.0396 24.2631 14.3373 23.1187 14.0396C23.1187 14.0396 23.213 15.084 24.4775 15.084C25.7419 15.084 25.8363 14.0396 25.8363 14.0396Z" fill="white"/>
<path d="M29.443 7.29354C29.6996 15.9795 30.9614 16.7747 30.9614 16.7747C30.9614 16.7747 35.07 13.8215 35.2079 8.58151C35.3377 3.66899 31.514 1.08857 29.0449 0.744993C19.6638 -0.559655 19.3345 7.91103 19.3345 7.91103C24.0425 8.71817 30.4552 7.38464 30.4552 7.38464" fill="#0F1011"/>
<path d="M28.0817 11.5057C28.0786 11.7478 28.1236 11.9881 28.2141 12.2127C28.3047 12.4373 28.4389 12.6417 28.609 12.814C28.7791 12.9863 28.9818 13.1231 29.2052 13.2165C29.4286 13.3099 29.6683 13.358 29.9105 13.358C30.1526 13.358 30.3924 13.3099 30.6158 13.2165C30.8392 13.1231 31.0419 12.9863 31.212 12.814C31.3821 12.6417 31.5163 12.4373 31.6068 12.2127C31.6974 11.9881 31.7424 11.7478 31.7393 11.5057C31.7434 11.2644 31.6989 11.0248 31.6085 10.801C31.518 10.5773 31.3835 10.3741 31.2129 10.2035C31.0422 10.0328 30.839 9.89829 30.6153 9.80785C30.3916 9.7174 30.1519 9.67291 29.9106 9.67702C28.6081 9.74133 28.0817 10.4961 28.0817 11.5057Z" fill="#E98862"/>
<path d="M36.9083 8.58168C39.2113 8.58168 41.0783 6.71471 41.0783 4.41169C41.0783 2.10867 39.2113 0.241699 36.9083 0.241699C34.6052 0.241699 32.7383 2.10867 32.7383 4.41169C32.7383 6.71471 34.6052 8.58168 36.9083 8.58168Z" fill="#0F1011"/>
<path d="M40.5154 23.0607C39.1547 21.7001 36.8057 20.8218 33.9415 20.8188C33.7271 22.4891 23.5865 22.4951 23.5091 20.8576C23.122 20.8635 22.8213 20.8695 22.6338 20.8784C15.7512 21.1761 15.7714 26.7222 16.4484 32.8527L10.7851 30.3551L8.16504 36.2948L17.1782 40.2701C17.1841 40.4487 17.1883 40.6273 17.1907 40.806C17.3068 50.4703 14.6957 52.2924 15.9822 55.2458C17.2294 58.113 41.7414 59.3039 42.0689 54.2603C42.2773 51.0508 39.4489 48.2492 39.4489 41.9939C39.4489 35.7386 45.2046 27.75 40.5154 23.0607Z" fill="#005365"/>
<path d="M23.5093 20.8576C23.5867 22.4951 24.4769 24.9037 27.2249 25.0853C30.887 25.3265 33.7273 22.4891 33.9417 20.8188H33.9328C30.3273 20.8188 25.6121 20.8248 23.5093 20.8576Z" fill="#E98862"/>
<g opacity="0.15">
<path opacity="0.15" d="M24.0344 13.1789C24.0236 13.1789 24.0128 13.1777 24.0022 13.1753L22.9411 12.9422C22.9205 12.9377 22.9011 12.9288 22.8842 12.9162C22.8673 12.9036 22.8532 12.8876 22.843 12.8691C22.8327 12.8507 22.8265 12.8303 22.8247 12.8093C22.823 12.7882 22.8257 12.7671 22.8327 12.7472L23.3889 11.1761C23.403 11.1401 23.4305 11.111 23.4657 11.095C23.5008 11.0789 23.5408 11.0772 23.5772 11.0901C23.6136 11.103 23.6436 11.1296 23.6608 11.1642C23.678 11.1988 23.6811 11.2387 23.6693 11.2755L23.1695 12.6876L24.0662 12.8847C24.102 12.8927 24.1335 12.9136 24.1548 12.9433C24.1761 12.9731 24.1858 13.0097 24.1818 13.0461C24.1779 13.0825 24.1606 13.1161 24.1335 13.1406C24.1063 13.1651 24.071 13.1788 24.0344 13.1789Z" fill="black"/>
</g>
<path d="M16.2217 145.048C16.0535 145.048 15.8873 145.012 15.7335 144.944C15.5797 144.876 15.4415 144.778 15.3276 144.654C15.2137 144.53 15.1266 144.384 15.0716 144.225C15.0166 144.067 14.995 143.898 15.0081 143.73C15.0262 143.498 15.1103 143.276 15.2506 143.089C15.3909 142.903 15.5814 142.761 15.7998 142.68L23.0769 140.242C23.2179 140.195 23.3673 140.18 23.515 140.196C23.6626 140.213 23.8049 140.261 23.9322 140.337C24.9326 141.032 26.1293 141.386 27.3463 141.35C28.2944 141.282 29.2044 140.95 29.9726 140.39C30.0401 140.335 30.1219 140.3 30.2086 140.289C30.2952 140.279 30.3831 140.293 30.4619 140.33C30.5408 140.368 30.6073 140.427 30.6539 140.501C30.7005 140.575 30.7251 140.66 30.7249 140.747V144.306C30.7249 144.411 30.7042 144.515 30.6639 144.612C30.6236 144.709 30.5646 144.797 30.4902 144.871C30.4159 144.945 30.3276 145.004 30.2305 145.043C30.1333 145.083 30.0293 145.104 29.9243 145.103L16.2217 145.048Z" fill="#C1D8ED"/>
</g>
</svg>
