<svg width="148" height="145" viewBox="0 0 148 145" fill="none" xmlns="http://www.w3.org/2000/svg">
<g opacity="0.66">
<path d="M85.6778 61.5985C85.6778 61.5985 77.8137 77.3298 69.8265 88.1892C66.648 92.5109 63.4499 96.0606 60.7207 97.5414C58.0489 98.9902 55.7871 101.241 53.9153 103.735C49.0679 110.193 46.8315 118.278 46.8315 118.278L26.4056 87.3761C26.4056 87.3761 27.1029 57.17 29.5553 52.1165C33.1296 44.7535 34.856 29.8763 36.2292 26.9138C37.2477 24.7168 40.1567 13.3672 40.436 12.5327C40.5575 12.173 41.525 11.6219 42.7825 11.6235C43.791 11.6235 45.5043 12.5984 45.9363 14.6024C48.121 24.73 45.4911 31.4097 45.5215 31.707C46.2919 39.4905 43.9758 45.2676 45.6004 46.7977C45.6612 46.8544 45.7728 46.8273 45.9322 46.7263C48.7476 44.9186 66.2251 19.4391 68.3769 18.8888C70.6495 18.3082 85.6778 61.5985 85.6778 61.5985Z" fill="#FFB27D"/>
<path d="M52.9766 112.161C52.9766 112.161 52.6982 125.894 51.9023 144.388H0.380005C12.1567 119.274 22.3952 98.136 22.3952 98.136C22.3952 98.136 51.7315 99.0329 52.9766 112.161Z" fill="#00A2D1"/>
<path d="M103.536 8.358L97.2105 17.6306L91.0039 26.7307C90.6253 27.1873 90.1875 27.3458 89.7136 27.3006C88.2246 27.1594 86.3816 25.0108 84.9451 23.8216L84.7997 23.7017C82.9058 22.1346 82.638 19.3036 84.2051 17.4113L93.692 5.94335V5.94253L96.5058 2.54149C98.0729 0.647553 100.903 0.379805 102.796 1.94686L102.942 2.06677C104.836 3.63301 105.103 6.46406 103.536 8.358Z" fill="#FFB27D"/>
<path d="M97.2112 17.6305L91.0046 26.7306C90.626 27.1873 90.1882 27.3458 89.7143 27.3006L93.6927 5.9433C93.7001 6.06321 94.3769 15.6454 97.2112 17.6305Z" fill="#EFA26F"/>
<path d="M69.8263 88.1884C66.6478 92.5101 63.4496 96.0598 60.7204 97.5407C58.0487 98.9894 55.7868 101.24 53.915 103.734C51.7624 102.73 49.3083 101.554 46.9101 100.387C43.9895 98.9681 43.877 94.8205 46.7385 93.2838C46.7664 93.269 46.7935 93.2534 46.8206 93.2386C49.5013 91.7044 52.2486 86.2887 52.2486 86.2887L69.8263 88.1884Z" fill="#EFA26F"/>
<path d="M40.2941 13.0024L38.6392 19.6838C38.6392 19.6838 40.0863 20.2759 41.0152 19.816C41.9441 19.3561 42.7022 13.3622 40.2941 13.0024Z" fill="#FFC197"/>
<path d="M87.888 91.3455H52.3007C48.8003 91.3455 45.9364 88.4816 45.9364 84.9812V6.75812C45.9364 3.2577 48.8003 0.393799 52.3007 0.393799H87.888C91.3884 0.393799 94.2523 3.2577 94.2523 6.75812V84.9812C94.2531 88.4816 91.3884 91.3455 87.888 91.3455Z" fill="#005365"/>
<path d="M91.8585 7.36006V83.7705C91.8585 86.3625 89.7526 88.4831 87.1803 88.4831H53.009C50.4366 88.4831 48.3316 86.3625 48.3316 83.7705V7.36006C48.3316 4.76802 50.4366 2.6474 53.009 2.6474H87.1803C89.7526 2.6474 91.8585 4.76802 91.8585 7.36006Z" fill="#C0D8FB"/>
<path d="M87.1803 2.6474L53.4319 88.4831H53.009C50.4366 88.4831 48.3316 86.3625 48.3316 83.7705V7.36006C48.3316 4.76802 50.4366 2.6474 53.009 2.6474H87.1803Z" fill="#CBE1FD"/>
<path d="M77.2354 5.48925H62.9537C61.7907 5.48925 60.8388 4.53735 60.8388 3.37438V3.04175C60.8388 1.87878 61.7907 0.92688 62.9537 0.92688H77.2354C78.3984 0.92688 79.3503 1.87878 79.3503 3.04175V3.37438C79.3503 4.53735 78.3992 5.48925 77.2354 5.48925Z" fill="#005365"/>
<path d="M66.2664 52.1657H53.7957C53.3637 52.1657 53.0097 51.8117 53.0097 51.3797V51.0044C53.0097 50.5724 53.3637 50.2184 53.7957 50.2184H66.2664C66.6984 50.2184 67.0524 50.5724 67.0524 51.0044V51.3797C67.0524 51.8117 66.6984 52.1657 66.2664 52.1657Z" fill="#88B2F0"/>
<path d="M66.4169 59.1657H53.6431C53.294 59.1657 53.0082 58.8799 53.0082 58.5309C53.0082 58.1818 53.294 57.896 53.6431 57.896H66.4169C66.7659 57.896 67.0517 58.1818 67.0517 58.5309C67.0517 58.8799 66.7659 59.1657 66.4169 59.1657Z" fill="#88B2F0"/>
<path d="M60.7621 62.1701H53.4944C53.2267 62.1701 53.0082 61.9516 53.0082 61.6839V61.3865C53.0082 61.1188 53.2267 60.9003 53.4944 60.9003H60.7621C61.0299 60.9003 61.2484 61.1188 61.2484 61.3865V61.6839C61.2484 61.9516 61.0291 62.1701 60.7621 62.1701Z" fill="#88B2F0"/>
<path d="M75.5737 62.1702H63.8298C63.4947 62.1702 63.2195 61.8958 63.2195 61.5599V61.5098C63.2195 61.1747 63.4939 60.8996 63.8298 60.8996H75.5737C75.9088 60.8996 76.1839 61.1739 76.1839 61.5098V61.5599C76.1839 61.8958 75.9096 62.1702 75.5737 62.1702Z" fill="#88B2F0"/>
<path d="M86.5462 59.1657H69.7973C69.4482 59.1657 69.1624 58.8799 69.1624 58.5309C69.1624 58.1818 69.4482 57.896 69.7973 57.896H86.5462C86.8953 57.896 87.1811 58.1818 87.1811 58.5309C87.1811 58.8799 86.8953 59.1657 86.5462 59.1657Z" fill="#88B2F0"/>
<path d="M66.4169 65.1751H53.6431C53.294 65.1751 53.0082 64.8893 53.0082 64.5403C53.0082 64.1912 53.294 63.9054 53.6431 63.9054H66.4169C66.7659 63.9054 67.0517 64.1912 67.0517 64.5403C67.0517 64.8893 66.7659 65.1751 66.4169 65.1751Z" fill="#88B2F0"/>
<path d="M86.5462 65.1751H69.7973C69.4482 65.1751 69.1624 64.8893 69.1624 64.5403C69.1624 64.1912 69.4482 63.9054 69.7973 63.9054H86.5462C86.8953 63.9054 87.1811 64.1912 87.1811 64.5403C87.1811 64.8893 86.8953 65.1751 86.5462 65.1751Z" fill="#88B2F0"/>
<path d="M78.4224 52.1657H69.4652C69.0948 52.1657 68.7917 51.8626 68.7917 51.4922V50.8919C68.7917 50.5214 69.0948 50.2184 69.4652 50.2184H78.4224C78.7928 50.2184 79.0959 50.5214 79.0959 50.8919V51.4922C79.0959 51.8626 78.7928 52.1657 78.4224 52.1657Z" fill="#88B2F0"/>
<path d="M100.387 43.3753L99.4436 43.7334L93.1007 46.144C92.952 46.2006 92.8017 46.2483 92.6514 46.286C90.5513 46.8322 88.3166 45.712 87.5289 43.6398L87.4361 43.3959C86.5918 41.175 87.7186 38.6668 89.9395 37.8225L95.8529 35.5754L96.2824 35.4119L97.2261 35.0538C99.4469 34.2095 101.954 35.3364 102.798 37.558L102.891 37.8019C103.735 40.0236 102.609 42.531 100.387 43.3753Z" fill="#FFB27D"/>
<path d="M95.237 43.5208C94.1783 43.9216 92.2622 44.6336 91.2372 44.7807C90.9473 44.8225 90.4126 44.6649 89.9141 44.1187C89.6151 43.7918 89.3285 43.3253 89.1166 42.6798C89.0172 42.3759 88.9343 42.0736 88.8998 41.7615C88.8603 41.396 88.871 41.0314 88.9343 40.6692C88.9926 40.3431 89.2151 40.0466 89.5396 39.8898C89.5404 39.8889 89.5429 39.8889 89.5445 39.8873C90.6344 39.3666 92.1029 38.7325 93.3915 38.3786C94.2818 38.133 95.1828 38.5256 95.4645 39.305L95.5975 39.6688L96.2784 41.5332C96.5593 42.3093 96.1018 43.1947 95.237 43.5208Z" fill="#FFD3B6"/>
<path d="M95.237 43.5208C94.1783 43.9216 92.2622 44.6337 91.2372 44.7807C90.9473 44.8226 90.4126 44.6649 89.9141 44.1187C89.8607 43.9947 89.8123 43.8633 89.7654 43.7236C89.6661 43.4198 89.5831 43.1175 89.5486 42.8054C89.5092 42.4399 89.5199 42.0753 89.5831 41.7131C89.6414 41.387 89.864 41.0905 90.1884 40.9337C90.1892 40.9328 90.1917 40.9328 90.1934 40.9312C91.2832 40.4105 92.7526 39.7764 94.0404 39.4225C94.6112 39.2648 95.1844 39.3691 95.5976 39.6697L96.2784 41.534C96.5593 42.3093 96.1018 43.1947 95.237 43.5208Z" fill="#FFC197"/>
<path d="M97.5099 52.2931L92.6181 53.6244C91.1316 54.0293 89.585 53.1439 89.1801 51.6574L89.0298 51.1038C88.6249 49.6172 89.5103 48.0707 90.9969 47.6658L95.8886 46.3345C97.3752 45.9296 98.9217 46.8149 99.3266 48.3015L99.4777 48.8551C99.881 50.3408 98.9964 51.8882 97.5099 52.2931Z" fill="#FFB27D"/>
<path d="M94.865 52.0533C93.9665 52.2931 92.3419 52.7169 91.491 52.7629C91.1814 52.7802 90.5613 52.5182 90.1564 51.7043C90.057 51.5071 89.9724 51.2788 89.9059 51.0144C89.8468 50.7745 89.8016 50.5363 89.7967 50.2957C89.7909 50.0115 89.8271 49.7323 89.9059 49.4588C89.9765 49.2116 90.1819 48.9989 90.4587 48.9003C90.4611 48.8995 90.4619 48.8995 90.4636 48.8978C91.3958 48.5685 92.6474 48.1751 93.7307 47.9862C94.479 47.8548 95.1886 48.2145 95.3635 48.8313L95.49 49.2715L95.867 50.5947C96.0403 51.2065 95.5984 51.8578 94.865 52.0533Z" fill="#FFD3B6"/>
<path d="M94.8644 52.0532C93.9659 52.2931 92.3413 52.7169 91.4905 52.7629C91.1808 52.7801 90.5608 52.5181 90.1558 51.7042C90.1016 51.4808 90.0622 51.2566 90.0573 51.0291C90.0515 50.7465 90.0877 50.4657 90.1665 50.1922C90.2372 49.9466 90.4425 49.7322 90.7193 49.6337C90.7217 49.6329 90.7226 49.6329 90.7242 49.6312C91.6564 49.3019 92.9089 48.9093 93.9914 48.7212C94.6106 48.612 95.2044 48.8403 95.4894 49.2723L95.8664 50.5954C96.0397 51.2065 95.5978 51.8578 94.8644 52.0532Z" fill="#FFC197"/>
<path d="M17.3804 108.555C17.3804 108.555 27.4488 118.198 34.2353 121.921L39.3742 118.276V123.653C39.3742 123.653 49.4804 125.44 52.6679 123.653V108.99L24.2826 94.7604L17.3804 108.555Z" fill="#008CB5"/>
<path d="M54.8125 122.486C50.9023 123.288 42.4748 120.216 42.4748 120.216L43.8341 107.087L34.311 117.994C29.4645 116.19 21.8846 111.484 17.3806 108.555C15.1384 107.096 13.6584 106.079 13.6584 106.079C20.0137 95.8519 26.4067 86.287 26.4067 86.287C28.2834 90.0403 32.7242 93.3001 37.5379 95.9069C45.5383 100.24 54.5686 102.771 54.5686 102.771C54.5661 110.576 54.8125 122.486 54.8125 122.486Z" fill="#DCEAFF"/>
<path d="M45.9366 67.3568C45.9366 67.3568 44.5379 55.1448 43.2468 52.7638C41.9557 50.382 40.8642 45.6127 42.8493 42.0695C44.8352 38.5248 45.521 31.7071 45.521 31.7071C46.2914 39.4906 43.9753 45.2677 45.5998 46.7978C45.6606 46.8545 45.7723 46.8274 45.9316 46.7264L45.9366 67.3568Z" fill="#EFA26F"/>
<path d="M143.769 144.394H105.984C104.172 143.179 94.762 136.761 90.8681 131.976C90.0435 130.961 87.0252 122.223 84.7059 115.127C83.2579 110.695 82.0818 106.903 81.883 106.033C81.814 105.73 81.768 105.129 81.7401 104.316V104.308C81.6416 101.406 81.7763 95.8109 81.9151 91.366L81.9159 91.3455L81.9183 91.2871C81.9249 91.0917 81.9307 90.8995 81.9372 90.7089V90.7024C81.9381 90.6835 81.9381 90.6638 81.9389 90.6449C81.9643 89.8728 81.989 89.1452 82.012 88.4832C82.0703 86.8291 82.1196 85.5848 82.1401 85.0978L82.1483 84.8711C82.1483 84.8711 82.1491 84.8711 82.15 84.8703C82.2099 84.8366 84.0275 83.8666 86.4569 85.6168C87.0433 86.0398 87.5854 87.0615 88.0798 88.3945C88.396 89.2454 88.6925 90.2227 88.9685 91.2526C90.0296 95.2138 90.7909 99.9495 91.1975 101.218C91.8529 103.267 99.5781 112.278 100.061 112.838C100.068 112.848 100.077 112.857 100.084 112.866V98.6354L94.2519 83.0305L91.8578 76.6243L90.6546 73.4048C90.6546 73.4048 88.8091 70.375 87.261 66.73C86.5834 65.135 85.9625 63.4226 85.5781 61.7948C85.4861 61.4071 85.4081 61.0236 85.3457 60.6482C85.3457 60.6474 85.3457 60.6474 85.3457 60.6466C85.1182 59.2709 85.1026 57.9946 85.4188 56.9556C85.983 55.1052 87.2544 54.757 88.2309 54.7948C88.3319 54.7981 88.4297 54.8071 88.5241 54.8178C88.6194 54.8293 88.7139 54.8473 88.805 54.872C88.9767 54.9171 89.1393 54.9861 89.2904 55.074C89.2921 55.074 89.292 55.0748 89.2929 55.0757C89.5434 55.2218 89.7594 55.4231 89.9269 55.6686C89.9269 55.6686 90.7515 56.7454 91.8578 58.1925C92.5855 59.1452 93.4355 60.2581 94.2519 61.3307C95.7056 63.2419 97.0559 65.025 97.4271 65.5473C99.4336 68.3718 104.836 77.5762 104.836 77.5762L111.16 77.8415C112.162 77.8834 113.116 78.2825 113.848 78.9667C116.097 81.0668 120.945 85.6111 121.54 86.287C121.54 86.5088 125.308 88.3206 128.218 89.9336C130.3 90.8132 134.255 93.9309 134.255 93.9309C135.074 94.6545 135.698 95.3748 136.015 96.0631C137.371 99.014 141.048 124.679 142.807 137.367C143.373 141.445 143.74 144.183 143.769 144.394Z" fill="#FFB27D"/>
<path d="M104.836 77.5762C104.836 77.5762 110.694 87.1396 111.47 87.5707C112.245 88.0019 115.261 88.6048 115.605 87.5707C115.951 86.5359 104.836 77.5762 104.836 77.5762Z" fill="#EFA26F"/>
<path d="M134.284 93.9572C134.274 93.9481 134.265 93.9399 134.255 93.9309C134.255 93.9309 130.3 90.8132 128.218 89.9336C125.546 88.4519 122.152 86.8044 121.614 86.3724C122.234 87.0812 126.598 92.0189 128.276 92.3893C129.751 92.7145 133.099 93.6303 134.284 93.9572Z" fill="#EFA26F"/>
<path d="M100.085 112.866V98.6345C100.085 98.6345 103.465 104.29 103.724 107.391C103.983 110.493 102.319 115.514 100.085 112.866Z" fill="#EFA26F"/>
<path d="M87.8184 60.6442C87.324 59.7966 86.4386 58.2599 86.1347 57.4C86.0485 57.1569 86.0592 56.6707 86.3581 56.1524C86.5372 55.842 86.8189 55.5192 87.2451 55.2317C87.4455 55.0962 87.6484 54.9763 87.8677 54.8958C88.1239 54.803 88.3909 54.7521 88.6644 54.7488C88.9116 54.7463 89.1686 54.8901 89.3452 55.1447C89.346 55.1455 89.3469 55.1471 89.3477 55.148C89.9349 56.0029 90.6774 57.1667 91.1817 58.2205C91.5315 58.9482 91.4207 59.7884 90.9115 60.1579L90.6741 60.3321L89.4569 61.2207C88.9502 61.5887 88.2209 61.3373 87.8184 60.6442Z" fill="#FFD3B6"/>
<path d="M87.8184 60.6442C87.324 59.7966 86.4386 58.2599 86.1347 57.4C86.0485 57.1569 86.0592 56.6707 86.3581 56.1524C86.4378 56.0867 86.5232 56.0235 86.6152 55.9603C86.8156 55.8247 87.0185 55.7048 87.2378 55.6243C87.494 55.5315 87.7609 55.4814 88.0344 55.4773C88.2816 55.4749 88.5387 55.6186 88.7153 55.8732C88.7161 55.874 88.7169 55.8757 88.7177 55.8765C89.305 56.7315 90.0475 57.8953 90.5517 58.949C90.776 59.4155 90.8113 59.9272 90.6733 60.3313L89.4561 61.2199C88.9502 61.5887 88.2209 61.3374 87.8184 60.6442Z" fill="#FFC197"/>
<path d="M124.785 138.55L113.498 144.394H105.984C104.172 143.179 94.7622 136.76 90.8683 131.976C90.0437 130.961 87.0254 122.222 84.7061 115.127V115.124C85.014 116.066 91.4868 129.852 93.3298 131.419C95.1728 132.985 104.849 142.109 107.522 142.016C110.111 141.927 123.892 138.755 124.746 138.559C124.76 138.557 124.772 138.553 124.785 138.55Z" fill="#EFA26F"/>
<path d="M147.496 144.394H106.803C108.844 143.593 116.652 140.61 124.746 138.559C124.76 138.557 124.772 138.553 124.785 138.55C131.737 136.792 138.893 135.726 142.779 137.325L142.807 137.367L147.496 144.394Z" fill="#D2E3FC"/>
<path d="M81.9387 90.6449C81.9395 90.6449 81.9403 90.6449 81.9412 90.6441C82.6269 90.3927 83.5895 90.2268 84.0577 91.0087C84.787 92.2259 82.0783 102.965 81.7399 104.316L81.9387 90.6449Z" fill="#EFA26F"/>
<path d="M82.1482 84.8702L81.9158 91.3659C81.9158 91.3659 83.2816 91.5885 84.0586 91.0086C84.8355 90.4288 84.4232 84.7938 82.1482 84.8702Z" fill="#FFC197"/>
<path d="M54.8123 122.486C50.9021 123.288 42.4746 120.216 42.4746 120.216L43.8339 107.087L34.3108 117.994C29.4643 116.19 21.8844 111.484 17.3804 108.555C28.9214 107.297 37.5377 95.908 37.5377 95.908C45.5381 100.241 54.5684 102.772 54.5684 102.772C54.5659 110.576 54.8123 122.486 54.8123 122.486Z" fill="#CBE1FD"/>
<path d="M27.9793 110.561C27.9875 109.685 28.7037 108.982 29.5792 108.991C30.4547 108.999 31.1577 109.715 31.1495 110.59C31.1413 111.466 30.4251 112.169 29.5496 112.161C28.6741 112.153 27.971 111.436 27.9793 110.561Z" fill="#008CB5"/>
<path d="M52.2393 31.0078C52.2393 29.7111 53.2904 28.66 54.5871 28.66H85.3039C86.6005 28.66 87.6517 29.7111 87.6517 31.0078V39.7202C87.6517 41.0169 86.6005 42.0681 85.3039 42.0681H54.5871C53.2904 42.0681 52.2393 41.0169 52.2393 39.7203V31.0078Z" fill="white"/>
<path d="M60.6099 35.2028L60.1424 33.7614L58.2139 34.5405L58.3503 32.5147H56.7725L56.8894 34.5405L54.9025 33.8003L54.474 35.2223L56.5193 35.8066L55.0973 37.4429L56.344 38.3973L57.5711 36.6442L58.7983 38.3779L60.0644 37.4624L58.6425 35.7677L60.6099 35.2028Z" fill="black"/>
<path d="M68.7705 35.2028L68.303 33.7614L66.3745 34.5405L66.5109 32.5147H64.9331L65.05 34.5405L63.0631 33.8003L62.6346 35.2223L64.6799 35.8066L63.2579 37.4429L64.5046 38.3973L65.7317 36.6442L66.9589 38.3779L68.225 37.4624L66.8031 35.7677L68.7705 35.2028Z" fill="black"/>
<path d="M76.931 35.2028L76.4636 33.7614L74.5351 34.5405L74.6715 32.5147H73.0937L73.2106 34.5405L71.2237 33.8003L70.7952 35.2223L72.8405 35.8066L71.4185 37.4429L72.6652 38.3973L73.8923 36.6442L75.1195 38.3779L76.3856 37.4624L74.9637 35.7677L76.931 35.2028Z" fill="black"/>
<path d="M85.0916 35.2028L84.6241 33.7614L82.6957 34.5405L82.8321 32.5147H81.2543L81.3712 34.5405L79.3843 33.8003L78.9558 35.2223L81.0011 35.8066L79.5791 37.4429L80.8258 38.3973L82.0529 36.6442L83.2801 38.3779L84.5462 37.4624L83.1243 35.7677L85.0916 35.2028Z" fill="black"/>
<path d="M100.233 34.0008C100.199 34.0131 100.163 34.0255 100.127 34.037L93.7145 35.6837C90.8949 36.4081 87.9785 34.8829 87.2344 32.2933L86.8533 30.9669C86.1379 28.4808 87.6754 25.8814 90.2954 25.0387L92.4127 24.495L96.7082 23.392C99.5277 22.6676 102.443 24.1927 103.188 26.7823L103.569 28.1087C104.275 30.5604 102.789 33.122 100.233 34.0008Z" fill="#FFB27D"/>
<path d="M97.294 32.2104L94.1788 33.6148C94.1738 33.6156 94.1681 33.6173 94.159 33.6197C94.0342 33.6534 93.9077 33.6789 93.7821 33.6978C93.7295 33.706 93.6761 33.7117 93.6244 33.7175C93.6022 33.7199 93.58 33.7199 93.5587 33.7183C93.2154 33.7068 92.9805 33.343 93.1283 33.0177C93.4223 32.3763 93.5028 31.6346 93.3049 30.9053L93.231 30.6343C93.231 30.6318 93.2301 30.6285 93.2285 30.6261L92.987 29.7415C92.7957 29.0368 92.3891 28.4463 91.8577 28.0201C91.7937 27.9675 91.728 27.919 91.6606 27.873C91.0446 27.4468 91.2015 26.4809 91.9226 26.2797C91.9292 26.2772 91.9358 26.2764 91.9423 26.274L95.3614 25.7565C96.2066 25.5274 97.0205 26.177 97.2513 27.023L97.5256 28.0307L98.1104 30.1793C98.3403 31.0244 98.1391 31.9812 97.294 32.2104Z" fill="#FFD3B6"/>
<path d="M97.2943 32.2105L94.1791 33.615C94.1742 33.6158 94.1684 33.6174 94.1594 33.6199C94.0863 33.6339 93.858 33.6725 93.559 33.7185C93.2157 33.707 92.9808 33.3431 93.1287 33.0179C93.4227 32.3765 93.5032 31.6348 93.3052 30.9055L93.2313 30.6345C93.2313 30.632 93.2305 30.6287 93.2289 30.6262L92.9874 29.7417C92.796 29.037 92.3895 28.4465 91.8581 28.0202C91.9681 27.8593 92.1332 27.7311 92.3484 27.6712C92.3542 27.6687 92.3616 27.6679 92.3681 27.6654L95.7872 27.148C96.4993 26.9542 97.1876 27.3854 97.5259 28.0301L98.1107 30.1786C98.3407 31.0246 98.1395 31.9814 97.2943 32.2105Z" fill="#FFC197"/>
</g>
</svg>
