<svg width="162" height="145" viewBox="0 0 162 145" fill="none" xmlns="http://www.w3.org/2000/svg">
<g opacity="0.66">
<path d="M154.834 38.378H38.4386V111.417H154.834V38.378Z" fill="#DEE8F5"/>
<path d="M38.4386 38.378L96.6365 72.7128L154.834 38.378H38.4386Z" fill="#00A2D1"/>
<path d="M140.133 123.08C152.158 123.08 161.906 113.332 161.906 101.308C161.906 89.2829 152.158 79.5349 140.133 79.5349C128.108 79.5349 118.36 89.2829 118.36 101.308C118.36 113.332 128.108 123.08 140.133 123.08Z" fill="#0CBC8B"/>
<path d="M136.4 113.034C135.987 113.034 135.59 112.876 135.29 112.593L127.02 104.789C126.708 104.495 126.526 104.089 126.513 103.66C126.501 103.232 126.659 102.816 126.953 102.504C127.248 102.192 127.654 102.01 128.083 101.997C128.511 101.985 128.927 102.143 129.239 102.437L136.31 109.11L150.94 92.9889C151.228 92.6714 151.63 92.4813 152.059 92.4605C152.487 92.4397 152.906 92.5899 153.223 92.878C153.541 93.1661 153.731 93.5686 153.752 93.9969C153.773 94.4251 153.622 94.8441 153.334 95.1616L137.597 112.504C137.452 112.663 137.278 112.792 137.083 112.882C136.888 112.973 136.677 113.024 136.462 113.033C136.441 113.033 136.421 113.034 136.4 113.034Z" fill="white"/>
<path d="M8.98287 29.8001C8.98287 29.8001 6.75378 26.259 6.84488 25.3C6.93599 24.341 9.72243 23.371 9.72243 23.371C9.72243 23.371 9.31931 22.5228 8.95995 21.5921C8.54551 20.5181 8.18913 19.3338 8.57796 19.2159C8.9528 19.1018 9.52176 20.0769 10.0428 21.2107C10.7124 22.666 11.3034 24.3809 11.3034 24.3809C11.3034 24.3809 11.365 22.6871 11.9914 22.7949C12.249 22.8392 12.3576 23.1453 12.3585 24.3594C12.3585 25.743 12.575 27.9003 12.575 27.9003L8.98287 29.8001Z" fill="#E98862"/>
<path d="M16.0602 45.6753C15.4144 45.6753 14.7833 45.4827 14.2476 45.122C13.7119 44.7613 13.296 44.2491 13.0531 43.6507L7.21765 29.2805L13.2318 26.8392L14.9985 31.1902L16.3853 24.259L22.7511 25.533L19.2444 43.0663C19.1075 43.7507 18.7536 44.3727 18.2352 44.8401C17.7167 45.3075 17.0615 45.5952 16.3666 45.6607C16.2639 45.6706 16.1618 45.6755 16.0602 45.6753Z" fill="#005365"/>
<path d="M5.52602 34.0247L9.13509 33.4489C9.27692 33.4263 9.41237 33.3739 9.53257 33.2953C9.65277 33.2167 9.75502 33.1136 9.83262 32.9928C9.91022 32.8719 9.96142 32.736 9.98288 32.594C10.0043 32.452 9.99555 32.3071 9.95712 32.1687L7.68634 24.0189C7.61918 23.7775 7.46546 23.5693 7.25452 23.4339C7.04359 23.2986 6.79022 23.2457 6.54276 23.2853L2.93369 23.8611C2.79187 23.8838 2.65642 23.9361 2.53622 24.0147C2.41601 24.0933 2.31377 24.1964 2.23617 24.3173C2.15857 24.4382 2.10736 24.574 2.08591 24.716C2.06445 24.8581 2.07323 25.003 2.11166 25.1414L4.38244 33.2911C4.44967 33.5325 4.6034 33.7407 4.81432 33.876C5.02523 34.0113 5.27857 34.0643 5.52602 34.0247Z" fill="#49769E"/>
<path d="M38.2258 107.299C32.8137 105.932 32.281 105.728 32.106 105.661L34.3425 99.8227C34.3249 99.8159 34.302 99.8073 34.274 99.798C34.7141 99.9427 37.4627 100.658 39.757 101.238L38.2258 107.299Z" fill="#E98862"/>
<path d="M37.9828 115.465C37.9286 115.624 37.8421 115.771 37.7288 115.895C37.6155 116.019 37.4778 116.119 37.3243 116.187C37.1708 116.256 37.0048 116.292 36.8367 116.294C36.6685 116.295 36.5019 116.262 36.3471 116.197C36.1326 116.105 35.9486 115.955 35.8168 115.763C35.6849 115.571 35.6107 115.345 35.6028 115.112L35.6069 107.437C35.6076 107.289 35.6403 107.142 35.7028 107.007C35.7654 106.873 35.8563 106.753 35.9693 106.657C36.9458 105.929 37.6629 104.908 38.0153 103.742C38.253 102.822 38.2274 101.853 37.9414 100.947C37.9104 100.866 37.9031 100.777 37.9206 100.691C37.9381 100.606 37.9796 100.527 38.0403 100.464C38.1009 100.401 38.1782 100.357 38.263 100.336C38.3479 100.315 38.4369 100.319 38.5196 100.348L41.8935 101.479C41.993 101.512 42.0849 101.565 42.1639 101.634C42.243 101.703 42.3076 101.787 42.3542 101.881C42.4007 101.975 42.4283 102.077 42.4352 102.182C42.4421 102.287 42.4283 102.392 42.3946 102.491L37.9828 115.465Z" fill="#C1D8ED"/>
<path d="M23.4105 142.262C23.4105 142.262 23.3896 135.788 23.3896 135.214H29.642C29.642 135.786 29.6628 142.242 29.6628 142.242L23.4105 142.262Z" fill="#E98862"/>
<path d="M39.7927 52.609C35.7811 48.5974 17.1424 54.0083 17.1424 54.0083L17.1255 54.1247L16.7438 53.91C12.003 63.4382 5.28984 77.6986 0.645271 87.4114C0.290428 88.0792 0.0766181 88.8128 0.0171124 89.5667C-0.0423933 90.3205 0.0536735 91.0786 0.299352 91.7938C0.54503 92.509 0.935077 93.1661 1.44529 93.7243C1.95549 94.2824 2.57497 94.7298 3.26528 95.0386L23.5555 104.066C22.5135 115.51 21.3172 126.946 20.3213 138.372L31.2524 139.736C33.2388 126.104 35.2816 112.488 37.1054 98.8394L37.4032 98.1701L37.207 98.0829C38.3255 89.6741 39.6123 81.2752 40.242 72.8057C40.777 65.603 41.951 54.7672 39.7927 52.609ZM13.4244 87.5028C17.3362 80.9825 21.9394 73.2987 25.9222 66.777C25.7179 75.3406 25.2103 83.8979 24.5434 92.4498L13.4244 87.5028Z" fill="#262626"/>
<path d="M11.3377 31.8887L9.20919 34.7767C9.20919 34.7767 3.48804 33.6298 2.95153 29.2225C2.8896 28.7149 2.94319 27.3111 3.5717 27.4996C5.20921 27.9902 7.24686 30.5028 8.67596 30.8371C8.34995 30.2533 7.95218 29.4286 8.20853 29.2779C8.88348 28.8813 10.6978 31.2742 11.3377 31.8887Z" fill="#E98862"/>
<path d="M32.8357 21.6388C32.8357 21.6388 30.4414 20.6105 30.4414 14.3204L25.6286 13.83C25.6286 13.83 26.6207 19.3883 24.368 21.3626L32.8357 21.6388Z" fill="#E98862"/>
<g opacity="0.15">
<path opacity="0.15" d="M25.2435 20.1127L28.9354 16.7781L25.839 16.9996C25.836 18.0654 25.6341 19.1211 25.2435 20.1127Z" fill="black"/>
</g>
<path d="M32.9327 11.6772C32.76 13.5996 31.8728 15.4795 30.2508 16.2292C28.4874 17.102 26.5372 17.5301 24.5704 17.4761C19.3458 17.4761 19.4048 5.59133 21.6806 3.09726C23.9565 0.603185 31.3071 1.46184 32.501 5.22334C33.1185 7.169 33.0976 9.84707 32.9327 11.6772Z" fill="#E98862"/>
<path d="M25.3539 10.8266C25.5922 10.8266 25.7853 10.6334 25.7853 10.3952C25.7853 10.1569 25.5922 9.96375 25.3539 9.96375C25.1156 9.96375 24.9225 10.1569 24.9225 10.3952C24.9225 10.6334 25.1156 10.8266 25.3539 10.8266Z" fill="#0F1011"/>
<path d="M21.9389 10.8266C22.1771 10.8266 22.3703 10.6334 22.3703 10.3952C22.3703 10.1569 22.1771 9.96375 21.9389 9.96375C21.7006 9.96375 21.5074 10.1569 21.5074 10.3952C21.5074 10.6334 21.7006 10.8266 21.9389 10.8266Z" fill="#0F1011"/>
<path d="M21.1021 9.54081C21.0494 9.54177 20.9984 9.52213 20.96 9.48609C20.9215 9.45004 20.8987 9.40042 20.8962 9.34777C20.8938 9.29512 20.912 9.24359 20.9469 9.20414C20.9819 9.16468 21.0308 9.14042 21.0834 9.13649L22.2213 9.02871C22.2747 9.0243 22.3276 9.04096 22.3689 9.07513C22.4101 9.1093 22.4363 9.15826 22.4419 9.21152C22.4445 9.23803 22.4417 9.26479 22.4339 9.29026C22.4261 9.31572 22.4133 9.33939 22.3964 9.35992C22.3794 9.38044 22.3585 9.39741 22.335 9.40985C22.3114 9.4223 22.2856 9.42997 22.2591 9.43243L21.1215 9.53991L21.1021 9.54081Z" fill="#0F1011"/>
<path d="M26.2014 9.54075C26.1915 9.54076 26.1815 9.53996 26.1717 9.53836L25.0266 9.35973C25.0002 9.3558 24.9748 9.34669 24.9519 9.33291C24.929 9.31913 24.909 9.30096 24.8932 9.27945C24.8773 9.25793 24.8659 9.23349 24.8595 9.20754C24.8531 9.18158 24.8519 9.15462 24.856 9.12821C24.8601 9.1018 24.8694 9.07645 24.8833 9.05363C24.8972 9.03081 24.9155 9.01097 24.9371 8.99524C24.9587 8.97952 24.9832 8.96821 25.0092 8.96199C25.0352 8.95577 25.0621 8.95475 25.0885 8.95898L26.2339 9.13762C26.2839 9.1458 26.329 9.17241 26.3604 9.21222C26.3918 9.25202 26.4071 9.30212 26.4034 9.35266C26.3996 9.4032 26.3771 9.45051 26.3402 9.48527C26.3034 9.52003 26.2548 9.53971 26.2041 9.54045L26.2014 9.54075Z" fill="#0F1011"/>
<path d="M25.432 13.798C25.432 13.798 23.8588 14.0957 22.7144 13.798C22.7144 13.798 22.8087 14.8424 24.0732 14.8424C25.3376 14.8424 25.432 13.798 25.432 13.798Z" fill="white"/>
<path d="M29.0384 7.05196C29.2951 15.7379 30.5568 16.5331 30.5568 16.5331C30.5568 16.5331 34.6655 13.58 34.8033 8.33994C34.9332 3.42741 31.1094 0.846995 28.6404 0.503416C19.2592 -0.801232 18.9299 7.66945 18.9299 7.66945C23.6379 8.47659 30.0507 7.14307 30.0507 7.14307" fill="#0F1011"/>
<path d="M27.6774 11.2639C27.6743 11.506 27.7193 11.7464 27.8099 11.971C27.9004 12.1955 28.0346 12.3999 28.2047 12.5722C28.3748 12.7445 28.5775 12.8814 28.8009 12.9747C29.0243 13.0681 29.2641 13.1162 29.5062 13.1162C29.7483 13.1162 29.9881 13.0681 30.2115 12.9747C30.4349 12.8814 30.6376 12.7445 30.8077 12.5722C30.9778 12.3999 31.112 12.1955 31.2025 11.971C31.2931 11.7464 31.3381 11.506 31.335 11.2639C31.3391 11.0226 31.2946 10.783 31.2042 10.5593C31.1137 10.3356 30.9792 10.1323 30.8086 9.9617C30.6379 9.79107 30.4347 9.65653 30.211 9.56608C29.9873 9.47564 29.7476 9.43115 29.5063 9.43526C28.2038 9.49957 27.6774 10.2543 27.6774 11.2639Z" fill="#E98862"/>
<path d="M36.504 8.33998C38.807 8.33998 40.674 6.47301 40.674 4.16999C40.674 1.86697 38.807 0 36.504 0C34.201 0 32.334 1.86697 32.334 4.16999C32.334 6.47301 34.201 8.33998 36.504 8.33998Z" fill="#0F1011"/>
<path d="M40.1112 22.8188C38.7506 21.4582 36.4015 20.5799 33.5373 20.5769C33.323 22.2472 23.1823 22.2531 23.1049 20.6156C22.7179 20.6216 22.4172 20.6275 22.2296 20.6364C15.347 20.9342 15.3672 26.4803 16.0443 32.6108L10.3809 30.1132L7.76086 36.0528L16.774 40.0281C16.78 40.2068 16.7841 40.3854 16.7865 40.564C16.9026 50.2283 14.2915 52.0504 15.578 55.0039C16.8252 57.871 41.3372 59.0619 41.6647 54.0184C41.8731 50.8089 39.0447 48.0073 39.0447 41.752C39.0447 35.4967 44.8004 27.508 40.1112 22.8188Z" fill="#005365"/>
<path d="M23.105 20.6156C23.1824 22.2531 24.0726 24.6617 26.8206 24.8434C30.4827 25.0845 33.323 22.2472 33.5374 20.5769H33.5285C29.923 20.5769 25.2078 20.5829 23.105 20.6156Z" fill="#E98862"/>
<g opacity="0.15">
<path opacity="0.15" d="M23.6302 12.9374C23.6194 12.9374 23.6086 12.9362 23.598 12.9338L22.5369 12.7007C22.5163 12.6962 22.4969 12.6873 22.48 12.6747C22.4631 12.6621 22.449 12.6461 22.4388 12.6276C22.4285 12.6092 22.4223 12.5888 22.4206 12.5677C22.4188 12.5467 22.4215 12.5256 22.4286 12.5057L22.9847 10.9346C22.9988 10.8986 23.0263 10.8695 23.0615 10.8535C23.0966 10.8374 23.1366 10.8357 23.1731 10.8486C23.2095 10.8615 23.2394 10.8881 23.2566 10.9227C23.2738 10.9573 23.2769 10.9972 23.2652 11.034L22.7653 12.4461L23.662 12.6432C23.6978 12.6512 23.7293 12.6721 23.7506 12.7018C23.772 12.7316 23.7816 12.7682 23.7776 12.8045C23.7737 12.8409 23.7565 12.8746 23.7293 12.8991C23.7021 12.9236 23.6668 12.9372 23.6302 12.9374Z" fill="black"/>
</g>
<path d="M15.8176 144.807C15.6495 144.806 15.4833 144.771 15.3295 144.703C15.1756 144.635 15.0375 144.536 14.9236 144.412C14.8097 144.289 14.7225 144.143 14.6675 143.984C14.6126 143.825 14.591 143.656 14.6041 143.489C14.6222 143.256 14.7063 143.034 14.8466 142.848C14.9868 142.662 15.1774 142.52 15.3957 142.438L22.6728 140.001C22.8138 139.954 22.9633 139.938 23.1109 139.955C23.2585 139.971 23.4009 140.019 23.5282 140.096C24.5286 140.79 25.7252 141.145 26.9422 141.108C27.8903 141.041 28.8003 140.708 29.5685 140.149C29.636 140.093 29.7179 140.058 29.8045 140.048C29.8912 140.037 29.979 140.051 30.0579 140.089C30.1367 140.126 30.2033 140.185 30.2498 140.259C30.2964 140.333 30.321 140.419 30.3209 140.506V144.064C30.3209 144.169 30.3001 144.273 30.2599 144.37C30.2196 144.467 30.1606 144.555 30.0862 144.629C30.0118 144.703 29.9235 144.762 29.8264 144.802C29.7293 144.842 29.6253 144.862 29.5203 144.862L15.8176 144.807Z" fill="#C1D8ED"/>
</g>
</svg>
