<svg width="19" height="19" viewBox="0 0 19 19" fill="none" xmlns="http://www.w3.org/2000/svg">
<g opacity="0.75">
<path d="M16.8267 9.1059L10.0767 2.3559C9.80667 2.0859 9.43167 1.9209 9.01917 1.9209H3.76917C2.94417 1.9209 2.26917 2.5959 2.26917 3.4209V8.6709C2.26917 9.0834 2.43416 9.4584 2.71167 9.7359L9.46167 16.4859C9.73167 16.7559 10.1067 16.9209 10.5192 16.9209C10.9317 16.9209 11.3067 16.7559 11.5767 16.4784L16.8267 11.2284C17.1042 10.9584 17.2692 10.5834 17.2692 10.1709C17.2692 9.7584 17.0967 9.3759 16.8267 9.1059ZM10.5192 15.4284L3.76917 8.6709V3.4209H9.01917V3.4134L15.7692 10.1634L10.5192 15.4284Z" fill="black"/>
<path d="M5.64417 6.4209C6.26549 6.4209 6.76917 5.91722 6.76917 5.2959C6.76917 4.67458 6.26549 4.1709 5.64417 4.1709C5.02285 4.1709 4.51917 4.67458 4.51917 5.2959C4.51917 5.91722 5.02285 6.4209 5.64417 6.4209Z" fill="black"/>
</g>
</svg>
