<svg width="66" height="64" viewBox="0 0 66 64" fill="none" xmlns="http://www.w3.org/2000/svg">
<path d="M33.1476 21.9349L33.8616 21.2209C33.6721 21.0316 33.4153 20.9254 33.1476 20.9254C32.8798 20.9254 32.623 21.0316 32.4335 21.2209L33.1476 21.9349ZM33.1476 32.7127L32.4335 33.4267C32.623 33.6159 32.8798 33.7222 33.1476 33.7222C33.4153 33.7222 33.6721 33.6159 33.8616 33.4267L33.1476 32.7127ZM29.7391 23.9153C29.5606 24.1069 29.4634 24.3602 29.4681 24.622C29.4727 24.8837 29.5787 25.1335 29.7639 25.3186C29.949 25.5037 30.1987 25.6098 30.4605 25.6144C30.7223 25.619 30.9756 25.5218 31.1672 25.3434L29.7391 23.9153ZM35.128 25.3434C35.2205 25.4426 35.332 25.5223 35.456 25.5775C35.5799 25.6327 35.7137 25.6624 35.8494 25.6648C35.9851 25.6672 36.1198 25.6422 36.2456 25.5914C36.3715 25.5406 36.4857 25.465 36.5817 25.369C36.6776 25.2731 36.7533 25.1588 36.8041 25.033C36.8549 24.9072 36.8799 24.7724 36.8775 24.6367C36.8751 24.5011 36.8454 24.3673 36.7902 24.2433C36.7349 24.1194 36.6553 24.0078 36.556 23.9153L35.128 25.3434ZM31.1672 29.3042C31.0746 29.2049 30.9631 29.1253 30.8392 29.0701C30.7152 29.0149 30.5814 28.9852 30.4457 28.9828C30.3101 28.9804 30.1753 29.0053 30.0495 29.0561C29.9237 29.107 29.8094 29.1826 29.7134 29.2786C29.6175 29.3745 29.5419 29.4888 29.491 29.6146C29.4402 29.7404 29.4153 29.8752 29.4177 30.0108C29.4201 30.1465 29.4497 30.2803 29.505 30.4043C29.5602 30.5282 29.6398 30.6398 29.7391 30.7323L31.1672 29.3042ZM36.556 30.7323C36.6553 30.6398 36.7349 30.5282 36.7902 30.4043C36.8454 30.2803 36.8751 30.1465 36.8775 30.0108C36.8799 29.8752 36.8549 29.7404 36.8041 29.6146C36.7533 29.4888 36.6776 29.3745 36.5817 29.2786C36.4857 29.1826 36.3715 29.107 36.2456 29.0561C36.1198 29.0053 35.9851 28.9804 35.8494 28.9828C35.7137 28.9852 35.5799 29.0149 35.456 29.0701C35.332 29.1253 35.2205 29.2049 35.128 29.3042L36.556 30.7323ZM21.3594 28.671V34.0599H23.3802V28.671H21.3594ZM44.9358 34.0599V28.671H42.9149V34.0599H44.9358ZM32.1372 21.9349V32.7127H34.158V21.9349H32.1372ZM32.4335 21.2209L29.7391 23.9153L31.1672 25.3434L33.8616 22.6489L32.4335 21.2209V21.2209ZM32.4335 22.6489L35.128 25.3434L36.556 23.9153L33.8616 21.2209L32.4335 22.6489ZM33.8616 31.9986L31.1672 29.3042L29.7391 30.7323L32.4335 33.4267L33.8616 31.9986ZM33.8616 33.4267L36.556 30.7323L35.128 29.3042L32.4335 31.9986L33.8616 33.4267ZM44.9358 28.671C44.9358 25.5446 43.6938 22.5462 41.4831 20.3355C39.2724 18.1248 36.274 16.8828 33.1476 16.8828V18.9036C35.738 18.9036 38.2224 19.9327 40.0541 21.7644C41.8859 23.5962 42.9149 26.0805 42.9149 28.671H44.9358ZM33.1476 45.8481C34.6956 45.8481 36.2285 45.5432 37.6587 44.9508C39.0889 44.3584 40.3884 43.49 41.4831 42.3954C42.5777 41.3008 43.446 40.0013 44.0384 38.571C44.6308 37.1408 44.9358 35.6079 44.9358 34.0599H42.9149C42.9149 36.6504 41.8859 39.1347 40.0541 40.9665C38.2224 42.7982 35.738 43.8273 33.1476 43.8273V45.8481ZM21.3594 34.0599C21.3594 37.1863 22.6013 40.1847 24.8121 42.3954C27.0228 44.6061 30.0211 45.8481 33.1476 45.8481V43.8273C30.5571 43.8273 28.0727 42.7982 26.241 40.9665C24.4093 39.1347 23.3802 36.6504 23.3802 34.0599H21.3594ZM23.3802 28.671C23.3802 26.0805 24.4093 23.5962 26.241 21.7644C28.0727 19.9327 30.5571 18.9036 33.1476 18.9036V16.8828C30.0211 16.8828 27.0228 18.1248 24.8121 20.3355C22.6013 22.5462 21.3594 25.5446 21.3594 28.671H23.3802Z" fill="#2C2C2C"/>
<path fill-rule="evenodd" clip-rule="evenodd" d="M51.1658 54.4353C46.6383 57.3546 41.2463 59.0486 35.4587 59.0486C19.429 59.0486 6.43437 46.054 6.43437 30.0243C6.43437 21.9111 9.76323 14.5754 15.1296 9.30859C19.6572 6.38934 25.0491 4.69532 30.8368 4.69532C46.8665 4.69532 59.8611 17.6899 59.8611 33.7196C59.8611 41.8328 56.5322 49.1685 51.1658 54.4353ZM55.1325 51.3634C58.7356 46.4104 60.8611 40.3132 60.8611 33.7196C60.8611 17.1377 47.4187 3.69532 30.8368 3.69532C26.6273 3.69532 22.6202 4.56161 18.9839 6.12562C23.6641 2.89315 29.3403 1 35.4587 1C51.4883 1 64.4829 13.9946 64.4829 30.0243C64.4829 38.4627 60.8818 46.0601 55.1325 51.3634ZM51.7929 55.2208C60.0331 49.8679 65.4829 40.5825 65.4829 30.0243C65.4829 13.4423 52.0406 0 35.4587 0C27.3063 0 19.9128 3.24916 14.5025 8.52315C6.26238 13.876 0.8125 23.1614 0.8125 33.7196C0.8125 50.3016 14.2548 63.7439 30.8368 63.7439C38.9892 63.7439 46.3826 60.4947 51.7929 55.2208ZM47.3115 57.6183C43.6753 59.1823 39.6681 60.0486 35.4587 60.0486C18.8767 60.0486 5.43437 46.6062 5.43437 30.0243C5.43437 23.4307 7.5598 17.3335 11.1629 12.3805C5.41362 17.6838 1.8125 25.2812 1.8125 33.7196C1.8125 49.7493 14.8071 62.7439 30.8368 62.7439C36.9552 62.7439 42.6313 60.8508 47.3115 57.6183Z" fill="white"/>
</svg>
