<svg width="16" height="16" viewBox="0 0 16 16" fill="none" xmlns="http://www.w3.org/2000/svg">
<path d="M8 0C3.58165 0 0 3.58165 0 8C0 12.4184 3.58165 16 8 16C12.4184 16 16 12.4184 16 8C16 3.58165 12.4184 0 8 0ZM8 14.5882C4.36141 14.5882 1.41176 11.6386 1.41176 8C1.41176 4.36141 4.36141 1.41176 8 1.41176C11.6386 1.41176 14.5882 4.36141 14.5882 8C14.5882 11.6386 11.6386 14.5882 8 14.5882Z" fill="#707070"/>
<path d="M7 5.01295C7 5.70935 7.51908 6.05755 8.0229 6.04173C8.51145 6.0259 9 5.69353 9 5.01295C9 4.3482 8.51145 4 8.00763 4C7.50382 4 7 4.33237 7 5.01295ZM8.83206 7.45036H7.16794V12H8.83206V7.45036Z" fill="#707070"/>
</svg>
