<svg width="45" height="44" viewBox="0 0 45 44" fill="none" xmlns="http://www.w3.org/2000/svg">
<path d="M14.6636 35.7128C17.8694 37.5636 21.6177 38.2457 25.2699 37.6427C28.9222 37.0397 32.2524 35.189 34.693 32.4059C37.1337 29.6229 38.5339 26.0796 38.655 22.3799C38.7762 18.6802 37.6107 15.053 35.3573 12.1162C33.1038 9.17947 29.9018 7.11493 26.2968 6.27436C22.6918 5.4338 18.9069 5.86922 15.587 7.50643C12.2671 9.14364 9.61751 11.8813 8.08979 15.2531C6.56208 18.6248 6.25073 22.4219 7.2088 25.9975" stroke="#00A6CA" stroke-width="3.4"/>
<path d="M6.62126 34.1747L-0.000162411 22.706L13.2427 22.706L6.62126 34.1747Z" fill="#00A6CA"/>
<path d="M22 13V24.5H29" stroke="#00A6CA" stroke-width="3.4"/>
</svg>
