<svg width="64" height="56" viewBox="0 0 64 56" fill="none" xmlns="http://www.w3.org/2000/svg">
<circle cx="18.5" cy="18.5" r="18.5" fill="#EDEDED"/>
<path d="M50.6879 56H16.3471C10.1908 56 6.34152 49.3374 9.4166 44.004L27.2849 13.0136C30.4247 7.56818 38.3294 7.70441 41.2796 13.2548L57.752 44.2452C60.5842 49.5737 56.7223 56 50.6879 56Z" fill="white"/>
<path fill-rule="evenodd" clip-rule="evenodd" d="M33.6578 8.00922C31.4006 8.24117 29.6701 9.14316 28.4545 10.7214C27.5442 11.9034 8.9015 44.4588 8.4688 45.6221C7.42331 48.433 8.16497 51.7474 10.31 53.8505C11.3154 54.8363 12.3308 55.4108 13.6685 55.7508C14.9904 56.0868 53.1029 56.0812 54.4264 55.7448C55.6863 55.4245 56.7111 54.8441 57.676 53.9045C60.1707 51.4755 60.712 47.7028 59.0321 44.4548C58.2728 42.9864 40.2849 11.6865 39.8466 11.0706C38.98 9.85286 37.3478 8.63842 36.1529 8.32227C35.3665 8.11421 34.1373 7.95997 33.6578 8.00922ZM35.2204 13.2606C35.9275 13.7957 54.9736 47.0631 55.0748 47.9401C55.1819 48.8668 54.7595 49.949 54.0446 50.5794L53.4487 51.1048H34.0574H14.6661L14.1637 50.773C13.3557 50.2392 12.9408 49.3018 13.0052 48.1556L13.0592 47.1972L22.6215 30.5347C27.8808 21.3703 32.3285 13.7144 32.5053 13.5217C33.2532 12.7061 34.3485 12.6008 35.2204 13.2606ZM31.6937 31.4932V39.3083H33.9599H36.2262V31.4932V23.678H33.9599H31.6937V31.4932ZM31.6937 43.732V45.9438H33.9599H36.2262V43.732V41.5201H33.9599H31.6937V43.732Z" fill="#00A6CA"/>
</svg>
