<svg width="40" height="22" viewBox="0 0 40 22" fill="none" xmlns="http://www.w3.org/2000/svg">
<path fill-rule="evenodd" clip-rule="evenodd" d="M16.7914 0.21211C11.6072 1.0994 7.11118 3.81179 4.01457 7.92024C1.66327 11.0397 0.261412 14.839 0.0384905 18.6968C-0.0709077 20.589 0.0152673 20.893 0.796334 21.3689C1.24951 21.645 1.59726 21.6656 5.82865 21.6661L10.3742 21.6667V19.9871V18.3075H6.84655H3.31891L3.42204 17.6585C3.86483 14.8729 4.90595 12.3571 6.55838 10.0802L7.04395 9.41096L8.86247 11.2235L10.681 13.036L11.8627 11.8551L13.0444 10.6742L11.2307 8.85684L9.41694 7.03952L10.0866 6.55427C12.3652 4.90277 14.9458 3.835 17.6699 3.41663L18.3193 3.31692V5.84975V8.38259H20H21.6807V5.84975V3.31692L22.3301 3.418C23.6086 3.61696 24.9874 4.00143 26.3159 4.52944L27.6661 5.06614L28.8823 3.86142L30.0984 2.65669L28.4619 1.86499C25.768 0.561772 23.0586 -0.0245598 19.8472 0.000786799C18.7968 0.00918478 17.4217 0.104158 16.7914 0.21211ZM25.6536 11.8178L18.5503 18.9176L19.7338 20.1004L20.9172 21.283L26.8657 15.3399C31.9528 10.2573 32.8477 9.425 33.0476 9.59083C33.4812 9.95041 34.8774 12.2676 35.3851 13.4707C35.8806 14.6441 36.3744 16.3782 36.578 17.6585L36.6811 18.3075H33.3063H29.9314V19.9871V21.6667L34.3241 21.6661C38.4043 21.6656 38.7516 21.6444 39.2037 21.3689C39.9847 20.893 40.0709 20.589 39.9615 18.6968C39.6859 13.9289 37.7424 9.55265 34.3171 5.98717C33.6465 5.28907 33.0211 4.71801 32.9273 4.71801C32.8335 4.71801 29.5603 7.91291 25.6536 11.8178Z" fill="#00A6CA"/>
</svg>
