<svg width="40" height="34" viewBox="0 0 40 34" fill="none" xmlns="http://www.w3.org/2000/svg">
<path d="M20.0121 21C21.1515 21 22 20.1849 22 19.0018C22 17.766 21.1515 17.0035 20.0121 17.0035C18.9212 17.0035 18.0242 17.766 18.0242 19.0018C18.0242 20.1849 18.9212 21 20.0121 21ZM18.2909 14.6197H21.7333L21.9515 5H18L18.2909 14.6197Z" fill="#00A6CA"/>
<path d="M35 1.5H5C3.067 1.5 1.5 3.067 1.5 5V21.5143C1.5 23.4473 3.067 25.0143 5 25.0143H12.0833C12.3595 25.0143 12.5833 25.2381 12.5833 25.5143V29.2539C12.5833 31.5875 15.4973 32.6487 16.9979 30.8615L21.7576 25.1928C21.8526 25.0796 21.9928 25.0143 22.1406 25.0143H35C36.933 25.0143 38.5 23.4473 38.5 21.5143V5C38.5 3.067 36.933 1.5 35 1.5Z" stroke="#00A6CA" stroke-width="3"/>
</svg>
