<svg width="33" height="21" viewBox="0 0 33 21" fill="none" xmlns="http://www.w3.org/2000/svg">
<path d="M3.6377 4.31421H13.1593V17.0097H3.6377V4.31421Z" fill="white"/>
<rect x="21.8369" y="4.31421" width="9.52159" height="12.6955" fill="white"/>
<path d="M28.2121 19.2727C29.869 19.2727 31.2121 17.9296 31.2121 16.2727V4.72729C31.2121 3.07044 29.869 1.72729 28.2121 1.72729H4.31818C3.55563 1.72729 2.8158 1.88061 2.22966 2.17541C1.70167 2.44095 1 2.99151 1 3.8932V17.1068C1 18.0085 1.70167 18.5591 2.22966 18.8246C2.8158 19.1194 3.55563 19.2727 4.31818 19.2727H28.2121Z" fill="white" stroke="#00A6CA" stroke-width="2"/>
<path d="M9.84144 13.3534C10.1476 13.3534 10.4264 13.5295 10.5579 13.8059L11.0222 14.7817C11.1538 15.0581 11.4326 15.2342 11.7387 15.2342H12.6478C12.7357 15.2342 12.807 15.1629 12.807 15.0749C12.807 15.0517 12.8019 15.0287 12.7921 15.0076L8.77875 6.40761C8.68828 6.21375 8.49372 6.08984 8.27979 6.08984C8.06633 6.08984 7.87211 6.21321 7.78138 6.40643L3.74262 15.0075C3.73269 15.0286 3.72754 15.0517 3.72754 15.0751C3.72754 15.163 3.79876 15.2342 3.88661 15.2342H4.80568C5.11342 15.2342 5.39341 15.0562 5.52408 14.7776L5.97785 13.81C6.10852 13.5314 6.38851 13.3534 6.69625 13.3534H9.84144ZM8.27979 8.82143L9.53827 11.7955H6.94736L8.27979 8.82143Z" fill="#00A6CA"/>
<path d="M26.9789 7.37154L28.0287 7.37154V6.18182L24.6912 6.18182V7.37154L25.7891 7.37154V9.18561H22.6471C22.5825 8.92547 22.6031 8.66243 22.7558 8.44506L24.1506 6.45929C24.1712 6.4299 24.1823 6.39485 24.1823 6.35893C24.1823 6.2625 24.1041 6.18432 24.0077 6.18432H19.1265C18.7951 6.18432 18.5265 6.45297 18.5265 6.78437C18.5265 7.11577 18.7951 7.38442 19.1265 7.38442H21.3894C22.0245 7.38442 22.3484 7.1397 21.2957 8.62061L20.137 10.3439C20.1191 10.3705 20.1096 10.4018 20.1096 10.4338C20.1096 10.5385 20.2081 10.6153 20.3112 10.5969C21.4955 10.3851 22.8545 10.8614 22.8545 12.2742C22.8545 13.3339 22.1651 13.9722 21.131 13.9722C20.4342 13.9722 19.8988 13.7008 19.6416 13.1747C19.4907 12.8661 19.2222 12.5934 18.8787 12.5934C18.4939 12.5934 18.1801 12.9223 18.2867 13.2921C18.6484 14.5471 19.7633 15.2617 21.1565 15.2617C23.1226 15.2617 24.2589 13.9211 24.2589 12.2614C24.2589 11.6132 24.0511 10.9806 23.6629 10.498H25.7891V15.1085H26.9788L26.9789 7.37154Z" fill="#00A6CA"/>
<path d="M10.6367 1L18.6973 20" stroke="#00A6CA" stroke-width="2"/>
</svg>
