<svg width="40" height="40" viewBox="0 0 40 40" fill="none" xmlns="http://www.w3.org/2000/svg">
<circle cx="20" cy="20" r="20" fill="#E7FBFF"/>
<path fill-rule="evenodd" clip-rule="evenodd" d="M19.681 10.144C19.5746 10.2248 19.0826 11.0097 18.5873 11.8884C18.092 12.7671 17.6426 13.5023 17.5886 13.5224C17.5346 13.5424 16.7163 13.3396 15.7702 13.0717C14.8241 12.8039 13.9076 12.5847 13.7336 12.5847C13.3072 12.5847 12.9701 12.8943 12.9701 13.2858C12.9701 13.4336 13.3202 14.6998 13.7479 16.0996L14.5258 18.6447L15.0672 18.3584C15.4782 18.1412 15.6439 18.0049 15.7547 17.7934L15.9007 17.5147L15.4686 16.0718C15.231 15.2782 15.0516 14.6144 15.0698 14.5966C15.0882 14.579 15.706 14.7345 16.4429 14.9424C17.9515 15.3679 18.3218 15.4047 18.5759 15.154C18.6686 15.0625 19.0543 14.4309 19.4328 13.7504C19.8114 13.07 20.1384 12.5135 20.1594 12.5139C20.1805 12.5143 20.5228 13.0987 20.9203 13.8126C21.3177 14.5265 21.7125 15.1578 21.7977 15.2155C22.0598 15.3929 22.495 15.3352 23.8784 14.9395C24.6107 14.7302 25.2257 14.5742 25.2452 14.593C25.2647 14.6118 25.0875 15.2739 24.8514 16.0643C24.2806 17.9762 24.2006 17.7952 26.0505 18.7781C27.3721 19.4805 27.4355 19.5241 27.263 19.6128C26.0194 20.2529 24.8296 20.9094 24.695 21.0295C24.3846 21.3068 24.4017 21.5117 24.8615 23.0174C25.0988 23.7943 25.2815 24.441 25.2677 24.4544C25.2537 24.4678 24.5927 24.2951 23.7987 24.0706C22.2472 23.632 21.9967 23.6135 21.7102 23.9163C21.6242 24.0071 21.2493 24.6222 20.877 25.2829C20.5047 25.9438 20.1794 26.4844 20.1542 26.4844C20.129 26.4844 19.7932 25.9242 19.4081 25.2397C19.0231 24.5551 18.643 23.9382 18.5636 23.8687C18.2768 23.6178 17.9677 23.6484 16.4909 24.0739C15.7141 24.2977 15.0672 24.4698 15.0532 24.4564C15.0393 24.4429 15.2198 23.7909 15.4544 23.0075C15.824 21.773 15.87 21.5513 15.7993 21.3441C15.7544 21.2126 15.6588 21.055 15.5867 20.9938C15.436 20.8658 10.8194 18.4077 10.7917 18.4407C10.7815 18.4527 10.5993 18.7696 10.3866 19.1448L10 19.827L11.2747 20.5037C11.9758 20.8759 12.8829 21.3598 13.2905 21.579L14.0316 21.9777L13.9257 22.3272C13.8674 22.5195 13.6285 23.3052 13.3949 24.0732C13.1612 24.8413 12.9701 25.5666 12.9701 25.685C12.9701 26.1282 13.3179 26.4844 13.7508 26.4844C13.8396 26.4844 14.7385 26.2504 15.7484 25.9643C16.7582 25.6783 17.6088 25.4704 17.6387 25.5022C17.6686 25.5341 18.0959 26.2755 18.5883 27.1498C19.0806 28.024 19.5534 28.7976 19.6387 28.8687C19.8487 29.0438 20.4703 29.0438 20.6797 28.8687C20.7649 28.7976 21.2363 28.024 21.7273 27.1498C22.2183 26.2755 22.6452 25.5347 22.6758 25.5036C22.7066 25.4724 23.5554 25.6803 24.5622 25.9654C25.569 26.2506 26.4685 26.484 26.5612 26.4841C26.9983 26.4847 27.3487 26.1315 27.3487 25.6902C27.3487 25.5748 27.1095 24.6998 26.817 23.7458C26.336 22.1767 26.2972 22.0026 26.4095 21.92C26.4778 21.8697 27.2714 21.4412 28.173 20.9677C29.6474 20.1934 29.8236 20.0805 29.9251 19.8457C30.0653 19.5215 30.0048 19.165 29.7759 18.9659C29.6819 18.8842 28.865 18.4267 27.9606 17.9494C27.0562 17.4721 26.3093 17.075 26.3007 17.067C26.2921 17.0589 26.5245 16.2628 26.817 15.2978C27.1094 14.3328 27.3487 13.4248 27.3487 13.2801C27.3487 12.8875 27.009 12.5844 26.5707 12.5858C26.3887 12.5864 25.4831 12.8026 24.5583 13.0663C23.6335 13.3301 22.8247 13.5451 22.761 13.544C22.6893 13.5429 22.2993 12.9222 21.7387 11.9169C21.2401 11.023 20.745 10.2254 20.6385 10.1444C20.3856 9.95202 19.9336 9.95187 19.681 10.144Z" fill="#00A6CA"/>
<ellipse cx="18.4028" cy="18.6033" rx="0.841303" ry="0.813276" fill="#00A6CA"/>
<ellipse cx="21.4233" cy="21.5264" rx="0.841303" ry="0.813276" fill="#00A6CA"/>
<rect width="7.33822" height="1.15652" transform="matrix(0.781456 -0.623961 0.649606 0.760271 16.8018 21.8863)" fill="#00A6CA"/>
</svg>
