<svg width="40" height="40" viewBox="0 0 40 40" fill="none" xmlns="http://www.w3.org/2000/svg">
<circle cx="20" cy="20" r="20" fill="#E7FBFF"/>
<path fill-rule="evenodd" clip-rule="evenodd" d="M16.6484 9.05331C16.2148 9.19709 15.8653 9.53137 13.5213 11.8994L11 14.4524V14.7703C11 14.963 11.0545 15.1422 11.1871 15.2918L11.4038 15.5352L13.7971 15.5728H16.2319V15.0646C16.2319 14.8658 16.1814 14.4656 16.0824 14.3579C15.942 14.0192 15.6909 13.9849 14.4075 13.9849H13.6157L15.1837 12.398C16.159 11.4116 16.9603 10.6391 17.0592 10.5957C17.2007 10.5337 17.1987 10.5153 17.3223 10.5616C17.4133 10.5957 18.5279 11.6767 19.8691 13.0269L22.4347 15.5998L23.006 15.0137L23.5378 14.4872L20.9328 11.8795C18.1633 9.09631 18.0976 9.03772 17.3526 9.00364C17.125 8.99327 16.7982 9.00363 16.6484 9.05331ZM18.6925 14.0742C18.5388 14.1239 18.3874 14.2612 18.359 14.3054C18.3308 14.3496 18.2873 15.8658 18.271 17.5972C18.1875 20.6373 18.2501 20.3805 18.1875 20.7173C18.0456 20.793 16.6225 20.8225 16.2928 20.7173C16.2469 20.5868 16.2302 20.4576 16.2302 18.7263V16.6048H15.4832H14.6485L14.6777 18.8946C14.6953 20.9812 14.6852 21.0268 14.7946 21.2813C14.9991 21.757 15.4607 22.0974 15.736 22.2133C16.0323 22.3381 18.2648 22.3851 18.7289 22.1897C19.0193 22.0674 19.4269 21.7024 19.6119 21.3542C19.7394 21.1143 19.7466 21.0325 19.763 17.5972L19.7839 13.9849H19.2916C19.0873 13.9862 18.7943 14.0296 18.6925 14.0742Z" fill="#00A6CA"/>
<path fill-rule="evenodd" clip-rule="evenodd" d="M23.1667 30.9582C22.7331 30.8144 22.3347 30.4795 19.9907 28.1115L17.4619 25.5431V25.1436C17.4619 24.9509 17.545 24.8402 17.6777 24.6906L17.8757 24.4658H20.2383H22.6957V24.9535C22.6957 25.1524 22.6619 25.4343 22.5603 25.6208C22.4199 25.9596 22.1774 26.0202 20.862 26.0202H20.0727L21.6278 27.5781C22.6031 28.5645 23.3287 29.2595 23.4381 29.3436C23.5709 29.4251 23.6691 29.4848 23.7927 29.4385C23.8837 29.4045 25.0122 28.2987 26.3533 26.9486L28.8857 24.4088L29.4445 24.9688L29.9997 25.5182L27.4144 28.108C24.592 30.9689 24.52 30.9633 23.775 30.9974C23.5474 31.0078 23.248 30.9852 23.1667 30.9582ZM25.0378 25.8712C24.9361 25.8265 24.8082 25.7286 24.8082 25.6051C24.78 25.5609 24.7489 24.1575 24.7327 22.4261C24.6858 19.3497 24.7197 19.4679 24.6181 19.2787C24.2143 19.1631 23.0891 19.1841 22.7452 19.284C22.6645 19.3654 22.6931 19.5178 22.6931 21.2491V23.393H21.8987H21.1317V21.1193C21.1492 19.0327 21.1632 18.8733 21.2876 18.6391C21.4413 18.3498 21.8665 17.9288 22.2125 17.7831C22.5087 17.6583 24.8524 17.6583 25.201 17.805C25.4914 17.9273 25.9119 18.2989 26.0932 18.6867C26.2207 18.9265 26.211 18.9666 26.2274 22.402V26.0139H25.716C25.5118 26.0126 25.1468 25.9519 25.0378 25.8712Z" fill="#00A6CA"/>
</svg>
