<svg width="40" height="40" viewBox="0 0 40 40" fill="none" xmlns="http://www.w3.org/2000/svg">
<circle cx="20" cy="20" r="20" fill="#E7FBFF"/>
<path d="M20.8404 13.5801H13.2102C12.6675 13.5801 12.6138 13.6316 12.6138 14.1608V21.769C12.6138 22.2731 12.678 22.335 13.1908 22.335H26.7814C27.3122 22.335 27.3778 22.2761 27.3778 21.7455C27.3778 19.6555 27.3852 17.5655 27.3778 15.4755C27.3778 15.1571 27.4687 15.0687 27.7788 15.0937C28.111 15.1122 28.444 15.1122 28.7762 15.0937C28.9506 15.0937 28.9983 15.1527 28.9983 15.3178C28.9983 17.5728 29.0088 19.8264 28.9775 22.08C28.9625 23.125 28.1038 23.89 27.0393 23.8915C25.0893 23.8915 23.1393 23.9018 21.1892 23.8826C20.8493 23.8826 20.7629 23.9843 20.7912 24.2938C20.8128 24.5749 20.8128 24.8573 20.7912 25.1384C20.7748 25.3713 20.8568 25.4332 21.0894 25.4332C22.0167 25.4199 22.944 25.4332 23.8713 25.4214C24.1545 25.4214 24.2828 25.473 24.2529 25.781C24.2281 26.0753 24.2281 26.3711 24.2529 26.6653C24.2723 26.9248 24.1948 27.0029 23.9205 26.9999C22.1315 26.9867 20.3544 26.9999 18.5698 26.9999C17.726 26.9999 16.8822 26.9896 16.0354 26.9999C15.7909 26.9999 15.7297 26.9233 15.7372 26.7051C15.7581 26.3886 15.7581 26.071 15.7372 25.7545C15.7133 25.473 15.8326 25.4273 16.0846 25.4317C17.0119 25.445 17.9392 25.4317 18.8665 25.4435C19.1363 25.4435 19.2273 25.3727 19.2004 25.1089C19.1617 24.7154 19.3674 24.1862 19.117 23.9637C18.8978 23.7677 18.3715 23.9003 17.9824 23.8988C16.3171 23.8988 14.6533 23.8988 12.9881 23.8988C11.8744 23.8959 11.0246 23.1206 11.0157 22.0137C10.9948 19.3017 10.9948 16.5898 11.0157 13.8778C11.0261 12.8004 11.8833 12 12.9746 12C17.6589 12 22.3432 12 27.0274 12C27.4165 11.9979 27.7972 12.1117 28.12 12.3265C28.4428 12.5412 28.6928 12.8471 28.8373 13.2042C28.976 13.552 28.9596 13.5771 28.5839 13.5771H20.8404V13.5801Z" fill="#00A5C9"/>
<path d="M23.0973 18.1731C23.0973 18.9171 23.0896 19.6612 23.0973 20.4065C23.0973 20.6114 23.0358 20.6626 22.8412 20.6626C22.5453 20.6472 22.2482 20.6536 21.9524 20.6626C21.8051 20.6626 21.7321 20.6383 21.7334 20.4641C21.7385 18.9453 21.7385 17.4256 21.7334 15.9051C21.7334 15.7437 21.7885 15.6938 21.946 15.6989C22.2521 15.7092 22.5594 15.7143 22.8655 15.6989C23.0665 15.6874 23.0998 15.7693 23.0973 15.9461C23.0922 16.6837 23.0973 17.4278 23.0973 18.1731Z" fill="#00A5C9"/>
<path d="M20.4119 19.0806C20.4119 19.5288 20.4119 19.977 20.4119 20.4252C20.4119 20.5879 20.3799 20.6647 20.1955 20.657C19.8702 20.643 19.5436 20.6481 19.2171 20.657C19.089 20.657 19.0391 20.6161 19.0391 20.4829C19.0391 19.5557 19.0391 18.6294 19.0391 17.7039C19.0391 17.5682 19.0967 17.5298 19.2235 17.5323C19.55 17.5323 19.8753 17.5413 20.2019 17.5323C20.3619 17.5323 20.4145 17.5823 20.4119 17.7411C20.4055 18.1854 20.4106 18.6349 20.4119 19.0806Z" fill="#00A5C9"/>
<path d="M16.3547 19.8179C16.3777 19.6207 16.2484 19.3056 16.4046 19.1571C16.5609 19.0085 16.8708 19.1174 17.1128 19.1148C17.7122 19.1148 17.7122 19.1148 17.7122 19.718C17.7122 19.9523 17.6993 20.188 17.7122 20.421C17.7262 20.6183 17.6481 20.6644 17.4676 20.6567C17.1719 20.6413 16.8757 20.6413 16.5801 20.6567C16.3803 20.6695 16.3342 20.5914 16.347 20.4121C16.3598 20.2328 16.3547 20.0433 16.3547 19.8179Z" fill="#00A5C9"/>
</svg>
