<svg width="40" height="40" viewBox="0 0 40 40" fill="none" xmlns="http://www.w3.org/2000/svg">
<circle cx="20" cy="20" r="20" fill="#E7FBFF"/>
<path fill-rule="evenodd" clip-rule="evenodd" d="M18.1264 12.1428C15.3162 12.6215 12.8587 14.1676 11.1801 16.3839C9.90557 18.0667 9.1485 20.1659 9.02766 22.247C8.93178 23.349 9.08364 23.5407 9.50702 23.7975C9.79464 23.9978 10.0944 23.9976 12.3881 23.9978H14.9384V22.9292V21.8797H12.8531H11.1465L11.1848 21.6602C11.4249 20.1575 11.9574 18.8859 12.8531 17.6577L13.0004 17.4613L13.855 18.3255L14.9687 19.4079L15.7437 18.6141L16.4507 17.9161L15.393 16.8578L14.5049 15.9683L14.7651 15.7769C16.1453 14.8594 17.1635 14.3978 18.7587 14.1388L18.9396 14.1145V15.3204V16.836H20.0138H21.064V15.3085V14.1175L21.3123 14.1621C22.0054 14.2695 22.6387 14.449 23.3589 14.7338L24.1997 15.0644L24.9118 14.3527L25.7406 13.5458L24.6246 13.0009C23.1643 12.2979 21.6499 11.9868 19.9091 12.0004C19.3397 12.005 18.468 12.0846 18.1264 12.1428ZM22.9041 18.4647L18.9965 22.3594L19.7804 23.1335L20.5015 23.8571L23.8495 20.5192C26.7168 17.7435 26.9757 17.4155 27.045 17.5178C27.3207 17.9246 27.9367 18.8638 28.2119 19.5128C28.4805 20.1458 28.7 20.8916 28.8103 21.5822L28.8462 21.874H27.2066H25.2319V22.937V24H27.7631C29.9748 23.9998 30.2348 23.9729 30.4799 23.8243C30.9033 23.5676 31.0603 23.3956 30.9796 22.3236C30.7576 19.3781 29.7186 17.1872 27.8619 15.2638C27.4984 14.8872 27.1946 14.5611 26.9972 14.5373C26.7339 14.5373 25.0218 16.3582 22.9041 18.4647Z" fill="#00A6CA"/>
</svg>
