<svg width="101" height="101" viewBox="0 0 101 101" fill="none" xmlns="http://www.w3.org/2000/svg">
<g filter="url(#filter0_d_2371_3507)">
<path d="M46.4984 10.5693C48.3242 7.57192 52.6758 7.57192 54.5016 10.5693L56.0834 13.166C57.385 15.3029 60.136 16.04 62.3317 14.8402L64.9999 13.3823C68.0798 11.6994 71.8483 13.8752 71.9308 17.3839L72.0023 20.4236C72.0611 22.925 74.075 24.9389 76.5764 24.9977L79.6161 25.0692C83.1248 25.1517 85.3006 28.9202 83.6177 32.0001L82.1598 34.6683C80.96 36.864 81.6971 39.615 83.834 40.9166L86.4307 42.4984C89.4281 44.3242 89.4281 48.6758 86.4307 50.5016L83.834 52.0834C81.6971 53.385 80.96 56.136 82.1598 58.3317L83.6177 60.9999C85.3006 64.0797 83.1248 67.8483 79.6161 67.9308L76.5764 68.0023C74.075 68.0611 72.0611 70.075 72.0023 72.5764L71.9308 75.6161C71.8483 79.1248 68.0798 81.3006 64.9999 79.6177L62.3317 78.1598C60.136 76.96 57.385 77.6971 56.0834 79.834L54.5016 82.4307C52.6758 85.4281 48.3242 85.4281 46.4984 82.4307L44.9166 79.834C43.615 77.6971 40.864 76.96 38.6683 78.1598L36.0001 79.6177C32.9203 81.3006 29.1517 79.1248 29.0692 75.6161L28.9977 72.5764C28.9389 70.075 26.925 68.0611 24.4236 68.0023L21.3839 67.9308C17.8752 67.8483 15.6994 64.0797 17.3823 60.9999L18.8402 58.3317C20.04 56.136 19.3029 53.385 17.166 52.0834L14.5693 50.5016C11.5719 48.6758 11.5719 44.3242 14.5693 42.4984L17.166 40.9166C19.3029 39.615 20.04 36.864 18.8402 34.6683L17.3823 32.0001C15.6994 28.9202 17.8752 25.1517 21.3839 25.0692L24.4236 24.9977C26.925 24.9389 28.9389 22.925 28.9977 20.4236L29.0692 17.3839C29.1517 13.8752 32.9203 11.6994 36.0001 13.3823L38.6683 14.8402C40.864 16.04 43.615 15.3029 44.9166 13.166L46.4984 10.5693Z" fill="#FCD800"/>
<path d="M53.6476 11.0895L55.2293 13.6862C56.8088 16.2792 60.1468 17.1736 62.8112 15.7178L65.4794 14.2598C67.9019 12.9361 70.8662 14.6475 70.9311 17.4074L71.0026 20.4471C71.074 23.4824 73.5176 25.926 76.5529 25.9974L79.5926 26.0689C82.3525 26.1338 84.0639 29.0981 82.7402 31.5206L81.2822 34.1888C79.8264 36.8532 80.7208 40.1912 83.3138 41.7707L85.9105 43.3524C88.2682 44.7886 88.2682 48.2114 85.9105 49.6476L83.3138 51.2293C80.7208 52.8088 79.8264 56.1468 81.2822 58.8112L82.7402 61.4794C84.0639 63.9019 82.3525 66.8662 79.5926 66.9311L76.5529 67.0026C73.5176 67.074 71.074 69.5176 71.0026 72.5529L70.9311 75.5926C70.8662 78.3525 67.9019 80.0639 65.4794 78.7402L62.8112 77.2822C60.1468 75.8264 56.8088 76.7208 55.2293 79.3138L53.6476 81.9105C52.2114 84.2682 48.7886 84.2682 47.3524 81.9105L45.7707 79.3138C44.1912 76.7208 40.8532 75.8264 38.1888 77.2822L35.5206 78.7402C33.0981 80.0639 30.1338 78.3525 30.0689 75.5926L29.9974 72.5529C29.926 69.5176 27.4824 67.074 24.4471 67.0026L21.4074 66.9311C18.6475 66.8662 16.9361 63.9019 18.2598 61.4794L19.7178 58.8112C21.1736 56.1468 20.2792 52.8088 17.6862 51.2293L15.0895 49.6476C12.7318 48.2114 12.7318 44.7886 15.0895 43.3524L17.6862 41.7707C20.2792 40.1912 21.1736 36.8532 19.7178 34.1888L18.2598 31.5206C16.9361 29.0981 18.6475 26.1338 21.4074 26.0689L24.4471 25.9974C27.4824 25.926 29.926 23.4824 29.9974 20.4471L30.0689 17.4074C30.1338 14.6475 33.0981 12.9361 35.5206 14.2598L38.1888 15.7178C40.8532 17.1736 44.1912 16.2792 45.7707 13.6862L47.3524 11.0895C48.7886 8.73184 52.2114 8.73185 53.6476 11.0895Z" stroke="#00A6CA" stroke-width="2"/>
</g>
<path fill-rule="evenodd" clip-rule="evenodd" d="M56.8943 30.439C57.3754 30.4333 57.415 30.439 57.6301 30.5975C57.7546 30.6824 57.9583 30.8635 58.0829 30.9937C58.3092 31.2314 58.3092 31.237 58.3489 31.7804C58.3715 32.0803 58.3885 37.9099 58.3998 57.1193L58.0715 57.4702C57.7885 57.7702 57.6923 57.8324 57.4037 57.9116C57.1886 57.9739 56.9905 57.9965 56.866 57.9682C56.7585 57.9456 56.068 57.6966 55.3379 57.4023C54.6077 57.1136 52.8985 56.4175 51.5458 55.8571C50.1931 55.2968 47.8726 54.3403 46.3954 53.7291C44.9182 53.1178 43.6221 52.5801 43.3391 52.4499V60.6H45.9426L45.9313 58.0588C45.92 56.4175 45.9369 55.4893 45.9709 55.4496C46.0105 55.41 46.418 55.5515 47.3009 55.9081C48.0028 56.1911 48.6197 56.4458 48.6763 56.4741C48.7668 56.5193 48.7725 56.6948 48.7725 58.9021C48.7725 61.1264 48.7668 61.2962 48.6593 61.5792C48.597 61.7377 48.4386 62.0376 48.3027 62.2414C48.099 62.5527 47.9575 62.6772 46.7633 63.4865L42.5184 63.4809L42.0713 63.2149C41.8279 63.0677 41.511 62.847 41.3695 62.7225C41.2336 62.598 41.0073 62.3206 40.8714 62.0999C40.7356 61.8848 40.5997 61.5792 40.5715 61.4207C40.5375 61.2622 40.4866 59.1059 40.4526 56.4967C40.4186 53.9441 40.3734 51.7142 40.3111 51.2331L39.4338 51.1935C38.9527 51.1708 37.883 51.1312 37.0567 51.1029C35.6474 51.052 35.5286 51.0407 35.1041 50.8992C34.8551 50.8143 34.5098 50.6615 34.34 50.5652C34.1702 50.469 33.8872 50.2709 33.7174 50.1294C33.5476 49.9823 33.2816 49.7049 33.1288 49.5012C32.9817 49.3031 32.7892 49.0145 32.71 48.856C32.6364 48.7032 32.5232 48.4315 32.461 48.2617C32.4044 48.0919 32.3308 47.7863 32.2968 47.5825C32.2629 47.3675 32.2402 46.0827 32.2402 44.4413C32.2402 42.9189 32.2685 41.3624 32.2968 40.9889C32.3534 40.3436 32.3647 40.2814 32.6308 39.7437C32.8572 39.2909 33.01 39.0759 33.3835 38.674C33.7118 38.3288 33.9948 38.0911 34.2834 37.9269C34.5155 37.7854 34.8494 37.6213 35.0192 37.559C35.189 37.4968 35.5229 37.4232 35.755 37.3949C35.987 37.3666 37.1473 37.3157 40.4809 37.2251L45.5181 35.114C48.2914 33.9481 51.6533 32.5331 52.989 31.9672C54.3247 31.4012 55.6378 30.8295 55.9038 30.6937C56.3566 30.4673 56.4189 30.4503 56.8943 30.439V30.439ZM46.2539 37.9326L41.1035 40.1003C39.2188 40.1569 38.0302 40.1965 37.2548 40.2305C35.9531 40.2814 35.8229 40.2984 35.6474 40.4116C35.5399 40.4795 35.4097 40.604 35.3475 40.6946C35.2739 40.8021 35.2286 41.0398 35.1833 41.5152C35.1494 41.8775 35.1211 43.1339 35.1211 44.2998C35.1211 45.5337 35.1437 46.6713 35.1833 47.0165C35.2456 47.5882 35.2569 47.6165 35.4607 47.8316C35.5739 47.9504 35.7606 48.0862 35.8682 48.1372C36.0323 48.2051 36.4738 48.2277 38.4717 48.2504L40.8771 48.273C50.527 52.2915 53.7984 53.6498 54.3757 53.8819L55.4227 54.312C55.4907 51.3972 55.502 46.9373 55.485 42.517C55.4737 38.0967 55.4454 34.3952 55.4284 34.299C55.4114 34.1971 55.3775 34.1122 55.3548 34.1179C55.3322 34.1179 54.4323 34.4914 53.3569 34.9442C52.2816 35.3913 49.0894 36.7384 46.2539 37.9326ZM68.412 30.4333L68.7855 30.7899C68.9949 30.9823 69.21 31.2427 69.2666 31.3672C69.3289 31.4974 69.3741 31.7238 69.3741 31.9049C69.3741 32.1143 69.3289 32.3011 69.244 32.4709C69.176 32.6124 69.0006 32.8161 68.8365 32.9406C68.678 33.0595 67.3932 33.7387 65.9783 34.4461C64.5633 35.1593 63.2502 35.7932 63.0635 35.8668C62.8427 35.9516 62.605 35.9969 62.3843 35.9913C62.1975 35.9913 61.9768 35.963 61.8862 35.929C61.8013 35.8951 61.6429 35.7819 61.5297 35.6856C61.4165 35.5838 61.2693 35.397 61.2071 35.2725C61.1448 35.148 61.0825 34.8933 61.0656 34.7065C61.0486 34.5197 61.0656 34.2763 61.0995 34.1688C61.1335 34.0556 61.275 33.8632 61.4391 33.716C61.5919 33.5745 61.9202 33.3481 62.1636 33.2123C62.4069 33.0765 63.488 32.5162 64.5633 31.9672C65.6387 31.4238 66.782 30.8522 67.1102 30.705C67.6083 30.4786 67.7611 30.439 68.412 30.4333V30.4333ZM63.5163 42.8283L66.6291 42.8396C68.9666 42.8509 69.7816 42.8736 69.9005 42.9302C69.9854 42.9641 70.1722 43.1056 70.3193 43.2415C70.4608 43.3716 70.6249 43.5811 70.6815 43.7056C70.7438 43.8414 70.7891 44.0678 70.7891 44.2715C70.7891 44.5602 70.7664 44.6508 70.608 44.8885C70.5061 45.0413 70.308 45.2563 70.1665 45.3582C70.0137 45.4714 69.8099 45.562 69.6571 45.5903C69.5156 45.6129 68.1573 45.6299 66.6291 45.6242C65.101 45.6242 63.703 45.6016 63.5163 45.579C63.205 45.5393 63.1484 45.5054 62.888 45.2394C62.6673 45.0243 62.5711 44.8715 62.5031 44.6394C62.4522 44.4696 62.4126 44.2319 62.4126 44.1187C62.4126 43.9999 62.4465 43.8188 62.4862 43.7225C62.5314 43.6207 62.6503 43.4339 62.7578 43.315C62.8654 43.1905 63.0748 43.032 63.2333 42.9585L63.5163 42.8283ZM62.5541 52.4386C62.6446 52.4556 62.9276 52.5462 63.1767 52.6424C63.4257 52.7386 64.3935 53.197 65.3274 53.6611C66.2613 54.1196 67.4102 54.7082 67.8743 54.9629C68.3384 55.2119 68.8195 55.5119 68.944 55.6194C69.0628 55.7326 69.21 55.9251 69.2779 56.0496C69.3685 56.225 69.3855 56.3495 69.3628 56.6439C69.3458 56.8589 69.2836 57.108 69.21 57.2495C69.1421 57.3853 68.9893 57.5607 68.8478 57.657C68.7176 57.7475 68.4969 57.8607 68.3554 57.9116C68.2139 57.9626 68.0441 58.0022 67.9705 58.0022C67.9026 58.0022 67.6762 57.9343 67.4611 57.8494C67.2517 57.7702 66.4707 57.4136 65.7236 57.057C64.9765 56.7005 63.8049 56.1175 63.1201 55.7553C62.4352 55.3987 61.7617 55.0195 61.6202 54.9176C61.4561 54.7988 61.3089 54.6233 61.2071 54.4309C61.1052 54.2271 61.0542 54.0347 61.0542 53.8706C61.0542 53.7291 61.0939 53.497 61.1391 53.3612C61.1901 53.2197 61.2976 53.0329 61.3825 52.9423C61.4674 52.8518 61.6146 52.7273 61.7051 52.6594C61.7957 52.5971 61.9881 52.5122 62.1296 52.4726C62.2711 52.4386 62.4635 52.4216 62.5541 52.4386V52.4386Z" fill="#006685"/>
<defs>
<filter id="filter0_d_2371_3507" x="0.320312" y="0.321289" width="100.359" height="100.357" filterUnits="userSpaceOnUse" color-interpolation-filters="sRGB">
<feFlood flood-opacity="0" result="BackgroundImageFix"/>
<feColorMatrix in="SourceAlpha" type="matrix" values="0 0 0 0 0 0 0 0 0 0 0 0 0 0 0 0 0 0 127 0" result="hardAlpha"/>
<feOffset dy="4"/>
<feGaussianBlur stdDeviation="6"/>
<feComposite in2="hardAlpha" operator="out"/>
<feColorMatrix type="matrix" values="0 0 0 0 0 0 0 0 0 0 0 0 0 0 0 0 0 0 0.1 0"/>
<feBlend mode="normal" in2="BackgroundImageFix" result="effect1_dropShadow_2371_3507"/>
<feBlend mode="normal" in="SourceGraphic" in2="effect1_dropShadow_2371_3507" result="shape"/>
</filter>
</defs>
</svg>
