<svg width="105" height="137" viewBox="0 0 105 137" fill="none" xmlns="http://www.w3.org/2000/svg">
<g clip-path="url(#clip0_2408_2658)">
<circle opacity="0.21" cx="13.5" cy="68.5" r="91.5" fill="#FCD800"/>
<g filter="url(#filter0_d_2408_2658)">
<path d="M46.675 42.2795C48.4202 39.4143 52.5798 39.4143 54.325 42.2795C55.5693 44.3221 58.1989 45.0267 60.2977 43.8798C63.2417 42.2712 66.844 44.351 66.9229 47.7049C66.9791 50.0959 68.9041 52.0209 71.2951 52.0771C74.649 52.156 76.7288 55.7583 75.1202 58.7023C73.9734 60.8011 74.6779 63.4307 76.7206 64.675C79.5857 66.4202 79.5857 70.5798 76.7206 72.325C74.6779 73.5693 73.9734 76.1988 75.1202 78.2977C76.7288 81.2417 74.649 84.844 71.2951 84.9229C68.9041 84.9791 66.9791 86.9041 66.9229 89.2951C66.844 92.649 63.2417 94.7288 60.2977 93.1202C58.1989 91.9734 55.5693 92.6779 54.325 94.7206C52.5798 97.5857 48.4202 97.5857 46.675 94.7206C45.4307 92.6779 42.8011 91.9734 40.7023 93.1202C37.7583 94.7288 34.156 92.649 34.0771 89.2951C34.0209 86.9041 32.0959 84.9791 29.7049 84.9229C26.351 84.844 24.2712 81.2417 25.8798 78.2977C27.0267 76.1989 26.3221 73.5693 24.2795 72.325C21.4143 70.5798 21.4143 66.4202 24.2795 64.675C26.3221 63.4307 27.0267 60.8011 25.8798 58.7023C24.2712 55.7583 26.351 52.156 29.7049 52.0771C32.0959 52.0209 34.0209 50.0959 34.0771 47.7049C34.156 44.351 37.7583 42.2712 40.7023 43.8798C42.8011 45.0267 45.4307 44.3221 46.675 42.2795Z" fill="#FCD800"/>
<path d="M47.529 42.7997C48.8846 40.5743 52.1154 40.5743 53.471 42.7997C54.993 45.2983 58.2097 46.1603 60.7772 44.7574C63.0639 43.5079 65.8619 45.1233 65.9231 47.7284C65.9919 50.6533 68.3467 53.0081 71.2716 53.0769C73.8767 53.1381 75.4921 55.9361 74.2426 58.2228C72.8398 60.7903 73.7017 64.007 76.2003 65.529C78.4257 66.8846 78.4257 70.1154 76.2003 71.471C73.7017 72.993 72.8398 76.2097 74.2426 78.7772C75.4921 81.0639 73.8767 83.8619 71.2716 83.9231C68.3467 83.9919 65.9919 86.3467 65.9231 89.2716C65.8619 91.8767 63.0639 93.4921 60.7772 92.2426C58.2097 90.8398 54.993 91.7017 53.471 94.2003C52.1154 96.4257 48.8846 96.4257 47.529 94.2003C46.007 91.7017 42.7903 90.8398 40.2228 92.2426C37.9361 93.4921 35.1381 91.8767 35.0769 89.2716C35.0081 86.3467 32.6533 83.9919 29.7284 83.9231C27.1233 83.8619 25.5079 81.0639 26.7574 78.7772C28.1603 76.2097 27.2983 72.993 24.7997 71.471C22.5743 70.1154 22.5743 66.8846 24.7997 65.529C27.2983 64.007 28.1603 60.7903 26.7574 58.2228C25.5079 55.9361 27.1233 53.1381 29.7284 53.0769C32.6533 53.0081 35.0081 50.6533 35.0769 47.7284C35.1381 45.1233 37.9361 43.5079 40.2228 44.7574C42.7903 46.1603 46.007 45.2983 47.529 42.7997Z" stroke="#00A6CA" stroke-width="2"/>
</g>
<path d="M56.2739 56.9517L56.2772 56.9966L56.3231 57.6193L56.3231 57.6197L56.2034 57.6285C56.2297 57.9696 56.2493 62.4102 56.2493 76.7487L56.2739 56.9517ZM56.2739 56.9517L56.2418 56.9201M56.2739 56.9517L56.2418 56.9201M56.2418 56.9201C55.972 56.6534 55.8143 56.4993 55.6716 56.4182M56.2418 56.9201L55.6716 56.4182M43.0581 63.8743L43.0353 63.8748C41.5367 63.9109 40.552 63.9404 39.9307 63.9658C39.62 63.9785 39.4012 63.9901 39.2549 64.0009C39.1816 64.0063 39.1279 64.0115 39.0905 64.0162C39.0558 64.0207 39.0438 64.0239 39.0437 64.0235C39.0437 64.0235 39.044 64.0233 39.0447 64.0231L39.039 64.0255L39.0389 64.0253C39.0093 64.0359 38.9598 64.0639 38.9028 64.1062C38.8475 64.1473 38.7935 64.1958 38.7543 64.2406L38.7535 64.2415L38.7535 64.2415C38.7129 64.2869 38.6916 64.3134 38.6749 64.3471C38.6582 64.3809 38.6428 64.4294 38.6294 64.5195C38.6019 64.704 38.5873 65.025 38.5609 65.6682C38.5347 66.3876 38.5282 67.5387 38.5543 68.2171L38.5543 68.2173C38.5741 68.7502 38.5887 69.0631 38.6111 69.2601C38.6333 69.4566 38.6615 69.5168 38.6939 69.5592L38.6961 69.5622L38.6961 69.5622C38.7521 69.6407 38.8789 69.7627 38.9661 69.8315C38.9998 69.856 39.0273 69.8719 39.0739 69.8853C39.126 69.9003 39.2043 69.913 39.341 69.9231C39.6145 69.9432 40.0903 69.9514 40.9877 69.9646C40.9877 69.9646 40.9877 69.9646 40.9877 69.9646L42.9025 69.9842L42.9259 69.9845L42.9475 69.9935C47.257 71.794 50.0396 72.9533 51.7481 73.6608C52.6023 74.0146 53.1878 74.2553 53.5613 74.4067C53.7341 74.4767 53.861 74.5275 53.9481 74.5614C53.9504 74.4883 53.9529 74.3909 53.9554 74.2713C53.9615 73.9808 53.9681 73.561 53.9746 73.0429C53.9877 72.0068 54.0009 70.5788 54.0107 69.0081C54.0304 65.8726 54.0238 62.3651 53.9976 61.2192C53.9845 60.6491 53.9681 60.13 53.9526 59.7538C53.9448 59.5655 53.9373 59.4137 53.9305 59.3093C53.9305 59.3089 53.9304 59.3085 53.9304 59.3081C53.8558 59.3389 53.7541 59.381 53.6277 59.4335C53.344 59.5513 52.9368 59.721 52.4363 59.9301C51.4353 60.3482 50.0613 60.9237 48.556 61.5566L43.0581 63.8743ZM43.0581 63.8743L43.0791 63.8655L48.5559 61.5566L43.0581 63.8743ZM58.8414 58.6292C58.7454 58.6897 58.6446 58.7699 58.5585 58.8501C58.4737 58.9289 58.3954 59.0148 58.3508 59.0877L58.3507 59.0876L58.3476 59.0934C58.2971 59.1871 58.2635 59.274 58.2478 59.3754C58.2323 59.4747 58.2351 59.5816 58.2486 59.7135L58.2487 59.7145C58.2596 59.8124 58.2846 59.9207 58.3163 60.0168C58.3471 60.1101 58.3884 60.2048 58.4376 60.2673L58.4375 60.2674L58.4403 60.2707C58.5166 60.3608 58.6601 60.5046 58.7595 60.5827L58.7595 60.5828L58.7625 60.585C58.9165 60.6984 59.1037 60.7396 59.3584 60.7396C59.5355 60.7396 59.6855 60.7083 60.0208 60.5642C60.3526 60.4215 60.8793 60.1622 61.8125 59.6972C62.3803 59.415 62.9319 59.1359 63.3638 58.9125C63.7918 58.6912 64.1111 58.5202 64.2067 58.4565C64.4133 58.3187 64.5854 58.1451 64.6639 57.9573C64.7452 57.765 64.7666 57.5793 64.738 57.3574L64.7378 57.3562C64.7199 57.2277 64.6901 57.1214 64.6268 57.0124C64.5655 56.9067 64.4761 56.8044 64.3501 56.6784C64.2106 56.5357 64.1134 56.4394 64.0064 56.3875C63.8927 56.3323 63.7779 56.3312 63.6272 56.3344C63.4583 56.3346 63.2988 56.374 62.9652 56.5209C62.6319 56.6676 62.1103 56.9285 61.213 57.3837M58.8414 58.6292C59.033 58.5063 60.1022 57.9456 61.213 57.3837M58.8414 58.6292C58.8413 58.6293 58.8411 58.6295 58.8409 58.6296L58.9058 58.7305L58.8419 58.6289C58.8417 58.629 58.8416 58.6291 58.8414 58.6292ZM61.213 57.3837L61.2671 57.4908L61.2129 57.3838C61.2129 57.3838 61.2129 57.3837 61.213 57.3837ZM62.7108 65.7994H62.7109L62.7405 65.7996C63.8012 65.806 64.3576 65.8094 64.6753 65.8283C64.8357 65.8379 64.9432 65.8518 65.0274 65.8747C65.1156 65.8987 65.1733 65.9313 65.233 65.9682L65.234 65.9688C65.3708 66.0552 65.5519 66.2224 65.6457 66.345L65.649 66.3493L65.6489 66.3494C65.7079 66.4342 65.7508 66.5191 65.7779 66.6229C65.8046 66.7246 65.8146 66.8394 65.8146 66.982C65.8146 67.1459 65.8112 67.2656 65.7631 67.3778C65.7159 67.4879 65.6298 67.5807 65.5051 67.7085C65.5051 67.7086 65.5051 67.7086 65.5051 67.7086L65.4192 67.6248L62.7108 65.7994ZM62.7108 65.7994C62.097 65.7961 61.5076 65.7978 61.0525 65.8035C60.825 65.8064 60.6306 65.8103 60.4833 65.8152C60.3405 65.8199 60.2319 65.8257 60.184 65.834C60.0956 65.8494 59.9984 65.8829 59.9109 65.9239C59.8249 65.9643 59.7398 66.016 59.6783 66.0729M62.7108 65.7994L59.6783 66.0729M59.2982 67.0611C59.3091 67.1591 59.3341 67.2656 59.365 67.3591C59.3949 67.4496 59.4344 67.5406 59.4798 67.5996C59.5515 67.6929 59.6964 67.8379 59.8043 67.9174L59.483 66.5229M59.2982 67.0611C59.2982 67.061 59.2982 67.0609 59.2982 67.0609L59.4174 67.0476L59.2982 67.0612C59.2982 67.0612 59.2982 67.0611 59.2982 67.0611ZM59.2982 67.0611C59.2709 66.8217 59.2884 66.6299 59.3761 66.4684M59.3761 66.4684C59.3755 66.4695 59.375 66.4706 59.3745 66.4718L59.483 66.5229M59.3761 66.4684C59.4364 66.3421 59.569 66.1682 59.6783 66.0729M59.3761 66.4684C59.3767 66.4673 59.3773 66.4661 59.3779 66.465L59.483 66.5229M59.483 66.5229L59.6783 66.0729M64.6692 75.9514C64.6324 75.8698 64.566 75.779 64.4923 75.6975C64.4175 75.6148 64.3282 75.5339 64.2395 75.4748C64.0749 75.3651 63.3266 74.9616 62.5683 74.5759C61.813 74.1818 60.867 73.7153 60.4645 73.5306L60.4637 73.5302C60.2653 73.4409 60.0567 73.3532 59.8815 73.2851C59.7119 73.2192 59.5597 73.1661 59.4821 73.1538L59.4821 73.1538L59.4789 73.1533C59.2999 73.13 59.1071 73.1699 58.911 73.2539L58.911 73.2537L58.9046 73.2568C58.8229 73.2977 58.7318 73.3588 58.6503 73.4254C58.57 73.491 58.492 73.5677 58.4403 73.6428C58.3891 73.7141 58.3439 73.8102 58.31 73.9039C58.2759 73.9985 58.2497 74.1008 58.2419 74.1863L58.2419 74.1868C58.2274 74.3536 58.255 74.584 58.3302 74.7505C58.4166 74.9535 58.585 75.1136 58.8597 75.288C58.9701 75.3624 59.2917 75.5361 59.7114 75.7541C60.1369 75.9751 60.6722 76.246 61.2138 76.5151L61.214 76.5152C61.792 76.8009 62.3131 77.0492 62.709 77.2286C62.9069 77.3183 63.0744 77.3912 63.2025 77.4431C63.2664 77.469 63.3216 77.4901 63.3664 77.5056C63.4083 77.52 63.4496 77.5326 63.4818 77.5368L63.4818 77.5368L63.4854 77.5372C63.5924 77.5479 63.6888 77.5466 63.79 77.5254C63.8903 77.5044 63.9894 77.465 64.1032 77.4064L64.1036 77.4062C64.1931 77.3597 64.2859 77.2982 64.365 77.2374C64.4422 77.178 64.5143 77.1131 64.5566 77.058L64.5567 77.0581L64.5592 77.0546C64.602 76.9947 64.6409 76.9065 64.6709 76.8188C64.7015 76.7299 64.7266 76.6307 64.7378 76.5424C64.7732 76.3141 64.7523 76.1329 64.6692 75.9514ZM64.6692 75.9514C64.6691 75.9512 64.6691 75.9511 64.669 75.951L64.5599 76.001L64.6693 75.9517C64.6693 75.9516 64.6692 75.9515 64.6692 75.9514ZM55.6716 56.4182C55.5152 56.3292 55.3779 56.3279 55.1802 56.3279M55.6716 56.4182L55.1802 56.3279M55.1802 56.3279C55.0614 56.3279 54.9464 56.3346 54.8554 56.346C54.8101 56.3517 54.7683 56.3588 54.7337 56.3675C54.7166 56.3719 54.6988 56.3772 54.6824 56.3841C54.6701 56.3891 54.6499 56.3984 54.6309 56.4147L55.1802 56.3279ZM53.1845 57.0592C52.4112 57.3934 49.6966 58.5344 47.1511 59.6037L54.6308 56.4149C54.6264 56.4175 54.6192 56.4216 54.6085 56.4273C54.5872 56.4387 54.5568 56.4539 54.5176 56.4728C54.4393 56.5104 54.3297 56.5607 54.1964 56.6204C53.9301 56.7397 53.5718 56.8951 53.1853 57.0589L53.1845 57.0592ZM63.8848 68.1072C64.3399 68.1024 64.6833 68.0927 64.7915 68.0784L62.2379 67.9856L62.2366 68.1056C62.2366 68.1056 62.2367 68.1056 62.2367 68.1056C62.8376 68.1121 63.4239 68.1122 63.8848 68.1072ZM54.6341 56.4127C54.6341 56.4127 54.6338 56.4129 54.6331 56.4134L54.6341 56.4127Z" fill="#006685" stroke="#006685" stroke-width="0.24"/>
</g>
<defs>
<filter id="filter0_d_2408_2658" x="10.1309" y="32.1306" width="80.7383" height="80.7388" filterUnits="userSpaceOnUse" color-interpolation-filters="sRGB">
<feFlood flood-opacity="0" result="BackgroundImageFix"/>
<feColorMatrix in="SourceAlpha" type="matrix" values="0 0 0 0 0 0 0 0 0 0 0 0 0 0 0 0 0 0 127 0" result="hardAlpha"/>
<feOffset dy="4"/>
<feGaussianBlur stdDeviation="6"/>
<feComposite in2="hardAlpha" operator="out"/>
<feColorMatrix type="matrix" values="0 0 0 0 0 0 0 0 0 0 0 0 0 0 0 0 0 0 0.1 0"/>
<feBlend mode="normal" in2="BackgroundImageFix" result="effect1_dropShadow_2408_2658"/>
<feBlend mode="normal" in="SourceGraphic" in2="effect1_dropShadow_2408_2658" result="shape"/>
</filter>
<clipPath id="clip0_2408_2658">
<rect width="105" height="137" fill="white"/>
</clipPath>
</defs>
</svg>
