<svg width="183" height="131" viewBox="0 0 183 131" fill="none" xmlns="http://www.w3.org/2000/svg">
<g clip-path="url(#clip0_2371_3493)">
<circle opacity="0.21" cx="53.5" cy="65.5" r="129.5" fill="#FCD800"/>
<g opacity="0.5">
<path fill-rule="evenodd" clip-rule="evenodd" d="M145.676 18.0197C145.403 18.077 143.132 19.3115 138.962 21.6692L132.66 25.2319L133.119 26.0238C133.372 26.4593 133.599 26.8213 133.624 26.8282C133.649 26.8351 134.244 26.5154 134.947 26.1177C135.649 25.72 136.244 25.4215 136.268 25.4544C136.292 25.4874 135.998 27.2469 135.614 29.3646L134.917 33.2148L135.045 33.6736C135.186 34.1763 135.56 34.6754 136.028 34.984C136.306 35.168 136.849 35.2613 143.311 36.237L150.294 37.2913L150.814 37.1094C151.099 37.0094 151.471 36.8111 151.64 36.6688C152.236 36.1674 152.31 35.9405 152.842 33.0108L153.327 30.3367L152.552 29.4752L151.778 28.6138L151.136 31.9C150.525 35.0281 150.485 35.1908 150.301 35.2815C150.144 35.3587 149.596 35.2994 147.384 34.9655L144.661 34.5544L145.002 32.6756L145.343 30.7968L144.371 30.65L143.398 30.5032L143.057 32.382L142.717 34.2608L139.893 33.8345C137.076 33.4092 137.069 33.4078 136.967 33.1976C136.876 33.0135 136.965 32.4318 137.674 28.5445L138.484 24.1021L142.233 21.9919C144.294 20.8313 146.061 19.8653 146.16 19.8455C146.259 19.8255 146.422 19.858 146.523 19.9177C146.624 19.9773 148.762 22.3113 151.274 25.1042C154.573 28.7728 155.875 30.163 155.963 30.1129C156.03 30.0747 156.374 29.8007 156.728 29.5037L157.371 28.964L155.149 26.4984L152.927 24.0328L153.367 21.6048L153.808 19.177L152.882 19.0371L151.955 18.8973L151.629 20.5612L151.302 22.2251L149.606 20.3464C148.433 19.0468 147.795 18.4089 147.536 18.2768C147.05 18.0287 146.195 17.9105 145.676 18.0197ZM144.181 26.1904L144.018 27.0871L144.99 27.2339L145.963 27.3807L146.125 26.484L146.288 25.5873L145.316 25.4405L144.343 25.2937L144.181 26.1904ZM139.339 30.8554L139.168 31.7948L140.141 31.9416L141.113 32.0884L141.283 31.149L141.454 30.2096L140.481 30.0628L139.509 29.916L139.339 30.8554ZM147.117 32.0298L146.947 32.9692L147.875 33.1093L148.803 33.2494L148.973 32.31L149.144 31.3706L148.215 31.2305L147.287 31.0903L147.117 32.0298Z" fill="#00A6CA"/>
<path d="M159.188 57.5888C159.634 57.7068 159.951 57.8288 160.112 57.965C160.246 58.0703 160.958 58.9462 163.039 61.6527L163.835 58.6213L165.698 59.0451L164.54 63.6377L166.374 66.0141C167.383 67.3229 168.195 68.4375 168.171 68.4985C168.156 68.5612 167.841 68.83 167.466 69.1017C167.102 69.3673 166.775 69.5835 166.735 69.5744C166.703 69.5671 166.347 69.1291 165.945 68.606C165.542 68.0828 165.195 67.6467 165.17 67.6412C165.146 67.6357 164.724 69.233 163.327 74.734L163.002 75.1085C162.814 75.3147 162.493 75.5738 162.281 75.6748C162.066 75.7837 161.695 75.8736 161.461 75.8949C161.178 75.9052 160.662 75.8294 158.823 75.411L159.282 73.6061L160.309 73.8399C161.024 74.0025 161.377 74.0497 161.457 74.0015C161.55 73.9395 161.833 72.9248 163.682 65.6424L161.265 62.5191C159.528 60.2643 158.802 59.3769 158.658 59.344C158.513 59.3112 157.45 59.7832 151.24 62.7695L150.195 66.9147C149.289 70.4853 149.157 71.0697 149.236 71.1955C149.302 71.3019 149.527 71.3863 151.012 71.7243L150.554 73.5292L149.452 73.2535C148.404 72.9985 148.342 72.976 147.982 72.6534C147.783 72.467 147.544 72.1719 147.461 71.9954C147.371 71.817 147.284 71.5566 147.254 71.4085C147.219 71.2098 147.414 70.3079 148.978 63.8486L147.787 64.4244C147.14 64.7336 146.583 64.9886 146.542 64.9794C146.51 64.9721 146.323 64.639 146.126 64.2455C145.923 63.8423 145.771 63.4675 145.787 63.4048C145.795 63.3401 148.488 62.0021 151.759 60.4223C155.029 58.8504 157.826 57.5361 157.978 57.5044C158.129 57.4805 158.307 57.4464 158.377 57.4375C158.45 57.4207 158.813 57.4951 159.188 57.5888ZM159.248 63.0395C160.504 63.342 161.546 63.6206 161.578 63.6611C161.604 63.692 161.543 64.0017 161.263 64.9674L160.192 64.7401C159.61 64.6243 159.12 64.5461 159.112 64.5774C159.102 64.6167 159.118 64.6868 159.156 64.737C159.186 64.7853 159.231 65.0445 159.303 65.7664L160.945 66.223L160.606 67.5571L158.99 67.2309L158.672 67.7147C158.492 67.9891 158.203 68.322 158.039 68.4672C157.875 68.6124 157.634 68.7902 157.506 68.8606C157.378 68.931 157.021 69.0656 156.718 69.1544C156.413 69.2511 155.918 69.3292 155.611 69.3341C155.304 69.339 155.005 69.3456 154.945 69.3485C154.884 69.3515 155.098 69.8483 155.464 70.5127C155.802 71.1541 156.382 72.2822 156.761 73.0324C157.131 73.7808 157.477 74.4905 157.522 74.6168C157.574 74.7781 157.566 74.8759 157.494 74.9591C157.39 75.0683 157.25 75.0529 155.331 74.6162L155.103 74.1743C154.989 73.9241 154.52 73.0288 154.075 72.1721C153.63 71.3155 153.032 70.1917 152.209 68.7177L152.37 68.0488C152.478 67.5918 152.572 67.3559 152.658 67.3174C152.736 67.2771 153.224 67.3299 153.838 67.4531C154.641 67.6026 155.006 67.6359 155.375 67.5871C155.716 67.5485 155.991 67.4366 156.299 67.2246C156.536 67.0626 156.752 66.8794 156.758 66.8227C156.776 66.752 156.334 66.6183 152.978 65.8214L153.317 64.4874L157.095 65.2639L156.853 64.9102C156.723 64.7227 156.441 64.4595 156.242 64.3395C156.013 64.2044 155.439 63.9907 153.576 63.4672L153.975 61.8977L155.472 62.1886C156.297 62.3514 157.991 62.7369 159.248 63.0395Z" fill="#00A6CA"/>
<path fill-rule="evenodd" clip-rule="evenodd" d="M134.245 99.0656C132.978 99.2571 132.252 99.5725 130.179 100.831C128.395 101.915 127.509 102.324 125.839 102.835C125.136 103.05 124.402 103.31 124.209 103.412C123.655 103.707 122.903 104.447 122.583 105.013C122.135 105.805 122 106.411 122 107.624V108.659H122.787H123.573L123.612 107.666C123.656 106.565 123.752 106.188 124.14 105.595C124.574 104.933 124.995 104.684 126.388 104.271C128.006 103.79 129.357 103.166 131.138 102.075C132.78 101.07 133.27 100.835 134.15 100.631C134.69 100.505 134.921 100.49 135.839 100.523C137.453 100.581 138.451 100.895 139.857 101.787C140.254 102.04 140.896 102.446 141.281 102.69C142.131 103.229 143.007 103.637 143.749 103.842C144.884 104.155 145.459 104.994 145.169 105.912C144.966 106.555 144.243 107.125 143.632 107.125C143.419 107.125 143.369 107.082 143.149 106.701C142.877 106.232 142.467 105.885 141.901 105.646C141.596 105.516 141.396 105.487 140.807 105.487C140.132 105.487 140.057 105.502 139.612 105.724C139.042 106.008 138.66 106.379 138.393 106.908C138.227 107.234 138.194 107.399 138.195 107.892C138.196 108.669 138.445 109.205 139.037 109.702C139.617 110.19 140.132 110.354 140.959 110.315C141.975 110.268 142.782 109.815 143.191 109.061L143.388 108.697L143.961 108.608C144.708 108.492 145.262 108.245 145.801 107.787C146.584 107.119 146.917 106.328 146.857 105.272C146.811 104.474 146.543 103.895 145.95 103.319C145.447 102.831 145.103 102.644 144.209 102.379C143.335 102.119 142.939 101.918 141.662 101.08C139.798 99.8576 138.879 99.4348 137.508 99.1695C136.612 98.996 135.037 98.9459 134.245 99.0656ZM127.254 105.549C126.469 105.785 125.915 106.235 125.576 106.913C125.416 107.232 125.382 107.405 125.381 107.899C125.38 108.434 125.406 108.546 125.626 108.957C126.103 109.848 126.949 110.332 128.029 110.332C129.063 110.332 129.924 109.862 130.388 109.045L130.607 108.659L133.565 108.659L136.523 108.659V107.892V107.125H133.561H130.6L130.441 106.829C130.002 106.011 129.165 105.515 128.157 105.476C127.801 105.462 127.449 105.491 127.254 105.549ZM128.591 107.122C129.018 107.332 129.175 107.951 128.904 108.359C128.486 108.99 127.626 109.004 127.177 108.387C126.573 107.555 127.601 106.635 128.591 107.122ZM141.368 107.116C141.683 107.28 141.886 107.656 141.841 107.991C141.794 108.337 141.594 108.589 141.235 108.753C140.864 108.923 140.499 108.86 140.149 108.565C139.579 108.084 139.808 107.189 140.553 106.99C140.81 106.921 141.068 106.961 141.368 107.116Z" fill="#00A6CA"/>
<path fill-rule="evenodd" clip-rule="evenodd" d="M41.4468 26.361C41.1373 26.6037 40.8127 27.1515 40.7551 27.5282C40.6653 28.1158 40.7442 28.3264 41.6474 29.9118L42.4871 31.3856L49.6722 27.7869L56.8574 24.1883L58.4566 26.9425C60.2351 30.0055 60.0913 29.833 60.4503 29.3326C60.6528 29.0502 60.7943 28.5426 60.7911 28.1101C60.7893 27.858 60.6153 27.5277 58.7063 24.152C56.8402 20.852 56.5946 20.4448 56.3454 20.2377C55.9702 19.9256 55.483 19.7577 54.9424 19.7543L54.4936 19.7513L48.0794 22.9705C44.5516 24.741 41.567 26.2668 41.4468 26.361ZM55.1491 21.4281C55.3405 21.4855 55.4029 21.5639 55.6946 22.1126L56.024 22.7322L49.5814 25.9784L43.1388 29.2247L42.7702 28.6248C42.1742 27.6546 41.4508 28.1566 48.7291 24.4893C54.8798 21.3901 54.935 21.3638 55.1491 21.4281ZM44.1461 34.2811C44.8558 35.5179 44.9642 35.6762 45.2428 35.8816C45.6579 36.1876 46.1526 36.3397 46.6735 36.3215L47.104 36.3064L52.8141 33.4301L58.5243 30.5538L58.1265 29.8589L57.7288 29.1639L52.2035 31.948L46.6781 34.732L46.4178 34.6539C46.1606 34.5767 46.1491 34.5612 45.4739 33.3814L44.7903 32.1871L44.0745 32.5478L43.3586 32.9085L44.1461 34.2811Z" fill="#00A6CA"/>
<path fill-rule="evenodd" clip-rule="evenodd" d="M29.1873 53.2925C29.4767 53.2326 30.0464 53.2049 30.4517 53.2232C30.8586 53.2494 31.4415 53.3347 31.7608 53.426C32.0713 53.5189 32.6151 53.776 32.9804 54.0074C33.3368 54.2404 33.7968 54.6279 34.0105 54.8781C34.2139 55.1219 34.4871 55.5345 34.6111 55.7925C34.7367 56.0584 34.8927 56.5249 34.9524 56.8274C35.0122 57.1298 35.0463 57.6263 35.0235 57.927C35.0096 58.2261 34.9036 58.7065 34.8056 58.9959C34.6987 59.2869 34.4075 59.8004 34.1467 60.1436C33.8858 60.4868 33.4595 60.9173 33.1968 61.1125C32.9325 61.2998 32.507 61.5488 32.2566 61.6677C32.0061 61.7866 31.4398 61.9702 31.0124 62.0713C30.585 62.1723 30.0011 62.359 29.7227 62.4747C29.4442 62.5904 28.985 62.8537 28.6974 63.0616C28.4082 63.2616 28.0046 63.622 27.8043 63.8556C27.5951 64.0907 27.296 64.5644 27.1265 64.9078C26.9658 65.2496 26.7785 65.8268 26.7211 66.1832C26.6579 66.557 26.6492 67.16 26.7651 68.3011L24.7809 68.6556L24.6944 68.2179C24.6473 67.9791 24.597 67.4937 24.5824 67.142C24.5604 66.7998 24.5987 66.208 24.6619 65.8342C24.725 65.4604 24.9204 64.8322 25.0894 64.4395C25.2583 64.0467 25.6421 63.4014 25.948 63.0089C26.254 62.6164 26.7133 62.1224 27.4574 61.5445L27.0235 61.243C26.7902 61.0787 26.4253 60.7566 26.2147 60.5224C26.0145 60.2944 25.7356 59.8993 25.6132 59.6493C25.4819 59.4008 25.3243 58.9264 25.2599 58.6001C25.1954 58.2737 25.1612 57.7772 25.1799 57.502C25.2074 57.2252 25.3046 56.7464 25.3979 56.4331C25.5155 56.0578 25.7518 55.6365 26.0852 55.198C26.4201 54.7673 26.7852 54.3973 27.1242 54.1719C27.4133 53.9719 27.8742 53.7166 28.1526 53.6009C28.4311 53.4853 28.8963 53.3445 29.1873 53.2925ZM28.4149 55.6222C28.2133 55.7571 27.9165 56.0573 27.7442 56.2941C27.5806 56.5293 27.3878 56.8933 27.3181 57.0953C27.2144 57.4022 27.208 57.6011 27.3165 58.1503C27.4171 58.6596 27.5115 58.9064 27.706 59.1518C27.8423 59.3335 28.1433 59.6093 28.3854 59.772C28.6603 59.9619 29.0275 60.1105 29.4189 60.1971C29.9136 60.2983 30.1419 60.2987 30.643 60.2009C31.1177 60.1079 31.3728 60.0129 31.7366 59.7749C32.0097 59.586 32.333 59.2811 32.4949 59.0379C32.6584 58.8027 32.8337 58.4418 32.8914 58.2255C32.979 57.9297 32.9728 57.6672 32.8722 57.1578C32.759 56.5848 32.6907 56.4239 32.4307 56.1243C32.2544 55.9251 31.8886 55.6444 31.6216 55.4943C31.3442 55.3379 30.9474 55.1781 30.7377 55.1331C30.5295 55.0962 30.1154 55.0795 29.8212 55.1156C29.5255 55.1437 29.1743 55.2147 29.0323 55.2812C28.8886 55.3398 28.6181 55.4953 28.4149 55.6222ZM35.7405 61.0948C35.7934 61.0854 36.0053 61.1876 36.222 61.3137C36.4313 61.4493 36.8554 61.7938 37.1756 62.0744C37.487 62.3566 37.9114 62.8411 38.1081 63.1438C38.3136 63.4449 38.5771 63.9004 38.6907 64.152C38.8314 64.4483 39.0169 65.1567 39.2228 66.1993C39.5074 67.6398 39.5259 67.826 39.4228 68.1823C39.3651 68.3986 39.2043 68.7404 39.0625 68.947C38.9208 69.1536 38.6312 69.4443 38.0312 69.8728L27.3607 71.779L26.8893 71.6572C26.638 71.5867 26.2573 71.4158 26.0463 71.2722C25.8354 71.1286 25.5671 70.8799 25.4532 70.719C25.3304 70.5597 25.2445 70.402 25.2631 70.3574C25.2744 70.3225 27.9329 69.8228 31.1694 69.2447C36.8854 68.2318 37.069 68.1908 37.2508 68.0017C37.4414 67.8111 37.4414 67.8111 37.159 66.4279C36.9044 65.1386 36.8616 65.0144 36.5144 64.4584C36.313 64.1318 35.9286 63.6649 35.6604 63.4162C35.4009 63.1659 35.0143 62.8725 34.8096 62.7607C34.6065 62.6569 34.4356 62.5309 34.4261 62.4832C34.4167 62.4354 34.6259 62.2003 34.8968 61.9541C35.1589 61.7096 35.4396 61.4205 35.509 61.3092C35.5799 61.2059 35.6876 61.1043 35.7405 61.0948Z" fill="#00A6CA"/>
<path fill-rule="evenodd" clip-rule="evenodd" d="M50.4883 99.9378C49.6304 100.258 48.7245 100.961 48.2899 101.643C47.7155 102.545 47.5076 103.422 47.6204 104.469C47.7392 105.571 48.2345 106.546 49.0314 107.247C49.2599 107.448 49.4344 107.625 49.4191 107.64C49.4036 107.655 49.1474 107.818 48.8496 108.002C47.2091 109.016 45.9923 110.796 45.589 112.772C45.4565 113.421 45.4552 113.628 45.5741 115.058C45.7021 116.596 45.7101 116.638 45.9468 117.025C46.4853 117.906 47.1403 118.238 48.2673 118.202C48.9727 118.179 48.9866 118.175 49.0119 117.989C49.0482 117.721 49.1487 116.547 49.1412 116.477C49.1378 116.445 48.8473 116.444 48.4956 116.474C47.5529 116.557 47.4735 116.489 47.3306 115.485C47.0384 113.431 47.4588 111.832 48.6431 110.491C49.148 109.919 49.911 109.272 50.0193 109.323C50.0519 109.338 50.1197 109.554 50.17 109.802C50.2776 110.334 50.552 110.772 51.0374 111.189L51.3892 111.491L51.1192 114.707C50.9708 116.476 50.863 118.052 50.8796 118.209C50.9076 118.472 51.0095 118.572 52.2306 119.538C53.5342 120.569 53.556 120.582 53.9101 120.551C54.2642 120.52 54.2828 120.504 55.3453 119.266C56.3708 118.072 56.4202 117.998 56.3883 117.705C56.3699 117.535 55.9341 116.005 55.4199 114.303L54.485 111.21L54.7726 110.846C55.1544 110.362 55.3764 109.734 55.3285 109.275C55.3077 109.074 55.319 108.89 55.3537 108.865C55.4586 108.788 56.3164 109.269 56.9612 109.765C58.4062 110.877 59.1558 112.374 59.3016 114.441C59.3728 115.451 59.3091 115.531 58.3664 115.613C58.0147 115.644 57.7284 115.683 57.7302 115.7C57.735 115.745 58.1091 116.982 58.1809 117.189C58.2426 117.368 58.2567 117.369 58.9543 117.27C60.0692 117.11 60.6414 116.672 60.9852 115.711C61.137 115.288 61.1361 115.25 60.9351 113.716C60.75 112.303 60.702 112.087 60.4383 111.477C59.6324 109.612 58.0594 108.07 56.2344 107.358C55.9032 107.229 55.6174 107.113 55.5991 107.101C55.5809 107.089 55.7091 106.893 55.8841 106.665C56.5594 105.787 56.8182 104.81 56.6915 103.619C56.4971 101.79 55.1489 100.273 53.3002 99.805C52.6775 99.6473 51.0624 99.7236 50.4883 99.9378ZM52.5244 101.384C53.4634 101.493 54.4258 102.246 54.808 103.171C55.5208 104.897 53.9473 106.929 52.034 106.754C50.618 106.624 49.5128 105.63 49.3723 104.358C49.2795 103.519 49.4319 103.044 50.0105 102.369C50.4158 101.896 50.5755 101.772 50.9998 101.601C51.5821 101.366 51.9344 101.316 52.5244 101.384ZM53.2736 108.422L53.5407 108.449L53.5663 108.994C53.5898 109.491 53.5713 109.56 53.3543 109.785C53.1816 109.964 53.0332 110.039 52.8117 110.058C52.2336 110.109 51.8601 109.731 51.7845 109.02C51.7442 108.64 51.7586 108.589 51.9181 108.545C52.2133 108.463 52.9883 108.392 53.2736 108.422ZM54.1212 117.983L53.691 118.49L53.1649 118.066L52.6387 117.643L52.8348 115.312C52.9427 114.03 53.0466 112.926 53.0657 112.86C53.0849 112.794 53.427 113.805 53.826 115.107L54.5514 117.476L54.1212 117.983Z" fill="#00A6CA"/>
</g>
</g>
<g filter="url(#filter0_d_2371_3493)">
<path d="M87.4984 28.5693C89.3242 25.5719 93.6758 25.5719 95.5016 28.5693L97.0834 31.166C98.385 33.3029 101.136 34.04 103.332 32.8402L106 31.3823C109.08 29.6994 112.848 31.8752 112.931 35.3839L113.002 38.4236C113.061 40.925 115.075 42.9389 117.576 42.9977L120.616 43.0692C124.125 43.1517 126.301 46.9202 124.618 50.0001L123.16 52.6683C121.96 54.864 122.697 57.615 124.834 58.9166L127.431 60.4984C130.428 62.3242 130.428 66.6758 127.431 68.5016L124.834 70.0834C122.697 71.385 121.96 74.136 123.16 76.3317L124.618 78.9999C126.301 82.0797 124.125 85.8483 120.616 85.9308L117.576 86.0023C115.075 86.0611 113.061 88.075 113.002 90.5764L112.931 93.6161C112.848 97.1248 109.08 99.3006 106 97.6177L103.332 96.1598C101.136 94.96 98.385 95.6971 97.0834 97.834L95.5016 100.431C93.6758 103.428 89.3242 103.428 87.4984 100.431L85.9166 97.834C84.615 95.6971 81.864 94.96 79.6683 96.1598L77.0001 97.6177C73.9203 99.3006 70.1517 97.1248 70.0692 93.6161L69.9977 90.5764C69.9389 88.075 67.925 86.0611 65.4236 86.0023L62.3839 85.9308C58.8752 85.8483 56.6994 82.0798 58.3823 78.9999L59.8402 76.3317C61.04 74.136 60.3029 71.385 58.166 70.0834L55.5693 68.5016C52.5719 66.6758 52.5719 62.3242 55.5693 60.4984L58.166 58.9166C60.3029 57.615 61.04 54.864 59.8402 52.6683L58.3823 50.0001C56.6994 46.9202 58.8752 43.1517 62.3839 43.0692L65.4236 42.9977C67.925 42.9389 69.9389 40.925 69.9977 38.4236L70.0692 35.3839C70.1517 31.8752 73.9202 29.6994 77.0001 31.3823L79.6683 32.8402C81.864 34.04 84.615 33.3029 85.9166 31.166L87.4984 28.5693Z" fill="#FCD800"/>
<path d="M88.3524 29.0895C89.7886 26.7318 93.2114 26.7318 94.6476 29.0895L96.2293 31.6862C97.8088 34.2792 101.147 35.1736 103.811 33.7178L106.479 32.2598C108.902 30.9361 111.866 32.6475 111.931 35.4074L112.003 38.4471C112.074 41.4824 114.518 43.926 117.553 43.9974L120.593 44.0689C123.352 44.1338 125.064 47.0981 123.74 49.5206L122.282 52.1888C120.826 54.8532 121.721 58.1912 124.314 59.7707L126.911 61.3524C129.268 62.7886 129.268 66.2114 126.911 67.6476L124.314 69.2293C121.721 70.8088 120.826 74.1468 122.282 76.8112L123.74 79.4794C125.064 81.9019 123.352 84.8662 120.593 84.9311L117.553 85.0026C114.518 85.074 112.074 87.5176 112.003 90.5529L111.931 93.5926C111.866 96.3525 108.902 98.0639 106.479 96.7402L103.811 95.2822C101.147 93.8264 97.8088 94.7208 96.2293 97.3138L94.6476 99.9105C93.2114 102.268 89.7886 102.268 88.3524 99.9105L86.7707 97.3138C85.1912 94.7208 81.8532 93.8264 79.1888 95.2822L76.5206 96.7402C74.0981 98.0639 71.1338 96.3525 71.0689 93.5926L70.9974 90.5529C70.926 87.5176 68.4824 85.074 65.4471 85.0026L62.4074 84.9311C59.6475 84.8662 57.9361 81.9019 59.2598 79.4794L60.7178 76.8112C62.1736 74.1468 61.2792 70.8088 58.6862 69.2293L56.0895 67.6476C53.7318 66.2114 53.7318 62.7886 56.0895 61.3524L58.6862 59.7707C61.2792 58.1912 62.1736 54.8532 60.7178 52.1888L59.2598 49.5206C57.9361 47.0981 59.6475 44.1338 62.4074 44.0689L65.4471 43.9974C68.4824 43.926 70.926 41.4824 70.9974 38.4471L71.0689 35.4074C71.1338 32.6475 74.0981 30.9361 76.5206 32.2598L79.1888 33.7178C81.8532 35.1736 85.1912 34.2792 86.7707 31.6862L88.3524 29.0895Z" stroke="#00A6CA" stroke-width="2"/>
</g>
<path fill-rule="evenodd" clip-rule="evenodd" d="M97.8943 48.439C98.3754 48.4333 98.415 48.439 98.6301 48.5975C98.7546 48.6824 98.9583 48.8635 99.0829 48.9937C99.3092 49.2314 99.3092 49.237 99.3489 49.7804C99.3715 50.0803 99.3885 55.9099 99.3998 75.1193L99.0715 75.4702C98.7885 75.7702 98.6923 75.8324 98.4037 75.9116C98.1886 75.9739 97.9905 75.9965 97.866 75.9682C97.7585 75.9456 97.068 75.6966 96.3379 75.4023C95.6077 75.1136 93.8985 74.4175 92.5458 73.8571C91.1931 73.2968 88.8726 72.3403 87.3954 71.7291C85.9182 71.1178 84.6221 70.5801 84.3391 70.4499V78.6H86.9426L86.9313 76.0588C86.92 74.4175 86.9369 73.4893 86.9709 73.4496C87.0105 73.41 87.418 73.5515 88.3009 73.9081C89.0028 74.1911 89.6197 74.4458 89.6763 74.4741C89.7668 74.5193 89.7725 74.6948 89.7725 76.9021C89.7725 79.1264 89.7668 79.2962 89.6593 79.5792C89.597 79.7377 89.4386 80.0376 89.3027 80.2414C89.099 80.5527 88.9575 80.6772 87.7633 81.4865L83.5184 81.4809L83.0713 81.2149C82.8279 81.0677 82.511 80.847 82.3695 80.7225C82.2336 80.598 82.0073 80.3206 81.8714 80.0999C81.7356 79.8848 81.5997 79.5792 81.5715 79.4207C81.5375 79.2622 81.4866 77.1059 81.4526 74.4967C81.4186 71.9441 81.3734 69.7142 81.3111 69.2331L80.4338 69.1935C79.9527 69.1708 78.883 69.1312 78.0567 69.1029C76.6474 69.052 76.5286 69.0407 76.1041 68.8992C75.8551 68.8143 75.5098 68.6615 75.34 68.5652C75.1702 68.469 74.8872 68.2709 74.7174 68.1294C74.5476 67.9823 74.2816 67.7049 74.1288 67.5012C73.9817 67.3031 73.7892 67.0145 73.71 66.856C73.6364 66.7032 73.5232 66.4315 73.461 66.2617C73.4044 66.0919 73.3308 65.7863 73.2968 65.5825C73.2629 65.3675 73.2402 64.0827 73.2402 62.4413C73.2402 60.9189 73.2685 59.3624 73.2968 58.9889C73.3534 58.3436 73.3647 58.2814 73.6308 57.7437C73.8572 57.2909 74.01 57.0759 74.3835 56.674C74.7118 56.3288 74.9948 56.0911 75.2834 55.9269C75.5155 55.7854 75.8494 55.6213 76.0192 55.559C76.189 55.4968 76.5229 55.4232 76.755 55.3949C76.987 55.3666 78.1473 55.3157 81.4809 55.2251L86.5181 53.114C89.2914 51.9481 92.6533 50.5331 93.989 49.9672C95.3247 49.4012 96.6378 48.8295 96.9038 48.6937C97.3566 48.4673 97.4189 48.4503 97.8943 48.439ZM87.2539 55.9326L82.1035 58.1003C80.2188 58.1569 79.0302 58.1965 78.2548 58.2305C76.9531 58.2814 76.8229 58.2984 76.6474 58.4116C76.5399 58.4795 76.4097 58.604 76.3475 58.6946C76.2739 58.8021 76.2286 59.0398 76.1833 59.5152C76.1494 59.8775 76.1211 61.1339 76.1211 62.2998C76.1211 63.5337 76.1437 64.6713 76.1833 65.0165C76.2456 65.5882 76.2569 65.6165 76.4607 65.8316C76.5739 65.9504 76.7606 66.0862 76.8682 66.1372C77.0323 66.2051 77.4738 66.2277 79.4717 66.2504L81.8771 66.273C91.527 70.2915 94.7984 71.6498 95.3757 71.8819L96.4227 72.312C96.4907 69.3972 96.502 64.9373 96.485 60.517C96.4737 56.0967 96.4454 52.3952 96.4284 52.299C96.4114 52.1971 96.3775 52.1122 96.3548 52.1179C96.3322 52.1179 95.4323 52.4914 94.3569 52.9442C93.2816 53.3913 90.0894 54.7384 87.2539 55.9326ZM109.412 48.4333L109.786 48.7899C109.995 48.9823 110.21 49.2427 110.267 49.3672C110.329 49.4974 110.374 49.7238 110.374 49.9049C110.374 50.1143 110.329 50.3011 110.244 50.4709C110.176 50.6124 110.001 50.8161 109.836 50.9406C109.678 51.0595 108.393 51.7387 106.978 52.4461C105.563 53.1593 104.25 53.7932 104.063 53.8668C103.843 53.9516 103.605 53.9969 103.384 53.9913C103.198 53.9913 102.977 53.963 102.886 53.929C102.801 53.8951 102.643 53.7819 102.53 53.6856C102.416 53.5838 102.269 53.397 102.207 53.2725C102.145 53.148 102.083 52.8933 102.066 52.7065C102.049 52.5197 102.066 52.2763 102.1 52.1688C102.133 52.0556 102.275 51.8632 102.439 51.716C102.592 51.5745 102.92 51.3481 103.164 51.2123C103.407 51.0765 104.488 50.5162 105.563 49.9672C106.639 49.4238 107.782 48.8522 108.11 48.705C108.608 48.4786 108.761 48.439 109.412 48.4333ZM104.516 60.8283L107.629 60.8396C109.967 60.8509 110.782 60.8736 110.9 60.9302C110.985 60.9641 111.172 61.1056 111.319 61.2415C111.461 61.3716 111.625 61.581 111.682 61.7056C111.744 61.8414 111.789 62.0678 111.789 62.2715C111.789 62.5602 111.766 62.6508 111.608 62.8885C111.506 63.0413 111.308 63.2563 111.167 63.3582C111.014 63.4714 110.81 63.562 110.657 63.5903C110.516 63.6129 109.157 63.6299 107.629 63.6242C106.101 63.6242 104.703 63.6016 104.516 63.579C104.205 63.5393 104.148 63.5054 103.888 63.2394C103.667 63.0243 103.571 62.8715 103.503 62.6394C103.452 62.4696 103.413 62.2319 103.413 62.1187C103.413 61.9999 103.447 61.8188 103.486 61.7225C103.531 61.6207 103.65 61.4339 103.758 61.315C103.865 61.1905 104.075 61.0321 104.233 60.9585L104.516 60.8283ZM103.554 70.4386C103.645 70.4556 103.928 70.5462 104.177 70.6424C104.426 70.7386 105.394 71.197 106.327 71.6611C107.261 72.1196 108.41 72.7082 108.874 72.9629C109.338 73.2119 109.819 73.5119 109.944 73.6194C110.063 73.7326 110.21 73.9251 110.278 74.0496C110.368 74.225 110.385 74.3495 110.363 74.6439C110.346 74.8589 110.284 75.108 110.21 75.2495C110.142 75.3853 109.989 75.5607 109.848 75.657C109.718 75.7475 109.497 75.8607 109.355 75.9116C109.214 75.9626 109.044 76.0022 108.971 76.0022C108.903 76.0022 108.676 75.9343 108.461 75.8494C108.252 75.7702 107.471 75.4136 106.724 75.057C105.976 74.7005 104.805 74.1175 104.12 73.7553C103.435 73.3987 102.762 73.0195 102.62 72.9176C102.456 72.7988 102.309 72.6233 102.207 72.4309C102.105 72.2271 102.054 72.0347 102.054 71.8706C102.054 71.7291 102.094 71.497 102.139 71.3612C102.19 71.2197 102.298 71.0329 102.383 70.9424C102.467 70.8518 102.615 70.7273 102.705 70.6594C102.796 70.5971 102.988 70.5122 103.13 70.4726C103.271 70.4386 103.464 70.4216 103.554 70.4386Z" fill="#006685"/>
<defs>
<filter id="filter0_d_2371_3493" x="41.3203" y="18.3213" width="100.359" height="100.357" filterUnits="userSpaceOnUse" color-interpolation-filters="sRGB">
<feFlood flood-opacity="0" result="BackgroundImageFix"/>
<feColorMatrix in="SourceAlpha" type="matrix" values="0 0 0 0 0 0 0 0 0 0 0 0 0 0 0 0 0 0 127 0" result="hardAlpha"/>
<feOffset dy="4"/>
<feGaussianBlur stdDeviation="6"/>
<feComposite in2="hardAlpha" operator="out"/>
<feColorMatrix type="matrix" values="0 0 0 0 0 0 0 0 0 0 0 0 0 0 0 0 0 0 0.1 0"/>
<feBlend mode="normal" in2="BackgroundImageFix" result="effect1_dropShadow_2371_3493"/>
<feBlend mode="normal" in="SourceGraphic" in2="effect1_dropShadow_2371_3493" result="shape"/>
</filter>
<clipPath id="clip0_2371_3493">
<rect width="183" height="131" fill="white"/>
</clipPath>
</defs>
</svg>
