<svg width="19" height="11" viewBox="0 0 19 11" fill="none" xmlns="http://www.w3.org/2000/svg">
<path d="M18.6245 0.381062C18.3742 0.127021 18.0778 0 17.7353 0C17.3936 0 17.0975 0.127021 16.8472 0.381062L9.51252 7.82448L2.15283 0.355658C1.91919 0.118553 1.62714 0 1.27668 0C0.926219 0 0.625823 0.127021 0.375494 0.381062C0.125165 0.635104 0 0.935889 0 1.28342C0 1.63027 0.125165 1.93072 0.375494 2.18476L8.81159 10.7206C8.91173 10.8222 9.0202 10.8943 9.13702 10.937C9.25384 10.979 9.37901 11 9.51252 11C9.64603 11 9.77119 10.979 9.88801 10.937C10.0048 10.8943 10.1133 10.8222 10.2134 10.7206L18.6495 2.15935C18.8832 1.92225 19 1.63027 19 1.28342C19 0.935889 18.8748 0.635104 18.6245 0.381062Z" fill="#707070"/>
</svg>
