<svg width="213" height="131" viewBox="0 0 213 131" fill="none" xmlns="http://www.w3.org/2000/svg">
<g clip-path="url(#clip0_1798_2268)">
<g opacity="0.2">
<path fill-rule="evenodd" clip-rule="evenodd" d="M17.6038 28.0317C17.2607 28.3008 16.9009 28.908 16.8371 29.3255C16.7375 29.9768 16.8249 30.2103 17.8261 31.9677L18.7569 33.6015L26.7216 29.6123L34.6863 25.6232L36.4591 28.6763C38.4305 32.0716 38.2711 31.8804 38.669 31.3257C38.8935 31.0126 39.0504 30.45 39.0468 29.9706C39.0448 29.6912 38.8519 29.325 36.7358 25.583C34.6672 21.925 34.395 21.4737 34.1188 21.244C33.7029 20.8981 33.1628 20.712 32.5636 20.7082L32.0661 20.7049L24.956 24.2733C21.0454 26.236 17.737 27.9272 17.6038 28.0317ZM32.7927 22.5636C33.0048 22.6273 33.074 22.7142 33.3973 23.3223L33.7625 24.0092L26.6209 27.6076L19.4793 31.2061L19.0708 30.5411C18.41 29.4656 17.6082 30.0221 25.6761 25.9569C32.4941 22.5215 32.5554 22.4924 32.7927 22.5636ZM20.596 36.811C21.3826 38.1821 21.5028 38.3575 21.8117 38.5852C22.2717 38.9244 22.8201 39.093 23.3975 39.0729L23.8748 39.0561L30.2044 35.8678L36.534 32.6794L36.0931 31.9091L35.6522 31.1387L29.5275 34.2248L23.4026 37.3109L23.1141 37.2243C22.829 37.1388 22.8163 37.1216 22.0677 35.8138L21.31 34.4899L20.5165 34.8897L19.723 35.2895L20.596 36.811Z" fill="#00A6CA"/>
<path fill-rule="evenodd" clip-rule="evenodd" d="M39.5224 89.4588C38.5907 89.8066 37.607 90.5697 37.1351 91.3109C36.5113 92.2905 36.2856 93.2427 36.408 94.3789C36.537 95.5759 37.0749 96.6352 37.9402 97.3962C38.1884 97.6145 38.3779 97.8065 38.3612 97.8227C38.3445 97.8389 38.0662 98.0158 37.7428 98.2158C35.9614 99.3174 34.64 101.25 34.2021 103.395C34.0582 104.1 34.0568 104.326 34.1859 105.878C34.3249 107.548 34.3336 107.594 34.5906 108.014C35.1754 108.971 35.8866 109.331 37.1105 109.292C37.8765 109.267 37.8916 109.263 37.9191 109.061C37.9585 108.77 38.0676 107.495 38.0595 107.419C38.0558 107.384 37.7403 107.383 37.3584 107.416C36.3347 107.505 36.2485 107.432 36.0933 106.342C35.7761 104.111 36.2325 102.374 37.5186 100.918C38.0668 100.297 38.8954 99.5944 39.013 99.6502C39.0484 99.6671 39.1221 99.9013 39.1767 100.171C39.2936 100.748 39.5915 101.224 40.1186 101.676L40.5006 102.004L40.2074 105.497C40.0462 107.418 39.9292 109.129 39.9473 109.299C39.9777 109.585 40.0883 109.694 41.4143 110.743C42.8299 111.863 42.8536 111.877 43.2381 111.843C43.6227 111.81 43.6429 111.792 44.7966 110.448C45.9103 109.151 45.9638 109.071 45.9293 108.752C45.9093 108.568 45.4361 106.906 44.8777 105.059L43.8625 101.7L44.1748 101.304C44.5893 100.778 44.8304 100.097 44.7784 99.5981C44.7558 99.3803 44.7681 99.1798 44.8057 99.1525C44.9196 99.0698 45.8511 99.5916 46.5514 100.13C48.1205 101.337 48.9345 102.964 49.0928 105.208C49.1702 106.305 49.101 106.392 48.0773 106.481C47.6954 106.515 47.3845 106.557 47.3864 106.575C47.3917 106.624 47.7979 107.967 47.8759 108.193C47.9429 108.386 47.9582 108.388 48.7157 108.28C49.9264 108.107 50.5477 107.63 50.9211 106.588C51.086 106.127 51.0849 106.086 50.8667 104.42C50.6657 102.887 50.6136 102.652 50.3272 101.989C49.4521 99.9638 47.7439 98.2902 45.7621 97.5163C45.4025 97.3759 45.0921 97.2503 45.0722 97.2373C45.0524 97.2243 45.1917 97.0114 45.3817 96.7641C46.115 95.81 46.396 94.7499 46.2585 93.4563C46.0474 91.4697 44.5834 89.8233 42.5758 89.3146C41.8997 89.1434 40.1457 89.2262 39.5224 89.4588ZM41.7334 91.0292C42.7531 91.1473 43.7981 91.9653 44.2132 92.9701C44.9872 94.844 43.2785 97.0509 41.2009 96.8607C39.6632 96.7199 38.463 95.6396 38.3104 94.259C38.2097 93.3475 38.3752 92.8318 39.0035 92.0988C39.4436 91.5853 39.617 91.4507 40.0778 91.2646C40.7101 91.0094 41.0926 90.955 41.7334 91.0292ZM42.547 98.6716L42.837 98.7013L42.8648 99.2926C42.8903 99.8324 42.8702 99.9074 42.6346 100.152C42.4471 100.347 42.2859 100.428 42.0454 100.449C41.4176 100.504 41.012 100.094 40.9299 99.3214C40.8861 98.9089 40.9017 98.8531 41.0749 98.8051C41.3955 98.7162 42.2371 98.6398 42.547 98.6716ZM43.4674 109.054L43.0002 109.605L42.4289 109.145L41.8575 108.685L42.0705 106.153C42.1876 104.761 42.3004 103.563 42.3212 103.491C42.342 103.419 42.7135 104.517 43.1468 105.932L43.9345 108.503L43.4674 109.054Z" fill="#00A6CA"/>
<path fill-rule="evenodd" clip-rule="evenodd" d="M18.8268 54.9968C19.1422 54.9369 19.7612 54.9172 20.201 54.9443C20.6423 54.9801 21.2737 55.0833 21.6187 55.1881C21.9542 55.2945 22.54 55.5835 22.9324 55.8413C23.3152 56.1007 23.8076 56.5297 24.0352 56.8052C24.2516 57.0736 24.5408 57.5265 24.6708 57.8089C24.8024 58.0999 24.9634 58.6092 25.0228 58.9387C25.0822 59.2682 25.1104 59.8079 25.0802 60.1339C25.0597 60.4585 24.9359 60.9781 24.8243 61.2906C24.703 61.6046 24.3776 62.1569 24.0882 62.5248C23.7988 62.8928 23.3282 63.3525 23.0394 63.5597C22.7491 63.7583 22.2826 64.0211 22.0085 64.1457C21.7345 64.2702 21.1163 64.4593 20.6504 64.5614C20.1846 64.6634 19.5472 64.8556 19.2428 64.9762C18.9384 65.0968 18.435 65.3744 18.119 65.595C17.8014 65.8069 17.3567 66.191 17.135 66.441C16.9036 66.6925 16.5704 67.2014 16.3801 67.5712C16.1994 67.9394 15.9857 68.5628 15.9169 68.9487C15.8417 69.3534 15.8214 70.008 15.9266 71.2491L13.7658 71.5982L13.6798 71.1214C13.6329 70.8613 13.5871 70.3333 13.5775 69.9512C13.5599 69.5793 13.6121 68.9374 13.6874 68.5327C13.7627 68.1279 13.9862 67.4494 14.1767 67.026C14.3672 66.6027 14.7955 65.9089 15.1348 65.4883C15.474 65.0676 15.9817 64.5395 16.7999 63.9255L16.3343 63.5903C16.0839 63.4077 15.6935 63.0514 15.4691 62.7932C15.2558 62.5422 14.9601 62.1081 14.8317 61.8344C14.6937 61.5623 14.5311 61.0443 14.467 60.6889C14.4029 60.3334 14.3747 59.7937 14.4 59.4952C14.4348 59.1951 14.5489 58.677 14.6559 58.3385C14.7903 57.9331 15.0545 57.48 15.4244 57.0098C15.7958 56.5483 16.1989 56.1531 16.5709 55.9145C16.8885 55.7026 17.3935 55.4336 17.6979 55.3131C18.0023 55.1925 18.5099 55.048 18.8268 54.9968ZM17.9462 57.5124C17.7249 57.6553 17.3973 57.9759 17.2059 58.2299C17.0241 58.4823 16.8082 58.8741 16.7289 59.0921C16.6107 59.4235 16.6002 59.6393 16.7081 60.2375C16.8082 60.7924 16.9062 61.0621 17.113 61.332C17.2578 61.5317 17.5796 61.8366 17.8395 62.0176C18.1346 62.2287 18.5305 62.3967 18.954 62.4978C19.4893 62.6165 19.7372 62.6211 20.283 62.524C20.8 62.4315 21.0788 62.333 21.4781 62.0811C21.778 61.8809 22.1345 61.5557 22.3147 61.2946C22.4965 61.0421 22.6932 60.6535 22.7598 60.4196C22.8603 60.1 22.8583 59.8149 22.7582 59.26C22.6456 58.6358 22.5744 58.4599 22.2975 58.1299C22.1096 57.9104 21.7175 57.5991 21.4302 57.4313C21.1319 57.2565 20.704 57.0758 20.4771 57.0232C20.2517 56.9793 19.8024 56.9538 19.4823 56.9877C19.1607 57.0129 18.7782 57.0836 18.6227 57.1533C18.4657 57.2144 18.1691 57.3783 17.9462 57.5124ZM25.8016 63.5863C25.8592 63.577 26.0875 63.6918 26.3204 63.8326C26.5453 63.9837 26.9996 64.3653 27.3422 64.6758C27.6752 64.9878 28.1272 65.5215 28.3353 65.8537C28.5531 66.1843 28.8309 66.6837 28.9498 66.9589C29.0972 67.2831 29.2859 68.0556 29.4907 69.1913C29.7737 70.7605 29.7904 70.9631 29.6721 71.348C29.6055 71.5818 29.4248 71.9501 29.2672 72.1718C29.1095 72.3936 28.7899 72.704 28.1306 73.1585L16.5106 75.036L16.001 74.8952C15.7294 74.8142 15.3191 74.6217 15.0927 74.462C14.8662 74.3023 14.5794 74.0275 14.4586 73.8507C14.3282 73.6755 14.2377 73.5027 14.2587 73.4547C14.2717 73.4169 17.1672 72.9223 20.6916 72.3529C26.9161 71.3561 27.1162 71.3148 27.317 71.1129C27.5274 70.9094 27.5274 70.9094 27.2457 69.4024C26.9925 67.9979 26.9482 67.8623 26.5813 67.2524C26.3685 66.8942 25.9595 66.3803 25.6728 66.1054C25.3956 65.829 24.9811 65.5034 24.7609 65.3784C24.5423 65.262 24.3589 65.1221 24.3495 65.0701C24.3401 65.0181 24.5715 64.7665 24.8701 64.5042C25.1591 64.2433 25.4691 63.9345 25.5463 63.8149C25.6252 63.7041 25.744 63.5956 25.8016 63.5863Z" fill="#00A6CA"/>
<path fill-rule="evenodd" clip-rule="evenodd" d="M162.937 18.1931C162.641 18.2554 160.175 19.5958 155.647 22.1561L148.803 26.025L149.302 26.8848C149.577 27.3578 149.824 27.7509 149.851 27.7584C149.878 27.7659 150.524 27.4187 151.287 26.9868C152.05 26.555 152.695 26.2308 152.722 26.2666C152.748 26.3024 152.429 28.2131 152.012 30.5127L151.254 34.6938L151.394 35.1919C151.547 35.7378 151.953 36.2798 152.461 36.6149C152.763 36.8148 153.352 36.916 160.37 37.9756L167.953 39.1204L168.517 38.923C168.827 38.8143 169.231 38.599 169.415 38.4445C170.061 37.9 170.142 37.6536 170.719 34.4722L171.246 31.5683L170.405 30.6328L169.564 29.6974L168.867 33.2659C168.204 36.6628 168.16 36.8394 167.96 36.9379C167.79 37.0218 167.194 36.9574 164.793 36.5949L161.836 36.1484L162.206 34.1082L162.576 32.0679L161.52 31.9085L160.465 31.7491L160.094 33.7894L159.724 35.8296L156.658 35.3667C153.599 34.9048 153.592 34.9033 153.48 34.6751C153.382 34.4751 153.478 33.8435 154.248 29.6222L155.129 24.798L159.199 22.5065C161.437 21.2462 163.356 20.1973 163.463 20.1757C163.571 20.1541 163.748 20.1893 163.858 20.2541C163.967 20.3189 166.289 22.8534 169.017 25.8863C172.6 29.8701 174.013 31.3797 174.109 31.3253C174.182 31.2839 174.556 30.9863 174.94 30.6638L175.638 30.0776L173.225 27.4002L170.812 24.7228L171.29 22.0863L171.768 19.4498L170.763 19.2979L169.757 19.1461L169.402 20.953L169.048 22.7598L167.206 20.7197C165.932 19.3084 165.239 18.6157 164.958 18.4723C164.43 18.2028 163.502 18.0745 162.937 18.1931ZM161.314 27.0658L161.138 28.0396L162.193 28.199L163.249 28.3584L163.426 27.3846L163.603 26.4109L162.547 26.2515L161.491 26.0921L161.314 27.0658ZM156.056 32.1316L155.871 33.1517L156.927 33.3111L157.983 33.4705L158.168 32.4504L158.353 31.4303L157.297 31.2709L156.241 31.1115L156.056 32.1316ZM164.503 33.4069L164.318 34.427L165.326 34.5791L166.333 34.7313L166.518 33.7112L166.703 32.691L165.696 32.5389L164.688 32.3867L164.503 33.4069Z" fill="#00A6CA"/>
<path d="M182.906 55.8954C183.39 56.0236 183.735 56.1561 183.909 56.3039C184.055 56.4183 184.828 57.3694 187.088 60.3086L187.952 57.0166L189.975 57.4769L188.717 62.4641L190.709 65.0446C191.805 66.4659 192.687 67.6762 192.661 67.7424C192.644 67.8106 192.302 68.1025 191.895 68.3975C191.499 68.6859 191.145 68.9207 191.101 68.9108C191.066 68.9029 190.68 68.4273 190.243 67.8592C189.806 67.2911 189.429 66.8175 189.402 66.8116C189.376 66.8056 188.917 68.5401 187.4 74.5138L187.048 74.9204C186.843 75.1443 186.495 75.4256 186.265 75.5354C186.032 75.6536 185.629 75.7512 185.374 75.7744C185.067 75.7856 184.507 75.7032 182.51 75.2489L183.008 73.2889L184.124 73.5428C184.9 73.7194 185.283 73.7706 185.37 73.7183C185.47 73.651 185.778 72.5491 187.786 64.641L185.162 61.2493C183.275 58.8008 182.487 57.8372 182.33 57.8015C182.173 57.7658 181.019 58.2784 174.275 61.5212L173.141 66.0227C172.156 69.9 172.013 70.5346 172.098 70.6712C172.171 70.7867 172.415 70.8784 174.028 71.2454L173.53 73.2054L172.333 72.906C171.195 72.6291 171.128 72.6047 170.737 72.2544C170.521 72.052 170.261 71.7315 170.172 71.5398C170.073 71.3461 169.979 71.0633 169.946 70.9025C169.909 70.6867 170.121 69.7073 171.819 62.6931L170.526 63.3183C169.823 63.6541 169.217 63.931 169.174 63.9211C169.139 63.9131 168.936 63.5514 168.722 63.124C168.501 62.6862 168.337 62.2793 168.354 62.2111C168.363 62.1409 171.286 60.6879 174.839 58.9724C178.39 57.2654 181.427 55.8382 181.592 55.8038C181.756 55.7778 181.95 55.7408 182.026 55.7311C182.104 55.7129 182.499 55.7937 182.906 55.8954ZM182.971 61.8144C184.335 62.143 185.467 62.4455 185.502 62.4895C185.53 62.523 185.463 62.8593 185.16 63.908L183.996 63.6612C183.364 63.5354 182.832 63.4505 182.823 63.4845C182.813 63.5272 182.83 63.6033 182.872 63.6578C182.904 63.7103 182.953 63.9917 183.03 64.7756L184.813 65.2715L184.445 66.7202L182.691 66.366L182.345 66.8913C182.15 67.1894 181.837 67.5508 181.658 67.7085C181.48 67.8662 181.219 68.0592 181.079 68.1357C180.94 68.2121 180.553 68.3583 180.224 68.4548C179.893 68.5597 179.355 68.6446 179.021 68.6499C178.688 68.6552 178.363 68.6624 178.298 68.6656C178.233 68.6687 178.465 69.2083 178.862 69.9298C179.23 70.6263 179.859 71.8513 180.27 72.6659C180.672 73.4786 181.048 74.2493 181.097 74.3864C181.154 74.5616 181.145 74.6679 181.067 74.7582C180.954 74.8767 180.801 74.86 178.717 74.3859L178.47 73.906C178.346 73.6342 177.836 72.662 177.353 71.7318C176.87 70.8015 176.221 69.5811 175.327 67.9805L175.502 67.2542C175.619 66.7579 175.721 66.5017 175.815 66.4599C175.9 66.4161 176.429 66.4735 177.096 66.6073C177.968 66.7696 178.365 66.8058 178.765 66.7527C179.136 66.7108 179.434 66.5894 179.769 66.3592C180.026 66.1832 180.261 65.9843 180.267 65.9227C180.287 65.846 179.807 65.7008 176.163 64.8354L176.531 63.3867L180.633 64.23L180.371 63.8459C180.229 63.6423 179.923 63.3564 179.707 63.2262C179.459 63.0794 178.835 62.8474 176.812 62.2789L177.245 60.5746L178.871 60.8905C179.767 61.0673 181.606 61.4859 182.971 61.8144Z" fill="#00A6CA"/>
<path fill-rule="evenodd" clip-rule="evenodd" d="M166.297 92.9112C164.922 93.1191 164.133 93.4616 161.882 94.8288C159.945 96.0054 158.983 96.4496 157.169 97.0041C156.405 97.2379 155.608 97.5201 155.399 97.6315C154.797 97.9509 153.981 98.7548 153.633 99.3699C153.147 100.229 153 100.888 153 102.205V103.329H153.854H154.709L154.751 102.25C154.798 101.055 154.902 100.646 155.324 100.002C155.795 99.2823 156.253 99.0124 157.765 98.5633C159.522 98.0415 160.989 97.3638 162.923 96.1795C164.707 95.0879 165.239 94.8328 166.194 94.6106C166.78 94.4744 167.031 94.4584 168.028 94.4942C169.78 94.5571 170.864 94.898 172.391 95.8666C172.823 96.1406 173.519 96.5819 173.938 96.8473C174.861 97.4319 175.812 97.8757 176.618 98.0979C177.85 98.4376 178.475 99.3493 178.16 100.346C177.939 101.045 177.155 101.663 176.49 101.663C176.259 101.663 176.205 101.616 175.966 101.203C175.67 100.693 175.225 100.317 174.611 100.056C174.28 99.9162 174.062 99.8847 173.423 99.8847C172.69 99.8846 172.609 99.9007 172.125 100.142C171.506 100.45 171.092 100.853 170.801 101.427C170.622 101.781 170.586 101.96 170.586 102.496C170.587 103.34 170.858 103.922 171.501 104.462C172.131 104.991 172.69 105.169 173.588 105.127C174.692 105.076 175.568 104.584 176.012 103.765L176.226 103.37L176.848 103.274C177.659 103.148 178.261 102.879 178.845 102.382C179.697 101.657 180.058 100.798 179.993 99.6513C179.943 98.7839 179.652 98.156 179.008 97.5301C178.462 96.9997 178.088 96.7976 177.117 96.5093C176.168 96.2274 175.738 96.0082 174.351 95.0984C172.327 93.7713 171.329 93.3121 169.841 93.024C168.868 92.8356 167.157 92.7812 166.297 92.9112ZM158.706 99.9522C157.853 100.208 157.252 100.696 156.883 101.433C156.709 101.779 156.672 101.967 156.671 102.503C156.671 103.085 156.699 103.206 156.938 103.653C157.456 104.62 158.375 105.145 159.547 105.145C160.67 105.145 161.604 104.635 162.109 103.748L162.347 103.329L165.559 103.329L168.77 103.329V102.496V101.663H165.554H162.339L162.166 101.342C161.689 100.453 160.78 99.9147 159.686 99.8724C159.3 99.8575 158.918 99.8886 158.706 99.9522ZM160.158 101.66C160.621 101.888 160.791 102.56 160.498 103.003C160.043 103.688 159.109 103.704 158.622 103.034C157.966 102.131 159.083 101.131 160.158 101.66ZM174.032 101.654C174.374 101.831 174.595 102.239 174.546 102.603C174.495 102.98 174.278 103.253 173.888 103.431C173.484 103.615 173.088 103.547 172.709 103.227C172.089 102.705 172.338 101.732 173.147 101.516C173.426 101.441 173.707 101.485 174.032 101.654Z" fill="#00A6CA"/>
</g>
<circle opacity="0.21" cx="83.5" cy="65.5" r="129.5" fill="#FCD800"/>
</g>
<defs>
<clipPath id="clip0_1798_2268">
<rect width="213" height="131" fill="white"/>
</clipPath>
</defs>
</svg>
