<svg width="60" height="60" viewBox="0 0 60 60" fill="none" xmlns="http://www.w3.org/2000/svg">
<circle cx="30" cy="30" r="30" fill="white"/>
<path fill-rule="evenodd" clip-rule="evenodd" d="M27.7904 17.2952C27.581 17.3322 26.8956 17.4388 26.2673 17.5322C22.3633 18.1125 17.6206 20.7102 14.3989 24.0326L13.573 24.8842L14.1515 25.7756C14.4697 26.2657 14.8945 26.8896 15.0954 27.1617L15.4609 27.6565L16.6761 26.4409C20.9045 22.2109 26.3 20.0083 31.0482 20.5737C35.1808 21.0659 39.0147 23.0664 42.6821 26.6441C44.2457 28.1694 46.021 30.3163 47.1929 32.0989L47.9328 33.2243L48.5184 32.4065C49.8023 30.6136 49.8119 30.2971 48.6342 28.5706C46.8573 25.9661 43.9995 22.9801 41.6876 21.3125C39.2371 19.5449 36.0329 18.1064 33.3977 17.5906C32.1673 17.3498 28.5584 17.1597 27.7904 17.2952ZM27.4672 24.1766C24.3925 25.2349 22.5831 28.4332 23.2131 31.6964C23.8764 35.132 27.2183 37.4959 30.6096 36.9285C34.0697 36.3496 36.4444 33.2599 36.1206 29.7583C35.7296 25.5287 31.4877 22.7926 27.4672 24.1766ZM30.5905 27.2393C30.9678 27.3526 31.4967 27.708 31.9187 28.1324C33.1444 29.3648 33.2487 30.9589 32.1993 32.4216C31.0132 34.0751 28.2231 34.0751 27.0371 32.4216C25.9878 30.9591 26.092 29.3661 27.3176 28.1308C28.3124 27.1283 29.3122 26.8561 30.5905 27.2393ZM10.4695 28.7619C9.49193 30.2463 9.50122 30.6151 10.5543 32.1535C14.7103 38.2245 20.4017 42.2504 26.256 43.2611C28.103 43.5798 31.1367 43.5797 32.9762 43.2605C36.7748 42.6016 40.5323 40.6719 43.9222 37.6393C44.7106 36.9339 45.4228 36.247 45.5049 36.1129C45.6187 35.9269 45.4633 35.5802 44.8503 34.6517C44.4081 33.9822 43.9906 33.3722 43.9225 33.296C43.8532 33.2187 43.1281 33.8016 42.2769 34.6188C35.3237 41.2951 26.9828 42.1134 19.6715 36.8365C16.9615 34.8806 14.387 32.1555 12.3568 29.0947C11.8397 28.3151 11.3658 27.6749 11.3037 27.672C11.2416 27.6691 10.8661 28.1596 10.4695 28.7619Z" fill="#00A6CA"/>
</svg>
