<svg width="60" height="60" viewBox="0 0 60 60" fill="none" xmlns="http://www.w3.org/2000/svg">
<circle cx="30" cy="30" r="30" fill="white"/>
<path fill-rule="evenodd" clip-rule="evenodd" d="M22.8799 19.9798V21.6666H24.4695H26.0591V19.9798V18.2931H24.4695H22.8799V19.9798ZM29.541 19.9798V21.6666H31.1306H32.7202V19.9798V18.2931H31.1306H29.541V19.9798ZM22.8799 26.7269V28.4136H24.4695H26.0591V26.7269V25.0401H24.4695H22.8799V26.7269ZM22.8799 33.3972V35.0073H24.4695H26.0591V33.3972V31.7872H24.4695H22.8799V33.3972Z" fill="#00A6CA"/>
<path d="M24.4734 44.2439V45.7439H25.9734V44.2439H24.4734ZM38.9754 21.707V15.75H35.9754V21.707H38.9754ZM34.4754 11.25H20.25V14.25H34.4754V11.25ZM15.75 15.75V41.2438H18.75V15.75H15.75ZM20.25 45.7439H24.4734V42.7439H20.25V45.7439ZM25.9734 44.2439V38.4652H22.9734V44.2439H25.9734ZM15.75 41.2438C15.75 43.7291 17.7647 45.7439 20.25 45.7439V42.7439C19.4216 42.7439 18.75 42.0723 18.75 41.2438H15.75ZM20.25 11.25C17.7647 11.25 15.75 13.2647 15.75 15.75H18.75C18.75 14.9216 19.4216 14.25 20.25 14.25V11.25ZM38.9754 15.75C38.9754 13.2647 36.9607 11.25 34.4754 11.25V14.25C35.3038 14.25 35.9754 14.9216 35.9754 15.75H38.9754Z" fill="#00A6CA"/>
<path fill-rule="evenodd" clip-rule="evenodd" d="M37.1867 37.3964C40.3766 37.3964 42.9626 34.8996 42.9626 31.8197C42.9626 28.7397 40.3766 26.2429 37.1867 26.2429C33.9968 26.2429 31.4108 28.7397 31.4108 31.8197C31.4108 34.8996 33.9968 37.3964 37.1867 37.3964ZM37.1867 39.9098C41.8144 39.9098 45.5658 36.2877 45.5658 31.8197C45.5658 27.3516 41.8144 23.7295 37.1867 23.7295C32.5591 23.7295 28.8076 27.3516 28.8076 31.8197C28.8076 36.2877 32.5591 39.9098 37.1867 39.9098Z" fill="#00A6CA"/>
<path fill-rule="evenodd" clip-rule="evenodd" d="M43.8611 35.8647L48.4549 43.8739L44.2445 44.1079L42.1883 47.532L37.6702 39.8619L39.3437 38.9507L42.2044 43.8072L43.0977 42.3196L45.297 42.1973L42.177 36.7576L43.8611 35.8647ZM31.7237 36.9979L33.3812 37.9357L30.437 42.7458H32.2236L33.4222 44.4994L35.6992 40.7736L37.3574 41.7103L33.5135 48L31.1861 44.5949H27.0737L31.7237 36.9979Z" fill="#00A6CA"/>
</svg>
