<svg width="21" height="21" viewBox="0 0 21 21" fill="none" xmlns="http://www.w3.org/2000/svg">
<path d="M10.5 21C16.2991 21 21 16.2991 21 10.5C21 4.70091 16.2991 1.49638e-06 10.5 9.89409e-07C4.70091 4.82437e-07 -4.82437e-07 4.70091 -9.8941e-07 10.5C-1.49638e-06 16.2991 4.70091 21 10.5 21Z" fill="#D74025"/>
<path d="M10.4908 14C10.0813 14 9.73134 14.1495 9.43832 14.4461C9.14611 14.7435 9 15.0977 9 15.5104C9 15.9223 9.14932 16.274 9.44795 16.5647C9.74659 16.8555 10.1006 17 10.5092 17C10.9187 17 11.2695 16.8513 11.5617 16.5547C11.8531 16.2573 12 15.9023 12 15.4904C12 15.0785 11.8499 14.7268 11.5512 14.4353C11.2542 14.1445 10.9002 14 10.4908 14Z" fill="white"/>
<path d="M9 4L12 4L12 12L9 12L9 4Z" fill="white"/>
</svg>
