<svg width="18" height="16" viewBox="0 0 18 16" fill="none" xmlns="http://www.w3.org/2000/svg">
<path fill-rule="evenodd" clip-rule="evenodd" d="M16.0388 0.0232802C15.9631 0.0461497 15.59 0.407527 14.4434 1.56862L12.9468 3.08411L12.6644 2.98549C11.059 2.42474 9.62461 2.2069 8.25646 2.31605C6.44616 2.4605 4.80388 3.04027 3.30891 4.06271C2.40528 4.6807 1.47986 5.60294 0.829302 6.53379C0.460551 7.06142 0 7.89195 0 8.02931C0 8.08607 0.0755914 8.24891 0.215931 8.4945C0.71977 9.3762 1.16682 9.95889 1.88182 10.6658C2.46439 11.2418 2.99697 11.6575 3.65674 12.0512C3.8431 12.1624 4.00126 12.2581 4.00821 12.2639C4.01512 12.2697 3.40274 12.9035 2.64731 13.6724C1.2161 15.1291 1.15897 15.1965 1.15897 15.4291C1.15897 15.6389 1.32083 15.8692 1.53097 15.9584C1.66931 16.0171 1.79595 16.0138 1.93426 15.9478C2.07623 15.8801 16.8119 0.907585 16.8564 0.785863C16.8945 0.68153 16.8905 0.413668 16.8484 0.252405C16.7973 0.0567954 16.7135 0.00999475 16.3985 0.000927314C16.255 -0.00320468 16.0932 0.00686704 16.0388 0.0232802ZM9.70506 3.46561C10.3606 3.5215 11.0959 3.67146 11.8383 3.90067C12.0051 3.95218 12.1385 4.00368 12.1348 4.0151C12.131 4.02655 11.8559 4.31333 11.5235 4.65241L10.919 5.26894L10.8176 5.18853C10.5549 4.98044 10.1457 4.78443 9.74871 4.67657C9.50356 4.60997 9.42139 4.60182 8.99359 4.60176C8.48323 4.60168 8.29299 4.63037 7.87683 4.77011C7.38175 4.93637 7.00949 5.1751 6.60593 5.58523C6.10796 6.09123 5.84609 6.58176 5.6859 7.30853C5.61946 7.61006 5.61847 8.3896 5.68415 8.68587C5.76448 9.04811 5.87647 9.37117 6.02861 9.67961L6.17392 9.97422L5.43896 10.7211L4.704 11.4679L4.49098 11.3495C3.27237 10.6723 2.09967 9.53198 1.38764 8.33183L1.20811 8.02925L1.31496 7.84822C2.54331 5.76681 4.46624 4.30652 6.74841 3.72193C7.27563 3.5869 7.78244 3.50595 8.42885 3.45358C8.70597 3.43114 9.37449 3.43743 9.70506 3.46561ZM15.0014 4.65594C14.8216 4.74696 14.6678 4.91617 14.6279 5.06673C14.5767 5.26007 14.6421 5.39444 14.9008 5.62724C15.5617 6.22185 16.2555 7.0197 16.7024 7.69875L16.9191 8.02787L16.7351 8.32102C15.3634 10.5069 13.2738 11.9828 10.8573 12.4727C9.88931 12.6689 8.76343 12.6951 7.81482 12.5437C7.19544 12.4447 7.14255 12.4495 6.95901 12.6214C6.73091 12.8351 6.66 13.1845 6.80328 13.389C6.94435 13.5903 7.18838 13.6707 7.89234 13.7475C9.2778 13.8987 10.5853 13.7863 11.8971 13.4033C12.9186 13.1049 13.9707 12.5862 14.8813 11.9317C15.9224 11.1834 16.9524 10.0491 17.6329 8.90107C17.9345 8.39238 18.0015 8.23798 18 8.05519C17.9988 7.91275 17.9779 7.85912 17.7925 7.52374C17.1845 6.424 16.5691 5.66687 15.6336 4.86776C15.2529 4.54254 15.2363 4.53697 15.0014 4.65594ZM9.57246 5.80346C9.71811 5.84856 10.0301 5.9943 10.0963 6.04816C10.1279 6.07384 7.11982 9.16704 7.07981 9.15003C7.04315 9.13442 6.87096 8.76744 6.82158 8.59972C6.75457 8.37206 6.7337 7.95714 6.77586 7.69046C6.85134 7.2129 7.04832 6.81006 7.37963 6.45562C7.70882 6.10346 8.119 5.8702 8.58316 5.77115C8.82188 5.72024 9.36068 5.7378 9.57246 5.80346ZM11.5627 8.0659C11.43 8.12463 11.3045 8.28997 11.2705 8.45066C11.1095 9.21356 10.509 9.92644 9.79005 10.2082C9.66824 10.2559 9.50342 10.3076 9.42373 10.3229C9.1561 10.3745 9.02635 10.5756 9.02358 10.9431C9.022 11.1546 9.02869 11.1848 9.09242 11.2543C9.35893 11.545 9.80945 11.5269 10.4902 11.1982C11.3571 10.7795 12.0021 9.97513 12.2422 9.01344C12.3504 8.57998 12.3334 8.41516 12.1615 8.23043C11.992 8.04825 11.7516 7.98219 11.5627 8.0659Z" fill="black"/>
</svg>
