<svg width="42" height="42" viewBox="0 0 42 42" fill="none" xmlns="http://www.w3.org/2000/svg">
<path d="M38.7559 30.2047C41.0966 25.6895 41.6293 20.4521 40.2454 15.5581C38.8616 10.6641 35.6652 6.48112 31.3067 3.86019C26.9481 1.23927 21.7547 0.377277 16.7832 1.44959C11.8116 2.52191 7.4353 5.44798 4.54461 9.6325C1.65391 13.817 0.465981 18.9456 1.2225 23.975C1.97901 29.0043 4.62314 33.5565 8.61695 36.7054C12.6107 39.8544 17.6542 41.3635 22.7212 40.9258C27.7883 40.4881 32.4982 38.1364 35.8929 34.3493" stroke="#FCD800" stroke-width="2"/>
<line x1="21" y1="9" x2="21" y2="28" stroke="#FCD800" stroke-width="2"/>
<line x1="21" y1="32" x2="21" y2="30" stroke="#FCD800" stroke-width="2"/>
</svg>
