<svg width="40" height="40" viewBox="0 0 40 40" fill="none" xmlns="http://www.w3.org/2000/svg">
<path fill-rule="evenodd" clip-rule="evenodd" d="M18.5205 7.17969C16.524 7.67481 14.7021 9.53388 14.1725 11.6168C13.9632 12.4399 13.9538 14.0362 14.1538 14.8012C14.3745 15.6454 14.9173 16.6721 15.4847 17.3186L15.9867 17.8906L15.3776 18.2638C12.6948 19.9075 11.0068 22.9543 11.0014 26.1626L11 27.0454H12.2231H13.4463V26.1221C13.4463 24.3027 14.0932 22.7335 15.3904 21.4068C15.8319 20.9552 16.469 20.4473 16.8584 20.2365C17.7166 19.7719 19.053 19.4147 19.9411 19.4124C22.6312 19.4058 25.1781 17.4268 25.8567 14.8162C26.0651 14.0143 26.0532 12.3119 25.8338 11.5473C25.5264 10.4763 24.9293 9.45665 24.1752 8.71483C22.6873 7.25133 20.5606 6.67397 18.5205 7.17969ZM21.4783 9.81658C22.2253 10.1532 23.0297 10.9749 23.3594 11.7382C23.7136 12.5586 23.7441 13.3352 23.4597 14.2945C22.8618 16.3107 20.6767 17.4176 18.7511 16.6796C16.8235 15.9408 15.8391 13.6256 16.6521 11.7428C16.9515 11.0497 17.7125 10.2287 18.3739 9.88526C19.4376 9.33307 20.3599 9.31269 21.4783 9.81658ZM25.6782 19.6983C25.4812 19.913 24.313 20.7882 24.1524 20.8413C24.1392 20.8457 24.4172 21.1602 24.7702 21.5403C25.1233 21.9203 25.5927 22.584 25.8134 23.0153C26.4399 24.2393 26.5672 24.9254 26.5672 27.0777C26.5672 28.7576 26.5447 28.9849 26.3547 29.2253L26.1421 29.4942L18.6237 29.5512L11.1052 29.6081L11.3936 30.201C11.7265 30.8852 12.2743 31.4182 12.9958 31.7601C13.4921 31.9953 13.6274 32 20.0067 32H26.5116L27.1434 31.6822C27.8286 31.3376 28.3142 30.8427 28.7065 30.089C28.9343 29.6515 28.9603 29.4239 28.9945 27.5646C29.0508 24.5026 28.684 22.8813 27.5329 21.1049C26.9984 20.2801 26.2526 19.4141 26.0767 19.4141C26.0009 19.4141 25.8215 19.542 25.6782 19.6983Z" fill="#00A6CA"/>
<circle cx="20" cy="20" r="19" stroke="#00A6CA" stroke-width="2"/>
</svg>
