<svg width="20" height="12" viewBox="0 0 20 12" fill="none" xmlns="http://www.w3.org/2000/svg">
<path fill-rule="evenodd" clip-rule="evenodd" d="M9.11999 0.0219087C9.0341 0.0371197 8.71084 0.0922446 8.40163 0.144388C5.93199 0.560988 3.39264 2.14531 0.838352 4.86334C0.0595922 5.69204 0 5.77248 0 5.99468C0 6.19577 0.0514093 6.29136 0.322011 6.59326C2.66616 9.20902 4.78493 10.759 7.07905 11.5363C8.0978 11.8815 8.84283 12 9.99451 12C10.8315 12 11.1513 11.9738 11.6964 11.8607C14.2903 11.3223 16.6589 9.82421 19.1799 7.12748C20.2255 6.00892 20.2218 6.03593 19.4489 5.1787C16.9379 2.39362 14.3311 0.699165 11.7331 0.163311C11.1717 0.0475241 9.48935 -0.0434988 9.11999 0.0219087ZM11.526 1.35945C13.0245 1.68034 14.3534 2.34324 15.8974 3.53998C16.6538 4.12634 18.4274 5.85662 18.4274 6.00831C18.4274 6.15336 16.8714 7.72058 16.1246 8.32775C15.0176 9.2277 13.8358 9.93081 12.7742 10.3211C11.7792 10.6869 11.0016 10.8244 9.94129 10.8222C7.92352 10.8179 6.05367 10.078 3.93534 8.44567C3.13065 7.8256 1.43671 6.17289 1.43671 6.00788C1.43671 5.84896 3.17126 4.15725 3.9667 3.54028C6.5707 1.52062 9.00268 0.819029 11.526 1.35945ZM9.18245 2.4412C7.81258 2.76105 6.90333 3.55781 6.42934 4.85349C6.30747 5.18667 6.28467 5.36877 6.28467 6.00953C6.28467 6.65028 6.30747 6.83238 6.42934 7.16557C6.85167 8.32002 7.62244 9.07078 8.80766 9.48215C9.39677 9.68658 10.5922 9.68658 11.1814 9.48215C12.3666 9.07078 13.1373 8.32002 13.5597 7.16557C13.6815 6.83238 13.7043 6.65028 13.7043 6.00953C13.7043 5.36877 13.6815 5.18667 13.5597 4.85349C13.1363 3.69623 12.3499 2.93203 11.1814 2.54244C10.6749 2.3736 9.68637 2.32352 9.18245 2.4412ZM11.0246 3.80995C11.5528 4.05065 12.0062 4.49438 12.2624 5.02135C12.4432 5.39305 12.4619 5.48572 12.4619 6.00953C12.4619 6.53333 12.4432 6.626 12.2624 6.9977C12.0043 7.5285 11.554 7.96713 11.009 8.2186C10.6274 8.39468 10.5323 8.41287 9.99451 8.41287C9.45674 8.41287 9.36161 8.39468 8.98 8.2186C8.43505 7.96713 7.98474 7.5285 7.72657 6.9977C7.54579 6.626 7.52711 6.53333 7.52711 6.00953C7.52711 5.48572 7.54579 5.39305 7.72657 5.02135C8.05258 4.35103 8.71184 3.81135 9.41645 3.63794C9.85858 3.52909 10.5771 3.60594 11.0246 3.80995Z" fill="black"/>
</svg>
