<svg width="27" height="27" viewBox="0 0 27 27" fill="none" xmlns="http://www.w3.org/2000/svg">
<circle cx="13.5" cy="13.5" r="13.5" fill="#FBCA00"/>
<path d="M16.3028 27C22.42 25.6602 27 20.1952 27 13.6572C27 6.11451 20.9044 0 13.3851 0C11.4723 0 9.65165 0.39571 8 1.10991C8.93996 0.90403 9.91619 0.795564 10.9177 0.795564C18.437 0.795564 24.5326 6.91008 24.5326 14.4527C24.5326 20.0767 21.1438 24.9066 16.3028 27Z" fill="#EBBD00"/>
<path fill-rule="evenodd" clip-rule="evenodd" d="M9.24823 6.18148C7.89334 6.73377 7.1215 8.87599 8.08649 9.40577C8.68163 9.73251 9.32644 9.30749 9.32644 8.58851C9.32644 8.25272 9.823 7.75964 10.1611 7.75964C10.4993 7.75964 10.9958 8.25272 10.9958 8.58851C10.9958 9.29056 11.6108 9.71532 12.2085 9.42615C12.9105 9.08656 12.7549 7.66907 11.918 6.78056C11.211 6.03003 10.1848 5.7997 9.24823 6.18148ZM15.9258 6.18148C14.5709 6.73377 13.7991 8.87599 14.7641 9.40577C15.3592 9.73251 16.004 9.30749 16.004 8.58851C16.004 8.25272 16.5006 7.75964 16.8387 7.75964C17.1769 7.75964 17.6734 8.25272 17.6734 8.58851C17.6734 9.29056 18.2884 9.71532 18.8861 9.42615C19.5881 9.08656 19.4325 7.66907 18.5956 6.78056C17.8886 6.03003 16.8624 5.7997 15.9258 6.18148ZM6.39564 12.3236C6.05433 12.5205 5.95576 12.8881 6.01711 13.7352C6.22044 16.5445 7.91488 19.1037 10.3684 20.3073C11.5166 20.8705 12.1403 21.0066 13.5417 20.9998C14.6507 20.9944 14.8776 20.9665 15.528 20.7565C18.5932 19.7666 20.7468 16.9945 20.9828 13.7352C21.045 12.8759 20.9443 12.5155 20.5873 12.3194C19.9421 11.9651 19.3428 12.4149 19.3428 13.2534C19.3428 13.944 19.0848 14.9767 18.7018 15.8198C18.3822 16.523 18.2055 16.7802 17.6006 17.4224C16.9994 18.0607 16.7487 18.2555 16.0873 18.5985C14.3477 19.5004 12.6756 19.5008 10.9165 18.5997C10.2532 18.26 10.0121 18.0731 9.40315 17.4265C8.79415 16.7799 8.61811 16.524 8.29809 15.8198C7.91672 14.9805 7.65704 13.9444 7.65704 13.262C7.65704 12.7953 7.51013 12.4721 7.22759 12.317C6.94028 12.1592 6.67685 12.1613 6.39564 12.3236Z" fill="black"/>
</svg>
