<svg width="61" height="61" viewBox="0 0 61 61" fill="none" xmlns="http://www.w3.org/2000/svg">
<path d="M15.1889 4.67179C19.9223 1.83421 25.3421 0.346329 30.8608 0.369405C36.3795 0.392481 41.7867 1.92564 46.4962 4.8027L45.6435 6.19847C41.1888 3.47705 36.0741 2.02684 30.854 2.00501C25.6338 1.98318 20.5072 3.39057 16.0298 6.07465L15.1889 4.67179Z" fill="#EAEAEA"/>
<path d="M26.4254 60.5293C20.9629 59.7427 15.8199 57.4761 11.5539 53.975C7.28779 50.4739 4.06136 45.8719 2.22428 40.6679L3.76661 40.1234C5.50432 45.0459 8.55621 49.399 12.5915 52.7106C16.6268 56.0223 21.4915 58.1663 26.6585 58.9103L26.4254 60.5293Z" fill="#EAEAEA"/>
<path d="M60.3637 36.622C59.2651 42.0304 56.7071 47.0349 52.9671 51.0931C49.2271 55.1513 44.4476 58.1085 39.1467 59.644L38.6917 58.073C43.7057 56.6205 48.2267 53.8233 51.7644 49.9847C55.3021 46.146 57.7216 41.4122 58.7608 36.2965L60.3637 36.622Z" fill="#EAEAEA"/>
<path d="M21.6442 52.0178C20.8787 50.7702 13.4186 41.9261 9.47754 37.302V36.0373L12.0285 33.2971L13.4862 32.4542L15.1262 35.0893L17.1305 36.4592L18.5883 39.1994L20.7749 40.5695L22.2326 43.3098L24.7836 45.5231L25.8769 48.158C24.4505 49.2788 21.8602 51.426 21.6442 52.0178C21.7104 52.1257 21.7265 52.1768 21.6859 52.1633C21.6278 52.1441 21.6164 52.0938 21.6442 52.0178Z" fill="#CBE3E6"/>
<path d="M22.2326 20.5443L21.6859 22.1252L22.7793 24.3387L25.3303 25.7088L35.17 24.8656L45.3741 37.302L47.9251 38.2508L53.9382 29.8192L43.2786 18.2258L40.1809 19.5959L32.8923 16.9609L22.2326 20.5443Z" fill="#CBE3E6"/>
<path d="M16.21 10.6465L3.20508 26.168L8.02153 31.9788L20.6825 16.8548L16.21 10.6465Z" fill="#F16E33"/>
<path d="M55.225 31.74L42.0823 16.0588L46.555 11.2828L59.4224 26.2476L55.225 31.74Z" fill="#F16E33"/>
<path fill-rule="evenodd" clip-rule="evenodd" d="M27.9356 6.73993C27.6225 7.10214 28.4569 10.0436 28.8696 10.0328C29.8841 10.005 30.2813 9.10871 29.8552 7.81113C29.4358 6.53516 28.5432 6.03712 27.9356 6.73993ZM32.9116 7.81113C32.4855 9.10871 32.8827 10.005 33.8972 10.0328C34.31 10.0436 35.1443 7.10214 34.8312 6.73993C34.2237 6.03712 33.331 6.53516 32.9116 7.81113ZM9.02219 17.9005L1.79883 26.2679L4.69911 29.5932C7.37435 32.6601 7.67278 32.8654 8.54318 32.2367C9.32818 31.6692 9.55056 31.6707 9.86545 32.2454C10.453 33.3177 10.3325 33.9839 9.36777 34.9939C7.54781 36.8991 8.12288 38.0948 14.3687 45.3915C17.6083 49.1767 20.727 52.4088 21.2985 52.575C21.9705 52.77 22.7644 52.5112 23.5467 51.8424L24.756 50.8077L26.6071 52.805C28.8292 55.2026 30.4743 55.4043 32.4144 53.516C33.2474 52.7047 34.2868 52.2293 35.2279 52.2277C36.049 52.2267 37.3757 51.7636 38.1767 51.1987C38.9777 50.6338 40.0385 50.1718 40.5339 50.1718C41.9114 50.1718 43.9621 48.7626 44.2824 47.5962C44.4398 47.0225 45.3151 46.1123 46.2278 45.5737C48.0477 44.4999 48.9515 42.7501 48.9515 40.301C48.9515 39.182 49.446 38.083 50.6193 36.595C51.5369 35.4312 52.6185 33.9006 53.0233 33.1931C53.6197 32.1502 53.8692 32.0299 54.3406 32.5562C54.8134 33.0841 55.4881 32.5562 57.9445 29.7362L60.9671 26.2669L53.7442 17.9L46.5213 9.53317L43.5267 12.9711C41.1726 15.6727 40.6385 16.5582 41.0312 17.1051C41.3714 17.5795 41.3856 17.9695 41.0761 18.3276C40.7665 18.6857 39.4576 18.3343 36.971 17.225C32.8525 15.3877 32.6888 15.4016 25.8964 18.1825C22.6772 19.5001 22.2431 19.5691 21.6312 18.8611C21.0338 18.1707 21.0298 17.9705 21.5969 17.2461C22.1747 16.5073 21.9229 16.0509 19.2446 12.9757L16.2455 9.53317L9.02219 17.9005ZM23.8051 10.0729C23.6446 10.3739 23.863 11.0674 24.2913 11.6143C24.8917 12.3825 25.2088 12.4756 25.6803 12.0229C26.1935 11.53 26.1717 11.2835 25.5437 10.4814C24.6942 9.39477 24.2259 9.28518 23.8051 10.0729ZM37.2231 10.4814C36.5951 11.2835 36.5733 11.53 37.0866 12.0229C37.558 12.4756 37.8752 12.3825 38.4756 11.6143C38.9039 11.0674 39.1223 10.3739 38.9617 10.0729C38.541 9.28518 38.0726 9.39477 37.2231 10.4814ZM18.0575 14.5424L19.5853 16.4718L13.7104 23.2817L7.83601 30.0917L6.14814 28.185L4.46028 26.2787L10.3547 19.4456C13.5966 15.6877 16.3123 12.613 16.3892 12.613C16.4661 12.613 17.2169 13.4815 18.0575 14.5424ZM58.2915 26.2643C58.2915 26.2818 57.5354 27.1498 56.6111 28.1937L54.9308 30.0917L49.0026 23.2195L43.074 16.3473L44.7116 14.3968L46.3487 12.4463L52.3201 19.3396C55.6042 23.131 58.2915 26.2473 58.2915 26.2643ZM14.5559 16.7692C13.9252 17.6212 13.8736 17.9911 14.3015 18.5874C14.764 19.2321 14.9829 19.1791 15.8782 18.2062C16.6712 17.3444 16.8006 16.9132 16.4239 16.3879C15.7581 15.4603 15.4832 15.5163 14.5559 16.7692ZM46.343 16.3879C45.9662 16.9132 46.0957 17.3444 46.8887 18.2062C47.784 19.1791 48.0028 19.2321 48.4654 18.5874C48.8932 17.9911 48.8416 17.6212 48.2109 16.7692C47.2836 15.5163 47.0088 15.4603 46.343 16.3879ZM36.8762 19.3036C40.2408 20.7247 40.638 20.7895 41.7775 20.1078C43.0161 19.3669 43.0241 19.3731 47.8164 24.9343L52.6154 30.5028L50.7136 33.4164C49.6675 35.0191 48.4262 36.5693 47.9552 36.861C46.8678 37.534 46.5529 37.2428 40.1955 29.694L35.2195 23.786L32.4122 24.1194C30.8679 24.3025 28.5036 24.5896 27.1582 24.7573C25.0781 25.0167 24.5292 24.8952 23.4889 23.9455C22.816 23.3311 22.2658 22.651 22.2658 22.4338C22.2658 22.2167 22.816 21.7362 23.4889 21.3662C24.8552 20.614 32.0105 17.8532 32.7439 17.7951C33.0028 17.775 34.8623 18.4536 36.8762 19.3036ZM20.3382 20.4592C20.5299 20.8132 20.6309 21.4985 20.562 21.9826C20.3525 23.4546 21.3105 24.9014 23.2532 26.0477C25.1723 27.1807 25.8435 27.1786 31.8282 26.0246L34.052 25.596L40.1061 32.4816C43.4356 36.2689 46.3879 39.3672 46.6663 39.3672C47.4344 39.3672 47.2712 41.9896 46.4364 43.0567C46.0316 43.5743 45.3854 43.9977 45.0007 43.9977C44.6159 43.9977 42.7568 42.2222 40.8697 40.0515C37.8707 36.6023 37.3481 36.1922 36.7201 36.7952C36.081 37.409 36.4057 37.9549 39.6702 41.7504C43.2866 45.9559 43.3266 46.031 42.518 47.0652C41.1388 48.8279 40.0505 48.3386 36.6449 44.4253C33.8438 41.2065 33.3435 40.8243 32.7177 41.4252C32.079 42.038 32.3196 42.4851 34.9224 45.5186C38.0686 49.1865 38.1678 50.1718 35.3898 50.1718C34.3478 50.1718 33.5392 49.6115 32.0506 47.8565C30.9702 46.5831 29.8397 45.5412 29.5381 45.5412C28.235 45.5412 28.5218 46.8229 30.2915 48.9092C31.9047 50.8103 32.1075 51.2733 31.6231 51.9484C30.7674 53.1415 29.3366 52.8775 27.6581 51.2167C26.4466 50.0185 26.2104 49.4808 26.4368 48.4374C26.8162 46.6886 25.9453 44.6609 24.4967 43.919C23.8416 43.5836 23.0686 42.6893 22.7786 41.9315C22.4887 41.1736 21.7517 40.2902 21.1401 39.9681C20.529 39.6461 19.801 38.8038 19.5225 38.0969C19.2441 37.3894 18.4805 36.5369 17.8253 36.2015C17.1702 35.866 16.3972 34.9718 16.1072 34.2139C15.5215 32.6828 13.6637 31.4726 12.5349 31.8873C12.0897 32.0504 11.5689 31.7258 11.21 31.0605C10.6585 30.0392 10.9146 29.6204 14.9882 24.8906C17.3917 22.0994 19.5003 19.816 19.6738 19.816C19.8477 19.816 20.1465 20.1057 20.3382 20.4592ZM14.1578 34.3508C14.406 34.7048 14.6809 35.4323 14.7681 35.9679C14.8557 36.5035 15.2773 37.1399 15.7056 37.3828C16.1335 37.6251 16.834 38.0233 17.2623 38.2672C17.6901 38.5116 18.0415 39.1238 18.0428 39.628C18.0442 40.1323 18.3444 40.7064 18.71 40.904C20.7407 42.0009 21.1557 42.4023 21.3763 43.4832C21.6156 44.6553 22.1738 45.1945 23.7215 45.7496C25.0994 46.2435 25.1283 47.5658 23.7971 49.1736C23.1078 50.0056 22.3343 50.6863 22.0777 50.6863C21.4928 50.6863 10.2573 37.7604 10.2573 37.0874C10.2573 36.3682 12.5554 33.7077 13.1771 33.7077C13.468 33.7077 13.9097 33.9973 14.1578 34.3508Z" fill="#2F7180"/>
</svg>
