<svg width="16" height="17" viewBox="0 0 16 17" fill="none" xmlns="http://www.w3.org/2000/svg">
<path fill-rule="evenodd" clip-rule="evenodd" d="M14.3717 8.0006C14.3717 11.5199 11.519 14.3728 8 14.3728C4.48102 14.3728 1.62832 11.5199 1.62832 8.0006C1.62832 7.73695 1.64433 7.47704 1.67543 7.22178H0.03742C0.0126657 7.47805 0 7.73785 0 8.0006C0 12.4192 3.58172 16.0012 8 16.0012C12.4183 16.0012 16 12.4192 16 8.0006C16 3.58199 12.4183 0 8 0C4.36859 0 1.30229 2.41975 0.325299 5.73495H2.04283C2.95625 3.33426 5.27893 1.62844 8 1.62844C11.519 1.62844 14.3717 4.48136 14.3717 8.0006Z" fill="black"/>
<path fill-rule="evenodd" clip-rule="evenodd" d="M6.70368 5.69552L7.868 4.53125L10.3312 6.99447L10.3292 6.9964C10.5857 7.18114 10.7603 7.54563 10.7603 7.96488C10.7603 8.38966 10.5813 8.75774 10.3194 8.94027L10.3312 8.95216L7.868 11.4157L6.70368 10.2514L8.17578 8.77904H0.708008V7.22152H8.22943L6.70368 5.69552Z" fill="black"/>
</svg>
