<svg width="50" height="57" viewBox="0 0 50 57" fill="none" xmlns="http://www.w3.org/2000/svg">
<circle cx="25.2196" cy="25.0888" r="24.7196" fill="#EAEAEA"/>
<path opacity="0.8" d="M24.4763 28.8177C26.2821 28.8177 27.8016 28.0249 29.0348 26.4394C30.268 24.8098 30.8846 22.7397 30.8846 20.2292C30.8846 17.7188 30.2901 15.6707 29.1009 14.0852C27.9117 12.4556 26.2601 11.6408 24.146 11.6408C22.0319 11.6408 20.4464 11.9931 19.3893 12.6978C19.1251 13.6227 18.9929 14.8559 18.9929 16.3975L19.1251 18.7758L14.6326 19.1061L13.8398 9.32849C17.6276 7.6108 21.1731 6.75195 24.4763 6.75195C29.233 6.75195 32.9547 7.94113 35.6413 10.3195C38.372 12.6978 39.7374 15.979 39.7374 20.1632C39.7374 24.3033 38.4601 27.5404 35.9056 29.8747C33.3951 32.209 30.0478 33.4423 25.8637 33.5744L26.0619 38.8596L24.9388 39.9166C23.3532 39.7405 21.151 39.6524 18.3323 39.6524L18.1341 39.4542V30.8657L20.1821 28.6195C21.2832 28.7516 22.7146 28.8177 24.4763 28.8177ZM18.2001 46.7213C19.081 45.7524 20.2922 45.2679 21.8337 45.2679C23.3752 45.2679 24.5644 45.7524 25.4012 46.7213C26.2821 47.6463 26.7225 48.9235 26.7225 50.5531C26.7225 52.1387 26.2821 53.4159 25.4012 54.3849C24.5644 55.3098 23.3752 55.7723 21.8337 55.7723C20.2922 55.7723 19.081 55.3098 18.2001 54.3849C17.3633 53.4159 16.9449 52.1387 16.9449 50.5531C16.9449 48.9676 17.3633 47.6903 18.2001 46.7213Z" fill="#005365"/>
<ellipse cx="21.9254" cy="50.5537" rx="5.1188" ry="5.44827" fill="#F16E33"/>
</svg>
