<svg width="16" height="16" viewBox="0 0 16 16" fill="none" xmlns="http://www.w3.org/2000/svg">
<path fill-rule="evenodd" clip-rule="evenodd" d="M13.9735 7.82617C13.9735 11.1252 11.299 13.7996 8 13.7996C4.70095 13.7996 2.02655 11.1252 2.02655 7.82617C2.02655 7.57902 2.04156 7.33537 2.07072 7.09608H0.535081C0.511874 7.33631 0.5 7.57986 0.5 7.82617C0.5 11.9683 3.85786 15.3262 8 15.3262C12.1421 15.3262 15.5 11.9683 15.5 7.82617C15.5 3.68404 12.1421 0.326172 8 0.326172C4.59555 0.326172 1.7209 2.59451 0.804968 5.70228H2.41516C3.27148 3.45181 5.449 1.85272 8 1.85272C11.299 1.85272 13.9735 4.52713 13.9735 7.82617Z" fill="#005365"/>
<path fill-rule="evenodd" clip-rule="evenodd" d="M6.78543 5.66377L7.87707 4.57227L10.1865 6.88153L10.1846 6.88335C10.4251 7.05654 10.5888 7.39825 10.5888 7.79129C10.5888 8.18952 10.421 8.5346 10.1754 8.70572L10.1865 8.71687L7.87707 11.0264L6.78543 9.93489L8.16563 8.55457H1.16406V7.09439H8.21592L6.78543 5.66377Z" fill="#005365"/>
</svg>
