<svg width="50" height="50" viewBox="0 0 50 50" fill="none" xmlns="http://www.w3.org/2000/svg">
<path fill-rule="evenodd" clip-rule="evenodd" d="M29.4827 10.7221H12.853V28.5857C7.56153 26.7947 3.75 21.7603 3.75 15.8296C3.75 8.39883 9.73357 2.375 17.1147 2.375C22.6999 2.375 27.4849 5.82414 29.4827 10.7221Z" fill="#EAEAEA"/>
<path fill-rule="evenodd" clip-rule="evenodd" d="M12.3409 9.89556C12.8037 9.42969 13.4313 9.16797 14.0857 9.16797H32.0558C32.71 9.16855 33.3386 9.43065 33.8009 9.89666L38.6544 14.7829C38.8838 15.0137 39.0664 15.2884 39.1905 15.5901C39.3147 15.8921 39.3785 16.2157 39.3783 16.5425V26.2466C39.3783 27.1041 38.6878 27.7992 37.836 27.7992C36.9843 27.7992 36.2938 27.1041 36.2938 26.2466V16.7978L36.4741 16.9793C36.417 16.9217 36.3717 16.8534 36.3408 16.7782C36.3099 16.703 36.2939 16.6226 36.2938 16.5413V16.7978L31.7994 12.2732H32.0558C31.8926 12.273 31.7347 12.2078 31.6192 12.0918M14.7026 12.2732H31.7994L31.6192 12.0918M14.7026 12.2732V11.6521C14.7026 11.8168 14.6376 11.9748 14.5219 12.0913C14.4062 12.2077 14.2493 12.2732 14.0857 12.2732H14.7026ZM14.7026 12.2732V44.8997H14.2938C14.2707 44.8955 14.2402 44.8884 14.2104 44.8796C14.1877 44.8728 14.1766 44.8684 14.1766 44.8684C14.1766 44.8684 14.1792 44.8695 14.1842 44.8719C14.1922 44.8756 14.2165 44.8873 14.2515 44.9089C14.2544 44.9106 14.2572 44.9124 14.2602 44.9143C14.2957 44.9367 14.3732 44.9887 14.4618 45.0779C14.6105 45.2276 14.6695 45.3839 14.6904 45.4624C14.6941 45.4766 14.6969 45.4888 14.6988 45.4989C14.7026 45.5186 14.7035 45.5298 14.7035 45.5298C14.7035 45.5298 14.7026 45.5203 14.7026 45.4989V44.8997H22.7798C23.6315 44.8997 24.322 45.5948 24.322 46.4523C24.322 47.3098 23.6315 48.0049 22.7798 48.0049H14.2515C13.9261 48.0049 13.5854 47.9316 13.3367 47.8576C13.1991 47.8167 13.0421 47.7616 12.8863 47.6888C12.7588 47.6293 12.5077 47.5021 12.2807 47.2736C11.6452 46.6338 11.6182 45.8194 11.6182 45.4989V11.6521C11.6182 10.9933 11.8781 10.3614 12.3409 9.89556" fill="#2F7180"/>
<path d="M14.8348 45.1721L14.569 44.6535V44.5645L13.7344 44.8861L14.8348 45.8154V45.1721Z" fill="#2F7180"/>
<path d="M18.6392 16.002C18.0869 16.002 17.6392 16.4497 17.6392 17.002C17.6392 17.5542 18.0869 18.002 18.6392 18.002V16.002ZM28.085 18.002C28.6373 18.002 29.085 17.5542 29.085 17.002C29.085 16.4497 28.6373 16.002 28.085 16.002V18.002ZM18.6392 18.002H28.085V16.002H18.6392V18.002Z" fill="#005365" fill-opacity="0.8"/>
<path d="M18.6392 20.4805C18.0869 20.4805 17.6392 20.9282 17.6392 21.4805C17.6392 22.0328 18.0869 22.4805 18.6392 22.4805V20.4805ZM28.085 22.4805C28.6373 22.4805 29.085 22.0328 29.085 21.4805C29.085 20.9282 28.6373 20.4805 28.085 20.4805V22.4805ZM18.6392 22.4805H28.085V20.4805H18.6392V22.4805Z" fill="#005365" fill-opacity="0.8"/>
<path d="M17.9748 10.2938C16.9653 9.83389 14.6584 8.98032 13.5071 9.24525C12.7732 9.41412 12.2788 9.90216 11.9813 10.3613L13.7442 12.2272L30.6002 12.2854L32.9421 11.6063L17.9748 10.2938Z" fill="#2F7180"/>
<path d="M31.6694 16.0005V11.2713C31.6696 11.1627 31.7017 11.0567 31.7618 10.9665C31.8218 10.8763 31.9069 10.806 32.0066 10.7644C32.1062 10.7229 32.2158 10.712 32.3216 10.7332C32.4274 10.7543 32.5246 10.8065 32.6009 10.8831L37.678 15.9943C37.7549 16.0709 37.8074 16.1688 37.8288 16.2755C37.8502 16.3823 37.8396 16.493 37.7982 16.5936C37.7568 16.6943 37.6866 16.7802 37.5965 16.8405C37.5064 16.9008 37.4006 16.9326 37.2924 16.9321H32.5948C32.3494 16.9321 32.114 16.8339 31.9405 16.6592C31.7669 16.4845 31.6694 16.2476 31.6694 16.0005Z" fill="#2F7180"/>
<path fill-rule="evenodd" clip-rule="evenodd" d="M31.5622 9.68499C31.8729 9.55551 32.2148 9.52157 32.5447 9.58746C32.8746 9.65334 33.1777 9.8161 33.4158 10.0552L38.4922 15.1658C38.7309 15.4046 38.8939 15.7094 38.9606 16.0415C39.0275 16.375 38.9942 16.7211 38.8649 17.0355C38.7356 17.3499 38.5163 17.6184 38.2348 17.8067C37.9544 17.9943 37.625 18.094 37.2884 18.093C37.2871 18.093 37.2858 18.093 37.2845 18.093L37.2904 16.9286V18.093H37.2884H32.5928C32.0406 18.093 31.511 17.8722 31.1205 17.4791C30.7301 17.086 30.5107 16.5529 30.5107 15.997V11.2657C30.5113 10.9271 30.6115 10.5963 30.7987 10.315C30.9858 10.0337 31.2515 9.81448 31.5622 9.68499ZM32.8241 12.7531L35.815 15.7641H32.8241V12.7531Z" fill="#2F7180"/>
<g clip-path="url(#clip0)">
<path d="M30.4811 26.8848C22.8189 26.8848 16.6011 33.1387 16.6011 40.8582V42.552C16.6011 43.4874 17.3542 44.2458 18.2836 44.2458H42.6787C43.608 44.2458 44.3612 43.4874 44.3612 42.552V40.8582C44.3612 33.1391 38.1438 26.8848 30.4811 26.8848Z" fill="#005365" fill-opacity="0.8"/>
<path d="M18.2836 44.2461H42.6787C43.608 44.2461 44.3612 43.4877 44.3612 42.5523V40.8585C44.3612 35.6863 41.5693 31.1718 37.422 28.7559L37.4133 28.7708C36.9618 29.5582 37.17 30.5546 37.8869 31.1077C40.798 33.3539 42.6787 36.889 42.6787 40.8585V41.282C42.6787 41.9835 42.1138 42.5523 41.4168 42.5523H16.6011C16.6011 43.4877 17.3544 44.2461 18.2836 44.2461Z" fill="#2F7180"/>
<path d="M35.9475 31.3262L30.481 40.8583H41.4167C41.4167 36.7912 39.2144 33.2323 35.9475 31.3262V31.3262Z" fill="#F16E33"/>
<path d="M37.0027 32.0273C36.5365 32.8401 36.6477 33.8657 37.2821 34.5535C37.2969 34.5697 37.3115 34.5857 37.3257 34.6015C38.0742 35.4331 38.668 36.3932 39.0791 37.4316C39.408 38.2627 38.7928 39.1652 37.9041 39.1652C36.6157 39.1652 32.7965 39.1652 31.4522 39.1652L30.481 40.8588H41.4169C41.4167 37.2469 39.6798 34.0359 37.0027 32.0273V32.0273Z" fill="#F16E33"/>
<path d="M25.0142 31.3248L30.4807 40.8569L35.9473 31.3248C34.3381 30.3858 32.4708 29.8477 30.4807 29.8477C28.4907 29.8477 26.6234 30.3858 25.0142 31.3248V31.3248Z" fill="#FCD833"/>
<path d="M29.5088 39.1651L30.4801 40.8589L35.9467 31.3268C35.4621 31.0438 34.9533 30.7982 34.4256 30.5918L29.5088 39.1651Z" fill="#EBC519"/>
<path d="M30.481 40.8583L35.9475 31.3262Z" fill="#FFB545"/>
<path d="M25.0131 31.3262C21.7462 33.2323 19.5439 36.7912 19.5439 40.8583H30.4797L25.0131 31.3262Z" fill="white"/>
<path d="M25.0131 31.3262C24.5243 31.6112 24.0596 31.9336 23.6224 32.2889L26.4728 37.2592C26.9586 38.1059 26.3514 39.1645 25.3801 39.1645H19.6731C19.588 39.7167 19.5439 40.2824 19.5439 40.8583H30.4797L25.0131 31.3262Z" fill="#EFEFEF"/>
<path d="M30.537 39.166C30.2094 39.1551 29.9021 39.2391 29.6394 39.392L23.6158 35.891C23.2136 35.6571 22.6992 35.7959 22.4669 36.201C22.2345 36.6059 22.3724 37.1238 22.7748 37.3577L28.798 40.8587C28.798 41.7941 29.5513 42.5525 30.4805 42.5525C31.4448 42.5525 32.2195 41.7359 32.1596 40.7521C32.1073 39.8886 31.3958 39.1943 30.537 39.166V39.166Z" fill="#1C1C1C"/>
</g>
<defs>
<clipPath id="clip0">
<rect width="27.7601" height="27.9469" fill="white" transform="translate(16.6011 21.5898)"/>
</clipPath>
</defs>
</svg>
