<svg width="67" height="68" viewBox="0 0 67 68" fill="none" xmlns="http://www.w3.org/2000/svg">
<path fill-rule="evenodd" clip-rule="evenodd" d="M36.7529 12.4423H13.3245V37.444C5.8697 34.9375 0.5 27.8922 0.5 19.5927C0.5 9.19371 8.93004 0.763672 19.329 0.763672C27.1968 0.763672 33.9376 5.58932 36.7529 12.4423Z" fill="#EAEAEA"/>
<path d="M51.1325 36.3551V21.7583C51.1326 21.574 51.0964 21.3914 51.0259 21.2211C50.9554 21.0508 50.8519 20.8961 50.7215 20.7659L43.3705 13.4149C43.108 13.1521 42.7519 13.0042 42.3804 13.0039H15.1716C14.8 13.0039 14.4436 13.1515 14.1809 13.4143C13.9181 13.677 13.7705 14.0334 13.7705 14.405V58.3053C13.7705 58.6769 13.9181 59.0333 14.1809 59.296C14.4436 59.5588 14.8 59.7064 15.1716 59.7064H30.1164" stroke="#2E707F" stroke-width="3.5" stroke-linecap="round" stroke-linejoin="round"/>
<path d="M23.1113 41.0247H30.1167M23.1113 31.6842H41.7923H23.1113ZM23.1113 22.3438H32.4518H23.1113Z" stroke="#2E707F" stroke-width="3.5" stroke-linecap="round" stroke-linejoin="round"/>
<path d="M41.791 20.9419V13.8291C41.7913 13.6658 41.8399 13.5063 41.9308 13.3706C42.0216 13.2349 42.1506 13.1292 42.3015 13.0667C42.4524 13.0043 42.6184 12.9879 42.7785 13.0197C42.9387 13.0515 43.0858 13.13 43.2014 13.2453L50.8887 20.9325C51.0051 21.0477 51.0846 21.1949 51.1171 21.3555C51.1495 21.516 51.1333 21.6826 51.0707 21.8339C51.0081 21.9852 50.9018 22.1145 50.7654 22.2051C50.629 22.2958 50.4687 22.3438 50.3049 22.3429H43.1921C42.8205 22.3429 42.4641 22.1953 42.2014 21.9326C41.9386 21.6698 41.791 21.3134 41.791 20.9419Z" fill="#2E707F" stroke="#2E707F" stroke-width="3.5" stroke-linecap="round" stroke-linejoin="round"/>
<g clip-path="url(#clip0)">
<path d="M49.3288 39.8457C40.0112 39.8457 32.4502 47.3998 32.4502 56.7243V58.7702C32.4502 59.9001 33.366 60.8162 34.4961 60.8162H64.1614C65.2915 60.8162 66.2073 59.9001 66.2073 58.7702V56.7243C66.2073 47.4003 58.6468 39.8457 49.3288 39.8457Z" fill="#005365" fill-opacity="0.8"/>
<path d="M34.4961 60.8162H64.1614C65.2915 60.8162 66.2073 59.9001 66.2073 58.7703V56.7243C66.2073 50.4768 62.8123 45.0237 57.7691 42.1055L57.7585 42.1235C57.2094 43.0746 57.4626 44.2781 58.3344 44.9462C61.8744 47.6595 64.1614 51.9296 64.1614 56.7243V57.2358C64.1614 58.0831 63.4745 58.7703 62.6269 58.7703H32.4502C32.4502 59.9001 33.3663 60.8162 34.4961 60.8162Z" fill="#2F7180"/>
<path d="M55.9766 45.2109L49.3291 56.7248H62.6273C62.6273 51.8121 59.9493 47.5134 55.9766 45.2109Z" fill="#F16E33"/>
<path d="M57.2597 46.0566C56.6929 47.0384 56.8281 48.2772 57.5994 49.108C57.6175 49.1276 57.6352 49.1469 57.6525 49.166C58.5627 50.1704 59.2848 51.3302 59.7847 52.5844C60.1847 53.5883 59.4365 54.6785 58.3558 54.6785C56.7892 54.6785 52.1449 54.6785 50.5102 54.6785L49.3291 56.7242H62.6275C62.6273 52.3614 60.5151 48.4827 57.2597 46.0566Z" fill="#F16E33"/>
<path d="M42.6807 45.2081L49.3282 56.722L55.9757 45.2081C54.0189 44.0739 51.7481 43.4238 49.3282 43.4238C46.9083 43.4238 44.6375 44.0739 42.6807 45.2081Z" fill="#FCD833"/>
<path d="M48.1465 54.6799L49.3276 56.7258L55.9751 45.212C55.3859 44.8702 54.7672 44.5735 54.1254 44.3242L48.1465 54.6799Z" fill="#EBC519"/>
<path d="M49.3291 56.7248L55.9766 45.2109L49.3291 56.7248Z" fill="#FFB545"/>
<path d="M42.6799 45.2109C38.7073 47.5134 36.0293 51.8121 36.0293 56.7248H49.3275L42.6799 45.2109Z" fill="white"/>
<path d="M42.6799 45.2109C42.0855 45.5553 41.5204 45.9447 40.9889 46.3738L44.4549 52.3774C45.0457 53.4001 44.3074 54.6789 43.1263 54.6789H36.1864C36.0829 55.3459 36.0293 56.0292 36.0293 56.7248H49.3275L42.6799 45.2109Z" fill="#EFEFEF"/>
<path d="M49.3971 54.6791C48.9987 54.666 48.625 54.7674 48.3056 54.9521L40.9807 50.7232C40.4916 50.4407 39.8661 50.6083 39.5835 51.0977C39.301 51.5867 39.4687 52.2123 39.958 52.4948L47.2824 56.7238C47.2824 57.8536 48.1985 58.7697 49.3283 58.7697C50.5009 58.7697 51.443 57.7833 51.3702 56.595C51.3065 55.5519 50.4414 54.7133 49.3971 54.6791Z" fill="#1C1C1C"/>
</g>
<defs>
<clipPath id="clip0">
<rect width="33.7571" height="33.7571" fill="white" transform="translate(32.4502 33.4492)"/>
</clipPath>
</defs>
</svg>
