<svg width="53" height="62" viewBox="0 0 53 62" fill="none" xmlns="http://www.w3.org/2000/svg">
<path fill-rule="evenodd" clip-rule="evenodd" d="M33.3968 11.6498H11.998V34.4854C5.18888 32.1961 0.28418 25.761 0.28418 18.1804C0.28418 8.6822 7.98396 0.982422 17.4821 0.982422C24.6685 0.982422 30.8254 5.39024 33.3968 11.6498Z" fill="#EAEAEA"/>
<path fill-rule="evenodd" clip-rule="evenodd" d="M11.3392 10.5941C11.9347 9.9986 12.7423 9.66406 13.5845 9.66406H36.7087C37.5506 9.6648 38.3594 9.99983 38.9544 10.5955L45.2 16.8412C45.4952 17.1362 45.7302 17.4874 45.8899 17.873C46.0497 18.2589 46.1318 18.6726 46.1315 19.0904V31.4944C46.1315 32.5904 45.2429 33.4789 44.1469 33.4789C43.0508 33.4789 42.1623 32.5904 42.1623 31.4944V19.4167L42.3943 19.6487C42.3208 19.5751 42.2625 19.4877 42.2227 19.3916C42.183 19.2956 42.1624 19.1927 42.1623 19.0888V19.4167L36.3789 13.6332H36.7087C36.4987 13.633 36.2956 13.5496 36.147 13.4013M14.3783 13.6332H36.3789L36.147 13.4013M14.3783 13.6332V12.8394C14.3783 13.0499 14.2947 13.2518 14.1458 13.4007C13.9969 13.5496 13.795 13.6332 13.5845 13.6332H14.3783ZM14.3783 13.6332V55.3371H13.8523C13.8225 55.3318 13.7833 55.3227 13.745 55.3114C13.7157 55.3028 13.7015 55.2972 13.7015 55.2972C13.7015 55.2972 13.7047 55.2986 13.7112 55.3016C13.7215 55.3063 13.7527 55.3212 13.7978 55.3488C13.8015 55.351 13.8052 55.3534 13.809 55.3557C13.8547 55.3844 13.9544 55.4509 14.0684 55.5649C14.2598 55.7563 14.3356 55.956 14.3626 56.0564C14.3674 56.0745 14.3709 56.0902 14.3734 56.103C14.3783 56.1282 14.3794 56.1426 14.3794 56.1426C14.3794 56.1426 14.3783 56.1304 14.3783 56.103V55.3371H24.7722C25.8682 55.3371 26.7567 56.2256 26.7567 57.3217C26.7567 58.4177 25.8682 59.3062 24.7722 59.3062H13.7978C13.379 59.3062 12.9406 59.2125 12.6207 59.118C12.4435 59.0657 12.2416 58.9952 12.0411 58.9022C11.877 58.8261 11.5538 58.6635 11.2618 58.3715C10.444 57.5537 10.4092 56.5127 10.4092 56.103V12.8394C10.4092 11.9972 10.7437 11.1896 11.3392 10.5941" fill="#2F7180"/>
<path d="M14.5479 55.6849L14.2058 55.022V54.9082L13.1318 55.3194L14.5479 56.5073V55.6849Z" fill="#2F7180"/>
<path d="M19.4443 18.6777C18.8921 18.6777 18.4443 19.1254 18.4443 19.6777C18.4443 20.23 18.8921 20.6777 19.4443 20.6777V18.6777ZM31.5995 20.6777C32.1518 20.6777 32.5995 20.23 32.5995 19.6777C32.5995 19.1254 32.1518 18.6777 31.5995 18.6777V20.6777ZM19.4443 20.6777H31.5995V18.6777H19.4443V20.6777Z" fill="#005365" fill-opacity="0.8"/>
<path d="M19.4443 24.4023C18.8921 24.4023 18.4443 24.8501 18.4443 25.4023C18.4443 25.9546 18.8921 26.4023 19.4443 26.4023V24.4023ZM31.5995 26.4023C32.1518 26.4023 32.5995 25.9546 32.5995 25.4023C32.5995 24.8501 32.1518 24.4023 31.5995 24.4023V26.4023ZM19.4443 26.4023H31.5995V24.4023H19.4443V26.4023Z" fill="#005365" fill-opacity="0.8"/>
<path d="M18.5891 11.1033C17.2901 10.5155 14.3216 9.42441 12.8401 9.76305C11.8957 9.9789 11.2595 10.6027 10.8766 11.1896L13.1451 13.5747L34.8359 13.649L37.8495 12.781L18.5891 11.1033Z" fill="#2F7180"/>
<path d="M36.2119 18.3967V12.3517C36.2122 12.2129 36.2535 12.0773 36.3307 11.962C36.4079 11.8467 36.5176 11.7569 36.6458 11.7038C36.774 11.6507 36.9151 11.6368 37.0512 11.6638C37.1873 11.6908 37.3123 11.7575 37.4106 11.8555L43.9438 18.3887C44.0428 18.4866 44.1104 18.6118 44.1379 18.7482C44.1655 18.8846 44.1518 19.0262 44.0985 19.1548C44.0453 19.2834 43.9549 19.3933 43.839 19.4703C43.7231 19.5474 43.5869 19.5881 43.4477 19.5874H37.4027C37.0869 19.5874 36.784 19.462 36.5607 19.2387C36.3374 19.0154 36.2119 18.7125 36.2119 18.3967Z" fill="#2F7180"/>
<path fill-rule="evenodd" clip-rule="evenodd" d="M36.0738 10.3267C36.4736 10.1612 36.9135 10.1178 37.338 10.202C37.7625 10.2863 38.1526 10.4943 38.459 10.7999L44.9914 17.3324C45.2986 17.6376 45.5084 18.0272 45.5941 18.4517C45.6802 18.8781 45.6373 19.3204 45.471 19.7222C45.3047 20.1241 45.0224 20.4673 44.6602 20.7081C44.2994 20.9479 43.8755 21.0753 43.4424 21.074C43.4407 21.074 43.439 21.074 43.4373 21.074L43.4449 19.5856V21.074H43.4424H37.3999C36.6893 21.074 36.0079 20.7918 35.5054 20.2893C35.003 19.7869 34.7207 19.1054 34.7207 18.3949V12.3472C34.7215 11.9145 34.8504 11.4916 35.0912 11.132C35.332 10.7724 35.6739 10.4922 36.0738 10.3267ZM37.6976 14.2484L41.5463 18.0972H37.6976V14.2484Z" fill="#2F7180"/>
<g clip-path="url(#clip0)">
<path d="M34.6824 32.3125C24.8225 32.3125 16.8213 40.3064 16.8213 50.1736V52.3387C16.8213 53.5343 17.7904 54.5037 18.9863 54.5037H50.3785C51.5744 54.5037 52.5436 53.5343 52.5436 52.3387V50.1736C52.5436 40.3069 44.5429 32.3125 34.6824 32.3125Z" fill="#005365" fill-opacity="0.8"/>
<path d="M18.9863 54.5012H50.3785C51.5744 54.5012 52.5436 53.5317 52.5436 52.3361V50.1711C52.5436 43.5598 48.951 37.7893 43.6141 34.7012L43.6029 34.7202C43.0219 35.7267 43.2898 37.0003 44.2123 37.7073C47.9584 40.5785 50.3785 45.0972 50.3785 50.1711V50.7123C50.3785 51.609 49.6517 52.3361 48.7547 52.3361H16.8213C16.8213 53.5317 17.7907 54.5012 18.9863 54.5012Z" fill="#2F7180"/>
<path d="M41.7171 37.9883L34.6826 50.1724H48.7549C48.7549 44.9737 45.9211 40.4248 41.7171 37.9883Z" fill="#F16E33"/>
<path d="M43.0749 38.8848C42.4751 39.9237 42.6182 41.2346 43.4344 42.1138C43.4535 42.1345 43.4723 42.155 43.4906 42.1751C44.4537 43.238 45.2179 44.4653 45.7469 45.7925C46.1702 46.8549 45.3784 48.0086 44.2349 48.0086C42.577 48.0086 37.6623 48.0086 35.9325 48.0086L34.6826 50.1733H48.7552C48.7549 45.5565 46.5198 41.4521 43.0749 38.8848Z" fill="#F16E33"/>
<path d="M27.6475 37.9858L34.682 50.17L41.7165 37.9858C39.6457 36.7855 37.2428 36.0977 34.682 36.0977C32.1212 36.0977 29.7182 36.7855 27.6475 37.9858Z" fill="#FCD833"/>
<path d="M33.4307 48.0093L34.6805 50.1744L41.715 37.9902C41.0915 37.6286 40.4368 37.3146 39.7577 37.0508L33.4307 48.0093Z" fill="#EBC519"/>
<path d="M34.6826 50.1724L41.7171 37.9883L34.6826 50.1724Z" fill="#FFB545"/>
<path d="M27.6462 37.9883C23.4423 40.4248 20.6084 44.9737 20.6084 50.1724H34.6807L27.6462 37.9883Z" fill="white"/>
<path d="M27.6462 37.9883C27.0172 38.3527 26.4192 38.7647 25.8567 39.2188L29.5245 45.572C30.1497 46.6542 29.3684 48.0074 28.1185 48.0074H20.7746C20.6651 48.7133 20.6084 49.4363 20.6084 50.1724H34.6807L27.6462 37.9883Z" fill="#EFEFEF"/>
<path d="M34.7547 48.0111C34.3331 47.9972 33.9376 48.1046 33.5997 48.3L25.8484 43.8249C25.3308 43.5259 24.6688 43.7034 24.3698 44.2212C24.0709 44.7387 24.2483 45.4007 24.7661 45.6997L32.5169 50.1748C32.5169 51.3704 33.4863 52.3399 34.6819 52.3399C35.9228 52.3399 36.9197 51.296 36.8426 50.0385C36.7753 48.9348 35.8598 48.0474 34.7547 48.0111Z" fill="#1C1C1C"/>
</g>
<defs>
<clipPath id="clip0">
<rect width="35.7223" height="35.7223" fill="white" transform="translate(16.8213 25.543)"/>
</clipPath>
</defs>
</svg>
