<svg width="35" height="31" viewBox="0 0 35 31" fill="none" xmlns="http://www.w3.org/2000/svg">
<path fill-rule="evenodd" clip-rule="evenodd" d="M14.2192 0.820125C9.01326 1.28447 4.22051 4.59084 1.95986 9.27746C-1.12268 15.6676 0.808091 23.4869 6.50971 27.7035C14.2513 33.4286 25.3609 30.793 29.5376 22.2404C30.9629 19.3219 31.3575 16.3248 30.766 12.9075C30.6795 12.4073 30.5609 11.969 30.5024 11.9335C30.444 11.8981 29.8254 12.4382 29.1279 13.1337L27.8597 14.3983L27.7798 16.1429C27.6851 18.2099 27.4409 19.1809 26.5733 20.9404C25.8251 22.458 24.6819 23.8771 23.3606 24.9286C17.2511 29.7906 8.20838 27.7313 4.83368 20.7094C3.97184 18.9163 3.789 18.019 3.79921 15.6341C3.80779 13.6679 3.83989 13.433 4.27643 12.1449C5.5924 8.26213 8.64654 5.40061 12.6841 4.26737C13.6235 4.0038 14.2223 3.94041 15.7724 3.94041C18.078 3.94041 19.3319 4.23815 21.3604 5.26788L22.6786 5.93692L23.8069 4.8281C25.0995 3.55777 25.1279 3.70912 23.4161 2.74728C20.6011 1.16569 17.5388 0.523986 14.2192 0.820125ZM24.1297 9.01999L15.7746 17.2319L13.626 15.1238L11.4772 13.0156L10.3326 14.1471L9.18796 15.2786L12.1189 18.1459L15.0496 21.0131H15.7783H16.507L25.6464 12.0347L34.7857 3.05621L33.6351 1.93214L32.4847 0.808058L24.1297 9.01999Z" fill="#0BA11B"/>
</svg>
