<svg width="60" height="50" viewBox="0 0 60 50" fill="none" xmlns="http://www.w3.org/2000/svg">
<circle cx="18.5" cy="18.5" r="18.5" fill="#EDEDED"/>
<rect x="8" y="8" width="42" height="30" rx="4" fill="white"/>
<path fill-rule="evenodd" clip-rule="evenodd" d="M10.9746 8.23364C9.90903 8.56294 8.8863 9.42345 8.38007 10.4168L8 11.1627V17.9625V34.7622L8.37859 35.5051C8.91524 36.5579 9.88996 37.3648 11.0265 37.6974C11.9036 37.9541 12.2164 37.9597 23.4841 37.9246L50.042 37.8885L50.7919 37.5497C52.2389 36.8958 53.0582 35.8778 53.3429 34.38C53.563 33.2225 53.5482 13.1098 53.3276 12.8972C53.1234 12.7005 50.3397 12.6828 49.9655 12.8757C49.7103 13.0073 49.704 13.2597 49.704 15.2315V16.4525H23.2111H11.7183V15.2402C11.7183 11.4028 11.7404 12.0067 11.9307 11.8233C12.1209 11.6401 13.4828 11.6185 24.877 11.6168C31.8808 11.6159 52.7478 11.5797 52.9152 11.5365C53.3303 11.4293 53.3038 11.0482 52.8254 10.2447C52.3479 9.44259 51.5031 8.68734 50.6669 8.31479C50.0455 8.03798 34.977 8.03629 23.4139 8.00972C12.2676 7.98419 11.7522 7.99343 10.9746 8.23364ZM49.6756 23.7427C49.6399 30.5363 49.6149 33.9272 49.3949 34.139C49.1672 34.3583 33.5291 34.3714 23.1278 34.3714C12.3696 34.3714 12.0974 34.3653 11.9101 34.1186C11.754 33.9128 11.7183 27.0951 11.7183 23.7223V19.5788H23.2165H49.7148L49.6756 23.7427Z" fill="#00A6CA"/>
<path d="M49 50C46.8235 50 44.6959 49.3543 42.8865 48.1447C41.0771 46.9351 39.6672 45.2158 38.8353 43.2046C38.0034 41.1934 37.7868 38.9806 38.2129 36.8462C38.6391 34.7119 39.6888 32.7519 41.2293 31.2144C42.7698 29.6768 44.7318 28.6308 46.867 28.2088C49.0021 27.7867 51.2145 28.0076 53.2241 28.8434C55.2338 29.6792 56.9503 31.0924 58.1564 32.9041C59.3626 34.7158 60.0042 36.8446 60 39.0211C59.9944 41.9348 58.833 44.7273 56.7707 46.7856C54.7084 48.844 51.9137 50 49 50Z" fill="#00A6CA"/>
<path d="M53.5 35L45 43.5" stroke="white" stroke-width="2.4" stroke-linecap="round"/>
<path d="M53.5 43.5L45 35" stroke="white" stroke-width="2.4" stroke-linecap="round"/>
</svg>
