<svg width="22" height="23" viewBox="0 0 22 23" fill="none" xmlns="http://www.w3.org/2000/svg">
<path fill-rule="evenodd" clip-rule="evenodd" d="M8.68121 0.23783C6.46378 0.910651 4.65455 2.78872 4.00392 5.09291C3.86025 5.60177 3.82177 6.27655 3.7854 8.92687L3.74139 12.1433H4.85508H5.96887L5.97129 9.23564C5.97269 7.63649 6.01951 6.12473 6.07547 5.87637C6.48438 4.05923 8.07338 2.55941 9.93596 2.23262C12.0557 1.86055 14.2455 3.23809 15.0384 5.44223C15.2271 5.96684 15.2517 6.33254 15.309 9.46722C15.3689 12.7405 15.3836 12.9439 15.6006 13.4813C15.7262 13.7926 15.8711 14.0914 15.9225 14.1452C16.2687 14.5081 16.2167 14.5105 8.12894 14.5105H0.242188V15.5899V16.6692L3.58276 16.6964L6.92332 16.7234L6.98451 18.3188C7.01816 19.1962 7.09854 20.0844 7.16304 20.2925C7.3486 20.8911 8.02536 21.847 8.52278 22.2129C9.39604 22.8555 9.83358 22.9976 10.9442 22.9999C11.8755 23.0018 11.9998 22.9773 12.6019 22.6732C13.7167 22.1104 14.4546 21.2013 14.7546 20.0212C15.0177 18.9861 15.0685 19.0393 13.8165 19.0393H12.7226L12.6562 19.4016C12.5812 19.8114 12.1066 20.4168 11.6856 20.6398C10.9512 21.029 9.86593 20.6768 9.42518 19.9062C9.20224 19.5165 9.18386 19.3771 9.18386 18.0781V16.672H14.9471H20.7103L20.9727 16.4031C21.3176 16.0498 21.4054 15.5552 21.1966 15.1416C20.9813 14.7151 20.6942 14.547 20.0596 14.4762C19.0007 14.358 18.1142 13.7207 17.6865 12.77C17.4882 12.3293 17.4701 12.0708 17.4153 8.90113C17.3517 5.21981 17.3273 5.04124 16.7186 3.80562C15.8371 2.01637 14.109 0.596215 12.2737 0.152917C11.3032 -0.0814432 9.601 -0.0411996 8.68121 0.23783Z" fill="white"/>
</svg>
