<svg width="53" height="53" viewBox="0 0 53 53" fill="none" xmlns="http://www.w3.org/2000/svg">
<circle cx="26.5" cy="26.5" r="26.5" fill="#EDEDED"/>
<path fill-rule="evenodd" clip-rule="evenodd" d="M23.5554 13.2069C22.9716 13.5304 22.6993 14.0353 22.6993 14.7943V15.4375L21.3237 15.4768C20.0113 15.5141 19.9238 15.5315 19.4242 15.8538C18.8037 16.2541 18.2458 16.9765 18.0894 17.5825C18.014 17.8748 17.9866 21.1407 18.0061 27.5026C18.0337 36.5051 18.0454 37.007 18.2349 37.3785C18.5135 37.9249 19.0308 38.4732 19.5363 38.7582C19.9635 38.999 19.9931 39 26.9882 39C33.9833 39 34.0129 38.999 34.44 38.7582C34.9456 38.4732 35.4628 37.9249 35.7415 37.3785C35.9302 37.0084 35.9427 36.5337 35.9706 28.6838L36 20.3805H34.8716H33.7431V28.2695V36.1585L33.4799 36.433L33.2168 36.7075H26.9882H20.7596L20.4965 36.433L20.2333 36.1585V27.2879C20.2333 19.4403 20.2526 18.3887 20.4002 18.1688C20.5536 17.9403 20.653 17.9202 21.6333 17.9202H22.6993V19.1504V20.3805H26.9882H31.277V19.1525V17.9245L33.626 17.8944L35.9749 17.8643L35.8321 17.4312C35.6352 16.8342 35.1592 16.2496 34.5454 15.8514C34.0528 15.5317 33.9636 15.514 32.6527 15.4768L31.277 15.4375V14.7943C31.277 14.0279 30.9912 13.4964 30.4171 13.1957C30.0879 13.0232 29.6834 13.0001 26.9865 13C24.2165 12.9998 23.8939 13.0192 23.5554 13.2069ZM28.8666 15.7272C28.9928 15.928 29.0267 16.2263 29.0031 16.9293L28.9718 17.8643H26.9882H25.0046V16.8468C25.0046 16.1484 25.0508 15.7712 25.1517 15.6446C25.2772 15.4873 25.5498 15.46 26.9988 15.46C28.6727 15.46 28.7014 15.4642 28.8666 15.7272ZM22.6993 28.0408V29.215H26.9882H31.277V28.0408V26.8666H26.9882H22.6993V28.0408ZM22.6993 32.9612V34.1354H26.9882H31.277V32.9612V31.787H26.9882H22.6993V32.9612Z" fill="#00A6CA"/>
</svg>
