<svg width="35" height="21" viewBox="0 0 35 21" fill="none" xmlns="http://www.w3.org/2000/svg">
<path fill-rule="evenodd" clip-rule="evenodd" d="M1.83284 0.106533C1.32751 0.244016 0.820666 0.600045 0.492256 1.04789C-0.011079 1.73426 1.98011e-05 1.57841 1.98011e-05 7.96686C1.98011e-05 13.8005 0.00381427 13.9215 0.19847 14.3415C0.486944 14.964 0.840302 15.3406 1.39638 15.6185L1.8871 15.8638H10.1064H18.3256L18.2515 15.4119C18.2107 15.1634 18.1747 14.7137 18.1717 14.4129L18.166 13.8658H10.2925C2.54544 13.8658 2.41595 13.8628 2.22926 13.6755C2.0439 13.4896 2.03954 13.3584 2.03954 7.93404C2.03954 2.67695 2.04874 2.37448 2.21304 2.22539C2.37241 2.08068 3.31135 2.06793 13.7807 2.06793H25.175L25.3226 2.27943C25.4408 2.4486 25.4703 2.78408 25.4703 3.9573V5.42385L25.9105 5.36334C26.1525 5.33004 26.6007 5.30283 26.9065 5.30283H27.4624L27.4603 3.61402C27.4585 2.18534 27.4316 1.8666 27.2853 1.54464C27.0278 0.978338 26.642 0.56703 26.0983 0.279314L25.6126 0.0223302L13.9447 0.00406256C4.7632 -0.0103993 2.18212 0.0114836 1.83284 0.106533ZM5.98834 3.92019C4.88159 4.3159 4.18066 5.64002 4.48772 6.7552C4.57376 7.06804 4.55223 7.1667 4.29288 7.64699C3.49519 9.1241 4.08086 10.933 5.59931 11.6824C6.30271 12.0296 7.38527 12.0156 8.12794 11.6499C9.08774 11.1771 9.63045 10.3467 9.70254 9.24056C9.75045 8.50528 9.64126 8.02633 9.30384 7.49114C9.15424 7.25395 9.11345 7.08973 9.16202 6.92028C9.60294 5.38056 8.43804 3.77263 6.89037 3.78471C6.5963 3.78699 6.19039 3.84798 5.98834 3.92019ZM20.3226 3.97366C19.1335 4.27318 18.0711 5.49197 18.0711 6.55664V6.82513H19.0557H20.0402L20.1596 6.53589C20.4091 5.93183 21.0624 5.78369 21.5737 6.21516C21.7342 6.35065 21.8656 6.52476 21.8656 6.60221C21.8656 6.71391 21.9219 6.70278 22.1383 6.54817C22.2884 6.44104 22.7134 6.20803 23.0828 6.03049L23.7546 5.70757L23.4901 5.28922C22.8235 4.23503 21.4877 3.68015 20.3226 3.97366ZM11.1462 5.20321V6.25427H12.5668H13.9873L13.6577 6.97974C13.4764 7.37878 13.3281 7.7213 13.3281 7.7409C13.3281 7.76049 13.5242 7.77657 13.764 7.77657C14.3065 7.77657 14.7012 8.00245 14.9027 8.42831C15.2185 9.09594 14.694 9.86851 13.9243 9.86936C13.5641 9.86984 12.9767 9.40316 12.9309 9.08024C12.9026 8.88063 12.8516 8.86949 11.8494 8.844L10.7977 8.81726L10.8682 9.33789C10.9983 10.2997 11.6514 11.1952 12.5886 11.6972C12.9354 11.8829 13.1372 11.9153 13.9447 11.9152C14.7885 11.9152 14.946 11.8873 15.3714 11.6622C15.9554 11.3529 16.5962 10.6737 16.8667 10.0768C17.0213 9.73569 17.0685 9.44321 17.0693 8.82316C17.0701 8.12433 17.0342 7.94336 16.8047 7.49114C16.6586 7.20333 16.4514 6.87347 16.344 6.75806L16.1488 6.54836L16.4102 5.93164C16.716 5.20997 16.6875 4.79647 16.3073 4.43797C16.065 4.20953 16.0551 4.20858 13.6051 4.18041L11.1462 4.15206V5.20321ZM7.24999 5.83896C7.35814 5.97683 7.44664 6.14999 7.44664 6.22382C7.44664 6.40602 7.01692 6.82513 6.83004 6.82513C6.74704 6.82513 6.57439 6.72 6.44633 6.59155C6.31827 6.46311 6.21344 6.28995 6.21344 6.2067C6.21344 5.99414 6.64184 5.58826 6.86628 5.58826C6.9692 5.58826 7.14195 5.7011 7.24999 5.83896ZM25.5048 7.34776C20.801 8.37379 18.5598 13.8453 21.19 17.8815C22.4602 19.8308 24.6319 21.0046 26.9594 21C28.1092 20.9977 28.9717 20.7957 29.9762 20.2936C31.0517 19.7562 31.7804 19.1712 32.3889 18.3572C33.3807 17.0305 33.8181 15.7287 33.8181 14.1037C33.8181 13.0505 33.603 11.993 33.2461 11.2912L33.0418 10.8896L34.0208 9.90419L35 8.91887L34.245 8.15715L33.4901 7.39552L32.6221 8.26257L31.7541 9.12952L31.1972 8.67397C29.7229 7.46812 27.4166 6.93084 25.5048 7.34776ZM7.24829 8.29539C7.78008 8.57122 7.84791 9.30849 7.37578 9.68098C6.93401 10.0295 6.32984 9.89581 6.07011 9.39203C5.88276 9.02858 5.96775 8.697 6.32595 8.39473C6.648 8.1229 6.86969 8.09902 7.24829 8.29539ZM28.4302 9.57366C29.0732 9.79667 29.7194 10.1634 30.0033 10.4664L30.2085 10.6855L28.599 12.2976L26.9896 13.9098L26.3239 13.2472L25.6582 12.5846L24.8982 13.3469L24.1383 14.1091L25.3579 15.3195C26.5453 16.4979 26.5884 16.5298 26.9912 16.5298C27.403 16.5298 27.4139 16.5208 29.4221 14.5146C30.7399 13.1981 31.4552 12.5465 31.4852 12.6355C32.2047 14.7709 31.2117 17.245 29.2073 18.3114C27.2844 19.3344 25.1741 19.0061 23.6129 17.441C22.8402 16.6663 22.4915 16.0128 22.2704 14.9249C22.0681 13.9305 22.2026 13.0505 22.7175 11.999C23.7574 9.87517 26.2492 8.81726 28.4302 9.57366Z" fill="#00A6CA"/>
</svg>
