<svg width="26" height="26" viewBox="0 0 26 26" fill="none" xmlns="http://www.w3.org/2000/svg">
<path fill-rule="evenodd" clip-rule="evenodd" d="M13 23.866C19.0011 23.866 23.866 19.0011 23.866 13C23.866 6.99889 19.0011 2.13403 13 2.13403C6.99889 2.13403 2.13403 6.99889 2.13403 13C2.13403 19.0011 6.99889 23.866 13 23.866ZM13 25C19.6274 25 25 19.6274 25 13C25 6.37258 19.6274 1 13 1C6.37258 1 1 6.37258 1 13C1 19.6274 6.37258 25 13 25Z" fill="#00A6CA" stroke="#00A6CA"/>
<path fill-rule="evenodd" clip-rule="evenodd" d="M12.662 5.03199C12.6452 5.04961 12.6479 5.46015 12.6682 5.94421L12.705 6.82445L12.935 6.84805C13.2254 6.87779 13.2557 6.77515 13.2571 5.75695L13.2581 5H12.9754C12.8199 5 12.6789 5.01444 12.662 5.03199ZM15.8488 5.71596C15.8146 5.81324 15.6763 6.20305 15.5414 6.58223C15.3046 7.24765 15.3008 7.27544 15.4342 7.378C15.7243 7.60136 15.7521 7.56899 16.2423 6.43627L16.4949 5.85291L16.2028 5.69601L15.9107 5.53918L15.8488 5.71596ZM9.66315 5.74445C9.53137 5.80493 9.42349 5.87248 9.42349 5.89445C9.42349 5.93241 10.1569 7.49841 10.1968 7.54546C10.2413 7.59825 10.6034 7.37365 10.6034 7.29322C10.6034 7.13414 10.037 5.66798 9.96904 5.65106C9.93261 5.6419 9.79493 5.68398 9.66315 5.74445ZM18.0502 8.14551L17.4279 8.8041L17.6162 9.00246L17.8046 9.20082L18.4258 8.64953C18.7674 8.34636 19.0563 8.05507 19.0676 8.00227C19.079 7.94948 18.9948 7.81191 18.8805 7.69654L18.6726 7.48685L18.0502 8.14551ZM7.03453 7.78644C6.92 7.91237 6.83822 8.04854 6.85282 8.08915C6.86742 8.12975 7.16542 8.41033 7.51503 8.7128L8.15069 9.26262L8.3231 9.06946L8.49544 8.8763L7.86914 8.21694L7.24285 7.55757L7.03453 7.78644ZM12.3686 8.72755C10.853 8.97661 9.55711 10.2054 9.09991 11.8267C9.02948 12.0765 8.98103 12.5298 8.98103 12.9387C8.98103 13.8468 9.18287 14.4785 9.94212 15.9467C10.7568 17.5222 10.7631 17.5445 10.8186 19.091C10.8594 20.2264 10.8879 20.4542 11.0224 20.7213C11.5327 21.7343 12.6884 22.2398 13.6916 21.889C14.1381 21.7329 14.7486 21.1807 14.9731 20.7301C15.1123 20.4505 15.1372 20.2419 15.1732 19.0522L15.2144 17.6935L15.8866 16.3349C16.2563 15.5877 16.6492 14.7142 16.7598 14.394C17.003 13.6899 17.0837 12.6807 16.9469 12.0557C16.4701 9.87835 14.4226 8.38991 12.3686 8.72755ZM13.9955 9.71835C14.5322 9.88845 15.22 10.3923 15.5631 10.8667C15.9536 11.4066 16.1481 11.9871 16.1902 12.7381C16.2383 13.5974 16.0758 14.1306 15.2536 15.812C14.8938 16.5479 14.5578 17.2985 14.507 17.48L14.4146 17.81H13.9101H13.4056V16.0338C13.4056 14.5498 13.4238 14.2418 13.5162 14.1611C13.5804 14.105 13.6268 13.9356 13.6268 13.7575C13.6268 13.3839 13.3088 12.9965 13.002 12.9965C12.6966 12.9965 12.3969 13.2015 12.3074 13.4716C12.1937 13.8151 12.2013 13.8686 12.4101 14.1925C12.5926 14.4756 12.5944 14.4955 12.5944 16.1442V17.81H12.0864H11.5785L11.5274 17.5233C11.4993 17.3657 11.2404 16.763 10.952 16.1841C9.77908 13.8291 9.64265 13.3864 9.79559 12.4318C10.1327 10.3274 12.0365 9.09749 13.9955 9.71835ZM19.5779 10.8066C18.8895 11.0786 18.8574 11.1014 18.901 11.2874C18.9261 11.3947 18.9731 11.5112 19.0055 11.5461C19.0536 11.5981 20.6082 11.1804 20.695 11.0922C20.7092 11.0778 20.6818 10.9414 20.634 10.7891C20.5793 10.6145 20.5016 10.5138 20.4238 10.5166C20.356 10.519 19.9753 10.6495 19.5779 10.8066ZM5.36581 10.789C5.29922 10.9733 5.2692 11.2109 5.31249 11.2109C5.32274 11.2109 5.67936 11.3157 6.10507 11.4438C6.53079 11.5719 6.90076 11.6767 6.9273 11.6767C6.97501 11.6767 7.15561 11.2003 7.1194 11.1701C7.07162 11.1302 5.57214 10.5898 5.50909 10.5898C5.46986 10.5898 5.4054 10.6794 5.36581 10.789ZM19.2145 14.0907C19.1958 14.225 19.2165 14.3441 19.2615 14.3612C19.3057 14.3779 19.6878 14.4455 20.1106 14.5114C20.9618 14.644 20.9979 14.631 21 14.1911C21.001 13.962 20.983 13.9467 20.6589 13.8999C20.4708 13.8727 20.0763 13.8505 19.7824 13.8505H19.248L19.2145 14.0907ZM5.31234 13.985C5.01472 14.0133 4.99901 14.0272 5.00004 14.2626C5.00203 14.7023 5.02924 14.7107 5.9598 14.5622C6.51435 14.4736 6.80312 14.3947 6.79825 14.3329C6.7942 14.2811 6.78594 14.1688 6.77982 14.0834C6.76972 13.9413 6.7206 13.9293 6.19725 13.9418C5.88289 13.9492 5.48475 13.9687 5.31234 13.985ZM14.3642 18.8969V19.1298H13H11.6358V18.8969V18.664H13H14.3642V18.8969ZM14.2905 20.2052C14.2905 20.3703 13.9271 20.8129 13.6615 20.9712C13.2766 21.2008 12.7996 21.2016 12.371 20.9737C12.0804 20.8191 11.7095 20.3883 11.7095 20.2052C11.7095 20.1688 12.2902 20.1391 13 20.1391C13.7098 20.1391 14.2905 20.1688 14.2905 20.2052Z" fill="#00A6CA" stroke="#00A6CA" stroke-width="0.5"/>
</svg>
