<svg width="29" height="28" viewBox="0 0 29 28" fill="none" xmlns="http://www.w3.org/2000/svg">
<path fill-rule="evenodd" clip-rule="evenodd" d="M3.27342 3.01065C1.61741 4.66644 0.196988 6.18019 0.116745 6.37465C0.0160692 6.61854 -0.0174897 9.62702 0.00835584 16.0951L0.0458387 25.4622L0.417825 26.0972C0.879256 26.8851 1.6028 27.4955 2.39656 27.767C3.30535 28.0777 19.3842 28.0777 20.293 27.767C21.0868 27.4955 21.8103 26.8851 22.2718 26.0972L22.6438 25.4622L22.6835 21.4561L22.7233 17.4501L21.2965 18.8735L19.8698 20.297V22.3402C19.8698 23.9695 19.8271 24.4444 19.6591 24.685L19.4485 24.9869H11.3537C3.99006 24.9869 3.24216 24.9667 3.07315 24.7624C2.92092 24.5783 2.88749 23.2393 2.88749 17.3275V10.117L5.39086 10.0453C8.0796 9.96815 8.43887 9.88762 9.28392 9.17264C9.52722 8.96677 9.89258 8.51442 10.0958 8.16759C10.4535 7.55691 10.4667 7.46212 10.5103 5.19429L10.5552 2.85177H14.9159C18.4653 2.85177 19.3257 2.88762 19.5395 3.04419C19.7752 3.21706 19.809 3.46041 19.8698 5.42379L19.9374 7.61096L21.339 6.19893L22.7405 4.78689L22.688 3.64958C22.6283 2.35692 22.3771 1.71052 21.6511 0.981958C20.6526 -0.0202341 20.8819 0.00638244 13.1785 0.00298748L6.28422 0L3.27342 3.01065ZM7.66783 4.80047C7.63657 6.08255 7.56919 6.67897 7.43793 6.83745C7.28137 7.02634 6.95187 7.06152 5.34214 7.06152H3.43214L5.45851 5.02454C6.57298 3.9042 7.53603 2.98756 7.59855 2.98756C7.66107 2.98756 7.69233 3.80331 7.66783 4.80047ZM21.0202 10.7278L15.203 16.5669L16.2514 17.6189L17.2997 18.6709L23.1498 12.7999L29 6.92898L27.9904 5.90886C27.4351 5.34774 26.9485 4.88874 26.9091 4.88874C26.8697 4.88874 24.2197 7.51631 21.0202 10.7278ZM5.93212 14.5983V16.0242H7.35295H8.77378V14.5983V13.1724H7.35295H5.93212V14.5983ZM12.3265 20.1238C12.0942 21.1156 11.9227 21.9456 11.9455 21.9684C11.9682 21.9912 12.7871 21.8088 13.7652 21.5629L15.5435 21.1157L14.1463 19.7182L12.749 18.3207L12.3265 20.1238ZM5.93212 20.5735V21.9993H7.35295H8.77378V20.5735V19.1476H7.35295H5.93212V20.5735Z" fill="#00A6CA"/>
</svg>
