<svg width="29" height="19" viewBox="0 0 29 19" fill="none" xmlns="http://www.w3.org/2000/svg">
<path fill-rule="evenodd" clip-rule="evenodd" d="M2.61338 0.073684C1.97495 0.202061 1.06639 0.770301 0.677449 1.28444C0.0707839 2.08648 0.0113803 2.45673 0.00550247 5.47436L0 8.27974L13.1625 8.31177L26.3251 8.34393L26.3577 13.6089C26.394 19.4639 26.3297 19.1018 27.2487 18.6291C27.7672 18.3624 28.3822 17.7172 28.7301 17.0752C28.9328 16.7011 28.9544 16.0829 28.9871 9.66806C29.0193 3.39712 29.0014 2.61197 28.8154 2.1199C28.5355 1.37877 27.9786 0.767526 27.2118 0.359569L26.5752 0.0208452L14.8196 0.00192891C8.354 -0.00841189 2.86124 0.0238716 2.61338 0.073684ZM26.1421 2.98903C26.3677 3.21653 26.3927 3.37896 26.361 4.40774L26.3251 5.56957H14.5069H2.68879L2.65289 4.40774C2.59487 2.52874 1.1558 2.73215 14.5069 2.73215C25.7896 2.73215 25.8896 2.73442 26.1421 2.98903ZM0.00275171 13.7981C0.00525291 16.156 0.03064 16.4709 0.26 16.9823C0.601538 17.7441 1.18194 18.3377 1.93843 18.699L2.56373 18.9975L13.0375 18.9987L23.5112 19V17.6759V16.3517H13.3758H3.24017L2.93328 16.0422C2.63001 15.7365 2.62626 15.7049 2.62626 13.457V11.1813H1.31313H0L0.00275171 13.7981Z" fill="#00A6CA"/>
</svg>
