<svg width="28" height="29" viewBox="0 0 28 29" fill="none" xmlns="http://www.w3.org/2000/svg">
<path fill-rule="evenodd" clip-rule="evenodd" d="M21.3097 0.167552C20.8855 0.348221 16.6316 4.39777 16.6316 4.62084C16.6316 4.69097 17.0356 5.14229 17.5294 5.62392L18.4273 6.49954L19.743 5.21184L21.0587 3.92413V13.8777V23.8313H22.315H23.5713V13.9638C23.5713 8.53671 23.6127 4.09634 23.6634 4.09634C23.714 4.09634 24.2916 4.62484 24.9471 5.27081L26.1389 6.44539L27.0695 5.53711L28 4.62895L25.8755 2.52952C24.5807 1.25027 23.5638 0.344227 23.2722 0.210194C22.6999 -0.0530566 21.8697 -0.0710294 21.3097 0.167552ZM15.794 16.7244V23.8313H17.0503H18.3067V16.7244V9.61743H17.0503H15.794V16.7244ZM10.5293 18.6626V23.8313H11.7857H13.042V18.6626V13.4939H11.7857H10.5293V18.6626ZM5.26466 20.6596V23.8313H6.52101H7.77735V20.6596V17.4879H6.52101H5.26466V20.6596ZM0 22.5979V23.8313H1.25634H2.51268V22.5979V21.3644H1.25634H0V22.5979ZM0 27.7666V29H11.7857H23.5713V27.7666V26.5331H11.7857H0V27.7666Z" fill="#00A6CA"/>
</svg>
