<svg width="17" height="20" viewBox="0 0 17 20" fill="none" xmlns="http://www.w3.org/2000/svg">
<path d="M1 3.50195V15.996" stroke="#2C2C2C" stroke-width="1.6" stroke-linecap="round"/>
<path d="M15.9998 7.25031V16.0003" stroke="#2C2C2C" stroke-width="1.6" stroke-linecap="round" stroke-linejoin="round"/>
<path d="M3.49976 1H9.74975" stroke="#2C2C2C" stroke-width="1.6" stroke-linecap="round" stroke-linejoin="round"/>
<path d="M3.49976 18.5H13.4998" stroke="#2C2C2C" stroke-width="1.6" stroke-linecap="round"/>
<path d="M15.9995 16.0003C16.0063 17.2489 14.7495 18.5003 13.4995 18.5003" stroke="#2C2C2C" stroke-width="1.6" stroke-linecap="round" stroke-linejoin="round"/>
<path d="M1 16.0003C1 17.2503 2.25 18.5003 3.5 18.5003" stroke="#2C2C2C" stroke-width="1.6" stroke-linecap="round" stroke-linejoin="round"/>
<path d="M1 3.4982C1 2.25 2.25 1.02789 3.5 1" stroke="#2C2C2C" stroke-width="1.6" stroke-linecap="round" stroke-linejoin="round"/>
<path d="M15.9932 7.25562L9.75 1" stroke="#2C2C2C" stroke-width="1.6" stroke-linecap="round" stroke-linejoin="round"/>
<path d="M9.75 4.75067C9.75391 5.99387 11.0051 7.25067 12.25 7.25067" stroke="#2C2C2C" stroke-width="1.6" stroke-linecap="round" stroke-linejoin="round"/>
<path d="M9.75 4.75V1" stroke="#2C2C2C" stroke-width="1.6" stroke-linecap="round" stroke-linejoin="round"/>
<path d="M12.2131 7.2868H15.9631" stroke="#2C2C2C" stroke-width="1.6" stroke-linecap="round" stroke-linejoin="round"/>
<path d="M4.49951 16H8.24951" stroke="#2C2C2C" stroke-width="1.6" stroke-linecap="round" stroke-linejoin="round"/>
<path d="M4.49951 13.5H10.7495" stroke="#2C2C2C" stroke-width="1.6" stroke-linecap="round" stroke-linejoin="round"/>
<path d="M4.49951 10.998H8.24951" stroke="#2C2C2C" stroke-width="1.6" stroke-linecap="round" stroke-linejoin="round"/>
</svg>
