<svg width="53" height="53" viewBox="0 0 53 53" fill="none" xmlns="http://www.w3.org/2000/svg">
<circle cx="26.5" cy="26.5" r="26.5" fill="#EDEDED"/>
<path fill-rule="evenodd" clip-rule="evenodd" d="M14.6134 17.0737C13.9749 17.2021 13.0664 17.7703 12.6774 18.2844C12.0708 19.0865 12.0114 19.4567 12.0055 22.4744L12 25.2797L25.1625 25.3118L38.3251 25.3439L38.3577 30.6089C38.394 36.4639 38.3297 36.1018 39.2487 35.6291C39.7672 35.3624 40.3822 34.7172 40.7301 34.0752C40.9328 33.7011 40.9544 33.0829 40.9871 26.6681C41.0193 20.3971 41.0014 19.612 40.8154 19.1199C40.5355 18.3788 39.9786 17.7675 39.2118 17.3596L38.5752 17.0208L26.8196 17.0019C20.354 16.9916 14.8612 17.0239 14.6134 17.0737ZM38.1421 19.989C38.3677 20.2165 38.3927 20.379 38.361 21.4077L38.3251 22.5696H26.5069H14.6888L14.6529 21.4077C14.5949 19.5287 13.1558 19.7322 26.5069 19.7322C37.7896 19.7322 37.8896 19.7344 38.1421 19.989ZM12.0028 30.7981C12.0053 33.156 12.0306 33.4709 12.26 33.9823C12.6015 34.7441 13.1819 35.3377 13.9384 35.699L14.5637 35.9975L25.0375 35.9987L35.5112 36V34.6759V33.3517H25.3758H15.2402L14.9333 33.0422C14.63 32.7365 14.6263 32.7049 14.6263 30.457V28.1813H13.3131H12L12.0028 30.7981Z" fill="#00A6CA"/>
</svg>
