<svg width="53" height="53" viewBox="0 0 53 53" fill="none" xmlns="http://www.w3.org/2000/svg">
<circle cx="26.5" cy="26.5" r="26.5" fill="#EDEDED"/>
<path fill-rule="evenodd" clip-rule="evenodd" d="M17.0477 16.7956C15.5059 18.3331 14.1834 19.7387 14.1087 19.9193C14.015 20.1458 13.9837 22.9394 14.0078 28.9454L14.0427 37.6435L14.389 38.2331C14.8186 38.9647 15.4923 39.5315 16.2313 39.7836C17.0774 40.0721 32.0474 40.0721 32.8935 39.7836C33.6325 39.5315 34.3062 38.9647 34.7358 38.2331L35.0821 37.6435L35.1192 33.9236L35.1562 30.2037L33.8278 31.5254L32.4994 32.8472V34.7445C32.4994 36.2574 32.4597 36.6984 32.3033 36.9218L32.1072 37.2021H24.5707C17.7149 37.2021 17.0186 37.1833 16.8612 36.9937C16.7195 36.8227 16.6884 35.5794 16.6884 30.0898V23.3943L19.0191 23.3278C21.5224 23.2561 21.8569 23.1814 22.6437 22.5175C22.8702 22.3263 23.2103 21.9063 23.3996 21.5842C23.7325 21.0171 23.7449 20.9291 23.7855 18.8233L23.8273 16.6481H27.8873C31.1918 16.6481 31.9929 16.6814 32.1919 16.8268C32.4114 16.9873 32.4429 17.2132 32.4994 19.0364L32.5624 21.0673L33.8674 19.7561L35.1722 18.445L35.1233 17.3889C35.0678 16.1886 34.8338 15.5883 34.1579 14.9118C33.2283 13.9812 33.4418 14.0059 26.2696 14.0028L19.8508 14L17.0477 16.7956ZM21.139 18.4576C21.1099 19.6481 21.0472 20.2019 20.925 20.3491C20.7792 20.5245 20.4724 20.5571 18.9737 20.5571H17.1954L19.0821 18.6656C20.1197 17.6253 21.0163 16.7742 21.0745 16.7742C21.1327 16.7742 21.1618 17.5316 21.139 18.4576ZM33.5706 23.9615L28.1545 29.3835L29.1306 30.3604L30.1066 31.3373L35.5533 25.8857L41 20.4341L40.06 19.4868C39.543 18.9658 39.0899 18.5395 39.0533 18.5395C39.0166 18.5395 36.5493 20.9794 33.5706 23.9615ZM19.523 27.5556V28.8796H20.8459H22.1687V27.5556V26.2316H20.8459H19.523V27.5556ZM25.4764 32.6864C25.2601 33.6073 25.1005 34.378 25.1216 34.3992C25.1428 34.4204 25.9053 34.251 26.8159 34.0227L28.4716 33.6074L27.1707 32.3098L25.8697 31.0121L25.4764 32.6864ZM19.523 33.1039V34.428H20.8459H22.1687V33.1039V31.7799H20.8459H19.523V33.1039Z" fill="#00A6CA"/>
</svg>
