<svg width="25" height="20" viewBox="0 0 25 20" fill="none" xmlns="http://www.w3.org/2000/svg">
<path fill-rule="evenodd" clip-rule="evenodd" d="M11.3546 0.027284C10.9152 0.146108 1.33338 4.08005 1.04435 4.26036C0.239169 4.76247 -0.140854 5.52969 0.0474771 6.27315C0.260417 7.11404 0.727886 7.49128 2.4216 8.18897C3.03963 8.4435 3.59645 8.67284 3.65883 8.69858C3.74782 8.73533 3.77234 9.87608 3.77234 13.9727V19.2H4.7712H5.77007V14.4145C5.77007 11.7166 5.80494 9.62904 5.85007 9.62904C5.89402 9.62904 7.13016 10.1247 8.59695 10.7304L11.2638 11.8317L12.0357 11.8365L12.8075 11.8412L15.5077 10.7351C16.9927 10.1267 18.2288 9.62904 18.2545 9.62904C18.2802 9.62904 18.3013 10.5816 18.3013 11.7459V13.8628L17.8246 13.6538C16.1165 12.905 13.9353 13.1611 12.4563 14.284L12.0357 14.6034L11.6151 14.284C10.7125 13.5987 9.63495 13.2407 8.47518 13.2407H7.7678L7.76807 14.2114L7.76826 15.182L8.42642 15.1918C9.60399 15.2095 10.2861 15.5972 11.3215 16.8368C11.5344 17.0918 11.6131 17.1233 12.0357 17.1233C12.4583 17.1233 12.5369 17.0918 12.7499 16.8368C13.4128 16.0429 13.9318 15.6053 14.4298 15.42C15.2502 15.1148 15.8216 15.0834 16.55 15.3034C17.298 15.5294 17.8119 15.88 18.2764 16.4815C18.4649 16.7255 18.713 16.9698 18.8277 17.0242C19.13 17.1678 19.5907 17.1458 19.8344 16.976C20.2817 16.6645 20.2989 16.4982 20.2998 12.4987L20.3008 8.77126L21.503 8.29082C23.2639 7.58717 23.8005 7.17291 24.0323 6.33816C24.1945 5.75424 23.8895 4.93448 23.3645 4.54306C22.8961 4.19381 22.5836 4.05648 17.5606 1.99231C13.1491 0.179426 12.7619 0.0368549 12.1719 0.00859343C11.8223 -0.00811062 11.4545 0.000286617 11.3546 0.027284ZM16.891 3.8619C19.4396 4.91118 21.6036 5.81031 21.6998 5.86006C21.8668 5.94629 21.8647 5.95568 21.6544 6.0634C20.8839 6.45825 12.274 9.89991 12.0568 9.89991C11.8122 9.89991 8.54483 8.62282 8.37593 8.46129C8.33579 8.42292 9.89829 7.74554 11.8481 6.95612C13.7979 6.1667 15.3937 5.49772 15.3943 5.46964C15.395 5.44156 14.8337 5.18883 14.1469 4.90802L12.8983 4.39742L9.24767 5.88056L5.59699 7.3637L3.9149 6.66791C2.98977 6.28525 2.23191 5.9472 2.23073 5.91659C2.22682 5.81284 11.716 1.96396 11.9875 1.95908C12.1408 1.95628 14.2552 2.77677 16.891 3.8619Z" fill="white"/>
</svg>
