<svg width="54" height="53" viewBox="0 0 54 53" fill="none" xmlns="http://www.w3.org/2000/svg">
<ellipse cx="26.6517" cy="26.5" rx="26.5863" ry="26.5" fill="#EDEDED"/>
<path fill-rule="evenodd" clip-rule="evenodd" d="M26.0366 12.007C24.6542 12.0949 23.4792 12.2594 22.2845 12.5322C20.5073 12.9381 18.6056 13.5896 16.9568 14.3576C16.3177 14.6553 16.194 14.7179 15.6618 15.0139L15.1143 15.3184L15.1236 22.0663L15.1329 28.8143L15.194 29.1411C15.3542 29.999 15.6689 30.8003 16.168 31.6211C17.4538 33.7357 19.9774 35.9876 23.5504 38.2089C24.4449 38.7649 25.7505 39.5026 26.4284 39.835L26.7649 40L27.3004 39.7145C29.8523 38.3542 32.1392 36.8136 33.8292 35.3162C36.2292 33.1899 37.7278 30.9639 38.1264 28.9339L38.1892 28.6141V21.9285V15.2429L37.7739 15.0148C36.6318 14.3873 35.206 13.7685 33.7323 13.2606C31.8791 12.622 30.1098 12.2269 28.3481 12.0585C27.9385 12.0193 26.3864 11.9847 26.0366 12.007ZM27.9065 14.5639C29.5276 14.6931 31.1753 15.0571 33.0126 15.6919C33.9005 15.9986 35.0845 16.4771 35.6358 16.7518L35.7399 16.8037L35.7327 22.666L35.7254 28.5284L35.6069 28.8857C34.8602 31.1362 32.4555 33.6191 28.7356 35.9806C27.9672 36.4685 26.8013 37.1478 26.7326 37.1478C26.6813 37.1478 25.4683 36.447 24.8047 36.034C23.2628 35.0743 21.9702 34.14 20.8325 33.1629C20.244 32.6575 19.1643 31.5549 18.8139 31.1013C18.1972 30.3033 17.7931 29.5326 17.6448 28.8714C17.5957 28.6527 17.5935 28.3864 17.5935 22.7432V16.8437L17.898 16.7012C18.5695 16.3869 19.5377 15.9968 20.2787 15.7418C22.2808 15.0529 24.0024 14.6878 25.8843 14.5532C26.2059 14.5301 27.5742 14.5374 27.9065 14.5639ZM25.2477 23.1537V28.9715H26.6595H28.0713V23.1537V17.3359H26.6595H25.2477V23.1537ZM25.2477 32.1448V33.5743H26.6595H28.0713V32.1448V30.7154H26.6595H25.2477V32.1448Z" fill="#00A6CA"/>
</svg>
