<svg width="53" height="53" viewBox="0 0 53 53" fill="none" xmlns="http://www.w3.org/2000/svg">
<circle cx="26.5" cy="26.5" r="26.5" fill="#EDEDED"/>
<path fill-rule="evenodd" clip-rule="evenodd" d="M25.2469 17.8813L11.5009 17.8813V19.6338L23.4277 19.6338C23.9698 18.987 24.5798 18.3992 25.2469 17.8813ZM22.4556 20.9738L9.7485 20.9738L9.74851 22.7262L21.5569 22.7262C21.8083 22.1147 22.1095 21.5288 22.4556 20.9738ZM21.0987 24.0663H7.99609V25.8187H20.7565C20.8268 25.2197 20.942 24.6344 21.0987 24.0663ZM20.6754 27.1588H7.99609V28.9112H20.797C20.7168 28.3558 20.6753 27.7879 20.6753 27.2104C20.6753 27.1932 20.6753 27.176 20.6754 27.1588ZM21.0708 30.2513L9.74851 30.2513L9.74851 32.0037L21.6892 32.0037C21.439 31.4414 21.2315 30.8559 21.0708 30.2513ZM22.3921 33.3438L11.5009 33.3438V35.0962L23.6961 35.0962C23.2098 34.5549 22.7727 33.9684 22.3921 33.3438Z" fill="#00A6CA"/>
<path fill-rule="evenodd" clip-rule="evenodd" d="M31.2346 16.1389C27.0664 17.0169 23.7446 20.2334 22.6514 24.4503C22.3097 25.7681 22.2214 27.8762 22.4523 29.2048C23.4091 34.7114 28.1212 38.7042 33.6629 38.7042C36.0213 38.7042 38.783 37.7876 40.485 36.4399L40.8731 36.1327L40.0954 35.3474L39.3177 34.5622L38.7954 34.9194C36.7272 36.334 33.9082 36.8332 31.48 36.215C29.8107 35.7899 28.6201 35.1353 27.3797 33.9608C26.0662 32.7171 25.1604 31.1518 24.7324 29.3865C24.4625 28.2735 24.4342 26.4957 24.6693 25.4306C25.4383 21.9477 27.9856 19.2821 31.4338 18.3519C32.6613 18.0207 34.6645 18.0207 35.8919 18.3519C39.3402 19.2821 41.8875 21.9477 42.6564 25.4306C42.8916 26.4957 42.8632 28.2735 42.5934 29.3865C42.3573 30.3599 41.7772 31.6988 41.2724 32.4353C41.0996 32.6875 40.9582 32.9325 40.9582 32.9797C40.9582 33.027 41.2958 33.4023 41.7086 33.8138L42.4589 34.562L42.9058 33.9527C43.8578 32.6545 44.575 30.9225 44.8748 29.1972C45.1041 27.8775 45.015 25.7643 44.6749 24.4524C43.5715 20.1965 40.2443 16.9955 36.0273 16.1328C34.6475 15.8505 32.5911 15.8532 31.2346 16.1389ZM32.5483 22.5336V23.6524H33.6629H34.7774V22.5336V21.4148H33.6629H32.5483V22.5336ZM32.5483 29.4498V33.0097H33.6629H34.7774V29.4498V25.89H33.6629H32.5483V29.4498Z" fill="#00A6CA"/>
</svg>
