<svg width="26" height="26" viewBox="0 0 26 26" fill="none" xmlns="http://www.w3.org/2000/svg">
<path d="M12.1105 15.7981C12.1236 15.0228 12.2287 14.3985 12.4259 13.9254C12.623 13.4523 13.0468 12.8971 13.6973 12.2597C14.3478 11.6158 14.7651 11.1624 14.9491 10.8995C15.1396 10.6301 15.2842 10.3377 15.3827 10.0223C15.4879 9.70036 15.5404 9.33568 15.5404 8.92828C15.5404 8.10693 15.3203 7.46298 14.8801 6.99645C14.4464 6.52335 13.8386 6.2868 13.0567 6.2868C12.2682 6.2868 11.6308 6.51349 11.1445 6.96688C10.6649 7.4137 10.4185 8.02151 10.4053 8.7903H9.23242C9.24556 7.71268 9.61025 6.85189 10.3265 6.20795C11.0427 5.55744 11.9528 5.23218 13.0567 5.23218C14.1868 5.23218 15.0772 5.56401 15.7277 6.22766C16.3848 6.88475 16.7133 7.77838 16.7133 8.90857C16.7133 9.61822 16.5524 10.2852 16.2304 10.9094C15.9084 11.5271 15.2973 12.2499 14.3971 13.0778C13.6546 13.702 13.2834 14.6088 13.2834 15.7981H12.1105ZM11.9528 19.0901C11.9528 18.8667 12.0217 18.6794 12.1597 18.5283C12.3043 18.3706 12.5047 18.2918 12.761 18.2918C13.0107 18.2918 13.2078 18.3706 13.3523 18.5283C13.5035 18.6794 13.579 18.8667 13.579 19.0901C13.579 19.3069 13.5035 19.4909 13.3523 19.6421C13.2078 19.7866 13.0107 19.8589 12.761 19.8589C12.5047 19.8589 12.3043 19.7866 12.1597 19.6421C12.0217 19.4909 11.9528 19.3069 11.9528 19.0901Z" fill="#00A6CA" stroke="#00A6CA"/>
<path fill-rule="evenodd" clip-rule="evenodd" d="M13 23.866C19.0011 23.866 23.866 19.0011 23.866 13C23.866 6.99889 19.0011 2.13403 13 2.13403C6.99889 2.13403 2.13403 6.99889 2.13403 13C2.13403 19.0011 6.99889 23.866 13 23.866ZM13 25C19.6274 25 25 19.6274 25 13C25 6.37258 19.6274 1 13 1C6.37258 1 1 6.37258 1 13C1 19.6274 6.37258 25 13 25Z" fill="#00A6CA" stroke="#00A6CA"/>
</svg>
