<svg width="31" height="26" viewBox="0 0 31 26" fill="none" xmlns="http://www.w3.org/2000/svg">
<path fill-rule="evenodd" clip-rule="evenodd" d="M2.25045 0.0557878C2.25045 0.086471 2.1745 0.111576 2.08167 0.111576C1.98884 0.111576 1.91289 0.13668 1.91289 0.167363C1.91289 0.198047 1.86225 0.223151 1.80036 0.223151C1.73848 0.223151 1.68784 0.248256 1.68784 0.278939C1.68784 0.309622 1.63721 0.334727 1.57532 0.334727C1.51343 0.334727 1.46279 0.359831 1.46279 0.390514C1.46279 0.421198 1.42442 0.446302 1.3775 0.446302C1.26633 0.446302 0.450091 1.25567 0.450091 1.36591C0.450091 1.41243 0.424773 1.45048 0.393829 1.45048C0.362886 1.45048 0.337568 1.50069 0.337568 1.56206C0.337568 1.62342 0.31225 1.67363 0.281307 1.67363C0.250363 1.67363 0.225045 1.72384 0.225045 1.78521C0.225045 1.84658 0.199728 1.89678 0.168784 1.89678C0.13784 1.89678 0.112523 1.9972 0.112523 2.11994C0.112523 2.24267 0.0872051 2.34309 0.0562613 2.34309C0.0190163 2.34309 0 5.28126 0 11.046C0 16.8107 0.0190163 19.7489 0.0562613 19.7489C0.0872051 19.7489 0.112523 19.8242 0.112523 19.9162C0.112523 20.0083 0.13784 20.0836 0.168784 20.0836C0.199728 20.0836 0.225045 20.1534 0.225045 20.2386C0.225045 20.3297 0.271517 20.4269 0.337568 20.4741C0.399456 20.5183 0.450091 20.5937 0.450091 20.6415C0.450091 20.6893 0.500726 20.7646 0.562613 20.8088C0.624501 20.8531 0.675136 20.9222 0.675136 20.9625C0.675136 21.0576 1.04309 21.4225 1.13907 21.4225C1.17969 21.4225 1.2494 21.4727 1.29401 21.5341C1.33863 21.5954 1.42015 21.6457 1.47523 21.6457C1.53025 21.6457 1.57532 21.6708 1.57532 21.7014C1.57532 21.7321 1.62595 21.7572 1.68784 21.7572C1.74973 21.7572 1.80036 21.7823 1.80036 21.813C1.80036 21.8437 1.851 21.8688 1.91289 21.8688C1.97477 21.8688 2.02541 21.8939 2.02541 21.9246C2.02541 21.9553 2.152 21.9804 2.30672 21.9804C2.46143 21.9804 2.58802 22.0055 2.58802 22.0362C2.58802 22.073 4.79319 22.092 9.09099 22.092H15.594L15.358 21.827C15.0008 21.4259 14.4996 20.6448 14.258 20.1128L14.042 19.6373H8.39684H2.75169L2.61362 19.5003C2.53767 19.425 2.4755 19.2995 2.4755 19.2214C2.4755 19.1433 2.45018 19.0794 2.41924 19.0794C2.38199 19.0794 2.36298 16.3644 2.36298 11.046C2.36298 5.72756 2.38199 3.01254 2.41924 3.01254C2.45018 3.01254 2.4755 2.94866 2.4755 2.87056C2.4755 2.71396 2.70195 2.45466 2.83867 2.45466C2.88649 2.45466 2.92559 2.42956 2.92559 2.39887C2.92559 2.36183 6.95767 2.34309 14.9093 2.34309H26.8929V2.11994C26.8929 1.9972 26.8676 1.89678 26.8367 1.89678C26.8057 1.89678 26.7804 1.84658 26.7804 1.78521C26.7804 1.72384 26.7551 1.67363 26.7241 1.67363C26.6932 1.67363 26.6679 1.62342 26.6679 1.56206C26.6679 1.50069 26.6426 1.45048 26.6116 1.45048C26.5807 1.45048 26.5554 1.41243 26.5554 1.36591C26.5554 1.25567 25.7391 0.446302 25.6279 0.446302C25.581 0.446302 25.5427 0.421198 25.5427 0.390514C25.5427 0.359831 25.492 0.334727 25.4301 0.334727C25.3682 0.334727 25.3176 0.309622 25.3176 0.278939C25.3176 0.248256 25.267 0.223151 25.2051 0.223151C25.1432 0.223151 25.0926 0.198047 25.0926 0.167363C25.0926 0.13668 25.0166 0.111576 24.9238 0.111576C24.8309 0.111576 24.755 0.086471 24.755 0.0557878C24.755 0.0188005 20.9667 0 13.5027 0C6.0387 0 2.25045 0.0188005 2.25045 0.0557878ZM4.951 6.19244V7.36399H6.13249H7.31397V6.19244V5.0209H6.13249H4.951V6.19244ZM9.902 6.19244V7.36399H15.9782H22.0544V6.19244V5.0209H15.9782H9.902V6.19244ZM24.6425 7.07857V9.13625L24.9515 9.2606C25.3738 9.43059 26.2141 9.92911 26.6475 10.2668L27.0054 10.5458V7.78334V5.0209H25.824H24.6425V7.07857ZM4.951 11.1018V12.2733H6.13249H7.31397V11.1018V9.93022H6.13249H4.951V11.1018ZM9.902 11.1018V12.2733H12.3426H14.7831L15.1104 11.841C15.514 11.3081 16.2162 10.6063 16.7321 10.2205L17.1202 9.93022H13.5111H9.902V11.1018ZM20.8448 10.1294C20.2813 10.1968 19.9032 10.2816 19.4383 10.4447C19.0931 10.5658 18.592 10.7942 18.5201 10.8631C18.4791 10.9023 18.4218 10.9344 18.3926 10.9344C18.3351 10.9344 17.7842 11.2832 17.5555 11.4644C16.9633 11.9334 15.922 13.117 15.922 13.3209C15.922 13.3533 15.903 13.3881 15.8798 13.3984C15.8258 13.4222 15.5281 14.021 15.5281 14.1059C15.5281 14.1412 15.5028 14.1701 15.4719 14.1701C15.4409 14.1701 15.4156 14.2076 15.4156 14.2536C15.4156 14.2995 15.3676 14.4814 15.309 14.658C15.0578 15.4143 15.0042 15.7865 15.0055 16.7676C15.0063 17.3185 15.0335 17.8002 15.0701 17.9113C15.1049 18.0168 15.173 18.2538 15.2213 18.4379C15.2696 18.622 15.3373 18.8793 15.3718 19.0097C15.4063 19.1401 15.4556 19.2468 15.4813 19.2468C15.5071 19.2468 15.5281 19.2757 15.5281 19.3109C15.5281 19.3989 15.8228 19.9955 15.8777 20.0185C15.902 20.0288 15.922 20.0689 15.922 20.1076C15.922 20.1851 16.5464 21.0168 16.8045 21.283C17.0273 21.5129 17.4387 21.8738 17.6313 22.0083C17.7192 22.0696 17.8209 22.145 17.8575 22.1756C17.9644 22.2653 18.119 22.3568 18.5381 22.5781C19.7428 23.2144 21.2465 23.487 22.494 23.2952C24.4853 22.9891 25.8039 22.2224 27.1081 20.6127C27.1334 20.5816 27.2273 20.4309 27.3167 20.278C27.4063 20.125 27.4994 19.9915 27.5238 19.9813C27.5481 19.9711 27.5681 19.9385 27.5681 19.909C27.5681 19.8795 27.6532 19.6744 27.7572 19.4534C27.8613 19.2324 27.9641 18.9888 27.9858 18.9121C28.0075 18.8353 28.0478 18.7224 28.0754 18.661C28.1029 18.5996 28.1773 18.2935 28.2406 17.9808C28.3661 17.3609 28.3954 16.1906 28.2969 15.7321C28.2672 15.5941 28.2144 15.3305 28.1797 15.1464C28.145 14.9623 28.0979 14.7865 28.0751 14.7559C28.0523 14.7252 28.0168 14.63 27.9962 14.5444C27.9755 14.4588 27.8707 14.2026 27.7633 13.9752C27.6559 13.7477 27.5681 13.5374 27.5681 13.5079C27.5681 13.4783 27.5481 13.4458 27.5238 13.4355C27.4994 13.4253 27.4061 13.2914 27.3165 13.138C27.2268 12.9846 27.1265 12.83 27.0935 12.7943C27.0605 12.7587 26.9454 12.6206 26.8375 12.4875C26.1481 11.6363 25.0434 10.8508 24.0517 10.5068C23.3431 10.2609 23.1079 10.2063 22.4094 10.1253C21.5938 10.0307 21.6717 10.0305 20.8448 10.1294ZM22.6266 11.8554C23.1034 11.9681 23.3327 12.0407 23.6016 12.1642C23.7254 12.221 23.89 12.295 23.9673 12.3286C24.329 12.4856 24.7674 12.8004 25.1424 13.1723C25.4692 13.4962 25.8802 14.0164 25.8802 14.1059C25.8802 14.1361 25.8992 14.1691 25.9224 14.1794C25.9939 14.2109 26.3766 15.0233 26.4173 15.2301C26.4385 15.3375 26.4768 15.4513 26.5025 15.4831C26.6058 15.611 26.67 16.704 26.6089 17.2942C26.5758 17.6145 26.5284 17.9024 26.5036 17.934C26.4789 17.9657 26.4419 18.0792 26.4213 18.1863C26.3868 18.3663 26.0171 19.1832 25.9414 19.2468C25.9231 19.2621 25.8728 19.3426 25.8297 19.4257C25.7519 19.5755 25.4524 19.9448 25.2304 20.1646C24.9633 20.4291 24.6438 20.6973 24.5955 20.6973C24.567 20.6973 24.51 20.7375 24.4688 20.7867C24.4276 20.8359 24.3423 20.8997 24.2791 20.9284C24.2159 20.9572 24.025 21.0545 23.8548 21.1448C23.6846 21.2352 23.5062 21.3095 23.4582 21.31C23.4102 21.3105 23.3469 21.334 23.3175 21.3622C23.2881 21.3904 23.0405 21.4657 22.7673 21.5296C22.1615 21.6711 21.2222 21.6862 20.7414 21.562C20.5632 21.5159 20.3781 21.4783 20.3301 21.4783C20.245 21.4783 20.0684 21.4095 19.6009 21.1943C19.4737 21.1357 19.3524 21.0878 19.3313 21.0878C19.3102 21.0878 19.2623 21.062 19.225 21.0305C19.1876 20.999 19.0304 20.8936 18.8757 20.7963C18.6394 20.6476 17.8311 19.8859 17.6371 19.6291C17.5105 19.4615 17.1679 18.8578 17.1301 18.7357C17.1078 18.6639 17.0713 18.5801 17.0489 18.5494C17.0264 18.5187 16.968 18.3681 16.9189 18.2147C16.5861 17.1737 16.6544 15.6961 17.0766 14.8032C17.1223 14.7065 17.1597 14.6137 17.1597 14.597C17.1597 14.5276 17.578 13.8597 17.6472 13.8186C17.6885 13.7941 17.7223 13.7437 17.7223 13.7066C17.7223 13.6695 17.9186 13.4556 18.1583 13.2314C18.7031 12.7218 18.7149 12.7122 18.9882 12.5506C19.112 12.4774 19.2217 12.3977 19.232 12.3733C19.2423 12.349 19.2775 12.3291 19.3102 12.3291C19.3429 12.3291 19.4737 12.2821 19.6009 12.2247C20.1107 11.9943 20.2498 11.9461 20.5136 11.9083C20.6648 11.8866 20.8265 11.8477 20.873 11.8218C21.0175 11.741 22.242 11.7645 22.6266 11.8554ZM4.951 16.0111V17.1826H6.13249H7.31397V16.0111V14.8395H6.13249H4.951V16.0111ZM9.902 16.0111V17.1826H11.7024H13.5027L13.5031 16.5829C13.5032 16.253 13.5412 15.7343 13.5875 15.4302C13.6337 15.126 13.6715 14.8687 13.6715 14.8583C13.6715 14.848 12.8234 14.8395 11.7868 14.8395H9.902V16.0111ZM28.0059 22.2954C27.6825 22.6398 27.1219 23.1757 27.0631 23.1967C27.0371 23.206 27.6481 23.8405 28.4209 24.6068L29.8259 26L30.413 25.4193C30.7359 25.0999 31 24.8242 31 24.8065C31 24.7888 30.3806 24.1588 29.6235 23.4065L28.247 22.0387L28.0059 22.2954Z" fill="#00A6CA"/>
</svg>
