<svg width="25" height="20" viewBox="0 0 25 20" fill="none" xmlns="http://www.w3.org/2000/svg">
<path fill-rule="evenodd" clip-rule="evenodd" d="M11.3391 0.153755C11.0905 0.255913 9.14932 1.89271 5.60036 4.99267L0.237305 9.67717L0.809193 10.4269C1.12377 10.8392 1.40149 11.1793 1.42638 11.1826C1.45118 11.1859 1.96055 10.7608 2.55818 10.238C3.1559 9.71532 3.66837 9.31243 3.69714 9.34274C3.72581 9.37316 3.74967 11.2451 3.75018 13.5028L3.75104 17.6076L3.95178 18.0635C4.17189 18.5631 4.61253 19.0224 5.10881 19.2694C5.40479 19.4167 5.935 19.4286 12.2316 19.4286H19.0347L19.4959 19.1585C19.7495 19.0099 20.0681 18.7459 20.2039 18.5718C20.6823 17.9581 20.7139 17.711 20.7139 14.5876V11.7365L19.8312 10.9639L18.9486 10.1913L18.9055 13.702C18.8645 17.0438 18.8544 17.2189 18.6953 17.3419C18.5595 17.4467 18.0296 17.471 15.875 17.471H13.2219V15.4679V13.4648H12.2747H11.3274V15.4679V17.471H8.57665C5.83166 17.471 5.82555 17.4706 5.69181 17.2686C5.57452 17.0916 5.55825 16.4742 5.56204 12.3292L5.56634 7.59214L8.75758 4.81513C10.5127 3.28777 12.0224 2.00852 12.1126 1.97247C12.2027 1.93632 12.3632 1.94443 12.4693 1.9905C12.5754 2.03657 15.0043 4.1236 17.8668 6.62838C21.6269 9.91836 23.1003 11.1571 23.1752 11.0914C23.2323 11.0412 23.5118 10.7028 23.7961 10.3393L24.3133 9.67835L21.7816 7.46794L19.25 5.25754V2.669V0.0805514H18.3476H17.4452L17.4218 1.85838L17.3985 3.63613L15.4669 1.95235C14.1305 0.787551 13.4158 0.225502 13.148 0.12899C12.6445 -0.0523807 11.8132 -0.0409996 11.3391 0.153755ZM11.3274 8.86683V9.82285H12.2747H13.2219V8.86683V7.91081H12.2747H11.3274V8.86683Z" fill="white"/>
</svg>
