<svg width="27" height="27" viewBox="0 0 27 27" fill="none" xmlns="http://www.w3.org/2000/svg">
<path d="M13.5 0C6.04403 0 0 6.04403 0 13.5C0 20.956 6.04403 27 13.5 27C20.956 27 27 20.956 27 13.5C27 6.04403 20.956 0 13.5 0Z" fill="#EAEAEA"/>
<path d="M13.5092 10C13.9187 10 14.2687 9.85046 14.5617 9.55388C14.8539 9.25647 15 8.90226 15 8.48956C15 8.0777 14.8507 7.72598 14.552 7.43526C14.2534 7.14453 13.8994 7 13.4908 7C13.0813 7 12.7305 7.14871 12.4383 7.44528C12.1469 7.74269 12 8.09774 12 8.50961C12 8.92147 12.1501 9.27318 12.4488 9.56475C12.7458 9.85547 13.0998 10 13.5092 10Z" fill="#989898"/>
<path d="M15 21L12 21L12 12L15 12L15 21Z" fill="#989898"/>
</svg>
