<svg width="24" height="24" viewBox="0 0 24 24" fill="none" xmlns="http://www.w3.org/2000/svg">
<path fill-rule="evenodd" clip-rule="evenodd" d="M9.23463 1.1389C5.06636 2.01685 1.74465 5.23342 0.651357 9.4503C0.309692 10.7681 0.221439 12.8762 0.452255 14.2048C1.40906 19.7114 6.12124 23.7042 11.6629 23.7042C14.0213 23.7042 16.783 22.7876 18.485 21.4399L18.8731 21.1327L18.0954 20.3474L17.3177 19.5622L16.7954 19.9194C14.7272 21.334 11.9082 21.8332 9.48004 21.215C7.81072 20.7899 6.62006 20.1353 5.37965 18.9608C4.06619 17.7171 3.16045 16.1518 2.73235 14.3865C2.46253 13.2735 2.43416 11.4957 2.66933 10.4306C3.43828 6.94774 5.98557 4.28213 9.43384 3.35189C10.6613 3.02073 12.6645 3.02073 13.8919 3.35189C17.3402 4.28213 19.8875 6.94774 20.6564 10.4306C20.8916 11.4957 20.8632 13.2735 20.5934 14.3865C20.3573 15.3599 19.7772 16.6988 19.2724 17.4353C19.0996 17.6875 18.9582 17.9325 18.9582 17.9797C18.9582 18.027 19.2958 18.4023 19.7086 18.8138L20.4589 19.562L20.9058 18.9527C21.8578 17.6545 22.575 15.9225 22.8748 14.1972C23.1041 12.8775 23.015 10.7643 22.6749 9.45244C21.5715 5.1965 18.2443 1.99549 14.0273 1.13279C12.6475 0.850549 10.5911 0.853193 9.23463 1.1389ZM10.5483 7.53358V8.65239H11.6629H12.7774V7.53358V6.41478H11.6629H10.5483V7.53358ZM10.5483 14.4498V18.0097H11.6629H12.7774V14.4498V10.89H11.6629H10.5483V14.4498Z" fill="#00A6CA"/>
</svg>
