<svg width="26" height="26" viewBox="0 0 26 26" fill="none" xmlns="http://www.w3.org/2000/svg">
<path fill-rule="evenodd" clip-rule="evenodd" d="M13 23.866C19.0011 23.866 23.866 19.0011 23.866 13C23.866 6.99889 19.0011 2.13403 13 2.13403C6.99889 2.13403 2.13403 6.99889 2.13403 13C2.13403 19.0011 6.99889 23.866 13 23.866ZM13 25C19.6274 25 25 19.6274 25 13C25 6.37258 19.6274 1 13 1C6.37258 1 1 6.37258 1 13C1 19.6274 6.37258 25 13 25Z" fill="#707070" stroke="#00A6CA"/>
<path fill-rule="evenodd" clip-rule="evenodd" d="M12.2204 6.05049C12.1785 6.09205 12.1441 6.35788 12.1441 6.64129V7.15642H9.08981C6.50627 7.15642 6.01494 7.18104 5.9016 7.3163C5.67332 7.58873 5.95789 7.79593 6.56051 7.79593C6.84928 7.79593 7.08553 7.83292 7.08553 7.87801C7.08553 7.9232 6.60055 9.15416 6.00772 10.6136C4.84371 13.4792 4.82864 13.5558 5.25959 14.4056C6.202 16.2641 8.92083 16.3473 9.90585 14.5479C10.448 13.5575 10.4444 13.5348 9.31464 10.7685C8.75465 9.39738 8.26299 8.16771 8.22188 8.03575L8.14729 7.79593H10.1458H12.1441V12.6882V17.5806L11.5791 17.7097C10.3688 17.9864 9.53206 18.7343 9.51591 19.5539L9.50719 20H12.467H15.4268L15.4561 19.6269C15.5165 18.8594 14.6986 18.0818 13.49 17.7579L12.7899 17.5702V12.6831V7.79593H14.781C16.4385 7.79593 16.7722 7.82151 16.7722 7.94878C16.7722 8.03287 16.6533 8.38056 16.508 8.72152C15.6007 10.8503 14.7273 13.1835 14.7283 13.476C14.7298 13.9714 15.17 14.8322 15.6235 15.2264C16.0017 15.5554 16.888 15.8964 17.3642 15.8964C17.8403 15.8964 18.7266 15.5554 19.1048 15.2264C19.5608 14.8301 19.9985 13.9707 20 13.4691C20.0006 13.2734 19.5523 12.0192 18.9786 10.6121C18.4162 9.23271 17.9561 8.03479 17.9561 7.95006C17.9561 7.83601 18.0971 7.79593 18.4976 7.79593C19.0789 7.79593 19.2814 7.61335 19.0312 7.31491C18.9194 7.18147 18.4168 7.15642 15.8498 7.15642H12.8012L12.7686 6.59684C12.7414 6.12755 12.7007 6.03226 12.5164 6.00615C12.3955 5.98899 12.2624 6.00902 12.2204 6.05049ZM18.268 10.5997C18.7476 11.7899 19.14 12.7971 19.14 12.838C19.14 12.8787 18.3409 12.912 17.3642 12.912C16.1837 12.912 15.5883 12.8741 15.5883 12.799C15.5883 12.7367 15.9444 11.8135 16.3797 10.7472C16.8149 9.6809 17.2009 8.72451 17.2374 8.62197C17.2737 8.51944 17.3243 8.43545 17.3498 8.43545C17.3752 8.43545 17.7884 9.40932 18.268 10.5997ZM7.9838 9.2082C8.8372 11.2625 9.45402 12.8404 9.41764 12.8763C9.39494 12.8989 8.57221 12.9042 7.58934 12.8881L5.80248 12.8588L6.67589 10.7004C7.15624 9.51324 7.58482 8.54203 7.6282 8.54203C7.67157 8.54203 7.83162 8.84186 7.9838 9.2082ZM9.56058 13.7381C9.55939 14.3063 8.62431 15.1235 7.85917 15.2252C7.09242 15.327 6.20017 14.8659 5.84391 14.1837C5.51144 13.547 5.49864 13.5516 7.62368 13.5516C9.3972 13.5516 9.56101 13.5673 9.56058 13.7381ZM19.2663 13.818C19.1983 14.2307 18.7576 14.7305 18.231 14.9923C17.3179 15.4462 16.5905 15.3019 15.8842 14.5268C15.6429 14.262 15.4806 13.9759 15.4806 13.8153V13.5467L17.3911 13.5758C19.2335 13.6038 19.3002 13.6124 19.2663 13.818ZM13.5216 18.4144C14.0535 18.5845 14.7272 19.0801 14.7272 19.3012C14.7272 19.3767 13.9824 19.4138 12.467 19.4138C11.2239 19.4138 10.2068 19.3748 10.2068 19.3271C10.2068 19.2045 10.7476 18.7199 11.0678 18.5557C11.7292 18.2162 12.7228 18.1589 13.5216 18.4144Z" fill="#707070" stroke="#00A6CA" stroke-width="0.5"/>
</svg>
