<svg width="53" height="53" viewBox="0 0 53 53" fill="none" xmlns="http://www.w3.org/2000/svg">
<circle cx="26.5" cy="26.5" r="26.5" fill="#EDEDED"/>
<path fill-rule="evenodd" clip-rule="evenodd" d="M25.3191 12.2029V13.4057L25.0166 13.4782C24.0838 13.7019 23.1484 14.4586 22.6638 15.3816C22.4449 15.7985 22.4049 16.0351 22.4049 16.9152C22.4049 17.7899 22.4451 18.0309 22.6568 18.4263C23.0453 19.1517 23.6278 19.727 24.3114 20.0603C24.856 20.3257 25.0858 20.3681 26.144 20.3983C27.5318 20.4378 27.9051 20.5469 28.129 20.9782C28.3705 21.4431 28.3229 21.803 27.9681 22.1988L27.6474 22.5565L25.2183 22.5898L22.7893 22.6231V23.8222V25.0212H24.0542H25.3191V26.2261V27.4311H26.529H27.7389V26.2228C27.7389 25.1696 27.7636 25.006 27.9314 24.9493C29.1326 24.5442 29.8487 24.0036 30.3296 23.1392C30.6246 22.6087 30.6537 22.4634 30.6533 21.5159C30.6531 20.6362 30.613 20.399 30.3942 19.9823C30.0389 19.3057 29.439 18.7032 28.7838 18.365C28.3049 18.1177 28.0514 18.0727 26.8201 18.0159L25.4063 17.9506L25.0878 17.5954C24.645 17.1021 24.662 16.6714 25.1431 16.1922L25.5171 15.8198H27.8929H30.2687V14.6148V13.4099H29.0038H27.7389V12.2049V11H26.529H25.3191V12.2029ZM22.0193 30.1068C21.2749 30.3125 20.6014 30.6415 19.9362 31.1248L19.3379 31.5595L18.9906 31.2136C18.4227 30.648 17.9038 30.4615 16.7508 30.4086C16.1666 30.3818 15.4646 30.4174 15.1366 30.4905C14.1491 30.7106 13.3252 31.4805 13.1515 32.3456L13.0825 32.689H15.1233C16.8318 32.689 17.1921 32.7171 17.3369 32.8611C17.4855 33.0092 17.5097 33.4506 17.5097 36.0159C17.5097 38.1897 17.4739 39.0342 17.3777 39.13C17.2981 39.2092 16.9133 39.2615 16.4097 39.2615C15.9062 39.2615 15.5213 39.2092 15.4418 39.13C15.3491 39.0377 15.3098 38.4192 15.3098 37.0488V35.0989H14.1549H13V37.1055C13 39.5404 13.112 40.036 13.8221 40.7431C14.4237 41.3424 15.1173 41.5618 16.4097 41.5618C17.6376 41.5618 18.3751 41.3424 18.9372 40.8097L19.3754 40.3947L19.7349 40.6888C20.3194 41.1669 21.2583 41.6486 21.9599 41.8303C22.4686 41.962 23.242 42 25.4112 42H28.207L33.3045 39.7431C38.9646 37.2371 39.1219 37.1429 39.6922 35.9176C39.9436 35.3775 39.9973 35.1099 39.9999 34.3846C40.0026 33.6085 39.9606 33.4203 39.64 32.7717C38.996 31.4689 37.8741 30.7873 36.3732 30.7872C35.5145 30.7871 35.4475 30.8075 33.5935 31.6286C32.5486 32.0913 31.6528 32.47 31.6029 32.47C31.5528 32.47 31.5592 32.1972 31.6169 31.8639C31.7517 31.0844 31.655 30.5943 31.2959 30.2367L31.0086 29.9505L26.7615 29.9603C23.7325 29.9673 22.3723 30.0094 22.0193 30.1068ZM28.9961 32.4973C28.8528 32.9536 28.2744 33.6831 27.7573 34.0604C27.0082 34.6067 26.4291 34.7703 25.2445 34.7703H24.2192V35.9753V37.1802L25.1816 37.1783C25.711 37.1773 26.4657 37.1069 26.859 37.022C27.272 36.9328 29.3759 36.0779 31.8415 34.9974C34.1887 33.9688 36.2329 33.1272 36.3841 33.1272C37.351 33.1272 37.9428 34.2167 37.4305 35.0534C37.2501 35.3479 36.5976 35.6683 32.3389 37.5535L27.4542 39.7157L25.0942 39.6803C22.803 39.6459 22.716 39.6363 22.1078 39.3524C19.7256 38.2403 19.1552 35.2069 20.9856 33.3841C21.4933 32.8786 22.1204 32.5201 22.76 32.3701C22.9879 32.3166 24.5016 32.268 26.1239 32.2618L29.0736 32.2509L28.9961 32.4973Z" fill="#00A6CA"/>
</svg>
