<svg width="25" height="24" viewBox="0 0 25 24" fill="none" xmlns="http://www.w3.org/2000/svg">
<path fill-rule="evenodd" clip-rule="evenodd" d="M11.6539 0.178693C11.5259 0.279007 10.9336 1.25342 10.3373 2.34421C9.74108 3.4349 9.20017 4.34764 9.13508 4.37251C9.07008 4.39738 8.08503 4.14564 6.94614 3.81312C5.80725 3.48061 4.70399 3.20858 4.49453 3.20858C3.98125 3.20858 3.57541 3.59285 3.57541 4.07882C3.57541 4.26229 3.9968 5.83418 4.51175 7.57182L5.44818 10.7311L6.09994 10.3757C6.59462 10.1061 6.79414 9.93695 6.92754 9.67437L7.10321 9.32846L6.58311 7.53722C6.29706 6.55207 6.08106 5.72808 6.10307 5.70605C6.12516 5.68412 6.8689 5.87722 7.75598 6.1353C9.57204 6.66349 10.0177 6.7091 10.3236 6.39788C10.4353 6.28435 10.8995 5.50029 11.3552 4.65556C11.811 3.81092 12.2046 3.12019 12.2299 3.12065C12.2552 3.12111 12.6673 3.84653 13.1458 4.73274C13.6242 5.61896 14.0995 6.40265 14.202 6.47424C14.5175 6.69451 15.0414 6.62283 16.7068 6.13172C17.5883 5.87181 18.3287 5.67815 18.3521 5.70156C18.3756 5.72487 18.1623 6.54675 17.8781 7.52795C17.1909 9.90125 17.0946 9.67658 19.3215 10.8968C20.9125 11.7687 20.9888 11.8227 20.7812 11.9329C19.2841 12.7275 17.8518 13.5424 17.6898 13.6915C17.3161 14.0357 17.3368 14.2901 17.8903 16.1593C18.1759 17.1237 18.3958 17.9264 18.3792 17.9431C18.3624 17.9597 17.5667 17.7453 16.6109 17.4666C14.7432 16.9221 14.4416 16.8992 14.0967 17.275C13.9932 17.3878 13.5419 18.1513 13.0937 18.9715C12.6455 19.7919 12.2539 20.4629 12.2236 20.4629C12.1932 20.4629 11.7891 19.7676 11.3255 18.9178C10.8619 18.0681 10.4044 17.3022 10.3089 17.216C9.96361 16.9045 9.59147 16.9425 7.81371 17.4707C6.87856 17.7485 6.09984 17.9622 6.08299 17.9455C6.06624 17.9288 6.28361 17.1194 6.56599 16.1469C7.01096 14.6144 7.06629 14.3392 6.98122 14.082C6.92718 13.9189 6.812 13.7232 6.72527 13.6472C6.54389 13.4883 0.986427 10.437 0.953005 10.4779C0.94076 10.4928 0.721452 10.8861 0.465409 11.3519L0 12.1988L1.53451 13.0388C2.37851 13.5008 3.47045 14.1015 3.96108 14.3736L4.85323 14.8686L4.72572 15.3024C4.65556 15.5411 4.36803 16.5165 4.08676 17.4699C3.80549 18.4233 3.57541 19.3237 3.57541 19.4706C3.57541 20.0208 3.99414 20.4629 4.51515 20.4629C4.62214 20.4629 5.70422 20.1725 6.9199 19.8174C8.13549 19.4623 9.15948 19.2042 9.19548 19.2438C9.23139 19.2833 9.74577 20.2037 10.3385 21.2889C10.9313 22.3742 11.5003 23.3345 11.6031 23.4228C11.8558 23.64 12.6041 23.64 12.8562 23.4228C12.9587 23.3345 13.5262 22.3742 14.1173 21.2889C14.7084 20.2037 15.2222 19.284 15.2591 19.2454C15.2962 19.2068 16.3179 19.4648 17.5299 19.8187C18.7419 20.1727 19.8247 20.4625 19.9363 20.4627C20.4625 20.4634 20.8844 20.0249 20.8844 19.4771C20.8844 19.3339 20.5964 18.2477 20.2443 17.0635C19.6653 15.1156 19.6185 14.8995 19.7538 14.7969C19.836 14.7345 20.7913 14.2025 21.8766 13.6148C23.6515 12.6536 23.8636 12.5134 23.9858 12.222C24.1546 11.8195 24.0817 11.377 23.8062 11.1299C23.693 11.0284 22.7096 10.4605 21.6209 9.86803C20.5322 9.2755 19.6331 8.78256 19.6227 8.77265C19.6124 8.76265 19.8921 7.77437 20.2442 6.57648C20.5963 5.3785 20.8844 4.25136 20.8844 4.07175C20.8844 3.58441 20.4754 3.20812 19.9478 3.20986C19.7286 3.2106 18.6385 3.47905 17.5252 3.80642C16.4119 4.1338 15.4383 4.40069 15.3616 4.3994C15.2753 4.39793 14.8059 3.62755 14.131 2.37954C13.5308 1.26994 12.9349 0.279833 12.8066 0.179244C12.5021 -0.0595642 11.958 -0.0597477 11.6539 0.178693Z" fill="white"/>
<ellipse cx="10.1148" cy="10.6797" rx="1.01276" ry="1.00956" fill="white"/>
<ellipse cx="13.7515" cy="14.3084" rx="1.01276" ry="1.00956" fill="white"/>
<rect width="8.94203" height="1.41748" transform="matrix(0.77199 -0.635634 0.638026 0.770015 8.18799 14.7551)" fill="white"/>
</svg>
