<svg width="27" height="31" viewBox="0 0 27 31" fill="none" xmlns="http://www.w3.org/2000/svg">
<path fill-rule="evenodd" clip-rule="evenodd" d="M12.3191 1.20287V2.40573L12.0166 2.47825C11.0838 2.70193 10.1484 3.45864 9.66376 4.38163C9.44488 4.79854 9.40495 5.03514 9.40495 5.91519C9.40495 6.78988 9.4451 7.03087 9.65683 7.42631C10.0453 8.15168 10.6278 8.72699 11.3114 9.06032C11.856 9.32574 12.0858 9.36813 13.144 9.39826C14.5318 9.4378 14.9051 9.5469 15.129 9.97817C15.3705 10.4431 15.3229 10.803 14.9681 11.1988L14.6474 11.5565L12.2183 11.5898L9.78926 11.6231V12.8222V14.0212H11.0542H12.3191V15.2261V16.4311H13.529H14.7389V15.2228C14.7389 14.1696 14.7636 14.006 14.9314 13.9493C16.1326 13.5442 16.8487 13.0036 17.3296 12.1392C17.6246 11.6087 17.6537 11.4634 17.6533 10.5159C17.6531 9.63618 17.613 9.39902 17.3942 8.98233C17.0389 8.3057 16.439 7.70323 15.7838 7.36496C15.3049 7.11773 15.0514 7.07271 13.8201 7.01586L12.4063 6.95057L12.0878 6.59544C11.645 6.10207 11.662 5.67136 12.1431 5.19223L12.5171 4.81979H14.8929H17.2687V3.61484V2.40989H16.0038H14.7389V1.20495V0H13.529H12.3191V1.20287ZM9.01932 19.1068C8.27489 19.3125 7.60142 19.6415 6.93619 20.1248L6.33794 20.5595L5.99059 20.2136C5.4227 19.648 4.90376 19.4615 3.75083 19.4086C3.16655 19.3818 2.46458 19.4174 2.13659 19.4905C1.14908 19.7106 0.325245 20.4805 0.151458 21.3456L0.0824938 21.689H2.12328C3.83178 21.689 4.19211 21.7171 4.33686 21.8611C4.48546 22.0092 4.50966 22.4506 4.50966 25.0159C4.50966 27.1897 4.47391 28.0342 4.37767 28.13C4.29815 28.2092 3.91328 28.2615 3.40974 28.2615C2.9062 28.2615 2.52134 28.2092 2.44182 28.13C2.34909 28.0377 2.30983 27.4192 2.30983 26.0488V24.0989H1.15491H0V26.1055C0 28.5404 0.111971 29.036 0.822078 29.7431C1.42373 30.3424 2.11734 30.5618 3.40974 30.5618C4.63758 30.5618 5.37507 30.3424 5.93724 29.8097L6.37545 29.3947L6.7349 29.6888C7.3194 30.1669 8.25829 30.6486 8.95992 30.8303C9.46864 30.962 10.242 31 12.4112 31H15.207L20.3045 28.7431C25.9646 26.2371 26.1219 26.1429 26.6922 24.9176C26.9436 24.3775 26.9973 24.1099 26.9999 23.3846C27.0026 22.6085 26.9606 22.4203 26.64 21.7717C25.996 20.4689 24.8741 19.7873 23.3732 19.7872C22.5145 19.7871 22.4475 19.8075 20.5935 20.6286C19.5486 21.0913 18.6528 21.47 18.6029 21.47C18.5528 21.47 18.5592 21.1972 18.6169 20.8639C18.7517 20.0844 18.655 19.5943 18.2959 19.2367L18.0086 18.9505L13.7615 18.9603C10.7325 18.9673 9.37228 19.0094 9.01932 19.1068ZM15.9961 21.4973C15.8528 21.9536 15.2744 22.6831 14.7573 23.0604C14.0082 23.6067 13.4291 23.7703 12.2445 23.7703H11.2192V24.9753V26.1802L12.1816 26.1783C12.711 26.1773 13.4657 26.1069 13.859 26.022C14.272 25.9328 16.3759 25.0779 18.8415 23.9974C21.1887 22.9688 23.2329 22.1272 23.3841 22.1272C24.351 22.1272 24.9428 23.2167 24.4305 24.0534C24.2501 24.3479 23.5976 24.6683 19.3389 26.5535L14.4542 28.7157L12.0942 28.6803C9.80301 28.6459 9.71601 28.6363 9.10775 28.3524C6.72555 27.2403 6.15525 24.2069 7.98562 22.3841C8.49334 21.8786 9.1204 21.5201 9.76 21.3701C9.9879 21.3166 11.5016 21.268 13.1239 21.2618L16.0736 21.2509L15.9961 21.4973Z" fill="#00A6CA"/>
</svg>
