<svg width="53" height="53" viewBox="0 0 53 53" fill="none" xmlns="http://www.w3.org/2000/svg">
<circle cx="26.5" cy="26.5" r="26.5" fill="#EDEDED"/>
<path fill-rule="evenodd" clip-rule="evenodd" d="M25.378 14.0298C23.2877 14.4185 21.5017 15.6608 20.5381 17.3964C19.8698 18.6 19.76 19.2402 19.76 21.9347V24.3513L19.4123 24.4181C18.8171 24.5324 17.8539 25.2463 17.4541 25.8696L17.0759 26.4591L17.038 30.094L17 33.729H18.3176H19.6352V30.5799C19.6352 27.9236 19.6657 27.389 19.8296 27.1644L20.0238 26.898H27.9981H35.9722L35.8588 26.5183C35.5865 25.6072 34.4955 24.5993 33.5864 24.4193L33.2431 24.3513V21.9347C33.2431 19.237 33.1336 18.6005 32.4613 17.3896C31.3257 15.3445 29.2486 14.1027 26.8137 14.0132C26.1957 13.9904 25.5496 13.9979 25.378 14.0298ZM27.9198 16.8352C28.8746 17.1782 29.6561 17.8819 30.1486 18.8423L30.559 19.6423L30.6034 21.9519L30.6479 24.2615H26.5016H22.3553L22.3997 21.9519L22.4442 19.6423L22.8545 18.8423C23.8167 16.9662 25.9409 16.1245 27.9198 16.8352ZM33.3423 32.8244C33.3144 35.325 33.2666 36.1516 33.1432 36.2699C33.015 36.3928 31.3095 36.438 24.9916 36.4853L17.0021 36.5453L17.3861 37.2828C17.6009 37.6953 17.961 38.1603 18.2034 38.3376C19.1347 39.0195 18.9171 39.0023 26.5288 38.9994C34.382 38.9964 34.0828 39.027 35.0114 38.1355C35.9089 37.2739 35.9231 37.1997 35.9635 33.1597L36 29.5345H34.6896H33.3792L33.3423 32.8244Z" fill="#00A6CA"/>
</svg>
