<svg width="75" height="101" viewBox="0 0 75 101" fill="none" xmlns="http://www.w3.org/2000/svg">
<path opacity="0.1" d="M64.7727 40.3489V26.6865C64.9191 19.7655 62.1318 13.072 57.0206 8.0707C51.9094 3.06938 44.8906 0.167479 37.5 0C30.1094 0.167479 23.0906 3.06938 17.9794 8.0707C12.8682 13.072 10.0809 19.7655 10.2273 26.6865V40.3489H0V94.6157C0 96.3089 0.718342 97.9328 1.997 99.1301C3.27566 100.327 5.00989 101 6.81818 101H68.1818C69.9901 101 71.7243 100.327 73.003 99.1301C74.2817 97.9328 75 96.3089 75 94.6157V40.3489H64.7727ZM40.9091 73.0047V81.847H34.0909V72.7174C32.4312 71.9178 31.1133 70.6108 30.3561 69.0133C29.5988 67.4158 29.4476 65.6239 29.9276 63.9349C30.4077 62.2459 31.49 60.7614 32.9951 59.7277C34.5001 58.6939 36.3374 58.1731 38.2021 58.2517C40.0668 58.3303 41.8467 59.0035 43.2465 60.1596C44.6463 61.3158 45.5819 62.8853 45.898 64.6079C46.214 66.3304 45.8916 68.1024 44.9841 69.6297C44.0767 71.157 42.6388 72.3479 40.9091 73.0047ZM57.9545 40.3489H17.0455V26.6865C16.8985 21.4585 18.9674 16.3885 22.8 12.5844C26.6327 8.78025 31.9176 6.55122 37.5 6.38432C43.0824 6.55122 48.3673 8.78025 52.2 12.5844C56.0326 16.3885 58.1015 21.4585 57.9545 26.6865V40.3489Z" fill="#2C2C2C"/>
</svg>
