<svg width="53" height="53" viewBox="0 0 53 53" fill="none" xmlns="http://www.w3.org/2000/svg">
<circle cx="26.5" cy="26.5" r="26.5" fill="#EDEDED"/>
<path fill-rule="evenodd" clip-rule="evenodd" d="M14.9632 16.7157C13.4641 18.2093 12.1783 19.5747 12.1057 19.7501C12.0145 19.9701 11.9842 22.6838 12.0076 28.5182L12.0415 36.9676L12.3782 37.5404C12.7959 38.2511 13.4509 38.8017 14.1695 39.0465C14.9921 39.3268 29.5751 39.3408 30.3925 39.3408C31.1335 39.224 31.3318 39.0465 32.1612 37.5404L32.498 36.9676L32.534 35.8063L32.57 34.6451L31.2784 35.9291L30.3769 36.5388L29.9868 36.6038C29.9838 36.4798 29.9482 36.0495 29.7961 36.2665L29.6055 36.5388H22.2778C15.6119 36.5388 14.9349 36.5206 14.7819 36.3364C14.6441 36.1703 14.6139 34.9625 14.6139 29.6298V23.1258L16.88 23.0611C19.3139 22.9915 19.6392 22.9189 20.4041 22.274C20.6244 22.0883 20.9551 21.6802 21.1391 21.3674C21.4629 20.8165 21.4749 20.731 21.5143 18.6854L21.555 16.5724H25.5025C28.7155 16.5724 28.6768 16.6047 28.8704 16.7459C29.0838 16.9019 29.1144 17.1214 29.1694 18.8924L29.2306 20.8653L30.4994 19.5916L30.9506 18.3179L30.9031 17.292C30.8491 16.126 30.6195 15.0444 30.3925 14.8174C29.9838 14.4087 30.8013 14 23.9296 14.0027L17.6887 14L14.9632 16.7157ZM18.9412 18.3302C18.9129 19.4866 18.8519 20.0246 18.7331 20.1676C18.5914 20.3379 18.2931 20.3697 16.8359 20.3697H15.1069L16.9412 18.5323C17.9501 17.5217 18.8219 16.6949 18.8785 16.6949C18.9351 16.6949 18.9634 17.4307 18.9412 18.3302ZM17.37 27.1681V28.4543H18.6562H19.9423V27.1681V25.8819H18.6562H17.37V27.1681ZM17.37 32.5578V33.844H18.6562H19.9423V32.5578V31.2716H18.6562H17.37V32.5578Z" fill="#00A6CA"/>
<path fill-rule="evenodd" clip-rule="evenodd" d="M30.256 18.2426C30.1454 18.3296 29.633 19.1747 29.1173 20.1208C28.6016 21.0668 28.1337 21.8584 28.0774 21.88C28.0212 21.9015 27.1692 21.6832 26.1842 21.3948C25.1991 21.1064 24.2449 20.8705 24.0637 20.8705C23.6198 20.8705 23.2687 21.2038 23.2687 21.6252C23.2687 21.7844 23.6332 23.1477 24.0786 24.6548L24.8885 27.3949L25.4523 27.0867C25.8801 26.8528 26.0527 26.7061 26.1681 26.4784L26.32 26.1784L25.8702 24.6248C25.6228 23.7703 25.4359 23.0557 25.455 23.0366C25.4741 23.0176 26.1174 23.185 26.8846 23.4089C28.4554 23.867 28.8409 23.9065 29.1054 23.6366C29.202 23.5382 29.6035 22.8581 29.9977 22.1255C30.3919 21.3929 30.7323 20.7938 30.7542 20.7942C30.7761 20.7946 31.1326 21.4238 31.5464 22.1924C31.9602 22.961 32.3713 23.6408 32.46 23.7028C32.7329 23.8939 33.186 23.8317 34.6265 23.4058C35.3889 23.1803 36.0293 23.0124 36.0495 23.0327C36.0698 23.0529 35.8853 23.7657 35.6395 24.6168C35.0452 26.6752 34.9619 26.4803 36.888 27.5386C38.2641 28.2948 38.33 28.3417 38.1505 28.4372C36.8556 29.1264 35.6168 29.8332 35.4766 29.9626C35.1535 30.2611 35.1713 30.4817 35.6501 32.1029C35.8971 32.9393 36.0873 33.6355 36.0729 33.65C36.0584 33.6644 35.3701 33.4785 34.5435 33.2368C32.928 32.7645 32.6672 32.7446 32.3689 33.0706C32.2794 33.1684 31.889 33.8306 31.5013 34.542C31.1137 35.2535 30.775 35.8356 30.7488 35.8356C30.7225 35.8356 30.3729 35.2325 29.972 34.4955C29.571 33.7584 29.1753 33.0942 29.0927 33.0194C28.7941 32.7493 28.4722 32.7822 26.9346 33.2403C26.1257 33.4813 25.4522 33.6666 25.4376 33.6521C25.4231 33.6376 25.6111 32.9356 25.8554 32.0921C26.2402 30.763 26.2881 30.5243 26.2145 30.3013C26.1678 30.1597 26.0682 29.99 25.9931 29.9241C25.8363 29.7863 21.0295 27.1398 21.0005 27.1753C20.99 27.1882 20.8003 27.5294 20.5788 27.9334L20.1763 28.6679L21.5035 29.3964C22.2335 29.7972 23.178 30.3181 23.6023 30.5542L24.374 30.9835L24.2637 31.3597C24.203 31.5668 23.9543 32.4127 23.711 33.2396C23.4677 34.0666 23.2687 34.8475 23.2687 34.9749C23.2687 35.4521 23.6309 35.8356 24.0815 35.8356C24.1741 35.8356 25.11 35.5836 26.1615 35.2757C27.2129 34.9677 28.0986 34.7438 28.1297 34.7781C28.1607 34.8125 28.6057 35.6107 29.1183 36.552C29.631 37.4933 30.1232 38.3261 30.2121 38.4027C30.4307 38.5911 31.0779 38.5911 31.296 38.4027C31.3846 38.3261 31.8755 37.4933 32.3867 36.552C32.8979 35.6107 33.3424 34.8131 33.3743 34.7796C33.4063 34.7461 34.2901 34.9698 35.3384 35.2768C36.3867 35.5839 37.3232 35.8352 37.4197 35.8353C37.8748 35.836 38.2397 35.4556 38.2397 34.9806C38.2397 34.8563 37.9906 33.9142 37.6861 32.8871C37.1853 31.1977 37.1448 31.0103 37.2618 30.9213C37.3329 30.8672 38.1592 30.4058 39.0979 29.896C40.6331 29.0623 40.8166 28.9408 40.9222 28.688C41.0682 28.3389 41.0052 27.9552 40.7669 27.7408C40.669 27.6528 39.8184 27.1603 38.8768 26.6464C37.9351 26.1324 37.1574 25.7049 37.1485 25.6963C37.1396 25.6876 37.3815 24.8305 37.686 23.7915C37.9906 22.7525 38.2397 21.7749 38.2397 21.6191C38.2397 21.1964 37.886 20.8701 37.4296 20.8716C37.2401 20.8722 36.2972 21.105 35.3343 21.389C34.3714 21.6729 33.5293 21.9044 33.4629 21.9033C33.3883 21.902 32.9823 21.2338 32.3986 20.1514C31.8794 19.189 31.364 18.3303 31.253 18.243C30.9897 18.0359 30.5191 18.0358 30.256 18.2426Z" fill="#00A6CA"/>
</svg>
