<svg width="53" height="53" viewBox="0 0 53 53" fill="none" xmlns="http://www.w3.org/2000/svg">
<circle cx="26.5" cy="26.5" r="26.5" fill="#EDEDED"/>
<path fill-rule="evenodd" clip-rule="evenodd" d="M13.0003 15.0156C13.001 17.0902 13.3846 20.0647 13.9306 22.2292C15.3874 28.0051 18.5301 32.8052 23.6498 37.0743C25.2836 38.4367 26.1103 39 26.4755 39C26.629 39 26.9621 38.8671 27.2157 38.7046C27.8989 38.267 29.6031 36.9111 30.8404 35.8208C36.8465 30.5281 39.6665 24.5636 39.9347 16.5861L40 14.641L39.6808 14.3205L39.3617 14H28.4628H17.5638V15.0938V16.1875H27.625H37.6861V16.9458C37.6861 17.9842 37.4213 20.0576 37.1045 21.5C35.875 27.0966 33.1044 31.1656 27.4335 35.7031C26.9574 36.0842 26.5302 36.3958 26.484 36.3958C26.3867 36.3958 24.9719 35.2759 23.998 34.4279C20.2997 31.208 18.018 27.9245 16.7057 23.9342C15.8256 21.258 15.4211 18.9061 15.315 15.849L15.2508 14H14.1254H13L13.0003 15.0156ZM25.4987 18.6179C25.2705 18.6935 24.9721 18.8156 24.8354 18.8894C24.3677 19.1419 23.6649 19.877 23.3894 20.4021C23.1476 20.8632 23.114 21.0474 23.1135 21.9167C23.1131 22.7885 23.1463 22.9711 23.3934 23.4519L23.6736 23.9975L23.106 24.5368C22.138 25.4561 21.609 26.6549 21.609 27.9293C21.609 28.9342 21.9742 29.5449 22.7763 29.8815C23.3412 30.1184 29.6268 30.1184 30.1917 29.8815C30.9938 29.5449 31.359 28.9342 31.359 27.9293C31.359 26.6549 30.83 25.4561 29.8621 24.5368L29.2944 23.9975L29.5747 23.4519C29.8217 22.9711 29.8549 22.7885 29.8545 21.9167C29.8541 21.0474 29.8205 20.8632 29.5786 20.4021C29.2402 19.757 28.4973 19.0534 27.8507 18.7655C27.2528 18.4993 26.0794 18.4257 25.4987 18.6179ZM27.1953 21.0347C27.6368 21.4078 27.7815 21.9006 27.5869 22.3683C27.1752 23.3578 25.7928 23.3578 25.3811 22.3683C25.0791 21.6424 25.6808 20.7708 26.484 20.7708C26.7596 20.7708 26.9795 20.8524 27.1953 21.0347ZM27.5213 25.6314C28.0079 25.832 28.643 26.4573 28.8797 26.9688C29.2619 27.7947 29.399 27.75 26.484 27.75C23.5695 27.75 23.709 27.7954 24.085 26.9688C24.4241 26.2233 25.188 25.6433 26.121 25.4229C26.4137 25.3538 27.0934 25.4549 27.5213 25.6314Z" fill="#00A6CA"/>
</svg>
