<svg width="37" height="37" viewBox="0 0 37 37" fill="none" xmlns="http://www.w3.org/2000/svg">
<path fill-rule="evenodd" clip-rule="evenodd" d="M30.8559 23.4123L34.8992 19.7822L36.162 21.6031L29.7174 26.8986L29.0859 25.9882L25.5038 19.86L27.3245 18.5974L29.0123 21.9942C29.7948 19.638 29.7633 17.0871 28.9226 14.7507C28.082 12.4144 26.481 10.4281 24.3765 9.11041C22.2721 7.79276 19.7861 7.22017 17.3175 7.4845C14.8488 7.74884 12.5406 8.83477 10.7632 10.5681C8.98573 12.3014 7.84207 14.5816 7.51567 17.0429C7.18928 19.5042 7.69907 22.0039 8.96326 24.141C10.2275 26.2781 12.1728 27.9286 14.4871 28.8279C16.8014 29.7271 19.3506 29.8229 21.7257 29.0998L22.3806 31.2183C19.4993 32.0971 16.4049 31.9712 13.6043 30.8613C10.8036 29.7513 8.46285 27.7231 6.9654 25.109C5.46794 22.4948 4.9026 19.4497 5.36199 16.4724C5.82139 13.4951 7.27827 10.7623 9.49398 8.72152C11.7097 6.68079 14.5528 5.45316 17.5577 5.23976C20.5625 5.02637 23.5508 5.83985 26.0331 7.54695C28.5154 9.25405 30.3445 11.7535 31.2207 14.636C32.0969 17.5184 31.9683 20.6128 30.8559 23.4123Z" fill="#00A6CA"/>
<path d="M18.1962 24.6538L18.2395 24.7289H18.3261H19.8508H20.1181L19.9789 24.5008L17.2407 20.012C17.9559 19.8855 18.5466 19.6358 19.0048 19.2562L19.005 19.256C19.4965 18.8472 19.7861 18.29 19.8798 17.5968H21.6895H21.8395V17.4468V16.4959V16.3459H21.6895H19.8447C19.7562 15.8448 19.5554 15.4183 19.2412 15.0709H21.6895H21.8395V14.9209V13.97V13.82H21.6895H15.5009H15.3509V13.97V14.9209V15.0709H15.5009H15.8298C16.574 15.0709 17.1314 15.1931 17.5173 15.4215L17.5173 15.4215L17.5186 15.4222C17.858 15.6184 18.0863 15.9215 18.1992 16.3459H15.5009H15.3509V16.4959V17.4468V17.5968H15.5009H18.2263C18.1374 18.0608 17.9189 18.3691 17.5831 18.5476L17.5831 18.5476L17.5818 18.5483C17.1954 18.7587 16.6168 18.8718 15.8298 18.8718H15.5009H15.3509V19.0218V19.6756V19.7157L15.371 19.7505L18.1962 24.6538Z" fill="#00A6CA" stroke="#00A6CA" stroke-width="0.3"/>
</svg>
