<svg width="44" height="44" viewBox="0 0 44 44" fill="none" xmlns="http://www.w3.org/2000/svg">
<circle cx="22" cy="22" r="22" fill="#FCD800"/>
<path d="M24.0197 27.5005C24.0125 27.4927 24.0053 27.4849 23.998 27.477C23.7276 27.1853 23.3676 26.8046 22.9816 26.4015C22.2077 25.5932 21.3397 24.7056 20.8869 24.2697L24.0197 27.5005ZM24.0197 27.5005H23.7438H22.9114L22.3634 26.9296L22.0134 27.2656L22.3634 26.9296C21.29 25.8115 19.9595 24.4679 19.1755 23.7105C19.1755 23.7105 19.1755 23.7105 19.1755 23.7105L18.6232 23.1771L18.6227 22.7995V22.7995C18.6227 22.7611 18.6225 22.7262 18.6224 22.6939C18.6222 22.6408 18.622 22.5947 18.6223 22.551C18.6889 22.5497 18.7703 22.5498 18.8742 22.55C18.9131 22.5501 18.955 22.5501 19.0006 22.5501C20.2396 22.5501 21.0853 22.4169 21.7476 22.0187C22.1108 21.8004 22.4758 21.4286 22.6253 21.0517C22.6253 21.0517 22.6253 21.0517 22.6253 21.0517L22.6787 20.9171L22.9502 20.2327H22.214H20.2594C19.3811 20.2327 18.9007 20.2307 18.629 20.2211C18.6269 20.221 18.6248 20.2209 18.6228 20.2208C18.6222 20.1774 18.622 20.1275 18.622 20.0697C18.622 20.0162 18.6221 19.9697 18.6224 19.9289C18.6377 19.9283 18.6541 19.9277 18.6715 19.9271C18.942 19.9177 19.4022 19.9153 20.2085 19.9153H20.2112C21.1252 19.9153 21.6082 19.9153 21.8518 19.9034C21.9142 19.9004 21.9738 19.8961 22.0268 19.8887C22.0641 19.8834 22.1612 19.8695 22.2575 19.8172C22.3127 19.7873 22.398 19.7285 22.4609 19.622C22.5293 19.5063 22.5407 19.3861 22.5283 19.2913C22.5175 19.2085 22.4891 19.1473 22.4764 19.1216C22.4636 19.0957 22.4502 19.0738 22.4468 19.0681L22.4463 19.0673L22.4462 19.0672C22.3508 18.9105 22.194 18.7677 22.0622 18.6647C21.9206 18.554 21.7492 18.4441 21.5813 18.3693L21.5812 18.3693C21.0034 18.1119 20.6304 18.0737 19.431 18.05C19.0443 18.0424 18.7915 18.0352 18.6237 18.026C18.6225 17.9559 18.622 17.8704 18.622 17.7648C18.622 17.665 18.6226 17.5842 18.6238 17.5184C18.7 17.5158 18.7943 17.5134 18.9109 17.5113C19.4484 17.5019 20.4054 17.5 22.12 17.5H25.6171C25.6204 17.5515 25.6223 17.6081 25.6224 17.6665C25.6224 17.7155 25.6212 17.7623 25.6189 17.8051C25.4493 17.815 25.1764 17.8155 24.712 17.8089L24.712 17.8089C24.4537 17.8052 24.2184 17.8025 24.0473 17.8011C23.9619 17.8004 23.8915 17.8 23.8419 17.8C23.8175 17.8 23.796 17.8001 23.7796 17.8003C23.7722 17.8004 23.7614 17.8006 23.7505 17.8011L23.7504 17.8011C23.7464 17.8013 23.7333 17.8019 23.7174 17.8036L23.717 17.8036C23.7113 17.8042 23.688 17.8066 23.6594 17.813L23.6591 17.8131C23.6482 17.8155 23.6069 17.8247 23.5582 17.8473C23.5352 17.8579 23.4803 17.885 23.4243 17.938C23.3674 17.9918 23.265 18.1173 23.2681 18.3092M24.0197 27.5005L23.5237 18.8347C23.4768 18.7663 23.4337 18.7028 23.402 18.6555C23.3863 18.6321 23.3725 18.6112 23.3621 18.5952C23.3572 18.5877 23.3513 18.5785 23.3458 18.5696C23.3435 18.5659 23.3383 18.5574 23.3325 18.547C23.3301 18.5427 23.3234 18.5308 23.3161 18.5152C23.3126 18.5079 23.3052 18.4918 23.2976 18.4707C23.2976 18.4706 23.2975 18.4703 23.2973 18.4699C23.2942 18.4614 23.2695 18.3958 23.2681 18.3092M23.2681 18.3092C23.268 18.3065 23.268 18.3038 23.268 18.3011H23.768L23.2681 18.3092ZM20.94 22.8947L20.94 22.8947C21.3132 22.8455 21.919 22.6713 22.2582 22.5158L22.2582 22.5158C23.1062 22.1272 23.5942 21.5717 23.7763 20.908C23.7763 20.9079 23.7763 20.9079 23.7763 20.9079L23.8605 20.601L23.9613 20.2335L24.3425 20.2333L25.1467 20.233C25.1938 20.233 25.2378 20.233 25.279 20.2331C25.4218 20.2332 25.5301 20.2333 25.6167 20.2309C25.6168 20.2075 25.6167 20.1827 25.6166 20.1556C25.6165 20.1273 25.6164 20.0965 25.6164 20.062C25.6164 20.0355 25.6165 20.0111 25.6165 19.9885C25.6166 19.9632 25.6166 19.94 25.6166 19.9183L20.94 22.8947ZM20.94 22.8947C20.8654 22.9045 20.7918 22.9169 20.7313 22.9302C20.7035 22.9364 20.6652 22.9456 20.6271 22.9586C20.6113 22.964 20.5726 22.9776 20.5293 23.002C20.5093 23.0133 20.4641 23.0402 20.4176 23.0867C20.3791 23.1253 20.2702 23.2468 20.2702 23.4424C20.2702 23.527 20.2919 23.5906 20.3009 23.6151M20.94 22.8947L20.3009 23.6151M20.3009 23.6151C20.3121 23.6457 20.324 23.669 20.3312 23.6822M20.3009 23.6151L20.3312 23.6822M20.3312 23.6822C20.3455 23.7086 20.3592 23.7283 20.3654 23.7369M20.3312 23.6822L20.3654 23.7369M20.3654 23.7369C20.3789 23.756 20.3917 23.7713 20.3979 23.7787M20.3654 23.7369L20.3979 23.7787M20.3979 23.7787C20.4122 23.7956 20.4281 23.8128 20.4416 23.8273M20.3979 23.7787L20.4416 23.8273M20.4416 23.8273C20.4701 23.8578 20.5082 23.8968 20.5514 23.9404M20.4416 23.8273L20.5514 23.9404M20.5514 23.9404C20.6388 24.0284 20.7575 24.1451 20.8869 24.2696L20.5514 23.9404ZM24.2679 18.2931C24.268 18.2958 24.268 18.2985 24.268 18.3011H24.2681L24.2679 18.2931ZM18.4042 18.0058C18.4002 18.0049 18.4008 18.0048 18.4051 18.0059L18.4042 18.0058ZM18.4119 19.9457C18.4119 19.9457 18.4128 19.9454 18.4149 19.945C18.413 19.9455 18.4119 19.9457 18.4119 19.9457ZM18.6314 22.3717C18.6315 22.3718 18.6312 22.3735 18.6304 22.3766C18.631 22.3732 18.6314 22.3716 18.6314 22.3717ZM21.5922 19.5874C21.5963 19.5941 21.5882 19.5814 21.5795 19.5637C21.5715 19.5477 21.5465 19.4954 21.5368 19.421C21.5363 19.4179 21.536 19.4147 21.5356 19.4116L21.5922 19.5874ZM21.8881 18.8983C21.8875 18.8984 21.8867 18.8985 21.8859 18.8986C21.8948 18.8968 21.8966 18.8971 21.8881 18.8983ZM25.7871 19.9328C25.7871 19.9329 25.7867 19.9328 25.7859 19.9325L25.7871 19.9328ZM25.6102 19.7431C25.61 19.7421 25.6099 19.7416 25.6099 19.7416L25.6102 19.7431ZM25.61 20.4118C25.61 20.4118 25.6101 20.4113 25.6103 20.4104L25.61 20.4118Z" fill="#2C2C2C" stroke="#2C2C2C"/>
<mask id="path-3-inside-1_2924_11097" fill="white">
<path d="M22.1222 12.1C22.1222 11.4925 22.6159 10.9943 23.2204 11.055C25.0081 11.2343 26.7306 11.8496 28.2337 12.8539C30.0427 14.0627 31.4527 15.7807 32.2853 17.7908C33.1179 19.8008 33.3357 22.0127 32.9113 24.1466C32.4868 26.2804 31.4391 28.2405 29.9007 29.779C28.3622 31.3174 26.4022 32.3651 24.2683 32.7896C22.1344 33.214 19.9226 32.9962 17.9125 32.1636C15.9024 31.331 14.1844 29.921 12.9756 28.112C11.9713 26.6089 11.356 24.8864 11.1767 23.0987C11.116 22.4942 11.6142 22.0005 12.2218 22.0005C12.8293 22.0005 13.3147 22.4949 13.3905 23.0977C13.5603 24.4494 14.0425 25.7486 14.8049 26.8897C15.7719 28.3369 17.1464 29.4649 18.7544 30.131C20.3625 30.797 22.1319 30.9713 23.8391 30.6317C25.5462 30.2922 27.1142 29.454 28.345 28.2233C29.5757 26.9925 30.4139 25.4244 30.7535 23.7173C31.093 22.0102 30.9188 20.2408 30.2527 18.6327C29.5866 17.0247 28.4586 15.6502 27.0114 14.6832C25.8703 13.9208 24.5712 13.4386 23.2194 13.2688C22.6166 13.193 22.1222 12.7076 22.1222 12.1Z"/>
</mask>
<path d="M22.1222 12.1C22.1222 11.4925 22.6159 10.9943 23.2204 11.055C25.0081 11.2343 26.7306 11.8496 28.2337 12.8539C30.0427 14.0627 31.4527 15.7807 32.2853 17.7908C33.1179 19.8008 33.3357 22.0127 32.9113 24.1466C32.4868 26.2804 31.4391 28.2405 29.9007 29.779C28.3622 31.3174 26.4022 32.3651 24.2683 32.7896C22.1344 33.214 19.9226 32.9962 17.9125 32.1636C15.9024 31.331 14.1844 29.921 12.9756 28.112C11.9713 26.6089 11.356 24.8864 11.1767 23.0987C11.116 22.4942 11.6142 22.0005 12.2218 22.0005C12.8293 22.0005 13.3147 22.4949 13.3905 23.0977C13.5603 24.4494 14.0425 25.7486 14.8049 26.8897C15.7719 28.3369 17.1464 29.4649 18.7544 30.131C20.3625 30.797 22.1319 30.9713 23.8391 30.6317C25.5462 30.2922 27.1142 29.454 28.345 28.2233C29.5757 26.9925 30.4139 25.4244 30.7535 23.7173C31.093 22.0102 30.9188 20.2408 30.2527 18.6327C29.5866 17.0247 28.4586 15.6502 27.0114 14.6832C25.8703 13.9208 24.5712 13.4386 23.2194 13.2688C22.6166 13.193 22.1222 12.7076 22.1222 12.1Z" fill="#2C2C2C" stroke="#2C2C2C" stroke-width="2" mask="url(#path-3-inside-1_2924_11097)"/>
<path d="M14.2434 21.706L10.2839 22.2738L11.9797 20.0101L14.2434 21.706Z" stroke="#2C2C2C" stroke-width="2"/>
</svg>
