<svg width="27" height="22" viewBox="0 0 27 22" fill="none" xmlns="http://www.w3.org/2000/svg">
<path d="M16.8982 16.5005C16.891 16.4927 16.8837 16.4849 16.8764 16.477C16.6061 16.1853 16.2461 15.8046 15.86 15.4015C15.0861 14.5932 14.2182 13.7056 13.7653 13.2697L16.8982 16.5005ZM16.8982 16.5005H16.6223H15.7899L15.2419 15.9296L14.8919 16.2656L15.2419 15.9296C14.1684 14.8115 12.838 13.4679 12.0539 12.7105C12.0539 12.7105 12.0539 12.7105 12.0539 12.7105L11.5016 12.1771L11.5012 11.7995V11.7995C11.5011 11.7611 11.501 11.7262 11.5009 11.6939C11.5007 11.6408 11.5005 11.5947 11.5008 11.551C11.5674 11.5497 11.6488 11.5498 11.7527 11.55C11.7915 11.5501 11.8335 11.5501 11.879 11.5501C13.1181 11.5501 13.9638 11.4169 14.6261 11.0187C14.9893 10.8004 15.3543 10.4286 15.5038 10.0517C15.5038 10.0517 15.5038 10.0517 15.5038 10.0517L15.5572 9.91707L15.8287 9.23269H15.0924H13.1378C12.2595 9.23269 11.7792 9.23071 11.5075 9.22106C11.5054 9.22098 11.5033 9.22091 11.5012 9.22083C11.5007 9.1774 11.5005 9.12746 11.5005 9.06968C11.5005 9.01617 11.5006 8.96966 11.5008 8.92893C11.5162 8.92829 11.5326 8.92766 11.55 8.92706C11.8205 8.9177 12.2807 8.91527 13.0869 8.91527H13.0897C14.0036 8.91527 14.4867 8.91527 14.7303 8.90344C14.7927 8.9004 14.8523 8.89608 14.9052 8.88867C14.9426 8.88343 15.0397 8.86953 15.136 8.81724C15.1912 8.78725 15.2765 8.72854 15.3394 8.62203C15.4077 8.50629 15.4192 8.38612 15.4068 8.29126C15.3959 8.20849 15.3675 8.14726 15.3549 8.1216C15.3421 8.09567 15.3287 8.07376 15.3253 8.06813L15.3248 8.06731L15.3247 8.06718C15.2293 7.91052 15.0725 7.76772 14.9407 7.66474C14.799 7.55403 14.6277 7.44411 14.4598 7.3693L14.4597 7.36928C13.8818 7.11193 13.5088 7.07372 12.3094 7.05004C11.9228 7.04241 11.67 7.03521 11.5022 7.02595C11.5009 6.95591 11.5005 6.87043 11.5005 6.76481C11.5005 6.66502 11.5011 6.58417 11.5023 6.51842C11.5785 6.51578 11.6727 6.5134 11.7894 6.51135C12.3269 6.50189 13.2839 6.5 14.9984 6.5H18.4955C18.4989 6.55153 18.5008 6.60813 18.5008 6.66646C18.5009 6.71547 18.4996 6.76229 18.4974 6.80509C18.3278 6.81504 18.0548 6.81549 17.5904 6.80887L17.5904 6.80886C17.3321 6.80519 17.0968 6.80247 16.9258 6.80107C16.8404 6.80037 16.77 6.79998 16.7204 6.79998C16.696 6.79998 16.6745 6.80007 16.658 6.80032C16.6506 6.80043 16.6398 6.80063 16.6289 6.80112L16.6288 6.80113C16.6249 6.8013 16.6118 6.80189 16.5959 6.80355L16.5955 6.80359C16.5898 6.80419 16.5665 6.8066 16.5378 6.813L16.5376 6.81306C16.5267 6.81548 16.4854 6.82471 16.4366 6.84726C16.4137 6.85788 16.3588 6.88495 16.3027 6.938C16.2459 6.99185 16.1435 7.11727 16.1465 7.30916M16.8982 16.5005L16.4021 7.83469C16.3552 7.76625 16.3122 7.7028 16.2805 7.65547C16.2648 7.63207 16.251 7.61122 16.2405 7.59521C16.2356 7.58767 16.2297 7.57847 16.2243 7.56962C16.222 7.56591 16.2167 7.55737 16.211 7.54702C16.2085 7.54269 16.2019 7.53076 16.1945 7.51519C16.1911 7.50791 16.1837 7.49182 16.1761 7.4707C16.176 7.47055 16.1759 7.4703 16.1758 7.46994C16.1726 7.46145 16.148 7.39578 16.1465 7.30916M16.1465 7.30916C16.1465 7.3065 16.1465 7.30382 16.1465 7.30113H16.6465L16.1465 7.30916ZM13.8184 11.8947L13.8185 11.8947C14.1916 11.8455 14.7974 11.6713 15.1367 11.5158L15.1367 11.5158C15.9847 11.1272 16.4726 10.5717 16.6547 9.90795C16.6547 9.90794 16.6548 9.90793 16.6548 9.90792L16.7389 9.60104L16.8398 9.23345L17.2209 9.23331L18.0251 9.233C18.0723 9.23298 18.1163 9.23302 18.1574 9.23305C18.3003 9.23317 18.4085 9.23326 18.4952 9.23091C18.4952 9.20745 18.4951 9.18267 18.4951 9.15556C18.495 9.12729 18.4949 9.09649 18.4949 9.06204C18.4949 9.03547 18.4949 9.01114 18.495 8.98854C18.495 8.9632 18.4951 8.94003 18.495 8.91833L13.8184 11.8947ZM13.8184 11.8947C13.7438 11.9045 13.6702 11.9169 13.6098 11.9302C13.582 11.9364 13.5436 11.9456 13.5056 11.9586C13.4898 11.964 13.451 11.9776 13.4078 12.002C13.3878 12.0133 13.3426 12.0402 13.2961 12.0867C13.2576 12.1253 13.1486 12.2468 13.1486 12.4424C13.1486 12.527 13.1703 12.5906 13.1793 12.6151M13.8184 11.8947L13.1793 12.6151M13.1793 12.6151C13.1905 12.6457 13.2025 12.669 13.2096 12.6822M13.1793 12.6151L13.2096 12.6822M13.2096 12.6822C13.2239 12.7086 13.2376 12.7283 13.2438 12.7369M13.2096 12.6822L13.2438 12.7369M13.2438 12.7369C13.2574 12.756 13.2701 12.7713 13.2764 12.7787M13.2438 12.7369L13.2764 12.7787M13.2764 12.7787C13.2907 12.7956 13.3066 12.8128 13.3201 12.8273M13.2764 12.7787L13.3201 12.8273M13.3201 12.8273C13.3486 12.8578 13.3866 12.8968 13.4299 12.9404M13.3201 12.8273L13.4299 12.9404M13.4299 12.9404C13.5172 13.0284 13.6359 13.1451 13.7653 13.2696L13.4299 12.9404ZM17.1464 7.29312C17.1465 7.2958 17.1465 7.29847 17.1465 7.30113H17.1465L17.1464 7.29312ZM11.2827 7.00577C11.2787 7.00492 11.2793 7.00481 11.2835 7.00595L11.2827 7.00577ZM11.2904 8.94568C11.2903 8.94566 11.2913 8.94543 11.2934 8.94503C11.2914 8.9455 11.2904 8.9457 11.2904 8.94568ZM11.5099 11.3717C11.5099 11.3718 11.5096 11.3735 11.5088 11.3766C11.5094 11.3732 11.5098 11.3716 11.5099 11.3717ZM14.4706 8.58736C14.4747 8.5941 14.4667 8.58144 14.4579 8.5637C14.45 8.54765 14.425 8.49539 14.4152 8.42099C14.4148 8.41788 14.4144 8.41474 14.4141 8.41157L14.4706 8.58736ZM14.7666 7.89833C14.7659 7.89842 14.7652 7.89852 14.7643 7.89862C14.7733 7.89682 14.775 7.89714 14.7666 7.89833ZM18.6656 8.93285C18.6656 8.93286 18.6652 8.93276 18.6644 8.93253L18.6656 8.93285ZM18.4887 8.74309C18.4885 8.74214 18.4884 8.74163 18.4884 8.74161L18.4887 8.74309ZM18.4885 9.41178C18.4885 9.41178 18.4886 9.41132 18.4888 9.41042L18.4885 9.41178Z" fill="white" stroke="white"/>
<mask id="path-2-inside-1_5591_479" fill="white">
<path d="M15.0007 1.10005C15.0007 0.492508 15.4945 -0.00569979 16.099 0.0549525C17.8866 0.234315 19.6091 0.849569 21.1122 1.85391C22.9213 3.06266 24.3312 4.7807 25.1638 6.79077C25.9964 8.80084 26.2143 11.0127 25.7898 13.1466C25.3654 15.2804 24.3177 17.2405 22.7792 18.779C21.2408 20.3174 19.2807 21.3651 17.1468 21.7896C15.0129 22.214 12.8011 21.9962 10.791 21.1636C8.78094 20.331 7.0629 18.921 5.85416 17.112C4.84981 15.6089 4.23456 13.8864 4.0552 12.0987C3.99454 11.4942 4.49275 11.0005 5.10029 11.0005C5.70783 11.0005 6.19325 11.4949 6.269 12.0977C6.43886 13.4494 6.92101 14.7486 7.68347 15.8897C8.65047 17.3369 10.0249 18.4649 11.633 19.131C13.241 19.797 15.0105 19.9713 16.7176 19.6317C18.4247 19.2922 19.9928 18.454 21.2235 17.2233C22.4543 15.9925 23.2924 14.4244 23.632 12.7173C23.9716 11.0102 23.7973 9.24077 23.1312 7.63271C22.4651 6.02465 21.3372 4.65022 19.8899 3.68322C18.7488 2.92077 17.4497 2.43861 16.0979 2.26875C15.4951 2.19301 15.0007 1.70759 15.0007 1.10005Z"/>
</mask>
<path d="M15.0007 1.10005C15.0007 0.492508 15.4945 -0.00569979 16.099 0.0549525C17.8866 0.234315 19.6091 0.849569 21.1122 1.85391C22.9213 3.06266 24.3312 4.7807 25.1638 6.79077C25.9964 8.80084 26.2143 11.0127 25.7898 13.1466C25.3654 15.2804 24.3177 17.2405 22.7792 18.779C21.2408 20.3174 19.2807 21.3651 17.1468 21.7896C15.0129 22.214 12.8011 21.9962 10.791 21.1636C8.78094 20.331 7.0629 18.921 5.85416 17.112C4.84981 15.6089 4.23456 13.8864 4.0552 12.0987C3.99454 11.4942 4.49275 11.0005 5.10029 11.0005C5.70783 11.0005 6.19325 11.4949 6.269 12.0977C6.43886 13.4494 6.92101 14.7486 7.68347 15.8897C8.65047 17.3369 10.0249 18.4649 11.633 19.131C13.241 19.797 15.0105 19.9713 16.7176 19.6317C18.4247 19.2922 19.9928 18.454 21.2235 17.2233C22.4543 15.9925 23.2924 14.4244 23.632 12.7173C23.9716 11.0102 23.7973 9.24077 23.1312 7.63271C22.4651 6.02465 21.3372 4.65022 19.8899 3.68322C18.7488 2.92077 17.4497 2.43861 16.0979 2.26875C15.4951 2.19301 15.0007 1.70759 15.0007 1.10005Z" fill="white" stroke="white" stroke-width="2" mask="url(#path-2-inside-1_5591_479)"/>
<path d="M7.12181 10.706L3.16231 11.2738L4.85817 9.01018L7.12181 10.706Z" stroke="white" stroke-width="2"/>
</svg>
