<svg width="25" height="15" viewBox="0 0 25 15" fill="none" xmlns="http://www.w3.org/2000/svg">
<path d="M0.665689 13.9068L0.665679 13.9068C0.422766 13.7593 0.266151 13.6251 0.192349 13.3657C0.123287 13.123 0.128976 12.7751 0.161616 12.2123C0.296953 9.87757 1.14785 7.57909 2.57488 5.69183C4.45448 3.20593 7.1834 1.56523 10.3282 1.02869L0.665689 13.9068ZM0.665689 13.9068C0.74013 13.952 0.813672 13.9886 0.923521 14.0161C1.03035 14.0428 1.16898 14.0603 1.3734 14.0723C1.78187 14.0964 2.47461 14.0995 3.74653 14.0996L6.48247 14.1L6.58249 14.1V14V12.9922V11.9845V11.8845H6.48249H4.35921H2.35313M0.665689 13.9068L2.35313 11.8845M2.35313 11.8845L2.39676 11.6109C2.66079 9.95501 3.28131 8.46035 4.26661 7.10698L4.26661 7.10697L4.49026 6.7997L5.5021 7.80506L5.50211 7.80507L6.59667 8.89253L6.66724 8.96265L6.73773 8.89244L7.44898 8.18389L8.16023 7.47534L8.23126 7.40459L8.16033 7.33375L7.06871 6.24335L7.06871 6.24335L6.06012 5.23598L6.36796 5.01362L6.36797 5.01362C7.72685 4.03181 9.2653 3.3974 10.8889 3.14882L11.1646 3.10662V4.50985V6.02955V6.12955H11.2646H12.2763H13.2879H13.3879V6.02955V4.50985V3.10687L13.6634 3.14962L13.6787 3.0508L13.6634 3.14962C14.4249 3.26774 15.2475 3.49629 16.041 3.81063L16.8536 4.13265L16.9143 4.15669L16.9607 4.11084L17.6928 3.38801L17.6225 3.31685L17.6928 3.388L18.4247 2.66516L18.5256 2.56553L18.3979 2.50394L17.4129 2.02892C15.7767 1.23986 14.1306 0.885156 12.1835 0.900475L12.1835 0.900475C11.5488 0.905533 10.7151 0.962625 10.3282 1.02869L2.35313 11.8845ZM11.3331 12.2797L11.262 12.3506L11.3331 12.4214L12.0455 13.1311L12.7577 13.8406L12.8283 13.9109L12.8989 13.8406L16.4792 10.2748C18.0107 8.74957 18.9094 7.86378 19.4402 7.37166C19.7065 7.12484 19.8763 6.98075 19.9853 6.90464C20.0335 6.87095 20.0646 6.85439 20.0832 6.84712C20.1384 6.89959 20.2255 7.00909 20.3346 7.16506C20.4532 7.33467 20.591 7.54927 20.7307 7.7804C21.0107 8.24358 21.2944 8.76693 21.4445 9.1214L21.4445 9.12142C21.7395 9.81789 22.0345 10.8505 22.1558 11.6109L22.1994 11.8845H20.2853H18.254H18.154V11.9845V12.9922V14V14.1L18.254 14.1L20.8979 14.0996C22.1243 14.0995 22.7943 14.0963 23.1914 14.0722C23.3901 14.0601 23.5259 14.0426 23.6312 14.0158C23.7394 13.9883 23.8127 13.9519 23.8868 13.9068L23.8349 13.8214L23.8868 13.9068C24.1297 13.7593 24.2864 13.6251 24.3602 13.3657C24.4292 13.123 24.4235 12.7751 24.3909 12.2123C24.2236 9.32678 23.0433 6.67871 20.9657 4.52291C20.7628 4.3123 20.5662 4.12034 20.4126 3.98053C20.336 3.9108 20.2689 3.85297 20.2165 3.81206C20.1905 3.79177 20.1663 3.77423 20.1454 3.76128C20.135 3.75485 20.1235 3.74836 20.1116 3.74317C20.1022 3.73906 20.082 3.73081 20.0572 3.73081C20.031 3.73081 20.0111 3.74131 20.0078 3.74308L20.0075 3.74326C20.0005 3.74681 19.9945 3.7507 19.9902 3.7536C19.9814 3.75962 19.9716 3.76716 19.9618 3.77509C19.9417 3.79127 19.915 3.81432 19.8827 3.84314C19.8178 3.90106 19.7262 3.98585 19.6114 4.09418C19.3814 4.31104 19.0559 4.6243 18.659 5.01047C17.8652 5.78292 16.7845 6.84819 15.6085 8.01985L11.3331 12.2797Z" fill="white" stroke="white" stroke-width="0.2"/>
</svg>
