<svg width="16" height="16" viewBox="0 0 16 16" fill="none" xmlns="http://www.w3.org/2000/svg">
<path d="M13.2103 11.3658L16 14.1159L14.103 16C13.3378 15.2099 12.5088 14.3894 11.6958 13.5385C11.4089 13.2347 11.2176 13.2347 10.8669 13.4322C9.66059 14.1778 8.23498 14.5344 6.80002 14.4496C5.36506 14.3648 3.99659 13.8431 2.89617 12.9612C1.74442 12.1195 0.877906 10.9735 0.404528 9.66583C-0.0688505 8.35819 -0.12817 6.94671 0.233957 5.60717C0.469259 4.22533 1.15474 2.94908 2.19331 1.95919C3.23188 0.969301 4.57089 0.315948 6.02068 0.0916749C7.02133 -0.0655633 8.04551 -0.02015 9.02652 0.224955C10.0075 0.470061 10.9234 0.909363 11.7144 1.51425C12.5055 2.11915 13.154 2.87606 13.6177 3.73571C14.0814 4.59537 14.35 5.53848 14.4059 6.50363C14.5499 7.98589 14.234 9.47583 13.4972 10.7884L13.2103 11.3658ZM2.76864 7.17217C2.743 7.7569 2.84069 8.3406 3.05591 8.88871C3.27114 9.43682 3.59953 9.93821 4.02165 10.3632C4.44378 10.7882 4.95106 11.1282 5.51348 11.363C6.0759 11.5979 6.68203 11.7228 7.296 11.7304C7.90872 11.7167 8.51255 11.5877 9.07284 11.3509C9.63313 11.1141 10.1389 10.7743 10.561 10.3507C10.9831 9.92722 11.3133 9.42842 11.5327 8.88296C11.7521 8.33749 11.8563 7.75611 11.8393 7.17217C11.8652 5.9976 11.4045 4.8606 10.5571 4.00743C9.70974 3.15427 8.54384 2.65361 7.31194 2.61391C6.69792 2.62365 6.0921 2.74989 5.52984 2.98527C4.96758 3.22064 4.46016 3.56042 4.0372 3.98477C3.61424 4.40912 3.28422 4.90954 3.06641 5.45681C2.84861 6.00407 2.74738 6.58721 2.76864 7.17217Z" fill="#707070"/>
</svg>
