<svg width="53" height="53" viewBox="0 0 53 53" fill="none" xmlns="http://www.w3.org/2000/svg">
<circle cx="26.5" cy="26.5" r="26.5" fill="#EDEDED"/>
<path fill-rule="evenodd" clip-rule="evenodd" d="M14.6013 15.1938C13.9978 15.4948 13.9286 15.8578 14.05 18.087C14.367 23.9061 15.9719 28.3227 19.2594 32.4223C20.0039 33.3508 22.8611 36.2386 23.0352 36.2386C23.1484 36.2386 25.0025 34.8874 25.0086 34.8005C25.0107 34.7701 24.5836 34.3719 24.0594 33.9156C22.9776 32.9738 21.3789 31.2468 20.5241 30.0964C18.061 26.782 16.8731 23.3472 16.422 18.2356L16.3512 17.4336H23.7032H31.055L32.2697 16.2168L33.4845 15L24.2367 15.0002C15.6544 15.0003 14.9611 15.0143 14.6013 15.1938ZM31.9382 19.977L26.955 24.954L25.8991 23.9036L24.8433 22.8532L23.986 23.7144L23.1286 24.5757L24.7719 26.2037L26.4153 27.8316H26.958H27.5008L32.4901 22.8538C35.2341 20.1161 37.5141 17.8761 37.5566 17.8761C37.7507 17.8761 37.3218 21.1386 36.914 22.7635C35.5874 28.0497 32.3722 32.289 26.0387 37.1026C25.5361 37.4845 25.1248 37.8353 25.1248 37.882C25.1248 37.9678 25.46 38.2343 26.193 38.731C26.7371 39.0998 27.2908 39.0894 27.8696 38.6998C28.1181 38.5324 28.8609 37.9673 29.5202 37.4438C35.6626 32.5668 38.6343 27.7883 39.6866 21.0957C39.9491 19.4259 40.0941 16.28 39.9315 15.7823C39.737 15.1874 39.2692 15.0003 37.9741 15.0002L36.9213 15L31.9382 19.977Z" fill="#00A6CA"/>
</svg>
