<svg width="19" height="19" viewBox="0 0 19 19" fill="none" xmlns="http://www.w3.org/2000/svg">
<path fill-rule="evenodd" clip-rule="evenodd" d="M18.2469 0.88141L4.50092 0.881409V2.63382L16.4277 2.63382C16.9698 1.98706 17.5798 1.39925 18.2469 0.88141ZM15.4556 3.9739L2.7485 3.9739L2.74851 5.72631L14.5569 5.72631C14.8083 5.11472 15.1095 4.52889 15.4556 3.9739ZM14.0987 7.06639H0.996094V8.8188H13.7565C13.8268 8.2198 13.942 7.63451 14.0987 7.06639ZM13.6754 10.1589H0.996094V11.9113H13.797C13.7168 11.3559 13.6753 10.788 13.6753 10.2104C13.6753 10.1932 13.6753 10.1761 13.6754 10.1589ZM14.0708 13.2514L2.74851 13.2514L2.74851 15.0038L14.6892 15.0038C14.439 14.4415 14.2315 13.8559 14.0708 13.2514ZM15.3921 16.3439L4.50092 16.3439V18.0963L16.6961 18.0963C16.2098 17.555 15.7727 16.9685 15.3921 16.3439Z" fill="#00A6CA"/>
</svg>
