<svg width="53" height="53" viewBox="0 0 53 53" fill="none" xmlns="http://www.w3.org/2000/svg">
<circle cx="26.5" cy="26.5" r="26.5" fill="#EDEDED"/>
<path fill-rule="evenodd" clip-rule="evenodd" d="M14.2505 14.0558C14.2505 14.0865 14.1745 14.1116 14.0817 14.1116C13.9888 14.1116 13.9129 14.1367 13.9129 14.1674C13.9129 14.198 13.8623 14.2232 13.8004 14.2232C13.7385 14.2232 13.6878 14.2483 13.6878 14.2789C13.6878 14.3096 13.6372 14.3347 13.5753 14.3347C13.5134 14.3347 13.4628 14.3598 13.4628 14.3905C13.4628 14.4212 13.4244 14.4463 13.3775 14.4463C13.2663 14.4463 12.4501 15.2557 12.4501 15.3659C12.4501 15.4124 12.4248 15.4505 12.3938 15.4505C12.3629 15.4505 12.3376 15.5007 12.3376 15.5621C12.3376 15.6234 12.3123 15.6736 12.2813 15.6736C12.2504 15.6736 12.225 15.7238 12.225 15.7852C12.225 15.8466 12.1997 15.8968 12.1688 15.8968C12.1378 15.8968 12.1125 15.9972 12.1125 16.1199C12.1125 16.2427 12.0872 16.3431 12.0563 16.3431C12.019 16.3431 12 19.2813 12 25.046C12 30.8107 12.019 33.7489 12.0563 33.7489C12.0872 33.7489 12.1125 33.8242 12.1125 33.9162C12.1125 34.0083 12.1378 34.0836 12.1688 34.0836C12.1997 34.0836 12.225 34.1534 12.225 34.2386C12.225 34.3297 12.2715 34.4269 12.3376 34.4741C12.3995 34.5183 12.4501 34.5937 12.4501 34.6415C12.4501 34.6893 12.5007 34.7646 12.5626 34.8088C12.6245 34.8531 12.6751 34.9222 12.6751 34.9625C12.6751 35.0576 13.0431 35.4225 13.1391 35.4225C13.1797 35.4225 13.2494 35.4727 13.294 35.5341C13.3386 35.5954 13.4201 35.6457 13.4752 35.6457C13.5303 35.6457 13.5753 35.6708 13.5753 35.7014C13.5753 35.7321 13.626 35.7572 13.6878 35.7572C13.7497 35.7572 13.8004 35.7823 13.8004 35.813C13.8004 35.8437 13.851 35.8688 13.9129 35.8688C13.9748 35.8688 14.0254 35.8939 14.0254 35.9246C14.0254 35.9553 14.152 35.9804 14.3067 35.9804C14.4614 35.9804 14.588 36.0055 14.588 36.0362C14.588 36.073 16.7932 36.092 21.091 36.092H27.594L27.358 35.827C27.0008 35.4259 26.4996 34.6448 26.258 34.1128L26.042 33.6373H20.3968H14.7517L14.6136 33.5003C14.5377 33.425 14.4755 33.2995 14.4755 33.2214C14.4755 33.1433 14.4502 33.0794 14.4192 33.0794C14.382 33.0794 14.363 30.3644 14.363 25.046C14.363 19.7276 14.382 17.0125 14.4192 17.0125C14.4502 17.0125 14.4755 16.9487 14.4755 16.8706C14.4755 16.714 14.702 16.4547 14.8387 16.4547C14.8865 16.4547 14.9256 16.4296 14.9256 16.3989C14.9256 16.3618 18.9577 16.3431 26.9093 16.3431H38.8929V16.1199C38.8929 15.9972 38.8676 15.8968 38.8367 15.8968C38.8057 15.8968 38.7804 15.8466 38.7804 15.7852C38.7804 15.7238 38.7551 15.6736 38.7241 15.6736C38.6932 15.6736 38.6679 15.6234 38.6679 15.5621C38.6679 15.5007 38.6426 15.4505 38.6116 15.4505C38.5807 15.4505 38.5554 15.4124 38.5554 15.3659C38.5554 15.2557 37.7391 14.4463 37.6279 14.4463C37.581 14.4463 37.5427 14.4212 37.5427 14.3905C37.5427 14.3598 37.492 14.3347 37.4301 14.3347C37.3682 14.3347 37.3176 14.3096 37.3176 14.2789C37.3176 14.2483 37.267 14.2232 37.2051 14.2232C37.1432 14.2232 37.0926 14.198 37.0926 14.1674C37.0926 14.1367 37.0166 14.1116 36.9238 14.1116C36.8309 14.1116 36.755 14.0865 36.755 14.0558C36.755 14.0188 32.9667 14 25.5027 14C18.0387 14 14.2505 14.0188 14.2505 14.0558ZM16.951 20.1924V21.364H18.1325H19.314V20.1924V19.0209H18.1325H16.951V20.1924ZM21.902 20.1924V21.364H27.9782H34.0544V20.1924V19.0209H27.9782H21.902V20.1924ZM36.6425 21.0786V23.1363L36.9515 23.2606C37.3738 23.4306 38.2141 23.9291 38.6475 24.2668L39.0054 24.5458V21.7833V19.0209H37.824H36.6425V21.0786ZM16.951 25.1018V26.2733H18.1325H19.314V25.1018V23.9302H18.1325H16.951V25.1018ZM21.902 25.1018V26.2733H24.3426H26.7831L27.1104 25.841C27.514 25.3081 28.2162 24.6063 28.7321 24.2205L29.1202 23.9302H25.5111H21.902V25.1018ZM32.8448 24.1294C32.2813 24.1968 31.9032 24.2816 31.4383 24.4447C31.0931 24.5658 30.592 24.7942 30.5201 24.8631C30.4791 24.9023 30.4218 24.9344 30.3926 24.9344C30.3351 24.9344 29.7842 25.2832 29.5555 25.4644C28.9633 25.9334 27.922 27.117 27.922 27.3209C27.922 27.3533 27.903 27.3881 27.8798 27.3984C27.8258 27.4222 27.5281 28.021 27.5281 28.1059C27.5281 28.1412 27.5028 28.1701 27.4719 28.1701C27.4409 28.1701 27.4156 28.2076 27.4156 28.2536C27.4156 28.2995 27.3676 28.4814 27.309 28.658C27.0578 29.4143 27.0042 29.7865 27.0055 30.7676C27.0063 31.3185 27.0335 31.8002 27.0701 31.9113C27.1049 32.0168 27.173 32.2538 27.2213 32.4379C27.2696 32.622 27.3373 32.8793 27.3718 33.0097C27.4063 33.1401 27.4556 33.2468 27.4813 33.2468C27.5071 33.2468 27.5281 33.2757 27.5281 33.3109C27.5281 33.3989 27.8228 33.9955 27.8777 34.0185C27.902 34.0288 27.922 34.0689 27.922 34.1076C27.922 34.1851 28.5464 35.0168 28.8045 35.283C29.0273 35.5129 29.4387 35.8738 29.6313 36.0083C29.7192 36.0696 29.8209 36.145 29.8575 36.1756C29.9644 36.2653 30.119 36.3568 30.5381 36.5781C31.7428 37.2144 33.2465 37.487 34.494 37.2952C36.4853 36.9891 37.8039 36.2224 39.1081 34.6127C39.1334 34.5816 39.2273 34.4309 39.3167 34.278C39.4063 34.125 39.4994 33.9915 39.5238 33.9813C39.5481 33.9711 39.5681 33.9385 39.5681 33.909C39.5681 33.8795 39.6532 33.6744 39.7572 33.4534C39.8613 33.2324 39.9641 32.9888 39.9858 32.9121C40.0075 32.8353 40.0478 32.7224 40.0754 32.661C40.1029 32.5996 40.1773 32.2935 40.2406 31.9808C40.3661 31.3609 40.3954 30.1906 40.2969 29.7321C40.2672 29.5941 40.2144 29.3305 40.1797 29.1464C40.145 28.9623 40.0979 28.7865 40.0751 28.7559C40.0523 28.7252 40.0168 28.63 39.9962 28.5444C39.9755 28.4588 39.8707 28.2026 39.7633 27.9752C39.6559 27.7477 39.5681 27.5374 39.5681 27.5079C39.5681 27.4783 39.5481 27.4458 39.5238 27.4355C39.4994 27.4253 39.4061 27.2914 39.3165 27.138C39.2268 26.9846 39.1265 26.83 39.0935 26.7943C39.0605 26.7587 38.9454 26.6206 38.8375 26.4875C38.1481 25.6363 37.0434 24.8508 36.0517 24.5068C35.3431 24.2609 35.1079 24.2063 34.4094 24.1253C33.5938 24.0307 33.6717 24.0305 32.8448 24.1294ZM34.6266 25.8554C35.1034 25.9681 35.3327 26.0407 35.6016 26.1642C35.7254 26.221 35.89 26.295 35.9673 26.3286C36.329 26.4856 36.7674 26.8004 37.1424 27.1723C37.4692 27.4962 37.8802 28.0164 37.8802 28.1059C37.8802 28.1361 37.8992 28.1691 37.9224 28.1794C37.9939 28.2109 38.3766 29.0233 38.4173 29.2301C38.4385 29.3375 38.4768 29.4513 38.5025 29.4831C38.6058 29.611 38.67 30.704 38.6089 31.2942C38.5758 31.6145 38.5284 31.9024 38.5036 31.934C38.4789 31.9657 38.4419 32.0792 38.4213 32.1863C38.3868 32.3663 38.0171 33.1832 37.9414 33.2468C37.9231 33.2621 37.8728 33.3426 37.8297 33.4257C37.7519 33.5755 37.4524 33.9448 37.2304 34.1646C36.9633 34.4291 36.6438 34.6973 36.5955 34.6973C36.567 34.6973 36.51 34.7375 36.4688 34.7867C36.4276 34.8359 36.3423 34.8997 36.2791 34.9284C36.2159 34.9572 36.025 35.0545 35.8548 35.1448C35.6846 35.2352 35.5062 35.3095 35.4582 35.31C35.4102 35.3105 35.3469 35.334 35.3175 35.3622C35.2881 35.3904 35.0405 35.4657 34.7673 35.5296C34.1615 35.6711 33.2222 35.6862 32.7414 35.562C32.5632 35.5159 32.3781 35.4783 32.3301 35.4783C32.245 35.4783 32.0684 35.4095 31.6009 35.1943C31.4737 35.1357 31.3524 35.0878 31.3313 35.0878C31.3102 35.0878 31.2623 35.062 31.225 35.0305C31.1876 34.999 31.0304 34.8936 30.8757 34.7963C30.6394 34.6476 29.8311 33.8859 29.6371 33.6291C29.5105 33.4615 29.1679 32.8578 29.1301 32.7357C29.1078 32.6639 29.0713 32.5801 29.0489 32.5494C29.0264 32.5187 28.968 32.3681 28.9189 32.2147C28.5861 31.1737 28.6544 29.6961 29.0766 28.8032C29.1223 28.7065 29.1597 28.6137 29.1597 28.597C29.1597 28.5276 29.578 27.8597 29.6472 27.8186C29.6885 27.7941 29.7223 27.7437 29.7223 27.7066C29.7223 27.6695 29.9186 27.4556 30.1583 27.2314C30.7031 26.7218 30.7149 26.7122 30.9882 26.5506C31.112 26.4774 31.2217 26.3977 31.232 26.3733C31.2423 26.349 31.2775 26.3291 31.3102 26.3291C31.3429 26.3291 31.4737 26.2821 31.6009 26.2247C32.1107 25.9943 32.2498 25.9461 32.5136 25.9083C32.6648 25.8866 32.8265 25.8477 32.873 25.8218C33.0175 25.741 34.242 25.7645 34.6266 25.8554ZM16.951 30.0111V31.1826H18.1325H19.314V30.0111V28.8395H18.1325H16.951V30.0111ZM21.902 30.0111V31.1826H23.7024H25.5027L25.5031 30.5829C25.5032 30.253 25.5412 29.7343 25.5875 29.4302C25.6337 29.126 25.6715 28.8687 25.6715 28.8583C25.6715 28.848 24.8234 28.8395 23.7868 28.8395H21.902V30.0111ZM40.0059 36.2954C39.6825 36.6398 39.1219 37.1757 39.0631 37.1967C39.0371 37.206 39.6481 37.8405 40.4209 38.6068L41.8259 40L42.413 39.4193C42.7359 39.0999 43 38.8242 43 38.8065C43 38.7888 42.3806 38.1588 41.6235 37.4065L40.247 36.0387L40.0059 36.2954Z" fill="#00A6CA"/>
</svg>
