<svg width="22" height="23" viewBox="0 0 22 23" fill="none" xmlns="http://www.w3.org/2000/svg">
<path fill-rule="evenodd" clip-rule="evenodd" d="M16.7433 0.132886C16.4101 0.276176 13.0677 3.48788 13.0677 3.66481C13.0677 3.72043 13.3851 4.07837 13.7731 4.46035L14.4786 5.15481L15.5123 4.13352L16.5461 3.11224V11.0065V18.9007H17.5332H18.5203V11.0748C18.5203 6.77049 18.5529 3.24882 18.5926 3.24882C18.6324 3.24882 19.0863 3.66797 19.6013 4.18029L20.5377 5.11186L21.2689 4.3915L22 3.67124L20.3307 2.00617C19.3134 0.991597 18.5144 0.273008 18.2853 0.166706C17.8357 -0.0420793 17.1833 -0.0563336 16.7433 0.132886ZM12.4096 13.2642V18.9007H13.3967H14.3838V13.2642V7.62762H13.3967H12.4096V13.2642ZM8.27304 14.8014V18.9007H9.26017H10.2473V14.8014V10.7021H9.26017H8.27304V14.8014ZM4.13652 16.3852V18.9007H5.12365H6.11077V16.3852V13.8697H5.12365H4.13652V16.3852ZM0 17.9225V18.9007H0.987125H1.97425V17.9225V16.9442H0.987125H0V17.9225ZM0 22.0218V23H9.26017H18.5203V22.0218V21.0435H9.26017H0V22.0218Z" fill="white"/>
</svg>
