<svg width="53" height="53" viewBox="0 0 53 53" fill="none" xmlns="http://www.w3.org/2000/svg">
<circle cx="26.5" cy="26.5" r="26.5" fill="#EDEDED"/>
<path fill-rule="evenodd" clip-rule="evenodd" d="M34.3097 11.1676C33.8855 11.3482 29.6316 15.3978 29.6316 15.6208C29.6316 15.691 30.0356 16.1423 30.5294 16.6239L31.4273 17.4995L32.743 16.2118L34.0587 14.9241V24.8777V34.8313H35.315H36.5713V24.9638C36.5713 19.5367 36.6127 15.0963 36.6634 15.0963C36.714 15.0963 37.2916 15.6248 37.9471 16.2708L39.1389 17.4454L40.0695 16.5371L41 15.6289L38.8755 13.5295C37.5807 12.2503 36.5638 11.3442 36.2722 11.2102C35.6999 10.9469 34.8697 10.929 34.3097 11.1676ZM28.794 27.7244V34.8313H30.0503H31.3067V27.7244V20.6174H30.0503H28.794V27.7244ZM23.5293 29.6626V34.8313H24.7857H26.042V29.6626V24.4939H24.7857H23.5293V29.6626ZM18.2647 31.6596V34.8313H19.521H20.7773V31.6596V28.4879H19.521H18.2647V31.6596ZM13 33.5979V34.8313H14.2563H15.5127V33.5979V32.3644H14.2563H13V33.5979ZM13 38.7666V40H24.7857H36.5713V38.7666V37.5331H24.7857H13V38.7666Z" fill="#00A6CA"/>
</svg>
