<svg width="40" height="20" viewBox="0 0 40 20" fill="none" xmlns="http://www.w3.org/2000/svg">
<path d="M19 20H1.5C0.671562 20 0 19.3284 0 18.5V1.5C0 0.671562 0.671562 0 1.5 0H19V20ZM11.4578 15.4611C11.5034 15.6166 11.5982 15.7532 11.7279 15.8504C11.8576 15.9475 12.0154 16 12.1774 16H13.6064C14.1201 16 14.4818 15.4951 14.3165 15.0087L10.7256 4.44281C10.6752 4.29448 10.5796 4.16565 10.4523 4.07442C10.3249 3.98318 10.1722 3.93412 10.0155 3.93412H7.98494C7.82827 3.93413 7.67554 3.9832 7.54818 4.07443C7.42082 4.16566 7.32523 4.29448 7.27481 4.44281L3.68388 15.0087C3.51856 15.4951 3.88025 16 4.394 16H5.81931C5.98218 16 6.14061 15.947 6.27068 15.849C6.40074 15.7509 6.49537 15.6132 6.54025 15.4567L7.11013 13.4688H10.8733L11.4578 15.4611ZM9.01706 6.68487C9.01706 6.68487 9.28706 8.00119 9.50644 8.7605L10.1814 11.1062H7.80206L8.49394 8.7605C8.71331 8.00113 8.98331 6.68487 8.98331 6.68487H9.01706ZM38.5 20H21V0H38.5C39.3284 0 40 0.671562 40 1.5V18.5C40 19.3284 39.3284 20 38.5 20ZM36.25 5.75H32.25V4.75C32.25 4.33581 31.9142 4 31.5 4H30.5C30.0858 4 29.75 4.33581 29.75 4.75V5.75H25.75C25.3358 5.75 25 6.08581 25 6.5V7.5C25 7.91419 25.3358 8.25 25.75 8.25H32.8816C32.4902 9.14369 31.8493 10.0608 31.0052 10.9504C30.5952 10.5192 30.2304 10.081 29.9199 9.64206C29.6924 9.32056 29.2583 9.22487 28.9202 9.42669L28.4652 9.69831L28.0591 9.94075C27.6868 10.163 27.5782 10.6546 27.8256 11.0106C28.2047 11.5561 28.6443 12.0941 29.1371 12.6184C28.6295 13.0076 28.0846 13.3837 27.5057 13.7412C27.1606 13.9543 27.0444 14.4009 27.2456 14.7531L27.7419 15.6216C27.952 15.9893 28.4253 16.1107 28.786 15.8888C29.5817 15.3994 30.3217 14.8779 31.0012 14.3331C31.6835 14.8807 32.4241 15.402 33.2134 15.8882C33.5743 16.1104 34.048 15.9893 34.2583 15.6213L34.7547 14.7524C34.9556 14.4009 34.8404 13.9549 34.4963 13.7417C33.9347 13.3941 33.3911 13.0182 32.8676 12.6155C34.1816 11.2139 35.1031 9.72244 35.5371 8.24988H36.25C36.6642 8.24988 37 7.91406 37 7.49988V6.49988C37 6.08581 36.6642 5.75 36.25 5.75Z" fill="#00A6CA"/>
</svg>
