<svg width="16" height="16" viewBox="0 0 16 16" fill="none" xmlns="http://www.w3.org/2000/svg">
<path fill-rule="evenodd" clip-rule="evenodd" d="M1.88945 0.06938C1.18858 0.288889 0.491659 0.921844 0.173749 1.62756C0.000643449 2.01197 0 2.03473 0 8.15888V14.3045L0.241206 14.7517C0.513688 15.257 0.918352 15.6261 1.37705 15.7879L1.68844 15.8977L1.70911 10.5761C1.72864 5.54853 1.73757 5.25841 1.86991 5.32498C1.94702 5.36375 4.70392 5.40582 7.99638 5.41861C13.3881 5.43948 13.9971 5.45507 14.127 5.57575C14.2622 5.70122 14.2714 5.9708 14.2714 9.80871C14.2714 13.675 14.263 13.9154 14.1243 14.0442C13.9907 14.1683 13.5003 14.1807 8.73737 14.1807H3.49749V15.0904V16L8.94472 15.9771C14.2751 15.9548 14.3998 15.9506 14.7547 15.7821C15.2167 15.5626 15.6183 15.1507 15.8321 14.6766C15.9959 14.3135 16 14.1945 16 9.76746V5.23044L15.7609 4.78747C15.3411 4.0099 14.7857 3.69602 13.729 3.63935L12.9849 3.59934L12.9841 2.64137C12.9835 1.80582 12.959 1.63053 12.793 1.27086C12.5627 0.771875 12.1842 0.389033 11.6985 0.16375C11.3476 0.000994571 11.1965 -0.00395464 6.71357 0.00115982C4.17085 0.00404701 2 0.0347337 1.88945 0.06938ZM11.1022 1.9303C11.2899 2.12275 11.3012 2.18248 11.2795 2.85833L11.2563 3.58062L6.85162 3.60198C2.0115 3.62541 2.10492 3.63424 1.85061 3.12964C1.65885 2.74911 1.69753 2.42657 1.97371 2.10386C2.10846 1.94639 2.29845 1.80161 2.39582 1.78223C2.49319 1.76292 4.44687 1.74197 6.73729 1.73579L10.9018 1.72457L11.1022 1.9303ZM10.7337 9.80871V10.7161H11.6181H12.5025V9.80871V8.9013H11.6181H10.7337V9.80871Z" fill="black"/>
</svg>
