<svg width="26" height="22" viewBox="0 0 26 22" fill="none" xmlns="http://www.w3.org/2000/svg">
<path fill-rule="evenodd" clip-rule="evenodd" d="M6.60593 2.19843C3.21159 3.41706 0.373824 4.45916 0.299778 4.51429C-0.13016 4.83427 -0.0907972 5.50571 0.373875 5.77848C0.454838 5.82606 3.30166 6.86868 6.70012 8.09542C11.9288 9.9829 12.9104 10.3222 13.0826 10.3015C13.3087 10.2743 25.4053 5.91765 25.6387 5.77931C25.8914 5.62954 26 5.43251 26 5.12378C26 4.8148 25.8916 4.61838 25.6377 4.46727C25.5561 4.41876 22.7551 3.39815 19.4131 2.19921C14.8873 0.575607 13.2655 0.0147247 13.0571 0.00108623C12.7975 -0.0158585 12.3353 0.141552 6.60593 2.19843ZM23.3936 8.26265L22.6689 8.52787V11.6133V14.6986L22.3683 15.004C22.1366 15.2393 22.0492 15.3727 21.9869 15.5858C21.8049 16.2082 21.9482 16.7798 22.3958 17.2166L22.6655 17.4799L22.6799 19.4993C22.6939 21.4597 22.6975 21.5229 22.8014 21.6645C23.1298 22.1118 23.7338 22.1118 24.0621 21.6645C24.1661 21.5228 24.1696 21.4604 24.1836 19.4638L24.1979 17.4089L24.3305 17.3368C24.5325 17.227 24.7977 16.8401 24.8885 16.5227C25.0535 15.9465 24.8739 15.3271 24.4259 14.9265L24.1946 14.7197V11.3553C24.1946 9.50493 24.1775 7.99241 24.1565 7.99416C24.1355 7.99592 23.7922 8.1167 23.3936 8.26265ZM5.33621 11.1035C5.35218 12.8985 5.35416 12.9281 5.47291 13.1732C5.79 13.8274 6.67749 14.3796 8.12978 14.8266C11.0404 15.7223 14.9682 15.7228 17.8885 14.8277C19.3269 14.3867 20.223 13.8261 20.5425 13.167C20.6576 12.9298 20.6605 12.8854 20.6763 11.1035C20.6876 9.83412 20.676 9.28248 20.6381 9.28248C20.6081 9.28248 18.9989 9.85726 17.0619 10.5598L13.5403 11.8372L13.0063 11.8366L12.4723 11.836L8.9565 10.5593C7.02285 9.85705 5.41361 9.28248 5.3804 9.28248C5.33463 9.28248 5.32395 9.72341 5.33621 11.1035Z" fill="#00A6CA"/>
</svg>
