<svg width="40" height="28" viewBox="0 0 40 28" fill="none" xmlns="http://www.w3.org/2000/svg">
<path fill-rule="evenodd" clip-rule="evenodd" d="M10.6326 7.11654C8.8027 7.60861 7.47808 9.36905 7.49152 11.2909C7.4984 12.2652 7.72486 13.0009 8.2746 13.835L8.43199 14.0739L7.90647 14.3783C7.58123 14.5668 7.08298 14.9821 6.59942 15.4679C5.45976 16.613 5.00504 17.4727 5.00004 18.4916C4.99332 19.8606 5.82782 21.1111 7.08767 21.6198L7.53716 21.8014H11.8351H16.133L16.6506 21.5561C18.1846 20.8293 18.9465 19.1835 18.4845 17.5945C18.2172 16.675 17.031 15.2519 15.9377 14.5391C15.6153 14.3289 15.3212 14.1305 15.2841 14.0982C15.2469 14.0658 15.3416 13.8341 15.4944 13.5834C15.947 12.8408 16.1169 12.231 16.1223 11.33C16.1258 10.766 16.0869 10.429 15.9825 10.1188C15.4656 8.58339 14.4307 7.55157 12.9735 7.11896C12.4427 6.96142 11.2142 6.96009 10.6326 7.11654ZM12.626 9.57629C13.103 9.80721 13.4855 10.266 13.6377 10.7896C14.0972 12.3703 12.4134 13.7697 10.9557 13.0184C10.5755 12.8224 10.1941 12.4205 10.0418 12.0553C9.78357 11.4364 9.95619 10.4699 10.4138 9.9717C10.8956 9.44704 11.9644 9.25605 12.626 9.57629ZM12.6713 15.7516C13.9928 16.0213 15.1814 16.78 15.8493 17.7801C16.2572 18.3911 16.2822 18.7452 15.9442 19.1237L15.7161 19.3789L11.92 19.4006C8.62086 19.4194 8.09331 19.4065 7.89045 19.3016C7.62147 19.1625 7.41994 18.8202 7.41994 18.5026C7.41994 18.0891 8.26593 17.0467 9.02589 16.5239C10.0264 15.8354 11.5259 15.5178 12.6713 15.7516Z" fill="#00A6CA"/>
<mask id="path-2-inside-1_1938_2124" fill="white">
<rect width="40" height="28" rx="2"/>
</mask>
<rect width="40" height="28" rx="2" stroke="#00A6CA" stroke-width="6.8" mask="url(#path-2-inside-1_1938_2124)"/>
<path d="M21 11H33" stroke="#00A6CA" stroke-width="3.4"/>
<path d="M21 17H33" stroke="#00A6CA" stroke-width="3.4"/>
</svg>
