<svg width="36" height="36" viewBox="0 0 36 36" fill="none" xmlns="http://www.w3.org/2000/svg">
<path fill-rule="evenodd" clip-rule="evenodd" d="M13.0236 21.1946C12.1138 21.4505 11.2906 21.8602 10.4776 22.4618L9.74637 23.0029L9.32183 22.5724C8.62774 21.8682 7.99348 21.6361 6.58434 21.5703C5.87023 21.5369 5.01227 21.5812 4.61139 21.6721C3.40444 21.9462 2.39752 22.9046 2.18512 23.9816L2.10083 24.4091H4.59512C6.68329 24.4091 7.12369 24.444 7.30061 24.6233C7.48223 24.8077 7.51181 25.3571 7.51181 28.5506C7.51181 31.2567 7.46812 32.308 7.35049 32.4273C7.25329 32.5259 6.7829 32.5909 6.16746 32.5909C5.55202 32.5909 5.08164 32.5259 4.98444 32.4273C4.87111 32.3123 4.82312 31.5424 4.82312 29.8364V27.4091H3.41156H2V29.907C2 32.9381 2.13685 33.5551 3.00476 34.4354C3.74012 35.1814 4.58786 35.4545 6.16746 35.4545C7.66815 35.4545 8.56953 35.1814 9.25663 34.5183L9.79221 34.0016L10.2315 34.3677C10.9459 34.963 12.0935 35.5625 12.951 35.7888C13.5728 35.9527 14.518 36 17.1693 36H20.5863L26.8166 33.1905C33.7346 30.0708 33.9268 29.9535 34.6238 28.4283C34.931 27.7559 34.9968 27.4227 34.9999 26.5199C35.0032 25.5537 34.9519 25.3195 34.56 24.512C33.7729 22.8901 32.4016 22.0417 30.5673 22.0415C29.5178 22.0414 29.4359 22.0668 27.1699 23.089C25.8927 23.665 24.7979 24.1364 24.7369 24.1364C24.6757 24.1364 24.6835 23.7968 24.7539 23.3819C24.9188 22.4115 24.8006 21.8014 24.3617 21.3562L24.0105 21L18.8196 21.0121C15.1176 21.0209 13.455 21.0732 13.0236 21.1946ZM21.5508 24.1705C21.3756 24.7384 20.6688 25.6466 20.0366 26.1162C19.1211 26.7963 18.4134 27 16.9655 27H15.7123V28.5V30L16.8886 29.9977C17.5356 29.9963 18.4581 29.9088 18.9387 29.8031C19.4435 29.692 22.015 28.6278 25.0285 27.2827C27.8973 26.0022 30.3957 24.9545 30.5806 24.9545C31.7623 24.9545 32.4857 26.3108 31.8595 27.3524C31.639 27.719 30.8415 28.1179 25.6364 30.4647L19.6663 33.1564L16.7819 33.1122C13.9815 33.0694 13.8751 33.0575 13.1317 32.7041C10.2201 31.3197 9.52308 27.5435 11.7602 25.2743C12.3807 24.645 13.1472 24.1988 13.9289 24.012C14.2074 23.9455 16.0575 23.8849 18.0403 23.8773L21.6456 23.8636L21.5508 24.1705Z" fill="#00A6CA"/>
<path d="M34 18C34 9.16344 26.8366 2 18 2C9.16344 2 2 9.16344 2 18" stroke="#00A6CA" stroke-width="3.4"/>
<path d="M18 9V19" stroke="#00A6CA" stroke-width="3.4"/>
<path d="M23 14L13 14" stroke="#00A6CA" stroke-width="3.4"/>
</svg>
