<svg width="38" height="40" viewBox="0 0 38 40" fill="none" xmlns="http://www.w3.org/2000/svg">
<path d="M16.9404 30.1081L16.9995 30.2H17.1087H19.3261H19.7056L19.4911 29.8869L15.5172 24.0883C16.561 23.8984 17.4211 23.5219 18.0868 22.95L18.0871 22.9498C18.8022 22.333 19.2208 21.4918 19.3532 20.4437H22H22.2V20.2437V18.8095V18.6095H22H19.3062C19.2359 18.1372 19.0989 17.7147 18.8919 17.3449C18.7472 17.0862 18.5777 16.8492 18.3837 16.6342H22H22.2V16.4342V15V14.8H22H13H12.8V15V16.4342V16.6342H13H13.4783C14.2039 16.6342 14.8049 16.715 15.2862 16.8709L15.2862 16.8709L15.2877 16.8714C15.7795 17.0263 16.1583 17.269 16.4345 17.5944L16.4344 17.5944L16.4372 17.5976C16.6698 17.8602 16.8416 18.1953 16.9474 18.6095H13H12.8V18.8095V20.2437V20.4437H13H16.9903C16.9162 20.9041 16.7573 21.2597 16.5242 21.5229C16.2504 21.832 15.8664 22.061 15.3594 22.2023L15.3594 22.2023L15.358 22.2027C14.8599 22.3453 14.2348 22.419 13.4783 22.419H13H12.8V22.619V23.605V23.6638L12.8317 23.7132L16.9404 30.1081Z" fill="#00A6CA" stroke="#00A6CA" stroke-width="0.4"/>
<path d="M18 6C14.2983 6 10.7111 7.28351 7.84971 9.63183C4.98827 11.9802 3.0296 15.248 2.30744 18.8786C1.58527 22.5091 2.1443 26.2778 3.88926 29.5423C5.63422 32.8069 8.45715 35.3655 11.8771 36.7821C15.297 38.1986 19.1023 38.3856 22.6446 37.311C26.1868 36.2365 29.247 33.967 31.3035 30.8891C33.3601 27.8113 34.2858 24.1156 33.923 20.4317C33.5601 16.7479 31.9312 13.3038 29.3137 10.6863" stroke="#00A6CA" stroke-width="3.4"/>
<path d="M25.7343 3.3107L37.203 9.93212L25.7343 16.5535L25.7343 3.3107Z" fill="#00A6CA"/>
</svg>
