<svg width="234" height="361" viewBox="0 0 234 361" fill="none" xmlns="http://www.w3.org/2000/svg">
<g opacity="0.2" filter="url(#filter0_f_214_661)">
<ellipse rx="96.5" ry="3.5" transform="matrix(1 0 0 -1 115.5 349.5)" fill="black"/>
</g>
<rect x="0.715812" y="29.3538" width="193.932" height="256.457" transform="rotate(-8.49159 0.715812 29.3538)" fill="#FCFCFC" stroke="#D5D5D5"/>
<g opacity="0.5">
<path d="M70.6149 147.229L58.8414 148.987L59.3021 152.073L66.3045 151.027L62.4378 165.436L66.0221 164.901L70.6893 147.728L70.6149 147.229ZM83.288 158.95L84.8309 158.72L84.4021 155.848L82.8592 156.078L81.2998 145.634L77.6206 146.183L72.0912 159.045L72.3215 160.587L80.0835 159.429L80.5761 162.728L83.7806 162.25L83.288 158.95ZM79.067 150.02L79.4147 153.486L79.886 156.643L75.922 157.235L79.0432 150.023L79.067 150.02ZM74.0284 207.263C74.6255 210.45 77.3171 212.062 80.4266 211.598C84.1771 211.038 85.8584 207.996 85.4189 205.053C85.0752 202.75 83.5385 200.747 80.8127 200.693L83.5559 194.363L83.4815 193.864L72.9186 195.441L73.3403 198.266L79.2033 197.391L76.928 203.117L77.0025 203.616C79.0821 202.917 81.6074 202.928 82.0756 205.576C82.2786 207.099 81.4649 208.313 79.922 208.543C78.4978 208.755 77.442 208.185 77.1379 206.799L74.0284 207.263Z" fill="#3EA3CE"/>
<path d="M77.4006 129.594C78.0753 125.73 77.6349 121.534 76.1381 117.564C74.6412 113.595 72.1592 110.042 69.0233 107.379C65.8873 104.716 62.2466 103.07 58.587 102.661C54.9273 102.251 51.4229 103.098 48.5413 105.088C45.6598 107.078 43.5381 110.117 42.4596 113.798C41.3811 117.479 41.3969 121.629 42.5051 125.692C43.6132 129.755 45.7609 133.54 48.6616 136.539C51.5622 139.539 55.0778 141.612 58.7392 142.482" stroke="#F0F0F0" stroke-width="15"/>
<path d="M71.1917 107.221C68.8506 105.498 66.147 104.325 63.2835 103.79C60.4201 103.254 57.4712 103.372 54.6577 104.132C51.8443 104.892 49.2394 106.276 47.0383 108.18C44.8371 110.084 43.0969 112.459 41.948 115.125C40.7991 117.792 40.2713 120.682 40.4043 123.579C40.5373 126.476 41.3275 129.304 42.7158 131.852C44.104 134.4 46.0543 136.601 48.4204 138.29C50.7864 139.98 53.5069 141.114 56.3779 141.607" stroke="#3EA3CE" stroke-width="15"/>
<path d="M54.7109 103.993C51.8853 104.756 49.2692 106.145 47.0584 108.056C44.8477 109.967 43.0997 112.35 41.9456 115.026C40.7915 117.702 40.2612 120.603 40.3944 123.51C40.5276 126.416 41.3208 129.255 42.7147 131.811C44.1086 134.368 46.0669 136.576 48.4429 138.271C50.8188 139.966 53.5508 141.104 56.434 141.599" stroke="#FCD833" stroke-width="15"/>
<path d="M40.4257 123.724C40.5567 126.6 41.3424 129.408 42.724 131.936C44.1056 134.465 46.0472 136.649 48.4033 138.326C50.7593 140.002 53.4687 141.126 56.3283 141.615" stroke="#F16E33" stroke-width="15"/>
<path d="M57.7642 120.962L57.4977 121.252L57.4087 121.637L57.3521 121.881C56.6044 125.109 60.33 127.483 62.9399 125.442L63.234 125.212L63.3859 124.871L68.3418 113.748L65.866 112.124L57.7642 120.962Z" fill="#3EA3CE" stroke="#3EA3CE" stroke-width="3"/>
</g>
<rect x="94.4434" y="115.687" width="72.18" height="5.97669" rx="2.98835" transform="rotate(-8.49159 94.4434 115.687)" fill="#C8C9CA"/>
<rect x="96.2773" y="127.964" width="39.5381" height="5.51694" rx="2.75847" transform="rotate(-8.49159 96.2773 127.964)" fill="#DCDDDF"/>
<rect x="84.8779" y="51.6128" width="88.7309" height="5.97669" rx="2.98835" transform="rotate(-8.49159 84.8779 51.6128)" fill="#C8C9CA"/>
<rect x="86.7139" y="63.8862" width="48.733" height="5.51694" rx="2.75847" transform="rotate(-8.49159 86.7139 63.8862)" fill="#DCDDDF"/>
<rect x="45.5703" y="189.96" width="59.3072" height="5.97669" rx="2.98835" transform="rotate(-8.49159 45.5703 189.96)" fill="#C8C9CA"/>
<rect x="47.4053" y="202.234" width="131.487" height="5.51694" rx="2.75847" transform="rotate(-8.49159 47.4053 202.234)" fill="#DCDDDF"/>
<rect x="49.1045" y="213.601" width="131.487" height="5.51694" rx="2.75847" transform="rotate(-8.49159 49.1045 213.601)" fill="#DCDDDF"/>
<rect x="36.7607" y="174.539" width="157.233" height="0.919491" rx="0.459745" transform="rotate(-8.49159 36.7607 174.539)" fill="#DCDDDF"/>
<rect x="24.335" y="91.3276" width="157.233" height="0.919491" rx="0.459745" transform="rotate(-8.49159 24.335 91.3276)" fill="#DCDDDF"/>
<rect x="143.112" y="120.972" width="24.8263" height="5.51694" rx="2.75847" transform="rotate(-8.49159 143.112 120.972)" fill="#DCDDDF"/>
<g clip-path="url(#clip0_214_661)">
<path d="M56.4638 60.1493C56.7001 61.7321 56.2979 63.344 55.3458 64.6303C54.3937 65.9167 52.9696 66.7721 51.3868 67.0084C49.804 67.2447 48.1921 66.8426 46.9058 65.8904C45.6195 64.9383 44.7641 63.5142 44.5277 61.9314C44.2914 60.3486 44.6936 58.7367 45.6457 57.4504C46.5978 56.1641 48.0219 55.3087 49.6047 55.0723C51.1875 54.836 52.7994 55.2382 54.0857 56.1903C55.372 57.1424 56.2274 58.5665 56.4638 60.1493V60.1493Z" fill="#C8C9CA"/>
<path d="M36.7755 50.8889C35.7203 51.0464 34.7709 51.6167 34.1362 52.4743C33.5014 53.3318 33.2334 54.4064 33.3909 55.4616L36.955 79.3336C37.1126 80.3888 37.6828 81.3382 38.5404 81.973C39.3979 82.6077 40.4725 82.8758 41.5277 82.7183L65.3997 79.1542C66.455 78.9966 67.4044 78.4263 68.0391 77.5688C68.6738 76.7112 68.9419 75.6367 68.7844 74.5815L65.2203 50.7094C65.0627 49.6542 64.4925 48.7048 63.6349 48.0701C62.7774 47.4353 61.7028 47.1672 60.6476 47.3248L36.7755 50.8889ZM60.9446 49.3141C61.4722 49.2353 62.0095 49.3694 62.4383 49.6868C62.867 50.0041 63.1522 50.4788 63.2309 51.0064L66.7951 74.8785C66.8738 75.4061 66.7398 75.9434 66.4224 76.3721C66.105 76.8009 65.6303 77.086 65.1027 77.1648L64.8057 75.1755C64.5087 73.1861 61.6283 67.5151 51.6817 69.0002C41.735 70.4852 40.6367 76.7503 40.9337 78.7396L41.2307 80.7289C40.7031 80.8077 40.1658 80.6737 39.737 80.3563C39.3083 80.0389 39.0231 79.5642 38.9443 79.0366L35.3802 55.1646C35.3015 54.637 35.4355 54.0997 35.7529 53.6709C36.0702 53.2421 36.545 52.957 37.0726 52.8782L60.9446 49.3141Z" fill="#C8C9CA"/>
</g>
<path d="M17.7008 139.726L0.230469 196.044V205.929H31.9529V192.137L17.7008 139.726Z" fill="#0098B9"/>
<path d="M213.781 196.273V140.414L233.32 196.273H213.781Z" fill="#0098B9"/>
<rect x="19.3506" y="47.1289" width="193.932" height="256.457" fill="white" stroke="#D5D5D5"/>
<g opacity="0.5">
<path d="M69.016 165.462H65.048V166.502H67.408L65.424 171.062H66.632L69.016 165.63V165.462ZM72.6171 169.95H73.1371V168.982H72.6171V165.462H71.3771L68.9211 169.43V169.95H71.5371V171.062H72.6171V169.95ZM71.6651 166.798L71.6091 167.958V169.022H70.2731L71.6571 166.798H71.6651ZM73.8778 169.422C73.9178 170.502 74.7258 171.166 75.7738 171.166C77.0378 171.166 77.7418 170.246 77.7418 169.254C77.7418 168.478 77.3338 167.742 76.4378 167.59L77.6538 165.638V165.47H74.0938V166.422H76.0698L75.0378 168.198V168.366C75.7578 168.238 76.5898 168.366 76.6138 169.262C76.6058 169.774 76.2778 170.134 75.7578 170.134C75.2778 170.134 74.9578 169.894 74.9258 169.422H73.8778Z" fill="#3EA3CE"/>
<path d="M81.3042 156.296C82.956 152.744 83.4852 148.773 82.8212 144.913C82.1572 141.052 80.3317 137.486 77.5881 134.69C74.8446 131.894 71.3136 130.001 67.4664 129.265C63.6192 128.528 59.6388 128.982 56.0563 130.566C52.4739 132.15 49.4598 134.79 47.4164 138.132C45.373 141.474 44.3975 145.359 44.62 149.27C44.8424 153.181 46.2524 156.931 48.6616 160.019C51.0708 163.108 54.3648 165.388 58.1038 166.556" stroke="#F0F0F0" stroke-width="5"/>
<path d="M77.5542 134.548C75.4932 132.498 72.9925 130.938 70.2395 129.986C67.4865 129.034 64.5526 128.714 61.6577 129.051C58.7628 129.387 55.9821 130.372 53.524 131.93C51.0658 133.488 48.9941 135.579 47.464 138.047C45.9339 140.515 44.9851 143.295 44.6889 146.18C44.3926 149.065 44.7566 151.979 45.7534 154.703C46.7502 157.428 48.3541 159.893 50.4447 161.914C52.5354 163.934 55.0586 165.457 57.8252 166.369" stroke="#3EA3CE" stroke-width="5"/>
<path d="M61.7308 128.921C58.8235 129.259 56.0309 130.246 53.5622 131.81C51.0936 133.373 49.0129 135.472 47.4763 137.948C45.9396 140.425 44.9868 143.215 44.6893 146.11C44.3918 149.004 44.7573 151.929 45.7584 154.663C46.7595 157.397 48.3702 159.871 50.4698 161.898C52.5694 163.926 55.1034 165.454 57.8819 166.369" stroke="#FCD833" stroke-width="5"/>
<path d="M44.6885 146.327C44.3934 149.191 44.7559 152.084 45.749 154.789C46.742 157.494 48.3398 159.941 50.4225 161.947C52.5052 163.952 55.0189 165.465 57.775 166.37" stroke="#F16E33" stroke-width="5"/>
<path d="M62.8742 146.932L62.7721 147.015L62.7238 147.138L62.6317 147.371C61.7617 149.576 64.147 151.649 66.2093 150.481L66.3176 150.419L66.3845 150.314L72.9285 140.045L72.1922 139.388L62.8742 146.932Z" fill="#3EA3CE" stroke="#3EA3CE"/>
</g>
<rect x="99.3076" y="146.359" width="72.18" height="5.97669" rx="2.98835" fill="#C8C9CA"/>
<rect x="99.3076" y="158.773" width="39.5381" height="5.51694" rx="2.75847" fill="#DCDDDF"/>
<rect x="99.3076" y="81.5703" width="88.7309" height="5.97669" rx="2.98835" fill="#C8C9CA"/>
<rect x="99.3076" y="93.9844" width="48.733" height="5.51694" rx="2.75847" fill="#DCDDDF"/>
<rect x="39.999" y="212.598" width="59.3072" height="5.97669" rx="2.98835" fill="#C8C9CA"/>
<rect x="39.999" y="225.008" width="131.487" height="5.51694" rx="2.75847" fill="#DCDDDF"/>
<rect x="39.999" y="236.5" width="131.487" height="5.51694" rx="2.75847" fill="#DCDDDF"/>
<rect x="33.5615" y="196.047" width="157.233" height="0.919491" rx="0.459745" fill="#DCDDDF"/>
<rect x="33.5615" y="111.914" width="157.233" height="0.919491" rx="0.459745" fill="#DCDDDF"/>
<rect x="146.656" y="158.773" width="24.8263" height="5.51694" rx="2.75847" fill="#DCDDDF"/>
<g clip-path="url(#clip1_214_661)">
<path d="M69.9384 85.8232C69.9384 87.4236 69.3027 88.9584 68.1711 90.09C67.0394 91.2216 65.5046 91.8574 63.9043 91.8574C62.3039 91.8574 60.7691 91.2216 59.6375 90.09C58.5059 88.9584 57.8701 87.4236 57.8701 85.8232C57.8701 84.2229 58.5059 82.6881 59.6375 81.5564C60.7691 80.4248 62.3039 79.7891 63.9043 79.7891C65.5046 79.7891 67.0394 80.4248 68.1711 81.5564C69.3027 82.6881 69.9384 84.2229 69.9384 85.8232V85.8232Z" fill="#C8C9CA"/>
<path d="M51.8343 73.7539C50.7674 73.7539 49.7442 74.1777 48.9898 74.9321C48.2354 75.6866 47.8115 76.7098 47.8115 77.7767V101.913C47.8115 102.98 48.2354 104.003 48.9898 104.758C49.7442 105.512 50.7674 105.936 51.8343 105.936H75.9709C77.0378 105.936 78.061 105.512 78.8155 104.758C79.5699 104.003 79.9937 102.98 79.9937 101.913V77.7767C79.9937 76.7098 79.5699 75.6866 78.8155 74.9321C78.061 74.1777 77.0378 73.7539 75.9709 73.7539H51.8343ZM75.9709 75.7653C76.5044 75.7653 77.016 75.9772 77.3932 76.3544C77.7704 76.7316 77.9823 77.2432 77.9823 77.7767V101.913C77.9823 102.447 77.7704 102.958 77.3932 103.336C77.016 103.713 76.5044 103.925 75.9709 103.925V101.913C75.9709 99.9019 73.9595 93.8678 63.9026 93.8678C53.8457 93.8678 51.8343 99.9019 51.8343 101.913V103.925C51.3008 103.925 50.7892 103.713 50.412 103.336C50.0348 102.958 49.8229 102.447 49.8229 101.913V77.7767C49.8229 77.2432 50.0348 76.7316 50.412 76.3544C50.7892 75.9772 51.3008 75.7653 51.8343 75.7653H75.9709Z" fill="#C8C9CA"/>
</g>
<rect y="196.043" width="233.551" height="108.04" fill="#00A6CA"/>
<mask id="mask0_214_661" style="mask-type:alpha" maskUnits="userSpaceOnUse" x="0" y="196" width="234" height="68">
<rect y="196" width="234" height="68" fill="#00A6CA"/>
</mask>
<g mask="url(#mask0_214_661)">
<path fill-rule="evenodd" clip-rule="evenodd" d="M178.973 182.923C173.962 183.453 169.494 184.809 164.752 187.238C157.519 190.945 151.347 196.949 148.019 203.521C146.608 206.306 146.141 208.273 146.282 210.843C146.472 214.315 148.026 216.803 150.908 218.244C152.989 219.285 154.629 219.555 158.879 219.555C160.945 219.555 162.683 219.643 162.742 219.75C162.801 219.857 162.331 221.582 161.697 223.582C160.603 227.032 160.548 227.354 160.626 229.825C160.7 232.159 160.798 232.612 161.569 234.171C162.525 236.103 163.876 237.379 165.948 238.309C168.365 239.395 175.173 239.151 176.865 237.919C177.279 237.618 177.264 237.514 176.656 236.448C176.296 235.818 175.8 234.559 175.554 233.652C175.196 232.338 175.021 232.037 174.691 232.171C173.755 232.55 170.787 232.87 169.844 232.694C168.55 232.452 167.24 231.168 167.004 229.911C166.866 229.174 167.093 228.108 168.027 225.114C168.687 222.996 169.389 220.879 169.586 220.41L169.944 219.555H173.847H177.75L178.687 216.591C179.203 214.961 179.625 213.558 179.625 213.473C179.625 213.388 177.922 213.319 175.842 213.319C173.101 213.319 172.058 213.234 172.058 213.011C172.058 212.842 172.763 210.574 173.624 207.972C174.485 205.369 175.189 203.11 175.189 202.953C175.189 202.759 174.102 202.666 171.815 202.666H168.44L166.719 207.993L164.997 213.319H160.878C155.898 213.319 154.308 212.965 153.522 211.681C152.824 210.542 152.893 209.114 153.752 206.949C155.702 202.028 161.514 196.158 167.6 192.963C176.25 188.421 186.729 187.936 195.978 191.649C202.049 194.086 207.581 198.603 211.289 204.148C215.122 209.883 216.934 215.833 216.936 222.692C216.938 231.89 213.561 240.014 207.013 246.56C198.163 255.407 185.013 258.62 173.111 254.844C167.833 253.169 163.447 250.486 159.396 246.454C156.473 243.544 154.367 240.577 152.638 236.937C151.57 234.69 150.141 230.43 150.141 229.497C150.141 229.207 149.953 229.141 149.423 229.246C149.029 229.324 147.62 229.595 146.292 229.849C143.498 230.381 143.569 230.251 144.408 233.331C147.702 245.423 156.707 255.409 168.537 260.089L170.506 260.868L183.219 260.867C195.484 260.867 195.983 260.848 197.368 260.324C216.539 253.068 227.14 232.929 222.246 213.059C220.484 205.905 217.034 199.88 211.6 194.469C208.244 191.126 205.198 188.905 201.294 186.953C194.563 183.587 186.483 182.128 178.973 182.923ZM183.674 213.644C183.615 213.823 182.562 217.095 181.335 220.916C179.258 227.382 179.103 228.017 179.103 230.066C179.103 232.953 179.777 234.802 181.424 236.437C183.252 238.251 184.744 238.853 187.743 238.987C191.155 239.14 193.628 238.403 196.683 236.323L197.695 235.635L198.546 236.56C199.014 237.069 200.085 237.8 200.926 238.185C202.237 238.784 202.885 238.899 205.456 238.988L208.457 239.092L209.272 237.703C209.954 236.539 211.196 233.96 211.196 233.706C211.196 233.666 209.993 233.593 208.522 233.544C205.126 233.432 203.674 232.82 202.873 231.167C202.222 229.82 202.129 230.235 205.159 220.972C206.471 216.964 207.544 213.602 207.544 213.502C207.544 213.401 206.025 213.319 204.169 213.319H200.794L199.066 218.71C198.116 221.676 197.153 224.687 196.926 225.401C196.36 227.185 195.894 228.067 194.81 229.398C193.006 231.616 189.608 233.142 187.724 232.58C186.358 232.173 185.506 231.177 185.515 229.998C185.519 229.47 186.661 225.57 188.053 221.332C189.445 217.093 190.584 213.556 190.584 213.472C190.584 213.388 189.054 213.319 187.184 213.319C184.695 213.319 183.754 213.406 183.674 213.644Z" fill="#FCD833"/>
</g>
<defs>
<filter id="filter0_f_214_661" x="11" y="338" width="209" height="23" filterUnits="userSpaceOnUse" color-interpolation-filters="sRGB">
<feFlood flood-opacity="0" result="BackgroundImageFix"/>
<feBlend mode="normal" in="SourceGraphic" in2="BackgroundImageFix" result="shape"/>
<feGaussianBlur stdDeviation="4" result="effect1_foregroundBlur_214_661"/>
</filter>
<clipPath id="clip0_214_661">
<rect width="32.1822" height="32.1822" fill="white" transform="translate(32.7969 51.4829) rotate(-8.49159)"/>
</clipPath>
<clipPath id="clip1_214_661">
<rect width="32.1822" height="32.1822" fill="white" transform="translate(47.8115 73.7539)"/>
</clipPath>
</defs>
</svg>
