<svg width="48" height="44" viewBox="0 0 48 44" fill="none" xmlns="http://www.w3.org/2000/svg">
<path d="M0 7.35585H47.5682V28.4428H0V7.35585Z" fill="#26A3CB"/>
<path d="M0.980957 27.9523H46.5876V43.1545H0.980957V27.9523Z" fill="#26A3CB"/>
<path fill-rule="evenodd" clip-rule="evenodd" d="M19.6159 4.90394V7.6011H14.7119V3.92315C14.7119 1.75645 16.4684 0 18.6351 0H29.1785C31.3452 0 33.1017 1.75645 33.1017 3.92315V7.6011H28.1977V4.90394H19.6159Z" fill="#26A3CB"/>
<path d="M4.65891 37.27V28.4429H0.980957V43.1547H46.5876V39.9671C35.3085 40.0489 11.7206 40.1633 8.58206 39.9671C5.44354 39.771 4.65891 38.0873 4.65891 37.27Z" fill="#0195C4"/>
<path d="M8.3367 15.9377V7.35585H0V28.4428H47.5682V26.236H18.635C10.3963 26.236 8.3367 19.3705 8.3367 15.9377Z" fill="#0195C4"/>
<path d="M20.5967 25.9908H27.4622V30.4044H20.5967V25.9908Z" fill="#D2E7EE"/>
</svg>
