<svg width="28" height="33" viewBox="0 0 28 33" fill="none" xmlns="http://www.w3.org/2000/svg">
<path fill-rule="evenodd" clip-rule="evenodd" d="M8.42017 0.0341512C8.16329 0.118649 7.88022 0.283883 7.52921 0.554219C7.09492 0.88868 4.40993 3.50146 1.91769 6.01476L0 7.94866V8.31738C0 8.74641 0.129941 9.06502 0.420103 9.34716L0.610718 9.53259L4.1407 9.5712L7.67074 9.6098V9.00309C7.67074 8.24458 7.56981 7.87221 7.29978 7.63428C7.04624 7.41088 6.68923 7.3357 5.83674 7.32604C5.46555 7.32187 4.86717 7.30237 4.50705 7.28263L3.85216 7.24686L6.15078 4.96033C7.41496 3.70275 8.56626 2.57847 8.70918 2.46191C9.17363 2.08305 9.17219 2.08259 10.012 2.85835C10.4195 3.23483 12.1242 4.90841 13.8001 6.57748L16.8471 9.61206L17.6518 8.8062L18.4564 8.00029L16.3078 5.8387C15.126 4.64982 13.5065 3.045 12.7089 2.27236C10.5225 0.154763 10.33 0.0291739 9.22796 0.0026091C8.86317 -0.00618795 8.49965 0.00799151 8.42017 0.0341512ZM12.1117 7.33206C11.4488 7.36916 11.0895 7.47727 10.9179 7.69117C10.8155 7.81891 10.7835 8.69386 10.728 12.8938C10.6968 15.2532 10.6513 16.9823 10.6181 17.07C10.566 17.2074 10.5245 17.2233 10.1177 17.2616C9.62909 17.3075 7.98432 17.2671 7.83794 17.2055C7.705 17.1497 7.67074 16.3994 7.67074 13.5462V11.1535H6.54609H5.42143L5.42414 13.7723C5.42564 15.2127 5.4475 16.7187 5.47276 17.119C5.52778 17.9915 5.63915 18.2482 6.19554 18.7843C6.66772 19.2393 6.9366 19.3683 7.5468 19.4327C8.18434 19.5001 10.0197 19.4999 10.7148 19.4324C11.3956 19.3663 11.6848 19.2287 12.1731 18.7388C12.815 18.0946 12.8219 18.0686 12.8693 16.1018C12.8916 15.1787 12.9119 12.8152 12.9145 10.8496C12.9182 8.02187 12.9041 7.27777 12.8471 7.28535C12.8074 7.29056 12.4765 7.31157 12.1117 7.33206ZM16.7337 12.8336C16.3901 12.905 15.9848 13.1782 15.5936 13.6023C15.0375 14.205 15.0385 14.201 14.9892 16.3044C14.9656 17.307 14.9445 18.7851 14.9421 19.5888L14.9378 21.0501H16.0913H17.2448L17.2456 18.1708C17.246 16.5872 17.2615 15.2348 17.2801 15.1654C17.3051 15.0718 17.3753 15.0286 17.5532 14.9975C17.9154 14.9343 19.8473 14.953 20.0216 15.0215C20.1723 15.0808 20.1745 15.0899 20.2068 15.7942C20.2247 16.1862 20.2643 18.2729 20.2948 20.4313C20.3572 24.849 20.3218 24.5514 20.811 24.7689C21.0177 24.8607 21.2408 24.8947 21.7722 24.9154L22.4643 24.9423L22.4483 20.4063C22.4301 15.2422 22.4011 14.4912 22.2051 14.1058C22.0123 13.7264 21.4084 13.147 21.012 12.961L20.6764 12.8034L18.8308 12.7924C17.8157 12.7863 16.8721 12.8048 16.7337 12.8336ZM13.4116 22.6562L10.1841 22.6716L9.9906 22.8592C9.67114 23.1689 9.57072 23.382 9.53335 23.8297L9.49892 24.2414L11.8002 26.558C14.5663 29.3426 16.6855 31.3949 17.1576 31.7465C17.7442 32.1833 17.926 32.2415 18.6866 32.2356C19.4881 32.2294 19.797 32.1303 20.3745 31.694C20.8352 31.346 23.4954 28.7679 26.1261 26.1199L28 24.2337L27.1972 23.4266L26.3943 22.6194L23.3879 25.6111C19.5605 29.4198 18.9208 30.0208 18.6948 30.0208C18.4785 30.0208 17.6342 29.2387 15.1464 26.734L13.3654 24.9408L14.8292 24.9155C16.4438 24.8876 16.6449 24.8491 16.9255 24.5145C17.1232 24.2787 17.1867 24.0154 17.227 23.2639L17.2619 22.6128L16.9506 22.6267C16.7793 22.6344 15.1867 22.6477 13.4116 22.6562Z" fill="#00A6CA"/>
</svg>
